solid furniture4
facet normal 0.0 -1.0 -6.04849503815785e-013
   outer loop
      vertex 168.451019076754 626.976113466785 470.564732711571
      vertex -388.86132072367 626.97611346705 33.1647327115757
      vertex 168.451019076754 626.97611346705 33.1647327115757
   endloop
endfacet
facet normal 0.0 -1.0 -6.04849503815785e-013
   outer loop
      vertex -388.86132072367 626.97611346705 33.1647327115757
      vertex 168.451019076754 626.976113466785 470.564732711571
      vertex -388.86132072367 626.976113466785 470.564732711571
   endloop
endfacet
facet normal 0.0 -1.0 -6.04849503815785e-013
   outer loop
      vertex 168.451019076754 319.759928972061 374.071300836504
      vertex -388.86132072367 319.759928972268 33.1647327113899
      vertex 168.451019076754 319.759928972268 33.1647327113899
   endloop
endfacet
facet normal 0.0 -1.0 -6.04849503815785e-013
   outer loop
      vertex -388.86132072367 319.759928972268 33.1647327113899
      vertex 168.451019076754 319.759928972061 374.071300836504
      vertex -388.86132072367 319.759928972061 374.071300836504
   endloop
endfacet
facet normal 1.0 0.0 0.0
   outer loop
      vertex -388.86132072367 -147.015514375831 33.1647327111098
      vertex -388.86132072367 -147.015514376037 374.071300836225
      vertex -388.86132072367 -556.29095772393 33.16473271086
   endloop
endfacet
facet normal 1.0 0.0 0.0
   outer loop
      vertex -388.86132072367 319.759928972268 33.1647327113899
      vertex -388.86132072367 319.759928972061 374.071300836504
      vertex -388.86132072367 -112.476131729455 33.1647327111307
   endloop
endfacet
facet normal 1.0 0.0 0.0
   outer loop
      vertex -388.86132072367 -556.290957724195 470.564732710856
      vertex -388.86132072367 -147.015514376037 374.071300836225
      vertex -388.86132072367 626.976113466785 470.564732711571
   endloop
endfacet
facet normal 1.0 0.0 0.0
   outer loop
      vertex -388.86132072367 -147.015514376037 374.071300836225
      vertex -388.86132072367 -556.290957724195 470.564732710856
      vertex -388.86132072367 -556.29095772393 33.16473271086
   endloop
endfacet
facet normal 1.0 0.0 0.0
   outer loop
      vertex -388.86132072367 626.976113466785 470.564732711571
      vertex -388.86132072367 -147.015514376037 374.071300836225
      vertex -388.86132072367 -112.476131729661 374.071300836246
   endloop
endfacet
facet normal 1.0 0.0 0.0
   outer loop
      vertex -388.86132072367 626.976113466785 470.564732711571
      vertex -388.86132072367 -112.476131729661 374.071300836246
      vertex -388.86132072367 319.759928972061 374.071300836504
   endloop
endfacet
facet normal 1.0 0.0 0.0
   outer loop
      vertex -388.86132072367 319.759928972061 374.071300836504
      vertex -388.86132072367 -112.476131729661 374.071300836246
      vertex -388.86132072367 -112.476131729455 33.1647327111307
   endloop
endfacet
facet normal 1.0 0.0 0.0
   outer loop
      vertex -388.86132072367 626.976113466785 470.564732711571
      vertex -388.86132072367 319.759928972061 374.071300836504
      vertex -388.86132072367 353.508297727086 374.071300836524
   endloop
endfacet
facet normal 1.0 0.0 0.0
   outer loop
      vertex -388.86132072367 626.976113466785 470.564732711571
      vertex -388.86132072367 353.508297727086 374.071300836524
      vertex -388.86132072367 353.508297727292 33.1647327114103
   endloop
endfacet
facet normal 1.0 0.0 0.0
   outer loop
      vertex -388.86132072367 626.976113466785 470.564732711571
      vertex -388.86132072367 353.508297727292 33.1647327114103
      vertex -388.86132072367 626.97611346705 33.1647327115757
   endloop
endfacet
facet normal 0.0 -6.04849503815785e-013 1.0
   outer loop
      vertex 168.451019076754 319.759928972268 33.1647327113899
      vertex -388.86132072367 353.508297727292 33.1647327114103
      vertex -388.86132072367 319.759928972268 33.1647327113899
   endloop
endfacet
facet normal 0.0 -6.04849503815785e-013 1.0
   outer loop
      vertex -388.86132072367 353.508297727292 33.1647327114103
      vertex 168.451019076754 319.759928972268 33.1647327113899
      vertex 168.451019076754 353.508297727292 33.1647327114103
   endloop
endfacet
facet normal 1.0 0.0 0.0
   outer loop
      vertex -388.86132072367 319.759928972268 33.1647327113899
      vertex -388.86132072367 353.508297727086 374.071300836524
      vertex -388.86132072367 319.759928972061 374.071300836504
   endloop
endfacet
facet normal 1.0 0.0 0.0
   outer loop
      vertex -388.86132072367 353.508297727086 374.071300836524
      vertex -388.86132072367 319.759928972268 33.1647327113899
      vertex -388.86132072367 353.508297727292 33.1647327114103
   endloop
endfacet
facet normal 0.0 -6.04849503815785e-013 1.0
   outer loop
      vertex 168.451019076754 319.759928972061 374.071300836504
      vertex -388.86132072367 353.508297727086 374.071300836524
      vertex -388.86132072367 319.759928972061 374.071300836504
   endloop
endfacet
facet normal 0.0 -6.04849503815785e-013 1.0
   outer loop
      vertex -388.86132072367 353.508297727086 374.071300836524
      vertex 168.451019076754 319.759928972061 374.071300836504
      vertex 168.451019076754 353.508297727086 374.071300836524
   endloop
endfacet
facet normal 0.0 -6.04849503815785e-013 1.0
   outer loop
      vertex 168.451019076754 353.508297727292 33.1647327114103
      vertex -388.86132072367 626.97611346705 33.1647327115757
      vertex -388.86132072367 353.508297727292 33.1647327114103
   endloop
endfacet
facet normal 0.0 -6.04849503815785e-013 1.0
   outer loop
      vertex -388.86132072367 626.97611346705 33.1647327115757
      vertex 168.451019076754 353.508297727292 33.1647327114103
      vertex 168.451019076754 626.97611346705 33.1647327115757
   endloop
endfacet
facet normal 0.0 1.0 6.04849503815785e-013
   outer loop
      vertex -388.86132072367 353.508297727086 374.071300836524
      vertex 168.451019076754 353.508297727292 33.1647327114103
      vertex -388.86132072367 353.508297727292 33.1647327114103
   endloop
endfacet
facet normal 0.0 1.0 6.04849503815785e-013
   outer loop
      vertex 168.451019076754 353.508297727292 33.1647327114103
      vertex -388.86132072367 353.508297727086 374.071300836524
      vertex 168.451019076754 353.508297727086 374.071300836524
   endloop
endfacet
facet normal 0.0 -5.9942142335977e-013 1.0
   outer loop
      vertex 168.451019076754 -112.476131729455 33.1647327111307
      vertex -388.86132072367 319.759928972268 33.1647327113899
      vertex -388.86132072367 -112.476131729455 33.1647327111307
   endloop
endfacet
facet normal 0.0 -5.9942142335977e-013 1.0
   outer loop
      vertex -388.86132072367 319.759928972268 33.1647327113899
      vertex 168.451019076754 -112.476131729455 33.1647327111307
      vertex 168.451019076754 319.759928972268 33.1647327113899
   endloop
endfacet
facet normal -1.0 0.0 0.0
   outer loop
      vertex 168.451019076754 -556.290957724195 470.564732710856
      vertex 168.451019076754 -147.015514376037 374.071300836225
      vertex 168.451019076754 -556.29095772393 33.16473271086
   endloop
endfacet
facet normal -1.0 0.0 0.0
   outer loop
      vertex 168.451019076754 -147.015514376037 374.071300836225
      vertex 168.451019076754 -556.290957724195 470.564732710856
      vertex 168.451019076754 626.976113466785 470.564732711571
   endloop
endfacet
facet normal -1.0 0.0 0.0
   outer loop
      vertex 168.451019076754 -147.015514376037 374.071300836225
      vertex 168.451019076754 626.976113466785 470.564732711571
      vertex 168.451019076754 -112.476131729661 374.071300836246
   endloop
endfacet
facet normal -1.0 0.0 0.0
   outer loop
      vertex 168.451019076754 -112.476131729661 374.071300836246
      vertex 168.451019076754 626.976113466785 470.564732711571
      vertex 168.451019076754 319.759928972061 374.071300836504
   endloop
endfacet
facet normal -1.0 0.0 0.0
   outer loop
      vertex 168.451019076754 -112.476131729661 374.071300836246
      vertex 168.451019076754 319.759928972061 374.071300836504
      vertex 168.451019076754 -112.476131729455 33.1647327111307
   endloop
endfacet
facet normal -1.0 0.0 0.0
   outer loop
      vertex 168.451019076754 319.759928972061 374.071300836504
      vertex 168.451019076754 626.976113466785 470.564732711571
      vertex 168.451019076754 353.508297727086 374.071300836524
   endloop
endfacet
facet normal -1.0 0.0 0.0
   outer loop
      vertex 168.451019076754 353.508297727086 374.071300836524
      vertex 168.451019076754 626.976113466785 470.564732711571
      vertex 168.451019076754 353.508297727292 33.1647327114103
   endloop
endfacet
facet normal -1.0 0.0 0.0
   outer loop
      vertex 168.451019076754 353.508297727292 33.1647327114103
      vertex 168.451019076754 626.976113466785 470.564732711571
      vertex 168.451019076754 626.97611346705 33.1647327115757
   endloop
endfacet
facet normal -1.0 0.0 0.0
   outer loop
      vertex 168.451019076754 319.759928972268 33.1647327113899
      vertex 168.451019076754 -112.476131729455 33.1647327111307
      vertex 168.451019076754 319.759928972061 374.071300836504
   endloop
endfacet
facet normal -1.0 0.0 0.0
   outer loop
      vertex 168.451019076754 -147.015514375831 33.1647327111098
      vertex 168.451019076754 -556.29095772393 33.16473271086
      vertex 168.451019076754 -147.015514376037 374.071300836225
   endloop
endfacet
facet normal -1.0 0.0 0.0
   outer loop
      vertex 168.451019076754 353.508297727086 374.071300836524
      vertex 168.451019076754 319.759928972268 33.1647327113899
      vertex 168.451019076754 319.759928972061 374.071300836504
   endloop
endfacet
facet normal -1.0 0.0 0.0
   outer loop
      vertex 168.451019076754 319.759928972268 33.1647327113899
      vertex 168.451019076754 353.508297727086 374.071300836524
      vertex 168.451019076754 353.508297727292 33.1647327114103
   endloop
endfacet
facet normal 0.0 1.0 6.04849503815785e-013
   outer loop
      vertex -388.86132072367 -556.290957724195 470.564732710856
      vertex 168.451019076754 -556.29095772393 33.16473271086
      vertex -388.86132072367 -556.29095772393 33.16473271086
   endloop
endfacet
facet normal 0.0 1.0 6.04849503815785e-013
   outer loop
      vertex 168.451019076754 -556.29095772393 33.16473271086
      vertex -388.86132072367 -556.290957724195 470.564732710856
      vertex 168.451019076754 -556.290957724195 470.564732710856
   endloop
endfacet
facet normal 0.0 -6.04849503815785e-013 1.0
   outer loop
      vertex 168.451019076754 -147.015514376037 374.071300836225
      vertex -388.86132072367 -112.476131729661 374.071300836246
      vertex -388.86132072367 -147.015514376037 374.071300836225
   endloop
endfacet
facet normal 0.0 -6.04849503815785e-013 1.0
   outer loop
      vertex -388.86132072367 -112.476131729661 374.071300836246
      vertex 168.451019076754 -147.015514376037 374.071300836225
      vertex 168.451019076754 -112.476131729661 374.071300836246
   endloop
endfacet
facet normal 0.0 1.0 6.04849503815785e-013
   outer loop
      vertex -388.86132072367 -112.476131729661 374.071300836246
      vertex 168.451019076754 -112.476131729455 33.1647327111307
      vertex -388.86132072367 -112.476131729455 33.1647327111307
   endloop
endfacet
facet normal 0.0 1.0 6.04849503815785e-013
   outer loop
      vertex 168.451019076754 -112.476131729455 33.1647327111307
      vertex -388.86132072367 -112.476131729661 374.071300836246
      vertex 168.451019076754 -112.476131729661 374.071300836246
   endloop
endfacet
facet normal 0.0 -6.10582103099745e-013 1.0
   outer loop
      vertex 168.451019076754 -556.29095772393 33.16473271086
      vertex -388.86132072367 -147.015514375831 33.1647327111098
      vertex -388.86132072367 -556.29095772393 33.16473271086
   endloop
endfacet
facet normal 0.0 -6.10582103099745e-013 1.0
   outer loop
      vertex -388.86132072367 -147.015514375831 33.1647327111098
      vertex 168.451019076754 -556.29095772393 33.16473271086
      vertex 168.451019076754 -147.015514375831 33.1647327111098
   endloop
endfacet
facet normal 0.0 -1.0 -6.04849503815785e-013
   outer loop
      vertex 168.451019076754 -147.015514376037 374.071300836225
      vertex -388.86132072367 -147.015514375831 33.1647327111098
      vertex 168.451019076754 -147.015514375831 33.1647327111098
   endloop
endfacet
facet normal 0.0 -1.0 -6.04849503815785e-013
   outer loop
      vertex -388.86132072367 -147.015514375831 33.1647327111098
      vertex 168.451019076754 -147.015514376037 374.071300836225
      vertex -388.86132072367 -147.015514376037 374.071300836225
   endloop
endfacet
facet normal -1.0 0.0 0.0
   outer loop
      vertex -439.569150823458 687.342577871295 470.564732711608
      vertex -439.569150823458 -616.657422128427 10.8647327108193
      vertex -439.569150823458 -616.657422128705 470.564732710819
   endloop
endfacet
facet normal -1.0 0.0 0.0
   outer loop
      vertex -439.569150823458 -616.657422128427 10.8647327108193
      vertex -439.569150823458 687.342577871295 470.564732711608
      vertex -439.569150823458 687.342577871573 10.864732711608
   endloop
endfacet
facet normal 0.0 -6.04849503815785e-013 1.0
   outer loop
      vertex -439.569150823458 -616.657422128705 470.564732710819
      vertex -388.86132072367 -556.290957724195 470.564732710856
      vertex -439.569150823458 687.342577871295 470.564732711608
   endloop
endfacet
facet normal 0.0 -6.04849503815785e-013 1.0
   outer loop
      vertex -388.86132072367 -556.290957724195 470.564732710856
      vertex -439.569150823458 -616.657422128705 470.564732710819
      vertex 219.158849176542 -616.657422128705 470.564732710819
   endloop
endfacet
facet normal 0.0 -6.04849503815785e-013 1.0
   outer loop
      vertex -388.86132072367 -556.290957724195 470.564732710856
      vertex 219.158849176542 -616.657422128705 470.564732710819
      vertex 168.451019076754 -556.290957724195 470.564732710856
   endloop
endfacet
facet normal 0.0 -6.04849503815785e-013 1.0
   outer loop
      vertex 168.451019076754 -556.290957724195 470.564732710856
      vertex 219.158849176542 -616.657422128705 470.564732710819
      vertex 168.451019076754 626.976113466785 470.564732711571
   endloop
endfacet
facet normal 0.0 -6.04849503815785e-013 1.0
   outer loop
      vertex -439.569150823458 687.342577871295 470.564732711608
      vertex -388.86132072367 626.976113466785 470.564732711571
      vertex 219.158849176542 687.342577871295 470.564732711608
   endloop
endfacet
facet normal 0.0 -6.04849503815785e-013 1.0
   outer loop
      vertex -388.86132072367 626.976113466785 470.564732711571
      vertex -439.569150823458 687.342577871295 470.564732711608
      vertex -388.86132072367 -556.290957724195 470.564732710856
   endloop
endfacet
facet normal 0.0 -6.04849503815785e-013 1.0
   outer loop
      vertex 219.158849176542 687.342577871295 470.564732711608
      vertex -388.86132072367 626.976113466785 470.564732711571
      vertex 168.451019076754 626.976113466785 470.564732711571
   endloop
endfacet
facet normal 0.0 -6.04849503815785e-013 1.0
   outer loop
      vertex 219.158849176542 687.342577871295 470.564732711608
      vertex 168.451019076754 626.976113466785 470.564732711571
      vertex 219.158849176542 -616.657422128705 470.564732710819
   endloop
endfacet
facet normal 1.0 0.0 0.0
   outer loop
      vertex 219.158849176542 -616.657422128427 10.8647327108193
      vertex 219.158849176542 687.342577871295 470.564732711608
      vertex 219.158849176542 -616.657422128705 470.564732710819
   endloop
endfacet
facet normal 1.0 0.0 0.0
   outer loop
      vertex 219.158849176542 687.342577871295 470.564732711608
      vertex 219.158849176542 -616.657422128427 10.8647327108193
      vertex 219.158849176542 687.342577871573 10.864732711608
   endloop
endfacet
facet normal 2.86252500851072e-029 -6.04809233418329e-013 1.0
   outer loop
      vertex 219.158849176542 -616.657422128427 10.8647327108193
      vertex -439.569150823458 687.342577871573 10.864732711608
      vertex -439.569150823458 -616.657422128427 10.8647327108193
   endloop
endfacet
facet normal 2.86252500851072e-029 -6.04809233418329e-013 1.0
   outer loop
      vertex -439.569150823458 687.342577871573 10.864732711608
      vertex 219.158849176542 -616.657422128427 10.8647327108193
      vertex 219.158849176542 687.342577871573 10.864732711608
   endloop
endfacet
facet normal 0.0 1.0 6.04849503815785e-013
   outer loop
      vertex -439.569150823458 687.342577871295 470.564732711608
      vertex 219.158849176542 687.342577871573 10.864732711608
      vertex -439.569150823458 687.342577871573 10.864732711608
   endloop
endfacet
facet normal 0.0 1.0 6.04849503815785e-013
   outer loop
      vertex 219.158849176542 687.342577871573 10.864732711608
      vertex -439.569150823458 687.342577871295 470.564732711608
      vertex 219.158849176542 687.342577871295 470.564732711608
   endloop
endfacet
facet normal 0.0 -1.0 -6.04849503815785e-013
   outer loop
      vertex 219.158849176542 -616.657422128705 470.564732710819
      vertex -439.569150823458 -616.657422128427 10.8647327108193
      vertex 219.158849176542 -616.657422128427 10.8647327108193
   endloop
endfacet
facet normal 0.0 -1.0 -6.04849503815785e-013
   outer loop
      vertex -439.569150823458 -616.657422128427 10.8647327108193
      vertex 219.158849176542 -616.657422128705 470.564732710819
      vertex -439.569150823458 -616.657422128705 470.564732710819
   endloop
endfacet
facet normal 1.0 0.0 0.0
   outer loop
      vertex 498.70245888717 -158.804176850572 32.085381738747
      vertex 498.70245888717 -158.804176850795 372.991949863863
      vertex 498.70245888717 -542.685538080975 32.0853817385516
   endloop
endfacet
facet normal 1.0 0.0 0.0
   outer loop
      vertex 498.70245888717 -542.685538081213 469.485381738547
      vertex 498.70245888717 -158.804176850795 372.991949863863
      vertex 498.70245888717 287.967945894855 469.485381739106
   endloop
endfacet
facet normal 1.0 0.0 0.0
   outer loop
      vertex 498.70245888717 -158.804176850795 372.991949863863
      vertex 498.70245888717 -542.685538081213 469.485381738547
      vertex 498.70245888717 -542.685538080975 32.0853817385516
   endloop
endfacet
facet normal 1.0 0.0 0.0
   outer loop
      vertex 498.70245888717 287.967945894855 469.485381739106
      vertex 498.70245888717 -158.804176850795 372.991949863863
      vertex 498.70245888717 -129.708200909488 372.991949863879
   endloop
endfacet
facet normal 1.0 0.0 0.0
   outer loop
      vertex 498.70245888717 287.967945894855 469.485381739106
      vertex 498.70245888717 -129.708200909488 372.991949863879
      vertex 498.70245888717 -129.708200909265 32.0853817387633
   endloop
endfacet
facet normal 1.0 0.0 0.0
   outer loop
      vertex 498.70245888717 287.967945894855 469.485381739106
      vertex 498.70245888717 -129.708200909265 32.0853817387633
      vertex 498.70245888717 287.967945895093 32.0853817391098
   endloop
endfacet
facet normal 0.0 -5.08926188249239e-013 1.0
   outer loop
      vertex 1029.47611583995 -542.685538080975 32.0853817385516
      vertex 498.70245888717 -158.804176850572 32.085381738747
      vertex 498.70245888717 -542.685538080975 32.0853817385516
   endloop
endfacet
facet normal 0.0 -5.08926188249239e-013 1.0
   outer loop
      vertex 498.70245888717 -158.804176850572 32.085381738747
      vertex 1029.47611583995 -542.685538080975 32.0853817385516
      vertex 1029.47611583995 -158.804176850572 32.085381738747
   endloop
endfacet
facet normal -1.0 0.0 0.0
   outer loop
      vertex 1029.47611583995 -542.685538081213 469.485381738547
      vertex 1029.47611583995 -158.804176850795 372.991949863863
      vertex 1029.47611583995 -542.685538080975 32.0853817385516
   endloop
endfacet
facet normal -1.0 0.0 0.0
   outer loop
      vertex 1029.47611583995 -158.804176850795 372.991949863863
      vertex 1029.47611583995 -542.685538081213 469.485381738547
      vertex 1029.47611583995 287.967945894855 469.485381739106
   endloop
endfacet
facet normal -1.0 0.0 0.0
   outer loop
      vertex 1029.47611583995 -158.804176850795 372.991949863863
      vertex 1029.47611583995 287.967945894855 469.485381739106
      vertex 1029.47611583995 -129.708200909488 372.991949863879
   endloop
endfacet
facet normal -1.0 0.0 0.0
   outer loop
      vertex 1029.47611583995 -129.708200909488 372.991949863879
      vertex 1029.47611583995 287.967945894855 469.485381739106
      vertex 1029.47611583995 -129.708200909265 32.0853817387633
   endloop
endfacet
facet normal -1.0 0.0 0.0
   outer loop
      vertex 1029.47611583995 -129.708200909265 32.0853817387633
      vertex 1029.47611583995 287.967945894855 469.485381739106
      vertex 1029.47611583995 287.967945895093 32.0853817391098
   endloop
endfacet
facet normal -1.0 0.0 0.0
   outer loop
      vertex 1029.47611583995 -158.804176850572 32.085381738747
      vertex 1029.47611583995 -542.685538080975 32.0853817385516
      vertex 1029.47611583995 -158.804176850795 372.991949863863
   endloop
endfacet
facet normal 0.0 -1.0 -5.44364553434207e-013
   outer loop
      vertex 1029.47611583995 287.967945894855 469.485381739106
      vertex 498.70245888717 287.967945895093 32.0853817391098
      vertex 1029.47611583995 287.967945895093 32.0853817391098
   endloop
endfacet
facet normal 0.0 -1.0 -5.44364553434207e-013
   outer loop
      vertex 498.70245888717 287.967945895093 32.0853817391098
      vertex 1029.47611583995 287.967945894855 469.485381739106
      vertex 498.70245888717 287.967945894855 469.485381739106
   endloop
endfacet
facet normal -7.8596662977195e-029 -6.72086175383065e-013 1.0
   outer loop
      vertex 1077.76928736356 -585.062796092929 9.78538173851898
      vertex 450.409287363562 330.345203907071 9.78538173913423
      vertex 450.409287363562 -585.062796092929 9.78538173851898
   endloop
endfacet
facet normal -7.8596662977195e-029 -6.72086175383065e-013 1.0
   outer loop
      vertex 450.409287363562 330.345203907071 9.78538173913423
      vertex 1077.76928736356 -585.062796092929 9.78538173851898
      vertex 1077.76928736356 330.345203907071 9.78538173913423
   endloop
endfacet
facet normal 0.0 -1.0 -6.53519480152949e-013
   outer loop
      vertex 1029.47611583995 -158.804176850795 372.991949863863
      vertex 498.70245888717 -158.804176850572 32.085381738747
      vertex 1029.47611583995 -158.804176850572 32.085381738747
   endloop
endfacet
facet normal 0.0 -1.0 -6.53519480152949e-013
   outer loop
      vertex 498.70245888717 -158.804176850572 32.085381738747
      vertex 1029.47611583995 -158.804176850795 372.991949863863
      vertex 498.70245888717 -158.804176850795 372.991949863863
   endloop
endfacet
facet normal 0.0 -5.59806841882644e-013 1.0
   outer loop
      vertex 1029.47611583995 -158.804176850795 372.991949863863
      vertex 498.70245888717 -129.708200909488 372.991949863879
      vertex 498.70245888717 -158.804176850795 372.991949863863
   endloop
endfacet
facet normal 0.0 -5.59806841882644e-013 1.0
   outer loop
      vertex 498.70245888717 -129.708200909488 372.991949863879
      vertex 1029.47611583995 -158.804176850795 372.991949863863
      vertex 1029.47611583995 -129.708200909488 372.991949863879
   endloop
endfacet
facet normal 0.0 -1.0 -5.44364553434207e-013
   outer loop
      vertex 1077.76928736356 -585.062796093179 469.485381738519
      vertex 450.409287363562 -585.062796092929 9.78538173851898
      vertex 1077.76928736356 -585.062796092929 9.78538173851898
   endloop
endfacet
facet normal 0.0 -1.0 -5.44364553434207e-013
   outer loop
      vertex 450.409287363562 -585.062796092929 9.78538173851898
      vertex 1077.76928736356 -585.062796093179 469.485381738519
      vertex 450.409287363562 -585.062796093179 469.485381738519
   endloop
endfacet
facet normal 0.0 1.0 5.44364553434207e-013
   outer loop
      vertex 450.409287363562 330.345203906821 469.485381739134
      vertex 1077.76928736356 330.345203907071 9.78538173913423
      vertex 450.409287363562 330.345203907071 9.78538173913423
   endloop
endfacet
facet normal 0.0 1.0 5.44364553434207e-013
   outer loop
      vertex 1077.76928736356 330.345203907071 9.78538173913423
      vertex 450.409287363562 330.345203906821 469.485381739134
      vertex 1077.76928736356 330.345203906821 469.485381739134
   endloop
endfacet
facet normal 0.0 -6.72055004239761e-013 1.0
   outer loop
      vertex 450.409287363562 -585.062796093179 469.485381738519
      vertex 498.70245888717 -542.685538081213 469.485381738547
      vertex 450.409287363562 330.345203906821 469.485381739134
   endloop
endfacet
facet normal 0.0 -6.72055004239761e-013 1.0
   outer loop
      vertex 498.70245888717 -542.685538081213 469.485381738547
      vertex 450.409287363562 -585.062796093179 469.485381738519
      vertex 1077.76928736356 -585.062796093179 469.485381738519
   endloop
endfacet
facet normal 0.0 -6.72055004239761e-013 1.0
   outer loop
      vertex 498.70245888717 -542.685538081213 469.485381738547
      vertex 1077.76928736356 -585.062796093179 469.485381738519
      vertex 1029.47611583995 -542.685538081213 469.485381738547
   endloop
endfacet
facet normal 0.0 -6.72055004239761e-013 1.0
   outer loop
      vertex 1029.47611583995 -542.685538081213 469.485381738547
      vertex 1077.76928736356 -585.062796093179 469.485381738519
      vertex 1029.47611583995 287.967945894855 469.485381739106
   endloop
endfacet
facet normal 0.0 -6.72055004239761e-013 1.0
   outer loop
      vertex 450.409287363562 330.345203906821 469.485381739134
      vertex 498.70245888717 287.967945894855 469.485381739106
      vertex 1077.76928736356 330.345203906821 469.485381739134
   endloop
endfacet
facet normal 0.0 -6.72055004239761e-013 1.0
   outer loop
      vertex 498.70245888717 287.967945894855 469.485381739106
      vertex 450.409287363562 330.345203906821 469.485381739134
      vertex 498.70245888717 -542.685538081213 469.485381738547
   endloop
endfacet
facet normal 0.0 -6.72055004239761e-013 1.0
   outer loop
      vertex 1077.76928736356 330.345203906821 469.485381739134
      vertex 498.70245888717 287.967945894855 469.485381739106
      vertex 1029.47611583995 287.967945894855 469.485381739106
   endloop
endfacet
facet normal 0.0 -6.72055004239761e-013 1.0
   outer loop
      vertex 1077.76928736356 330.345203906821 469.485381739134
      vertex 1029.47611583995 287.967945894855 469.485381739106
      vertex 1077.76928736356 -585.062796093179 469.485381738519
   endloop
endfacet
facet normal 0.0 1.0 5.44364553434207e-013
   outer loop
      vertex 498.70245888717 -542.685538081213 469.485381738547
      vertex 1029.47611583995 -542.685538080975 32.0853817385516
      vertex 498.70245888717 -542.685538080975 32.0853817385516
   endloop
endfacet
facet normal 0.0 1.0 5.44364553434207e-013
   outer loop
      vertex 1029.47611583995 -542.685538080975 32.0853817385516
      vertex 498.70245888717 -542.685538081213 469.485381738547
      vertex 1029.47611583995 -542.685538081213 469.485381738547
   endloop
endfacet
facet normal -1.0 0.0 0.0
   outer loop
      vertex 450.409287363562 330.345203906821 469.485381739134
      vertex 450.409287363562 -585.062796092929 9.78538173851898
      vertex 450.409287363562 -585.062796093179 469.485381738519
   endloop
endfacet
facet normal -1.0 0.0 0.0
   outer loop
      vertex 450.409287363562 -585.062796092929 9.78538173851898
      vertex 450.409287363562 330.345203906821 469.485381739134
      vertex 450.409287363562 330.345203907071 9.78538173913423
   endloop
endfacet
facet normal 1.0 0.0 0.0
   outer loop
      vertex 1077.76928736356 -585.062796092929 9.78538173851898
      vertex 1077.76928736356 330.345203906821 469.485381739134
      vertex 1077.76928736356 -585.062796093179 469.485381738519
   endloop
endfacet
facet normal 1.0 0.0 0.0
   outer loop
      vertex 1077.76928736356 330.345203906821 469.485381739134
      vertex 1077.76928736356 -585.062796092929 9.78538173851898
      vertex 1077.76928736356 330.345203907071 9.78538173913423
   endloop
endfacet
facet normal 0.0 1.0 6.53233601115262e-013
   outer loop
      vertex 498.70245888717 -129.708200909488 372.991949863879
      vertex 1029.47611583995 -129.708200909265 32.0853817387633
      vertex 498.70245888717 -129.708200909265 32.0853817387633
   endloop
endfacet
facet normal 0.0 1.0 6.53233601115262e-013
   outer loop
      vertex 1029.47611583995 -129.708200909265 32.0853817387633
      vertex 498.70245888717 -129.708200909488 372.991949863879
      vertex 1029.47611583995 -129.708200909488 372.991949863879
   endloop
endfacet
endsolid furniture4
