solid piece3
facet normal 0.893190367761372 -0.449678737476329 -1.57471943782791e-032
   outer loop
      vertex 1519.83236560855 1789.90815512433 26.8
      vertex 626.250787547927 15.0 505.7
      vertex 626.250787547927 15.0 26.8
   endloop
endfacet
facet normal 0.893190367761372 -0.449678737476329 -1.57471943782791e-032
   outer loop
      vertex 626.250787547927 15.0 505.7
      vertex 1519.83236560855 1789.90815512433 26.8
      vertex 1519.83236560855 1789.90815512433 505.7
   endloop
endfacet
facet normal -0.0 1.0 -0.0
   outer loop
      vertex 595.850787547927 15.0 505.7
      vertex 626.250787547927 15.0 26.8
      vertex 595.850787547927 15.0 26.8
   endloop
endfacet
facet normal -0.0 1.0 -0.0
   outer loop
      vertex 626.250787547927 15.0 26.8
      vertex 595.850787547927 15.0 505.7
      vertex 626.250787547927 15.0 505.7
   endloop
endfacet
facet normal -0.0 -0.0 1.0
   outer loop
      vertex 657.181999685503 136.821298983022 26.8
      vertex 632.177107133807 87.1544428193858 26.8
      vertex 657.181999685503 87.1544428193858 26.8
   endloop
endfacet
facet normal -0.893190367761372 0.449678737476329 -4.62254052994318e-020
   outer loop
      vertex 632.177107133807 87.1544428193858 505.7
      vertex 595.850787547927 15.0 26.8
      vertex 595.850787547927 15.0 505.7
   endloop
endfacet
facet normal -0.893190367761372 0.449678737476329 -4.62254052994318e-020
   outer loop
      vertex 595.850787547927 15.0 26.8
      vertex 632.177107133807 87.1544428193858 505.7
      vertex 632.177107133807 87.1544428193858 26.8
   endloop
endfacet
facet normal -5.64928890438924e-017 7.12695393423965e-017 1.0
   outer loop
      vertex 626.250787547927 15.0 505.7
      vertex 632.177107133807 87.1544428193858 505.7
      vertex 595.850787547927 15.0 505.7
   endloop
endfacet
facet normal -5.64928890438924e-017 7.12695393423965e-017 1.0
   outer loop
      vertex 632.177107133807 87.1544428193858 505.7
      vertex 626.250787547927 15.0 505.7
      vertex 1519.83236560855 1789.90815512433 505.7
   endloop
endfacet
facet normal -5.64928890438924e-017 7.12695393423965e-017 1.0
   outer loop
      vertex 632.177107133807 87.1544428193858 505.7
      vertex 1519.83236560855 1789.90815512433 505.7
      vertex 657.181999685503 136.821298983022 505.7
   endloop
endfacet
facet normal -5.64928890438924e-017 7.12695393423965e-017 1.0
   outer loop
      vertex 657.181999685503 136.821298983022 505.7
      vertex 1519.83236560855 1789.90815512433 505.7
      vertex 695.281675966559 212.498134539111 505.7
   endloop
endfacet
facet normal -5.64928890438924e-017 7.12695393423965e-017 1.0
   outer loop
      vertex 695.281675966559 212.498134539111 505.7
      vertex 1519.83236560855 1789.90815512433 505.7
      vertex 720.286568518255 262.164990702747 505.7
   endloop
endfacet
facet normal -5.64928890438924e-017 7.12695393423965e-017 1.0
   outer loop
      vertex 720.286568518255 262.164990702747 505.7
      vertex 1519.83236560855 1789.90815512433 505.7
      vertex 758.3743575825 337.818214852136 505.7
   endloop
endfacet
facet normal -5.64928890438924e-017 7.12695393423965e-017 1.0
   outer loop
      vertex 758.3743575825 337.818214852136 505.7
      vertex 1519.83236560855 1789.90815512433 505.7
      vertex 783.379250134195 387.485071015772 505.7
   endloop
endfacet
facet normal -5.64928890438924e-017 7.12695393423965e-017 1.0
   outer loop
      vertex 783.379250134195 387.485071015772 505.7
      vertex 1519.83236560855 1789.90815512433 505.7
      vertex 821.422071324693 463.048976128384 505.7
   endloop
endfacet
facet normal -5.64928890438924e-017 7.12695393423965e-017 1.0
   outer loop
      vertex 821.422071324693 463.048976128384 505.7
      vertex 1519.83236560855 1789.90815512433 505.7
      vertex 846.426963876388 512.71583229202 505.7
   endloop
endfacet
facet normal -5.64928890438924e-017 7.12695393423965e-017 1.0
   outer loop
      vertex 846.426963876388 512.71583229202 505.7
      vertex 1519.83236560855 1789.90815512433 505.7
      vertex 884.469785066885 588.279737404632 505.7
   endloop
endfacet
facet normal -5.64928890438924e-017 7.12695393423965e-017 1.0
   outer loop
      vertex 884.469785066885 588.279737404632 505.7
      vertex 1519.83236560855 1789.90815512433 505.7
      vertex 909.474677618581 637.946593568268 505.7
   endloop
endfacet
facet normal -5.64928890438924e-017 7.12695393423965e-017 1.0
   outer loop
      vertex 909.474677618581 637.946593568268 505.7
      vertex 1519.83236560855 1789.90815512433 505.7
      vertex 947.607434556574 713.689136754432 505.7
   endloop
endfacet
facet normal -5.64928890438924e-017 7.12695393423965e-017 1.0
   outer loop
      vertex 947.607434556574 713.689136754432 505.7
      vertex 1519.83236560855 1789.90815512433 505.7
      vertex 972.612327108269 763.355992918068 505.7
   endloop
endfacet
facet normal -5.64928890438924e-017 7.12695393423965e-017 1.0
   outer loop
      vertex 972.612327108269 763.355992918068 505.7
      vertex 1519.83236560855 1789.90815512433 505.7
      vertex 1010.61018042502 838.830578993904 505.7
   endloop
endfacet
facet normal -5.64928890438924e-017 7.12695393423965e-017 1.0
   outer loop
      vertex 1010.61018042502 838.830578993904 505.7
      vertex 1519.83236560855 1789.90815512433 505.7
      vertex 1035.61507297671 888.49743515754 505.7
   endloop
endfacet
facet normal -5.64928890438924e-017 7.12695393423965e-017 1.0
   outer loop
      vertex 1035.61507297671 888.49743515754 505.7
      vertex 1519.83236560855 1789.90815512433 505.7
      vertex 1073.79279778845 964.32929738048 505.7
   endloop
endfacet
facet normal -5.64928890438924e-017 7.12695393423965e-017 1.0
   outer loop
      vertex 1073.79279778845 964.32929738048 505.7
      vertex 1519.83236560855 1789.90815512433 505.7
      vertex 1098.79769034015 1013.99615354412 505.7
   endloop
endfacet
facet normal -5.64928890438924e-017 7.12695393423965e-017 1.0
   outer loop
      vertex 1098.79769034015 1013.99615354412 505.7
      vertex 1519.83236560855 1789.90815512433 505.7
      vertex 1136.84051153065 1089.56005865673 505.7
   endloop
endfacet
facet normal -5.64928890438924e-017 7.12695393423965e-017 1.0
   outer loop
      vertex 1136.84051153065 1089.56005865673 505.7
      vertex 1519.83236560855 1789.90815512433 505.7
      vertex 1161.84540408234 1139.22691482036 505.7
   endloop
endfacet
facet normal -5.64928890438924e-017 7.12695393423965e-017 1.0
   outer loop
      vertex 1161.84540408234 1139.22691482036 505.7
      vertex 1519.83236560855 1789.90815512433 505.7
      vertex 1199.88822527284 1214.79081993298 505.7
   endloop
endfacet
facet normal -5.64928890438924e-017 7.12695393423965e-017 1.0
   outer loop
      vertex 1199.88822527284 1214.79081993298 505.7
      vertex 1519.83236560855 1789.90815512433 505.7
      vertex 1224.89311782454 1264.45767609661 505.7
   endloop
endfacet
facet normal -5.64928890438924e-017 7.12695393423965e-017 1.0
   outer loop
      vertex 1224.89311782454 1264.45767609661 505.7
      vertex 1519.83236560855 1789.90815512433 505.7
      vertex 1263.02587476253 1340.20021928278 505.7
   endloop
endfacet
facet normal -5.64928890438924e-017 7.12695393423965e-017 1.0
   outer loop
      vertex 1263.02587476253 1340.20021928278 505.7
      vertex 1519.83236560855 1789.90815512433 505.7
      vertex 1288.03076731422 1389.86707544641 505.7
   endloop
endfacet
facet normal -5.64928890438924e-017 7.12695393423965e-017 1.0
   outer loop
      vertex 1288.03076731422 1389.86707544641 505.7
      vertex 1519.83236560855 1789.90815512433 505.7
      vertex 1326.07358850472 1465.43098055903 505.7
   endloop
endfacet
facet normal -5.64928890438924e-017 7.12695393423965e-017 1.0
   outer loop
      vertex 1326.07358850472 1465.43098055903 505.7
      vertex 1519.83236560855 1789.90815512433 505.7
      vertex 1351.07848105642 1515.09783672266 505.7
   endloop
endfacet
facet normal -5.64928890438924e-017 7.12695393423965e-017 1.0
   outer loop
      vertex 1351.07848105642 1515.09783672266 505.7
      vertex 1519.83236560855 1789.90815512433 505.7
      vertex 1389.25620586816 1590.9296989456 505.7
   endloop
endfacet
facet normal -5.64928890438924e-017 7.12695393423965e-017 1.0
   outer loop
      vertex 1389.25620586816 1590.9296989456 505.7
      vertex 1519.83236560855 1789.90815512433 505.7
      vertex 1414.26109841985 1640.59655510924 505.7
   endloop
endfacet
facet normal -5.64928890438924e-017 7.12695393423965e-017 1.0
   outer loop
      vertex 1414.26109841985 1640.59655510924 505.7
      vertex 1519.83236560855 1789.90815512433 505.7
      vertex 1452.89735484607 1717.33919204139 505.7
   endloop
endfacet
facet normal -5.64928890438924e-017 7.12695393423965e-017 1.0
   outer loop
      vertex 1452.89735484607 1717.33919204139 505.7
      vertex 1519.83236560855 1789.90815512433 505.7
      vertex 1477.90224739776 1767.00604820502 505.7
   endloop
endfacet
facet normal -5.64928890438924e-017 7.12695393423965e-017 1.0
   outer loop
      vertex 1477.90224739776 1767.00604820502 505.7
      vertex 1519.83236560855 1789.90815512433 505.7
      vertex 1489.43236560855 1789.90815512433 505.7
   endloop
endfacet
facet normal -5.64928890438924e-017 7.12695393423965e-017 1.0
   outer loop
      vertex 1452.89735484607 1717.33919204139 505.7
      vertex 1360.01024609471 1767.00604820502 505.7
      vertex 1335.00535354301 1717.33919204139 505.7
   endloop
endfacet
facet normal -5.64928890438924e-017 7.12695393423965e-017 1.0
   outer loop
      vertex 1360.01024609471 1767.00604820502 505.7
      vertex 1452.89735484607 1717.33919204139 505.7
      vertex 1477.90224739776 1767.00604820502 505.7
   endloop
endfacet
facet normal -5.64928890438924e-017 7.12695393423965e-017 1.0
   outer loop
      vertex 1389.25620586816 1590.9296989456 505.7
      vertex 1296.3690971168 1640.59655510924 505.7
      vertex 1271.3642045651 1590.9296989456 505.7
   endloop
endfacet
facet normal -5.64928890438924e-017 7.12695393423965e-017 1.0
   outer loop
      vertex 1296.3690971168 1640.59655510924 505.7
      vertex 1389.25620586816 1590.9296989456 505.7
      vertex 1414.26109841985 1640.59655510924 505.7
   endloop
endfacet
facet normal -5.64928890438924e-017 7.12695393423965e-017 1.0
   outer loop
      vertex 1326.07358850472 1465.43098055903 505.7
      vertex 1233.18647975336 1515.09783672266 505.7
      vertex 1208.18158720167 1465.43098055903 505.7
   endloop
endfacet
facet normal -5.64928890438924e-017 7.12695393423965e-017 1.0
   outer loop
      vertex 1233.18647975336 1515.09783672266 505.7
      vertex 1326.07358850472 1465.43098055903 505.7
      vertex 1351.07848105642 1515.09783672266 505.7
   endloop
endfacet
facet normal -5.64928890438924e-017 7.12695393423965e-017 1.0
   outer loop
      vertex 1263.02587476253 1340.20021928278 505.7
      vertex 1170.13876601117 1389.86707544641 505.7
      vertex 1145.13387345947 1340.20021928278 505.7
   endloop
endfacet
facet normal -5.64928890438924e-017 7.12695393423965e-017 1.0
   outer loop
      vertex 1170.13876601117 1389.86707544641 505.7
      vertex 1263.02587476253 1340.20021928278 505.7
      vertex 1288.03076731422 1389.86707544641 505.7
   endloop
endfacet
facet normal -5.64928890438924e-017 7.12695393423965e-017 1.0
   outer loop
      vertex 1199.88822527284 1214.79081993298 505.7
      vertex 1107.00111652148 1264.45767609661 505.7
      vertex 1081.99622396979 1214.79081993298 505.7
   endloop
endfacet
facet normal -5.64928890438924e-017 7.12695393423965e-017 1.0
   outer loop
      vertex 1107.00111652148 1264.45767609661 505.7
      vertex 1199.88822527284 1214.79081993298 505.7
      vertex 1224.89311782454 1264.45767609661 505.7
   endloop
endfacet
facet normal -5.64928890438924e-017 7.12695393423965e-017 1.0
   outer loop
      vertex 1136.84051153065 1089.56005865673 505.7
      vertex 1043.95340277929 1139.22691482036 505.7
      vertex 1018.94851022759 1089.56005865673 505.7
   endloop
endfacet
facet normal -5.64928890438924e-017 7.12695393423965e-017 1.0
   outer loop
      vertex 1043.95340277929 1139.22691482036 505.7
      vertex 1136.84051153065 1089.56005865673 505.7
      vertex 1161.84540408234 1139.22691482036 505.7
   endloop
endfacet
facet normal -5.64928890438924e-017 7.12695393423965e-017 1.0
   outer loop
      vertex 1073.79279778845 964.32929738048 505.7
      vertex 980.905689037095 1013.99615354412 505.7
      vertex 955.9007964854 964.32929738048 505.7
   endloop
endfacet
facet normal -5.64928890438924e-017 7.12695393423965e-017 1.0
   outer loop
      vertex 980.905689037095 1013.99615354412 505.7
      vertex 1073.79279778845 964.32929738048 505.7
      vertex 1098.79769034015 1013.99615354412 505.7
   endloop
endfacet
facet normal -5.64928890438924e-017 7.12695393423965e-017 1.0
   outer loop
      vertex 1010.61018042502 838.830578993904 505.7
      vertex 917.723071673659 888.49743515754 505.7
      vertex 892.718179121964 838.830578993904 505.7
   endloop
endfacet
facet normal -5.64928890438924e-017 7.12695393423965e-017 1.0
   outer loop
      vertex 917.723071673659 888.49743515754 505.7
      vertex 1010.61018042502 838.830578993904 505.7
      vertex 1035.61507297671 888.49743515754 505.7
   endloop
endfacet
facet normal -5.64928890438924e-017 7.12695393423965e-017 1.0
   outer loop
      vertex 947.607434556574 713.689136754432 505.7
      vertex 854.720325805214 763.355992918068 505.7
      vertex 829.715433253518 713.689136754432 505.7
   endloop
endfacet
facet normal -5.64928890438924e-017 7.12695393423965e-017 1.0
   outer loop
      vertex 854.720325805214 763.355992918068 505.7
      vertex 947.607434556574 713.689136754432 505.7
      vertex 972.612327108269 763.355992918068 505.7
   endloop
endfacet
facet normal -5.64928890438924e-017 7.12695393423965e-017 1.0
   outer loop
      vertex 884.469785066885 588.279737404632 505.7
      vertex 791.582676315526 637.946593568268 505.7
      vertex 766.57778376383 588.279737404632 505.7
   endloop
endfacet
facet normal -5.64928890438924e-017 7.12695393423965e-017 1.0
   outer loop
      vertex 791.582676315526 637.946593568268 505.7
      vertex 884.469785066885 588.279737404632 505.7
      vertex 909.474677618581 637.946593568268 505.7
   endloop
endfacet
facet normal -5.64928890438924e-017 7.12695393423965e-017 1.0
   outer loop
      vertex 821.422071324693 463.048976128384 505.7
      vertex 728.534962573333 512.71583229202 505.7
      vertex 703.530070021637 463.048976128384 505.7
   endloop
endfacet
facet normal -5.64928890438924e-017 7.12695393423965e-017 1.0
   outer loop
      vertex 728.534962573333 512.71583229202 505.7
      vertex 821.422071324693 463.048976128384 505.7
      vertex 846.426963876388 512.71583229202 505.7
   endloop
endfacet
facet normal -5.64928890438924e-017 7.12695393423965e-017 1.0
   outer loop
      vertex 758.3743575825 337.818214852136 505.7
      vertex 665.48724883114 387.485071015772 505.7
      vertex 640.482356279444 337.818214852136 505.7
   endloop
endfacet
facet normal -5.64928890438924e-017 7.12695393423965e-017 1.0
   outer loop
      vertex 665.48724883114 387.485071015772 505.7
      vertex 758.3743575825 337.818214852136 505.7
      vertex 783.379250134195 387.485071015772 505.7
   endloop
endfacet
facet normal -5.64928890438924e-017 7.12695393423965e-017 1.0
   outer loop
      vertex 695.281675966559 212.498134539111 505.7
      vertex 602.394567215199 262.164990702747 505.7
      vertex 577.389674663504 212.498134539111 505.7
   endloop
endfacet
facet normal -5.64928890438924e-017 7.12695393423965e-017 1.0
   outer loop
      vertex 602.394567215199 262.164990702747 505.7
      vertex 695.281675966559 212.498134539111 505.7
      vertex 720.286568518255 262.164990702747 505.7
   endloop
endfacet
facet normal -5.64928890438924e-017 7.12695393423965e-017 1.0
   outer loop
      vertex 632.177107133807 87.1544428193858 505.7
      vertex 539.289998382447 136.821298983022 505.7
      vertex 514.285105830752 87.1544428193858 505.7
   endloop
endfacet
facet normal -5.64928890438924e-017 7.12695393423965e-017 1.0
   outer loop
      vertex 539.289998382447 136.821298983022 505.7
      vertex 632.177107133807 87.1544428193858 505.7
      vertex 657.181999685503 136.821298983022 505.7
   endloop
endfacet
facet normal 0.0 -1.0 0.0
   outer loop
      vertex 1519.83236560855 1789.90815512433 505.7
      vertex 1489.43236560855 1789.90815512433 26.8
      vertex 1519.83236560855 1789.90815512433 26.8
   endloop
endfacet
facet normal 0.0 -1.0 0.0
   outer loop
      vertex 1489.43236560855 1789.90815512433 26.8
      vertex 1519.83236560855 1789.90815512433 505.7
      vertex 1489.43236560855 1789.90815512433 505.7
   endloop
endfacet
facet normal 0.0 0.0 -1.0
   outer loop
      vertex 539.289998382447 136.821298983022 26.8
      vertex 632.177107133807 87.1544428193858 26.8
      vertex 514.285105830752 87.1544428193858 26.8
   endloop
endfacet
facet normal 0.0 0.0 -1.0
   outer loop
      vertex 632.177107133807 87.1544428193858 26.8
      vertex 539.289998382447 136.821298983022 26.8
      vertex 657.181999685503 136.821298983022 26.8
   endloop
endfacet
facet normal -0.0 -0.0 1.0
   outer loop
      vertex 626.250787547927 15.0 26.8
      vertex 632.177107133807 87.1544428193858 26.8
      vertex 595.850787547927 15.0 26.8
   endloop
endfacet
facet normal -0.0 -0.0 1.0
   outer loop
      vertex 632.177107133807 87.1544428193858 26.8
      vertex 626.250787547927 15.0 26.8
      vertex 657.181999685503 87.1544428193858 26.8
   endloop
endfacet
facet normal -0.0 -0.0 1.0
   outer loop
      vertex 657.181999685503 87.1544428193858 26.8
      vertex 626.250787547927 15.0 26.8
      vertex 1519.83236560855 1789.90815512433 26.8
   endloop
endfacet
facet normal -0.0 -0.0 1.0
   outer loop
      vertex 657.181999685503 87.1544428193858 26.8
      vertex 1519.83236560855 1789.90815512433 26.8
      vertex 657.181999685503 136.821298983022 26.8
   endloop
endfacet
facet normal -0.0 -0.0 1.0
   outer loop
      vertex 657.181999685503 136.821298983022 26.8
      vertex 1519.83236560855 1789.90815512433 26.8
      vertex 695.281675966559 212.498134539111 26.8
   endloop
endfacet
facet normal -0.0 -0.0 1.0
   outer loop
      vertex 695.281675966559 212.498134539111 26.8
      vertex 1519.83236560855 1789.90815512433 26.8
      vertex 720.286568518255 262.164990702747 26.8
   endloop
endfacet
facet normal -0.0 -0.0 1.0
   outer loop
      vertex 720.286568518255 262.164990702747 26.8
      vertex 1519.83236560855 1789.90815512433 26.8
      vertex 758.3743575825 337.818214852136 26.8
   endloop
endfacet
facet normal -0.0 -0.0 1.0
   outer loop
      vertex 758.3743575825 337.818214852136 26.8
      vertex 1519.83236560855 1789.90815512433 26.8
      vertex 783.379250134195 387.485071015772 26.8
   endloop
endfacet
facet normal -0.0 -0.0 1.0
   outer loop
      vertex 783.379250134195 387.485071015772 26.8
      vertex 1519.83236560855 1789.90815512433 26.8
      vertex 821.422071324693 463.048976128384 26.8
   endloop
endfacet
facet normal -0.0 -0.0 1.0
   outer loop
      vertex 821.422071324693 463.048976128384 26.8
      vertex 1519.83236560855 1789.90815512433 26.8
      vertex 846.426963876388 512.71583229202 26.8
   endloop
endfacet
facet normal -0.0 -0.0 1.0
   outer loop
      vertex 846.426963876388 512.71583229202 26.8
      vertex 1519.83236560855 1789.90815512433 26.8
      vertex 884.469785066885 588.279737404632 26.8
   endloop
endfacet
facet normal -0.0 -0.0 1.0
   outer loop
      vertex 884.469785066885 588.279737404632 26.8
      vertex 1519.83236560855 1789.90815512433 26.8
      vertex 909.474677618581 637.946593568268 26.8
   endloop
endfacet
facet normal -0.0 -0.0 1.0
   outer loop
      vertex 909.474677618581 637.946593568268 26.8
      vertex 1519.83236560855 1789.90815512433 26.8
      vertex 947.607434556574 713.689136754432 26.8
   endloop
endfacet
facet normal -0.0 -0.0 1.0
   outer loop
      vertex 947.607434556574 713.689136754432 26.8
      vertex 1519.83236560855 1789.90815512433 26.8
      vertex 972.612327108269 763.355992918068 26.8
   endloop
endfacet
facet normal -0.0 -0.0 1.0
   outer loop
      vertex 972.612327108269 763.355992918068 26.8
      vertex 1519.83236560855 1789.90815512433 26.8
      vertex 1010.61018042502 838.830578993904 26.8
   endloop
endfacet
facet normal -0.0 -0.0 1.0
   outer loop
      vertex 1010.61018042502 838.830578993904 26.8
      vertex 1519.83236560855 1789.90815512433 26.8
      vertex 1035.61507297671 888.49743515754 26.8
   endloop
endfacet
facet normal -0.0 -0.0 1.0
   outer loop
      vertex 1035.61507297671 888.49743515754 26.8
      vertex 1519.83236560855 1789.90815512433 26.8
      vertex 1073.79279778845 964.32929738048 26.8
   endloop
endfacet
facet normal -0.0 -0.0 1.0
   outer loop
      vertex 1073.79279778845 964.32929738048 26.8
      vertex 1519.83236560855 1789.90815512433 26.8
      vertex 1098.79769034015 1013.99615354412 26.8
   endloop
endfacet
facet normal -0.0 -0.0 1.0
   outer loop
      vertex 1098.79769034015 1013.99615354412 26.8
      vertex 1519.83236560855 1789.90815512433 26.8
      vertex 1136.84051153065 1089.56005865673 26.8
   endloop
endfacet
facet normal -0.0 -0.0 1.0
   outer loop
      vertex 1136.84051153065 1089.56005865673 26.8
      vertex 1519.83236560855 1789.90815512433 26.8
      vertex 1161.84540408234 1139.22691482036 26.8
   endloop
endfacet
facet normal -0.0 -0.0 1.0
   outer loop
      vertex 1161.84540408234 1139.22691482036 26.8
      vertex 1519.83236560855 1789.90815512433 26.8
      vertex 1199.88822527284 1214.79081993298 26.8
   endloop
endfacet
facet normal -0.0 -0.0 1.0
   outer loop
      vertex 1199.88822527284 1214.79081993298 26.8
      vertex 1519.83236560855 1789.90815512433 26.8
      vertex 1224.89311782454 1264.45767609661 26.8
   endloop
endfacet
facet normal -0.0 -0.0 1.0
   outer loop
      vertex 1224.89311782454 1264.45767609661 26.8
      vertex 1519.83236560855 1789.90815512433 26.8
      vertex 1263.02587476253 1340.20021928278 26.8
   endloop
endfacet
facet normal -0.0 -0.0 1.0
   outer loop
      vertex 1263.02587476253 1340.20021928278 26.8
      vertex 1519.83236560855 1789.90815512433 26.8
      vertex 1288.03076731422 1389.86707544641 26.8
   endloop
endfacet
facet normal -0.0 -0.0 1.0
   outer loop
      vertex 1288.03076731422 1389.86707544641 26.8
      vertex 1519.83236560855 1789.90815512433 26.8
      vertex 1326.07358850472 1465.43098055903 26.8
   endloop
endfacet
facet normal -0.0 -0.0 1.0
   outer loop
      vertex 1326.07358850472 1465.43098055903 26.8
      vertex 1519.83236560855 1789.90815512433 26.8
      vertex 1351.07848105642 1515.09783672266 26.8
   endloop
endfacet
facet normal -0.0 -0.0 1.0
   outer loop
      vertex 1351.07848105642 1515.09783672266 26.8
      vertex 1519.83236560855 1789.90815512433 26.8
      vertex 1389.25620586816 1590.9296989456 26.8
   endloop
endfacet
facet normal -0.0 -0.0 1.0
   outer loop
      vertex 1389.25620586816 1590.9296989456 26.8
      vertex 1519.83236560855 1789.90815512433 26.8
      vertex 1414.26109841985 1640.59655510924 26.8
   endloop
endfacet
facet normal -0.0 -0.0 1.0
   outer loop
      vertex 1414.26109841985 1640.59655510924 26.8
      vertex 1519.83236560855 1789.90815512433 26.8
      vertex 1452.89735484607 1717.33919204139 26.8
   endloop
endfacet
facet normal -0.0 -0.0 1.0
   outer loop
      vertex 1452.89735484607 1717.33919204139 26.8
      vertex 1519.83236560855 1789.90815512433 26.8
      vertex 1477.90224739776 1767.00604820502 26.8
   endloop
endfacet
facet normal -0.0 -0.0 1.0
   outer loop
      vertex 1477.90224739776 1767.00604820502 26.8
      vertex 1519.83236560855 1789.90815512433 26.8
      vertex 1489.43236560855 1789.90815512433 26.8
   endloop
endfacet
facet normal 0.0 0.0 -1.0
   outer loop
      vertex 602.394567215199 262.164990702747 26.8
      vertex 695.281675966559 212.498134539111 26.8
      vertex 577.389674663504 212.498134539111 26.8
   endloop
endfacet
facet normal 0.0 0.0 -1.0
   outer loop
      vertex 695.281675966559 212.498134539111 26.8
      vertex 602.394567215199 262.164990702747 26.8
      vertex 720.286568518255 262.164990702747 26.8
   endloop
endfacet
facet normal 0.0 0.0 -1.0
   outer loop
      vertex 665.48724883114 387.485071015772 26.8
      vertex 758.3743575825 337.818214852136 26.8
      vertex 640.482356279444 337.818214852136 26.8
   endloop
endfacet
facet normal 0.0 0.0 -1.0
   outer loop
      vertex 758.3743575825 337.818214852136 26.8
      vertex 665.48724883114 387.485071015772 26.8
      vertex 783.379250134195 387.485071015772 26.8
   endloop
endfacet
facet normal 0.0 0.0 -1.0
   outer loop
      vertex 728.534962573333 512.71583229202 26.8
      vertex 821.422071324693 463.048976128384 26.8
      vertex 703.530070021637 463.048976128384 26.8
   endloop
endfacet
facet normal 0.0 0.0 -1.0
   outer loop
      vertex 821.422071324693 463.048976128384 26.8
      vertex 728.534962573333 512.71583229202 26.8
      vertex 846.426963876388 512.71583229202 26.8
   endloop
endfacet
facet normal 0.0 0.0 -1.0
   outer loop
      vertex 791.582676315526 637.946593568268 26.8
      vertex 884.469785066885 588.279737404632 26.8
      vertex 766.57778376383 588.279737404632 26.8
   endloop
endfacet
facet normal 0.0 0.0 -1.0
   outer loop
      vertex 884.469785066885 588.279737404632 26.8
      vertex 791.582676315526 637.946593568268 26.8
      vertex 909.474677618581 637.946593568268 26.8
   endloop
endfacet
facet normal 0.0 0.0 -1.0
   outer loop
      vertex 854.720325805214 763.355992918068 26.8
      vertex 947.607434556574 713.689136754432 26.8
      vertex 829.715433253518 713.689136754432 26.8
   endloop
endfacet
facet normal 0.0 0.0 -1.0
   outer loop
      vertex 947.607434556574 713.689136754432 26.8
      vertex 854.720325805214 763.355992918068 26.8
      vertex 972.612327108269 763.355992918068 26.8
   endloop
endfacet
facet normal 0.0 0.0 -1.0
   outer loop
      vertex 917.723071673659 888.49743515754 26.8
      vertex 1010.61018042502 838.830578993904 26.8
      vertex 892.718179121964 838.830578993904 26.8
   endloop
endfacet
facet normal 0.0 0.0 -1.0
   outer loop
      vertex 1010.61018042502 838.830578993904 26.8
      vertex 917.723071673659 888.49743515754 26.8
      vertex 1035.61507297671 888.49743515754 26.8
   endloop
endfacet
facet normal 0.0 0.0 -1.0
   outer loop
      vertex 980.905689037095 1013.99615354412 26.8
      vertex 1073.79279778845 964.32929738048 26.8
      vertex 955.9007964854 964.32929738048 26.8
   endloop
endfacet
facet normal 0.0 0.0 -1.0
   outer loop
      vertex 1073.79279778845 964.32929738048 26.8
      vertex 980.905689037095 1013.99615354412 26.8
      vertex 1098.79769034015 1013.99615354412 26.8
   endloop
endfacet
facet normal 0.0 0.0 -1.0
   outer loop
      vertex 1043.95340277929 1139.22691482036 26.8
      vertex 1136.84051153065 1089.56005865673 26.8
      vertex 1018.94851022759 1089.56005865673 26.8
   endloop
endfacet
facet normal 0.0 0.0 -1.0
   outer loop
      vertex 1136.84051153065 1089.56005865673 26.8
      vertex 1043.95340277929 1139.22691482036 26.8
      vertex 1161.84540408234 1139.22691482036 26.8
   endloop
endfacet
facet normal 0.0 0.0 -1.0
   outer loop
      vertex 1107.00111652148 1264.45767609661 26.8
      vertex 1199.88822527284 1214.79081993298 26.8
      vertex 1081.99622396979 1214.79081993298 26.8
   endloop
endfacet
facet normal 0.0 0.0 -1.0
   outer loop
      vertex 1199.88822527284 1214.79081993298 26.8
      vertex 1107.00111652148 1264.45767609661 26.8
      vertex 1224.89311782454 1264.45767609661 26.8
   endloop
endfacet
facet normal 0.0 0.0 -1.0
   outer loop
      vertex 1170.13876601117 1389.86707544641 26.8
      vertex 1263.02587476253 1340.20021928278 26.8
      vertex 1145.13387345947 1340.20021928278 26.8
   endloop
endfacet
facet normal 0.0 0.0 -1.0
   outer loop
      vertex 1263.02587476253 1340.20021928278 26.8
      vertex 1170.13876601117 1389.86707544641 26.8
      vertex 1288.03076731422 1389.86707544641 26.8
   endloop
endfacet
facet normal 0.0 0.0 -1.0
   outer loop
      vertex 1233.18647975336 1515.09783672266 26.8
      vertex 1326.07358850472 1465.43098055903 26.8
      vertex 1208.18158720167 1465.43098055903 26.8
   endloop
endfacet
facet normal 0.0 0.0 -1.0
   outer loop
      vertex 1326.07358850472 1465.43098055903 26.8
      vertex 1233.18647975336 1515.09783672266 26.8
      vertex 1351.07848105642 1515.09783672266 26.8
   endloop
endfacet
facet normal 0.0 0.0 -1.0
   outer loop
      vertex 1296.3690971168 1640.59655510924 26.8
      vertex 1389.25620586816 1590.9296989456 26.8
      vertex 1271.3642045651 1590.9296989456 26.8
   endloop
endfacet
facet normal 0.0 0.0 -1.0
   outer loop
      vertex 1389.25620586816 1590.9296989456 26.8
      vertex 1296.3690971168 1640.59655510924 26.8
      vertex 1414.26109841985 1640.59655510924 26.8
   endloop
endfacet
facet normal 0.0 0.0 -1.0
   outer loop
      vertex 1360.01024609471 1767.00604820502 26.8
      vertex 1452.89735484607 1717.33919204139 26.8
      vertex 1335.00535354301 1717.33919204139 26.8
   endloop
endfacet
facet normal 0.0 0.0 -1.0
   outer loop
      vertex 1452.89735484607 1717.33919204139 26.8
      vertex 1360.01024609471 1767.00604820502 26.8
      vertex 1477.90224739776 1767.00604820502 26.8
   endloop
endfacet
facet normal -0.0 1.0 -0.0
   outer loop
      vertex 539.289998382447 136.821298983022 505.7
      vertex 657.181999685503 136.821298983022 26.8
      vertex 539.289998382447 136.821298983022 26.8
   endloop
endfacet
facet normal -0.0 1.0 -0.0
   outer loop
      vertex 657.181999685503 136.821298983022 26.8
      vertex 539.289998382447 136.821298983022 505.7
      vertex 657.181999685503 136.821298983022 505.7
   endloop
endfacet
facet normal -0.893190367761371 0.44967873747633 0.0
   outer loop
      vertex 539.289998382447 136.821298983022 505.7
      vertex 514.285105830752 87.1544428193858 26.8
      vertex 514.285105830752 87.1544428193858 505.7
   endloop
endfacet
facet normal -0.893190367761371 0.44967873747633 0.0
   outer loop
      vertex 514.285105830752 87.1544428193858 26.8
      vertex 539.289998382447 136.821298983022 505.7
      vertex 539.289998382447 136.821298983022 26.8
   endloop
endfacet
facet normal 0.0 -1.0 0.0
   outer loop
      vertex 632.177107133807 87.1544428193858 505.7
      vertex 514.285105830752 87.1544428193858 26.8
      vertex 632.177107133807 87.1544428193858 26.8
   endloop
endfacet
facet normal 0.0 -1.0 0.0
   outer loop
      vertex 514.285105830752 87.1544428193858 26.8
      vertex 632.177107133807 87.1544428193858 505.7
      vertex 514.285105830752 87.1544428193858 505.7
   endloop
endfacet
facet normal -0.893190367761371 0.449678737476331 2.3240798644742e-018
   outer loop
      vertex 695.281675966559 212.498134539111 505.7
      vertex 657.181999685503 136.821298983022 26.8
      vertex 657.181999685503 136.821298983022 505.7
   endloop
endfacet
facet normal -0.893190367761371 0.449678737476331 2.3240798644742e-018
   outer loop
      vertex 657.181999685503 136.821298983022 26.8
      vertex 695.281675966559 212.498134539111 505.7
      vertex 695.281675966559 212.498134539111 26.8
   endloop
endfacet
facet normal -0.0 1.0 -0.0
   outer loop
      vertex 602.394567215199 262.164990702747 505.7
      vertex 720.286568518255 262.164990702747 26.8
      vertex 602.394567215199 262.164990702747 26.8
   endloop
endfacet
facet normal -0.0 1.0 -0.0
   outer loop
      vertex 720.286568518255 262.164990702747 26.8
      vertex 602.394567215199 262.164990702747 505.7
      vertex 720.286568518255 262.164990702747 505.7
   endloop
endfacet
facet normal -0.893190367761371 0.44967873747633 -3.99154047114158e-033
   outer loop
      vertex 602.394567215199 262.164990702747 505.7
      vertex 577.389674663504 212.498134539111 26.8
      vertex 577.389674663504 212.498134539111 505.7
   endloop
endfacet
facet normal -0.893190367761371 0.44967873747633 -3.99154047114158e-033
   outer loop
      vertex 577.389674663504 212.498134539111 26.8
      vertex 602.394567215199 262.164990702747 505.7
      vertex 602.394567215199 262.164990702747 26.8
   endloop
endfacet
facet normal 0.0 -1.0 0.0
   outer loop
      vertex 695.281675966559 212.498134539111 505.7
      vertex 577.389674663504 212.498134539111 26.8
      vertex 695.281675966559 212.498134539111 26.8
   endloop
endfacet
facet normal 0.0 -1.0 0.0
   outer loop
      vertex 577.389674663504 212.498134539111 26.8
      vertex 695.281675966559 212.498134539111 505.7
      vertex 577.389674663504 212.498134539111 505.7
   endloop
endfacet
facet normal -0.893190367761371 0.449678737476331 -2.2932629276079e-018
   outer loop
      vertex 758.3743575825 337.818214852136 505.7
      vertex 720.286568518255 262.164990702747 26.8
      vertex 720.286568518255 262.164990702747 505.7
   endloop
endfacet
facet normal -0.893190367761371 0.449678737476331 -2.2932629276079e-018
   outer loop
      vertex 720.286568518255 262.164990702747 26.8
      vertex 758.3743575825 337.818214852136 505.7
      vertex 758.3743575825 337.818214852136 26.8
   endloop
endfacet
facet normal -0.0 1.0 -0.0
   outer loop
      vertex 665.48724883114 387.485071015772 505.7
      vertex 783.379250134195 387.485071015772 26.8
      vertex 665.48724883114 387.485071015772 26.8
   endloop
endfacet
facet normal -0.0 1.0 -0.0
   outer loop
      vertex 783.379250134195 387.485071015772 26.8
      vertex 665.48724883114 387.485071015772 505.7
      vertex 783.379250134195 387.485071015772 505.7
   endloop
endfacet
facet normal -0.893190367761371 0.44967873747633 3.99154047114158e-033
   outer loop
      vertex 665.48724883114 387.485071015772 505.7
      vertex 640.482356279444 337.818214852136 26.8
      vertex 640.482356279444 337.818214852136 505.7
   endloop
endfacet
facet normal -0.893190367761371 0.44967873747633 3.99154047114158e-033
   outer loop
      vertex 640.482356279444 337.818214852136 26.8
      vertex 665.48724883114 387.485071015772 505.7
      vertex 665.48724883114 387.485071015772 26.8
   endloop
endfacet
facet normal 0.0 -1.0 0.0
   outer loop
      vertex 758.3743575825 337.818214852136 505.7
      vertex 640.482356279444 337.818214852136 26.8
      vertex 758.3743575825 337.818214852136 26.8
   endloop
endfacet
facet normal 0.0 -1.0 0.0
   outer loop
      vertex 640.482356279444 337.818214852136 26.8
      vertex 758.3743575825 337.818214852136 505.7
      vertex 640.482356279444 337.818214852136 505.7
   endloop
endfacet
facet normal -0.893190367761371 0.44967873747633 -2.24703752230844e-018
   outer loop
      vertex 821.422071324693 463.048976128384 505.7
      vertex 783.379250134195 387.485071015772 26.8
      vertex 783.379250134195 387.485071015772 505.7
   endloop
endfacet
facet normal -0.893190367761371 0.44967873747633 -2.24703752230844e-018
   outer loop
      vertex 783.379250134195 387.485071015772 26.8
      vertex 821.422071324693 463.048976128384 505.7
      vertex 821.422071324693 463.048976128384 26.8
   endloop
endfacet
facet normal -0.0 1.0 -0.0
   outer loop
      vertex 728.534962573333 512.71583229202 505.7
      vertex 846.426963876388 512.71583229202 26.8
      vertex 728.534962573333 512.71583229202 26.8
   endloop
endfacet
facet normal -0.0 1.0 -0.0
   outer loop
      vertex 846.426963876388 512.71583229202 26.8
      vertex 728.534962573333 512.71583229202 505.7
      vertex 846.426963876388 512.71583229202 505.7
   endloop
endfacet
facet normal -0.893190367761372 0.44967873747633 -7.98308094228315e-033
   outer loop
      vertex 728.534962573333 512.71583229202 505.7
      vertex 703.530070021637 463.048976128384 26.8
      vertex 703.530070021637 463.048976128384 505.7
   endloop
endfacet
facet normal -0.893190367761372 0.44967873747633 -7.98308094228315e-033
   outer loop
      vertex 703.530070021637 463.048976128384 26.8
      vertex 728.534962573333 512.71583229202 505.7
      vertex 728.534962573333 512.71583229202 26.8
   endloop
endfacet
facet normal 0.0 -1.0 0.0
   outer loop
      vertex 821.422071324693 463.048976128384 505.7
      vertex 703.530070021637 463.048976128384 26.8
      vertex 821.422071324693 463.048976128384 26.8
   endloop
endfacet
facet normal 0.0 -1.0 0.0
   outer loop
      vertex 703.530070021637 463.048976128384 26.8
      vertex 821.422071324693 463.048976128384 505.7
      vertex 703.530070021637 463.048976128384 505.7
   endloop
endfacet
facet normal -0.893190367761371 0.44967873747633 -2.24703752230844e-018
   outer loop
      vertex 884.469785066885 588.279737404632 505.7
      vertex 846.426963876388 512.71583229202 26.8
      vertex 846.426963876388 512.71583229202 505.7
   endloop
endfacet
facet normal -0.893190367761371 0.44967873747633 -2.24703752230844e-018
   outer loop
      vertex 846.426963876388 512.71583229202 26.8
      vertex 884.469785066885 588.279737404632 505.7
      vertex 884.469785066885 588.279737404632 26.8
   endloop
endfacet
facet normal -0.0 1.0 -0.0
   outer loop
      vertex 791.582676315526 637.946593568268 505.7
      vertex 909.474677618581 637.946593568268 26.8
      vertex 791.582676315526 637.946593568268 26.8
   endloop
endfacet
facet normal -0.0 1.0 -0.0
   outer loop
      vertex 909.474677618581 637.946593568268 26.8
      vertex 791.582676315526 637.946593568268 505.7
      vertex 909.474677618581 637.946593568268 505.7
   endloop
endfacet
facet normal -0.893190367761372 0.44967873747633 -7.98308094228315e-033
   outer loop
      vertex 791.582676315526 637.946593568268 505.7
      vertex 766.57778376383 588.279737404632 26.8
      vertex 766.57778376383 588.279737404632 505.7
   endloop
endfacet
facet normal -0.893190367761372 0.44967873747633 -7.98308094228315e-033
   outer loop
      vertex 766.57778376383 588.279737404632 26.8
      vertex 791.582676315526 637.946593568268 505.7
      vertex 791.582676315526 637.946593568268 26.8
   endloop
endfacet
facet normal 0.0 -1.0 0.0
   outer loop
      vertex 884.469785066885 588.279737404632 505.7
      vertex 766.57778376383 588.279737404632 26.8
      vertex 884.469785066885 588.279737404632 26.8
   endloop
endfacet
facet normal 0.0 -1.0 0.0
   outer loop
      vertex 766.57778376383 588.279737404632 26.8
      vertex 884.469785066885 588.279737404632 505.7
      vertex 766.57778376383 588.279737404632 505.7
   endloop
endfacet
facet normal -0.89319036776137 0.449678737476332 -2.27785445917476e-018
   outer loop
      vertex 947.607434556574 713.689136754432 505.7
      vertex 909.474677618581 637.946593568268 26.8
      vertex 909.474677618581 637.946593568268 505.7
   endloop
endfacet
facet normal -0.89319036776137 0.449678737476332 -2.27785445917476e-018
   outer loop
      vertex 909.474677618581 637.946593568268 26.8
      vertex 947.607434556574 713.689136754432 505.7
      vertex 947.607434556574 713.689136754432 26.8
   endloop
endfacet
facet normal -0.0 1.0 -0.0
   outer loop
      vertex 854.720325805214 763.355992918068 505.7
      vertex 972.612327108269 763.355992918068 26.8
      vertex 854.720325805214 763.355992918068 26.8
   endloop
endfacet
facet normal -0.0 1.0 -0.0
   outer loop
      vertex 972.612327108269 763.355992918068 26.8
      vertex 854.720325805214 763.355992918068 505.7
      vertex 972.612327108269 763.355992918068 505.7
   endloop
endfacet
facet normal -0.893190367761371 0.449678737476331 0.0
   outer loop
      vertex 854.720325805214 763.355992918068 505.7
      vertex 829.715433253518 713.689136754432 26.8
      vertex 829.715433253518 713.689136754432 505.7
   endloop
endfacet
facet normal -0.893190367761371 0.449678737476331 0.0
   outer loop
      vertex 829.715433253518 713.689136754432 26.8
      vertex 854.720325805214 763.355992918068 505.7
      vertex 854.720325805214 763.355992918068 26.8
   endloop
endfacet
facet normal 0.0 -1.0 0.0
   outer loop
      vertex 947.607434556574 713.689136754432 505.7
      vertex 829.715433253518 713.689136754432 26.8
      vertex 947.607434556574 713.689136754432 26.8
   endloop
endfacet
facet normal 0.0 -1.0 0.0
   outer loop
      vertex 829.715433253518 713.689136754432 26.8
      vertex 947.607434556574 713.689136754432 505.7
      vertex 829.715433253518 713.689136754432 505.7
   endloop
endfacet
facet normal -0.89319036776137 0.449678737476332 -2.18540364857579e-018
   outer loop
      vertex 1010.61018042502 838.830578993904 505.7
      vertex 972.612327108269 763.355992918068 26.8
      vertex 972.612327108269 763.355992918068 505.7
   endloop
endfacet
facet normal -0.89319036776137 0.449678737476332 -2.18540364857579e-018
   outer loop
      vertex 972.612327108269 763.355992918068 26.8
      vertex 1010.61018042502 838.830578993904 505.7
      vertex 1010.61018042502 838.830578993904 26.8
   endloop
endfacet
facet normal -0.0 1.0 -0.0
   outer loop
      vertex 917.723071673659 888.49743515754 505.7
      vertex 1035.61507297671 888.49743515754 26.8
      vertex 917.723071673659 888.49743515754 26.8
   endloop
endfacet
facet normal -0.0 1.0 -0.0
   outer loop
      vertex 1035.61507297671 888.49743515754 26.8
      vertex 917.723071673659 888.49743515754 505.7
      vertex 1035.61507297671 888.49743515754 505.7
   endloop
endfacet
facet normal -0.893190367761371 0.449678737476331 1.59661618845663e-032
   outer loop
      vertex 917.723071673659 888.49743515754 505.7
      vertex 892.718179121964 838.830578993904 26.8
      vertex 892.718179121964 838.830578993904 505.7
   endloop
endfacet
facet normal -0.893190367761371 0.449678737476331 1.59661618845663e-032
   outer loop
      vertex 892.718179121964 838.830578993904 26.8
      vertex 917.723071673659 888.49743515754 505.7
      vertex 917.723071673659 888.49743515754 26.8
   endloop
endfacet
facet normal 0.0 -1.0 0.0
   outer loop
      vertex 1010.61018042502 838.830578993904 505.7
      vertex 892.718179121964 838.830578993904 26.8
      vertex 1010.61018042502 838.830578993904 26.8
   endloop
endfacet
facet normal 0.0 -1.0 0.0
   outer loop
      vertex 892.718179121964 838.830578993904 26.8
      vertex 1010.61018042502 838.830578993904 505.7
      vertex 892.718179121964 838.830578993904 505.7
   endloop
endfacet
facet normal -0.89319036776137 0.449678737476332 -2.23162905387525e-018
   outer loop
      vertex 1073.79279778845 964.32929738048 505.7
      vertex 1035.61507297671 888.49743515754 26.8
      vertex 1035.61507297671 888.49743515754 505.7
   endloop
endfacet
facet normal -0.89319036776137 0.449678737476332 -2.23162905387525e-018
   outer loop
      vertex 1035.61507297671 888.49743515754 26.8
      vertex 1073.79279778845 964.32929738048 505.7
      vertex 1073.79279778845 964.32929738048 26.8
   endloop
endfacet
facet normal -0.0 1.0 -0.0
   outer loop
      vertex 980.905689037095 1013.99615354412 505.7
      vertex 1098.79769034015 1013.99615354412 26.8
      vertex 980.905689037095 1013.99615354412 26.8
   endloop
endfacet
facet normal -0.0 1.0 -0.0
   outer loop
      vertex 1098.79769034015 1013.99615354412 26.8
      vertex 980.905689037095 1013.99615354412 505.7
      vertex 1098.79769034015 1013.99615354412 505.7
   endloop
endfacet
facet normal -0.893190367761371 0.449678737476331 -1.59661618845663e-032
   outer loop
      vertex 980.905689037095 1013.99615354412 505.7
      vertex 955.9007964854 964.32929738048 26.8
      vertex 955.9007964854 964.32929738048 505.7
   endloop
endfacet
facet normal -0.893190367761371 0.449678737476331 -1.59661618845663e-032
   outer loop
      vertex 955.9007964854 964.32929738048 26.8
      vertex 980.905689037095 1013.99615354412 505.7
      vertex 980.905689037095 1013.99615354412 26.8
   endloop
endfacet
facet normal 0.0 -1.0 0.0
   outer loop
      vertex 1073.79279778845 964.32929738048 505.7
      vertex 955.9007964854 964.32929738048 26.8
      vertex 1073.79279778845 964.32929738048 26.8
   endloop
endfacet
facet normal 0.0 -1.0 0.0
   outer loop
      vertex 955.9007964854 964.32929738048 26.8
      vertex 1073.79279778845 964.32929738048 505.7
      vertex 955.9007964854 964.32929738048 505.7
   endloop
endfacet
facet normal -0.893190367761372 0.44967873747633 2.33948833290729e-018
   outer loop
      vertex 1136.84051153065 1089.56005865673 505.7
      vertex 1098.79769034015 1013.99615354412 26.8
      vertex 1098.79769034015 1013.99615354412 505.7
   endloop
endfacet
facet normal -0.893190367761372 0.44967873747633 2.33948833290729e-018
   outer loop
      vertex 1098.79769034015 1013.99615354412 26.8
      vertex 1136.84051153065 1089.56005865673 505.7
      vertex 1136.84051153065 1089.56005865673 26.8
   endloop
endfacet
facet normal -0.0 1.0 -0.0
   outer loop
      vertex 1043.95340277929 1139.22691482036 505.7
      vertex 1161.84540408234 1139.22691482036 26.8
      vertex 1043.95340277929 1139.22691482036 26.8
   endloop
endfacet
facet normal -0.0 1.0 -0.0
   outer loop
      vertex 1161.84540408234 1139.22691482036 26.8
      vertex 1043.95340277929 1139.22691482036 505.7
      vertex 1161.84540408234 1139.22691482036 505.7
   endloop
endfacet
facet normal -0.893190367761371 0.449678737476331 -1.59661618845663e-032
   outer loop
      vertex 1043.95340277929 1139.22691482036 505.7
      vertex 1018.94851022759 1089.56005865673 26.8
      vertex 1018.94851022759 1089.56005865673 505.7
   endloop
endfacet
facet normal -0.893190367761371 0.449678737476331 -1.59661618845663e-032
   outer loop
      vertex 1018.94851022759 1089.56005865673 26.8
      vertex 1043.95340277929 1139.22691482036 505.7
      vertex 1043.95340277929 1139.22691482036 26.8
   endloop
endfacet
facet normal 0.0 -1.0 0.0
   outer loop
      vertex 1136.84051153065 1089.56005865673 505.7
      vertex 1018.94851022759 1089.56005865673 26.8
      vertex 1136.84051153065 1089.56005865673 26.8
   endloop
endfacet
facet normal 0.0 -1.0 0.0
   outer loop
      vertex 1018.94851022759 1089.56005865673 26.8
      vertex 1136.84051153065 1089.56005865673 505.7
      vertex 1018.94851022759 1089.56005865673 505.7
   endloop
endfacet
facet normal -0.893190367761372 0.44967873747633 2.38571373820675e-018
   outer loop
      vertex 1199.88822527284 1214.79081993298 505.7
      vertex 1161.84540408234 1139.22691482036 26.8
      vertex 1161.84540408234 1139.22691482036 505.7
   endloop
endfacet
facet normal -0.893190367761372 0.44967873747633 2.38571373820675e-018
   outer loop
      vertex 1161.84540408234 1139.22691482036 26.8
      vertex 1199.88822527284 1214.79081993298 505.7
      vertex 1199.88822527284 1214.79081993298 26.8
   endloop
endfacet
facet normal -0.0 1.0 -0.0
   outer loop
      vertex 1107.00111652148 1264.45767609661 505.7
      vertex 1224.89311782454 1264.45767609661 26.8
      vertex 1107.00111652148 1264.45767609661 26.8
   endloop
endfacet
facet normal -0.0 1.0 -0.0
   outer loop
      vertex 1224.89311782454 1264.45767609661 26.8
      vertex 1107.00111652148 1264.45767609661 505.7
      vertex 1224.89311782454 1264.45767609661 505.7
   endloop
endfacet
facet normal -0.893190367761371 0.449678737476331 1.59661618845664e-032
   outer loop
      vertex 1107.00111652148 1264.45767609661 505.7
      vertex 1081.99622396979 1214.79081993298 26.8
      vertex 1081.99622396979 1214.79081993298 505.7
   endloop
endfacet
facet normal -0.893190367761371 0.449678737476331 1.59661618845664e-032
   outer loop
      vertex 1081.99622396979 1214.79081993298 26.8
      vertex 1107.00111652148 1264.45767609661 505.7
      vertex 1107.00111652148 1264.45767609661 26.8
   endloop
endfacet
facet normal 0.0 -1.0 0.0
   outer loop
      vertex 1199.88822527284 1214.79081993298 505.7
      vertex 1081.99622396979 1214.79081993298 26.8
      vertex 1199.88822527284 1214.79081993298 26.8
   endloop
endfacet
facet normal 0.0 -1.0 0.0
   outer loop
      vertex 1081.99622396979 1214.79081993298 26.8
      vertex 1199.88822527284 1214.79081993298 505.7
      vertex 1081.99622396979 1214.79081993298 505.7
   endloop
endfacet
facet normal -0.893190367761371 0.44967873747633 -9.24508105988967e-020
   outer loop
      vertex 1263.02587476253 1340.20021928278 505.7
      vertex 1224.89311782454 1264.45767609661 26.8
      vertex 1224.89311782454 1264.45767609661 505.7
   endloop
endfacet
facet normal -0.893190367761371 0.44967873747633 -9.24508105988967e-020
   outer loop
      vertex 1224.89311782454 1264.45767609661 26.8
      vertex 1263.02587476253 1340.20021928278 505.7
      vertex 1263.02587476253 1340.20021928278 26.8
   endloop
endfacet
facet normal -0.0 1.0 -0.0
   outer loop
      vertex 1170.13876601117 1389.86707544641 505.7
      vertex 1288.03076731422 1389.86707544641 26.8
      vertex 1170.13876601117 1389.86707544641 26.8
   endloop
endfacet
facet normal -0.0 1.0 -0.0
   outer loop
      vertex 1288.03076731422 1389.86707544641 26.8
      vertex 1170.13876601117 1389.86707544641 505.7
      vertex 1288.03076731422 1389.86707544641 505.7
   endloop
endfacet
facet normal -0.893190367761371 0.449678737476331 7.93928744102572e-032
   outer loop
      vertex 1170.13876601117 1389.86707544641 505.7
      vertex 1145.13387345947 1340.20021928278 26.8
      vertex 1145.13387345947 1340.20021928278 505.7
   endloop
endfacet
facet normal -0.893190367761371 0.449678737476331 7.93928744102572e-032
   outer loop
      vertex 1145.13387345947 1340.20021928278 26.8
      vertex 1170.13876601117 1389.86707544641 505.7
      vertex 1170.13876601117 1389.86707544641 26.8
   endloop
endfacet
facet normal 0.0 -1.0 0.0
   outer loop
      vertex 1263.02587476253 1340.20021928278 505.7
      vertex 1145.13387345947 1340.20021928278 26.8
      vertex 1263.02587476253 1340.20021928278 26.8
   endloop
endfacet
facet normal 0.0 -1.0 0.0
   outer loop
      vertex 1145.13387345947 1340.20021928278 26.8
      vertex 1263.02587476253 1340.20021928278 505.7
      vertex 1145.13387345947 1340.20021928278 505.7
   endloop
endfacet
facet normal -0.893190367761372 0.44967873747633 -2.43193914350617e-018
   outer loop
      vertex 1326.07358850472 1465.43098055903 505.7
      vertex 1288.03076731422 1389.86707544641 26.8
      vertex 1288.03076731422 1389.86707544641 505.7
   endloop
endfacet
facet normal -0.893190367761372 0.44967873747633 -2.43193914350617e-018
   outer loop
      vertex 1288.03076731422 1389.86707544641 26.8
      vertex 1326.07358850472 1465.43098055903 505.7
      vertex 1326.07358850472 1465.43098055903 26.8
   endloop
endfacet
facet normal -0.0 1.0 -0.0
   outer loop
      vertex 1233.18647975336 1515.09783672266 505.7
      vertex 1351.07848105642 1515.09783672266 26.8
      vertex 1233.18647975336 1515.09783672266 26.8
   endloop
endfacet
facet normal -0.0 1.0 -0.0
   outer loop
      vertex 1351.07848105642 1515.09783672266 26.8
      vertex 1233.18647975336 1515.09783672266 505.7
      vertex 1351.07848105642 1515.09783672266 505.7
   endloop
endfacet
facet normal -0.893190367761371 0.449678737476331 -1.59661618845663e-032
   outer loop
      vertex 1233.18647975336 1515.09783672266 505.7
      vertex 1208.18158720167 1465.43098055903 26.8
      vertex 1208.18158720167 1465.43098055903 505.7
   endloop
endfacet
facet normal -0.893190367761371 0.449678737476331 -1.59661618845663e-032
   outer loop
      vertex 1208.18158720167 1465.43098055903 26.8
      vertex 1233.18647975336 1515.09783672266 505.7
      vertex 1233.18647975336 1515.09783672266 26.8
   endloop
endfacet
facet normal 0.0 -1.0 0.0
   outer loop
      vertex 1326.07358850472 1465.43098055903 505.7
      vertex 1208.18158720167 1465.43098055903 26.8
      vertex 1326.07358850472 1465.43098055903 26.8
   endloop
endfacet
facet normal 0.0 -1.0 0.0
   outer loop
      vertex 1208.18158720167 1465.43098055903 26.8
      vertex 1326.07358850472 1465.43098055903 505.7
      vertex 1208.18158720167 1465.43098055903 505.7
   endloop
endfacet
facet normal -0.893190367761373 0.449678737476328 -2.15458671170964e-018
   outer loop
      vertex 1389.25620586816 1590.9296989456 505.7
      vertex 1351.07848105642 1515.09783672266 26.8
      vertex 1351.07848105642 1515.09783672266 505.7
   endloop
endfacet
facet normal -0.893190367761373 0.449678737476328 -2.15458671170964e-018
   outer loop
      vertex 1351.07848105642 1515.09783672266 26.8
      vertex 1389.25620586816 1590.9296989456 505.7
      vertex 1389.25620586816 1590.9296989456 26.8
   endloop
endfacet
facet normal -0.0 1.0 -0.0
   outer loop
      vertex 1296.3690971168 1640.59655510924 505.7
      vertex 1414.26109841985 1640.59655510924 26.8
      vertex 1296.3690971168 1640.59655510924 26.8
   endloop
endfacet
facet normal -0.0 1.0 -0.0
   outer loop
      vertex 1414.26109841985 1640.59655510924 26.8
      vertex 1296.3690971168 1640.59655510924 505.7
      vertex 1414.26109841985 1640.59655510924 505.7
   endloop
endfacet
facet normal -0.893190367761372 0.449678737476329 0.0
   outer loop
      vertex 1296.3690971168 1640.59655510924 505.7
      vertex 1271.3642045651 1590.9296989456 26.8
      vertex 1271.3642045651 1590.9296989456 505.7
   endloop
endfacet
facet normal -0.893190367761372 0.449678737476329 0.0
   outer loop
      vertex 1271.3642045651 1590.9296989456 26.8
      vertex 1296.3690971168 1640.59655510924 505.7
      vertex 1296.3690971168 1640.59655510924 26.8
   endloop
endfacet
facet normal 0.0 -1.0 0.0
   outer loop
      vertex 1389.25620586816 1590.9296989456 505.7
      vertex 1271.3642045651 1590.9296989456 26.8
      vertex 1389.25620586816 1590.9296989456 26.8
   endloop
endfacet
facet normal 0.0 -1.0 0.0
   outer loop
      vertex 1271.3642045651 1590.9296989456 26.8
      vertex 1389.25620586816 1590.9296989456 505.7
      vertex 1271.3642045651 1590.9296989456 505.7
   endloop
endfacet
facet normal -0.893190367761371 0.449678737476331 -1.54084684331512e-019
   outer loop
      vertex 1452.89735484607 1717.33919204139 505.7
      vertex 1414.26109841985 1640.59655510924 26.8
      vertex 1414.26109841985 1640.59655510924 505.7
   endloop
endfacet
facet normal -0.893190367761371 0.449678737476331 -1.54084684331512e-019
   outer loop
      vertex 1414.26109841985 1640.59655510924 26.8
      vertex 1452.89735484607 1717.33919204139 505.7
      vertex 1452.89735484607 1717.33919204139 26.8
   endloop
endfacet
facet normal -0.0 1.0 -0.0
   outer loop
      vertex 1360.01024609471 1767.00604820502 505.7
      vertex 1477.90224739776 1767.00604820502 26.8
      vertex 1360.01024609471 1767.00604820502 26.8
   endloop
endfacet
facet normal -0.0 1.0 -0.0
   outer loop
      vertex 1477.90224739776 1767.00604820502 26.8
      vertex 1360.01024609471 1767.00604820502 505.7
      vertex 1477.90224739776 1767.00604820502 505.7
   endloop
endfacet
facet normal -0.893190367761372 0.449678737476329 0.0
   outer loop
      vertex 1360.01024609471 1767.00604820502 505.7
      vertex 1335.00535354301 1717.33919204139 26.8
      vertex 1335.00535354301 1717.33919204139 505.7
   endloop
endfacet
facet normal -0.893190367761372 0.449678737476329 0.0
   outer loop
      vertex 1335.00535354301 1717.33919204139 26.8
      vertex 1360.01024609471 1767.00604820502 505.7
      vertex 1360.01024609471 1767.00604820502 26.8
   endloop
endfacet
facet normal 0.0 -1.0 0.0
   outer loop
      vertex 1452.89735484607 1717.33919204139 505.7
      vertex 1335.00535354301 1717.33919204139 26.8
      vertex 1452.89735484607 1717.33919204139 26.8
   endloop
endfacet
facet normal 0.0 -1.0 0.0
   outer loop
      vertex 1335.00535354301 1717.33919204139 26.8
      vertex 1452.89735484607 1717.33919204139 505.7
      vertex 1335.00535354301 1717.33919204139 505.7
   endloop
endfacet
facet normal -0.893190367761392 0.449678737476289 1.14663146380339e-018
   outer loop
      vertex 1489.43236560855 1789.90815512433 505.7
      vertex 1477.90224739776 1767.00604820502 26.8
      vertex 1477.90224739776 1767.00604820502 505.7
   endloop
endfacet
facet normal -0.893190367761392 0.449678737476289 1.14663146380339e-018
   outer loop
      vertex 1477.90224739776 1767.00604820502 26.8
      vertex 1489.43236560855 1789.90815512433 505.7
      vertex 1489.43236560855 1789.90815512433 26.8
   endloop
endfacet
facet normal -0.0 1.0 -0.0
   outer loop
      vertex 0.0 1813.253 0.0
      vertex 806.496167110116 1813.253 26.8
      vertex 1813.253 1813.253 0.0
   endloop
endfacet
facet normal -0.0 1.0 -0.0
   outer loop
      vertex 806.496167110116 1813.253 26.8
      vertex 0.0 1813.253 0.0
      vertex 0.0 1813.253 801.6
   endloop
endfacet
facet normal -0.0 1.0 -0.0
   outer loop
      vertex 1813.253 1813.253 0.0
      vertex 806.496167110116 1813.253 26.8
      vertex 1489.43236560855 1813.253 26.8
   endloop
endfacet
facet normal -0.0 1.0 -0.0
   outer loop
      vertex 806.496167110116 1813.253 26.8
      vertex 0.0 1813.253 801.6
      vertex 806.496167110116 1813.253 801.6
   endloop
endfacet
facet normal -0.0 1.0 -0.0
   outer loop
      vertex 1489.43236560855 1813.253 26.8
      vertex 1813.253 1813.253 801.6
      vertex 1813.253 1813.253 0.0
   endloop
endfacet
facet normal -0.0 1.0 -0.0
   outer loop
      vertex 1813.253 1813.253 801.6
      vertex 1489.43236560855 1813.253 26.8
      vertex 1489.43236560855 1813.253 801.6
   endloop
endfacet
facet normal 1.37078731628455e-017 -1.0 -8.05805181706036e-017
   outer loop
      vertex 1791.00815512433 1789.90815512433 26.4
      vertex 1519.83236560855 1789.90815512433 26.8
      vertex 21.1448448756665 1789.90815512433 26.4
   endloop
endfacet
facet normal 1.37078731628455e-017 -1.0 -8.05805181706036e-017
   outer loop
      vertex 1519.83236560855 1789.90815512433 26.8
      vertex 1791.00815512433 1789.90815512433 26.4
      vertex 1791.00815512433 1789.90815512433 801.6
   endloop
endfacet
facet normal 1.37078731628455e-017 -1.0 -8.05805181706036e-017
   outer loop
      vertex 1519.83236560855 1789.90815512433 26.8
      vertex 1791.00815512433 1789.90815512433 801.6
      vertex 1519.83236560855 1789.90815512433 505.7
   endloop
endfacet
facet normal 1.37078731628455e-017 -1.0 -8.05805181706036e-017
   outer loop
      vertex 1519.83236560855 1789.90815512433 505.7
      vertex 1791.00815512433 1789.90815512433 801.6
      vertex 1489.43236560855 1789.90815512433 505.7
   endloop
endfacet
facet normal 1.37078731628455e-017 -1.0 -8.05805181706036e-017
   outer loop
      vertex 1489.43236560855 1789.90815512433 505.7
      vertex 1791.00815512433 1789.90815512433 801.6
      vertex 1489.43236560855 1789.90815512433 801.6
   endloop
endfacet
facet normal 1.37078731628455e-017 -1.0 -8.05805181706036e-017
   outer loop
      vertex 21.1448448756665 1789.90815512433 26.4
      vertex 806.496167110116 1789.90815512433 26.8
      vertex 21.1448448756665 1789.90815512433 801.6
   endloop
endfacet
facet normal 1.37078731628455e-017 -1.0 -8.05805181706036e-017
   outer loop
      vertex 806.496167110116 1789.90815512433 26.8
      vertex 21.1448448756665 1789.90815512433 26.4
      vertex 1489.43236560855 1789.90815512433 26.8
   endloop
endfacet
facet normal 1.37078731628455e-017 -1.0 -8.05805181706036e-017
   outer loop
      vertex 1489.43236560855 1789.90815512433 26.8
      vertex 21.1448448756665 1789.90815512433 26.4
      vertex 1519.83236560855 1789.90815512433 26.8
   endloop
endfacet
facet normal 1.37078731628455e-017 -1.0 -8.05805181706036e-017
   outer loop
      vertex 21.1448448756665 1789.90815512433 801.6
      vertex 806.496167110116 1789.90815512433 26.8
      vertex 806.496167110116 1789.90815512433 801.6
   endloop
endfacet
facet normal -1.0 -1.09321904221457e-022 9.43464555402232e-023
   outer loop
      vertex 0.0 1813.253 801.6
      vertex 0.0 1241.8 318.7
      vertex 0.0 1241.8 801.6
   endloop
endfacet
facet normal -1.0 -1.09321904221457e-022 9.43464555402232e-023
   outer loop
      vertex 4.4668984669047e-019 15.0 801.6
      vertex 0.0 0.0 0.0
      vertex 0.0 0.0 801.6
   endloop
endfacet
facet normal -1.0 -1.09321904221457e-022 9.43464555402232e-023
   outer loop
      vertex 0.0 0.0 0.0
      vertex 4.4668984669047e-019 15.0 801.6
      vertex 4.4668984669047e-019 15.0 318.7
   endloop
endfacet
facet normal -1.0 -1.09321904221457e-022 9.43464555402232e-023
   outer loop
      vertex 0.0 0.0 0.0
      vertex 4.4668984669047e-019 15.0 318.7
      vertex 0.0 1813.253 0.0
   endloop
endfacet
facet normal -1.0 -1.09321904221457e-022 9.43464555402232e-023
   outer loop
      vertex 0.0 1813.253 0.0
      vertex 4.4668984669047e-019 15.0 318.7
      vertex 0.0 1241.8 318.7
   endloop
endfacet
facet normal -1.0 -1.09321904221457e-022 9.43464555402232e-023
   outer loop
      vertex 0.0 1813.253 0.0
      vertex 0.0 1241.8 318.7
      vertex 0.0 1813.253 801.6
   endloop
endfacet
facet normal 1.0 0.0 0.0
   outer loop
      vertex 1813.253 0.0 0.0
      vertex 1813.253 15.0 318.7
      vertex 1813.253 0.0 801.6
   endloop
endfacet
facet normal 1.0 0.0 0.0
   outer loop
      vertex 1813.253 15.0 318.7
      vertex 1813.253 0.0 0.0
      vertex 1813.253 1813.253 0.0
   endloop
endfacet
facet normal 1.0 0.0 0.0
   outer loop
      vertex 1813.253 15.0 318.7
      vertex 1813.253 1813.253 0.0
      vertex 1813.253 1241.8 318.7
   endloop
endfacet
facet normal 1.0 0.0 0.0
   outer loop
      vertex 1813.253 1241.8 318.7
      vertex 1813.253 1813.253 0.0
      vertex 1813.253 1241.8 801.6
   endloop
endfacet
facet normal 1.0 0.0 0.0
   outer loop
      vertex 1813.253 1241.8 801.6
      vertex 1813.253 1813.253 0.0
      vertex 1813.253 1813.253 801.6
   endloop
endfacet
facet normal 1.0 0.0 0.0
   outer loop
      vertex 1813.253 15.0 801.6
      vertex 1813.253 0.0 801.6
      vertex 1813.253 15.0 318.7
   endloop
endfacet
facet normal -0.0 -0.0 1.0
   outer loop
      vertex 1813.253 1241.8 801.6
      vertex 1791.00815512433 1789.90815512433 801.6
      vertex 1791.00815512433 1241.8 801.6
   endloop
endfacet
facet normal -0.0 -0.0 1.0
   outer loop
      vertex 1791.00815512433 1789.90815512433 801.6
      vertex 1489.43236560855 1813.253 801.6
      vertex 1489.43236560855 1789.90815512433 801.6
   endloop
endfacet
facet normal -0.0 -0.0 1.0
   outer loop
      vertex 1489.43236560855 1813.253 801.6
      vertex 1791.00815512433 1789.90815512433 801.6
      vertex 1813.253 1813.253 801.6
   endloop
endfacet
facet normal -0.0 -0.0 1.0
   outer loop
      vertex 1813.253 1813.253 801.6
      vertex 1791.00815512433 1789.90815512433 801.6
      vertex 1813.253 1241.8 801.6
   endloop
endfacet
facet normal 0.0 0.0 1.0
   outer loop
      vertex 4.4668984669047e-019 15.0 318.7
      vertex 21.1448448756665 1241.8 318.7
      vertex 0.0 1241.8 318.7
   endloop
endfacet
facet normal 0.0 0.0 1.0
   outer loop
      vertex 21.1448448756665 1241.8 318.7
      vertex 4.4668984669047e-019 15.0 318.7
      vertex 21.1448448756665 15.0 318.7
   endloop
endfacet
facet normal 0.0 -1.0 0.0
   outer loop
      vertex 21.1448448756665 1241.8 801.6
      vertex 0.0 1241.8 318.7
      vertex 21.1448448756665 1241.8 318.7
   endloop
endfacet
facet normal 0.0 -1.0 0.0
   outer loop
      vertex 0.0 1241.8 318.7
      vertex 21.1448448756665 1241.8 801.6
      vertex 0.0 1241.8 801.6
   endloop
endfacet
facet normal 0.0 0.0 1.0
   outer loop
      vertex 1813.253 15.0 318.7
      vertex 1791.00815512433 1241.8 318.7
      vertex 1791.00815512433 15.0 318.7
   endloop
endfacet
facet normal 0.0 0.0 1.0
   outer loop
      vertex 1791.00815512433 1241.8 318.7
      vertex 1813.253 15.0 318.7
      vertex 1813.253 1241.8 318.7
   endloop
endfacet
facet normal 0.0 -1.0 0.0
   outer loop
      vertex 1813.253 1241.8 801.6
      vertex 1791.00815512433 1241.8 318.7
      vertex 1813.253 1241.8 318.7
   endloop
endfacet
facet normal 0.0 -1.0 0.0
   outer loop
      vertex 1791.00815512433 1241.8 318.7
      vertex 1813.253 1241.8 801.6
      vertex 1791.00815512433 1241.8 801.6
   endloop
endfacet
facet normal 0.0 0.0 1.0
   outer loop
      vertex 1791.00815512433 15.0 26.4
      vertex 21.1448448756665 1789.90815512433 26.4
      vertex 21.1448448756665 15.0 26.4
   endloop
endfacet
facet normal 0.0 0.0 1.0
   outer loop
      vertex 21.1448448756665 1789.90815512433 26.4
      vertex 1791.00815512433 15.0 26.4
      vertex 1791.00815512433 1789.90815512433 26.4
   endloop
endfacet
facet normal -1.0 0.0 0.0
   outer loop
      vertex 1791.00815512433 1789.90815512433 801.6
      vertex 1791.00815512433 1241.8 318.7
      vertex 1791.00815512433 1241.8 801.6
   endloop
endfacet
facet normal -1.0 0.0 0.0
   outer loop
      vertex 1791.00815512433 1241.8 318.7
      vertex 1791.00815512433 15.0 26.4
      vertex 1791.00815512433 15.0 318.7
   endloop
endfacet
facet normal -1.0 0.0 0.0
   outer loop
      vertex 1791.00815512433 15.0 26.4
      vertex 1791.00815512433 1241.8 318.7
      vertex 1791.00815512433 1789.90815512433 26.4
   endloop
endfacet
facet normal -1.0 0.0 0.0
   outer loop
      vertex 1791.00815512433 1789.90815512433 26.4
      vertex 1791.00815512433 1241.8 318.7
      vertex 1791.00815512433 1789.90815512433 801.6
   endloop
endfacet
facet normal 1.0 -5.50891596059181e-018 3.98199670162964e-018
   outer loop
      vertex 21.1448448756665 1789.90815512433 26.4
      vertex 21.1448448756665 15.0 318.7
      vertex 21.1448448756665 15.0 26.4
   endloop
endfacet
facet normal 1.0 -5.50891596059181e-018 3.98199670162964e-018
   outer loop
      vertex 21.1448448756665 15.0 318.7
      vertex 21.1448448756665 1789.90815512433 26.4
      vertex 21.1448448756665 1241.8 318.7
   endloop
endfacet
facet normal 1.0 -5.50891596059181e-018 3.98199670162964e-018
   outer loop
      vertex 21.1448448756665 1241.8 318.7
      vertex 21.1448448756665 1789.90815512433 26.4
      vertex 21.1448448756665 1241.8 801.6
   endloop
endfacet
facet normal 1.0 -5.50891596059181e-018 3.98199670162964e-018
   outer loop
      vertex 21.1448448756665 1241.8 801.6
      vertex 21.1448448756665 1789.90815512433 26.4
      vertex 21.1448448756665 1789.90815512433 801.6
   endloop
endfacet
facet normal 0.0 0.0 -1.0
   outer loop
      vertex 1813.253 1813.253 0.0
      vertex 0.0 0.0 0.0
      vertex 0.0 1813.253 0.0
   endloop
endfacet
facet normal 0.0 0.0 -1.0
   outer loop
      vertex 0.0 0.0 0.0
      vertex 1813.253 1813.253 0.0
      vertex 1813.253 0.0 0.0
   endloop
endfacet
facet normal 0.0 -1.0 0.0
   outer loop
      vertex 1813.253 0.0 801.6
      vertex 0.0 0.0 0.0
      vertex 1813.253 0.0 0.0
   endloop
endfacet
facet normal 0.0 -1.0 0.0
   outer loop
      vertex 0.0 0.0 0.0
      vertex 1813.253 0.0 801.6
      vertex 0.0 0.0 801.6
   endloop
endfacet
facet normal 1.28226288032893e-018 1.0 5.60070875701082e-018
   outer loop
      vertex 4.4668984669047e-019 15.0 801.6
      vertex 21.1448448756665 15.0 318.7
      vertex 4.4668984669047e-019 15.0 318.7
   endloop
endfacet
facet normal 1.28226288032893e-018 1.0 5.60070875701082e-018
   outer loop
      vertex 21.1448448756665 15.0 318.7
      vertex 4.4668984669047e-019 15.0 801.6
      vertex 595.850787547927 15.0 505.7
   endloop
endfacet
facet normal 1.28226288032893e-018 1.0 5.60070875701082e-018
   outer loop
      vertex 595.850787547927 15.0 505.7
      vertex 4.4668984669047e-019 15.0 801.6
      vertex 626.250787547927 15.0 505.7
   endloop
endfacet
facet normal 1.28226288032893e-018 1.0 5.60070875701082e-018
   outer loop
      vertex 1791.00815512433 15.0 26.4
      vertex 626.250787547927 15.0 26.8
      vertex 1791.00815512433 15.0 318.7
   endloop
endfacet
facet normal 1.28226288032893e-018 1.0 5.60070875701082e-018
   outer loop
      vertex 626.250787547927 15.0 26.8
      vertex 1791.00815512433 15.0 26.4
      vertex 595.850787547927 15.0 26.8
   endloop
endfacet
facet normal 1.28226288032893e-018 1.0 5.60070875701082e-018
   outer loop
      vertex 1791.00815512433 15.0 318.7
      vertex 626.250787547927 15.0 26.8
      vertex 626.250787547927 15.0 505.7
   endloop
endfacet
facet normal 1.28226288032893e-018 1.0 5.60070875701082e-018
   outer loop
      vertex 1791.00815512433 15.0 318.7
      vertex 626.250787547927 15.0 505.7
      vertex 1813.253 15.0 318.7
   endloop
endfacet
facet normal 1.28226288032893e-018 1.0 5.60070875701082e-018
   outer loop
      vertex 1813.253 15.0 318.7
      vertex 626.250787547927 15.0 505.7
      vertex 1813.253 15.0 801.6
   endloop
endfacet
facet normal 1.28226288032893e-018 1.0 5.60070875701082e-018
   outer loop
      vertex 1813.253 15.0 801.6
      vertex 626.250787547927 15.0 505.7
      vertex 4.4668984669047e-019 15.0 801.6
   endloop
endfacet
facet normal 1.28226288032893e-018 1.0 5.60070875701082e-018
   outer loop
      vertex 21.1448448756665 15.0 26.4
      vertex 595.850787547927 15.0 26.8
      vertex 1791.00815512433 15.0 26.4
   endloop
endfacet
facet normal 1.28226288032893e-018 1.0 5.60070875701082e-018
   outer loop
      vertex 595.850787547927 15.0 26.8
      vertex 21.1448448756665 15.0 26.4
      vertex 21.1448448756665 15.0 318.7
   endloop
endfacet
facet normal 1.28226288032893e-018 1.0 5.60070875701082e-018
   outer loop
      vertex 595.850787547927 15.0 26.8
      vertex 21.1448448756665 15.0 318.7
      vertex 595.850787547927 15.0 505.7
   endloop
endfacet
facet normal 0.0 -3.49927858887238e-020 1.0
   outer loop
      vertex 1813.253 0.0 801.6
      vertex 4.4668984669047e-019 15.0 801.6
      vertex 0.0 0.0 801.6
   endloop
endfacet
facet normal 0.0 -3.49927858887238e-020 1.0
   outer loop
      vertex 4.4668984669047e-019 15.0 801.6
      vertex 1813.253 0.0 801.6
      vertex 1813.253 15.0 801.6
   endloop
endfacet
facet normal 0.0 -1.0 0.0
   outer loop
      vertex 1519.83236560855 1789.90815512433 505.7
      vertex 1489.43236560855 1789.90815512433 26.8
      vertex 1519.83236560855 1789.90815512433 26.8
   endloop
endfacet
facet normal 0.0 -1.0 0.0
   outer loop
      vertex 1489.43236560855 1789.90815512433 26.8
      vertex 1519.83236560855 1789.90815512433 505.7
      vertex 1489.43236560855 1789.90815512433 505.7
   endloop
endfacet
facet normal 1.0 -0.0 -0.0
   outer loop
      vertex 806.496167110116 1813.253 26.8
      vertex 806.496167110116 1789.90815512433 801.6
      vertex 806.496167110116 1789.90815512433 26.8
   endloop
endfacet
facet normal 1.0 -0.0 -0.0
   outer loop
      vertex 806.496167110116 1789.90815512433 801.6
      vertex 806.496167110116 1813.253 26.8
      vertex 806.496167110116 1813.253 801.6
   endloop
endfacet
facet normal 7.04226415961693e-017 4.00133556484689e-030 1.0
   outer loop
      vertex 1489.43236560855 1789.90815512433 26.8
      vertex 806.496167110116 1813.253 26.8
      vertex 806.496167110116 1789.90815512433 26.8
   endloop
endfacet
facet normal 7.04226415961693e-017 4.00133556484689e-030 1.0
   outer loop
      vertex 806.496167110116 1813.253 26.8
      vertex 1489.43236560855 1789.90815512433 26.8
      vertex 1489.43236560855 1813.253 26.8
   endloop
endfacet
facet normal -1.0 0.0 0.0
   outer loop
      vertex 1489.43236560855 1813.253 801.6
      vertex 1489.43236560855 1789.90815512433 505.7
      vertex 1489.43236560855 1789.90815512433 801.6
   endloop
endfacet
facet normal -1.0 0.0 0.0
   outer loop
      vertex 1489.43236560855 1789.90815512433 505.7
      vertex 1489.43236560855 1813.253 801.6
      vertex 1489.43236560855 1789.90815512433 26.8
   endloop
endfacet
facet normal -1.0 0.0 0.0
   outer loop
      vertex 1489.43236560855 1789.90815512433 26.8
      vertex 1489.43236560855 1813.253 801.6
      vertex 1489.43236560855 1813.253 26.8
   endloop
endfacet
facet normal -0.0 -0.0 1.0
   outer loop
      vertex 21.1448448756665 1241.8 801.6
      vertex 0.0 1813.253 801.6
      vertex 0.0 1241.8 801.6
   endloop
endfacet
facet normal -0.0 -0.0 1.0
   outer loop
      vertex 0.0 1813.253 801.6
      vertex 21.1448448756665 1241.8 801.6
      vertex 21.1448448756665 1789.90815512433 801.6
   endloop
endfacet
facet normal -0.0 -0.0 1.0
   outer loop
      vertex 0.0 1813.253 801.6
      vertex 21.1448448756665 1789.90815512433 801.6
      vertex 806.496167110116 1813.253 801.6
   endloop
endfacet
facet normal -0.0 -0.0 1.0
   outer loop
      vertex 806.496167110116 1813.253 801.6
      vertex 21.1448448756665 1789.90815512433 801.6
      vertex 806.496167110116 1789.90815512433 801.6
   endloop
endfacet
endsolid piece3
