solid piece6
facet normal 0.0 0.0 1.0
   outer loop
      vertex 1413.52111953673 -9.17284985748686 26.8
      vertex 730.584921038302 5.82715014251297 26.8
      vertex 730.584921038302 -9.17284985748686 26.8
   endloop
endfacet
facet normal 0.0 0.0 1.0
   outer loop
      vertex 730.584921038302 5.82715014251297 26.8
      vertex 1413.52111953673 -9.17284985748686 26.8
      vertex 1413.52111953673 5.82715014251297 26.8
   endloop
endfacet
facet normal 1.0 0.0 0.0
   outer loop
      vertex 730.584921038302 5.82715014251297 26.8
      vertex 730.584921038302 -9.17284985748686 801.6
      vertex 730.584921038302 -9.17284985748686 26.8
   endloop
endfacet
facet normal 1.0 0.0 0.0
   outer loop
      vertex 730.584921038302 -9.17284985748686 801.6
      vertex 730.584921038302 5.82715014251297 26.8
      vertex 730.584921038302 5.82715014251297 801.6
   endloop
endfacet
facet normal -1.0 0.0 0.0
   outer loop
      vertex 1413.52111953673 5.82715014251297 801.6
      vertex 1413.52111953673 -9.17284985748686 26.8
      vertex 1413.52111953673 -9.17284985748686 801.6
   endloop
endfacet
facet normal -1.0 0.0 0.0
   outer loop
      vertex 1413.52111953673 -9.17284985748686 26.8
      vertex 1413.52111953673 5.82715014251297 801.6
      vertex 1413.52111953673 5.82715014251297 26.8
   endloop
endfacet
facet normal 1.0 0.0 0.0
   outer loop
      vertex 1737.34175392819 -9.17284985748686 0.0
      vertex 1737.34175392819 5.82715014251297 318.7
      vertex 1737.34175392819 -9.17284985748686 801.6
   endloop
endfacet
facet normal 1.0 0.0 0.0
   outer loop
      vertex 1737.34175392819 5.82715014251297 318.7
      vertex 1737.34175392819 -9.17284985748686 0.0
      vertex 1737.34175392819 1804.08015014251 0.0
   endloop
endfacet
facet normal 1.0 0.0 0.0
   outer loop
      vertex 1737.34175392819 5.82715014251297 318.7
      vertex 1737.34175392819 1804.08015014251 0.0
      vertex 1737.34175392819 1232.62715014251 318.7
   endloop
endfacet
facet normal 1.0 0.0 0.0
   outer loop
      vertex 1737.34175392819 1232.62715014251 318.7
      vertex 1737.34175392819 1804.08015014251 0.0
      vertex 1737.34175392819 1232.62715014251 801.6
   endloop
endfacet
facet normal 1.0 0.0 0.0
   outer loop
      vertex 1737.34175392819 1232.62715014251 801.6
      vertex 1737.34175392819 1804.08015014251 0.0
      vertex 1737.34175392819 1804.08015014251 801.6
   endloop
endfacet
facet normal 1.0 0.0 0.0
   outer loop
      vertex 1737.34175392819 5.82715014251297 801.6
      vertex 1737.34175392819 -9.17284985748686 801.6
      vertex 1737.34175392819 5.82715014251297 318.7
   endloop
endfacet
facet normal 0.0 0.0 1.0
   outer loop
      vertex 1737.34175392819 5.82715014251297 318.7
      vertex 1715.09690905252 1232.62715014251 318.7
      vertex 1715.09690905252 5.82715014251297 318.7
   endloop
endfacet
facet normal 0.0 0.0 1.0
   outer loop
      vertex 1715.09690905252 1232.62715014251 318.7
      vertex 1737.34175392819 5.82715014251297 318.7
      vertex 1737.34175392819 1232.62715014251 318.7
   endloop
endfacet
facet normal 0.0 -1.0 0.0
   outer loop
      vertex 1737.34175392819 1232.62715014251 801.6
      vertex 1715.09690905252 1232.62715014251 318.7
      vertex 1737.34175392819 1232.62715014251 318.7
   endloop
endfacet
facet normal 0.0 -1.0 0.0
   outer loop
      vertex 1715.09690905252 1232.62715014251 318.7
      vertex 1737.34175392819 1232.62715014251 801.6
      vertex 1715.09690905252 1232.62715014251 801.6
   endloop
endfacet
facet normal 0.0 0.0 1.0
   outer loop
      vertex -54.7664011961482 5.82715014251297 26.4
      vertex 1240.62352578542 981.212369212052 26.3999999999998
      vertex 1239.60470799146 988.951058660617 26.3999999999998
   endloop
endfacet
facet normal 0.0 0.0 1.0
   outer loop
      vertex 1240.62352578542 981.212369212052 26.3999999999998
      vertex -54.7664011961482 5.82715014251297 26.4
      vertex 1243.61054841831 974.001058660617 26.3999999999998
   endloop
endfacet
facet normal 0.0 0.0 1.0
   outer loop
      vertex 1243.61054841831 974.001058660617 26.3999999999998
      vertex -54.7664011961482 5.82715014251297 26.4
      vertex 1715.09690905252 5.82715014251297 26.4
   endloop
endfacet
facet normal 0.0 0.0 1.0
   outer loop
      vertex 1243.61054841831 974.001058660617 26.3999999999998
      vertex 1715.09690905252 5.82715014251297 26.4
      vertex 1248.36221523399 967.808565903139 26.3999999999998
   endloop
endfacet
facet normal 0.0 0.0 1.0
   outer loop
      vertex 1248.36221523399 967.808565903139 26.3999999999998
      vertex 1715.09690905252 5.82715014251297 26.4
      vertex 1254.55470799146 963.056899087463 26.3999999999998
   endloop
endfacet
facet normal 0.0 0.0 1.0
   outer loop
      vertex 1254.55470799146 963.056899087463 26.3999999999998
      vertex 1715.09690905252 5.82715014251297 26.4
      vertex 1261.7660185429 960.069876454574 26.3999999999998
   endloop
endfacet
facet normal 0.0 0.0 1.0
   outer loop
      vertex 1261.7660185429 960.069876454574 26.3999999999998
      vertex 1715.09690905252 5.82715014251297 26.4
      vertex 1269.50470799146 959.051058660617 26.3999999999998
   endloop
endfacet
facet normal 0.0 0.0 1.0
   outer loop
      vertex 1269.50470799146 959.051058660617 26.3999999999998
      vertex 1715.09690905252 5.82715014251297 26.4
      vertex 1277.24339744003 960.069876454574 26.3999999999998
   endloop
endfacet
facet normal 0.0 0.0 1.0
   outer loop
      vertex 1277.24339744003 960.069876454574 26.3999999999998
      vertex 1715.09690905252 5.82715014251297 26.4
      vertex 1284.45470799146 963.056899087463 26.3999999999998
   endloop
endfacet
facet normal 0.0 0.0 1.0
   outer loop
      vertex 1284.45470799146 963.056899087463 26.3999999999998
      vertex 1715.09690905252 5.82715014251297 26.4
      vertex 1290.64720074894 967.808565903139 26.3999999999998
   endloop
endfacet
facet normal 0.0 0.0 1.0
   outer loop
      vertex 1290.64720074894 967.808565903139 26.3999999999998
      vertex 1715.09690905252 5.82715014251297 26.4
      vertex 1295.39886756462 974.001058660617 26.3999999999998
   endloop
endfacet
facet normal 0.0 0.0 1.0
   outer loop
      vertex 1295.39886756462 974.001058660617 26.3999999999998
      vertex 1715.09690905252 5.82715014251297 26.4
      vertex 1298.38589019751 981.212369212052 26.3999999999998
   endloop
endfacet
facet normal 0.0 0.0 1.0
   outer loop
      vertex 1298.38589019751 981.212369212052 26.3999999999998
      vertex 1715.09690905252 5.82715014251297 26.4
      vertex 1299.40470799146 988.951058660617 26.3999999999998
   endloop
endfacet
facet normal 0.0 0.0 1.0
   outer loop
      vertex -54.7664011961482 5.82715014251297 26.4
      vertex 1243.61054841831 1003.90105866062 26.3999999999998
      vertex 1715.09690905252 1780.73530526685 26.4
   endloop
endfacet
facet normal 0.0 0.0 1.0
   outer loop
      vertex 1243.61054841831 1003.90105866062 26.3999999999998
      vertex -54.7664011961482 5.82715014251297 26.4
      vertex 1240.62352578542 996.689748109183 26.3999999999998
   endloop
endfacet
facet normal 0.0 0.0 1.0
   outer loop
      vertex 1240.62352578542 996.689748109183 26.3999999999998
      vertex -54.7664011961482 5.82715014251297 26.4
      vertex 1239.60470799146 988.951058660617 26.3999999999998
   endloop
endfacet
facet normal 0.0 0.0 1.0
   outer loop
      vertex 1715.09690905252 1780.73530526685 26.4
      vertex 1243.61054841831 1003.90105866062 26.3999999999998
      vertex 1248.36221523399 1010.0935514181 26.3999999999998
   endloop
endfacet
facet normal 0.0 0.0 1.0
   outer loop
      vertex 1715.09690905252 1780.73530526685 26.4
      vertex 1248.36221523399 1010.0935514181 26.3999999999998
      vertex 1254.55470799146 1014.84521823377 26.3999999999998
   endloop
endfacet
facet normal 0.0 0.0 1.0
   outer loop
      vertex 1715.09690905252 1780.73530526685 26.4
      vertex 1254.55470799146 1014.84521823377 26.3999999999998
      vertex 1261.7660185429 1017.83224086666 26.3999999999998
   endloop
endfacet
facet normal 0.0 0.0 1.0
   outer loop
      vertex 1715.09690905252 1780.73530526685 26.4
      vertex 1261.7660185429 1017.83224086666 26.3999999999998
      vertex 1269.50470799146 1018.85105866062 26.3999999999998
   endloop
endfacet
facet normal 0.0 0.0 1.0
   outer loop
      vertex 1715.09690905252 1780.73530526685 26.4
      vertex 1269.50470799146 1018.85105866062 26.3999999999998
      vertex 1277.24339744003 1017.83224086666 26.3999999999998
   endloop
endfacet
facet normal 0.0 0.0 1.0
   outer loop
      vertex 1715.09690905252 1780.73530526685 26.4
      vertex 1277.24339744003 1017.83224086666 26.3999999999998
      vertex 1284.45470799146 1014.84521823377 26.3999999999998
   endloop
endfacet
facet normal 0.0 0.0 1.0
   outer loop
      vertex 1715.09690905252 1780.73530526685 26.4
      vertex 1284.45470799146 1014.84521823377 26.3999999999998
      vertex 1290.64720074894 1010.0935514181 26.3999999999998
   endloop
endfacet
facet normal 0.0 0.0 1.0
   outer loop
      vertex 1715.09690905252 1780.73530526685 26.4
      vertex 1290.64720074894 1010.0935514181 26.3999999999998
      vertex 1295.39886756462 1003.90105866062 26.3999999999998
   endloop
endfacet
facet normal 0.0 0.0 1.0
   outer loop
      vertex 1715.09690905252 1780.73530526685 26.4
      vertex 1295.39886756462 1003.90105866062 26.3999999999998
      vertex 1298.38589019751 996.689748109183 26.3999999999998
   endloop
endfacet
facet normal 0.0 0.0 1.0
   outer loop
      vertex 1715.09690905252 1780.73530526685 26.4
      vertex 1298.38589019751 996.689748109183 26.3999999999998
      vertex 1299.40470799146 988.951058660617 26.3999999999998
   endloop
endfacet
facet normal 0.0 0.0 1.0
   outer loop
      vertex 1715.09690905252 1780.73530526685 26.4
      vertex 1299.40470799146 988.951058660617 26.3999999999998
      vertex 1715.09690905252 5.82715014251297 26.4
   endloop
endfacet
facet normal -1.0 0.0 0.0
   outer loop
      vertex 1715.09690905252 1780.73530526685 801.6
      vertex 1715.09690905252 1232.62715014251 318.7
      vertex 1715.09690905252 1232.62715014251 801.6
   endloop
endfacet
facet normal -1.0 0.0 0.0
   outer loop
      vertex 1715.09690905252 1232.62715014251 318.7
      vertex 1715.09690905252 5.82715014251297 26.4
      vertex 1715.09690905252 5.82715014251297 318.7
   endloop
endfacet
facet normal -1.0 0.0 0.0
   outer loop
      vertex 1715.09690905252 5.82715014251297 26.4
      vertex 1715.09690905252 1232.62715014251 318.7
      vertex 1715.09690905252 1780.73530526685 26.4
   endloop
endfacet
facet normal -1.0 0.0 0.0
   outer loop
      vertex 1715.09690905252 1780.73530526685 26.4
      vertex 1715.09690905252 1232.62715014251 318.7
      vertex 1715.09690905252 1780.73530526685 801.6
   endloop
endfacet
facet normal 0.0 -1.0 0.0
   outer loop
      vertex 1737.34175392819 -9.17284985748686 0.0
      vertex 1413.52111953673 -9.17284985748686 26.8
      vertex -75.9112460718147 -9.17284985748686 0.0
   endloop
endfacet
facet normal 0.0 -1.0 0.0
   outer loop
      vertex 1413.52111953673 -9.17284985748686 26.8
      vertex 1737.34175392819 -9.17284985748686 0.0
      vertex 1737.34175392819 -9.17284985748686 801.6
   endloop
endfacet
facet normal 0.0 -1.0 0.0
   outer loop
      vertex 1413.52111953673 -9.17284985748686 26.8
      vertex 1737.34175392819 -9.17284985748686 801.6
      vertex 1413.52111953673 -9.17284985748686 801.6
   endloop
endfacet
facet normal 0.0 -1.0 0.0
   outer loop
      vertex -75.9112460718147 -9.17284985748686 0.0
      vertex 730.584921038302 -9.17284985748686 26.8
      vertex -75.9112460718147 -9.17284985748686 801.6
   endloop
endfacet
facet normal 0.0 -1.0 0.0
   outer loop
      vertex 730.584921038302 -9.17284985748686 26.8
      vertex -75.9112460718147 -9.17284985748686 0.0
      vertex 1413.52111953673 -9.17284985748686 26.8
   endloop
endfacet
facet normal 0.0 -1.0 0.0
   outer loop
      vertex -75.9112460718147 -9.17284985748686 801.6
      vertex 730.584921038302 -9.17284985748686 26.8
      vertex 730.584921038302 -9.17284985748686 801.6
   endloop
endfacet
facet normal 0.0 1.0 0.0
   outer loop
      vertex -54.7664011961482 5.82715014251297 26.4
      vertex 730.584921038302 5.82715014251297 26.8
      vertex 1715.09690905252 5.82715014251297 26.4
   endloop
endfacet
facet normal 0.0 1.0 0.0
   outer loop
      vertex 730.584921038302 5.82715014251297 26.8
      vertex -54.7664011961482 5.82715014251297 26.4
      vertex -54.7664011961487 5.82715014251297 801.6
   endloop
endfacet
facet normal 0.0 1.0 0.0
   outer loop
      vertex 730.584921038302 5.82715014251297 26.8
      vertex -54.7664011961487 5.82715014251297 801.6
      vertex 730.584921038302 5.82715014251297 801.6
   endloop
endfacet
facet normal 0.0 1.0 0.0
   outer loop
      vertex 1715.09690905252 5.82715014251297 26.4
      vertex 1413.52111953673 5.82715014251297 26.8
      vertex 1715.09690905252 5.82715014251297 318.7
   endloop
endfacet
facet normal 0.0 1.0 0.0
   outer loop
      vertex 1413.52111953673 5.82715014251297 26.8
      vertex 1715.09690905252 5.82715014251297 26.4
      vertex 730.584921038302 5.82715014251297 26.8
   endloop
endfacet
facet normal 0.0 1.0 0.0
   outer loop
      vertex 1715.09690905252 5.82715014251297 318.7
      vertex 1413.52111953673 5.82715014251297 26.8
      vertex 1413.52111953673 5.82715014251297 801.6
   endloop
endfacet
facet normal 0.0 1.0 0.0
   outer loop
      vertex 1715.09690905252 5.82715014251297 318.7
      vertex 1413.52111953673 5.82715014251297 801.6
      vertex 1737.34175392819 5.82715014251297 318.7
   endloop
endfacet
facet normal 0.0 1.0 0.0
   outer loop
      vertex 1737.34175392819 5.82715014251297 318.7
      vertex 1413.52111953673 5.82715014251297 801.6
      vertex 1737.34175392819 5.82715014251297 801.6
   endloop
endfacet
facet normal 0.0 0.0 1.0
   outer loop
      vertex 1737.34175392819 -9.17284985748686 801.6
      vertex 1413.52111953673 5.82715014251297 801.6
      vertex 1413.52111953673 -9.17284985748686 801.6
   endloop
endfacet
facet normal 0.0 0.0 1.0
   outer loop
      vertex 1413.52111953673 5.82715014251297 801.6
      vertex 1737.34175392819 -9.17284985748686 801.6
      vertex 1737.34175392819 5.82715014251297 801.6
   endloop
endfacet
facet normal -1.88062785569825e-017 2.38517115537712e-018 1.0
   outer loop
      vertex 1737.34175392819 1232.62715014251 801.6
      vertex 1715.09690905252 1780.73530526685 801.6
      vertex 1715.09690905252 1232.62715014251 801.6
   endloop
endfacet
facet normal -1.88062785569825e-017 2.38517115537712e-018 1.0
   outer loop
      vertex 1715.09690905252 1780.73530526685 801.6
      vertex 1737.34175392819 1232.62715014251 801.6
      vertex 1718.4173001514 1804.08015014251 801.6
   endloop
endfacet
facet normal -1.88062785569825e-017 2.38517115537712e-018 1.0
   outer loop
      vertex 1718.4173001514 1804.08015014251 801.6
      vertex 1737.34175392819 1232.62715014251 801.6
      vertex 1737.34175392819 1804.08015014251 801.6
   endloop
endfacet
facet normal -1.88062785569825e-017 2.38517115537712e-018 1.0
   outer loop
      vertex -54.7664011961487 5.82715014251297 801.6
      vertex -54.7664011961487 30.8964487949683 801.6
      vertex -75.9112460718147 5.82715014251297 801.6
   endloop
endfacet
facet normal -1.88062785569825e-017 2.38517115537712e-018 1.0
   outer loop
      vertex -54.7664011961487 30.8964487949683 801.6
      vertex -54.7664011961487 5.82715014251297 801.6
      vertex 1715.09690905252 1780.73530526685 801.6
   endloop
endfacet
facet normal -1.88062785569825e-017 2.38517115537712e-018 1.0
   outer loop
      vertex -54.7664011961487 30.8964487949683 801.6
      vertex 1715.09690905252 1780.73530526685 801.6
      vertex 1718.4173001514 1804.08015014251 801.6
   endloop
endfacet
facet normal 0.0 0.0 1.0
   outer loop
      vertex 730.584921038302 -9.17284985748686 801.6
      vertex -75.9112460718147 5.82715014251297 801.6
      vertex -75.9112460718147 -9.17284985748686 801.6
   endloop
endfacet
facet normal 0.0 0.0 1.0
   outer loop
      vertex -75.9112460718147 5.82715014251297 801.6
      vertex 730.584921038302 -9.17284985748686 801.6
      vertex -54.7664011961487 5.82715014251297 801.6
   endloop
endfacet
facet normal 0.0 0.0 1.0
   outer loop
      vertex -54.7664011961487 5.82715014251297 801.6
      vertex 730.584921038302 -9.17284985748686 801.6
      vertex 730.584921038302 5.82715014251297 801.6
   endloop
endfacet
facet normal 0.0 1.0 0.0
   outer loop
      vertex 1718.4173001514 1804.08015014251 801.6
      vertex 1737.34175392819 1804.08015014251 0.0
      vertex 1718.4173001514 1804.08015014251 0.0
   endloop
endfacet
facet normal 0.0 1.0 0.0
   outer loop
      vertex 1737.34175392819 1804.08015014251 0.0
      vertex 1718.4173001514 1804.08015014251 801.6
      vertex 1737.34175392819 1804.08015014251 801.6
   endloop
endfacet
facet normal 0.0 0.0 -1.0
   outer loop
      vertex -54.7664011961482 30.8964487949683 0.0
      vertex -75.9112460718147 -9.17284985748686 0.0
      vertex -75.9112460718147 5.82715014251297 0.0
   endloop
endfacet
facet normal 0.0 0.0 -1.0
   outer loop
      vertex -75.9112460718147 -9.17284985748686 0.0
      vertex -54.7664011961482 30.8964487949683 0.0
      vertex 1737.34175392819 -9.17284985748686 0.0
   endloop
endfacet
facet normal 0.0 0.0 -1.0
   outer loop
      vertex 1737.34175392819 -9.17284985748686 0.0
      vertex -54.7664011961482 30.8964487949683 0.0
      vertex 1718.4173001514 1804.08015014251 0.0
   endloop
endfacet
facet normal 0.0 0.0 -1.0
   outer loop
      vertex 1737.34175392819 -9.17284985748686 0.0
      vertex 1718.4173001514 1804.08015014251 0.0
      vertex 1737.34175392819 1804.08015014251 0.0
   endloop
endfacet
facet normal -0.764402319343856 0.644739555310308 -2.51068010631568e-016
   outer loop
      vertex -54.7664011961487 30.8964487949683 801.6
      vertex -75.9112460718147 5.82715014251297 0.0
      vertex -75.9112460718147 5.82715014251297 801.6
   endloop
endfacet
facet normal -0.764402319343856 0.644739555310308 -2.51068010631568e-016
   outer loop
      vertex -75.9112460718147 5.82715014251297 0.0
      vertex -54.7664011961487 30.8964487949683 801.6
      vertex -54.7664011961482 30.8964487949683 0.0
   endloop
endfacet
facet normal -1.0 2.97793231126983e-020 0.0
   outer loop
      vertex -75.9112460718147 5.82715014251297 801.6
      vertex -75.9112460718147 -9.17284985748686 0.0
      vertex -75.9112460718147 -9.17284985748686 801.6
   endloop
endfacet
facet normal -1.0 2.97793231126983e-020 0.0
   outer loop
      vertex -75.9112460718147 -9.17284985748686 0.0
      vertex -75.9112460718147 5.82715014251297 801.6
      vertex -75.9112460718147 5.82715014251297 0.0
   endloop
endfacet
facet normal -0.707106781186547 0.707106781186548 -3.0604613584931e-016
   outer loop
      vertex -54.7664011961487 30.8964487949683 801.6
      vertex 1718.4173001514 1804.08015014251 0.0
      vertex -54.7664011961482 30.8964487949683 0.0
   endloop
endfacet
facet normal -0.707106781186547 0.707106781186548 -3.0604613584931e-016
   outer loop
      vertex 1718.4173001514 1804.08015014251 0.0
      vertex -54.7664011961487 30.8964487949683 801.6
      vertex 1718.4173001514 1804.08015014251 801.6
   endloop
endfacet
facet normal 0.708112403702416 -0.706099726471259 2.54203629857726e-016
   outer loop
      vertex 1715.09690905252 1780.73530526685 26.4
      vertex -54.7664011961487 5.82715014251297 801.6
      vertex -54.7664011961482 5.82715014251297 26.4
   endloop
endfacet
facet normal 0.708112403702416 -0.706099726471259 2.54203629857726e-016
   outer loop
      vertex -54.7664011961487 5.82715014251297 801.6
      vertex 1715.09690905252 1780.73530526685 26.4
      vertex 1715.09690905252 1780.73530526685 801.6
   endloop
endfacet
facet normal 0.923879532511288 -0.382683432365088 0.0
   outer loop
      vertex 1298.38589019751 981.212369212052 26.3999999999998
      vertex 1295.39886756462 974.001058660617 96.4999999999997
      vertex 1295.39886756462 974.001058660617 26.3999999999998
   endloop
endfacet
facet normal 0.923879532511288 -0.382683432365088 0.0
   outer loop
      vertex 1295.39886756462 974.001058660617 96.4999999999997
      vertex 1298.38589019751 981.212369212052 26.3999999999998
      vertex 1298.38589019751 981.212369212052 96.4999999999997
   endloop
endfacet
facet normal 0.382683432365088 0.923879532511288 0.0
   outer loop
      vertex 1277.24339744003 1017.83224086666 96.4999999999997
      vertex 1284.45470799146 1014.84521823377 26.3999999999998
      vertex 1277.24339744003 1017.83224086666 26.3999999999998
   endloop
endfacet
facet normal 0.382683432365088 0.923879532511288 0.0
   outer loop
      vertex 1284.45470799146 1014.84521823377 26.3999999999998
      vertex 1277.24339744003 1017.83224086666 96.4999999999997
      vertex 1284.45470799146 1014.84521823377 96.4999999999997
   endloop
endfacet
facet normal 0.130526192220056 0.99144486137381 0.0
   outer loop
      vertex 1269.50470799146 1018.85105866062 96.4999999999997
      vertex 1277.24339744003 1017.83224086666 26.3999999999998
      vertex 1269.50470799146 1018.85105866062 26.3999999999998
   endloop
endfacet
facet normal 0.130526192220056 0.99144486137381 0.0
   outer loop
      vertex 1277.24339744003 1017.83224086666 26.3999999999998
      vertex 1269.50470799146 1018.85105866062 96.4999999999997
      vertex 1277.24339744003 1017.83224086666 96.4999999999997
   endloop
endfacet
facet normal -0.130526192220053 0.99144486137381 0.0
   outer loop
      vertex 1261.7660185429 1017.83224086666 96.4999999999997
      vertex 1269.50470799146 1018.85105866062 26.3999999999998
      vertex 1261.7660185429 1017.83224086666 26.3999999999998
   endloop
endfacet
facet normal -0.130526192220053 0.99144486137381 0.0
   outer loop
      vertex 1269.50470799146 1018.85105866062 26.3999999999998
      vertex 1261.7660185429 1017.83224086666 96.4999999999997
      vertex 1269.50470799146 1018.85105866062 96.4999999999997
   endloop
endfacet
facet normal -0.382683432365096 0.923879532511284 0.0
   outer loop
      vertex 1254.55470799146 1014.84521823377 96.4999999999997
      vertex 1261.7660185429 1017.83224086666 26.3999999999998
      vertex 1254.55470799146 1014.84521823377 26.3999999999998
   endloop
endfacet
facet normal -0.382683432365096 0.923879532511284 0.0
   outer loop
      vertex 1261.7660185429 1017.83224086666 26.3999999999998
      vertex 1254.55470799146 1014.84521823377 96.4999999999997
      vertex 1261.7660185429 1017.83224086666 96.4999999999997
   endloop
endfacet
facet normal -0.608761429008712 0.793353340291242 0.0
   outer loop
      vertex 1248.36221523399 1010.0935514181 96.4999999999997
      vertex 1254.55470799146 1014.84521823377 26.3999999999998
      vertex 1248.36221523399 1010.0935514181 26.3999999999998
   endloop
endfacet
facet normal -0.608761429008712 0.793353340291242 0.0
   outer loop
      vertex 1254.55470799146 1014.84521823377 26.3999999999998
      vertex 1248.36221523399 1010.0935514181 96.4999999999997
      vertex 1254.55470799146 1014.84521823377 96.4999999999997
   endloop
endfacet
facet normal 0.0 0.0 1.0
   outer loop
      vertex 1240.62352578542 981.212369212052 96.4999999999997
      vertex 1240.62352578542 996.689748109183 96.4999999999997
      vertex 1239.60470799146 988.951058660617 96.4999999999997
   endloop
endfacet
facet normal 0.0 0.0 1.0
   outer loop
      vertex 1240.62352578542 996.689748109183 96.4999999999997
      vertex 1240.62352578542 981.212369212052 96.4999999999997
      vertex 1243.61054841831 974.001058660617 96.4999999999997
   endloop
endfacet
facet normal 0.0 0.0 1.0
   outer loop
      vertex 1240.62352578542 996.689748109183 96.4999999999997
      vertex 1243.61054841831 974.001058660617 96.4999999999997
      vertex 1243.61054841831 1003.90105866062 96.4999999999997
   endloop
endfacet
facet normal 0.0 0.0 1.0
   outer loop
      vertex 1243.61054841831 1003.90105866062 96.4999999999997
      vertex 1243.61054841831 974.001058660617 96.4999999999997
      vertex 1248.36221523399 967.808565903139 96.4999999999997
   endloop
endfacet
facet normal 0.0 0.0 1.0
   outer loop
      vertex 1243.61054841831 1003.90105866062 96.4999999999997
      vertex 1248.36221523399 967.808565903139 96.4999999999997
      vertex 1248.36221523399 1010.0935514181 96.4999999999997
   endloop
endfacet
facet normal 0.0 0.0 1.0
   outer loop
      vertex 1248.36221523399 1010.0935514181 96.4999999999997
      vertex 1248.36221523399 967.808565903139 96.4999999999997
      vertex 1254.55470799146 963.056899087463 96.4999999999997
   endloop
endfacet
facet normal 0.0 0.0 1.0
   outer loop
      vertex 1248.36221523399 1010.0935514181 96.4999999999997
      vertex 1254.55470799146 963.056899087463 96.4999999999997
      vertex 1254.55470799146 1014.84521823377 96.4999999999997
   endloop
endfacet
facet normal 0.0 0.0 1.0
   outer loop
      vertex 1254.55470799146 1014.84521823377 96.4999999999997
      vertex 1254.55470799146 963.056899087463 96.4999999999997
      vertex 1261.7660185429 960.069876454574 96.4999999999997
   endloop
endfacet
facet normal 0.0 0.0 1.0
   outer loop
      vertex 1254.55470799146 1014.84521823377 96.4999999999997
      vertex 1261.7660185429 960.069876454574 96.4999999999997
      vertex 1261.7660185429 1017.83224086666 96.4999999999997
   endloop
endfacet
facet normal 0.0 0.0 1.0
   outer loop
      vertex 1261.7660185429 1017.83224086666 96.4999999999997
      vertex 1261.7660185429 960.069876454574 96.4999999999997
      vertex 1269.50470799146 1018.85105866062 96.4999999999997
   endloop
endfacet
facet normal 0.0 0.0 1.0
   outer loop
      vertex 1269.50470799146 1018.85105866062 96.4999999999997
      vertex 1261.7660185429 960.069876454574 96.4999999999997
      vertex 1269.50470799146 959.051058660617 96.4999999999997
   endloop
endfacet
facet normal 0.0 0.0 1.0
   outer loop
      vertex 1269.50470799146 1018.85105866062 96.4999999999997
      vertex 1269.50470799146 959.051058660617 96.4999999999997
      vertex 1277.24339744003 960.069876454574 96.4999999999997
   endloop
endfacet
facet normal 0.0 0.0 1.0
   outer loop
      vertex 1269.50470799146 1018.85105866062 96.4999999999997
      vertex 1277.24339744003 960.069876454574 96.4999999999997
      vertex 1277.24339744003 1017.83224086666 96.4999999999997
   endloop
endfacet
facet normal 0.0 0.0 1.0
   outer loop
      vertex 1277.24339744003 1017.83224086666 96.4999999999997
      vertex 1277.24339744003 960.069876454574 96.4999999999997
      vertex 1284.45470799146 963.056899087463 96.4999999999997
   endloop
endfacet
facet normal 0.0 0.0 1.0
   outer loop
      vertex 1277.24339744003 1017.83224086666 96.4999999999997
      vertex 1284.45470799146 963.056899087463 96.4999999999997
      vertex 1284.45470799146 1014.84521823377 96.4999999999997
   endloop
endfacet
facet normal 0.0 0.0 1.0
   outer loop
      vertex 1284.45470799146 1014.84521823377 96.4999999999997
      vertex 1284.45470799146 963.056899087463 96.4999999999997
      vertex 1290.64720074894 967.808565903139 96.4999999999997
   endloop
endfacet
facet normal 0.0 0.0 1.0
   outer loop
      vertex 1284.45470799146 1014.84521823377 96.4999999999997
      vertex 1290.64720074894 967.808565903139 96.4999999999997
      vertex 1290.64720074894 1010.0935514181 96.4999999999997
   endloop
endfacet
facet normal 0.0 0.0 1.0
   outer loop
      vertex 1290.64720074894 1010.0935514181 96.4999999999997
      vertex 1290.64720074894 967.808565903139 96.4999999999997
      vertex 1295.39886756462 974.001058660617 96.4999999999997
   endloop
endfacet
facet normal 0.0 0.0 1.0
   outer loop
      vertex 1290.64720074894 1010.0935514181 96.4999999999997
      vertex 1295.39886756462 974.001058660617 96.4999999999997
      vertex 1295.39886756462 1003.90105866062 96.4999999999997
   endloop
endfacet
facet normal 0.0 0.0 1.0
   outer loop
      vertex 1295.39886756462 1003.90105866062 96.4999999999997
      vertex 1295.39886756462 974.001058660617 96.4999999999997
      vertex 1298.38589019751 981.212369212052 96.4999999999997
   endloop
endfacet
facet normal 0.0 0.0 1.0
   outer loop
      vertex 1295.39886756462 1003.90105866062 96.4999999999997
      vertex 1298.38589019751 981.212369212052 96.4999999999997
      vertex 1298.38589019751 996.689748109183 96.4999999999997
   endloop
endfacet
facet normal 0.0 0.0 1.0
   outer loop
      vertex 1298.38589019751 996.689748109183 96.4999999999997
      vertex 1298.38589019751 981.212369212052 96.4999999999997
      vertex 1299.40470799146 988.951058660617 96.4999999999997
   endloop
endfacet
facet normal 0.99144486137381 -0.130526192220056 0.0
   outer loop
      vertex 1299.40470799146 988.951058660617 26.3999999999998
      vertex 1298.38589019751 981.212369212052 96.4999999999997
      vertex 1298.38589019751 981.212369212052 26.3999999999998
   endloop
endfacet
facet normal 0.99144486137381 -0.130526192220056 0.0
   outer loop
      vertex 1298.38589019751 981.212369212052 96.4999999999997
      vertex 1299.40470799146 988.951058660617 26.3999999999998
      vertex 1299.40470799146 988.951058660617 96.4999999999997
   endloop
endfacet
facet normal 0.99144486137381 0.130526192220053 0.0
   outer loop
      vertex 1298.38589019751 996.689748109183 26.3999999999998
      vertex 1299.40470799146 988.951058660617 96.4999999999997
      vertex 1299.40470799146 988.951058660617 26.3999999999998
   endloop
endfacet
facet normal 0.99144486137381 0.130526192220053 0.0
   outer loop
      vertex 1299.40470799146 988.951058660617 96.4999999999997
      vertex 1298.38589019751 996.689748109183 26.3999999999998
      vertex 1298.38589019751 996.689748109183 96.4999999999997
   endloop
endfacet
facet normal 0.923879532511284 0.382683432365096 0.0
   outer loop
      vertex 1295.39886756462 1003.90105866062 26.3999999999998
      vertex 1298.38589019751 996.689748109183 96.4999999999997
      vertex 1298.38589019751 996.689748109183 26.3999999999998
   endloop
endfacet
facet normal 0.923879532511284 0.382683432365096 0.0
   outer loop
      vertex 1298.38589019751 996.689748109183 96.4999999999997
      vertex 1295.39886756462 1003.90105866062 26.3999999999998
      vertex 1295.39886756462 1003.90105866062 96.4999999999997
   endloop
endfacet
facet normal 0.793353340291242 0.608761429008712 0.0
   outer loop
      vertex 1290.64720074894 1010.0935514181 26.3999999999998
      vertex 1295.39886756462 1003.90105866062 96.4999999999997
      vertex 1295.39886756462 1003.90105866062 26.3999999999998
   endloop
endfacet
facet normal 0.793353340291242 0.608761429008712 0.0
   outer loop
      vertex 1295.39886756462 1003.90105866062 96.4999999999997
      vertex 1290.64720074894 1010.0935514181 26.3999999999998
      vertex 1290.64720074894 1010.0935514181 96.4999999999997
   endloop
endfacet
facet normal 0.608761429008712 0.793353340291242 0.0
   outer loop
      vertex 1284.45470799146 1014.84521823377 96.4999999999997
      vertex 1290.64720074894 1010.0935514181 26.3999999999998
      vertex 1284.45470799146 1014.84521823377 26.3999999999998
   endloop
endfacet
facet normal 0.608761429008712 0.793353340291242 0.0
   outer loop
      vertex 1290.64720074894 1010.0935514181 26.3999999999998
      vertex 1284.45470799146 1014.84521823377 96.4999999999997
      vertex 1290.64720074894 1010.0935514181 96.4999999999997
   endloop
endfacet
facet normal -0.793353340291242 0.608761429008712 0.0
   outer loop
      vertex 1248.36221523399 1010.0935514181 96.4999999999997
      vertex 1243.61054841831 1003.90105866062 26.3999999999998
      vertex 1243.61054841831 1003.90105866062 96.4999999999997
   endloop
endfacet
facet normal -0.793353340291242 0.608761429008712 0.0
   outer loop
      vertex 1243.61054841831 1003.90105866062 26.3999999999998
      vertex 1248.36221523399 1010.0935514181 96.4999999999997
      vertex 1248.36221523399 1010.0935514181 26.3999999999998
   endloop
endfacet
facet normal -0.923879532511288 0.382683432365088 0.0
   outer loop
      vertex 1243.61054841831 1003.90105866062 96.4999999999997
      vertex 1240.62352578542 996.689748109183 26.3999999999998
      vertex 1240.62352578542 996.689748109183 96.4999999999997
   endloop
endfacet
facet normal -0.923879532511288 0.382683432365088 0.0
   outer loop
      vertex 1240.62352578542 996.689748109183 26.3999999999998
      vertex 1243.61054841831 1003.90105866062 96.4999999999997
      vertex 1243.61054841831 1003.90105866062 26.3999999999998
   endloop
endfacet
facet normal -0.99144486137381 0.130526192220056 0.0
   outer loop
      vertex 1240.62352578542 996.689748109183 96.4999999999997
      vertex 1239.60470799146 988.951058660617 26.3999999999998
      vertex 1239.60470799146 988.951058660617 96.4999999999997
   endloop
endfacet
facet normal -0.99144486137381 0.130526192220056 0.0
   outer loop
      vertex 1239.60470799146 988.951058660617 26.3999999999998
      vertex 1240.62352578542 996.689748109183 96.4999999999997
      vertex 1240.62352578542 996.689748109183 26.3999999999998
   endloop
endfacet
facet normal -0.99144486137381 -0.130526192220056 -0.0
   outer loop
      vertex 1239.60470799146 988.951058660617 96.4999999999997
      vertex 1240.62352578542 981.212369212052 26.3999999999998
      vertex 1240.62352578542 981.212369212052 96.4999999999997
   endloop
endfacet
facet normal -0.99144486137381 -0.130526192220056 -0.0
   outer loop
      vertex 1240.62352578542 981.212369212052 26.3999999999998
      vertex 1239.60470799146 988.951058660617 96.4999999999997
      vertex 1239.60470799146 988.951058660617 26.3999999999998
   endloop
endfacet
facet normal -0.923879532511288 -0.382683432365088 -0.0
   outer loop
      vertex 1240.62352578542 981.212369212052 96.4999999999997
      vertex 1243.61054841831 974.001058660617 26.3999999999998
      vertex 1243.61054841831 974.001058660617 96.4999999999997
   endloop
endfacet
facet normal -0.923879532511288 -0.382683432365088 -0.0
   outer loop
      vertex 1243.61054841831 974.001058660617 26.3999999999998
      vertex 1240.62352578542 981.212369212052 96.4999999999997
      vertex 1240.62352578542 981.212369212052 26.3999999999998
   endloop
endfacet
facet normal -0.793353340291242 -0.608761429008712 -0.0
   outer loop
      vertex 1243.61054841831 974.001058660617 96.4999999999997
      vertex 1248.36221523399 967.808565903139 26.3999999999998
      vertex 1248.36221523399 967.808565903139 96.4999999999997
   endloop
endfacet
facet normal -0.793353340291242 -0.608761429008712 -0.0
   outer loop
      vertex 1248.36221523399 967.808565903139 26.3999999999998
      vertex 1243.61054841831 974.001058660617 96.4999999999997
      vertex 1243.61054841831 974.001058660617 26.3999999999998
   endloop
endfacet
facet normal -0.608761429008712 -0.793353340291242 -0.0
   outer loop
      vertex 1254.55470799146 963.056899087463 96.4999999999997
      vertex 1248.36221523399 967.808565903139 26.3999999999998
      vertex 1254.55470799146 963.056899087463 26.3999999999998
   endloop
endfacet
facet normal -0.608761429008712 -0.793353340291242 -0.0
   outer loop
      vertex 1248.36221523399 967.808565903139 26.3999999999998
      vertex 1254.55470799146 963.056899087463 96.4999999999997
      vertex 1248.36221523399 967.808565903139 96.4999999999997
   endloop
endfacet
facet normal -0.382683432365088 -0.923879532511288 -0.0
   outer loop
      vertex 1261.7660185429 960.069876454574 96.4999999999997
      vertex 1254.55470799146 963.056899087463 26.3999999999998
      vertex 1261.7660185429 960.069876454574 26.3999999999998
   endloop
endfacet
facet normal -0.382683432365088 -0.923879532511288 -0.0
   outer loop
      vertex 1254.55470799146 963.056899087463 26.3999999999998
      vertex 1261.7660185429 960.069876454574 96.4999999999997
      vertex 1254.55470799146 963.056899087463 96.4999999999997
   endloop
endfacet
facet normal -0.130526192220056 -0.99144486137381 -0.0
   outer loop
      vertex 1269.50470799146 959.051058660617 96.4999999999997
      vertex 1261.7660185429 960.069876454574 26.3999999999998
      vertex 1269.50470799146 959.051058660617 26.3999999999998
   endloop
endfacet
facet normal -0.130526192220056 -0.99144486137381 -0.0
   outer loop
      vertex 1261.7660185429 960.069876454574 26.3999999999998
      vertex 1269.50470799146 959.051058660617 96.4999999999997
      vertex 1261.7660185429 960.069876454574 96.4999999999997
   endloop
endfacet
facet normal 0.130526192220056 -0.99144486137381 0.0
   outer loop
      vertex 1277.24339744003 960.069876454574 96.4999999999997
      vertex 1269.50470799146 959.051058660617 26.3999999999998
      vertex 1277.24339744003 960.069876454574 26.3999999999998
   endloop
endfacet
facet normal 0.130526192220056 -0.99144486137381 0.0
   outer loop
      vertex 1269.50470799146 959.051058660617 26.3999999999998
      vertex 1277.24339744003 960.069876454574 96.4999999999997
      vertex 1269.50470799146 959.051058660617 96.4999999999997
   endloop
endfacet
facet normal 0.382683432365088 -0.923879532511288 0.0
   outer loop
      vertex 1284.45470799146 963.056899087463 96.4999999999997
      vertex 1277.24339744003 960.069876454574 26.3999999999998
      vertex 1284.45470799146 963.056899087463 26.3999999999998
   endloop
endfacet
facet normal 0.382683432365088 -0.923879532511288 0.0
   outer loop
      vertex 1277.24339744003 960.069876454574 26.3999999999998
      vertex 1284.45470799146 963.056899087463 96.4999999999997
      vertex 1277.24339744003 960.069876454574 96.4999999999997
   endloop
endfacet
facet normal 0.608761429008712 -0.793353340291242 0.0
   outer loop
      vertex 1290.64720074894 967.808565903139 96.4999999999997
      vertex 1284.45470799146 963.056899087463 26.3999999999998
      vertex 1290.64720074894 967.808565903139 26.3999999999998
   endloop
endfacet
facet normal 0.608761429008712 -0.793353340291242 0.0
   outer loop
      vertex 1284.45470799146 963.056899087463 26.3999999999998
      vertex 1290.64720074894 967.808565903139 96.4999999999997
      vertex 1284.45470799146 963.056899087463 96.4999999999997
   endloop
endfacet
facet normal 0.793353340291242 -0.608761429008712 0.0
   outer loop
      vertex 1295.39886756462 974.001058660617 26.3999999999998
      vertex 1290.64720074894 967.808565903139 96.4999999999997
      vertex 1290.64720074894 967.808565903139 26.3999999999998
   endloop
endfacet
facet normal 0.793353340291242 -0.608761429008712 0.0
   outer loop
      vertex 1290.64720074894 967.808565903139 96.4999999999997
      vertex 1295.39886756462 974.001058660617 26.3999999999998
      vertex 1295.39886756462 974.001058660617 96.4999999999997
   endloop
endfacet
endsolid piece6
