solid piece7
facet normal -1.0 0.0 0.0
   outer loop
      vertex 507.588753928185 1804.08015014251 801.6
      vertex 507.588753928185 1232.62715014251 318.7
      vertex 507.588753928185 1232.62715014251 801.6
   endloop
endfacet
facet normal -1.0 0.0 0.0
   outer loop
      vertex 507.588753928185 5.82715014251297 801.6
      vertex 507.588753928185 -9.17284985748686 0.0
      vertex 507.588753928185 -9.17284985748686 801.6
   endloop
endfacet
facet normal -1.0 0.0 0.0
   outer loop
      vertex 507.588753928185 -9.17284985748686 0.0
      vertex 507.588753928185 5.82715014251297 801.6
      vertex 507.588753928185 5.82715014251297 318.7
   endloop
endfacet
facet normal -1.0 0.0 0.0
   outer loop
      vertex 507.588753928185 -9.17284985748686 0.0
      vertex 507.588753928185 5.82715014251297 318.7
      vertex 507.588753928185 1804.08015014251 0.0
   endloop
endfacet
facet normal -1.0 0.0 0.0
   outer loop
      vertex 507.588753928185 1804.08015014251 0.0
      vertex 507.588753928185 5.82715014251297 318.7
      vertex 507.588753928185 1232.62715014251 318.7
   endloop
endfacet
facet normal -1.0 0.0 0.0
   outer loop
      vertex 507.588753928185 1804.08015014251 0.0
      vertex 507.588753928185 1232.62715014251 318.7
      vertex 507.588753928185 1804.08015014251 801.6
   endloop
endfacet
facet normal 0.0 0.0 1.0
   outer loop
      vertex 529.833598803851 5.82715014251297 318.7
      vertex 507.588753928185 1232.62715014251 318.7
      vertex 507.588753928185 5.82715014251297 318.7
   endloop
endfacet
facet normal 0.0 0.0 1.0
   outer loop
      vertex 507.588753928185 1232.62715014251 318.7
      vertex 529.833598803851 5.82715014251297 318.7
      vertex 529.833598803851 1232.62715014251 318.7
   endloop
endfacet
facet normal 0.0 -1.0 0.0
   outer loop
      vertex 529.833598803851 1232.62715014251 801.6
      vertex 507.588753928185 1232.62715014251 318.7
      vertex 529.833598803851 1232.62715014251 318.7
   endloop
endfacet
facet normal 0.0 -1.0 0.0
   outer loop
      vertex 507.588753928185 1232.62715014251 318.7
      vertex 529.833598803851 1232.62715014251 801.6
      vertex 507.588753928185 1232.62715014251 801.6
   endloop
endfacet
facet normal 0.0 0.0 1.0
   outer loop
      vertex 529.833598803851 5.82715014251297 26.4
      vertex 667.045371863506 920.505178753409 26.3999999999998
      vertex 529.833598803851 1780.73530526685 26.4
   endloop
endfacet
facet normal 0.0 0.0 1.0
   outer loop
      vertex 667.045371863506 920.505178753409 26.3999999999998
      vertex 529.833598803851 5.82715014251297 26.4
      vertex 679.606907444329 861.871936783726 26.3999999999998
   endloop
endfacet
facet normal 0.0 0.0 1.0
   outer loop
      vertex 679.606907444329 861.871936783726 26.3999999999998
      vertex 529.833598803851 5.82715014251297 26.4
      vertex 706.915818777554 808.487738730204 26.3999999999998
   endloop
endfacet
facet normal 0.0 0.0 1.0
   outer loop
      vertex 706.915818777554 808.487738730204 26.3999999999998
      vertex 529.833598803851 5.82715014251297 26.4
      vertex 747.11104868593 763.990629468631 26.3999999999998
   endloop
endfacet
facet normal 0.0 0.0 1.0
   outer loop
      vertex 747.11104868593 763.990629468631 26.3999999999998
      vertex 529.833598803851 5.82715014251297 26.4
      vertex 797.453358676961 731.413013460233 26.3999999999998
   endloop
endfacet
facet normal 0.0 0.0 1.0
   outer loop
      vertex 797.453358676961 731.413013460233 26.3999999999998
      vertex 529.833598803851 5.82715014251297 26.4
      vertex 2299.69690905252 5.82715014251297 26.4
   endloop
endfacet
facet normal 0.0 0.0 1.0
   outer loop
      vertex 797.453358676961 731.413013460233 26.3999999999998
      vertex 2299.69690905252 5.82715014251297 26.4
      vertex 854.512003519357 712.975001398926 26.3999999999998
   endloop
endfacet
facet normal 0.0 0.0 1.0
   outer loop
      vertex 854.512003519357 712.975001398926 26.3999999999998
      vertex 2299.69690905252 5.82715014251297 26.4
      vertex 914.39853086098 709.933113336435 26.3999999999998
   endloop
endfacet
facet normal 0.0 0.0 1.0
   outer loop
      vertex 914.39853086098 709.933113336435 26.3999999999998
      vertex 2299.69690905252 5.82715014251297 26.4
      vertex 973.031772830662 722.494648917258 26.3999999999998
   endloop
endfacet
facet normal 0.0 0.0 1.0
   outer loop
      vertex 973.031772830662 722.494648917258 26.3999999999998
      vertex 2299.69690905252 5.82715014251297 26.4
      vertex 1026.41597088418 749.803560250482 26.3999999999998
   endloop
endfacet
facet normal 0.0 0.0 1.0
   outer loop
      vertex 1026.41597088418 749.803560250482 26.3999999999998
      vertex 2299.69690905252 5.82715014251297 26.4
      vertex 1070.91308014576 789.998790158858 26.3999999999998
   endloop
endfacet
facet normal 0.0 0.0 1.0
   outer loop
      vertex 1070.91308014576 789.998790158858 26.3999999999998
      vertex 2299.69690905252 5.82715014251297 26.4
      vertex 1103.49069615416 840.341100149889 26.3999999999998
   endloop
endfacet
facet normal 0.0 0.0 1.0
   outer loop
      vertex 1103.49069615416 840.341100149889 26.3999999999998
      vertex 2299.69690905252 5.82715014251297 26.4
      vertex 1121.92870821546 897.399744992286 26.3999999999998
   endloop
endfacet
facet normal 0.0 0.0 1.0
   outer loop
      vertex 1121.92870821546 897.399744992286 26.3999999999998
      vertex 2299.69690905252 5.82715014251297 26.4
      vertex 1124.97059627795 957.286272333908 26.3999999999998
   endloop
endfacet
facet normal 0.0 0.0 1.0
   outer loop
      vertex 529.833598803851 1780.73530526685 26.4
      vertex 1044.90491945553 1113.80082161869 26.3999999999998
      vertex 2299.69690905252 5.82715014251297 26.4
   endloop
endfacet
facet normal 0.0 0.0 1.0
   outer loop
      vertex 1044.90491945553 1113.80082161869 26.3999999999998
      vertex 529.833598803851 1780.73530526685 26.4
      vertex 994.562609464499 1146.37843762708 26.3999999999998
   endloop
endfacet
facet normal 0.0 0.0 1.0
   outer loop
      vertex 994.562609464499 1146.37843762708 26.3999999999998
      vertex 529.833598803851 1780.73530526685 26.4
      vertex 937.503964622103 1164.81644968839 26.3999999999998
   endloop
endfacet
facet normal 0.0 0.0 1.0
   outer loop
      vertex 937.503964622103 1164.81644968839 26.3999999999998
      vertex 529.833598803851 1780.73530526685 26.4
      vertex 877.61743728048 1167.85833775088 26.3999999999998
   endloop
endfacet
facet normal 0.0 0.0 1.0
   outer loop
      vertex 877.61743728048 1167.85833775088 26.3999999999998
      vertex 529.833598803851 1780.73530526685 26.4
      vertex 818.984195310798 1155.29680217006 26.3999999999998
   endloop
endfacet
facet normal 0.0 0.0 1.0
   outer loop
      vertex 818.984195310798 1155.29680217006 26.3999999999998
      vertex 529.833598803851 1780.73530526685 26.4
      vertex 765.599997257276 1127.98789083683 26.3999999999998
   endloop
endfacet
facet normal 0.0 0.0 1.0
   outer loop
      vertex 765.599997257276 1127.98789083683 26.3999999999998
      vertex 529.833598803851 1780.73530526685 26.4
      vertex 721.102887995702 1087.79266092846 26.3999999999998
   endloop
endfacet
facet normal 0.0 0.0 1.0
   outer loop
      vertex 721.102887995702 1087.79266092846 26.3999999999998
      vertex 529.833598803851 1780.73530526685 26.4
      vertex 688.525271987304 1037.45035093743 26.3999999999998
   endloop
endfacet
facet normal 0.0 0.0 1.0
   outer loop
      vertex 688.525271987304 1037.45035093743 26.3999999999998
      vertex 529.833598803851 1780.73530526685 26.4
      vertex 670.087259925998 980.391706095031 26.3999999999998
   endloop
endfacet
facet normal 0.0 0.0 1.0
   outer loop
      vertex 670.087259925998 980.391706095031 26.3999999999998
      vertex 529.833598803851 1780.73530526685 26.4
      vertex 667.045371863506 920.505178753409 26.3999999999998
   endloop
endfacet
facet normal 0.0 0.0 1.0
   outer loop
      vertex 2299.69690905252 5.82715014251297 26.4
      vertex 1044.90491945553 1113.80082161869 26.3999999999998
      vertex 1085.10014936391 1069.30371235711 26.3999999999998
   endloop
endfacet
facet normal 0.0 0.0 1.0
   outer loop
      vertex 2299.69690905252 5.82715014251297 26.4
      vertex 1085.10014936391 1069.30371235711 26.3999999999998
      vertex 1112.40906069713 1015.91951430359 26.3999999999998
   endloop
endfacet
facet normal 0.0 0.0 1.0
   outer loop
      vertex 2299.69690905252 5.82715014251297 26.4
      vertex 1112.40906069713 1015.91951430359 26.3999999999998
      vertex 1124.97059627795 957.286272333908 26.3999999999998
   endloop
endfacet
facet normal 1.0 0.0 0.0
   outer loop
      vertex 529.833598803851 1780.73530526685 26.4
      vertex 529.833598803851 5.82715014251297 318.7
      vertex 529.833598803851 5.82715014251297 26.4
   endloop
endfacet
facet normal 1.0 0.0 0.0
   outer loop
      vertex 529.833598803851 5.82715014251297 318.7
      vertex 529.833598803851 1780.73530526685 26.4
      vertex 529.833598803851 1232.62715014251 318.7
   endloop
endfacet
facet normal 1.0 0.0 0.0
   outer loop
      vertex 529.833598803851 1232.62715014251 318.7
      vertex 529.833598803851 1780.73530526685 26.4
      vertex 529.833598803851 1232.62715014251 801.6
   endloop
endfacet
facet normal 1.0 0.0 0.0
   outer loop
      vertex 529.833598803851 1232.62715014251 801.6
      vertex 529.833598803851 1780.73530526685 26.4
      vertex 529.833598803851 1780.73530526685 801.6
   endloop
endfacet
facet normal 0.0 -1.0 0.0
   outer loop
      vertex 2320.84175392819 -9.17284985748686 801.6
      vertex 507.588753928185 -9.17284985748686 0.0
      vertex 2320.84175392819 -9.17284985748686 0.0
   endloop
endfacet
facet normal 0.0 -1.0 0.0
   outer loop
      vertex 507.588753928185 -9.17284985748686 0.0
      vertex 2320.84175392819 -9.17284985748686 801.6
      vertex 507.588753928185 -9.17284985748686 801.6
   endloop
endfacet
facet normal 0.0 1.0 0.0
   outer loop
      vertex 507.588753928185 5.82715014251297 801.6
      vertex 529.833598803851 5.82715014251297 318.7
      vertex 507.588753928185 5.82715014251297 318.7
   endloop
endfacet
facet normal 0.0 1.0 0.0
   outer loop
      vertex 529.833598803851 5.82715014251297 318.7
      vertex 2299.69690905252 5.82715014251297 26.4
      vertex 529.833598803851 5.82715014251297 26.4
   endloop
endfacet
facet normal 0.0 1.0 0.0
   outer loop
      vertex 2299.69690905252 5.82715014251297 26.4
      vertex 529.833598803851 5.82715014251297 318.7
      vertex 2299.69690905252 5.82715014251297 801.6
   endloop
endfacet
facet normal 0.0 1.0 0.0
   outer loop
      vertex 2299.69690905252 5.82715014251297 801.6
      vertex 529.833598803851 5.82715014251297 318.7
      vertex 507.588753928185 5.82715014251297 801.6
   endloop
endfacet
facet normal 0.0 0.0 1.0
   outer loop
      vertex 2320.84175392819 -9.17284985748686 801.6
      vertex 507.588753928185 5.82715014251297 801.6
      vertex 507.588753928185 -9.17284985748686 801.6
   endloop
endfacet
facet normal 0.0 0.0 1.0
   outer loop
      vertex 507.588753928185 5.82715014251297 801.6
      vertex 2320.84175392819 -9.17284985748686 801.6
      vertex 2299.69690905252 5.82715014251297 801.6
   endloop
endfacet
facet normal 0.0 0.0 1.0
   outer loop
      vertex 2299.69690905252 5.82715014251297 801.6
      vertex 2320.84175392819 -9.17284985748686 801.6
      vertex 2320.84175392819 5.82715014251297 801.6
   endloop
endfacet
facet normal 1.88062785569825e-017 2.38517115537712e-018 1.0
   outer loop
      vertex 529.833598803851 1232.62715014251 801.6
      vertex 507.588753928185 1804.08015014251 801.6
      vertex 507.588753928185 1232.62715014251 801.6
   endloop
endfacet
facet normal 1.88062785569825e-017 2.38517115537712e-018 1.0
   outer loop
      vertex 507.588753928185 1804.08015014251 801.6
      vertex 529.833598803851 1232.62715014251 801.6
      vertex 526.513207704973 1804.08015014251 801.6
   endloop
endfacet
facet normal 1.88062785569825e-017 2.38517115537712e-018 1.0
   outer loop
      vertex 526.513207704973 1804.08015014251 801.6
      vertex 529.833598803851 1232.62715014251 801.6
      vertex 529.833598803851 1780.73530526685 801.6
   endloop
endfacet
facet normal 1.88062785569825e-017 2.38517115537712e-018 1.0
   outer loop
      vertex 526.513207704973 1804.08015014251 801.6
      vertex 529.833598803851 1780.73530526685 801.6
      vertex 2299.69690905252 30.8964487949683 801.6
   endloop
endfacet
facet normal 1.88062785569825e-017 2.38517115537712e-018 1.0
   outer loop
      vertex 2299.69690905252 30.8964487949683 801.6
      vertex 529.833598803851 1780.73530526685 801.6
      vertex 2299.69690905252 5.82715014251297 801.6
   endloop
endfacet
facet normal 1.88062785569825e-017 2.38517115537712e-018 1.0
   outer loop
      vertex 2299.69690905252 30.8964487949683 801.6
      vertex 2299.69690905252 5.82715014251297 801.6
      vertex 2320.84175392819 5.82715014251297 801.6
   endloop
endfacet
facet normal 0.0 1.0 0.0
   outer loop
      vertex 507.588753928185 1804.08015014251 801.6
      vertex 526.513207704973 1804.08015014251 0.0
      vertex 507.588753928185 1804.08015014251 0.0
   endloop
endfacet
facet normal 0.0 1.0 0.0
   outer loop
      vertex 526.513207704973 1804.08015014251 0.0
      vertex 507.588753928185 1804.08015014251 801.6
      vertex 526.513207704973 1804.08015014251 801.6
   endloop
endfacet
facet normal 0.0 0.0 -1.0
   outer loop
      vertex 526.513207704973 1804.08015014251 0.0
      vertex 743.017115774016 1027.22504453832 -2.8199664825479e-015
      vertex 725.36884319979 984.618345537167 -2.8199664825479e-015
   endloop
endfacet
facet normal 0.0 0.0 -1.0
   outer loop
      vertex 743.017115774016 1027.22504453832 -2.8199664825479e-015
      vertex 526.513207704973 1804.08015014251 0.0
      vertex 771.091463193299 1063.81224642109 -2.8199664825479e-015
   endloop
endfacet
facet normal 0.0 0.0 -1.0
   outer loop
      vertex 771.091463193299 1063.81224642109 -2.8199664825479e-015
      vertex 526.513207704973 1804.08015014251 0.0
      vertex 807.678665076068 1091.88659384037 -2.8199664825479e-015
   endloop
endfacet
facet normal 0.0 0.0 -1.0
   outer loop
      vertex 807.678665076068 1091.88659384037 -2.8199664825479e-015
      vertex 526.513207704973 1804.08015014251 0.0
      vertex 850.285364077221 1109.5348664146 -2.8199664825479e-015
   endloop
endfacet
facet normal 0.0 0.0 -1.0
   outer loop
      vertex 850.285364077221 1109.5348664146 -2.8199664825479e-015
      vertex 526.513207704973 1804.08015014251 0.0
      vertex 941.730604064239 1109.5348664146 2.25597318603832e-014
   endloop
endfacet
facet normal 0.0 0.0 -1.0
   outer loop
      vertex 941.730604064239 1109.5348664146 2.25597318603832e-014
      vertex 526.513207704973 1804.08015014251 0.0
      vertex 984.337303065392 1091.88659384037 2.25597318603832e-014
   endloop
endfacet
facet normal 0.0 0.0 -1.0
   outer loop
      vertex 984.337303065392 1091.88659384037 2.25597318603832e-014
      vertex 526.513207704973 1804.08015014251 0.0
      vertex 1020.92450494816 1063.81224642109 2.25597318603832e-014
   endloop
endfacet
facet normal 0.0 0.0 -1.0
   outer loop
      vertex 1020.92450494816 1063.81224642109 2.25597318603832e-014
      vertex 526.513207704973 1804.08015014251 0.0
      vertex 2299.69690905252 30.8964487949683 0.0
   endloop
endfacet
facet normal 0.0 0.0 -1.0
   outer loop
      vertex 850.285364077221 1109.5348664146 -2.8199664825479e-015
      vertex 941.730604064239 1109.5348664146 2.25597318603832e-014
      vertex 850.285364077221 984.618345537167 -2.8199664825479e-015
   endloop
endfacet
facet normal 0.0 0.0 -1.0
   outer loop
      vertex 850.285364077221 984.618345537167 -2.8199664825479e-015
      vertex 941.730604064239 1109.5348664146 2.25597318603832e-014
      vertex 850.285364077221 893.173105550149 -4.51194637207664e-014
   endloop
endfacet
facet normal 0.0 0.0 -1.0
   outer loop
      vertex 850.285364077221 893.173105550149 -4.51194637207664e-014
      vertex 941.730604064239 1109.5348664146 2.25597318603832e-014
      vertex 850.285364077221 768.256584672719 -4.51194637207664e-014
   endloop
endfacet
facet normal 0.0 0.0 -1.0
   outer loop
      vertex 1020.92450494816 1063.81224642109 2.25597318603832e-014
      vertex 2299.69690905252 30.8964487949683 0.0
      vertex 1048.99885236744 1027.22504453832 2.25597318603832e-014
   endloop
endfacet
facet normal 0.0 0.0 -1.0
   outer loop
      vertex 1048.99885236744 1027.22504453832 2.25597318603832e-014
      vertex 2299.69690905252 30.8964487949683 0.0
      vertex 1066.64712494167 984.618345537167 2.25597318603832e-014
   endloop
endfacet
facet normal 0.0 0.0 -1.0
   outer loop
      vertex 1066.64712494167 984.618345537167 2.25597318603832e-014
      vertex 2299.69690905252 30.8964487949683 0.0
      vertex 1066.64712494167 893.173105550149 2.25597318603832e-014
   endloop
endfacet
facet normal 0.0 0.0 -1.0
   outer loop
      vertex 526.513207704973 1804.08015014251 0.0
      vertex 507.588753928185 -9.17284985748686 0.0
      vertex 507.588753928185 1804.08015014251 0.0
   endloop
endfacet
facet normal 0.0 0.0 -1.0
   outer loop
      vertex 507.588753928185 -9.17284985748686 0.0
      vertex 526.513207704973 1804.08015014251 0.0
      vertex 725.36884319979 893.173105550149 -4.51194637207664e-014
   endloop
endfacet
facet normal 0.0 0.0 -1.0
   outer loop
      vertex 507.588753928185 -9.17284985748686 0.0
      vertex 725.36884319979 893.173105550149 -4.51194637207664e-014
      vertex 743.017115774016 850.566406548996 -4.51194637207664e-014
   endloop
endfacet
facet normal 0.0 0.0 -1.0
   outer loop
      vertex 507.588753928185 -9.17284985748686 0.0
      vertex 743.017115774016 850.566406548996 -4.51194637207664e-014
      vertex 771.091463193299 813.979204666227 -4.51194637207664e-014
   endloop
endfacet
facet normal 0.0 0.0 -1.0
   outer loop
      vertex 507.588753928185 -9.17284985748686 0.0
      vertex 771.091463193299 813.979204666227 -4.51194637207664e-014
      vertex 807.678665076068 785.904857246944 -4.51194637207664e-014
   endloop
endfacet
facet normal 0.0 0.0 -1.0
   outer loop
      vertex 507.588753928185 -9.17284985748686 0.0
      vertex 807.678665076068 785.904857246944 -4.51194637207664e-014
      vertex 2320.84175392819 -9.17284985748686 0.0
   endloop
endfacet
facet normal 0.0 0.0 -1.0
   outer loop
      vertex 725.36884319979 893.173105550149 -4.51194637207664e-014
      vertex 526.513207704973 1804.08015014251 0.0
      vertex 725.36884319979 984.618345537167 -2.8199664825479e-015
   endloop
endfacet
facet normal 0.0 0.0 -1.0
   outer loop
      vertex 2320.84175392819 -9.17284985748686 0.0
      vertex 807.678665076068 785.904857246944 -4.51194637207664e-014
      vertex 850.285364077221 768.256584672719 -4.51194637207664e-014
   endloop
endfacet
facet normal 0.0 0.0 -1.0
   outer loop
      vertex 2320.84175392819 -9.17284985748686 0.0
      vertex 850.285364077221 768.256584672719 -4.51194637207664e-014
      vertex 941.730604064239 768.256584672719 2.25597318603832e-014
   endloop
endfacet
facet normal 0.0 0.0 -1.0
   outer loop
      vertex 941.730604064239 768.256584672719 2.25597318603832e-014
      vertex 850.285364077221 768.256584672719 -4.51194637207664e-014
      vertex 941.730604064239 984.618345537167 2.25597318603832e-014
   endloop
endfacet
facet normal 0.0 0.0 -1.0
   outer loop
      vertex 941.730604064239 984.618345537167 2.25597318603832e-014
      vertex 850.285364077221 768.256584672719 -4.51194637207664e-014
      vertex 941.730604064239 1109.5348664146 2.25597318603832e-014
   endloop
endfacet
facet normal 0.0 0.0 -1.0
   outer loop
      vertex 941.730604064239 768.256584672719 2.25597318603832e-014
      vertex 941.730604064239 984.618345537167 2.25597318603832e-014
      vertex 941.730604064239 893.173105550149 2.25597318603832e-014
   endloop
endfacet
facet normal 0.0 0.0 -1.0
   outer loop
      vertex 2320.84175392819 -9.17284985748686 0.0
      vertex 941.730604064239 768.256584672719 2.25597318603832e-014
      vertex 984.337303065392 785.904857246945 2.25597318603832e-014
   endloop
endfacet
facet normal 0.0 0.0 -1.0
   outer loop
      vertex 2320.84175392819 -9.17284985748686 0.0
      vertex 984.337303065392 785.904857246945 2.25597318603832e-014
      vertex 1020.92450494816 813.979204666227 2.25597318603832e-014
   endloop
endfacet
facet normal 0.0 0.0 -1.0
   outer loop
      vertex 2320.84175392819 -9.17284985748686 0.0
      vertex 1020.92450494816 813.979204666227 2.25597318603832e-014
      vertex 1048.99885236744 850.566406548996 2.25597318603832e-014
   endloop
endfacet
facet normal 0.0 0.0 -1.0
   outer loop
      vertex 2320.84175392819 -9.17284985748686 0.0
      vertex 1048.99885236744 850.566406548996 2.25597318603832e-014
      vertex 1066.64712494167 893.173105550149 2.25597318603832e-014
   endloop
endfacet
facet normal 0.0 0.0 -1.0
   outer loop
      vertex 2320.84175392819 -9.17284985748686 0.0
      vertex 1066.64712494167 893.173105550149 2.25597318603832e-014
      vertex 2299.69690905252 30.8964487949683 0.0
   endloop
endfacet
facet normal 0.0 0.0 -1.0
   outer loop
      vertex 2320.84175392819 -9.17284985748686 0.0
      vertex 2299.69690905252 30.8964487949683 0.0
      vertex 2320.84175392819 5.82715014251297 0.0
   endloop
endfacet
facet normal 0.0 0.0 -1.0
   outer loop
      vertex 1066.64712494167 984.618345537167 2.25597318603832e-014
      vertex 941.730604064239 893.173105550149 2.25597318603832e-014
      vertex 941.730604064239 984.618345537167 2.25597318603832e-014
   endloop
endfacet
facet normal 0.0 0.0 -1.0
   outer loop
      vertex 941.730604064239 893.173105550149 2.25597318603832e-014
      vertex 1066.64712494167 984.618345537167 2.25597318603832e-014
      vertex 1066.64712494167 893.173105550149 2.25597318603832e-014
   endloop
endfacet
facet normal 0.0 0.0 -1.0
   outer loop
      vertex 850.285364077221 984.618345537167 -2.8199664825479e-015
      vertex 725.36884319979 893.173105550149 -4.51194637207664e-014
      vertex 725.36884319979 984.618345537167 -2.8199664825479e-015
   endloop
endfacet
facet normal 0.0 0.0 -1.0
   outer loop
      vertex 725.36884319979 893.173105550149 -4.51194637207664e-014
      vertex 850.285364077221 984.618345537167 -2.8199664825479e-015
      vertex 850.285364077221 893.173105550149 -4.51194637207664e-014
   endloop
endfacet
facet normal 0.764402319343856 0.644739555310308 -2.51068010631568e-016
   outer loop
      vertex 2299.69690905252 30.8964487949683 0.0
      vertex 2320.84175392819 5.82715014251297 801.6
      vertex 2320.84175392819 5.82715014251297 0.0
   endloop
endfacet
facet normal 0.764402319343856 0.644739555310308 -2.51068010631568e-016
   outer loop
      vertex 2320.84175392819 5.82715014251297 801.6
      vertex 2299.69690905252 30.8964487949683 0.0
      vertex 2299.69690905252 30.8964487949683 801.6
   endloop
endfacet
facet normal 1.0 2.97793231126983e-020 0.0
   outer loop
      vertex 2320.84175392819 5.82715014251297 0.0
      vertex 2320.84175392819 -9.17284985748686 801.6
      vertex 2320.84175392819 -9.17284985748686 0.0
   endloop
endfacet
facet normal 1.0 2.97793231126983e-020 0.0
   outer loop
      vertex 2320.84175392819 -9.17284985748686 801.6
      vertex 2320.84175392819 5.82715014251297 0.0
      vertex 2320.84175392819 5.82715014251297 801.6
   endloop
endfacet
facet normal -0.180652941015989 -0.983546905288341 0.0
   outer loop
      vertex 854.512003519357 712.975001398926 42.3999999999998
      vertex 797.453358676961 731.413013460233 26.3999999999998
      vertex 854.512003519357 712.975001398926 26.3999999999998
   endloop
endfacet
facet normal -0.180652941015989 -0.983546905288341 0.0
   outer loop
      vertex 797.453358676961 731.413013460233 26.3999999999998
      vertex 854.512003519357 712.975001398926 42.3999999999998
      vertex 797.453358676961 731.413013460233 42.3999999999998
   endloop
endfacet
facet normal -0.0800633295178492 0.996789778873417 0.0
   outer loop
      vertex 877.61743728048 1167.85833775088 42.3999999999998
      vertex 937.503964622103 1164.81644968839 26.3999999999998
      vertex 877.61743728048 1167.85833775088 26.3999999999998
   endloop
endfacet
facet normal -0.0800633295178492 0.996789778873417 0.0
   outer loop
      vertex 937.503964622103 1164.81644968839 26.3999999999998
      vertex 877.61743728048 1167.85833775088 42.3999999999998
      vertex 937.503964622103 1164.81644968839 42.3999999999998
   endloop
endfacet
facet normal 0.180652941015989 0.983546905288341 0.0
   outer loop
      vertex 937.503964622103 1164.81644968839 42.3999999999998
      vertex 994.562609464499 1146.37843762708 26.3999999999998
      vertex 937.503964622103 1164.81644968839 26.3999999999998
   endloop
endfacet
facet normal 0.180652941015989 0.983546905288341 0.0
   outer loop
      vertex 994.562609464499 1146.37843762708 26.3999999999998
      vertex 937.503964622103 1164.81644968839 42.3999999999998
      vertex 994.562609464499 1146.37843762708 42.3999999999998
   endloop
endfacet
facet normal 0.429058012162689 0.903276935495976 0.0
   outer loop
      vertex 994.562609464499 1146.37843762708 42.3999999999998
      vertex 1044.90491945553 1113.80082161869 26.3999999999998
      vertex 994.562609464499 1146.37843762708 26.3999999999998
   endloop
endfacet
facet normal 0.429058012162689 0.903276935495976 0.0
   outer loop
      vertex 1044.90491945553 1113.80082161869 26.3999999999998
      vertex 994.562609464499 1146.37843762708 42.3999999999998
      vertex 1044.90491945553 1113.80082161869 42.3999999999998
   endloop
endfacet
facet normal 0.64822348883239 0.761450135285276 0.0
   outer loop
      vertex 1044.90491945553 1113.80082161869 26.3999999999998
      vertex 1085.10014936391 1069.30371235711 42.3999999999998
      vertex 1085.10014936391 1069.30371235711 26.3999999999998
   endloop
endfacet
facet normal 0.64822348883239 0.761450135285276 0.0
   outer loop
      vertex 1085.10014936391 1069.30371235711 42.3999999999998
      vertex 1044.90491945553 1113.80082161869 26.3999999999998
      vertex 1044.90491945553 1113.80082161869 42.3999999999998
   endloop
endfacet
facet normal 0.823213605978129 0.56773176671073 0.0
   outer loop
      vertex 1085.10014936391 1069.30371235711 26.3999999999998
      vertex 1112.40906069713 1015.91951430359 42.3999999999998
      vertex 1112.40906069713 1015.91951430359 26.3999999999998
   endloop
endfacet
facet normal 0.823213605978129 0.56773176671073 0.0
   outer loop
      vertex 1112.40906069713 1015.91951430359 42.3999999999998
      vertex 1085.10014936391 1069.30371235711 26.3999999999998
      vertex 1085.10014936391 1069.30371235711 42.3999999999998
   endloop
endfacet
facet normal 0.942103076301266 0.335323416455953 0.0
   outer loop
      vertex 1112.40906069713 1015.91951430359 26.3999999999998
      vertex 1124.97059627795 957.286272333908 42.3999999999998
      vertex 1124.97059627795 957.286272333908 26.3999999999998
   endloop
endfacet
facet normal 0.942103076301266 0.335323416455953 0.0
   outer loop
      vertex 1124.97059627795 957.286272333908 42.3999999999998
      vertex 1112.40906069713 1015.91951430359 26.3999999999998
      vertex 1112.40906069713 1015.91951430359 42.3999999999998
   endloop
endfacet
facet normal 0.996789778873417 0.0800633295178492 0.0
   outer loop
      vertex 1124.97059627795 957.286272333908 26.3999999999998
      vertex 1121.92870821546 897.399744992286 42.3999999999998
      vertex 1121.92870821546 897.399744992286 26.3999999999998
   endloop
endfacet
facet normal 0.996789778873417 0.0800633295178492 0.0
   outer loop
      vertex 1121.92870821546 897.399744992286 42.3999999999998
      vertex 1124.97059627795 957.286272333908 26.3999999999998
      vertex 1124.97059627795 957.286272333908 42.3999999999998
   endloop
endfacet
facet normal -0.707106781186548 -0.707106781186547 0.0
   outer loop
      vertex 1020.92450494816 1063.81224642109 42.3999999999998
      vertex 984.337303065392 1091.88659384037 2.25597318603832e-014
      vertex 1020.92450494816 1063.81224642109 2.25597318603832e-014
   endloop
endfacet
facet normal -0.707106781186548 -0.707106781186547 0.0
   outer loop
      vertex 984.337303065392 1091.88659384037 2.25597318603832e-014
      vertex 1020.92450494816 1063.81224642109 42.3999999999998
      vertex 984.337303065392 1091.88659384037 42.3999999999998
   endloop
endfacet
facet normal 0.38268343236509 -0.923879532511287 0.0
   outer loop
      vertex 850.285364077221 1109.5348664146 42.3999999999998
      vertex 807.678665076068 1091.88659384037 -2.8199664825479e-015
      vertex 850.285364077221 1109.5348664146 -2.8199664825479e-015
   endloop
endfacet
facet normal 0.38268343236509 -0.923879532511287 0.0
   outer loop
      vertex 807.678665076068 1091.88659384037 -2.8199664825479e-015
      vertex 850.285364077221 1109.5348664146 42.3999999999998
      vertex 807.678665076068 1091.88659384037 42.3999999999998
   endloop
endfacet
facet normal 0.983546905288342 -0.180652941015989 0.0
   outer loop
      vertex 1121.92870821546 897.399744992286 26.3999999999998
      vertex 1103.49069615416 840.341100149889 42.3999999999998
      vertex 1103.49069615416 840.341100149889 26.3999999999998
   endloop
endfacet
facet normal 0.983546905288342 -0.180652941015989 0.0
   outer loop
      vertex 1103.49069615416 840.341100149889 42.3999999999998
      vertex 1121.92870821546 897.399744992286 26.3999999999998
      vertex 1121.92870821546 897.399744992286 42.3999999999998
   endloop
endfacet
facet normal -1.44478771595113e-015 1.0 0.0
   outer loop
      vertex 725.36884319979 984.618345537167 42.3999999999998
      vertex 850.285364077221 984.618345537167 -2.8199664825479e-015
      vertex 725.36884319979 984.618345537167 -2.8199664825479e-015
   endloop
endfacet
facet normal -1.44478771595113e-015 1.0 0.0
   outer loop
      vertex 850.285364077221 984.618345537167 -2.8199664825479e-015
      vertex 725.36884319979 984.618345537167 42.3999999999998
      vertex 850.285364077221 984.618345537167 42.3999999999998
   endloop
endfacet
facet normal 0.866025403784439 -0.499999999999999 0.0
   outer loop
      vertex 743.017115774016 1027.22504453832 -2.8199664825479e-015
      vertex 725.36884319979 984.618345537167 42.3999999999998
      vertex 725.36884319979 984.618345537167 -2.8199664825479e-015
   endloop
endfacet
facet normal 0.866025403784439 -0.499999999999999 0.0
   outer loop
      vertex 725.36884319979 984.618345537167 42.3999999999998
      vertex 743.017115774016 1027.22504453832 -2.8199664825479e-015
      vertex 743.017115774016 1027.22504453832 42.3999999999998
   endloop
endfacet
facet normal -0.866025403784439 -0.499999999999999 0.0
   outer loop
      vertex 1048.99885236744 1027.22504453832 42.3999999999998
      vertex 1066.64712494167 984.618345537167 2.25597318603832e-014
      vertex 1066.64712494167 984.618345537167 42.3999999999998
   endloop
endfacet
facet normal -0.866025403784439 -0.499999999999999 0.0
   outer loop
      vertex 1066.64712494167 984.618345537167 2.25597318603832e-014
      vertex 1048.99885236744 1027.22504453832 42.3999999999998
      vertex 1048.99885236744 1027.22504453832 2.25597318603832e-014
   endloop
endfacet
facet normal 0.707106781186548 0.707106781186547 0.0
   outer loop
      vertex 771.091463193299 813.979204666227 42.3999999999998
      vertex 807.678665076068 785.904857246944 -4.51194637207664e-014
      vertex 771.091463193299 813.979204666227 -4.51194637207664e-014
   endloop
endfacet
facet normal 0.707106781186548 0.707106781186547 0.0
   outer loop
      vertex 807.678665076068 785.904857246944 -4.51194637207664e-014
      vertex 771.091463193299 813.979204666227 42.3999999999998
      vertex 807.678665076068 785.904857246944 42.3999999999998
   endloop
endfacet
facet normal -0.38268343236509 0.923879532511287 0.0
   outer loop
      vertex 941.730604064239 768.256584672719 42.3999999999998
      vertex 984.337303065392 785.904857246945 2.25597318603832e-014
      vertex 941.730604064239 768.256584672719 2.25597318603832e-014
   endloop
endfacet
facet normal -0.38268343236509 0.923879532511287 0.0
   outer loop
      vertex 984.337303065392 785.904857246945 2.25597318603832e-014
      vertex 941.730604064239 768.256584672719 42.3999999999998
      vertex 984.337303065392 785.904857246945 42.3999999999998
   endloop
endfacet
facet normal -0.0 -1.0 -0.0
   outer loop
      vertex 1066.64712494167 893.173105550149 42.3999999999998
      vertex 941.730604064239 893.173105550149 2.25597318603832e-014
      vertex 1066.64712494167 893.173105550149 2.25597318603832e-014
   endloop
endfacet
facet normal -0.0 -1.0 -0.0
   outer loop
      vertex 941.730604064239 893.173105550149 2.25597318603832e-014
      vertex 1066.64712494167 893.173105550149 42.3999999999998
      vertex 941.730604064239 893.173105550149 42.3999999999998
   endloop
endfacet
facet normal -0.996789778873417 -0.0800633295178481 0.0
   outer loop
      vertex 667.045371863506 920.505178753409 42.3999999999998
      vertex 679.606907444329 861.871936783726 26.3999999999998
      vertex 679.606907444329 861.871936783726 42.3999999999998
   endloop
endfacet
facet normal -0.996789778873417 -0.0800633295178481 0.0
   outer loop
      vertex 679.606907444329 861.871936783726 26.3999999999998
      vertex 667.045371863506 920.505178753409 42.3999999999998
      vertex 667.045371863506 920.505178753409 26.3999999999998
   endloop
endfacet
facet normal -0.866025403784439 0.499999999999999 0.0
   outer loop
      vertex 1048.99885236744 850.566406548996 42.3999999999998
      vertex 1020.92450494816 813.979204666227 2.25597318603832e-014
      vertex 1020.92450494816 813.979204666227 42.3999999999998
   endloop
endfacet
facet normal -0.866025403784439 0.499999999999999 0.0
   outer loop
      vertex 1020.92450494816 813.979204666227 2.25597318603832e-014
      vertex 1048.99885236744 850.566406548996 42.3999999999998
      vertex 1048.99885236744 850.566406548996 2.25597318603832e-014
   endloop
endfacet
facet normal 0.5 0.866025403784439 0.0
   outer loop
      vertex 807.678665076068 785.904857246944 42.3999999999998
      vertex 850.285364077221 768.256584672719 -4.51194637207664e-014
      vertex 807.678665076068 785.904857246944 -4.51194637207664e-014
   endloop
endfacet
facet normal 0.5 0.866025403784439 0.0
   outer loop
      vertex 850.285364077221 768.256584672719 -4.51194637207664e-014
      vertex 807.678665076068 785.904857246944 42.3999999999998
      vertex 850.285364077221 768.256584672719 42.3999999999998
   endloop
endfacet
facet normal 0.499999999999999 -0.866025403784439 0.0
   outer loop
      vertex 807.678665076068 1091.88659384037 42.3999999999998
      vertex 771.091463193299 1063.81224642109 -2.8199664825479e-015
      vertex 807.678665076068 1091.88659384037 -2.8199664825479e-015
   endloop
endfacet
facet normal 0.499999999999999 -0.866025403784439 0.0
   outer loop
      vertex 771.091463193299 1063.81224642109 -2.8199664825479e-015
      vertex 807.678665076068 1091.88659384037 42.3999999999998
      vertex 771.091463193299 1063.81224642109 42.3999999999998
   endloop
endfacet
facet normal -0.761450135285276 0.648223488832389 0.0
   outer loop
      vertex 721.102887995702 1087.79266092846 42.3999999999998
      vertex 765.599997257276 1127.98789083683 26.3999999999998
      vertex 721.102887995702 1087.79266092846 26.3999999999998
   endloop
endfacet
facet normal -0.761450135285276 0.648223488832389 0.0
   outer loop
      vertex 765.599997257276 1127.98789083683 26.3999999999998
      vertex 721.102887995702 1087.79266092846 42.3999999999998
      vertex 765.599997257276 1127.98789083683 42.3999999999998
   endloop
endfacet
facet normal -0.0 -1.0 -0.0
   outer loop
      vertex 850.285364077221 893.173105550149 42.3999999999998
      vertex 725.36884319979 893.173105550149 -4.51194637207664e-014
      vertex 850.285364077221 893.173105550149 -4.51194637207664e-014
   endloop
endfacet
facet normal -0.0 -1.0 -0.0
   outer loop
      vertex 725.36884319979 893.173105550149 -4.51194637207664e-014
      vertex 850.285364077221 893.173105550149 42.3999999999998
      vertex 725.36884319979 893.173105550149 42.3999999999998
   endloop
endfacet
facet normal -1.0 0.0 0.0
   outer loop
      vertex 850.285364077221 893.173105550149 42.3999999999998
      vertex 850.285364077221 768.256584672719 -4.51194637207664e-014
      vertex 850.285364077221 768.256584672719 42.3999999999998
   endloop
endfacet
facet normal -1.0 0.0 0.0
   outer loop
      vertex 850.285364077221 768.256584672719 -4.51194637207664e-014
      vertex 850.285364077221 893.173105550149 42.3999999999998
      vertex 850.285364077221 893.173105550149 -4.51194637207664e-014
   endloop
endfacet
facet normal 0.707106781186547 -0.707106781186548 0.0
   outer loop
      vertex 771.091463193299 1063.81224642109 -2.8199664825479e-015
      vertex 743.017115774016 1027.22504453832 42.3999999999998
      vertex 743.017115774016 1027.22504453832 -2.8199664825479e-015
   endloop
endfacet
facet normal 0.707106781186547 -0.707106781186548 0.0
   outer loop
      vertex 743.017115774016 1027.22504453832 42.3999999999998
      vertex 771.091463193299 1063.81224642109 -2.8199664825479e-015
      vertex 771.091463193299 1063.81224642109 42.3999999999998
   endloop
endfacet
facet normal -1.0 0.0 0.0
   outer loop
      vertex 850.285364077221 1109.5348664146 42.3999999999998
      vertex 850.285364077221 984.618345537167 -2.8199664825479e-015
      vertex 850.285364077221 984.618345537167 42.3999999999998
   endloop
endfacet
facet normal -1.0 0.0 0.0
   outer loop
      vertex 850.285364077221 984.618345537167 -2.8199664825479e-015
      vertex 850.285364077221 1109.5348664146 42.3999999999998
      vertex 850.285364077221 1109.5348664146 -2.8199664825479e-015
   endloop
endfacet
facet normal -0.429058012162688 -0.903276935495977 0.0
   outer loop
      vertex 797.453358676961 731.413013460233 42.3999999999998
      vertex 747.11104868593 763.990629468631 26.3999999999998
      vertex 797.453358676961 731.413013460233 26.3999999999998
   endloop
endfacet
facet normal -0.429058012162688 -0.903276935495977 0.0
   outer loop
      vertex 747.11104868593 763.990629468631 26.3999999999998
      vertex 797.453358676961 731.413013460233 42.3999999999998
      vertex 747.11104868593 763.990629468631 42.3999999999998
   endloop
endfacet
facet normal 1.0 0.0 0.0
   outer loop
      vertex 941.730604064239 893.173105550149 2.25597318603832e-014
      vertex 941.730604064239 768.256584672719 42.3999999999998
      vertex 941.730604064239 768.256584672719 2.25597318603832e-014
   endloop
endfacet
facet normal 1.0 0.0 0.0
   outer loop
      vertex 941.730604064239 768.256584672719 42.3999999999998
      vertex 941.730604064239 893.173105550149 2.25597318603832e-014
      vertex 941.730604064239 893.173105550149 42.3999999999998
   endloop
endfacet
facet normal -0.923879532511287 0.382683432365088 0.0
   outer loop
      vertex 1066.64712494167 893.173105550149 42.3999999999998
      vertex 1048.99885236744 850.566406548996 2.25597318603832e-014
      vertex 1048.99885236744 850.566406548996 42.3999999999998
   endloop
endfacet
facet normal -0.923879532511287 0.382683432365088 0.0
   outer loop
      vertex 1048.99885236744 850.566406548996 2.25597318603832e-014
      vertex 1066.64712494167 893.173105550149 42.3999999999998
      vertex 1066.64712494167 893.173105550149 2.25597318603832e-014
   endloop
endfacet
facet normal -0.707106781186548 -0.707106781186547 0.0
   outer loop
      vertex 1020.92450494816 1063.81224642109 42.3999999999998
      vertex 1048.99885236744 1027.22504453832 2.25597318603832e-014
      vertex 1048.99885236744 1027.22504453832 42.3999999999998
   endloop
endfacet
facet normal -0.707106781186548 -0.707106781186547 0.0
   outer loop
      vertex 1048.99885236744 1027.22504453832 2.25597318603832e-014
      vertex 1020.92450494816 1063.81224642109 42.3999999999998
      vertex 1020.92450494816 1063.81224642109 2.25597318603832e-014
   endloop
endfacet
facet normal 0.0 0.0 1.0
   outer loop
      vertex 721.102887995702 1087.79266092846 42.3999999999998
      vertex 725.36884319979 984.618345537167 42.3999999999998
      vertex 765.599997257276 1127.98789083683 42.3999999999998
   endloop
endfacet
facet normal 0.0 0.0 1.0
   outer loop
      vertex 725.36884319979 984.618345537167 42.3999999999998
      vertex 721.102887995702 1087.79266092846 42.3999999999998
      vertex 725.36884319979 893.173105550149 42.3999999999998
   endloop
endfacet
facet normal 0.0 0.0 1.0
   outer loop
      vertex 765.599997257276 1127.98789083683 42.3999999999998
      vertex 725.36884319979 984.618345537167 42.3999999999998
      vertex 743.017115774016 1027.22504453832 42.3999999999998
   endloop
endfacet
facet normal 0.0 0.0 1.0
   outer loop
      vertex 765.599997257276 1127.98789083683 42.3999999999998
      vertex 743.017115774016 1027.22504453832 42.3999999999998
      vertex 771.091463193299 1063.81224642109 42.3999999999998
   endloop
endfacet
facet normal 0.0 0.0 1.0
   outer loop
      vertex 765.599997257276 1127.98789083683 42.3999999999998
      vertex 771.091463193299 1063.81224642109 42.3999999999998
      vertex 818.984195310798 1155.29680217006 42.3999999999998
   endloop
endfacet
facet normal 0.0 0.0 1.0
   outer loop
      vertex 818.984195310798 1155.29680217006 42.3999999999998
      vertex 771.091463193299 1063.81224642109 42.3999999999998
      vertex 807.678665076068 1091.88659384037 42.3999999999998
   endloop
endfacet
facet normal 0.0 0.0 1.0
   outer loop
      vertex 818.984195310798 1155.29680217006 42.3999999999998
      vertex 807.678665076068 1091.88659384037 42.3999999999998
      vertex 850.285364077221 1109.5348664146 42.3999999999998
   endloop
endfacet
facet normal 0.0 0.0 1.0
   outer loop
      vertex 818.984195310798 1155.29680217006 42.3999999999998
      vertex 850.285364077221 1109.5348664146 42.3999999999998
      vertex 877.61743728048 1167.85833775088 42.3999999999998
   endloop
endfacet
facet normal 0.0 0.0 1.0
   outer loop
      vertex 877.61743728048 1167.85833775088 42.3999999999998
      vertex 850.285364077221 1109.5348664146 42.3999999999998
      vertex 854.512003519357 712.975001398926 42.3999999999998
   endloop
endfacet
facet normal 0.0 0.0 1.0
   outer loop
      vertex 877.61743728048 1167.85833775088 42.3999999999998
      vertex 854.512003519357 712.975001398926 42.3999999999998
      vertex 914.39853086098 709.933113336435 42.3999999999998
   endloop
endfacet
facet normal 0.0 0.0 1.0
   outer loop
      vertex 877.61743728048 1167.85833775088 42.3999999999998
      vertex 914.39853086098 709.933113336435 42.3999999999998
      vertex 937.503964622103 1164.81644968839 42.3999999999998
   endloop
endfacet
facet normal 0.0 0.0 1.0
   outer loop
      vertex 937.503964622103 1164.81644968839 42.3999999999998
      vertex 914.39853086098 709.933113336435 42.3999999999998
      vertex 941.730604064239 768.256584672719 42.3999999999998
   endloop
endfacet
facet normal 0.0 0.0 1.0
   outer loop
      vertex 941.730604064239 768.256584672719 42.3999999999998
      vertex 914.39853086098 709.933113336435 42.3999999999998
      vertex 973.031772830662 722.494648917258 42.3999999999998
   endloop
endfacet
facet normal 0.0 0.0 1.0
   outer loop
      vertex 937.503964622103 1164.81644968839 42.3999999999998
      vertex 941.730604064239 768.256584672719 42.3999999999998
      vertex 941.730604064239 984.618345537167 42.3999999999998
   endloop
endfacet
facet normal 0.0 0.0 1.0
   outer loop
      vertex 941.730604064239 768.256584672719 42.3999999999998
      vertex 973.031772830662 722.494648917258 42.3999999999998
      vertex 984.337303065392 785.904857246945 42.3999999999998
   endloop
endfacet
facet normal 0.0 0.0 1.0
   outer loop
      vertex 984.337303065392 785.904857246945 42.3999999999998
      vertex 973.031772830662 722.494648917258 42.3999999999998
      vertex 1026.41597088418 749.803560250482 42.3999999999998
   endloop
endfacet
facet normal 0.0 0.0 1.0
   outer loop
      vertex 984.337303065392 785.904857246945 42.3999999999998
      vertex 1026.41597088418 749.803560250482 42.3999999999998
      vertex 1020.92450494816 813.979204666227 42.3999999999998
   endloop
endfacet
facet normal 0.0 0.0 1.0
   outer loop
      vertex 1020.92450494816 813.979204666227 42.3999999999998
      vertex 1026.41597088418 749.803560250482 42.3999999999998
      vertex 1048.99885236744 850.566406548996 42.3999999999998
   endloop
endfacet
facet normal 0.0 0.0 1.0
   outer loop
      vertex 1048.99885236744 850.566406548996 42.3999999999998
      vertex 1026.41597088418 749.803560250482 42.3999999999998
      vertex 1070.91308014576 789.998790158858 42.3999999999998
   endloop
endfacet
facet normal 0.0 0.0 1.0
   outer loop
      vertex 1048.99885236744 850.566406548996 42.3999999999998
      vertex 1070.91308014576 789.998790158858 42.3999999999998
      vertex 1066.64712494167 893.173105550149 42.3999999999998
   endloop
endfacet
facet normal 0.0 0.0 1.0
   outer loop
      vertex 1066.64712494167 893.173105550149 42.3999999999998
      vertex 1070.91308014576 789.998790158858 42.3999999999998
      vertex 1066.64712494167 984.618345537167 42.3999999999998
   endloop
endfacet
facet normal 0.0 0.0 1.0
   outer loop
      vertex 937.503964622103 1164.81644968839 42.3999999999998
      vertex 941.730604064239 1109.5348664146 42.3999999999998
      vertex 994.562609464499 1146.37843762708 42.3999999999998
   endloop
endfacet
facet normal 0.0 0.0 1.0
   outer loop
      vertex 941.730604064239 1109.5348664146 42.3999999999998
      vertex 937.503964622103 1164.81644968839 42.3999999999998
      vertex 941.730604064239 984.618345537167 42.3999999999998
   endloop
endfacet
facet normal 0.0 0.0 1.0
   outer loop
      vertex 994.562609464499 1146.37843762708 42.3999999999998
      vertex 941.730604064239 1109.5348664146 42.3999999999998
      vertex 984.337303065392 1091.88659384037 42.3999999999998
   endloop
endfacet
facet normal 0.0 0.0 1.0
   outer loop
      vertex 994.562609464499 1146.37843762708 42.3999999999998
      vertex 984.337303065392 1091.88659384037 42.3999999999998
      vertex 1020.92450494816 1063.81224642109 42.3999999999998
   endloop
endfacet
facet normal 0.0 0.0 1.0
   outer loop
      vertex 994.562609464499 1146.37843762708 42.3999999999998
      vertex 1020.92450494816 1063.81224642109 42.3999999999998
      vertex 1044.90491945553 1113.80082161869 42.3999999999998
   endloop
endfacet
facet normal 0.0 0.0 1.0
   outer loop
      vertex 1044.90491945553 1113.80082161869 42.3999999999998
      vertex 1020.92450494816 1063.81224642109 42.3999999999998
      vertex 1048.99885236744 1027.22504453832 42.3999999999998
   endloop
endfacet
facet normal 0.0 0.0 1.0
   outer loop
      vertex 1044.90491945553 1113.80082161869 42.3999999999998
      vertex 1048.99885236744 1027.22504453832 42.3999999999998
      vertex 1085.10014936391 1069.30371235711 42.3999999999998
   endloop
endfacet
facet normal 0.0 0.0 1.0
   outer loop
      vertex 1085.10014936391 1069.30371235711 42.3999999999998
      vertex 1048.99885236744 1027.22504453832 42.3999999999998
      vertex 1066.64712494167 984.618345537167 42.3999999999998
   endloop
endfacet
facet normal 0.0 0.0 1.0
   outer loop
      vertex 1085.10014936391 1069.30371235711 42.3999999999998
      vertex 1066.64712494167 984.618345537167 42.3999999999998
      vertex 1070.91308014576 789.998790158858 42.3999999999998
   endloop
endfacet
facet normal 0.0 0.0 1.0
   outer loop
      vertex 1085.10014936391 1069.30371235711 42.3999999999998
      vertex 1070.91308014576 789.998790158858 42.3999999999998
      vertex 1103.49069615416 840.341100149889 42.3999999999998
   endloop
endfacet
facet normal 0.0 0.0 1.0
   outer loop
      vertex 1085.10014936391 1069.30371235711 42.3999999999998
      vertex 1103.49069615416 840.341100149889 42.3999999999998
      vertex 1112.40906069713 1015.91951430359 42.3999999999998
   endloop
endfacet
facet normal 0.0 0.0 1.0
   outer loop
      vertex 1112.40906069713 1015.91951430359 42.3999999999998
      vertex 1103.49069615416 840.341100149889 42.3999999999998
      vertex 1121.92870821546 897.399744992286 42.3999999999998
   endloop
endfacet
facet normal 0.0 0.0 1.0
   outer loop
      vertex 1112.40906069713 1015.91951430359 42.3999999999998
      vertex 1121.92870821546 897.399744992286 42.3999999999998
      vertex 1124.97059627795 957.286272333908 42.3999999999998
   endloop
endfacet
facet normal 0.0 0.0 1.0
   outer loop
      vertex 941.730604064239 984.618345537167 42.3999999999998
      vertex 941.730604064239 893.173105550149 42.3999999999998
      vertex 1066.64712494167 984.618345537167 42.3999999999998
   endloop
endfacet
facet normal 0.0 0.0 1.0
   outer loop
      vertex 941.730604064239 893.173105550149 42.3999999999998
      vertex 941.730604064239 984.618345537167 42.3999999999998
      vertex 941.730604064239 768.256584672719 42.3999999999998
   endloop
endfacet
facet normal 0.0 0.0 1.0
   outer loop
      vertex 1066.64712494167 984.618345537167 42.3999999999998
      vertex 941.730604064239 893.173105550149 42.3999999999998
      vertex 1066.64712494167 893.173105550149 42.3999999999998
   endloop
endfacet
facet normal 0.0 0.0 1.0
   outer loop
      vertex 679.606907444329 861.871936783726 42.3999999999998
      vertex 670.087259925998 980.391706095031 42.3999999999998
      vertex 667.045371863506 920.505178753409 42.3999999999998
   endloop
endfacet
facet normal 0.0 0.0 1.0
   outer loop
      vertex 670.087259925998 980.391706095031 42.3999999999998
      vertex 679.606907444329 861.871936783726 42.3999999999998
      vertex 688.525271987304 1037.45035093743 42.3999999999998
   endloop
endfacet
facet normal 0.0 0.0 1.0
   outer loop
      vertex 688.525271987304 1037.45035093743 42.3999999999998
      vertex 679.606907444329 861.871936783726 42.3999999999998
      vertex 706.915818777554 808.487738730204 42.3999999999998
   endloop
endfacet
facet normal 0.0 0.0 1.0
   outer loop
      vertex 688.525271987304 1037.45035093743 42.3999999999998
      vertex 706.915818777554 808.487738730204 42.3999999999998
      vertex 721.102887995702 1087.79266092846 42.3999999999998
   endloop
endfacet
facet normal 0.0 0.0 1.0
   outer loop
      vertex 721.102887995702 1087.79266092846 42.3999999999998
      vertex 706.915818777554 808.487738730204 42.3999999999998
      vertex 725.36884319979 893.173105550149 42.3999999999998
   endloop
endfacet
facet normal 0.0 0.0 1.0
   outer loop
      vertex 725.36884319979 893.173105550149 42.3999999999998
      vertex 706.915818777554 808.487738730204 42.3999999999998
      vertex 747.11104868593 763.990629468631 42.3999999999998
   endloop
endfacet
facet normal 0.0 0.0 1.0
   outer loop
      vertex 725.36884319979 893.173105550149 42.3999999999998
      vertex 747.11104868593 763.990629468631 42.3999999999998
      vertex 743.017115774016 850.566406548996 42.3999999999998
   endloop
endfacet
facet normal 0.0 0.0 1.0
   outer loop
      vertex 743.017115774016 850.566406548996 42.3999999999998
      vertex 747.11104868593 763.990629468631 42.3999999999998
      vertex 771.091463193299 813.979204666227 42.3999999999998
   endloop
endfacet
facet normal 0.0 0.0 1.0
   outer loop
      vertex 771.091463193299 813.979204666227 42.3999999999998
      vertex 747.11104868593 763.990629468631 42.3999999999998
      vertex 797.453358676961 731.413013460233 42.3999999999998
   endloop
endfacet
facet normal 0.0 0.0 1.0
   outer loop
      vertex 771.091463193299 813.979204666227 42.3999999999998
      vertex 797.453358676961 731.413013460233 42.3999999999998
      vertex 807.678665076068 785.904857246944 42.3999999999998
   endloop
endfacet
facet normal 0.0 0.0 1.0
   outer loop
      vertex 807.678665076068 785.904857246944 42.3999999999998
      vertex 797.453358676961 731.413013460233 42.3999999999998
      vertex 854.512003519357 712.975001398926 42.3999999999998
   endloop
endfacet
facet normal 0.0 0.0 1.0
   outer loop
      vertex 807.678665076068 785.904857246944 42.3999999999998
      vertex 854.512003519357 712.975001398926 42.3999999999998
      vertex 850.285364077221 768.256584672719 42.3999999999998
   endloop
endfacet
facet normal 0.0 0.0 1.0
   outer loop
      vertex 850.285364077221 768.256584672719 42.3999999999998
      vertex 854.512003519357 712.975001398926 42.3999999999998
      vertex 850.285364077221 893.173105550149 42.3999999999998
   endloop
endfacet
facet normal 0.0 0.0 1.0
   outer loop
      vertex 850.285364077221 893.173105550149 42.3999999999998
      vertex 854.512003519357 712.975001398926 42.3999999999998
      vertex 850.285364077221 984.618345537167 42.3999999999998
   endloop
endfacet
facet normal 0.0 0.0 1.0
   outer loop
      vertex 850.285364077221 984.618345537167 42.3999999999998
      vertex 854.512003519357 712.975001398926 42.3999999999998
      vertex 850.285364077221 1109.5348664146 42.3999999999998
   endloop
endfacet
facet normal 0.0 0.0 1.0
   outer loop
      vertex 850.285364077221 893.173105550149 42.3999999999998
      vertex 725.36884319979 984.618345537167 42.3999999999998
      vertex 725.36884319979 893.173105550149 42.3999999999998
   endloop
endfacet
facet normal 0.0 0.0 1.0
   outer loop
      vertex 725.36884319979 984.618345537167 42.3999999999998
      vertex 850.285364077221 893.173105550149 42.3999999999998
      vertex 850.285364077221 984.618345537167 42.3999999999998
   endloop
endfacet
facet normal 0.903276935495977 -0.429058012162688 0.0
   outer loop
      vertex 1103.49069615416 840.341100149889 26.3999999999998
      vertex 1070.91308014576 789.998790158858 42.3999999999998
      vertex 1070.91308014576 789.998790158858 26.3999999999998
   endloop
endfacet
facet normal 0.903276935495977 -0.429058012162688 0.0
   outer loop
      vertex 1070.91308014576 789.998790158858 42.3999999999998
      vertex 1103.49069615416 840.341100149889 26.3999999999998
      vertex 1103.49069615416 840.341100149889 42.3999999999998
   endloop
endfacet
facet normal -0.942103076301266 -0.335323416455952 0.0
   outer loop
      vertex 679.606907444329 861.871936783726 42.3999999999998
      vertex 706.915818777554 808.487738730204 26.3999999999998
      vertex 706.915818777554 808.487738730204 42.3999999999998
   endloop
endfacet
facet normal -0.942103076301266 -0.335323416455952 0.0
   outer loop
      vertex 706.915818777554 808.487738730204 26.3999999999998
      vertex 679.606907444329 861.871936783726 42.3999999999998
      vertex 679.606907444329 861.871936783726 26.3999999999998
   endloop
endfacet
facet normal -0.823213605978129 -0.567731766710729 0.0
   outer loop
      vertex 706.915818777554 808.487738730204 42.3999999999998
      vertex 747.11104868593 763.990629468631 26.3999999999998
      vertex 747.11104868593 763.990629468631 42.3999999999998
   endloop
endfacet
facet normal -0.823213605978129 -0.567731766710729 0.0
   outer loop
      vertex 747.11104868593 763.990629468631 26.3999999999998
      vertex 706.915818777554 808.487738730204 42.3999999999998
      vertex 706.915818777554 808.487738730204 26.3999999999998
   endloop
endfacet
facet normal -0.5 0.866025403784439 0.0
   outer loop
      vertex 984.337303065392 785.904857246945 42.3999999999998
      vertex 1020.92450494816 813.979204666227 2.25597318603832e-014
      vertex 984.337303065392 785.904857246945 2.25597318603832e-014
   endloop
endfacet
facet normal -0.5 0.866025403784439 0.0
   outer loop
      vertex 1020.92450494816 813.979204666227 2.25597318603832e-014
      vertex 984.337303065392 785.904857246945 42.3999999999998
      vertex 1020.92450494816 813.979204666227 42.3999999999998
   endloop
endfacet
facet normal 0.0 1.0 0.0
   outer loop
      vertex 941.730604064239 984.618345537167 42.3999999999998
      vertex 1066.64712494167 984.618345537167 2.25597318603832e-014
      vertex 941.730604064239 984.618345537167 2.25597318603832e-014
   endloop
endfacet
facet normal 0.0 1.0 0.0
   outer loop
      vertex 1066.64712494167 984.618345537167 2.25597318603832e-014
      vertex 941.730604064239 984.618345537167 42.3999999999998
      vertex 1066.64712494167 984.618345537167 42.3999999999998
   endloop
endfacet
facet normal -0.335323416455952 0.942103076301266 0.0
   outer loop
      vertex 818.984195310798 1155.29680217006 42.3999999999998
      vertex 877.61743728048 1167.85833775088 26.3999999999998
      vertex 818.984195310798 1155.29680217006 26.3999999999998
   endloop
endfacet
facet normal -0.335323416455952 0.942103076301266 0.0
   outer loop
      vertex 877.61743728048 1167.85833775088 26.3999999999998
      vertex 818.984195310798 1155.29680217006 42.3999999999998
      vertex 877.61743728048 1167.85833775088 42.3999999999998
   endloop
endfacet
facet normal 1.0 0.0 0.0
   outer loop
      vertex 941.730604064239 1109.5348664146 2.25597318603832e-014
      vertex 941.730604064239 984.618345537167 42.3999999999998
      vertex 941.730604064239 984.618345537167 2.25597318603832e-014
   endloop
endfacet
facet normal 1.0 0.0 0.0
   outer loop
      vertex 941.730604064239 984.618345537167 42.3999999999998
      vertex 941.730604064239 1109.5348664146 2.25597318603832e-014
      vertex 941.730604064239 1109.5348664146 42.3999999999998
   endloop
endfacet
facet normal -0.5 -0.866025403784439 0.0
   outer loop
      vertex 984.337303065392 1091.88659384037 42.3999999999998
      vertex 941.730604064239 1109.5348664146 2.25597318603832e-014
      vertex 984.337303065392 1091.88659384037 2.25597318603832e-014
   endloop
endfacet
facet normal -0.5 -0.866025403784439 0.0
   outer loop
      vertex 941.730604064239 1109.5348664146 2.25597318603832e-014
      vertex 984.337303065392 1091.88659384037 42.3999999999998
      vertex 941.730604064239 1109.5348664146 42.3999999999998
   endloop
endfacet
facet normal 0.923879532511287 0.38268343236509 0.0
   outer loop
      vertex 725.36884319979 893.173105550149 -4.51194637207664e-014
      vertex 743.017115774016 850.566406548996 42.3999999999998
      vertex 743.017115774016 850.566406548996 -4.51194637207664e-014
   endloop
endfacet
facet normal 0.923879532511287 0.38268343236509 0.0
   outer loop
      vertex 743.017115774016 850.566406548996 42.3999999999998
      vertex 725.36884319979 893.173105550149 -4.51194637207664e-014
      vertex 725.36884319979 893.173105550149 42.3999999999998
   endloop
endfacet
facet normal 0.707106781186547 0.707106781186548 -3.0604613584931e-016
   outer loop
      vertex 526.513207704973 1804.08015014251 801.6
      vertex 2299.69690905252 30.8964487949683 0.0
      vertex 526.513207704973 1804.08015014251 0.0
   endloop
endfacet
facet normal 0.707106781186547 0.707106781186548 -3.0604613584931e-016
   outer loop
      vertex 2299.69690905252 30.8964487949683 0.0
      vertex 526.513207704973 1804.08015014251 801.6
      vertex 2299.69690905252 30.8964487949683 801.6
   endloop
endfacet
facet normal 0.866025403784439 0.5 0.0
   outer loop
      vertex 743.017115774016 850.566406548996 -4.51194637207664e-014
      vertex 771.091463193299 813.979204666227 42.3999999999998
      vertex 771.091463193299 813.979204666227 -4.51194637207664e-014
   endloop
endfacet
facet normal 0.866025403784439 0.5 0.0
   outer loop
      vertex 771.091463193299 813.979204666227 42.3999999999998
      vertex 743.017115774016 850.566406548996 -4.51194637207664e-014
      vertex 743.017115774016 850.566406548996 42.3999999999998
   endloop
endfacet
facet normal -0.708112403702416 -0.706099726471259 2.54203629857726e-016
   outer loop
      vertex 529.833598803851 1780.73530526685 801.6
      vertex 2299.69690905252 5.82715014251297 26.4
      vertex 2299.69690905252 5.82715014251297 801.6
   endloop
endfacet
facet normal -0.708112403702416 -0.706099726471259 2.54203629857726e-016
   outer loop
      vertex 2299.69690905252 5.82715014251297 26.4
      vertex 529.833598803851 1780.73530526685 801.6
      vertex 529.833598803851 1780.73530526685 26.4
   endloop
endfacet
facet normal -0.56773176671073 0.823213605978129 0.0
   outer loop
      vertex 765.599997257276 1127.98789083683 42.3999999999998
      vertex 818.984195310798 1155.29680217006 26.3999999999998
      vertex 765.599997257276 1127.98789083683 26.3999999999998
   endloop
endfacet
facet normal -0.56773176671073 0.823213605978129 0.0
   outer loop
      vertex 818.984195310798 1155.29680217006 26.3999999999998
      vertex 765.599997257276 1127.98789083683 42.3999999999998
      vertex 818.984195310798 1155.29680217006 42.3999999999998
   endloop
endfacet
facet normal -0.903276935495976 0.429058012162689 0.0
   outer loop
      vertex 688.525271987304 1037.45035093743 42.3999999999998
      vertex 670.087259925998 980.391706095031 26.3999999999998
      vertex 670.087259925998 980.391706095031 42.3999999999998
   endloop
endfacet
facet normal -0.903276935495976 0.429058012162689 0.0
   outer loop
      vertex 670.087259925998 980.391706095031 26.3999999999998
      vertex 688.525271987304 1037.45035093743 42.3999999999998
      vertex 688.525271987304 1037.45035093743 26.3999999999998
   endloop
endfacet
facet normal -0.983546905288341 0.180652941015989 0.0
   outer loop
      vertex 670.087259925998 980.391706095031 42.3999999999998
      vertex 667.045371863506 920.505178753409 26.3999999999998
      vertex 667.045371863506 920.505178753409 42.3999999999998
   endloop
endfacet
facet normal -0.983546905288341 0.180652941015989 0.0
   outer loop
      vertex 667.045371863506 920.505178753409 26.3999999999998
      vertex 670.087259925998 980.391706095031 42.3999999999998
      vertex 670.087259925998 980.391706095031 26.3999999999998
   endloop
endfacet
facet normal -0.761450135285276 0.648223488832389 0.0
   outer loop
      vertex 721.102887995702 1087.79266092846 42.3999999999998
      vertex 688.525271987304 1037.45035093743 26.3999999999998
      vertex 688.525271987304 1037.45035093743 42.3999999999998
   endloop
endfacet
facet normal -0.761450135285276 0.648223488832389 0.0
   outer loop
      vertex 688.525271987304 1037.45035093743 26.3999999999998
      vertex 721.102887995702 1087.79266092846 42.3999999999998
      vertex 721.102887995702 1087.79266092846 26.3999999999998
   endloop
endfacet
facet normal 0.0800633295178481 -0.996789778873417 0.0
   outer loop
      vertex 914.39853086098 709.933113336435 42.3999999999998
      vertex 854.512003519357 712.975001398926 26.3999999999998
      vertex 914.39853086098 709.933113336435 26.3999999999998
   endloop
endfacet
facet normal 0.0800633295178481 -0.996789778873417 0.0
   outer loop
      vertex 854.512003519357 712.975001398926 26.3999999999998
      vertex 914.39853086098 709.933113336435 42.3999999999998
      vertex 854.512003519357 712.975001398926 42.3999999999998
   endloop
endfacet
facet normal 0.335323416455952 -0.942103076301266 0.0
   outer loop
      vertex 973.031772830662 722.494648917258 42.3999999999998
      vertex 914.39853086098 709.933113336435 26.3999999999998
      vertex 973.031772830662 722.494648917258 26.3999999999998
   endloop
endfacet
facet normal 0.335323416455952 -0.942103076301266 0.0
   outer loop
      vertex 914.39853086098 709.933113336435 26.3999999999998
      vertex 973.031772830662 722.494648917258 42.3999999999998
      vertex 914.39853086098 709.933113336435 42.3999999999998
   endloop
endfacet
facet normal 0.567731766710729 -0.823213605978129 0.0
   outer loop
      vertex 1026.41597088418 749.803560250482 42.3999999999998
      vertex 973.031772830662 722.494648917258 26.3999999999998
      vertex 1026.41597088418 749.803560250482 26.3999999999998
   endloop
endfacet
facet normal 0.567731766710729 -0.823213605978129 0.0
   outer loop
      vertex 973.031772830662 722.494648917258 26.3999999999998
      vertex 1026.41597088418 749.803560250482 42.3999999999998
      vertex 973.031772830662 722.494648917258 42.3999999999998
   endloop
endfacet
facet normal 0.761450135285276 -0.64822348883239 0.0
   outer loop
      vertex 1070.91308014576 789.998790158858 42.3999999999998
      vertex 1026.41597088418 749.803560250482 26.3999999999998
      vertex 1070.91308014576 789.998790158858 26.3999999999998
   endloop
endfacet
facet normal 0.761450135285276 -0.64822348883239 0.0
   outer loop
      vertex 1026.41597088418 749.803560250482 26.3999999999998
      vertex 1070.91308014576 789.998790158858 42.3999999999998
      vertex 1026.41597088418 749.803560250482 42.3999999999998
   endloop
endfacet
endsolid piece7
