solid piece1
facet normal 0.0 0.0 -1.0
   outer loop
      vertex 807.708185609571 1277.76278191765 -3.60955709766131e-013
      vertex 877.44601911016 1206.1607365591 -3.60955709766131e-013
      vertex 807.708185609571 550.293781917649 -3.60955709766131e-013
   endloop
endfacet
facet normal 0.0 0.0 -1.0
   outer loop
      vertex 877.44601911016 1206.1607365591 -3.60955709766131e-013
      vertex 807.708185609571 1277.76278191765 -3.60955709766131e-013
      vertex 1431.83518560957 1277.76278191765 -3.60955709766131e-013
   endloop
endfacet
facet normal 0.0 0.0 -1.0
   outer loop
      vertex 877.44601911016 1206.1607365591 -3.60955709766131e-013
      vertex 1431.83518560957 1277.76278191765 -3.60955709766131e-013
      vertex 1102.54901911016 1206.1607365591 -3.60955709766131e-013
   endloop
endfacet
facet normal 0.0 0.0 -1.0
   outer loop
      vertex 1102.54901911016 1206.1607365591 -3.60955709766131e-013
      vertex 1431.83518560957 1277.76278191765 -3.60955709766131e-013
      vertex 1140.90778196023 1206.7736165591 -3.60955709766131e-013
   endloop
endfacet
facet normal 0.0 0.0 -1.0
   outer loop
      vertex 1102.54901911016 1206.1607365591 -3.60955709766131e-013
      vertex 1140.90778196023 1206.7736165591 -3.60955709766131e-013
      vertex 1102.54901911016 634.519736559103 -3.60955709766131e-013
   endloop
endfacet
facet normal 0.0 0.0 -1.0
   outer loop
      vertex 1140.90778196023 1206.7736165591 -3.60955709766131e-013
      vertex 1431.83518560957 1277.76278191765 -3.60955709766131e-013
      vertex 1363.33432196023 1206.7736165591 -3.60955709766131e-013
   endloop
endfacet
facet normal 0.0 0.0 -1.0
   outer loop
      vertex 1363.33432196023 1206.7736165591 -3.60955709766131e-013
      vertex 1431.83518560957 1277.76278191765 -3.60955709766131e-013
      vertex 1363.33432196023 634.519736559103 -3.60955709766131e-013
   endloop
endfacet
facet normal 0.0 0.0 -1.0
   outer loop
      vertex 807.708185609571 550.293781917649 -3.60955709766131e-013
      vertex 877.44601911016 634.519736559103 -3.60955709766131e-013
      vertex 1431.83518560957 550.293781917649 -3.60955709766131e-013
   endloop
endfacet
facet normal 0.0 0.0 -1.0
   outer loop
      vertex 877.44601911016 634.519736559103 -3.60955709766131e-013
      vertex 807.708185609571 550.293781917649 -3.60955709766131e-013
      vertex 877.44601911016 1206.1607365591 -3.60955709766131e-013
   endloop
endfacet
facet normal 0.0 0.0 -1.0
   outer loop
      vertex 1431.83518560957 550.293781917649 -3.60955709766131e-013
      vertex 877.44601911016 634.519736559103 -3.60955709766131e-013
      vertex 1102.54901911016 634.519736559103 -3.60955709766131e-013
   endloop
endfacet
facet normal 0.0 0.0 -1.0
   outer loop
      vertex 1431.83518560957 550.293781917649 -3.60955709766131e-013
      vertex 1102.54901911016 634.519736559103 -3.60955709766131e-013
      vertex 1140.90778196023 634.519736559103 -3.60955709766131e-013
   endloop
endfacet
facet normal 0.0 0.0 -1.0
   outer loop
      vertex 1140.90778196023 634.519736559103 -3.60955709766131e-013
      vertex 1102.54901911016 634.519736559103 -3.60955709766131e-013
      vertex 1140.90778196023 1206.7736165591 -3.60955709766131e-013
   endloop
endfacet
facet normal 0.0 0.0 -1.0
   outer loop
      vertex 1431.83518560957 550.293781917649 -3.60955709766131e-013
      vertex 1140.90778196023 634.519736559103 -3.60955709766131e-013
      vertex 1363.33432196023 634.519736559103 -3.60955709766131e-013
   endloop
endfacet
facet normal 0.0 0.0 -1.0
   outer loop
      vertex 1431.83518560957 550.293781917649 -3.60955709766131e-013
      vertex 1363.33432196023 634.519736559103 -3.60955709766131e-013
      vertex 1431.83518560957 1277.76278191765 -3.60955709766131e-013
   endloop
endfacet
facet normal -0.0 -0.0 1.0
   outer loop
      vertex 1813.253 1241.8 801.6
      vertex 1791.00815512433 1789.90815512433 801.6
      vertex 1791.00815512433 1241.8 801.6
   endloop
endfacet
facet normal -0.0 -0.0 1.0
   outer loop
      vertex 21.1448448756665 1241.8 801.6
      vertex 0.0 1813.253 801.6
      vertex 0.0 1241.8 801.6
   endloop
endfacet
facet normal -0.0 -0.0 1.0
   outer loop
      vertex 0.0 1813.253 801.6
      vertex 21.1448448756665 1241.8 801.6
      vertex 21.1448448756665 1789.90815512433 801.6
   endloop
endfacet
facet normal -0.0 -0.0 1.0
   outer loop
      vertex 0.0 1813.253 801.6
      vertex 21.1448448756665 1789.90815512433 801.6
      vertex 1813.253 1813.253 801.6
   endloop
endfacet
facet normal -0.0 -0.0 1.0
   outer loop
      vertex 1813.253 1813.253 801.6
      vertex 21.1448448756665 1789.90815512433 801.6
      vertex 1791.00815512433 1789.90815512433 801.6
   endloop
endfacet
facet normal -0.0 -0.0 1.0
   outer loop
      vertex 1813.253 1813.253 801.6
      vertex 1791.00815512433 1789.90815512433 801.6
      vertex 1813.253 1241.8 801.6
   endloop
endfacet
facet normal -0.0 -1.0 -0.0
   outer loop
      vertex 1791.00815512433 1789.90815512433 801.6
      vertex 21.1448448756665 1789.90815512433 26.4
      vertex 1791.00815512433 1789.90815512433 26.4
   endloop
endfacet
facet normal -0.0 -1.0 -0.0
   outer loop
      vertex 21.1448448756665 1789.90815512433 26.4
      vertex 1791.00815512433 1789.90815512433 801.6
      vertex 21.1448448756665 1789.90815512433 801.6
   endloop
endfacet
facet normal -1.0 -1.09321904221457e-022 9.43464555402232e-023
   outer loop
      vertex 0.0 1813.253 801.6
      vertex 0.0 1241.8 318.7
      vertex 0.0 1241.8 801.6
   endloop
endfacet
facet normal -1.0 -1.09321904221457e-022 9.43464555402232e-023
   outer loop
      vertex 4.4668984669047e-019 15.0 801.6
      vertex 0.0 0.0 0.0
      vertex 0.0 0.0 801.6
   endloop
endfacet
facet normal -1.0 -1.09321904221457e-022 9.43464555402232e-023
   outer loop
      vertex 0.0 0.0 0.0
      vertex 4.4668984669047e-019 15.0 801.6
      vertex 4.4668984669047e-019 15.0 318.7
   endloop
endfacet
facet normal -1.0 -1.09321904221457e-022 9.43464555402232e-023
   outer loop
      vertex 0.0 0.0 0.0
      vertex 4.4668984669047e-019 15.0 318.7
      vertex 0.0 1813.253 0.0
   endloop
endfacet
facet normal -1.0 -1.09321904221457e-022 9.43464555402232e-023
   outer loop
      vertex 0.0 1813.253 0.0
      vertex 4.4668984669047e-019 15.0 318.7
      vertex 0.0 1241.8 318.7
   endloop
endfacet
facet normal -1.0 -1.09321904221457e-022 9.43464555402232e-023
   outer loop
      vertex 0.0 1813.253 0.0
      vertex 0.0 1241.8 318.7
      vertex 0.0 1813.253 801.6
   endloop
endfacet
facet normal -0.0 1.0 0.0
   outer loop
      vertex 0.0 1813.253 801.6
      vertex 1813.253 1813.253 0.0
      vertex 0.0 1813.253 0.0
   endloop
endfacet
facet normal -0.0 1.0 0.0
   outer loop
      vertex 1813.253 1813.253 0.0
      vertex 0.0 1813.253 801.6
      vertex 1813.253 1813.253 801.6
   endloop
endfacet
facet normal 1.0 -0.0 -0.0
   outer loop
      vertex 1813.253 0.0 0.0
      vertex 1813.253 15.0 318.7
      vertex 1813.253 0.0 801.6
   endloop
endfacet
facet normal 1.0 -0.0 -0.0
   outer loop
      vertex 1813.253 15.0 318.7
      vertex 1813.253 0.0 0.0
      vertex 1813.253 1813.253 0.0
   endloop
endfacet
facet normal 1.0 -0.0 -0.0
   outer loop
      vertex 1813.253 15.0 318.7
      vertex 1813.253 1813.253 0.0
      vertex 1813.253 1241.8 318.7
   endloop
endfacet
facet normal 1.0 -0.0 -0.0
   outer loop
      vertex 1813.253 1241.8 318.7
      vertex 1813.253 1813.253 0.0
      vertex 1813.253 1241.8 801.6
   endloop
endfacet
facet normal 1.0 -0.0 -0.0
   outer loop
      vertex 1813.253 1241.8 801.6
      vertex 1813.253 1813.253 0.0
      vertex 1813.253 1813.253 801.6
   endloop
endfacet
facet normal 1.0 -0.0 -0.0
   outer loop
      vertex 1813.253 15.0 801.6
      vertex 1813.253 0.0 801.6
      vertex 1813.253 15.0 318.7
   endloop
endfacet
facet normal 0.0 -1.0 0.0
   outer loop
      vertex 21.1448448756665 1241.8 801.6
      vertex 0.0 1241.8 318.7
      vertex 21.1448448756665 1241.8 318.7
   endloop
endfacet
facet normal 0.0 -1.0 0.0
   outer loop
      vertex 0.0 1241.8 318.7
      vertex 21.1448448756665 1241.8 801.6
      vertex 0.0 1241.8 801.6
   endloop
endfacet
facet normal -0.0 -0.0 1.0
   outer loop
      vertex 1813.253 15.0 318.7
      vertex 1791.00815512433 1241.8 318.7
      vertex 1791.00815512433 15.0 318.7
   endloop
endfacet
facet normal -0.0 -0.0 1.0
   outer loop
      vertex 1791.00815512433 1241.8 318.7
      vertex 1813.253 15.0 318.7
      vertex 1813.253 1241.8 318.7
   endloop
endfacet
facet normal 0.0 -1.0 0.0
   outer loop
      vertex 1813.253 1241.8 801.6
      vertex 1791.00815512433 1241.8 318.7
      vertex 1813.253 1241.8 318.7
   endloop
endfacet
facet normal 0.0 -1.0 0.0
   outer loop
      vertex 1791.00815512433 1241.8 318.7
      vertex 1813.253 1241.8 801.6
      vertex 1791.00815512433 1241.8 801.6
   endloop
endfacet
facet normal -1.0 0.0 0.0
   outer loop
      vertex 1791.00815512433 1789.90815512433 801.6
      vertex 1791.00815512433 1241.8 318.7
      vertex 1791.00815512433 1241.8 801.6
   endloop
endfacet
facet normal -1.0 0.0 0.0
   outer loop
      vertex 1791.00815512433 1241.8 318.7
      vertex 1791.00815512433 15.0 26.4
      vertex 1791.00815512433 15.0 318.7
   endloop
endfacet
facet normal -1.0 0.0 0.0
   outer loop
      vertex 1791.00815512433 15.0 26.4
      vertex 1791.00815512433 1241.8 318.7
      vertex 1791.00815512433 1789.90815512433 26.4
   endloop
endfacet
facet normal -1.0 0.0 0.0
   outer loop
      vertex 1791.00815512433 1789.90815512433 26.4
      vertex 1791.00815512433 1241.8 318.7
      vertex 1791.00815512433 1789.90815512433 801.6
   endloop
endfacet
facet normal 0.0 -1.0 -0.0
   outer loop
      vertex 1102.54901911016 634.519736559103 54.3999999999993
      vertex 877.44601911016 634.519736559103 -3.60955709766131e-013
      vertex 1102.54901911016 634.519736559103 -3.60955709766131e-013
   endloop
endfacet
facet normal 0.0 -1.0 -0.0
   outer loop
      vertex 877.44601911016 634.519736559103 -3.60955709766131e-013
      vertex 1102.54901911016 634.519736559103 54.3999999999993
      vertex 877.44601911016 634.519736559103 54.3999999999993
   endloop
endfacet
facet normal -1.0 0.0 0.0
   outer loop
      vertex 1102.54901911016 1206.1607365591 54.3999999999993
      vertex 1102.54901911016 634.519736559103 -3.60955709766131e-013
      vertex 1102.54901911016 634.519736559103 54.3999999999993
   endloop
endfacet
facet normal -1.0 0.0 0.0
   outer loop
      vertex 1102.54901911016 634.519736559103 -3.60955709766131e-013
      vertex 1102.54901911016 1206.1607365591 54.3999999999993
      vertex 1102.54901911016 1206.1607365591 -3.60955709766131e-013
   endloop
endfacet
facet normal -0.0 -1.0 -0.0
   outer loop
      vertex 1102.54901911016 1206.1607365591 54.3999999999993
      vertex 877.44601911016 1206.1607365591 -3.60955709766131e-013
      vertex 1102.54901911016 1206.1607365591 -3.60955709766131e-013
   endloop
endfacet
facet normal -0.0 -1.0 -0.0
   outer loop
      vertex 877.44601911016 1206.1607365591 -3.60955709766131e-013
      vertex 1102.54901911016 1206.1607365591 54.3999999999993
      vertex 877.44601911016 1206.1607365591 54.3999999999993
   endloop
endfacet
facet normal 1.0 0.0 0.0
   outer loop
      vertex 877.44601911016 1206.1607365591 -3.60955709766131e-013
      vertex 877.44601911016 634.519736559103 54.3999999999993
      vertex 877.44601911016 634.519736559103 -3.60955709766131e-013
   endloop
endfacet
facet normal 1.0 0.0 0.0
   outer loop
      vertex 877.44601911016 634.519736559103 54.3999999999993
      vertex 877.44601911016 1206.1607365591 -3.60955709766131e-013
      vertex 877.44601911016 1206.1607365591 54.3999999999993
   endloop
endfacet
facet normal 0.0 -1.0 -0.0
   outer loop
      vertex 1363.33432196023 634.519736559103 54.3999999999993
      vertex 1140.90778196023 634.519736559103 -3.60955709766131e-013
      vertex 1363.33432196023 634.519736559103 -3.60955709766131e-013
   endloop
endfacet
facet normal 0.0 -1.0 -0.0
   outer loop
      vertex 1140.90778196023 634.519736559103 -3.60955709766131e-013
      vertex 1363.33432196023 634.519736559103 54.3999999999993
      vertex 1140.90778196023 634.519736559103 54.3999999999993
   endloop
endfacet
facet normal -1.0 0.0 0.0
   outer loop
      vertex 1363.33432196023 1206.7736165591 54.3999999999993
      vertex 1363.33432196023 634.519736559103 -3.60955709766131e-013
      vertex 1363.33432196023 634.519736559103 54.3999999999993
   endloop
endfacet
facet normal -1.0 0.0 0.0
   outer loop
      vertex 1363.33432196023 634.519736559103 -3.60955709766131e-013
      vertex 1363.33432196023 1206.7736165591 54.3999999999993
      vertex 1363.33432196023 1206.7736165591 -3.60955709766131e-013
   endloop
endfacet
facet normal -0.0 -1.0 -0.0
   outer loop
      vertex 1363.33432196023 1206.7736165591 54.3999999999993
      vertex 1140.90778196023 1206.7736165591 -3.60955709766131e-013
      vertex 1363.33432196023 1206.7736165591 -3.60955709766131e-013
   endloop
endfacet
facet normal -0.0 -1.0 -0.0
   outer loop
      vertex 1140.90778196023 1206.7736165591 -3.60955709766131e-013
      vertex 1363.33432196023 1206.7736165591 54.3999999999993
      vertex 1140.90778196023 1206.7736165591 54.3999999999993
   endloop
endfacet
facet normal 1.0 0.0 0.0
   outer loop
      vertex 1140.90778196023 1206.7736165591 -3.60955709766131e-013
      vertex 1140.90778196023 634.519736559103 54.3999999999993
      vertex 1140.90778196023 634.519736559103 -3.60955709766131e-013
   endloop
endfacet
facet normal 1.0 0.0 0.0
   outer loop
      vertex 1140.90778196023 634.519736559103 54.3999999999993
      vertex 1140.90778196023 1206.7736165591 -3.60955709766131e-013
      vertex 1140.90778196023 1206.7736165591 54.3999999999993
   endloop
endfacet
facet normal 0.0 0.0 1.0
   outer loop
      vertex 807.708185609571 550.293781917649 54.3999999999996
      vertex 877.44601911016 634.519736559103 54.3999999999993
      vertex 807.708185609571 1277.76278191765 54.3999999999996
   endloop
endfacet
facet normal 0.0 0.0 1.0
   outer loop
      vertex 877.44601911016 634.519736559103 54.3999999999993
      vertex 807.708185609571 550.293781917649 54.3999999999996
      vertex 1431.83518560957 550.293781917649 54.3999999999996
   endloop
endfacet
facet normal 0.0 0.0 1.0
   outer loop
      vertex 877.44601911016 634.519736559103 54.3999999999993
      vertex 1431.83518560957 550.293781917649 54.3999999999996
      vertex 1102.54901911016 634.519736559103 54.3999999999993
   endloop
endfacet
facet normal 0.0 0.0 1.0
   outer loop
      vertex 1102.54901911016 634.519736559103 54.3999999999993
      vertex 1431.83518560957 550.293781917649 54.3999999999996
      vertex 1140.90778196023 634.519736559103 54.3999999999993
   endloop
endfacet
facet normal 0.0 0.0 1.0
   outer loop
      vertex 1102.54901911016 634.519736559103 54.3999999999993
      vertex 1140.90778196023 634.519736559103 54.3999999999993
      vertex 1102.54901911016 1206.1607365591 54.3999999999993
   endloop
endfacet
facet normal 0.0 0.0 1.0
   outer loop
      vertex 1140.90778196023 634.519736559103 54.3999999999993
      vertex 1431.83518560957 550.293781917649 54.3999999999996
      vertex 1363.33432196023 634.519736559103 54.3999999999993
   endloop
endfacet
facet normal 0.0 0.0 1.0
   outer loop
      vertex 1363.33432196023 634.519736559103 54.3999999999993
      vertex 1431.83518560957 550.293781917649 54.3999999999996
      vertex 1363.33432196023 1206.7736165591 54.3999999999993
   endloop
endfacet
facet normal 0.0 0.0 1.0
   outer loop
      vertex 807.708185609571 1277.76278191765 54.3999999999996
      vertex 877.44601911016 1206.1607365591 54.3999999999993
      vertex 1431.83518560957 1277.76278191765 54.3999999999996
   endloop
endfacet
facet normal 0.0 0.0 1.0
   outer loop
      vertex 877.44601911016 1206.1607365591 54.3999999999993
      vertex 807.708185609571 1277.76278191765 54.3999999999996
      vertex 877.44601911016 634.519736559103 54.3999999999993
   endloop
endfacet
facet normal 0.0 0.0 1.0
   outer loop
      vertex 1431.83518560957 1277.76278191765 54.3999999999996
      vertex 877.44601911016 1206.1607365591 54.3999999999993
      vertex 1102.54901911016 1206.1607365591 54.3999999999993
   endloop
endfacet
facet normal 0.0 0.0 1.0
   outer loop
      vertex 1431.83518560957 1277.76278191765 54.3999999999996
      vertex 1102.54901911016 1206.1607365591 54.3999999999993
      vertex 1140.90778196023 1206.7736165591 54.3999999999993
   endloop
endfacet
facet normal 0.0 0.0 1.0
   outer loop
      vertex 1140.90778196023 1206.7736165591 54.3999999999993
      vertex 1102.54901911016 1206.1607365591 54.3999999999993
      vertex 1140.90778196023 634.519736559103 54.3999999999993
   endloop
endfacet
facet normal 0.0 0.0 1.0
   outer loop
      vertex 1431.83518560957 1277.76278191765 54.3999999999996
      vertex 1140.90778196023 1206.7736165591 54.3999999999993
      vertex 1363.33432196023 1206.7736165591 54.3999999999993
   endloop
endfacet
facet normal 0.0 0.0 1.0
   outer loop
      vertex 1431.83518560957 1277.76278191765 54.3999999999996
      vertex 1363.33432196023 1206.7736165591 54.3999999999993
      vertex 1431.83518560957 550.293781917649 54.3999999999996
   endloop
endfacet
facet normal 1.0 -0.0 -0.0
   outer loop
      vertex 1431.83518560957 1277.76278191765 26.3999999999996
      vertex 1431.83518560957 550.293781917649 54.3999999999996
      vertex 1431.83518560957 550.293781917649 26.3999999999996
   endloop
endfacet
facet normal 1.0 -0.0 -0.0
   outer loop
      vertex 1431.83518560957 550.293781917649 54.3999999999996
      vertex 1431.83518560957 1277.76278191765 26.3999999999996
      vertex 1431.83518560957 1277.76278191765 54.3999999999996
   endloop
endfacet
facet normal -0.0 1.0 -0.0
   outer loop
      vertex 807.708185609571 1277.76278191765 54.3999999999996
      vertex 1431.83518560957 1277.76278191765 26.3999999999996
      vertex 807.708185609571 1277.76278191765 26.3999999999996
   endloop
endfacet
facet normal -0.0 1.0 -0.0
   outer loop
      vertex 1431.83518560957 1277.76278191765 26.3999999999996
      vertex 807.708185609571 1277.76278191765 54.3999999999996
      vertex 1431.83518560957 1277.76278191765 54.3999999999996
   endloop
endfacet
facet normal -1.0 0.0 0.0
   outer loop
      vertex 807.708185609571 1277.76278191765 54.3999999999996
      vertex 807.708185609571 550.293781917649 26.3999999999996
      vertex 807.708185609571 550.293781917649 54.3999999999996
   endloop
endfacet
facet normal -1.0 0.0 0.0
   outer loop
      vertex 807.708185609571 550.293781917649 26.3999999999996
      vertex 807.708185609571 1277.76278191765 54.3999999999996
      vertex 807.708185609571 1277.76278191765 26.3999999999996
   endloop
endfacet
facet normal 0.0 -1.0 0.0
   outer loop
      vertex 1431.83518560957 550.293781917649 54.3999999999996
      vertex 807.708185609571 550.293781917649 26.3999999999996
      vertex 1431.83518560957 550.293781917649 26.3999999999996
   endloop
endfacet
facet normal 0.0 -1.0 0.0
   outer loop
      vertex 807.708185609571 550.293781917649 26.3999999999996
      vertex 1431.83518560957 550.293781917649 54.3999999999996
      vertex 807.708185609571 550.293781917649 54.3999999999996
   endloop
endfacet
facet normal 0.0 -1.0 0.0
   outer loop
      vertex 1431.83518560957 550.293781917649 26.3999999999996
      vertex 807.708185609571 550.293781917649 -3.60955709766131e-013
      vertex 1431.83518560957 550.293781917649 -3.60955709766131e-013
   endloop
endfacet
facet normal 0.0 -1.0 0.0
   outer loop
      vertex 807.708185609571 550.293781917649 -3.60955709766131e-013
      vertex 1431.83518560957 550.293781917649 26.3999999999996
      vertex 807.708185609571 550.293781917649 26.3999999999996
   endloop
endfacet
facet normal 1.0 -0.0 -0.0
   outer loop
      vertex 1431.83518560957 1277.76278191765 -3.60955709766131e-013
      vertex 1431.83518560957 550.293781917649 26.3999999999996
      vertex 1431.83518560957 550.293781917649 -3.60955709766131e-013
   endloop
endfacet
facet normal 1.0 -0.0 -0.0
   outer loop
      vertex 1431.83518560957 550.293781917649 26.3999999999996
      vertex 1431.83518560957 1277.76278191765 -3.60955709766131e-013
      vertex 1431.83518560957 1277.76278191765 26.3999999999996
   endloop
endfacet
facet normal 0.0 0.0 -1.0
   outer loop
      vertex 0.0 1813.253 0.0
      vertex 807.708185609571 1277.76278191765 -3.60955709766131e-013
      vertex 0.0 0.0 0.0
   endloop
endfacet
facet normal 0.0 0.0 -1.0
   outer loop
      vertex 807.708185609571 1277.76278191765 -3.60955709766131e-013
      vertex 0.0 1813.253 0.0
      vertex 1813.253 1813.253 0.0
   endloop
endfacet
facet normal 0.0 0.0 -1.0
   outer loop
      vertex 807.708185609571 1277.76278191765 -3.60955709766131e-013
      vertex 1813.253 1813.253 0.0
      vertex 1431.83518560957 1277.76278191765 -3.60955709766131e-013
   endloop
endfacet
facet normal 0.0 0.0 -1.0
   outer loop
      vertex 1431.83518560957 1277.76278191765 -3.60955709766131e-013
      vertex 1813.253 1813.253 0.0
      vertex 1431.83518560957 550.293781917649 -3.60955709766131e-013
   endloop
endfacet
facet normal 0.0 0.0 -1.0
   outer loop
      vertex 0.0 0.0 0.0
      vertex 807.708185609571 550.293781917649 -3.60955709766131e-013
      vertex 1813.253 0.0 0.0
   endloop
endfacet
facet normal 0.0 0.0 -1.0
   outer loop
      vertex 807.708185609571 550.293781917649 -3.60955709766131e-013
      vertex 0.0 0.0 0.0
      vertex 807.708185609571 1277.76278191765 -3.60955709766131e-013
   endloop
endfacet
facet normal 0.0 0.0 -1.0
   outer loop
      vertex 1813.253 0.0 0.0
      vertex 807.708185609571 550.293781917649 -3.60955709766131e-013
      vertex 1431.83518560957 550.293781917649 -3.60955709766131e-013
   endloop
endfacet
facet normal 0.0 0.0 -1.0
   outer loop
      vertex 1813.253 0.0 0.0
      vertex 1431.83518560957 550.293781917649 -3.60955709766131e-013
      vertex 1813.253 1813.253 0.0
   endloop
endfacet
facet normal -0.0 -0.0 1.0
   outer loop
      vertex 21.1448448756665 15.0 26.4
      vertex 807.708185609571 550.293781917649 26.3999999999996
      vertex 21.1448448756665 1789.90815512433 26.4
   endloop
endfacet
facet normal -0.0 -0.0 1.0
   outer loop
      vertex 807.708185609571 550.293781917649 26.3999999999996
      vertex 21.1448448756665 15.0 26.4
      vertex 1791.00815512433 15.0 26.4
   endloop
endfacet
facet normal -0.0 -0.0 1.0
   outer loop
      vertex 807.708185609571 550.293781917649 26.3999999999996
      vertex 1791.00815512433 15.0 26.4
      vertex 1431.83518560957 550.293781917649 26.3999999999996
   endloop
endfacet
facet normal -0.0 -0.0 1.0
   outer loop
      vertex 1431.83518560957 550.293781917649 26.3999999999996
      vertex 1791.00815512433 15.0 26.4
      vertex 1431.83518560957 1277.76278191765 26.3999999999996
   endloop
endfacet
facet normal -0.0 -0.0 1.0
   outer loop
      vertex 21.1448448756665 1789.90815512433 26.4
      vertex 807.708185609571 1277.76278191765 26.3999999999996
      vertex 1791.00815512433 1789.90815512433 26.4
   endloop
endfacet
facet normal -0.0 -0.0 1.0
   outer loop
      vertex 807.708185609571 1277.76278191765 26.3999999999996
      vertex 21.1448448756665 1789.90815512433 26.4
      vertex 807.708185609571 550.293781917649 26.3999999999996
   endloop
endfacet
facet normal -0.0 -0.0 1.0
   outer loop
      vertex 1791.00815512433 1789.90815512433 26.4
      vertex 807.708185609571 1277.76278191765 26.3999999999996
      vertex 1431.83518560957 1277.76278191765 26.3999999999996
   endloop
endfacet
facet normal -0.0 -0.0 1.0
   outer loop
      vertex 1791.00815512433 1789.90815512433 26.4
      vertex 1431.83518560957 1277.76278191765 26.3999999999996
      vertex 1791.00815512433 15.0 26.4
   endloop
endfacet
facet normal 0.0 -1.0 0.0
   outer loop
      vertex 1813.253 0.0 801.6
      vertex 0.0 0.0 0.0
      vertex 1813.253 0.0 0.0
   endloop
endfacet
facet normal 0.0 -1.0 0.0
   outer loop
      vertex 0.0 0.0 0.0
      vertex 1813.253 0.0 801.6
      vertex 0.0 0.0 801.6
   endloop
endfacet
facet normal -0.0 1.0 -0.0
   outer loop
      vertex 4.4668984669047e-019 15.0 801.6
      vertex 21.1448448756665 15.0 318.7
      vertex 4.4668984669047e-019 15.0 318.7
   endloop
endfacet
facet normal -0.0 1.0 -0.0
   outer loop
      vertex 21.1448448756665 15.0 318.7
      vertex 4.4668984669047e-019 15.0 801.6
      vertex 1791.00815512433 15.0 318.7
   endloop
endfacet
facet normal -0.0 1.0 -0.0
   outer loop
      vertex 1791.00815512433 15.0 318.7
      vertex 4.4668984669047e-019 15.0 801.6
      vertex 1813.253 15.0 318.7
   endloop
endfacet
facet normal -0.0 1.0 -0.0
   outer loop
      vertex 1813.253 15.0 318.7
      vertex 4.4668984669047e-019 15.0 801.6
      vertex 1813.253 15.0 801.6
   endloop
endfacet
facet normal -0.0 1.0 -0.0
   outer loop
      vertex 21.1448448756665 15.0 318.7
      vertex 1791.00815512433 15.0 26.4
      vertex 21.1448448756665 15.0 26.4
   endloop
endfacet
facet normal -0.0 1.0 -0.0
   outer loop
      vertex 1791.00815512433 15.0 26.4
      vertex 21.1448448756665 15.0 318.7
      vertex 1791.00815512433 15.0 318.7
   endloop
endfacet
facet normal 0.0 -3.49927858887238e-020 1.0
   outer loop
      vertex 1813.253 0.0 801.6
      vertex 4.4668984669047e-019 15.0 801.6
      vertex 0.0 0.0 801.6
   endloop
endfacet
facet normal 0.0 -3.49927858887238e-020 1.0
   outer loop
      vertex 4.4668984669047e-019 15.0 801.6
      vertex 1813.253 0.0 801.6
      vertex 1813.253 15.0 801.6
   endloop
endfacet
facet normal 1.0 -5.50891596059181e-018 3.98199670162964e-018
   outer loop
      vertex 21.1448448756665 1789.90815512433 26.4
      vertex 21.1448448756665 15.0 318.7
      vertex 21.1448448756665 15.0 26.4
   endloop
endfacet
facet normal 1.0 -5.50891596059181e-018 3.98199670162964e-018
   outer loop
      vertex 21.1448448756665 15.0 318.7
      vertex 21.1448448756665 1789.90815512433 26.4
      vertex 21.1448448756665 1241.8 318.7
   endloop
endfacet
facet normal 1.0 -5.50891596059181e-018 3.98199670162964e-018
   outer loop
      vertex 21.1448448756665 1241.8 318.7
      vertex 21.1448448756665 1789.90815512433 26.4
      vertex 21.1448448756665 1241.8 801.6
   endloop
endfacet
facet normal 1.0 -5.50891596059181e-018 3.98199670162964e-018
   outer loop
      vertex 21.1448448756665 1241.8 801.6
      vertex 21.1448448756665 1789.90815512433 26.4
      vertex 21.1448448756665 1789.90815512433 801.6
   endloop
endfacet
facet normal -0.0 -0.0 1.0
   outer loop
      vertex 4.4668984669047e-019 15.0 318.7
      vertex 21.1448448756665 1241.8 318.7
      vertex 0.0 1241.8 318.7
   endloop
endfacet
facet normal -0.0 -0.0 1.0
   outer loop
      vertex 21.1448448756665 1241.8 318.7
      vertex 4.4668984669047e-019 15.0 318.7
      vertex 21.1448448756665 15.0 318.7
   endloop
endfacet
endsolid piece1
