solid piece8
facet normal 0.708112403702416 0.706099726471259 -4.96110237432374e-014
   outer loop
      vertex 1303.7125509245 -564.099670703821 0.581164738592918
      vertex 407.658473362332 334.508532815667 802.181164738351
      vertex 1303.7125509245 -564.099670703765 802.181164738493
   endloop
endfacet
facet normal 0.708112403702416 0.706099726471259 -4.96110237432374e-014
   outer loop
      vertex 407.658473362332 334.508532815667 802.181164738351
      vertex 1303.7125509245 -564.099670703821 0.581164738592918
      vertex 396.536050924503 345.662658772922 802.181164738349
   endloop
endfacet
facet normal 0.708112403702416 0.706099726471259 -4.96110237432374e-014
   outer loop
      vertex 396.536050924503 345.662658772922 802.181164738349
      vertex 1303.7125509245 -564.099670703821 0.581164738592918
      vertex 396.536050924503 345.662658772867 0.581164738448446
   endloop
endfacet
facet normal 0.708112403702416 0.706099726471259 -4.96110237432374e-014
   outer loop
      vertex 396.536050924503 345.662658772867 0.581164738448446
      vertex 1303.7125509245 -564.099670703821 0.581164738592918
      vertex 407.658473362367 334.508532815575 0.581164738450251
   endloop
endfacet
facet normal -0.70854062238266 0.705670026594295 -4.94998779297307e-014
   outer loop
      vertex 396.536050924503 345.662658772922 802.181164738349
      vertex -509.540449075497 -564.099670703821 0.581164738496543
      vertex -509.540449075497 -564.099670703765 802.181164738493
   endloop
endfacet
facet normal -0.70854062238266 0.705670026594295 -4.94998779297307e-014
   outer loop
      vertex -509.540449075497 -564.099670703821 0.581164738496543
      vertex 396.536050924503 345.662658772922 802.181164738349
      vertex 396.536050924503 345.662658772867 0.581164738448446
   endloop
endfacet
facet normal 0.708112403702416 -0.706099726471259 1.1336315018275e-013
   outer loop
      vertex -488.395604199831 -564.099670703884 21.1811647384929
      vertex 396.536050924503 323.35440685841 802.181164738357
      vertex -488.395604199831 -564.099670703757 802.181164738493
   endloop
endfacet
facet normal 0.708112403702416 -0.706099726471259 1.1336315018275e-013
   outer loop
      vertex 396.536050924503 323.35440685841 802.181164738357
      vertex -488.395604199831 -564.099670703884 21.1811647384929
      vertex 396.536050924503 323.354406858283 21.1811647383571
   endloop
endfacet
facet normal -4.0898591399398e-020 1.63754564713283e-013 1.0
   outer loop
      vertex 1303.7125509245 -564.099670703765 802.181164738493
      vertex -509.540449075497 -579.099670703765 802.181164738496
      vertex 1303.7125509245 -579.099670703765 802.181164738496
   endloop
endfacet
facet normal -4.0898591399398e-020 1.63754564713283e-013 1.0
   outer loop
      vertex -509.540449075497 -579.099670703765 802.181164738496
      vertex 1303.7125509245 -564.099670703765 802.181164738493
      vertex -509.540449075497 -564.099670703765 802.181164738493
   endloop
endfacet
facet normal -4.0898591399398e-020 1.63754564713283e-013 1.0
   outer loop
      vertex -509.540449075497 -564.099670703765 802.181164738493
      vertex 1303.7125509245 -564.099670703765 802.181164738493
      vertex 1281.46770604884 -564.099670703757 802.181164738493
   endloop
endfacet
facet normal -4.0898591399398e-020 1.63754564713283e-013 1.0
   outer loop
      vertex -509.540449075497 -564.099670703765 802.181164738493
      vertex 1281.46770604884 -564.099670703757 802.181164738493
      vertex -488.395604199831 -564.099670703757 802.181164738493
   endloop
endfacet
facet normal -0.708112403702416 -0.706099726471259 1.13039365644469e-013
   outer loop
      vertex 396.536050924503 323.35440685841 802.181164738357
      vertex 1281.46770604884 -564.099670703884 21.1811647384938
      vertex 1281.46770604884 -564.099670703757 802.181164738493
   endloop
endfacet
facet normal -0.708112403702416 -0.706099726471259 1.13039365644469e-013
   outer loop
      vertex 1281.46770604884 -564.099670703884 21.1811647384938
      vertex 396.536050924503 323.35440685841 802.181164738357
      vertex 396.536050924503 323.354406858283 21.1811647383571
   endloop
endfacet
facet normal 0.0 -1.0 1.52820729991001e-013
   outer loop
      vertex 1303.7125509245 -579.099670703887 0.581164738495731
      vertex -509.540449075497 -579.099670703765 802.181164738496
      vertex -509.540449075497 -579.099670703887 0.581164738495731
   endloop
endfacet
facet normal 0.0 -1.0 1.52820729991001e-013
   outer loop
      vertex -509.540449075497 -579.099670703765 802.181164738496
      vertex 1303.7125509245 -579.099670703887 0.581164738495731
      vertex 1303.7125509245 -579.099670703765 802.181164738496
   endloop
endfacet
facet normal 1.0 0.0 0.0
   outer loop
      vertex 1303.7125509245 -579.099670703887 0.581164738495731
      vertex 1303.7125509245 -564.099670703765 802.181164738493
      vertex 1303.7125509245 -579.099670703765 802.181164738496
   endloop
endfacet
facet normal 1.0 0.0 0.0
   outer loop
      vertex 1303.7125509245 -564.099670703765 802.181164738493
      vertex 1303.7125509245 -579.099670703887 0.581164738495731
      vertex 1303.7125509245 -564.099670703821 0.581164738592918
   endloop
endfacet
facet normal -1.0 0.0 0.0
   outer loop
      vertex -509.540449075497 -564.099670703765 802.181164738493
      vertex -509.540449075497 -579.099670703887 0.581164738495731
      vertex -509.540449075497 -579.099670703765 802.181164738496
   endloop
endfacet
facet normal -1.0 0.0 0.0
   outer loop
      vertex -509.540449075497 -579.099670703887 0.581164738495731
      vertex -509.540449075497 -564.099670703765 802.181164738493
      vertex -509.540449075497 -564.099670703821 0.581164738496543
   endloop
endfacet
facet normal 5.60398514554976e-018 1.56866321817399e-013 1.0
   outer loop
      vertex 407.658473362332 334.508532815667 802.181164738351
      vertex 1281.46770604884 -564.099670703757 802.181164738493
      vertex 1303.7125509245 -564.099670703765 802.181164738493
   endloop
endfacet
facet normal 5.60398514554976e-018 1.56866321817399e-013 1.0
   outer loop
      vertex 1281.46770604884 -564.099670703757 802.181164738493
      vertex 407.658473362332 334.508532815667 802.181164738351
      vertex 396.536050924503 323.35440685841 802.181164738357
   endloop
endfacet
facet normal 5.60398514554976e-018 1.56866321817399e-013 1.0
   outer loop
      vertex -488.395604199831 -564.099670703757 802.181164738493
      vertex 396.536050924503 345.662658772922 802.181164738349
      vertex -509.540449075497 -564.099670703765 802.181164738493
   endloop
endfacet
facet normal 5.60398514554976e-018 1.56866321817399e-013 1.0
   outer loop
      vertex 396.536050924503 345.662658772922 802.181164738349
      vertex -488.395604199831 -564.099670703757 802.181164738493
      vertex 396.536050924503 323.35440685841 802.181164738357
   endloop
endfacet
facet normal 5.60398514554976e-018 1.56866321817399e-013 1.0
   outer loop
      vertex 396.536050924503 345.662658772922 802.181164738349
      vertex 396.536050924503 323.35440685841 802.181164738357
      vertex 407.658473362332 334.508532815667 802.181164738351
   endloop
endfacet
facet normal 2.70761022916233e-014 -1.09453295531503e-013 -1.0
   outer loop
      vertex -509.540449075497 -564.099670703821 0.581164738496543
      vertex 1303.7125509245 -579.099670703887 0.581164738495731
      vertex -509.540449075497 -579.099670703887 0.581164738495731
   endloop
endfacet
facet normal 2.70761022916233e-014 -1.09453295531503e-013 -1.0
   outer loop
      vertex 1303.7125509245 -579.099670703887 0.581164738495731
      vertex -509.540449075497 -564.099670703821 0.581164738496543
      vertex 1303.7125509245 -564.099670703821 0.581164738592918
   endloop
endfacet
facet normal 2.70761022916233e-014 -1.09453295531503e-013 -1.0
   outer loop
      vertex 1303.7125509245 -564.099670703821 0.581164738592918
      vertex -509.540449075497 -564.099670703821 0.581164738496543
      vertex 375.391206048773 323.354406858283 0.581164738360734
   endloop
endfacet
facet normal 2.70761022916233e-014 -1.09453295531503e-013 -1.0
   outer loop
      vertex 1303.7125509245 -564.099670703821 0.581164738592918
      vertex 375.391206048773 323.354406858283 0.581164738360734
      vertex 407.658473362367 334.508532815575 0.581164738450251
   endloop
endfacet
facet normal 2.70761022916233e-014 -1.09453295531503e-013 -1.0
   outer loop
      vertex 407.658473362367 334.508532815575 0.581164738450251
      vertex 375.391206048773 323.354406858283 0.581164738360734
      vertex 396.536050924503 345.662658772867 0.581164738448446
   endloop
endfacet
facet normal -2.71927372527113e-016 1.0 -1.60133060666995e-013
   outer loop
      vertex 1281.46770604884 -564.099670703757 802.181164738493
      vertex -488.395604199831 -564.099670703884 21.1811647384929
      vertex -488.395604199831 -564.099670703757 802.181164738493
   endloop
endfacet
facet normal -2.71927372527113e-016 1.0 -1.60133060666995e-013
   outer loop
      vertex -488.395604199831 -564.099670703884 21.1811647384929
      vertex 1281.46770604884 -564.099670703757 802.181164738493
      vertex 1281.46770604884 -564.099670703884 21.1811647384938
   endloop
endfacet
facet normal -8.28457353898606e-011 8.24572744805401e-011 -1.0
   outer loop
      vertex 396.536050924503 345.662658772867 0.581164738448446
      vertex 375.391206048773 323.354406858283 0.581164738360734
      vertex -509.540449075497 -564.099670703821 0.581164738496543
   endloop
endfacet
facet normal -4.58877441139698e-016 1.53444955324477e-013 1.0
   outer loop
      vertex 396.536050924503 323.354406858283 21.1811647383571
      vertex -488.395604199831 -564.099670703884 21.1811647384929
      vertex 1281.46770604884 -564.099670703884 21.1811647384938
   endloop
endfacet
endsolid piece8
