solid piece2
facet normal -0.0 -0.0 1.0
   outer loop
      vertex 1813.253 1241.8 801.6
      vertex 1791.00815512433 1789.90815512433 801.6
      vertex 1791.00815512433 1241.8 801.6
   endloop
endfacet
facet normal -0.0 -0.0 1.0
   outer loop
      vertex 21.1448448756665 1241.8 801.6
      vertex 0.0 1813.253 801.6
      vertex 0.0 1241.8 801.6
   endloop
endfacet
facet normal -0.0 -0.0 1.0
   outer loop
      vertex 0.0 1813.253 801.6
      vertex 21.1448448756665 1241.8 801.6
      vertex 21.1448448756665 1789.90815512433 801.6
   endloop
endfacet
facet normal -0.0 -0.0 1.0
   outer loop
      vertex 0.0 1813.253 801.6
      vertex 21.1448448756665 1789.90815512433 801.6
      vertex 1813.253 1813.253 801.6
   endloop
endfacet
facet normal -0.0 -0.0 1.0
   outer loop
      vertex 1813.253 1813.253 801.6
      vertex 21.1448448756665 1789.90815512433 801.6
      vertex 1791.00815512433 1789.90815512433 801.6
   endloop
endfacet
facet normal -0.0 -0.0 1.0
   outer loop
      vertex 1813.253 1813.253 801.6
      vertex 1791.00815512433 1789.90815512433 801.6
      vertex 1813.253 1241.8 801.6
   endloop
endfacet
facet normal -0.0 -1.0 -0.0
   outer loop
      vertex 1791.00815512433 1789.90815512433 801.6
      vertex 21.1448448756665 1789.90815512433 26.4
      vertex 1791.00815512433 1789.90815512433 26.4
   endloop
endfacet
facet normal -0.0 -1.0 -0.0
   outer loop
      vertex 21.1448448756665 1789.90815512433 26.4
      vertex 1791.00815512433 1789.90815512433 801.6
      vertex 21.1448448756665 1789.90815512433 801.6
   endloop
endfacet
facet normal -1.0 -1.09321904221457e-022 9.43464555402232e-023
   outer loop
      vertex 0.0 1813.253 801.6
      vertex 0.0 1241.8 318.7
      vertex 0.0 1241.8 801.6
   endloop
endfacet
facet normal -1.0 -1.09321904221457e-022 9.43464555402232e-023
   outer loop
      vertex 4.4668984669047e-019 15.0 801.6
      vertex 0.0 0.0 0.0
      vertex 0.0 0.0 801.6
   endloop
endfacet
facet normal -1.0 -1.09321904221457e-022 9.43464555402232e-023
   outer loop
      vertex 0.0 0.0 0.0
      vertex 4.4668984669047e-019 15.0 801.6
      vertex 4.4668984669047e-019 15.0 318.7
   endloop
endfacet
facet normal -1.0 -1.09321904221457e-022 9.43464555402232e-023
   outer loop
      vertex 0.0 0.0 0.0
      vertex 4.4668984669047e-019 15.0 318.7
      vertex 0.0 1813.253 0.0
   endloop
endfacet
facet normal -1.0 -1.09321904221457e-022 9.43464555402232e-023
   outer loop
      vertex 0.0 1813.253 0.0
      vertex 4.4668984669047e-019 15.0 318.7
      vertex 0.0 1241.8 318.7
   endloop
endfacet
facet normal -1.0 -1.09321904221457e-022 9.43464555402232e-023
   outer loop
      vertex 0.0 1813.253 0.0
      vertex 0.0 1241.8 318.7
      vertex 0.0 1813.253 801.6
   endloop
endfacet
facet normal -0.0 1.0 0.0
   outer loop
      vertex 0.0 1813.253 801.6
      vertex 1813.253 1813.253 0.0
      vertex 0.0 1813.253 0.0
   endloop
endfacet
facet normal -0.0 1.0 0.0
   outer loop
      vertex 1813.253 1813.253 0.0
      vertex 0.0 1813.253 801.6
      vertex 1813.253 1813.253 801.6
   endloop
endfacet
facet normal 1.0 -0.0 -0.0
   outer loop
      vertex 1813.253 0.0 0.0
      vertex 1813.253 15.0 318.7
      vertex 1813.253 0.0 801.6
   endloop
endfacet
facet normal 1.0 -0.0 -0.0
   outer loop
      vertex 1813.253 15.0 318.7
      vertex 1813.253 0.0 0.0
      vertex 1813.253 1813.253 0.0
   endloop
endfacet
facet normal 1.0 -0.0 -0.0
   outer loop
      vertex 1813.253 15.0 318.7
      vertex 1813.253 1813.253 0.0
      vertex 1813.253 1241.8 318.7
   endloop
endfacet
facet normal 1.0 -0.0 -0.0
   outer loop
      vertex 1813.253 1241.8 318.7
      vertex 1813.253 1813.253 0.0
      vertex 1813.253 1241.8 801.6
   endloop
endfacet
facet normal 1.0 -0.0 -0.0
   outer loop
      vertex 1813.253 1241.8 801.6
      vertex 1813.253 1813.253 0.0
      vertex 1813.253 1813.253 801.6
   endloop
endfacet
facet normal 1.0 -0.0 -0.0
   outer loop
      vertex 1813.253 15.0 801.6
      vertex 1813.253 0.0 801.6
      vertex 1813.253 15.0 318.7
   endloop
endfacet
facet normal 0.0 -1.0 0.0
   outer loop
      vertex 21.1448448756665 1241.8 801.6
      vertex 0.0 1241.8 318.7
      vertex 21.1448448756665 1241.8 318.7
   endloop
endfacet
facet normal 0.0 -1.0 0.0
   outer loop
      vertex 0.0 1241.8 318.7
      vertex 21.1448448756665 1241.8 801.6
      vertex 0.0 1241.8 801.6
   endloop
endfacet
facet normal -0.0 -0.0 1.0
   outer loop
      vertex 1813.253 15.0 318.7
      vertex 1791.00815512433 1241.8 318.7
      vertex 1791.00815512433 15.0 318.7
   endloop
endfacet
facet normal -0.0 -0.0 1.0
   outer loop
      vertex 1791.00815512433 1241.8 318.7
      vertex 1813.253 15.0 318.7
      vertex 1813.253 1241.8 318.7
   endloop
endfacet
facet normal 0.0 -1.0 0.0
   outer loop
      vertex 1813.253 1241.8 801.6
      vertex 1791.00815512433 1241.8 318.7
      vertex 1813.253 1241.8 318.7
   endloop
endfacet
facet normal 0.0 -1.0 0.0
   outer loop
      vertex 1791.00815512433 1241.8 318.7
      vertex 1813.253 1241.8 801.6
      vertex 1791.00815512433 1241.8 801.6
   endloop
endfacet
facet normal -1.0 0.0 0.0
   outer loop
      vertex 1791.00815512433 1789.90815512433 801.6
      vertex 1791.00815512433 1241.8 318.7
      vertex 1791.00815512433 1241.8 801.6
   endloop
endfacet
facet normal -1.0 0.0 0.0
   outer loop
      vertex 1791.00815512433 1241.8 318.7
      vertex 1791.00815512433 15.0 26.4
      vertex 1791.00815512433 15.0 318.7
   endloop
endfacet
facet normal -1.0 0.0 0.0
   outer loop
      vertex 1791.00815512433 15.0 26.4
      vertex 1791.00815512433 1241.8 318.7
      vertex 1791.00815512433 1789.90815512433 26.4
   endloop
endfacet
facet normal -1.0 0.0 0.0
   outer loop
      vertex 1791.00815512433 1789.90815512433 26.4
      vertex 1791.00815512433 1241.8 318.7
      vertex 1791.00815512433 1789.90815512433 801.6
   endloop
endfacet
facet normal 0.0 0.0 -1.0
   outer loop
      vertex 1813.253 1813.253 0.0
      vertex 0.0 0.0 0.0
      vertex 0.0 1813.253 0.0
   endloop
endfacet
facet normal 0.0 0.0 -1.0
   outer loop
      vertex 0.0 0.0 0.0
      vertex 1813.253 1813.253 0.0
      vertex 1813.253 0.0 0.0
   endloop
endfacet
facet normal -0.0 -0.0 1.0
   outer loop
      vertex 21.1448448756665 15.0 26.4
      vertex 408.700270821943 1167.12214588025 26.4000000000001
      vertex 21.1448448756665 1789.90815512433 26.4
   endloop
endfacet
facet normal -0.0 -0.0 1.0
   outer loop
      vertex 408.700270821943 1167.12214588025 26.4000000000001
      vertex 21.1448448756665 15.0 26.4
      vertex 413.547288811179 1160.80538905406 26.4000000000001
   endloop
endfacet
facet normal -0.0 -0.0 1.0
   outer loop
      vertex 413.547288811179 1160.80538905406 26.4000000000001
      vertex 21.1448448756665 15.0 26.4
      vertex 1791.00815512433 15.0 26.4
   endloop
endfacet
facet normal -0.0 -0.0 1.0
   outer loop
      vertex 21.1448448756665 1789.90815512433 26.4
      vertex 408.700270821943 1167.12214588025 26.4000000000001
      vertex 405.653307935552 1174.47816500462 26.4000000000001
   endloop
endfacet
facet normal -0.0 -0.0 1.0
   outer loop
      vertex 21.1448448756665 1789.90815512433 26.4
      vertex 405.653307935552 1174.47816500462 26.4000000000001
      vertex 404.614045637369 1182.37214588025 26.4000000000001
   endloop
endfacet
facet normal -0.0 -0.0 1.0
   outer loop
      vertex 413.547288811179 1160.80538905406 26.4000000000001
      vertex 1791.00815512433 15.0 26.4
      vertex 419.864045637369 1155.95837106482 26.4000000000001
   endloop
endfacet
facet normal -0.0 -0.0 1.0
   outer loop
      vertex 419.864045637369 1155.95837106482 26.4000000000001
      vertex 1791.00815512433 15.0 26.4
      vertex 427.220064761742 1152.91140817843 26.4000000000001
   endloop
endfacet
facet normal -0.0 -0.0 1.0
   outer loop
      vertex 427.220064761742 1152.91140817843 26.4000000000001
      vertex 1791.00815512433 15.0 26.4
      vertex 435.114045637369 1151.87214588025 26.4000000000001
   endloop
endfacet
facet normal -0.0 -0.0 1.0
   outer loop
      vertex 435.114045637369 1151.87214588025 26.4000000000001
      vertex 1791.00815512433 15.0 26.4
      vertex 443.008026512996 1152.91140817843 26.4000000000001
   endloop
endfacet
facet normal -0.0 -0.0 1.0
   outer loop
      vertex 443.008026512996 1152.91140817843 26.4000000000001
      vertex 1791.00815512433 15.0 26.4
      vertex 450.364045637369 1155.95837106482 26.4000000000001
   endloop
endfacet
facet normal -0.0 -0.0 1.0
   outer loop
      vertex 450.364045637369 1155.95837106482 26.4000000000001
      vertex 1791.00815512433 15.0 26.4
      vertex 456.680802463558 1160.80538905406 26.4000000000001
   endloop
endfacet
facet normal -0.0 -0.0 1.0
   outer loop
      vertex 456.680802463558 1160.80538905406 26.4000000000001
      vertex 1791.00815512433 15.0 26.4
      vertex 461.527820452794 1167.12214588025 26.4000000000001
   endloop
endfacet
facet normal -0.0 -0.0 1.0
   outer loop
      vertex 461.527820452794 1167.12214588025 26.4000000000001
      vertex 1791.00815512433 15.0 26.4
      vertex 464.574783339185 1174.47816500462 26.4000000000001
   endloop
endfacet
facet normal -0.0 -0.0 1.0
   outer loop
      vertex 464.574783339185 1174.47816500462 26.4000000000001
      vertex 1791.00815512433 15.0 26.4
      vertex 465.614045637369 1182.37214588025 26.4000000000001
   endloop
endfacet
facet normal -0.0 -0.0 1.0
   outer loop
      vertex 465.614045637369 1182.37214588025 26.4000000000001
      vertex 1791.00815512433 15.0 26.4
      vertex 1190.39089026087 1360.53541311123 26.3999999999998
   endloop
endfacet
facet normal -0.0 -0.0 1.0
   outer loop
      vertex 465.614045637369 1182.37214588025 26.4000000000001
      vertex 1190.39089026087 1360.53541311123 26.3999999999998
      vertex 1187.34392737448 1367.8914322356 26.3999999999998
   endloop
endfacet
facet normal -0.0 -0.0 1.0
   outer loop
      vertex 465.614045637369 1182.37214588025 26.4000000000001
      vertex 1187.34392737448 1367.8914322356 26.3999999999998
      vertex 1186.3046650763 1375.78541311123 26.3999999999998
   endloop
endfacet
facet normal -0.0 -0.0 1.0
   outer loop
      vertex 1190.39089026087 1360.53541311123 26.3999999999998
      vertex 1791.00815512433 15.0 26.4
      vertex 1195.23790825011 1354.21865628504 26.3999999999998
   endloop
endfacet
facet normal -0.0 -0.0 1.0
   outer loop
      vertex 1195.23790825011 1354.21865628504 26.3999999999998
      vertex 1791.00815512433 15.0 26.4
      vertex 1201.5546650763 1349.3716382958 26.3999999999998
   endloop
endfacet
facet normal -0.0 -0.0 1.0
   outer loop
      vertex 1201.5546650763 1349.3716382958 26.3999999999998
      vertex 1791.00815512433 15.0 26.4
      vertex 1208.91068420067 1346.32467540941 26.3999999999998
   endloop
endfacet
facet normal -0.0 -0.0 1.0
   outer loop
      vertex 1208.91068420067 1346.32467540941 26.3999999999998
      vertex 1791.00815512433 15.0 26.4
      vertex 1216.8046650763 1345.28541311123 26.3999999999998
   endloop
endfacet
facet normal -0.0 -0.0 1.0
   outer loop
      vertex 1216.8046650763 1345.28541311123 26.3999999999998
      vertex 1791.00815512433 15.0 26.4
      vertex 1224.69864595193 1346.32467540941 26.3999999999998
   endloop
endfacet
facet normal -0.0 -0.0 1.0
   outer loop
      vertex 1224.69864595193 1346.32467540941 26.3999999999998
      vertex 1791.00815512433 15.0 26.4
      vertex 1232.0546650763 1349.3716382958 26.3999999999998
   endloop
endfacet
facet normal -0.0 -0.0 1.0
   outer loop
      vertex 1232.0546650763 1349.3716382958 26.3999999999998
      vertex 1791.00815512433 15.0 26.4
      vertex 1238.37142190249 1354.21865628504 26.3999999999998
   endloop
endfacet
facet normal -0.0 -0.0 1.0
   outer loop
      vertex 1238.37142190249 1354.21865628504 26.3999999999998
      vertex 1791.00815512433 15.0 26.4
      vertex 1243.21843989172 1360.53541311123 26.3999999999998
   endloop
endfacet
facet normal -0.0 -0.0 1.0
   outer loop
      vertex 1243.21843989172 1360.53541311123 26.3999999999998
      vertex 1791.00815512433 15.0 26.4
      vertex 1246.26540277811 1367.8914322356 26.3999999999998
   endloop
endfacet
facet normal -0.0 -0.0 1.0
   outer loop
      vertex 1246.26540277811 1367.8914322356 26.3999999999998
      vertex 1791.00815512433 15.0 26.4
      vertex 1247.3046650763 1375.78541311123 26.3999999999998
   endloop
endfacet
facet normal -0.0 -0.0 1.0
   outer loop
      vertex 21.1448448756665 1789.90815512433 26.4
      vertex 419.864045637369 1208.78592069568 26.4000000000001
      vertex 1791.00815512433 1789.90815512433 26.4
   endloop
endfacet
facet normal -0.0 -0.0 1.0
   outer loop
      vertex 419.864045637369 1208.78592069568 26.4000000000001
      vertex 21.1448448756665 1789.90815512433 26.4
      vertex 413.547288811179 1203.93890270644 26.4000000000001
   endloop
endfacet
facet normal -0.0 -0.0 1.0
   outer loop
      vertex 413.547288811179 1203.93890270644 26.4000000000001
      vertex 21.1448448756665 1789.90815512433 26.4
      vertex 408.700270821943 1197.62214588025 26.4000000000001
   endloop
endfacet
facet normal -0.0 -0.0 1.0
   outer loop
      vertex 408.700270821943 1197.62214588025 26.4000000000001
      vertex 21.1448448756665 1789.90815512433 26.4
      vertex 405.653307935552 1190.26612675588 26.4000000000001
   endloop
endfacet
facet normal -0.0 -0.0 1.0
   outer loop
      vertex 405.653307935552 1190.26612675588 26.4000000000001
      vertex 21.1448448756665 1789.90815512433 26.4
      vertex 404.614045637369 1182.37214588025 26.4000000000001
   endloop
endfacet
facet normal -0.0 -0.0 1.0
   outer loop
      vertex 1791.00815512433 1789.90815512433 26.4
      vertex 419.864045637369 1208.78592069568 26.4000000000001
      vertex 427.220064761742 1211.83288358207 26.4000000000001
   endloop
endfacet
facet normal -0.0 -0.0 1.0
   outer loop
      vertex 1791.00815512433 1789.90815512433 26.4
      vertex 427.220064761742 1211.83288358207 26.4000000000001
      vertex 435.114045637369 1212.87214588025 26.4000000000001
   endloop
endfacet
facet normal -0.0 -0.0 1.0
   outer loop
      vertex 1791.00815512433 1789.90815512433 26.4
      vertex 435.114045637369 1212.87214588025 26.4000000000001
      vertex 443.008026512995 1211.83288358207 26.4000000000001
   endloop
endfacet
facet normal -0.0 -0.0 1.0
   outer loop
      vertex 1791.00815512433 1789.90815512433 26.4
      vertex 443.008026512995 1211.83288358207 26.4000000000001
      vertex 450.364045637369 1208.78592069568 26.4000000000001
   endloop
endfacet
facet normal -0.0 -0.0 1.0
   outer loop
      vertex 1791.00815512433 1789.90815512433 26.4
      vertex 450.364045637369 1208.78592069568 26.4000000000001
      vertex 456.680802463558 1203.93890270644 26.4000000000001
   endloop
endfacet
facet normal -0.0 -0.0 1.0
   outer loop
      vertex 1791.00815512433 1789.90815512433 26.4
      vertex 456.680802463558 1203.93890270644 26.4000000000001
      vertex 461.527820452794 1197.62214588025 26.4000000000001
   endloop
endfacet
facet normal -0.0 -0.0 1.0
   outer loop
      vertex 1791.00815512433 1789.90815512433 26.4
      vertex 461.527820452794 1197.62214588025 26.4000000000001
      vertex 464.574783339185 1190.26612675588 26.4000000000001
   endloop
endfacet
facet normal -0.0 -0.0 1.0
   outer loop
      vertex 1791.00815512433 1789.90815512433 26.4
      vertex 464.574783339185 1190.26612675588 26.4000000000001
      vertex 465.614045637369 1182.37214588025 26.4000000000001
   endloop
endfacet
facet normal -0.0 -0.0 1.0
   outer loop
      vertex 1791.00815512433 1789.90815512433 26.4
      vertex 465.614045637369 1182.37214588025 26.4000000000001
      vertex 1201.5546650763 1402.19918792665 26.3999999999998
   endloop
endfacet
facet normal -0.0 -0.0 1.0
   outer loop
      vertex 1201.5546650763 1402.19918792665 26.3999999999998
      vertex 465.614045637369 1182.37214588025 26.4000000000001
      vertex 1195.23790825011 1397.35216993742 26.3999999999998
   endloop
endfacet
facet normal -0.0 -0.0 1.0
   outer loop
      vertex 1195.23790825011 1397.35216993742 26.3999999999998
      vertex 465.614045637369 1182.37214588025 26.4000000000001
      vertex 1190.39089026087 1391.03541311123 26.3999999999998
   endloop
endfacet
facet normal -0.0 -0.0 1.0
   outer loop
      vertex 1190.39089026087 1391.03541311123 26.3999999999998
      vertex 465.614045637369 1182.37214588025 26.4000000000001
      vertex 1187.34392737448 1383.67939398685 26.3999999999998
   endloop
endfacet
facet normal -0.0 -0.0 1.0
   outer loop
      vertex 1187.34392737448 1383.67939398685 26.3999999999998
      vertex 465.614045637369 1182.37214588025 26.4000000000001
      vertex 1186.3046650763 1375.78541311123 26.3999999999998
   endloop
endfacet
facet normal -0.0 -0.0 1.0
   outer loop
      vertex 1791.00815512433 1789.90815512433 26.4
      vertex 1201.5546650763 1402.19918792665 26.3999999999998
      vertex 1208.91068420067 1405.24615081304 26.3999999999998
   endloop
endfacet
facet normal -0.0 -0.0 1.0
   outer loop
      vertex 1791.00815512433 1789.90815512433 26.4
      vertex 1208.91068420067 1405.24615081304 26.3999999999998
      vertex 1216.8046650763 1406.28541311123 26.3999999999998
   endloop
endfacet
facet normal -0.0 -0.0 1.0
   outer loop
      vertex 1791.00815512433 1789.90815512433 26.4
      vertex 1216.8046650763 1406.28541311123 26.3999999999998
      vertex 1224.69864595193 1405.24615081304 26.3999999999998
   endloop
endfacet
facet normal -0.0 -0.0 1.0
   outer loop
      vertex 1791.00815512433 1789.90815512433 26.4
      vertex 1224.69864595193 1405.24615081304 26.3999999999998
      vertex 1232.0546650763 1402.19918792665 26.3999999999998
   endloop
endfacet
facet normal -0.0 -0.0 1.0
   outer loop
      vertex 1791.00815512433 1789.90815512433 26.4
      vertex 1232.0546650763 1402.19918792665 26.3999999999998
      vertex 1238.37142190249 1397.35216993742 26.3999999999998
   endloop
endfacet
facet normal -0.0 -0.0 1.0
   outer loop
      vertex 1791.00815512433 1789.90815512433 26.4
      vertex 1238.37142190249 1397.35216993742 26.3999999999998
      vertex 1243.21843989172 1391.03541311123 26.3999999999998
   endloop
endfacet
facet normal -0.0 -0.0 1.0
   outer loop
      vertex 1791.00815512433 1789.90815512433 26.4
      vertex 1243.21843989172 1391.03541311123 26.3999999999998
      vertex 1246.26540277811 1383.67939398685 26.3999999999998
   endloop
endfacet
facet normal -0.0 -0.0 1.0
   outer loop
      vertex 1791.00815512433 1789.90815512433 26.4
      vertex 1246.26540277811 1383.67939398685 26.3999999999998
      vertex 1247.3046650763 1375.78541311123 26.3999999999998
   endloop
endfacet
facet normal -0.0 -0.0 1.0
   outer loop
      vertex 1791.00815512433 1789.90815512433 26.4
      vertex 1247.3046650763 1375.78541311123 26.3999999999998
      vertex 1791.00815512433 15.0 26.4
   endloop
endfacet
facet normal 0.0 -1.0 0.0
   outer loop
      vertex 1813.253 0.0 801.6
      vertex 0.0 0.0 0.0
      vertex 1813.253 0.0 0.0
   endloop
endfacet
facet normal 0.0 -1.0 0.0
   outer loop
      vertex 0.0 0.0 0.0
      vertex 1813.253 0.0 801.6
      vertex 0.0 0.0 801.6
   endloop
endfacet
facet normal 1.28226288032893e-018 1.0 5.60070875701082e-018
   outer loop
      vertex 4.4668984669047e-019 15.0 801.6
      vertex 21.1448448756665 15.0 318.7
      vertex 4.4668984669047e-019 15.0 318.7
   endloop
endfacet
facet normal 1.28226288032893e-018 1.0 5.60070875701082e-018
   outer loop
      vertex 21.1448448756665 15.0 318.7
      vertex 4.4668984669047e-019 15.0 801.6
      vertex 1791.00815512433 15.0 318.7
   endloop
endfacet
facet normal 1.28226288032893e-018 1.0 5.60070875701082e-018
   outer loop
      vertex 1791.00815512433 15.0 318.7
      vertex 4.4668984669047e-019 15.0 801.6
      vertex 1813.253 15.0 318.7
   endloop
endfacet
facet normal 1.28226288032893e-018 1.0 5.60070875701082e-018
   outer loop
      vertex 1813.253 15.0 318.7
      vertex 4.4668984669047e-019 15.0 801.6
      vertex 1813.253 15.0 801.6
   endloop
endfacet
facet normal 1.28226288032893e-018 1.0 5.60070875701082e-018
   outer loop
      vertex 21.1448448756665 15.0 318.7
      vertex 1791.00815512433 15.0 26.4
      vertex 21.1448448756665 15.0 26.4
   endloop
endfacet
facet normal 1.28226288032893e-018 1.0 5.60070875701082e-018
   outer loop
      vertex 1791.00815512433 15.0 26.4
      vertex 21.1448448756665 15.0 318.7
      vertex 1791.00815512433 15.0 318.7
   endloop
endfacet
facet normal 0.0 -3.49927858887238e-020 1.0
   outer loop
      vertex 1813.253 0.0 801.6
      vertex 4.4668984669047e-019 15.0 801.6
      vertex 0.0 0.0 801.6
   endloop
endfacet
facet normal 0.0 -3.49927858887238e-020 1.0
   outer loop
      vertex 4.4668984669047e-019 15.0 801.6
      vertex 1813.253 0.0 801.6
      vertex 1813.253 15.0 801.6
   endloop
endfacet
facet normal 1.0 -5.50891596059181e-018 3.98199670162964e-018
   outer loop
      vertex 21.1448448756665 1789.90815512433 26.4
      vertex 21.1448448756665 15.0 318.7
      vertex 21.1448448756665 15.0 26.4
   endloop
endfacet
facet normal 1.0 -5.50891596059181e-018 3.98199670162964e-018
   outer loop
      vertex 21.1448448756665 15.0 318.7
      vertex 21.1448448756665 1789.90815512433 26.4
      vertex 21.1448448756665 1241.8 318.7
   endloop
endfacet
facet normal 1.0 -5.50891596059181e-018 3.98199670162964e-018
   outer loop
      vertex 21.1448448756665 1241.8 318.7
      vertex 21.1448448756665 1789.90815512433 26.4
      vertex 21.1448448756665 1241.8 801.6
   endloop
endfacet
facet normal 1.0 -5.50891596059181e-018 3.98199670162964e-018
   outer loop
      vertex 21.1448448756665 1241.8 801.6
      vertex 21.1448448756665 1789.90815512433 26.4
      vertex 21.1448448756665 1789.90815512433 801.6
   endloop
endfacet
facet normal -0.0 -0.0 1.0
   outer loop
      vertex 4.4668984669047e-019 15.0 318.7
      vertex 21.1448448756665 1241.8 318.7
      vertex 0.0 1241.8 318.7
   endloop
endfacet
facet normal -0.0 -0.0 1.0
   outer loop
      vertex 21.1448448756665 1241.8 318.7
      vertex 4.4668984669047e-019 15.0 318.7
      vertex 21.1448448756665 15.0 318.7
   endloop
endfacet
facet normal 0.0 0.0 1.0
   outer loop
      vertex 1187.34392737448 1367.8914322356 96.3999999999997
      vertex 1187.34392737448 1383.67939398685 96.3999999999997
      vertex 1186.3046650763 1375.78541311123 96.3999999999997
   endloop
endfacet
facet normal 0.0 0.0 1.0
   outer loop
      vertex 1187.34392737448 1383.67939398685 96.3999999999997
      vertex 1187.34392737448 1367.8914322356 96.3999999999997
      vertex 1190.39089026087 1360.53541311123 96.3999999999997
   endloop
endfacet
facet normal 0.0 0.0 1.0
   outer loop
      vertex 1187.34392737448 1383.67939398685 96.3999999999997
      vertex 1190.39089026087 1360.53541311123 96.3999999999997
      vertex 1190.39089026087 1391.03541311123 96.3999999999997
   endloop
endfacet
facet normal 0.0 0.0 1.0
   outer loop
      vertex 1190.39089026087 1391.03541311123 96.3999999999997
      vertex 1190.39089026087 1360.53541311123 96.3999999999997
      vertex 1195.23790825011 1354.21865628504 96.3999999999997
   endloop
endfacet
facet normal 0.0 0.0 1.0
   outer loop
      vertex 1190.39089026087 1391.03541311123 96.3999999999997
      vertex 1195.23790825011 1354.21865628504 96.3999999999997
      vertex 1195.23790825011 1397.35216993742 96.3999999999997
   endloop
endfacet
facet normal 0.0 0.0 1.0
   outer loop
      vertex 1195.23790825011 1397.35216993742 96.3999999999997
      vertex 1195.23790825011 1354.21865628504 96.3999999999997
      vertex 1201.5546650763 1349.3716382958 96.3999999999997
   endloop
endfacet
facet normal 0.0 0.0 1.0
   outer loop
      vertex 1195.23790825011 1397.35216993742 96.3999999999997
      vertex 1201.5546650763 1349.3716382958 96.3999999999997
      vertex 1201.5546650763 1402.19918792665 96.3999999999997
   endloop
endfacet
facet normal 0.0 0.0 1.0
   outer loop
      vertex 1201.5546650763 1402.19918792665 96.3999999999997
      vertex 1201.5546650763 1349.3716382958 96.3999999999997
      vertex 1208.91068420067 1405.24615081304 96.3999999999997
   endloop
endfacet
facet normal 0.0 0.0 1.0
   outer loop
      vertex 1208.91068420067 1405.24615081304 96.3999999999997
      vertex 1201.5546650763 1349.3716382958 96.3999999999997
      vertex 1208.91068420067 1346.32467540941 96.3999999999997
   endloop
endfacet
facet normal 0.0 0.0 1.0
   outer loop
      vertex 1208.91068420067 1405.24615081304 96.3999999999997
      vertex 1208.91068420067 1346.32467540941 96.3999999999997
      vertex 1216.8046650763 1345.28541311123 96.3999999999997
   endloop
endfacet
facet normal 0.0 0.0 1.0
   outer loop
      vertex 1208.91068420067 1405.24615081304 96.3999999999997
      vertex 1216.8046650763 1345.28541311123 96.3999999999997
      vertex 1216.8046650763 1406.28541311123 96.3999999999997
   endloop
endfacet
facet normal 0.0 0.0 1.0
   outer loop
      vertex 1216.8046650763 1406.28541311123 96.3999999999997
      vertex 1216.8046650763 1345.28541311123 96.3999999999997
      vertex 1224.69864595193 1346.32467540941 96.3999999999997
   endloop
endfacet
facet normal 0.0 0.0 1.0
   outer loop
      vertex 1216.8046650763 1406.28541311123 96.3999999999997
      vertex 1224.69864595193 1346.32467540941 96.3999999999997
      vertex 1224.69864595193 1405.24615081304 96.3999999999997
   endloop
endfacet
facet normal 0.0 0.0 1.0
   outer loop
      vertex 1224.69864595193 1405.24615081304 96.3999999999997
      vertex 1224.69864595193 1346.32467540941 96.3999999999997
      vertex 1232.0546650763 1402.19918792665 96.3999999999997
   endloop
endfacet
facet normal 0.0 0.0 1.0
   outer loop
      vertex 1232.0546650763 1402.19918792665 96.3999999999997
      vertex 1224.69864595193 1346.32467540941 96.3999999999997
      vertex 1232.0546650763 1349.3716382958 96.3999999999997
   endloop
endfacet
facet normal 0.0 0.0 1.0
   outer loop
      vertex 1232.0546650763 1402.19918792665 96.3999999999997
      vertex 1232.0546650763 1349.3716382958 96.3999999999997
      vertex 1238.37142190249 1354.21865628504 96.3999999999997
   endloop
endfacet
facet normal 0.0 0.0 1.0
   outer loop
      vertex 1232.0546650763 1402.19918792665 96.3999999999997
      vertex 1238.37142190249 1354.21865628504 96.3999999999997
      vertex 1238.37142190249 1397.35216993742 96.3999999999997
   endloop
endfacet
facet normal 0.0 0.0 1.0
   outer loop
      vertex 1238.37142190249 1397.35216993742 96.3999999999997
      vertex 1238.37142190249 1354.21865628504 96.3999999999997
      vertex 1243.21843989172 1360.53541311123 96.3999999999997
   endloop
endfacet
facet normal 0.0 0.0 1.0
   outer loop
      vertex 1238.37142190249 1397.35216993742 96.3999999999997
      vertex 1243.21843989172 1360.53541311123 96.3999999999997
      vertex 1243.21843989172 1391.03541311123 96.3999999999997
   endloop
endfacet
facet normal 0.0 0.0 1.0
   outer loop
      vertex 1243.21843989172 1391.03541311123 96.3999999999997
      vertex 1243.21843989172 1360.53541311123 96.3999999999997
      vertex 1246.26540277811 1367.8914322356 96.3999999999997
   endloop
endfacet
facet normal 0.0 0.0 1.0
   outer loop
      vertex 1243.21843989172 1391.03541311123 96.3999999999997
      vertex 1246.26540277811 1367.8914322356 96.3999999999997
      vertex 1246.26540277811 1383.67939398685 96.3999999999997
   endloop
endfacet
facet normal 0.0 0.0 1.0
   outer loop
      vertex 1246.26540277811 1383.67939398685 96.3999999999997
      vertex 1246.26540277811 1367.8914322356 96.3999999999997
      vertex 1247.3046650763 1375.78541311123 96.3999999999997
   endloop
endfacet
facet normal -0.793353340291239 -0.608761429008715 -0.0
   outer loop
      vertex 1190.39089026087 1360.53541311123 96.3999999999997
      vertex 1195.23790825011 1354.21865628504 26.3999999999998
      vertex 1195.23790825011 1354.21865628504 96.3999999999997
   endloop
endfacet
facet normal -0.793353340291239 -0.608761429008715 -0.0
   outer loop
      vertex 1195.23790825011 1354.21865628504 26.3999999999998
      vertex 1190.39089026087 1360.53541311123 96.3999999999997
      vertex 1190.39089026087 1360.53541311123 26.3999999999998
   endloop
endfacet
facet normal -0.608761429008715 -0.793353340291239 -0.0
   outer loop
      vertex 1201.5546650763 1349.3716382958 96.3999999999997
      vertex 1195.23790825011 1354.21865628504 26.3999999999998
      vertex 1201.5546650763 1349.3716382958 26.3999999999998
   endloop
endfacet
facet normal -0.608761429008715 -0.793353340291239 -0.0
   outer loop
      vertex 1195.23790825011 1354.21865628504 26.3999999999998
      vertex 1201.5546650763 1349.3716382958 96.3999999999997
      vertex 1195.23790825011 1354.21865628504 96.3999999999997
   endloop
endfacet
facet normal -0.382683432365091 -0.923879532511286 -0.0
   outer loop
      vertex 1208.91068420067 1346.32467540941 96.3999999999997
      vertex 1201.5546650763 1349.3716382958 26.3999999999998
      vertex 1208.91068420067 1346.32467540941 26.3999999999998
   endloop
endfacet
facet normal -0.382683432365091 -0.923879532511286 -0.0
   outer loop
      vertex 1201.5546650763 1349.3716382958 26.3999999999998
      vertex 1208.91068420067 1346.32467540941 96.3999999999997
      vertex 1201.5546650763 1349.3716382958 96.3999999999997
   endloop
endfacet
facet normal -0.130526192220039 -0.991444861373812 -0.0
   outer loop
      vertex 1216.8046650763 1345.28541311123 96.3999999999997
      vertex 1208.91068420067 1346.32467540941 26.3999999999998
      vertex 1216.8046650763 1345.28541311123 26.3999999999998
   endloop
endfacet
facet normal -0.130526192220039 -0.991444861373812 -0.0
   outer loop
      vertex 1208.91068420067 1346.32467540941 26.3999999999998
      vertex 1216.8046650763 1345.28541311123 96.3999999999997
      vertex 1208.91068420067 1346.32467540941 96.3999999999997
   endloop
endfacet
facet normal 0.130526192220036 -0.991444861373812 0.0
   outer loop
      vertex 1224.69864595193 1346.32467540941 96.3999999999997
      vertex 1216.8046650763 1345.28541311123 26.3999999999998
      vertex 1224.69864595193 1346.32467540941 26.3999999999998
   endloop
endfacet
facet normal 0.130526192220036 -0.991444861373812 0.0
   outer loop
      vertex 1216.8046650763 1345.28541311123 26.3999999999998
      vertex 1224.69864595193 1346.32467540941 96.3999999999997
      vertex 1216.8046650763 1345.28541311123 96.3999999999997
   endloop
endfacet
facet normal 0.382683432365083 -0.92387953251129 0.0
   outer loop
      vertex 1232.0546650763 1349.3716382958 96.3999999999997
      vertex 1224.69864595193 1346.32467540941 26.3999999999998
      vertex 1232.0546650763 1349.3716382958 26.3999999999998
   endloop
endfacet
facet normal 0.382683432365083 -0.92387953251129 0.0
   outer loop
      vertex 1224.69864595193 1346.32467540941 26.3999999999998
      vertex 1232.0546650763 1349.3716382958 96.3999999999997
      vertex 1224.69864595193 1346.32467540941 96.3999999999997
   endloop
endfacet
facet normal 0.608761429008726 -0.793353340291231 0.0
   outer loop
      vertex 1238.37142190249 1354.21865628504 96.3999999999997
      vertex 1232.0546650763 1349.3716382958 26.3999999999998
      vertex 1238.37142190249 1354.21865628504 26.3999999999998
   endloop
endfacet
facet normal 0.608761429008726 -0.793353340291231 0.0
   outer loop
      vertex 1232.0546650763 1349.3716382958 26.3999999999998
      vertex 1238.37142190249 1354.21865628504 96.3999999999997
      vertex 1232.0546650763 1349.3716382958 96.3999999999997
   endloop
endfacet
facet normal 0.793353340291239 -0.608761429008715 0.0
   outer loop
      vertex 1243.21843989172 1360.53541311123 26.3999999999998
      vertex 1238.37142190249 1354.21865628504 96.3999999999997
      vertex 1238.37142190249 1354.21865628504 26.3999999999998
   endloop
endfacet
facet normal 0.793353340291239 -0.608761429008715 0.0
   outer loop
      vertex 1238.37142190249 1354.21865628504 96.3999999999997
      vertex 1243.21843989172 1360.53541311123 26.3999999999998
      vertex 1243.21843989172 1360.53541311123 96.3999999999997
   endloop
endfacet
facet normal 0.92387953251129 -0.382683432365083 0.0
   outer loop
      vertex 1246.26540277811 1367.8914322356 26.3999999999998
      vertex 1243.21843989172 1360.53541311123 96.3999999999997
      vertex 1243.21843989172 1360.53541311123 26.3999999999998
   endloop
endfacet
facet normal 0.92387953251129 -0.382683432365083 0.0
   outer loop
      vertex 1243.21843989172 1360.53541311123 96.3999999999997
      vertex 1246.26540277811 1367.8914322356 26.3999999999998
      vertex 1246.26540277811 1367.8914322356 96.3999999999997
   endloop
endfacet
facet normal 0.991444861373809 -0.130526192220061 0.0
   outer loop
      vertex 1247.3046650763 1375.78541311123 26.3999999999998
      vertex 1246.26540277811 1367.8914322356 96.3999999999997
      vertex 1246.26540277811 1367.8914322356 26.3999999999998
   endloop
endfacet
facet normal 0.991444861373809 -0.130526192220061 0.0
   outer loop
      vertex 1246.26540277811 1367.8914322356 96.3999999999997
      vertex 1247.3046650763 1375.78541311123 26.3999999999998
      vertex 1247.3046650763 1375.78541311123 96.3999999999997
   endloop
endfacet
facet normal 0.991444861373809 0.130526192220061 0.0
   outer loop
      vertex 1246.26540277811 1383.67939398685 26.3999999999998
      vertex 1247.3046650763 1375.78541311123 96.3999999999997
      vertex 1247.3046650763 1375.78541311123 26.3999999999998
   endloop
endfacet
facet normal 0.991444861373809 0.130526192220061 0.0
   outer loop
      vertex 1247.3046650763 1375.78541311123 96.3999999999997
      vertex 1246.26540277811 1383.67939398685 26.3999999999998
      vertex 1246.26540277811 1383.67939398685 96.3999999999997
   endloop
endfacet
facet normal 0.92387953251129 0.382683432365083 0.0
   outer loop
      vertex 1243.21843989172 1391.03541311123 26.3999999999998
      vertex 1246.26540277811 1383.67939398685 96.3999999999997
      vertex 1246.26540277811 1383.67939398685 26.3999999999998
   endloop
endfacet
facet normal 0.92387953251129 0.382683432365083 0.0
   outer loop
      vertex 1246.26540277811 1383.67939398685 96.3999999999997
      vertex 1243.21843989172 1391.03541311123 26.3999999999998
      vertex 1243.21843989172 1391.03541311123 96.3999999999997
   endloop
endfacet
facet normal 0.793353340291239 0.608761429008715 0.0
   outer loop
      vertex 1238.37142190249 1397.35216993742 26.3999999999998
      vertex 1243.21843989172 1391.03541311123 96.3999999999997
      vertex 1243.21843989172 1391.03541311123 26.3999999999998
   endloop
endfacet
facet normal 0.793353340291239 0.608761429008715 0.0
   outer loop
      vertex 1243.21843989172 1391.03541311123 96.3999999999997
      vertex 1238.37142190249 1397.35216993742 26.3999999999998
      vertex 1238.37142190249 1397.35216993742 96.3999999999997
   endloop
endfacet
facet normal 0.608761429008726 0.793353340291231 0.0
   outer loop
      vertex 1232.0546650763 1402.19918792665 96.3999999999997
      vertex 1238.37142190249 1397.35216993742 26.3999999999998
      vertex 1232.0546650763 1402.19918792665 26.3999999999998
   endloop
endfacet
facet normal 0.608761429008726 0.793353340291231 0.0
   outer loop
      vertex 1238.37142190249 1397.35216993742 26.3999999999998
      vertex 1232.0546650763 1402.19918792665 96.3999999999997
      vertex 1238.37142190249 1397.35216993742 96.3999999999997
   endloop
endfacet
facet normal 0.382683432365075 0.923879532511293 0.0
   outer loop
      vertex 1224.69864595193 1405.24615081304 96.3999999999997
      vertex 1232.0546650763 1402.19918792665 26.3999999999998
      vertex 1224.69864595193 1405.24615081304 26.3999999999998
   endloop
endfacet
facet normal 0.382683432365075 0.923879532511293 0.0
   outer loop
      vertex 1232.0546650763 1402.19918792665 26.3999999999998
      vertex 1224.69864595193 1405.24615081304 96.3999999999997
      vertex 1232.0546650763 1402.19918792665 96.3999999999997
   endloop
endfacet
facet normal 0.130526192220039 0.991444861373812 0.0
   outer loop
      vertex 1216.8046650763 1406.28541311123 96.3999999999997
      vertex 1224.69864595193 1405.24615081304 26.3999999999998
      vertex 1216.8046650763 1406.28541311123 26.3999999999998
   endloop
endfacet
facet normal 0.130526192220039 0.991444861373812 0.0
   outer loop
      vertex 1224.69864595193 1405.24615081304 26.3999999999998
      vertex 1216.8046650763 1406.28541311123 96.3999999999997
      vertex 1224.69864595193 1405.24615081304 96.3999999999997
   endloop
endfacet
facet normal -0.130526192220039 0.991444861373812 0.0
   outer loop
      vertex 1208.91068420067 1405.24615081304 96.3999999999997
      vertex 1216.8046650763 1406.28541311123 26.3999999999998
      vertex 1208.91068420067 1405.24615081304 26.3999999999998
   endloop
endfacet
facet normal -0.130526192220039 0.991444861373812 0.0
   outer loop
      vertex 1216.8046650763 1406.28541311123 26.3999999999998
      vertex 1208.91068420067 1405.24615081304 96.3999999999997
      vertex 1216.8046650763 1406.28541311123 96.3999999999997
   endloop
endfacet
facet normal -0.382683432365083 0.92387953251129 0.0
   outer loop
      vertex 1201.5546650763 1402.19918792665 96.3999999999997
      vertex 1208.91068420067 1405.24615081304 26.3999999999998
      vertex 1201.5546650763 1402.19918792665 26.3999999999998
   endloop
endfacet
facet normal -0.382683432365083 0.92387953251129 0.0
   outer loop
      vertex 1208.91068420067 1405.24615081304 26.3999999999998
      vertex 1201.5546650763 1402.19918792665 96.3999999999997
      vertex 1208.91068420067 1405.24615081304 96.3999999999997
   endloop
endfacet
facet normal -0.608761429008726 0.793353340291231 0.0
   outer loop
      vertex 1195.23790825011 1397.35216993742 96.3999999999997
      vertex 1201.5546650763 1402.19918792665 26.3999999999998
      vertex 1195.23790825011 1397.35216993742 26.3999999999998
   endloop
endfacet
facet normal -0.608761429008726 0.793353340291231 0.0
   outer loop
      vertex 1201.5546650763 1402.19918792665 26.3999999999998
      vertex 1195.23790825011 1397.35216993742 96.3999999999997
      vertex 1201.5546650763 1402.19918792665 96.3999999999997
   endloop
endfacet
facet normal -0.793353340291239 0.608761429008715 0.0
   outer loop
      vertex 1195.23790825011 1397.35216993742 96.3999999999997
      vertex 1190.39089026087 1391.03541311123 26.3999999999998
      vertex 1190.39089026087 1391.03541311123 96.3999999999997
   endloop
endfacet
facet normal -0.793353340291239 0.608761429008715 0.0
   outer loop
      vertex 1190.39089026087 1391.03541311123 26.3999999999998
      vertex 1195.23790825011 1397.35216993742 96.3999999999997
      vertex 1195.23790825011 1397.35216993742 26.3999999999998
   endloop
endfacet
facet normal -0.923879532511282 0.382683432365102 0.0
   outer loop
      vertex 1190.39089026087 1391.03541311123 96.3999999999997
      vertex 1187.34392737448 1383.67939398685 26.3999999999998
      vertex 1187.34392737448 1383.67939398685 96.3999999999997
   endloop
endfacet
facet normal -0.923879532511282 0.382683432365102 0.0
   outer loop
      vertex 1187.34392737448 1383.67939398685 26.3999999999998
      vertex 1190.39089026087 1391.03541311123 96.3999999999997
      vertex 1190.39089026087 1391.03541311123 26.3999999999998
   endloop
endfacet
facet normal -0.991444861373812 0.130526192220039 0.0
   outer loop
      vertex 1187.34392737448 1383.67939398685 96.3999999999997
      vertex 1186.3046650763 1375.78541311123 26.3999999999998
      vertex 1186.3046650763 1375.78541311123 96.3999999999997
   endloop
endfacet
facet normal -0.991444861373812 0.130526192220039 0.0
   outer loop
      vertex 1186.3046650763 1375.78541311123 26.3999999999998
      vertex 1187.34392737448 1383.67939398685 96.3999999999997
      vertex 1187.34392737448 1383.67939398685 26.3999999999998
   endloop
endfacet
facet normal -0.991444861373812 -0.130526192220039 -0.0
   outer loop
      vertex 1186.3046650763 1375.78541311123 96.3999999999997
      vertex 1187.34392737448 1367.8914322356 26.3999999999998
      vertex 1187.34392737448 1367.8914322356 96.3999999999997
   endloop
endfacet
facet normal -0.991444861373812 -0.130526192220039 -0.0
   outer loop
      vertex 1187.34392737448 1367.8914322356 26.3999999999998
      vertex 1186.3046650763 1375.78541311123 96.3999999999997
      vertex 1186.3046650763 1375.78541311123 26.3999999999998
   endloop
endfacet
facet normal -0.923879532511282 -0.382683432365102 -0.0
   outer loop
      vertex 1187.34392737448 1367.8914322356 96.3999999999997
      vertex 1190.39089026087 1360.53541311123 26.3999999999998
      vertex 1190.39089026087 1360.53541311123 96.3999999999997
   endloop
endfacet
facet normal -0.923879532511282 -0.382683432365102 -0.0
   outer loop
      vertex 1190.39089026087 1360.53541311123 26.3999999999998
      vertex 1187.34392737448 1367.8914322356 96.3999999999997
      vertex 1187.34392737448 1367.8914322356 26.3999999999998
   endloop
endfacet
facet normal 0.0 0.0 1.0
   outer loop
      vertex 405.653307935552 1174.47816500462 96.4000000000001
      vertex 405.653307935552 1190.26612675588 96.4000000000001
      vertex 404.614045637369 1182.37214588025 96.4000000000001
   endloop
endfacet
facet normal 0.0 0.0 1.0
   outer loop
      vertex 405.653307935552 1190.26612675588 96.4000000000001
      vertex 405.653307935552 1174.47816500462 96.4000000000001
      vertex 408.700270821943 1167.12214588025 96.4000000000001
   endloop
endfacet
facet normal 0.0 0.0 1.0
   outer loop
      vertex 405.653307935552 1190.26612675588 96.4000000000001
      vertex 408.700270821943 1167.12214588025 96.4000000000001
      vertex 408.700270821943 1197.62214588025 96.4000000000001
   endloop
endfacet
facet normal 0.0 0.0 1.0
   outer loop
      vertex 408.700270821943 1197.62214588025 96.4000000000001
      vertex 408.700270821943 1167.12214588025 96.4000000000001
      vertex 413.547288811179 1160.80538905406 96.4000000000001
   endloop
endfacet
facet normal 0.0 0.0 1.0
   outer loop
      vertex 408.700270821943 1197.62214588025 96.4000000000001
      vertex 413.547288811179 1160.80538905406 96.4000000000001
      vertex 413.547288811179 1203.93890270644 96.4000000000001
   endloop
endfacet
facet normal 0.0 0.0 1.0
   outer loop
      vertex 413.547288811179 1203.93890270644 96.4000000000001
      vertex 413.547288811179 1160.80538905406 96.4000000000001
      vertex 419.864045637369 1155.95837106482 96.4000000000001
   endloop
endfacet
facet normal 0.0 0.0 1.0
   outer loop
      vertex 413.547288811179 1203.93890270644 96.4000000000001
      vertex 419.864045637369 1155.95837106482 96.4000000000001
      vertex 419.864045637369 1208.78592069568 96.4000000000001
   endloop
endfacet
facet normal 0.0 0.0 1.0
   outer loop
      vertex 419.864045637369 1208.78592069568 96.4000000000001
      vertex 419.864045637369 1155.95837106482 96.4000000000001
      vertex 427.220064761742 1211.83288358207 96.4000000000001
   endloop
endfacet
facet normal 0.0 0.0 1.0
   outer loop
      vertex 427.220064761742 1211.83288358207 96.4000000000001
      vertex 419.864045637369 1155.95837106482 96.4000000000001
      vertex 427.220064761742 1152.91140817843 96.4000000000001
   endloop
endfacet
facet normal 0.0 0.0 1.0
   outer loop
      vertex 427.220064761742 1211.83288358207 96.4000000000001
      vertex 427.220064761742 1152.91140817843 96.4000000000001
      vertex 435.114045637369 1212.87214588025 96.4000000000001
   endloop
endfacet
facet normal 0.0 0.0 1.0
   outer loop
      vertex 435.114045637369 1212.87214588025 96.4000000000001
      vertex 427.220064761742 1152.91140817843 96.4000000000001
      vertex 435.114045637369 1151.87214588025 96.4000000000001
   endloop
endfacet
facet normal 0.0 0.0 1.0
   outer loop
      vertex 435.114045637369 1212.87214588025 96.4000000000001
      vertex 435.114045637369 1151.87214588025 96.4000000000001
      vertex 443.008026512996 1152.91140817843 96.4000000000001
   endloop
endfacet
facet normal 0.0 0.0 1.0
   outer loop
      vertex 435.114045637369 1212.87214588025 96.4000000000001
      vertex 443.008026512996 1152.91140817843 96.4000000000001
      vertex 443.008026512995 1211.83288358207 96.4000000000001
   endloop
endfacet
facet normal 0.0 0.0 1.0
   outer loop
      vertex 443.008026512995 1211.83288358207 96.4000000000001
      vertex 443.008026512996 1152.91140817843 96.4000000000001
      vertex 450.364045637369 1208.78592069568 96.4000000000001
   endloop
endfacet
facet normal 0.0 0.0 1.0
   outer loop
      vertex 450.364045637369 1208.78592069568 96.4000000000001
      vertex 443.008026512996 1152.91140817843 96.4000000000001
      vertex 450.364045637369 1155.95837106482 96.4000000000001
   endloop
endfacet
facet normal 0.0 0.0 1.0
   outer loop
      vertex 450.364045637369 1208.78592069568 96.4000000000001
      vertex 450.364045637369 1155.95837106482 96.4000000000001
      vertex 456.680802463558 1203.93890270644 96.4000000000001
   endloop
endfacet
facet normal 0.0 0.0 1.0
   outer loop
      vertex 456.680802463558 1203.93890270644 96.4000000000001
      vertex 450.364045637369 1155.95837106482 96.4000000000001
      vertex 456.680802463558 1160.80538905406 96.4000000000001
   endloop
endfacet
facet normal 0.0 0.0 1.0
   outer loop
      vertex 456.680802463558 1203.93890270644 96.4000000000001
      vertex 456.680802463558 1160.80538905406 96.4000000000001
      vertex 461.527820452794 1167.12214588025 96.4000000000001
   endloop
endfacet
facet normal 0.0 0.0 1.0
   outer loop
      vertex 456.680802463558 1203.93890270644 96.4000000000001
      vertex 461.527820452794 1167.12214588025 96.4000000000001
      vertex 461.527820452794 1197.62214588025 96.4000000000001
   endloop
endfacet
facet normal 0.0 0.0 1.0
   outer loop
      vertex 461.527820452794 1197.62214588025 96.4000000000001
      vertex 461.527820452794 1167.12214588025 96.4000000000001
      vertex 464.574783339185 1174.47816500462 96.4000000000001
   endloop
endfacet
facet normal 0.0 0.0 1.0
   outer loop
      vertex 461.527820452794 1197.62214588025 96.4000000000001
      vertex 464.574783339185 1174.47816500462 96.4000000000001
      vertex 464.574783339185 1190.26612675588 96.4000000000001
   endloop
endfacet
facet normal 0.0 0.0 1.0
   outer loop
      vertex 464.574783339185 1190.26612675588 96.4000000000001
      vertex 464.574783339185 1174.47816500462 96.4000000000001
      vertex 465.614045637369 1182.37214588025 96.4000000000001
   endloop
endfacet
facet normal -0.793353340291239 -0.608761429008715 -0.0
   outer loop
      vertex 408.700270821943 1167.12214588025 96.4000000000001
      vertex 413.547288811179 1160.80538905406 26.4000000000001
      vertex 413.547288811179 1160.80538905406 96.4000000000001
   endloop
endfacet
facet normal -0.793353340291239 -0.608761429008715 -0.0
   outer loop
      vertex 413.547288811179 1160.80538905406 26.4000000000001
      vertex 408.700270821943 1167.12214588025 96.4000000000001
      vertex 408.700270821943 1167.12214588025 26.4000000000001
   endloop
endfacet
facet normal -0.60876142900872 -0.793353340291235 -0.0
   outer loop
      vertex 419.864045637369 1155.95837106482 96.4000000000001
      vertex 413.547288811179 1160.80538905406 26.4000000000001
      vertex 419.864045637369 1155.95837106482 26.4000000000001
   endloop
endfacet
facet normal -0.60876142900872 -0.793353340291235 -0.0
   outer loop
      vertex 413.547288811179 1160.80538905406 26.4000000000001
      vertex 419.864045637369 1155.95837106482 96.4000000000001
      vertex 413.547288811179 1160.80538905406 96.4000000000001
   endloop
endfacet
facet normal -0.382683432365083 -0.92387953251129 -0.0
   outer loop
      vertex 427.220064761742 1152.91140817843 96.4000000000001
      vertex 419.864045637369 1155.95837106482 26.4000000000001
      vertex 427.220064761742 1152.91140817843 26.4000000000001
   endloop
endfacet
facet normal -0.382683432365083 -0.92387953251129 -0.0
   outer loop
      vertex 419.864045637369 1155.95837106482 26.4000000000001
      vertex 427.220064761742 1152.91140817843 96.4000000000001
      vertex 419.864045637369 1155.95837106482 96.4000000000001
   endloop
endfacet
facet normal -0.130526192220039 -0.991444861373812 -0.0
   outer loop
      vertex 435.114045637369 1151.87214588025 96.4000000000001
      vertex 427.220064761742 1152.91140817843 26.4000000000001
      vertex 435.114045637369 1151.87214588025 26.4000000000001
   endloop
endfacet
facet normal -0.130526192220039 -0.991444861373812 -0.0
   outer loop
      vertex 427.220064761742 1152.91140817843 26.4000000000001
      vertex 435.114045637369 1151.87214588025 96.4000000000001
      vertex 427.220064761742 1152.91140817843 96.4000000000001
   endloop
endfacet
facet normal 0.130526192220037 -0.991444861373812 0.0
   outer loop
      vertex 443.008026512996 1152.91140817843 96.4000000000001
      vertex 435.114045637369 1151.87214588025 26.4000000000001
      vertex 443.008026512996 1152.91140817843 26.4000000000001
   endloop
endfacet
facet normal 0.130526192220037 -0.991444861373812 0.0
   outer loop
      vertex 435.114045637369 1151.87214588025 26.4000000000001
      vertex 443.008026512996 1152.91140817843 96.4000000000001
      vertex 435.114045637369 1151.87214588025 96.4000000000001
   endloop
endfacet
facet normal 0.382683432365083 -0.92387953251129 0.0
   outer loop
      vertex 450.364045637369 1155.95837106482 96.4000000000001
      vertex 443.008026512996 1152.91140817843 26.4000000000001
      vertex 450.364045637369 1155.95837106482 26.4000000000001
   endloop
endfacet
facet normal 0.382683432365083 -0.92387953251129 0.0
   outer loop
      vertex 443.008026512996 1152.91140817843 26.4000000000001
      vertex 450.364045637369 1155.95837106482 96.4000000000001
      vertex 443.008026512996 1152.91140817843 96.4000000000001
   endloop
endfacet
facet normal 0.608761429008726 -0.793353340291231 0.0
   outer loop
      vertex 456.680802463558 1160.80538905406 96.4000000000001
      vertex 450.364045637369 1155.95837106482 26.4000000000001
      vertex 456.680802463558 1160.80538905406 26.4000000000001
   endloop
endfacet
facet normal 0.608761429008726 -0.793353340291231 0.0
   outer loop
      vertex 450.364045637369 1155.95837106482 26.4000000000001
      vertex 456.680802463558 1160.80538905406 96.4000000000001
      vertex 450.364045637369 1155.95837106482 96.4000000000001
   endloop
endfacet
facet normal 0.793353340291239 -0.608761429008715 0.0
   outer loop
      vertex 461.527820452794 1167.12214588025 26.4000000000001
      vertex 456.680802463558 1160.80538905406 96.4000000000001
      vertex 456.680802463558 1160.80538905406 26.4000000000001
   endloop
endfacet
facet normal 0.793353340291239 -0.608761429008715 0.0
   outer loop
      vertex 456.680802463558 1160.80538905406 96.4000000000001
      vertex 461.527820452794 1167.12214588025 26.4000000000001
      vertex 461.527820452794 1167.12214588025 96.4000000000001
   endloop
endfacet
facet normal 0.923879532511286 -0.382683432365093 0.0
   outer loop
      vertex 464.574783339185 1174.47816500462 26.4000000000001
      vertex 461.527820452794 1167.12214588025 96.4000000000001
      vertex 461.527820452794 1167.12214588025 26.4000000000001
   endloop
endfacet
facet normal 0.923879532511286 -0.382683432365093 0.0
   outer loop
      vertex 461.527820452794 1167.12214588025 96.4000000000001
      vertex 464.574783339185 1174.47816500462 26.4000000000001
      vertex 464.574783339185 1174.47816500462 96.4000000000001
   endloop
endfacet
facet normal 0.99144486137381 -0.13052619222005 0.0
   outer loop
      vertex 465.614045637369 1182.37214588025 26.4000000000001
      vertex 464.574783339185 1174.47816500462 96.4000000000001
      vertex 464.574783339185 1174.47816500462 26.4000000000001
   endloop
endfacet
facet normal 0.99144486137381 -0.13052619222005 0.0
   outer loop
      vertex 464.574783339185 1174.47816500462 96.4000000000001
      vertex 465.614045637369 1182.37214588025 26.4000000000001
      vertex 465.614045637369 1182.37214588025 96.4000000000001
   endloop
endfacet
facet normal 0.99144486137381 0.13052619222005 0.0
   outer loop
      vertex 464.574783339185 1190.26612675588 26.4000000000001
      vertex 465.614045637369 1182.37214588025 96.4000000000001
      vertex 465.614045637369 1182.37214588025 26.4000000000001
   endloop
endfacet
facet normal 0.99144486137381 0.13052619222005 0.0
   outer loop
      vertex 465.614045637369 1182.37214588025 96.4000000000001
      vertex 464.574783339185 1190.26612675588 26.4000000000001
      vertex 464.574783339185 1190.26612675588 96.4000000000001
   endloop
endfacet
facet normal 0.923879532511286 0.382683432365093 0.0
   outer loop
      vertex 461.527820452794 1197.62214588025 26.4000000000001
      vertex 464.574783339185 1190.26612675588 96.4000000000001
      vertex 464.574783339185 1190.26612675588 26.4000000000001
   endloop
endfacet
facet normal 0.923879532511286 0.382683432365093 0.0
   outer loop
      vertex 464.574783339185 1190.26612675588 96.4000000000001
      vertex 461.527820452794 1197.62214588025 26.4000000000001
      vertex 461.527820452794 1197.62214588025 96.4000000000001
   endloop
endfacet
facet normal 0.793353340291239 0.608761429008715 0.0
   outer loop
      vertex 456.680802463558 1203.93890270644 26.4000000000001
      vertex 461.527820452794 1197.62214588025 96.4000000000001
      vertex 461.527820452794 1197.62214588025 26.4000000000001
   endloop
endfacet
facet normal 0.793353340291239 0.608761429008715 0.0
   outer loop
      vertex 461.527820452794 1197.62214588025 96.4000000000001
      vertex 456.680802463558 1203.93890270644 26.4000000000001
      vertex 456.680802463558 1203.93890270644 96.4000000000001
   endloop
endfacet
facet normal 0.60876142900872 0.793353340291235 0.0
   outer loop
      vertex 450.364045637369 1208.78592069568 96.4000000000001
      vertex 456.680802463558 1203.93890270644 26.4000000000001
      vertex 450.364045637369 1208.78592069568 26.4000000000001
   endloop
endfacet
facet normal 0.60876142900872 0.793353340291235 0.0
   outer loop
      vertex 456.680802463558 1203.93890270644 26.4000000000001
      vertex 450.364045637369 1208.78592069568 96.4000000000001
      vertex 456.680802463558 1203.93890270644 96.4000000000001
   endloop
endfacet
facet normal 0.382683432365083 0.92387953251129 0.0
   outer loop
      vertex 443.008026512995 1211.83288358207 96.4000000000001
      vertex 450.364045637369 1208.78592069568 26.4000000000001
      vertex 443.008026512995 1211.83288358207 26.4000000000001
   endloop
endfacet
facet normal 0.382683432365083 0.92387953251129 0.0
   outer loop
      vertex 450.364045637369 1208.78592069568 26.4000000000001
      vertex 443.008026512995 1211.83288358207 96.4000000000001
      vertex 450.364045637369 1208.78592069568 96.4000000000001
   endloop
endfacet
facet normal 0.130526192220039 0.991444861373812 0.0
   outer loop
      vertex 435.114045637369 1212.87214588025 96.4000000000001
      vertex 443.008026512995 1211.83288358207 26.4000000000001
      vertex 435.114045637369 1212.87214588025 26.4000000000001
   endloop
endfacet
facet normal 0.130526192220039 0.991444861373812 0.0
   outer loop
      vertex 443.008026512995 1211.83288358207 26.4000000000001
      vertex 435.114045637369 1212.87214588025 96.4000000000001
      vertex 443.008026512995 1211.83288358207 96.4000000000001
   endloop
endfacet
facet normal -0.130526192220037 0.991444861373812 0.0
   outer loop
      vertex 427.220064761742 1211.83288358207 96.4000000000001
      vertex 435.114045637369 1212.87214588025 26.4000000000001
      vertex 427.220064761742 1211.83288358207 26.4000000000001
   endloop
endfacet
facet normal -0.130526192220037 0.991444861373812 0.0
   outer loop
      vertex 435.114045637369 1212.87214588025 26.4000000000001
      vertex 427.220064761742 1211.83288358207 96.4000000000001
      vertex 435.114045637369 1212.87214588025 96.4000000000001
   endloop
endfacet
facet normal -0.382683432365083 0.92387953251129 0.0
   outer loop
      vertex 419.864045637369 1208.78592069568 96.4000000000001
      vertex 427.220064761742 1211.83288358207 26.4000000000001
      vertex 419.864045637369 1208.78592069568 26.4000000000001
   endloop
endfacet
facet normal -0.382683432365083 0.92387953251129 0.0
   outer loop
      vertex 427.220064761742 1211.83288358207 26.4000000000001
      vertex 419.864045637369 1208.78592069568 96.4000000000001
      vertex 427.220064761742 1211.83288358207 96.4000000000001
   endloop
endfacet
facet normal -0.608761429008726 0.793353340291231 0.0
   outer loop
      vertex 413.547288811179 1203.93890270644 96.4000000000001
      vertex 419.864045637369 1208.78592069568 26.4000000000001
      vertex 413.547288811179 1203.93890270644 26.4000000000001
   endloop
endfacet
facet normal -0.608761429008726 0.793353340291231 0.0
   outer loop
      vertex 419.864045637369 1208.78592069568 26.4000000000001
      vertex 413.547288811179 1203.93890270644 96.4000000000001
      vertex 419.864045637369 1208.78592069568 96.4000000000001
   endloop
endfacet
facet normal -0.793353340291239 0.608761429008715 0.0
   outer loop
      vertex 413.547288811179 1203.93890270644 96.4000000000001
      vertex 408.700270821943 1197.62214588025 26.4000000000001
      vertex 408.700270821943 1197.62214588025 96.4000000000001
   endloop
endfacet
facet normal -0.793353340291239 0.608761429008715 0.0
   outer loop
      vertex 408.700270821943 1197.62214588025 26.4000000000001
      vertex 413.547288811179 1203.93890270644 96.4000000000001
      vertex 413.547288811179 1203.93890270644 26.4000000000001
   endloop
endfacet
facet normal -0.923879532511286 0.382683432365093 0.0
   outer loop
      vertex 408.700270821943 1197.62214588025 96.4000000000001
      vertex 405.653307935552 1190.26612675588 26.4000000000001
      vertex 405.653307935552 1190.26612675588 96.4000000000001
   endloop
endfacet
facet normal -0.923879532511286 0.382683432365093 0.0
   outer loop
      vertex 405.653307935552 1190.26612675588 26.4000000000001
      vertex 408.700270821943 1197.62214588025 96.4000000000001
      vertex 408.700270821943 1197.62214588025 26.4000000000001
   endloop
endfacet
facet normal -0.99144486137381 0.13052619222005 0.0
   outer loop
      vertex 405.653307935552 1190.26612675588 96.4000000000001
      vertex 404.614045637369 1182.37214588025 26.4000000000001
      vertex 404.614045637369 1182.37214588025 96.4000000000001
   endloop
endfacet
facet normal -0.99144486137381 0.13052619222005 0.0
   outer loop
      vertex 404.614045637369 1182.37214588025 26.4000000000001
      vertex 405.653307935552 1190.26612675588 96.4000000000001
      vertex 405.653307935552 1190.26612675588 26.4000000000001
   endloop
endfacet
facet normal -0.99144486137381 -0.13052619222005 -0.0
   outer loop
      vertex 404.614045637369 1182.37214588025 96.4000000000001
      vertex 405.653307935552 1174.47816500462 26.4000000000001
      vertex 405.653307935552 1174.47816500462 96.4000000000001
   endloop
endfacet
facet normal -0.99144486137381 -0.13052619222005 -0.0
   outer loop
      vertex 405.653307935552 1174.47816500462 26.4000000000001
      vertex 404.614045637369 1182.37214588025 96.4000000000001
      vertex 404.614045637369 1182.37214588025 26.4000000000001
   endloop
endfacet
facet normal -0.923879532511286 -0.382683432365093 -0.0
   outer loop
      vertex 405.653307935552 1174.47816500462 96.4000000000001
      vertex 408.700270821943 1167.12214588025 26.4000000000001
      vertex 408.700270821943 1167.12214588025 96.4000000000001
   endloop
endfacet
facet normal -0.923879532511286 -0.382683432365093 -0.0
   outer loop
      vertex 408.700270821943 1167.12214588025 26.4000000000001
      vertex 405.653307935552 1174.47816500462 96.4000000000001
      vertex 405.653307935552 1174.47816500462 26.4000000000001
   endloop
endfacet
endsolid piece2
