solid piece4
facet normal -0.0 1.0 -0.0
   outer loop
      vertex 0.0 1813.253 801.6
      vertex 1813.253 1813.253 0.0
      vertex 0.0 1813.253 0.0
   endloop
endfacet
facet normal -0.0 1.0 -0.0
   outer loop
      vertex 1813.253 1813.253 0.0
      vertex 0.0 1813.253 801.6
      vertex 1813.253 1813.253 801.6
   endloop
endfacet
facet normal -1.0 -1.09321904221457e-022 9.43464555402232e-023
   outer loop
      vertex 0.0 1813.253 801.6
      vertex 0.0 1241.8 318.7
      vertex 0.0 1241.8 801.6
   endloop
endfacet
facet normal -1.0 -1.09321904221457e-022 9.43464555402232e-023
   outer loop
      vertex 4.4668984669047e-019 15.0 801.6
      vertex 0.0 0.0 0.0
      vertex 0.0 0.0 801.6
   endloop
endfacet
facet normal -1.0 -1.09321904221457e-022 9.43464555402232e-023
   outer loop
      vertex 0.0 0.0 0.0
      vertex 4.4668984669047e-019 15.0 801.6
      vertex 4.4668984669047e-019 15.0 318.7
   endloop
endfacet
facet normal -1.0 -1.09321904221457e-022 9.43464555402232e-023
   outer loop
      vertex 0.0 0.0 0.0
      vertex 4.4668984669047e-019 15.0 318.7
      vertex 0.0 1813.253 0.0
   endloop
endfacet
facet normal -1.0 -1.09321904221457e-022 9.43464555402232e-023
   outer loop
      vertex 0.0 1813.253 0.0
      vertex 4.4668984669047e-019 15.0 318.7
      vertex 0.0 1241.8 318.7
   endloop
endfacet
facet normal -1.0 -1.09321904221457e-022 9.43464555402232e-023
   outer loop
      vertex 0.0 1813.253 0.0
      vertex 0.0 1241.8 318.7
      vertex 0.0 1813.253 801.6
   endloop
endfacet
facet normal 1.0 0.0 0.0
   outer loop
      vertex 1813.253 0.0 0.0
      vertex 1813.253 15.0 318.7
      vertex 1813.253 0.0 801.6
   endloop
endfacet
facet normal 1.0 0.0 0.0
   outer loop
      vertex 1813.253 15.0 318.7
      vertex 1813.253 0.0 0.0
      vertex 1813.253 1813.253 0.0
   endloop
endfacet
facet normal 1.0 0.0 0.0
   outer loop
      vertex 1813.253 15.0 318.7
      vertex 1813.253 1813.253 0.0
      vertex 1813.253 1241.8 318.7
   endloop
endfacet
facet normal 1.0 0.0 0.0
   outer loop
      vertex 1813.253 1241.8 318.7
      vertex 1813.253 1813.253 0.0
      vertex 1813.253 1241.8 801.6
   endloop
endfacet
facet normal 1.0 0.0 0.0
   outer loop
      vertex 1813.253 1241.8 801.6
      vertex 1813.253 1813.253 0.0
      vertex 1813.253 1813.253 801.6
   endloop
endfacet
facet normal 1.0 0.0 0.0
   outer loop
      vertex 1813.253 15.0 801.6
      vertex 1813.253 0.0 801.6
      vertex 1813.253 15.0 318.7
   endloop
endfacet
facet normal 0.0 0.0 1.0
   outer loop
      vertex 4.4668984669047e-019 15.0 318.7
      vertex 21.1448448756665 1241.8 318.7
      vertex 0.0 1241.8 318.7
   endloop
endfacet
facet normal 0.0 0.0 1.0
   outer loop
      vertex 21.1448448756665 1241.8 318.7
      vertex 4.4668984669047e-019 15.0 318.7
      vertex 21.1448448756665 15.0 318.7
   endloop
endfacet
facet normal 0.0 -1.0 0.0
   outer loop
      vertex 21.1448448756665 1241.8 801.6
      vertex 0.0 1241.8 318.7
      vertex 21.1448448756665 1241.8 318.7
   endloop
endfacet
facet normal 0.0 -1.0 0.0
   outer loop
      vertex 0.0 1241.8 318.7
      vertex 21.1448448756665 1241.8 801.6
      vertex 0.0 1241.8 801.6
   endloop
endfacet
facet normal 0.0 0.0 1.0
   outer loop
      vertex 1813.253 15.0 318.7
      vertex 1791.00815512433 1241.8 318.7
      vertex 1791.00815512433 15.0 318.7
   endloop
endfacet
facet normal 0.0 0.0 1.0
   outer loop
      vertex 1791.00815512433 1241.8 318.7
      vertex 1813.253 15.0 318.7
      vertex 1813.253 1241.8 318.7
   endloop
endfacet
facet normal 0.0 -1.0 0.0
   outer loop
      vertex 1813.253 1241.8 801.6
      vertex 1791.00815512433 1241.8 318.7
      vertex 1813.253 1241.8 318.7
   endloop
endfacet
facet normal 0.0 -1.0 0.0
   outer loop
      vertex 1791.00815512433 1241.8 318.7
      vertex 1813.253 1241.8 801.6
      vertex 1791.00815512433 1241.8 801.6
   endloop
endfacet
facet normal -1.0 0.0 0.0
   outer loop
      vertex 1791.00815512433 1789.90815512433 801.6
      vertex 1791.00815512433 1241.8 318.7
      vertex 1791.00815512433 1241.8 801.6
   endloop
endfacet
facet normal -1.0 0.0 0.0
   outer loop
      vertex 1791.00815512433 1241.8 318.7
      vertex 1791.00815512433 15.0 26.4
      vertex 1791.00815512433 15.0 318.7
   endloop
endfacet
facet normal -1.0 0.0 0.0
   outer loop
      vertex 1791.00815512433 15.0 26.4
      vertex 1791.00815512433 1241.8 318.7
      vertex 1791.00815512433 1789.90815512433 26.4
   endloop
endfacet
facet normal -1.0 0.0 0.0
   outer loop
      vertex 1791.00815512433 1789.90815512433 26.4
      vertex 1791.00815512433 1241.8 318.7
      vertex 1791.00815512433 1789.90815512433 801.6
   endloop
endfacet
facet normal 1.0 -5.98464549737794e-018 4.19338444935329e-018
   outer loop
      vertex 21.1448448756665 1789.90815512433 26.4
      vertex 21.1448448756665 15.0 318.7
      vertex 21.1448448756665 15.0 26.4
   endloop
endfacet
facet normal 1.0 -5.98464549737794e-018 4.19338444935329e-018
   outer loop
      vertex 21.1448448756665 15.0 318.7
      vertex 21.1448448756665 1789.90815512433 26.4
      vertex 21.1448448756665 1241.8 318.7
   endloop
endfacet
facet normal 1.0 -5.98464549737794e-018 4.19338444935329e-018
   outer loop
      vertex 21.1448448756665 1241.8 318.7
      vertex 21.1448448756665 1789.90815512433 26.4
      vertex 21.1448448756665 1241.8 801.6
   endloop
endfacet
facet normal 1.0 -5.98464549737794e-018 4.19338444935329e-018
   outer loop
      vertex 21.1448448756665 1241.8 801.6
      vertex 21.1448448756665 1789.90815512433 26.4
      vertex 21.1448448756665 1789.90815512433 801.6
   endloop
endfacet
facet normal 0.0 0.0 -1.0
   outer loop
      vertex 0.0 1813.253 0.0
      vertex 413.811258861167 1315.95396389768 3.38395977905748e-014
      vertex 0.0 0.0 0.0
   endloop
endfacet
facet normal 0.0 0.0 -1.0
   outer loop
      vertex 413.811258861167 1315.95396389768 3.38395977905748e-014
      vertex 0.0 1813.253 0.0
      vertex 1813.253 1813.253 0.0
   endloop
endfacet
facet normal 0.0 0.0 -1.0
   outer loop
      vertex 413.811258861167 1315.95396389768 3.38395977905748e-014
      vertex 1813.253 1813.253 0.0
      vertex 679.209600179918 1315.95396389768 3.38395977905748e-014
   endloop
endfacet
facet normal 0.0 0.0 -1.0
   outer loop
      vertex 679.209600179918 1315.95396389768 3.38395977905748e-014
      vertex 1813.253 1813.253 0.0
      vertex 727.411258861167 1315.95396389768 4.22994972382185e-015
   endloop
endfacet
facet normal 0.0 0.0 -1.0
   outer loop
      vertex 679.209600179918 1315.95396389768 3.38395977905748e-014
      vertex 727.411258861167 1315.95396389768 4.22994972382185e-015
      vertex 679.209600179918 808.538505025716 3.38395977905748e-014
   endloop
endfacet
facet normal 0.0 0.0 -1.0
   outer loop
      vertex 727.411258861167 1315.95396389768 4.22994972382185e-015
      vertex 1813.253 1813.253 0.0
      vertex 972.121409892262 1315.95396389768 4.22994972382185e-015
   endloop
endfacet
facet normal 0.0 0.0 -1.0
   outer loop
      vertex 972.121409892262 1315.95396389768 4.22994972382185e-015
      vertex 1813.253 1813.253 0.0
      vertex 1023.1026431508 1315.95396389768 1.40998324127395e-015
   endloop
endfacet
facet normal 0.0 0.0 -1.0
   outer loop
      vertex 972.121409892262 1315.95396389768 4.22994972382185e-015
      vertex 1023.1026431508 1315.95396389768 1.40998324127395e-015
      vertex 972.121409892262 808.538505025716 4.22994972382185e-015
   endloop
endfacet
facet normal 0.0 0.0 -1.0
   outer loop
      vertex 1023.1026431508 1315.95396389768 1.40998324127395e-015
      vertex 1813.253 1813.253 0.0
      vertex 1285.72140989226 1315.95396389768 1.40998324127395e-015
   endloop
endfacet
facet normal 0.0 0.0 -1.0
   outer loop
      vertex 1285.72140989226 1315.95396389768 1.40998324127395e-015
      vertex 1813.253 1813.253 0.0
      vertex 1285.72140989226 808.538505025716 1.40998324127395e-015
   endloop
endfacet
facet normal 0.0 0.0 -1.0
   outer loop
      vertex 1285.72140989226 808.538505025716 1.40998324127395e-015
      vertex 1813.253 1813.253 0.0
      vertex 1489.43236560855 0.0 0.0
   endloop
endfacet
facet normal 0.0 0.0 -1.0
   outer loop
      vertex 1489.43236560855 0.0 0.0
      vertex 1813.253 1813.253 0.0
      vertex 1813.253 0.0 0.0
   endloop
endfacet
facet normal 0.0 0.0 -1.0
   outer loop
      vertex 0.0 0.0 0.0
      vertex 413.811258861167 808.538505025716 3.38395977905748e-014
      vertex 806.496167110117 0.0 0.0
   endloop
endfacet
facet normal 0.0 0.0 -1.0
   outer loop
      vertex 413.811258861167 808.538505025716 3.38395977905748e-014
      vertex 0.0 0.0 0.0
      vertex 413.811258861167 1315.95396389768 3.38395977905748e-014
   endloop
endfacet
facet normal 0.0 0.0 -1.0
   outer loop
      vertex 806.496167110117 0.0 0.0
      vertex 413.811258861167 808.538505025716 3.38395977905748e-014
      vertex 679.209600179918 808.538505025716 3.38395977905748e-014
   endloop
endfacet
facet normal 0.0 0.0 -1.0
   outer loop
      vertex 806.496167110117 0.0 0.0
      vertex 679.209600179918 808.538505025716 3.38395977905748e-014
      vertex 727.411258861167 808.538505025716 4.22994972382185e-015
   endloop
endfacet
facet normal 0.0 0.0 -1.0
   outer loop
      vertex 727.411258861167 808.538505025716 4.22994972382185e-015
      vertex 679.209600179918 808.538505025716 3.38395977905748e-014
      vertex 727.411258861167 1315.95396389768 4.22994972382185e-015
   endloop
endfacet
facet normal 0.0 0.0 -1.0
   outer loop
      vertex 806.496167110117 0.0 0.0
      vertex 727.411258861167 808.538505025716 4.22994972382185e-015
      vertex 972.121409892262 808.538505025716 4.22994972382185e-015
   endloop
endfacet
facet normal 0.0 0.0 -1.0
   outer loop
      vertex 806.496167110117 0.0 0.0
      vertex 972.121409892262 808.538505025716 4.22994972382185e-015
      vertex 1489.43236560855 0.0 0.0
   endloop
endfacet
facet normal 0.0 0.0 -1.0
   outer loop
      vertex 1489.43236560855 0.0 0.0
      vertex 972.121409892262 808.538505025716 4.22994972382185e-015
      vertex 1023.1026431508 808.538505025716 1.40998324127395e-015
   endloop
endfacet
facet normal 0.0 0.0 -1.0
   outer loop
      vertex 1023.1026431508 808.538505025716 1.40998324127395e-015
      vertex 972.121409892262 808.538505025716 4.22994972382185e-015
      vertex 1023.1026431508 1315.95396389768 1.40998324127395e-015
   endloop
endfacet
facet normal 0.0 0.0 -1.0
   outer loop
      vertex 1489.43236560855 0.0 0.0
      vertex 1023.1026431508 808.538505025716 1.40998324127395e-015
      vertex 1285.72140989226 808.538505025716 1.40998324127395e-015
   endloop
endfacet
facet normal -7.93217998166253e-016 -1.0 -2.99328106054349e-016
   outer loop
      vertex 1813.253 0.0 801.6
      vertex 1489.43236560855 0.0 0.0
      vertex 1813.253 0.0 0.0
   endloop
endfacet
facet normal -7.93217998166253e-016 -1.0 -2.99328106054349e-016
   outer loop
      vertex 1489.43236560855 0.0 0.0
      vertex 1813.253 0.0 801.6
      vertex 1489.43236560855 8.82649509037492e-013 26.4
   endloop
endfacet
facet normal -7.93217998166253e-016 -1.0 -2.99328106054349e-016
   outer loop
      vertex 1489.43236560855 8.82649509037492e-013 26.4
      vertex 1813.253 0.0 801.6
      vertex 1489.43236560855 0.0 801.6
   endloop
endfacet
facet normal -0.0 -0.0 1.0
   outer loop
      vertex 1813.253 0.0 801.6
      vertex 1489.43236560855 15.0 801.6
      vertex 1489.43236560855 0.0 801.6
   endloop
endfacet
facet normal -0.0 -0.0 1.0
   outer loop
      vertex 1489.43236560855 15.0 801.6
      vertex 1813.253 0.0 801.6
      vertex 1813.253 15.0 801.6
   endloop
endfacet
facet normal -0.0 -0.0 1.0
   outer loop
      vertex 1813.253 1241.8 801.6
      vertex 1791.00815512433 1789.90815512433 801.6
      vertex 1791.00815512433 1241.8 801.6
   endloop
endfacet
facet normal -0.0 -0.0 1.0
   outer loop
      vertex 21.1448448756665 1241.8 801.6
      vertex 0.0 1813.253 801.6
      vertex 0.0 1241.8 801.6
   endloop
endfacet
facet normal -0.0 -0.0 1.0
   outer loop
      vertex 0.0 1813.253 801.6
      vertex 21.1448448756665 1241.8 801.6
      vertex 21.1448448756665 1789.90815512433 801.6
   endloop
endfacet
facet normal -0.0 -0.0 1.0
   outer loop
      vertex 0.0 1813.253 801.6
      vertex 21.1448448756665 1789.90815512433 801.6
      vertex 1813.253 1813.253 801.6
   endloop
endfacet
facet normal -0.0 -0.0 1.0
   outer loop
      vertex 1813.253 1813.253 801.6
      vertex 21.1448448756665 1789.90815512433 801.6
      vertex 1791.00815512433 1789.90815512433 801.6
   endloop
endfacet
facet normal -0.0 -0.0 1.0
   outer loop
      vertex 1813.253 1813.253 801.6
      vertex 1791.00815512433 1789.90815512433 801.6
      vertex 1813.253 1241.8 801.6
   endloop
endfacet
facet normal 1.10762775372423e-015 1.0 1.49178753329485e-017
   outer loop
      vertex 4.4668984669047e-019 15.0 801.6
      vertex 21.1448448756665 15.0 318.7
      vertex 4.4668984669047e-019 15.0 318.7
   endloop
endfacet
facet normal 1.10762775372423e-015 1.0 1.49178753329485e-017
   outer loop
      vertex 21.1448448756665 15.0 318.7
      vertex 806.496167110116 14.9999999999991 26.4
      vertex 21.1448448756665 15.0 26.4
   endloop
endfacet
facet normal 1.10762775372423e-015 1.0 1.49178753329485e-017
   outer loop
      vertex 806.496167110116 14.9999999999991 26.4
      vertex 21.1448448756665 15.0 318.7
      vertex 806.496167110116 14.9999999999991 801.6
   endloop
endfacet
facet normal 1.10762775372423e-015 1.0 1.49178753329485e-017
   outer loop
      vertex 806.496167110116 14.9999999999991 801.6
      vertex 21.1448448756665 15.0 318.7
      vertex 4.4668984669047e-019 15.0 801.6
   endloop
endfacet
facet normal -0.0 1.0 -0.0
   outer loop
      vertex 1489.43236560855 15.0 801.6
      vertex 1791.00815512433 15.0 26.4
      vertex 1489.43236560855 15.0 26.4
   endloop
endfacet
facet normal -0.0 1.0 -0.0
   outer loop
      vertex 1791.00815512433 15.0 26.4
      vertex 1489.43236560855 15.0 801.6
      vertex 1791.00815512433 15.0 318.7
   endloop
endfacet
facet normal -0.0 1.0 -0.0
   outer loop
      vertex 1791.00815512433 15.0 318.7
      vertex 1489.43236560855 15.0 801.6
      vertex 1813.253 15.0 318.7
   endloop
endfacet
facet normal -0.0 1.0 -0.0
   outer loop
      vertex 1813.253 15.0 318.7
      vertex 1489.43236560855 15.0 801.6
      vertex 1813.253 15.0 801.6
   endloop
endfacet
facet normal 0.0 -1.0 0.0
   outer loop
      vertex 1791.00815512433 1789.90815512433 801.6
      vertex 21.1448448756665 1789.90815512433 26.4
      vertex 1791.00815512433 1789.90815512433 26.4
   endloop
endfacet
facet normal 0.0 -1.0 0.0
   outer loop
      vertex 21.1448448756665 1789.90815512433 26.4
      vertex 1791.00815512433 1789.90815512433 801.6
      vertex 21.1448448756665 1789.90815512433 801.6
   endloop
endfacet
facet normal -0.0 -0.0 1.0
   outer loop
      vertex 806.496167110117 0.0 801.6
      vertex 4.4668984669047e-019 15.0 801.6
      vertex 0.0 0.0 801.6
   endloop
endfacet
facet normal -0.0 -0.0 1.0
   outer loop
      vertex 4.4668984669047e-019 15.0 801.6
      vertex 806.496167110117 0.0 801.6
      vertex 806.496167110116 14.9999999999991 801.6
   endloop
endfacet
facet normal 0.0 -1.0 0.0
   outer loop
      vertex 806.496167110116 0.0 26.4
      vertex 0.0 0.0 0.0
      vertex 806.496167110117 0.0 0.0
   endloop
endfacet
facet normal 0.0 -1.0 0.0
   outer loop
      vertex 0.0 0.0 0.0
      vertex 806.496167110116 0.0 26.4
      vertex 0.0 0.0 801.6
   endloop
endfacet
facet normal 0.0 -1.0 0.0
   outer loop
      vertex 0.0 0.0 801.6
      vertex 806.496167110116 0.0 26.4
      vertex 806.496167110117 0.0 801.6
   endloop
endfacet
facet normal 4.30811111871636e-016 -1.0 -2.65604742865647e-016
   outer loop
      vertex 1489.43236560855 8.82649509037492e-013 26.4
      vertex 806.496167110117 0.0 0.0
      vertex 1489.43236560855 0.0 0.0
   endloop
endfacet
facet normal 4.30811111871636e-016 -1.0 -2.65604742865647e-016
   outer loop
      vertex 806.496167110117 0.0 0.0
      vertex 1489.43236560855 8.82649509037492e-013 26.4
      vertex 806.496167110116 0.0 26.4
   endloop
endfacet
facet normal -1.0 0.0 0.0
   outer loop
      vertex 1489.43236560855 15.0 801.6
      vertex 1489.43236560855 8.82649509037492e-013 26.4
      vertex 1489.43236560855 0.0 801.6
   endloop
endfacet
facet normal -1.0 0.0 0.0
   outer loop
      vertex 1489.43236560855 8.82649509037492e-013 26.4
      vertex 1489.43236560855 15.0 801.6
      vertex 1489.43236560855 15.0 26.4
   endloop
endfacet
facet normal 1.0 6.01592849610254e-015 -1.16407285141296e-016
   outer loop
      vertex 806.496167110116 14.9999999999991 26.4
      vertex 806.496167110117 0.0 801.6
      vertex 806.496167110116 0.0 26.4
   endloop
endfacet
facet normal 1.0 6.01592849610254e-015 -1.16407285141296e-016
   outer loop
      vertex 806.496167110117 0.0 801.6
      vertex 806.496167110116 14.9999999999991 26.4
      vertex 806.496167110116 14.9999999999991 801.6
   endloop
endfacet
facet normal -0.0 -0.0 1.0
   outer loop
      vertex 1489.43236560855 8.82649509037492e-013 26.4
      vertex 806.496167110116 14.9999999999991 26.4
      vertex 806.496167110116 0.0 26.4
   endloop
endfacet
facet normal -0.0 -0.0 1.0
   outer loop
      vertex 806.496167110116 14.9999999999991 26.4
      vertex 1489.43236560855 8.82649509037492e-013 26.4
      vertex 1369.68286549964 740.016318048094 26.3999999999998
   endloop
endfacet
facet normal -0.0 -0.0 1.0
   outer loop
      vertex 1369.68286549964 740.016318048094 26.3999999999998
      vertex 1489.43236560855 8.82649509037492e-013 26.4
      vertex 1369.68286549964 1386.31631804809 26.3999999999998
   endloop
endfacet
facet normal -0.0 -0.0 1.0
   outer loop
      vertex 21.1448448756665 1789.90815512433 26.4
      vertex 323.94749857058 1386.31631804809 26.3999999999998
      vertex 1791.00815512433 1789.90815512433 26.4
   endloop
endfacet
facet normal -0.0 -0.0 1.0
   outer loop
      vertex 323.94749857058 1386.31631804809 26.3999999999998
      vertex 21.1448448756665 1789.90815512433 26.4
      vertex 323.94749857058 740.016318048094 26.3999999999998
   endloop
endfacet
facet normal -0.0 -0.0 1.0
   outer loop
      vertex 1791.00815512433 1789.90815512433 26.4
      vertex 323.94749857058 1386.31631804809 26.3999999999998
      vertex 1369.68286549964 1386.31631804809 26.3999999999998
   endloop
endfacet
facet normal -0.0 -0.0 1.0
   outer loop
      vertex 1791.00815512433 1789.90815512433 26.4
      vertex 1369.68286549964 1386.31631804809 26.3999999999998
      vertex 1489.43236560855 15.0 26.4
   endloop
endfacet
facet normal -0.0 -0.0 1.0
   outer loop
      vertex 1489.43236560855 15.0 26.4
      vertex 1369.68286549964 1386.31631804809 26.3999999999998
      vertex 1489.43236560855 8.82649509037492e-013 26.4
   endloop
endfacet
facet normal -0.0 -0.0 1.0
   outer loop
      vertex 1791.00815512433 1789.90815512433 26.4
      vertex 1489.43236560855 15.0 26.4
      vertex 1791.00815512433 15.0 26.4
   endloop
endfacet
facet normal -0.0 -0.0 1.0
   outer loop
      vertex 21.1448448756665 15.0 26.4
      vertex 323.94749857058 740.016318048094 26.3999999999998
      vertex 21.1448448756665 1789.90815512433 26.4
   endloop
endfacet
facet normal -0.0 -0.0 1.0
   outer loop
      vertex 323.94749857058 740.016318048094 26.3999999999998
      vertex 21.1448448756665 15.0 26.4
      vertex 806.496167110116 14.9999999999991 26.4
   endloop
endfacet
facet normal -0.0 -0.0 1.0
   outer loop
      vertex 323.94749857058 740.016318048094 26.3999999999998
      vertex 806.496167110116 14.9999999999991 26.4
      vertex 1369.68286549964 740.016318048094 26.3999999999998
   endloop
endfacet
facet normal -0.0 1.0 -0.0
   outer loop
      vertex 413.811258861167 808.538505025716 41.1999999999998
      vertex 679.209600179918 808.538505025716 3.38395977905748e-014
      vertex 413.811258861167 808.538505025716 3.38395977905748e-014
   endloop
endfacet
facet normal -0.0 1.0 -0.0
   outer loop
      vertex 679.209600179918 808.538505025716 3.38395977905748e-014
      vertex 413.811258861167 808.538505025716 41.1999999999998
      vertex 679.209600179918 808.538505025716 41.1999999999998
   endloop
endfacet
facet normal -1.0 0.0 -0.0
   outer loop
      vertex 679.209600179918 1315.95396389768 41.1999999999998
      vertex 679.209600179918 808.538505025716 3.38395977905748e-014
      vertex 679.209600179918 808.538505025716 41.1999999999998
   endloop
endfacet
facet normal -1.0 0.0 -0.0
   outer loop
      vertex 679.209600179918 808.538505025716 3.38395977905748e-014
      vertex 679.209600179918 1315.95396389768 41.1999999999998
      vertex 679.209600179918 1315.95396389768 3.38395977905748e-014
   endloop
endfacet
facet normal -0.0 -1.0 -0.0
   outer loop
      vertex 679.209600179918 1315.95396389768 41.1999999999998
      vertex 413.811258861167 1315.95396389768 3.38395977905748e-014
      vertex 679.209600179918 1315.95396389768 3.38395977905748e-014
   endloop
endfacet
facet normal -0.0 -1.0 -0.0
   outer loop
      vertex 413.811258861167 1315.95396389768 3.38395977905748e-014
      vertex 679.209600179918 1315.95396389768 41.1999999999998
      vertex 413.811258861167 1315.95396389768 41.1999999999998
   endloop
endfacet
facet normal 1.0 0.0 0.0
   outer loop
      vertex 413.811258861167 1315.95396389768 3.38395977905748e-014
      vertex 413.811258861167 808.538505025716 41.1999999999998
      vertex 413.811258861167 808.538505025716 3.38395977905748e-014
   endloop
endfacet
facet normal 1.0 0.0 0.0
   outer loop
      vertex 413.811258861167 808.538505025716 41.1999999999998
      vertex 413.811258861167 1315.95396389768 3.38395977905748e-014
      vertex 413.811258861167 1315.95396389768 41.1999999999998
   endloop
endfacet
facet normal -0.0 1.0 -0.0
   outer loop
      vertex 727.411258861167 808.538505025716 41.1999999999998
      vertex 972.121409892262 808.538505025716 4.22994972382185e-015
      vertex 727.411258861167 808.538505025716 4.22994972382185e-015
   endloop
endfacet
facet normal -0.0 1.0 -0.0
   outer loop
      vertex 972.121409892262 808.538505025716 4.22994972382185e-015
      vertex 727.411258861167 808.538505025716 41.1999999999998
      vertex 972.121409892262 808.538505025716 41.1999999999998
   endloop
endfacet
facet normal -1.0 0.0 -0.0
   outer loop
      vertex 972.121409892262 1315.95396389768 41.1999999999998
      vertex 972.121409892262 808.538505025716 4.22994972382185e-015
      vertex 972.121409892262 808.538505025716 41.1999999999998
   endloop
endfacet
facet normal -1.0 0.0 -0.0
   outer loop
      vertex 972.121409892262 808.538505025716 4.22994972382185e-015
      vertex 972.121409892262 1315.95396389768 41.1999999999998
      vertex 972.121409892262 1315.95396389768 4.22994972382185e-015
   endloop
endfacet
facet normal -0.0 -1.0 -0.0
   outer loop
      vertex 972.121409892262 1315.95396389768 41.1999999999998
      vertex 727.411258861167 1315.95396389768 4.22994972382185e-015
      vertex 972.121409892262 1315.95396389768 4.22994972382185e-015
   endloop
endfacet
facet normal -0.0 -1.0 -0.0
   outer loop
      vertex 727.411258861167 1315.95396389768 4.22994972382185e-015
      vertex 972.121409892262 1315.95396389768 41.1999999999998
      vertex 727.411258861167 1315.95396389768 41.1999999999998
   endloop
endfacet
facet normal 1.0 0.0 0.0
   outer loop
      vertex 727.411258861167 1315.95396389768 4.22994972382185e-015
      vertex 727.411258861167 808.538505025716 41.1999999999998
      vertex 727.411258861167 808.538505025716 4.22994972382185e-015
   endloop
endfacet
facet normal 1.0 0.0 0.0
   outer loop
      vertex 727.411258861167 808.538505025716 41.1999999999998
      vertex 727.411258861167 1315.95396389768 4.22994972382185e-015
      vertex 727.411258861167 1315.95396389768 41.1999999999998
   endloop
endfacet
facet normal -0.0 -1.0 -0.0
   outer loop
      vertex 1285.72140989226 1315.95396389768 41.1999999999998
      vertex 1023.1026431508 1315.95396389768 1.40998324127395e-015
      vertex 1285.72140989226 1315.95396389768 1.40998324127395e-015
   endloop
endfacet
facet normal -0.0 -1.0 -0.0
   outer loop
      vertex 1023.1026431508 1315.95396389768 1.40998324127395e-015
      vertex 1285.72140989226 1315.95396389768 41.1999999999998
      vertex 1023.1026431508 1315.95396389768 41.1999999999998
   endloop
endfacet
facet normal 1.0 0.0 0.0
   outer loop
      vertex 1023.1026431508 1315.95396389768 1.40998324127395e-015
      vertex 1023.1026431508 808.538505025716 41.1999999999998
      vertex 1023.1026431508 808.538505025716 1.40998324127395e-015
   endloop
endfacet
facet normal 1.0 0.0 0.0
   outer loop
      vertex 1023.1026431508 808.538505025716 41.1999999999998
      vertex 1023.1026431508 1315.95396389768 1.40998324127395e-015
      vertex 1023.1026431508 1315.95396389768 41.1999999999998
   endloop
endfacet
facet normal -0.0 1.0 -0.0
   outer loop
      vertex 1023.1026431508 808.538505025716 41.1999999999998
      vertex 1285.72140989226 808.538505025716 1.40998324127395e-015
      vertex 1023.1026431508 808.538505025716 1.40998324127395e-015
   endloop
endfacet
facet normal -0.0 1.0 -0.0
   outer loop
      vertex 1285.72140989226 808.538505025716 1.40998324127395e-015
      vertex 1023.1026431508 808.538505025716 41.1999999999998
      vertex 1285.72140989226 808.538505025716 41.1999999999998
   endloop
endfacet
facet normal -1.0 0.0 -0.0
   outer loop
      vertex 1285.72140989226 1315.95396389768 41.1999999999998
      vertex 1285.72140989226 808.538505025716 1.40998324127395e-015
      vertex 1285.72140989226 808.538505025716 41.1999999999998
   endloop
endfacet
facet normal -1.0 0.0 -0.0
   outer loop
      vertex 1285.72140989226 808.538505025716 1.40998324127395e-015
      vertex 1285.72140989226 1315.95396389768 41.1999999999998
      vertex 1285.72140989226 1315.95396389768 1.40998324127395e-015
   endloop
endfacet
facet normal 0.0 0.0 1.0
   outer loop
      vertex 323.94749857058 740.016318048094 41.1999999999998
      vertex 413.811258861167 808.538505025716 41.1999999999998
      vertex 323.94749857058 1386.31631804809 41.1999999999998
   endloop
endfacet
facet normal 0.0 0.0 1.0
   outer loop
      vertex 413.811258861167 808.538505025716 41.1999999999998
      vertex 323.94749857058 740.016318048094 41.1999999999998
      vertex 1369.68286549964 740.016318048094 41.1999999999998
   endloop
endfacet
facet normal 0.0 0.0 1.0
   outer loop
      vertex 413.811258861167 808.538505025716 41.1999999999998
      vertex 1369.68286549964 740.016318048094 41.1999999999998
      vertex 679.209600179918 808.538505025716 41.1999999999998
   endloop
endfacet
facet normal 0.0 0.0 1.0
   outer loop
      vertex 679.209600179918 808.538505025716 41.1999999999998
      vertex 1369.68286549964 740.016318048094 41.1999999999998
      vertex 727.411258861167 808.538505025716 41.1999999999998
   endloop
endfacet
facet normal 0.0 0.0 1.0
   outer loop
      vertex 679.209600179918 808.538505025716 41.1999999999998
      vertex 727.411258861167 808.538505025716 41.1999999999998
      vertex 679.209600179918 1315.95396389768 41.1999999999998
   endloop
endfacet
facet normal 0.0 0.0 1.0
   outer loop
      vertex 727.411258861167 808.538505025716 41.1999999999998
      vertex 1369.68286549964 740.016318048094 41.1999999999998
      vertex 972.121409892262 808.538505025716 41.1999999999998
   endloop
endfacet
facet normal 0.0 0.0 1.0
   outer loop
      vertex 972.121409892262 808.538505025716 41.1999999999998
      vertex 1369.68286549964 740.016318048094 41.1999999999998
      vertex 1023.1026431508 808.538505025716 41.1999999999998
   endloop
endfacet
facet normal 0.0 0.0 1.0
   outer loop
      vertex 972.121409892262 808.538505025716 41.1999999999998
      vertex 1023.1026431508 808.538505025716 41.1999999999998
      vertex 972.121409892262 1315.95396389768 41.1999999999998
   endloop
endfacet
facet normal 0.0 0.0 1.0
   outer loop
      vertex 1023.1026431508 808.538505025716 41.1999999999998
      vertex 1369.68286549964 740.016318048094 41.1999999999998
      vertex 1285.72140989226 808.538505025716 41.1999999999998
   endloop
endfacet
facet normal 0.0 0.0 1.0
   outer loop
      vertex 1285.72140989226 808.538505025716 41.1999999999998
      vertex 1369.68286549964 740.016318048094 41.1999999999998
      vertex 1285.72140989226 1315.95396389768 41.1999999999998
   endloop
endfacet
facet normal 0.0 0.0 1.0
   outer loop
      vertex 323.94749857058 1386.31631804809 41.1999999999998
      vertex 413.811258861167 1315.95396389768 41.1999999999998
      vertex 1369.68286549964 1386.31631804809 41.1999999999998
   endloop
endfacet
facet normal 0.0 0.0 1.0
   outer loop
      vertex 413.811258861167 1315.95396389768 41.1999999999998
      vertex 323.94749857058 1386.31631804809 41.1999999999998
      vertex 413.811258861167 808.538505025716 41.1999999999998
   endloop
endfacet
facet normal 0.0 0.0 1.0
   outer loop
      vertex 1369.68286549964 1386.31631804809 41.1999999999998
      vertex 413.811258861167 1315.95396389768 41.1999999999998
      vertex 679.209600179918 1315.95396389768 41.1999999999998
   endloop
endfacet
facet normal 0.0 0.0 1.0
   outer loop
      vertex 1369.68286549964 1386.31631804809 41.1999999999998
      vertex 679.209600179918 1315.95396389768 41.1999999999998
      vertex 727.411258861167 1315.95396389768 41.1999999999998
   endloop
endfacet
facet normal 0.0 0.0 1.0
   outer loop
      vertex 727.411258861167 1315.95396389768 41.1999999999998
      vertex 679.209600179918 1315.95396389768 41.1999999999998
      vertex 727.411258861167 808.538505025716 41.1999999999998
   endloop
endfacet
facet normal 0.0 0.0 1.0
   outer loop
      vertex 1369.68286549964 1386.31631804809 41.1999999999998
      vertex 727.411258861167 1315.95396389768 41.1999999999998
      vertex 972.121409892262 1315.95396389768 41.1999999999998
   endloop
endfacet
facet normal 0.0 0.0 1.0
   outer loop
      vertex 1369.68286549964 1386.31631804809 41.1999999999998
      vertex 972.121409892262 1315.95396389768 41.1999999999998
      vertex 1023.1026431508 1315.95396389768 41.1999999999998
   endloop
endfacet
facet normal 0.0 0.0 1.0
   outer loop
      vertex 1023.1026431508 1315.95396389768 41.1999999999998
      vertex 972.121409892262 1315.95396389768 41.1999999999998
      vertex 1023.1026431508 808.538505025716 41.1999999999998
   endloop
endfacet
facet normal 0.0 0.0 1.0
   outer loop
      vertex 1369.68286549964 1386.31631804809 41.1999999999998
      vertex 1023.1026431508 1315.95396389768 41.1999999999998
      vertex 1285.72140989226 1315.95396389768 41.1999999999998
   endloop
endfacet
facet normal 0.0 0.0 1.0
   outer loop
      vertex 1369.68286549964 1386.31631804809 41.1999999999998
      vertex 1285.72140989226 1315.95396389768 41.1999999999998
      vertex 1369.68286549964 740.016318048094 41.1999999999998
   endloop
endfacet
facet normal 1.0 -0.0 0.0
   outer loop
      vertex 1369.68286549964 1386.31631804809 26.3999999999998
      vertex 1369.68286549964 740.016318048094 41.1999999999998
      vertex 1369.68286549964 740.016318048094 26.3999999999998
   endloop
endfacet
facet normal 1.0 -0.0 0.0
   outer loop
      vertex 1369.68286549964 740.016318048094 41.1999999999998
      vertex 1369.68286549964 1386.31631804809 26.3999999999998
      vertex 1369.68286549964 1386.31631804809 41.1999999999998
   endloop
endfacet
facet normal 0.0 1.0 0.0
   outer loop
      vertex 323.94749857058 1386.31631804809 41.1999999999998
      vertex 1369.68286549964 1386.31631804809 26.3999999999998
      vertex 323.94749857058 1386.31631804809 26.3999999999998
   endloop
endfacet
facet normal 0.0 1.0 0.0
   outer loop
      vertex 1369.68286549964 1386.31631804809 26.3999999999998
      vertex 323.94749857058 1386.31631804809 41.1999999999998
      vertex 1369.68286549964 1386.31631804809 41.1999999999998
   endloop
endfacet
facet normal -1.0 -0.0 -0.0
   outer loop
      vertex 323.94749857058 1386.31631804809 41.1999999999998
      vertex 323.94749857058 740.016318048094 26.3999999999998
      vertex 323.94749857058 740.016318048094 41.1999999999998
   endloop
endfacet
facet normal -1.0 -0.0 -0.0
   outer loop
      vertex 323.94749857058 740.016318048094 26.3999999999998
      vertex 323.94749857058 1386.31631804809 41.1999999999998
      vertex 323.94749857058 1386.31631804809 26.3999999999998
   endloop
endfacet
facet normal 0.0 -1.0 0.0
   outer loop
      vertex 1369.68286549964 740.016318048094 41.1999999999998
      vertex 323.94749857058 740.016318048094 26.3999999999998
      vertex 1369.68286549964 740.016318048094 26.3999999999998
   endloop
endfacet
facet normal 0.0 -1.0 0.0
   outer loop
      vertex 323.94749857058 740.016318048094 26.3999999999998
      vertex 1369.68286549964 740.016318048094 41.1999999999998
      vertex 323.94749857058 740.016318048094 41.1999999999998
   endloop
endfacet
endsolid piece4
