solid mätförlängare2
facet normal -0.7071067811865848 -0.7071067811865102 -7.054089085868545e-19
  outer loop
    vertex 318.87559440352317 546.6176607909298 5.000000000000001
    vertex 319.08218861290044 546.3484219753873 5.282054285365058e-16
    vertex 319.08218861290044 546.3484219753873 5.000000000000001
  endloop
endfacet
facet normal -0.8660254037844403 -0.4999999999999973 4.140668778653257e-19
  outer loop
    vertex 319.08218861290044 546.3484219753873 5.282054285365058e-16
    vertex 318.87559440352317 546.6176607909298 5.000000000000001
    vertex 318.87559440352317 546.6176607909298 5.296607470588939e-16
  endloop
endfacet
facet normal -0.7071067811865848 -0.7071067811865102 -7.054089085868545e-19
  outer loop
    vertex 318.87559440352317 546.6176607909298 5.000000000000001
    vertex 318.60635558798066 546.8242550003071 5.310535713944921e-16
    vertex 318.87559440352317 546.6176607909298 5.296607470588939e-16
  endloop
endfacet
facet normal -0.4999999999999989 -0.8660254037844393 -1.7768122436626033e-18
  outer loop
    vertex 318.60635558798066 546.8242550003071 5.310535713944921e-16
    vertex 318.87559440352317 546.6176607909298 5.000000000000001
    vertex 318.60635558798066 546.8242550003071 5.000000000000001
  endloop
endfacet
facet normal -0.4999999999999989 -0.8660254037844393 -1.7768122436626033e-18
  outer loop
    vertex 318.60635558798066 546.8242550003071 5.000000000000001
    vertex 318.2928203466139 546.9541255495631 5.322889828665803e-16
    vertex 318.60635558798066 546.8242550003071 5.310535713944921e-16
  endloop
endfacet
facet normal -0.2588190451024999 -0.9659258262890739 -2.727128760653651e-18
  outer loop
    vertex 318.2928203466139 546.9541255495631 5.322889828665803e-16
    vertex 318.60635558798066 546.8242550003071 5.000000000000001
    vertex 318.2928203466139 546.9541255495631 5.000000000000001
  endloop
endfacet
facet normal -0.2588190451024999 -0.9659258262890739 -2.727128760653651e-18
  outer loop
    vertex 318.2928203466139 546.9541255495631 5.000000000000001
    vertex 317.9563555879807 546.9984219753874 5.3328279022494985e-16
    vertex 318.2928203466139 546.9541255495631 5.322889828665803e-16
  endloop
endfacet
facet normal 0.0 -1.0 -3.491595959399385e-18
  outer loop
    vertex 317.9563555879807 546.9984219753874 5.3328279022494985e-16
    vertex 318.2928203466139 546.9541255495631 5.000000000000001
    vertex 317.9563555879807 546.9984219753874 5.000000000000001
  endloop
endfacet
facet normal 0.0 -1.0 -3.491595959399385e-18
  outer loop
    vertex 317.9563555879807 546.9984219753874 5.000000000000001
    vertex 317.6198908293474 546.9541255495631 5.339672671404721e-16
    vertex 317.9563555879807 546.9984219753874 5.3328279022494985e-16
  endloop
endfacet
facet normal 0.2588190451024999 -0.9659258262890739 -4.018116663647233e-18
  outer loop
    vertex 317.6198908293474 546.9541255495631 5.339672671404721e-16
    vertex 317.9563555879807 546.9984219753874 5.000000000000001
    vertex 317.6198908293474 546.9541255495631 5.000000000000001
  endloop
endfacet
facet normal 0.2588190451024999 -0.9659258262890739 -4.018116663647233e-18
  outer loop
    vertex 317.6198908293474 546.9541255495631 5.000000000000001
    vertex 317.30635558798065 546.8242550003071 5.342957676425058e-16
    vertex 317.6198908293474 546.9541255495631 5.339672671404721e-16
  endloop
endfacet
facet normal 0.4999999999999989 -0.8660254037844393 -4.270809357519334e-18
  outer loop
    vertex 317.30635558798065 546.8242550003071 5.342957676425058e-16
    vertex 317.6198908293474 546.9541255495631 5.000000000000001
    vertex 317.30635558798065 546.8242550003071 5.000000000000001
  endloop
endfacet
facet normal 0.4999999999999989 -0.8660254037844393 -4.270809357519334e-18
  outer loop
    vertex 317.30635558798065 546.8242550003071 5.342957676425058e-16
    vertex 317.03711677243814 546.6176607909298 5.000000000000001
    vertex 317.03711677243814 546.6176607909298 5.342459049647101e-16
  endloop
endfacet
facet normal 0.7071067811865277 -0.7071067811865674 -4.232453451522649e-18
  outer loop
    vertex 317.03711677243814 546.6176607909298 5.000000000000001
    vertex 317.30635558798065 546.8242550003071 5.342957676425058e-16
    vertex 317.30635558798065 546.8242550003071 5.000000000000001
  endloop
endfacet
facet normal 0.7071067811865277 -0.7071067811865674 -4.232453451522649e-18
  outer loop
    vertex 317.03711677243814 546.6176607909298 5.342459049647101e-16
    vertex 316.8305225630609 546.3484219753874 5.000000000000001
    vertex 316.8305225630609 546.3484219753874 5.338210771661748e-16
  endloop
endfacet
facet normal 0.8660254037844252 -0.5000000000000233 -3.905662837264743e-18
  outer loop
    vertex 316.8305225630609 546.3484219753874 5.000000000000001
    vertex 317.03711677243814 546.6176607909298 5.342459049647101e-16
    vertex 317.03711677243814 546.6176607909298 5.000000000000001
  endloop
endfacet
facet normal 0.8660254037844252 -0.5000000000000233 -3.905662837264743e-18
  outer loop
    vertex 316.8305225630609 546.3484219753874 5.338210771661748e-16
    vertex 316.70065201380487 546.0348867340207 5.000000000000001
    vertex 316.70065201380487 546.0348867340207 5.33050235559309e-16
  endloop
endfacet
facet normal 0.9659258262890761 -0.25881904510249154 -3.3127077550601053e-18
  outer loop
    vertex 316.70065201380487 546.0348867340207 5.000000000000001
    vertex 316.8305225630609 546.3484219753874 5.338210771661748e-16
    vertex 316.8305225630609 546.3484219753874 5.000000000000001
  endloop
endfacet
facet normal 0.9659258262890761 -0.25881904510249154 -3.3127077550601053e-18
  outer loop
    vertex 316.70065201380487 546.0348867340207 5.33050235559309e-16
    vertex 316.65635558798067 545.6984219753873 5.000000000000001
    vertex 316.65635558798067 545.6984219753873 5.319859117257445e-16
  endloop
endfacet
facet normal 1.0 0.0 -2.4939971138567354e-18
  outer loop
    vertex 316.65635558798067 545.6984219753873 5.000000000000001
    vertex 316.70065201380487 546.0348867340207 5.33050235559309e-16
    vertex 316.70065201380487 546.0348867340207 5.000000000000001
  endloop
endfacet
facet normal 1.0 0.0 -2.4939971138567354e-18
  outer loop
    vertex 316.65635558798067 545.6984219753873 5.319859117257445e-16
    vertex 316.70065201380487 545.361957216754 5.000000000000001
    vertex 316.70065201380487 545.361957216754 5.307006375758605e-16
  endloop
endfacet
facet normal 0.965925826289063 0.2588190451025408 -1.5053246908689678e-18
  outer loop
    vertex 316.70065201380487 545.361957216754 5.000000000000001
    vertex 316.65635558798067 545.6984219753873 5.319859117257445e-16
    vertex 316.65635558798067 545.6984219753873 5.000000000000001
  endloop
endfacet
facet normal 0.965925826289063 0.2588190451025408 -1.5053246908689678e-18
  outer loop
    vertex 316.70065201380487 545.361957216754 5.307006375758605e-16
    vertex 316.8305225630609 545.0484219753874 5.000000000000001
    vertex 316.8305225630609 545.0484219753874 5.292820024189557e-16
  endloop
endfacet
facet normal 0.8660254037844403 0.4999999999999973 -4.140668778653257e-19
  outer loop
    vertex 316.8305225630609 545.0484219753874 5.000000000000001
    vertex 316.70065201380487 545.361957216754 5.307006375758605e-16
    vertex 316.70065201380487 545.361957216754 5.000000000000001
  endloop
endfacet
facet normal 0.8660254037844403 0.4999999999999973 -4.140668778653257e-19
  outer loop
    vertex 316.8305225630609 545.0484219753874 5.292820024189557e-16
    vertex 317.03711677243814 544.7791831598449 5.000000000000001
    vertex 317.03711677243814 544.7791831598449 5.278266838965676e-16
  endloop
endfacet
facet normal 0.7071067811865848 0.7071067811865102 7.054089085868545e-19
  outer loop
    vertex 317.03711677243814 544.7791831598449 5.000000000000001
    vertex 316.8305225630609 545.0484219753874 5.292820024189557e-16
    vertex 316.8305225630609 545.0484219753874 5.000000000000001
  endloop
endfacet
facet normal 0.7071067811865848 0.7071067811865102 7.054089085868545e-19
  outer loop
    vertex 317.03711677243814 544.7791831598449 5.278266838965676e-16
    vertex 317.30635558798065 544.5725889504675 5.000000000000001
    vertex 317.30635558798065 544.5725889504675 5.264338595609695e-16
  endloop
endfacet
facet normal 0.4999999999999989 0.8660254037844393 1.7768122436626033e-18
  outer loop
    vertex 317.30635558798065 544.5725889504675 5.000000000000001
    vertex 317.03711677243814 544.7791831598449 5.278266838965676e-16
    vertex 317.03711677243814 544.7791831598449 5.000000000000001
  endloop
endfacet
facet normal 0.4999999999999989 0.8660254037844393 1.7768122436626033e-18
  outer loop
    vertex 317.30635558798065 544.5725889504675 5.264338595609695e-16
    vertex 317.6198908293474 544.4427184012116 5.000000000000001
    vertex 317.6198908293474 544.4427184012116 5.251984480888812e-16
  endloop
endfacet
facet normal 0.2588190451024999 0.9659258262890739 2.727128760653651e-18
  outer loop
    vertex 317.6198908293474 544.4427184012116 5.000000000000001
    vertex 317.30635558798065 544.5725889504675 5.264338595609695e-16
    vertex 317.30635558798065 544.5725889504675 5.000000000000001
  endloop
endfacet
facet normal 0.2588190451024999 0.9659258262890739 2.727128760653651e-18
  outer loop
    vertex 317.6198908293474 544.4427184012116 5.251984480888812e-16
    vertex 317.9563555879807 544.3984219753874 5.000000000000001
    vertex 317.9563555879807 544.3984219753874 5.242046407305117e-16
  endloop
endfacet
facet normal 0.0 1.0 3.491595959399385e-18
  outer loop
    vertex 317.9563555879807 544.3984219753874 5.000000000000001
    vertex 317.6198908293474 544.4427184012116 5.251984480888812e-16
    vertex 317.6198908293474 544.4427184012116 5.000000000000001
  endloop
endfacet
facet normal 0.0 1.0 3.491595959399385e-18
  outer loop
    vertex 317.9563555879807 544.3984219753874 5.242046407305117e-16
    vertex 318.2928203466139 544.4427184012116 5.000000000000001
    vertex 318.2928203466139 544.4427184012116 5.235201638149895e-16
  endloop
endfacet
facet normal -0.2588190451024999 0.9659258262890739 4.018116663647233e-18
  outer loop
    vertex 318.2928203466139 544.4427184012116 5.000000000000001
    vertex 317.9563555879807 544.3984219753874 5.242046407305117e-16
    vertex 317.9563555879807 544.3984219753874 5.000000000000001
  endloop
endfacet
facet normal -0.2588190451024999 0.9659258262890739 4.018116663647233e-18
  outer loop
    vertex 318.2928203466139 544.4427184012116 5.235201638149895e-16
    vertex 318.60635558798066 544.5725889504675 5.000000000000001
    vertex 318.60635558798066 544.5725889504675 5.231916633129557e-16
  endloop
endfacet
facet normal -0.4999999999999989 0.8660254037844393 4.270809357519334e-18
  outer loop
    vertex 318.60635558798066 544.5725889504675 5.000000000000001
    vertex 318.2928203466139 544.4427184012116 5.235201638149895e-16
    vertex 318.2928203466139 544.4427184012116 5.000000000000001
  endloop
endfacet
facet normal -0.4999999999999989 0.8660254037844393 4.270809357519334e-18
  outer loop
    vertex 318.60635558798066 544.5725889504675 5.000000000000001
    vertex 318.87559440352317 544.7791831598449 5.232415259907514e-16
    vertex 318.60635558798066 544.5725889504675 5.231916633129557e-16
  endloop
endfacet
facet normal -0.7071067811865277 0.7071067811865674 4.232453451522649e-18
  outer loop
    vertex 318.87559440352317 544.7791831598449 5.232415259907514e-16
    vertex 318.60635558798066 544.5725889504675 5.000000000000001
    vertex 318.87559440352317 544.7791831598449 5.000000000000001
  endloop
endfacet
facet normal -0.8660254037844252 0.5000000000000233 3.905662837264743e-18
  outer loop
    vertex 319.08218861290044 545.0484219753873 5.000000000000001
    vertex 318.87559440352317 544.7791831598449 5.232415259907514e-16
    vertex 318.87559440352317 544.7791831598449 5.000000000000001
  endloop
endfacet
facet normal -0.7071067811865277 0.7071067811865674 4.232453451522649e-18
  outer loop
    vertex 318.87559440352317 544.7791831598449 5.232415259907514e-16
    vertex 319.08218861290044 545.0484219753873 5.000000000000001
    vertex 319.08218861290044 545.0484219753873 5.236663537892867e-16
  endloop
endfacet
facet normal -0.9659258262890761 0.25881904510249154 3.3127077550601053e-18
  outer loop
    vertex 319.21205916215644 545.361957216754 5.000000000000001
    vertex 319.08218861290044 545.0484219753873 5.236663537892867e-16
    vertex 319.08218861290044 545.0484219753873 5.000000000000001
  endloop
endfacet
facet normal -0.8660254037844252 0.5000000000000233 3.905662837264743e-18
  outer loop
    vertex 319.08218861290044 545.0484219753873 5.236663537892867e-16
    vertex 319.21205916215644 545.361957216754 5.000000000000001
    vertex 319.21205916215644 545.361957216754 5.244371953961525e-16
  endloop
endfacet
facet normal -1.0 0.0 2.4939971138567354e-18
  outer loop
    vertex 319.25635558798064 545.6984219753873 5.000000000000001
    vertex 319.21205916215644 545.361957216754 5.244371953961525e-16
    vertex 319.21205916215644 545.361957216754 5.000000000000001
  endloop
endfacet
facet normal -0.9659258262890761 0.25881904510249154 3.3127077550601053e-18
  outer loop
    vertex 319.21205916215644 545.361957216754 5.244371953961525e-16
    vertex 319.25635558798064 545.6984219753873 5.000000000000001
    vertex 319.25635558798064 545.6984219753873 5.25501519229717e-16
  endloop
endfacet
facet normal -0.965925826289063 -0.2588190451025408 1.5053246908689678e-18
  outer loop
    vertex 319.21205916215644 546.0348867340207 5.000000000000001
    vertex 319.25635558798064 545.6984219753873 5.25501519229717e-16
    vertex 319.25635558798064 545.6984219753873 5.000000000000001
  endloop
endfacet
facet normal -1.0 0.0 2.4939971138567354e-18
  outer loop
    vertex 319.25635558798064 545.6984219753873 5.25501519229717e-16
    vertex 319.21205916215644 546.0348867340207 5.000000000000001
    vertex 319.21205916215644 546.0348867340207 5.26786793379601e-16
  endloop
endfacet
facet normal 0.0 0.0 1.0
  outer loop
    vertex 318.4563555879806 543.1984219753874 10.0
    vertex 315.4563555879806 548.1984219753873 10.0
    vertex 315.4563555879806 543.1984219753874 10.0
  endloop
endfacet
facet normal 0.0 0.0 1.0
  outer loop
    vertex 315.4563555879806 548.1984219753873 10.0
    vertex 318.4563555879806 543.1984219753874 10.0
    vertex 318.4563555879806 548.1984219753873 10.0
  endloop
endfacet
facet normal 1.0 0.0 0.0
  outer loop
    vertex 320.4563555879807 548.1984219753873 40.0
    vertex 320.4563555879807 543.1984219753874 59.99999999999999
    vertex 320.4563555879807 543.1984219753874 40.0
  endloop
endfacet
facet normal 1.0 0.0 0.0
  outer loop
    vertex 320.4563555879807 543.1984219753874 59.99999999999999
    vertex 320.4563555879807 548.1984219753873 40.0
    vertex 320.4563555879807 548.1984219753873 59.99999999999999
  endloop
endfacet
facet normal -0.0 0.0 -1.0
  outer loop
    vertex 318.4563555879806 548.1984219753873 30.0
    vertex 315.4563555879806 543.1984219753874 30.0
    vertex 315.4563555879806 548.1984219753873 30.0
  endloop
endfacet
facet normal -0.0 0.0 -1.0
  outer loop
    vertex 315.4563555879806 543.1984219753874 30.0
    vertex 318.4563555879806 548.1984219753873 30.0
    vertex 318.4563555879806 543.1984219753874 30.0
  endloop
endfacet
facet normal -1.0 0.0 0.0
  outer loop
    vertex 315.4563555879806 548.1984219753873 10.0
    vertex 315.4563555879806 543.1984219753874 7.8184016092198e-16
    vertex 315.4563555879806 543.1984219753874 10.0
  endloop
endfacet
facet normal -1.0 0.0 0.0
  outer loop
    vertex 315.4563555879806 543.1984219753874 7.8184016092198e-16
    vertex 315.4563555879806 548.1984219753873 10.0
    vertex 315.4563555879806 548.1984219753873 7.8184016092198e-16
  endloop
endfacet
facet normal -0.8660254037844403 -0.4999999999999973 4.140668778653257e-19
  outer loop
    vertex 319.08218861290044 546.3484219753873 5.000000000000001
    vertex 319.21205916215644 546.0348867340207 5.26786793379601e-16
    vertex 319.21205916215644 546.0348867340207 5.000000000000001
  endloop
endfacet
facet normal -0.965925826289063 -0.2588190451025408 1.5053246908689678e-18
  outer loop
    vertex 319.21205916215644 546.0348867340207 5.26786793379601e-16
    vertex 319.08218861290044 546.3484219753873 5.000000000000001
    vertex 319.08218861290044 546.3484219753873 5.282054285365058e-16
  endloop
endfacet
facet normal -2.4939971138567358e-18 3.491595959399384e-18 -1.0
  outer loop
    vertex 316.70065201380487 546.0348867340207 5.000000000000001
    vertex 316.70065201380487 545.361957216754 5.000000000000001
    vertex 316.65635558798067 545.6984219753873 5.000000000000001
  endloop
endfacet
facet normal -2.4939971138567358e-18 3.491595959399384e-18 -1.0
  outer loop
    vertex 316.70065201380487 545.361957216754 5.000000000000001
    vertex 316.70065201380487 546.0348867340207 5.000000000000001
    vertex 316.8305225630609 546.3484219753874 5.000000000000001
  endloop
endfacet
facet normal -2.4939971138567358e-18 3.491595959399384e-18 -1.0
  outer loop
    vertex 316.70065201380487 545.361957216754 5.000000000000001
    vertex 316.8305225630609 546.3484219753874 5.000000000000001
    vertex 316.8305225630609 545.0484219753874 5.000000000000001
  endloop
endfacet
facet normal -2.4939971138567358e-18 3.491595959399384e-18 -1.0
  outer loop
    vertex 316.8305225630609 545.0484219753874 5.000000000000001
    vertex 316.8305225630609 546.3484219753874 5.000000000000001
    vertex 317.03711677243814 546.6176607909298 5.000000000000001
  endloop
endfacet
facet normal -2.4939971138567358e-18 3.491595959399384e-18 -1.0
  outer loop
    vertex 316.8305225630609 545.0484219753874 5.000000000000001
    vertex 317.03711677243814 546.6176607909298 5.000000000000001
    vertex 317.03711677243814 544.7791831598449 5.000000000000001
  endloop
endfacet
facet normal -2.4939971138567358e-18 3.491595959399384e-18 -1.0
  outer loop
    vertex 317.03711677243814 544.7791831598449 5.000000000000001
    vertex 317.03711677243814 546.6176607909298 5.000000000000001
    vertex 317.30635558798065 546.8242550003071 5.000000000000001
  endloop
endfacet
facet normal -2.4939971138567358e-18 3.491595959399384e-18 -1.0
  outer loop
    vertex 317.03711677243814 544.7791831598449 5.000000000000001
    vertex 317.30635558798065 546.8242550003071 5.000000000000001
    vertex 317.30635558798065 544.5725889504675 5.000000000000001
  endloop
endfacet
facet normal -2.4939971138567358e-18 3.491595959399384e-18 -1.0
  outer loop
    vertex 317.30635558798065 544.5725889504675 5.000000000000001
    vertex 317.30635558798065 546.8242550003071 5.000000000000001
    vertex 317.6198908293474 546.9541255495631 5.000000000000001
  endloop
endfacet
facet normal -2.4939971138567358e-18 3.491595959399384e-18 -1.0
  outer loop
    vertex 317.30635558798065 544.5725889504675 5.000000000000001
    vertex 317.6198908293474 546.9541255495631 5.000000000000001
    vertex 317.6198908293474 544.4427184012116 5.000000000000001
  endloop
endfacet
facet normal -2.4939971138567358e-18 3.491595959399384e-18 -1.0
  outer loop
    vertex 317.6198908293474 544.4427184012116 5.000000000000001
    vertex 317.6198908293474 546.9541255495631 5.000000000000001
    vertex 317.9563555879807 546.9984219753874 5.000000000000001
  endloop
endfacet
facet normal -2.4939971138567358e-18 3.491595959399384e-18 -1.0
  outer loop
    vertex 317.6198908293474 544.4427184012116 5.000000000000001
    vertex 317.9563555879807 546.9984219753874 5.000000000000001
    vertex 317.9563555879807 544.3984219753874 5.000000000000001
  endloop
endfacet
facet normal -2.4939971138567358e-18 3.491595959399384e-18 -1.0
  outer loop
    vertex 317.9563555879807 544.3984219753874 5.000000000000001
    vertex 317.9563555879807 546.9984219753874 5.000000000000001
    vertex 318.2928203466139 546.9541255495631 5.000000000000001
  endloop
endfacet
facet normal -2.4939971138567358e-18 3.491595959399384e-18 -1.0
  outer loop
    vertex 317.9563555879807 544.3984219753874 5.000000000000001
    vertex 318.2928203466139 546.9541255495631 5.000000000000001
    vertex 318.2928203466139 544.4427184012116 5.000000000000001
  endloop
endfacet
facet normal -2.4939971138567358e-18 3.491595959399384e-18 -1.0
  outer loop
    vertex 318.2928203466139 544.4427184012116 5.000000000000001
    vertex 318.2928203466139 546.9541255495631 5.000000000000001
    vertex 318.60635558798066 546.8242550003071 5.000000000000001
  endloop
endfacet
facet normal -2.4939971138567358e-18 3.491595959399384e-18 -1.0
  outer loop
    vertex 318.2928203466139 544.4427184012116 5.000000000000001
    vertex 318.60635558798066 546.8242550003071 5.000000000000001
    vertex 318.60635558798066 544.5725889504675 5.000000000000001
  endloop
endfacet
facet normal -2.4939971138567358e-18 3.491595959399384e-18 -1.0
  outer loop
    vertex 318.60635558798066 544.5725889504675 5.000000000000001
    vertex 318.60635558798066 546.8242550003071 5.000000000000001
    vertex 318.87559440352317 546.6176607909298 5.000000000000001
  endloop
endfacet
facet normal -2.4939971138567358e-18 3.491595959399384e-18 -1.0
  outer loop
    vertex 318.60635558798066 544.5725889504675 5.000000000000001
    vertex 318.87559440352317 546.6176607909298 5.000000000000001
    vertex 318.87559440352317 544.7791831598449 5.000000000000001
  endloop
endfacet
facet normal -2.4939971138567358e-18 3.491595959399384e-18 -1.0
  outer loop
    vertex 318.87559440352317 544.7791831598449 5.000000000000001
    vertex 318.87559440352317 546.6176607909298 5.000000000000001
    vertex 319.08218861290044 546.3484219753873 5.000000000000001
  endloop
endfacet
facet normal -2.4939971138567358e-18 3.491595959399384e-18 -1.0
  outer loop
    vertex 318.87559440352317 544.7791831598449 5.000000000000001
    vertex 319.08218861290044 546.3484219753873 5.000000000000001
    vertex 319.08218861290044 545.0484219753873 5.000000000000001
  endloop
endfacet
facet normal -2.4939971138567358e-18 3.491595959399384e-18 -1.0
  outer loop
    vertex 319.08218861290044 545.0484219753873 5.000000000000001
    vertex 319.08218861290044 546.3484219753873 5.000000000000001
    vertex 319.21205916215644 546.0348867340207 5.000000000000001
  endloop
endfacet
facet normal -2.4939971138567358e-18 3.491595959399384e-18 -1.0
  outer loop
    vertex 319.08218861290044 545.0484219753873 5.000000000000001
    vertex 319.21205916215644 546.0348867340207 5.000000000000001
    vertex 319.21205916215644 545.361957216754 5.000000000000001
  endloop
endfacet
facet normal -2.4939971138567358e-18 3.491595959399384e-18 -1.0
  outer loop
    vertex 319.21205916215644 545.361957216754 5.000000000000001
    vertex 319.21205916215644 546.0348867340207 5.000000000000001
    vertex 319.25635558798064 545.6984219753873 5.000000000000001
  endloop
endfacet
facet normal -1.0 0.0 0.0
  outer loop
    vertex 318.4563555879806 548.1984219753873 30.0
    vertex 318.4563555879806 543.1984219753874 10.0
    vertex 318.4563555879806 543.1984219753874 30.0
  endloop
endfacet
facet normal -1.0 0.0 0.0
  outer loop
    vertex 318.4563555879806 543.1984219753874 10.0
    vertex 318.4563555879806 548.1984219753873 30.0
    vertex 318.4563555879806 548.1984219753873 10.0
  endloop
endfacet
facet normal -0.0 -0.0 1.0
  outer loop
    vertex 322.4563555879806 543.1984219753874 40.0
    vertex 320.4563555879807 548.1984219753873 40.0
    vertex 320.4563555879807 543.1984219753874 40.0
  endloop
endfacet
facet normal -0.0 -0.0 1.0
  outer loop
    vertex 320.4563555879807 548.1984219753873 40.0
    vertex 322.4563555879806 543.1984219753874 40.0
    vertex 322.4563555879806 548.1984219753873 40.0
  endloop
endfacet
facet normal 0.9659258262890653 0.258819045102532 0.0
  outer loop
    vertex 319.11546657952755 546.0090048295103 59.99999999999999
    vertex 319.15635558798067 545.6984219753873 63.99999999999999
    vertex 319.15635558798067 545.6984219753873 59.99999999999999
  endloop
endfacet
facet normal 1.0 0.0 0.0
  outer loop
    vertex 319.15635558798067 545.6984219753873 63.99999999999999
    vertex 319.11546657952755 546.0090048295103 59.99999999999999
    vertex 319.11546657952755 546.0090048295103 63.99999999999999
  endloop
endfacet
facet normal -0.8660254037844055 -0.5000000000000574 0.0
  outer loop
    vertex 316.91712510343933 545.0984219753873 63.99999999999999
    vertex 317.10782745055684 544.8498938379635 59.99999999999999
    vertex 317.10782745055684 544.8498938379635 63.99999999999999
  endloop
endfacet
facet normal -0.7071067811865167 -0.7071067811865785 0.0
  outer loop
    vertex 317.10782745055684 544.8498938379635 59.99999999999999
    vertex 316.91712510343933 545.0984219753873 63.99999999999999
    vertex 316.91712510343933 545.0984219753873 59.99999999999999
  endloop
endfacet
facet normal -0.8660254037844266 0.5000000000000212 0.0
  outer loop
    vertex 316.91712510343933 546.2984219753873 63.99999999999999
    vertex 316.79724459643376 546.0090048295103 59.99999999999999
    vertex 316.79724459643376 546.0090048295103 63.99999999999999
  endloop
endfacet
facet normal -0.9659258262890681 0.2588190451025211 0.0
  outer loop
    vertex 316.79724459643376 546.0090048295103 59.99999999999999
    vertex 316.91712510343933 546.2984219753873 63.99999999999999
    vertex 316.91712510343933 546.2984219753873 59.99999999999999
  endloop
endfacet
facet normal 0.8660254037844217 -0.5000000000000291 0.0
  outer loop
    vertex 318.995586072522 545.0984219753874 59.99999999999999
    vertex 318.8048837254045 544.8498938379635 63.99999999999999
    vertex 318.8048837254045 544.8498938379635 59.99999999999999
  endloop
endfacet
facet normal 0.7071067811865785 -0.7071067811865165 0.0
  outer loop
    vertex 318.8048837254045 544.8498938379635 63.99999999999999
    vertex 318.995586072522 545.0984219753874 59.99999999999999
    vertex 318.995586072522 545.0984219753874 63.99999999999999
  endloop
endfacet
facet normal 0.2588190451025587 -0.9659258262890581 0.0
  outer loop
    vertex 318.2669384421037 544.5393109838404 63.99999999999999
    vertex 317.9563555879807 544.4984219753874 59.99999999999999
    vertex 318.2669384421037 544.5393109838404 59.99999999999999
  endloop
endfacet
facet normal 0.0 -1.0 0.0
  outer loop
    vertex 317.9563555879807 544.4984219753874 59.99999999999999
    vertex 318.2669384421037 544.5393109838404 63.99999999999999
    vertex 317.9563555879807 544.4984219753874 63.99999999999999
  endloop
endfacet
facet normal -0.9659258262890681 0.2588190451025211 0.0
  outer loop
    vertex 316.79724459643376 546.0090048295103 63.99999999999999
    vertex 316.75635558798064 545.6984219753873 59.99999999999999
    vertex 316.75635558798064 545.6984219753873 63.99999999999999
  endloop
endfacet
facet normal -1.0 0.0 0.0
  outer loop
    vertex 316.75635558798064 545.6984219753873 59.99999999999999
    vertex 316.79724459643376 546.0090048295103 63.99999999999999
    vertex 316.79724459643376 546.0090048295103 59.99999999999999
  endloop
endfacet
facet normal -1.0 0.0 0.0
  outer loop
    vertex 316.75635558798064 545.6984219753873 63.99999999999999
    vertex 316.79724459643376 545.3878391212643 59.99999999999999
    vertex 316.79724459643376 545.3878391212643 63.99999999999999
  endloop
endfacet
facet normal -0.9659258262890653 -0.258819045102532 0.0
  outer loop
    vertex 316.79724459643376 545.3878391212643 59.99999999999999
    vertex 316.75635558798064 545.6984219753873 63.99999999999999
    vertex 316.75635558798064 545.6984219753873 59.99999999999999
  endloop
endfacet
facet normal 0.0 0.0 1.0
  outer loop
    vertex 316.79724459643376 545.3878391212643 63.99999999999999
    vertex 316.79724459643376 546.0090048295103 63.99999999999999
    vertex 316.75635558798064 545.6984219753873 63.99999999999999
  endloop
endfacet
facet normal 0.0 0.0 1.0
  outer loop
    vertex 316.79724459643376 546.0090048295103 63.99999999999999
    vertex 316.79724459643376 545.3878391212643 63.99999999999999
    vertex 316.91712510343933 545.0984219753873 63.99999999999999
  endloop
endfacet
facet normal 0.0 0.0 1.0
  outer loop
    vertex 316.79724459643376 546.0090048295103 63.99999999999999
    vertex 316.91712510343933 545.0984219753873 63.99999999999999
    vertex 316.91712510343933 546.2984219753873 63.99999999999999
  endloop
endfacet
facet normal 0.0 0.0 1.0
  outer loop
    vertex 316.91712510343933 546.2984219753873 63.99999999999999
    vertex 316.91712510343933 545.0984219753873 63.99999999999999
    vertex 317.10782745055684 546.5469501128111 63.99999999999999
  endloop
endfacet
facet normal 0.0 0.0 1.0
  outer loop
    vertex 317.10782745055684 546.5469501128111 63.99999999999999
    vertex 316.91712510343933 545.0984219753873 63.99999999999999
    vertex 317.10782745055684 544.8498938379635 63.99999999999999
  endloop
endfacet
facet normal 0.0 0.0 1.0
  outer loop
    vertex 317.10782745055684 546.5469501128111 63.99999999999999
    vertex 317.10782745055684 544.8498938379635 63.99999999999999
    vertex 317.35635558798066 544.6591914908461 63.99999999999999
  endloop
endfacet
facet normal 0.0 0.0 1.0
  outer loop
    vertex 317.10782745055684 546.5469501128111 63.99999999999999
    vertex 317.35635558798066 544.6591914908461 63.99999999999999
    vertex 317.35635558798066 546.7376524599287 63.99999999999999
  endloop
endfacet
facet normal 0.0 0.0 1.0
  outer loop
    vertex 317.35635558798066 546.7376524599287 63.99999999999999
    vertex 317.35635558798066 544.6591914908461 63.99999999999999
    vertex 317.6457727338576 544.5393109838404 63.99999999999999
  endloop
endfacet
facet normal 0.0 0.0 1.0
  outer loop
    vertex 317.35635558798066 546.7376524599287 63.99999999999999
    vertex 317.6457727338576 544.5393109838404 63.99999999999999
    vertex 317.6457727338576 546.8575329669342 63.99999999999999
  endloop
endfacet
facet normal 0.0 0.0 1.0
  outer loop
    vertex 317.6457727338576 546.8575329669342 63.99999999999999
    vertex 317.6457727338576 544.5393109838404 63.99999999999999
    vertex 317.9563555879807 544.4984219753874 63.99999999999999
  endloop
endfacet
facet normal 0.0 0.0 1.0
  outer loop
    vertex 317.6457727338576 546.8575329669342 63.99999999999999
    vertex 317.9563555879807 544.4984219753874 63.99999999999999
    vertex 317.9563555879807 546.8984219753874 63.99999999999999
  endloop
endfacet
facet normal 0.0 0.0 1.0
  outer loop
    vertex 317.9563555879807 546.8984219753874 63.99999999999999
    vertex 317.9563555879807 544.4984219753874 63.99999999999999
    vertex 318.2669384421037 544.5393109838404 63.99999999999999
  endloop
endfacet
facet normal 0.0 0.0 1.0
  outer loop
    vertex 317.9563555879807 546.8984219753874 63.99999999999999
    vertex 318.2669384421037 544.5393109838404 63.99999999999999
    vertex 318.2669384421037 546.8575329669342 63.99999999999999
  endloop
endfacet
facet normal 0.0 0.0 1.0
  outer loop
    vertex 318.2669384421037 546.8575329669342 63.99999999999999
    vertex 318.2669384421037 544.5393109838404 63.99999999999999
    vertex 318.55635558798065 544.6591914908461 63.99999999999999
  endloop
endfacet
facet normal 0.0 0.0 1.0
  outer loop
    vertex 318.2669384421037 546.8575329669342 63.99999999999999
    vertex 318.55635558798065 544.6591914908461 63.99999999999999
    vertex 318.55635558798065 546.7376524599287 63.99999999999999
  endloop
endfacet
facet normal 0.0 0.0 1.0
  outer loop
    vertex 318.55635558798065 546.7376524599287 63.99999999999999
    vertex 318.55635558798065 544.6591914908461 63.99999999999999
    vertex 318.8048837254045 544.8498938379635 63.99999999999999
  endloop
endfacet
facet normal 0.0 0.0 1.0
  outer loop
    vertex 318.55635558798065 546.7376524599287 63.99999999999999
    vertex 318.8048837254045 544.8498938379635 63.99999999999999
    vertex 318.8048837254045 546.5469501128111 63.99999999999999
  endloop
endfacet
facet normal 0.0 0.0 1.0
  outer loop
    vertex 318.8048837254045 546.5469501128111 63.99999999999999
    vertex 318.8048837254045 544.8498938379635 63.99999999999999
    vertex 318.995586072522 545.0984219753874 63.99999999999999
  endloop
endfacet
facet normal 0.0 0.0 1.0
  outer loop
    vertex 318.8048837254045 546.5469501128111 63.99999999999999
    vertex 318.995586072522 545.0984219753874 63.99999999999999
    vertex 318.995586072522 546.2984219753874 63.99999999999999
  endloop
endfacet
facet normal 0.0 0.0 1.0
  outer loop
    vertex 318.995586072522 546.2984219753874 63.99999999999999
    vertex 318.995586072522 545.0984219753874 63.99999999999999
    vertex 319.11546657952755 545.3878391212643 63.99999999999999
  endloop
endfacet
facet normal 0.0 0.0 1.0
  outer loop
    vertex 318.995586072522 546.2984219753874 63.99999999999999
    vertex 319.11546657952755 545.3878391212643 63.99999999999999
    vertex 319.11546657952755 546.0090048295103 63.99999999999999
  endloop
endfacet
facet normal 0.0 0.0 1.0
  outer loop
    vertex 319.11546657952755 546.0090048295103 63.99999999999999
    vertex 319.11546657952755 545.3878391212643 63.99999999999999
    vertex 319.15635558798067 545.6984219753873 63.99999999999999
  endloop
endfacet
facet normal 0.7071067811865785 -0.7071067811865165 0.0
  outer loop
    vertex 318.8048837254045 544.8498938379635 63.99999999999999
    vertex 318.55635558798065 544.6591914908461 59.99999999999999
    vertex 318.8048837254045 544.8498938379635 59.99999999999999
  endloop
endfacet
facet normal 0.5000000000000433 -0.8660254037844136 0.0
  outer loop
    vertex 318.55635558798065 544.6591914908461 59.99999999999999
    vertex 318.8048837254045 544.8498938379635 63.99999999999999
    vertex 318.55635558798065 544.6591914908461 63.99999999999999
  endloop
endfacet
facet normal -1.0 0.0 0.0
  outer loop
    vertex 315.4563555879806 548.1984219753873 59.99999999999999
    vertex 315.4563555879806 543.1984219753874 30.0
    vertex 315.4563555879806 543.1984219753874 59.99999999999999
  endloop
endfacet
facet normal -1.0 0.0 0.0
  outer loop
    vertex 315.4563555879806 543.1984219753874 30.0
    vertex 315.4563555879806 548.1984219753873 59.99999999999999
    vertex 315.4563555879806 548.1984219753873 30.0
  endloop
endfacet
facet normal -0.707106781186538 0.707106781186557 0.0
  outer loop
    vertex 317.10782745055684 546.5469501128111 63.99999999999999
    vertex 317.35635558798066 546.7376524599287 59.99999999999999
    vertex 317.10782745055684 546.5469501128111 59.99999999999999
  endloop
endfacet
facet normal -0.5000000000000433 0.8660254037844136 0.0
  outer loop
    vertex 317.35635558798066 546.7376524599287 59.99999999999999
    vertex 317.10782745055684 546.5469501128111 63.99999999999999
    vertex 317.35635558798066 546.7376524599287 63.99999999999999
  endloop
endfacet
facet normal -0.707106781186538 0.707106781186557 0.0
  outer loop
    vertex 317.10782745055684 546.5469501128111 63.99999999999999
    vertex 316.91712510343933 546.2984219753873 59.99999999999999
    vertex 316.91712510343933 546.2984219753873 63.99999999999999
  endloop
endfacet
facet normal -0.8660254037844266 0.5000000000000212 0.0
  outer loop
    vertex 316.91712510343933 546.2984219753873 59.99999999999999
    vertex 317.10782745055684 546.5469501128111 63.99999999999999
    vertex 317.10782745055684 546.5469501128111 59.99999999999999
  endloop
endfacet
facet normal -0.5000000000000433 -0.8660254037844136 0.0
  outer loop
    vertex 317.35635558798066 544.6591914908461 63.99999999999999
    vertex 317.10782745055684 544.8498938379635 59.99999999999999
    vertex 317.35635558798066 544.6591914908461 59.99999999999999
  endloop
endfacet
facet normal -0.7071067811865167 -0.7071067811865785 0.0
  outer loop
    vertex 317.10782745055684 544.8498938379635 59.99999999999999
    vertex 317.35635558798066 544.6591914908461 63.99999999999999
    vertex 317.10782745055684 544.8498938379635 63.99999999999999
  endloop
endfacet
facet normal 1.0 -0.0 -0.0
  outer loop
    vertex 322.4563555879806 548.1984219753873 7.8184016092198e-16
    vertex 322.4563555879806 543.1984219753874 40.0
    vertex 322.4563555879806 543.1984219753874 7.469242013279851e-16
  endloop
endfacet
facet normal 1.0 -0.0 -0.0
  outer loop
    vertex 322.4563555879806 543.1984219753874 40.0
    vertex 322.4563555879806 548.1984219753873 7.8184016092198e-16
    vertex 322.4563555879806 548.1984219753873 40.0
  endloop
endfacet
facet normal -0.5000000000000433 0.8660254037844136 0.0
  outer loop
    vertex 317.35635558798066 546.7376524599287 63.99999999999999
    vertex 317.6457727338576 546.8575329669342 59.99999999999999
    vertex 317.35635558798066 546.7376524599287 59.99999999999999
  endloop
endfacet
facet normal -0.2588190451025587 0.9659258262890581 0.0
  outer loop
    vertex 317.6457727338576 546.8575329669342 59.99999999999999
    vertex 317.35635558798066 546.7376524599287 63.99999999999999
    vertex 317.6457727338576 546.8575329669342 63.99999999999999
  endloop
endfacet
facet normal -0.2588190451025587 0.9659258262890581 0.0
  outer loop
    vertex 317.6457727338576 546.8575329669342 63.99999999999999
    vertex 317.9563555879807 546.8984219753874 59.99999999999999
    vertex 317.6457727338576 546.8575329669342 59.99999999999999
  endloop
endfacet
facet normal 0.0 1.0 0.0
  outer loop
    vertex 317.9563555879807 546.8984219753874 59.99999999999999
    vertex 317.6457727338576 546.8575329669342 63.99999999999999
    vertex 317.9563555879807 546.8984219753874 63.99999999999999
  endloop
endfacet
facet normal -1.7416060490992908e-35 -1.0 -3.491595959399533e-18
  outer loop
    vertex 322.4563555879806 543.1984219753874 7.469242013279851e-16
    vertex 318.4563555879806 543.1984219753874 10.0
    vertex 315.4563555879806 543.1984219753874 7.8184016092198e-16
  endloop
endfacet
facet normal -1.7416060490992908e-35 -1.0 -3.491595959399533e-18
  outer loop
    vertex 318.4563555879806 543.1984219753874 10.0
    vertex 322.4563555879806 543.1984219753874 7.469242013279851e-16
    vertex 322.4563555879806 543.1984219753874 40.0
  endloop
endfacet
facet normal -1.7416060490992908e-35 -1.0 -3.491595959399533e-18
  outer loop
    vertex 318.4563555879806 543.1984219753874 10.0
    vertex 322.4563555879806 543.1984219753874 40.0
    vertex 318.4563555879806 543.1984219753874 30.0
  endloop
endfacet
facet normal -1.7416060490992908e-35 -1.0 -3.491595959399533e-18
  outer loop
    vertex 318.4563555879806 543.1984219753874 30.0
    vertex 322.4563555879806 543.1984219753874 40.0
    vertex 315.4563555879806 543.1984219753874 30.0
  endloop
endfacet
facet normal -1.7416060490992908e-35 -1.0 -3.491595959399533e-18
  outer loop
    vertex 315.4563555879806 543.1984219753874 30.0
    vertex 322.4563555879806 543.1984219753874 40.0
    vertex 320.4563555879807 543.1984219753874 40.0
  endloop
endfacet
facet normal -1.7416060490992908e-35 -1.0 -3.491595959399533e-18
  outer loop
    vertex 315.4563555879806 543.1984219753874 30.0
    vertex 320.4563555879807 543.1984219753874 40.0
    vertex 315.4563555879806 543.1984219753874 59.99999999999999
  endloop
endfacet
facet normal -1.7416060490992908e-35 -1.0 -3.491595959399533e-18
  outer loop
    vertex 315.4563555879806 543.1984219753874 59.99999999999999
    vertex 320.4563555879807 543.1984219753874 40.0
    vertex 320.4563555879807 543.1984219753874 59.99999999999999
  endloop
endfacet
facet normal -1.7416060490992908e-35 -1.0 -3.491595959399533e-18
  outer loop
    vertex 315.4563555879806 543.1984219753874 10.0
    vertex 315.4563555879806 543.1984219753874 7.8184016092198e-16
    vertex 318.4563555879806 543.1984219753874 10.0
  endloop
endfacet
facet normal -2.4939971138567874e-18 3.491595959399533e-18 -1.0
  outer loop
    vertex 315.4563555879806 548.1984219753873 7.8184016092198e-16
    vertex 316.8305225630609 546.3484219753874 5.338210771661748e-16
    vertex 315.4563555879806 543.1984219753874 7.8184016092198e-16
  endloop
endfacet
facet normal -2.4939971138567874e-18 3.491595959399533e-18 -1.0
  outer loop
    vertex 316.8305225630609 546.3484219753874 5.338210771661748e-16
    vertex 315.4563555879806 548.1984219753873 7.8184016092198e-16
    vertex 317.03711677243814 546.6176607909298 5.342459049647101e-16
  endloop
endfacet
facet normal -2.4939971138567874e-18 3.491595959399533e-18 -1.0
  outer loop
    vertex 317.03711677243814 546.6176607909298 5.342459049647101e-16
    vertex 315.4563555879806 548.1984219753873 7.8184016092198e-16
    vertex 317.30635558798065 546.8242550003071 5.342957676425058e-16
  endloop
endfacet
facet normal -2.4939971138567874e-18 3.491595959399533e-18 -1.0
  outer loop
    vertex 317.30635558798065 546.8242550003071 5.342957676425058e-16
    vertex 315.4563555879806 548.1984219753873 7.8184016092198e-16
    vertex 317.6198908293474 546.9541255495631 5.339672671404721e-16
  endloop
endfacet
facet normal -2.4939971138567874e-18 3.491595959399533e-18 -1.0
  outer loop
    vertex 317.6198908293474 546.9541255495631 5.339672671404721e-16
    vertex 315.4563555879806 548.1984219753873 7.8184016092198e-16
    vertex 322.4563555879806 548.1984219753873 7.8184016092198e-16
  endloop
endfacet
facet normal -2.4939971138567874e-18 3.491595959399533e-18 -1.0
  outer loop
    vertex 315.4563555879806 543.1984219753874 7.8184016092198e-16
    vertex 316.8305225630609 546.3484219753874 5.338210771661748e-16
    vertex 316.70065201380487 546.0348867340207 5.33050235559309e-16
  endloop
endfacet
facet normal -2.4939971138567874e-18 3.491595959399533e-18 -1.0
  outer loop
    vertex 315.4563555879806 543.1984219753874 7.8184016092198e-16
    vertex 316.70065201380487 546.0348867340207 5.33050235559309e-16
    vertex 316.65635558798067 545.6984219753873 5.319859117257445e-16
  endloop
endfacet
facet normal -2.4939971138567874e-18 3.491595959399533e-18 -1.0
  outer loop
    vertex 317.6198908293474 546.9541255495631 5.339672671404721e-16
    vertex 322.4563555879806 548.1984219753873 7.8184016092198e-16
    vertex 317.9563555879807 546.9984219753874 5.3328279022494985e-16
  endloop
endfacet
facet normal -2.4939971138567874e-18 3.491595959399533e-18 -1.0
  outer loop
    vertex 317.9563555879807 546.9984219753874 5.3328279022494985e-16
    vertex 322.4563555879806 548.1984219753873 7.8184016092198e-16
    vertex 318.2928203466139 546.9541255495631 5.322889828665803e-16
  endloop
endfacet
facet normal -2.4939971138567874e-18 3.491595959399533e-18 -1.0
  outer loop
    vertex 318.2928203466139 546.9541255495631 5.322889828665803e-16
    vertex 322.4563555879806 548.1984219753873 7.8184016092198e-16
    vertex 318.60635558798066 546.8242550003071 5.310535713944921e-16
  endloop
endfacet
facet normal -2.4939971138567874e-18 3.491595959399533e-18 -1.0
  outer loop
    vertex 318.60635558798066 546.8242550003071 5.310535713944921e-16
    vertex 322.4563555879806 548.1984219753873 7.8184016092198e-16
    vertex 318.87559440352317 546.6176607909298 5.296607470588939e-16
  endloop
endfacet
facet normal -2.4939971138567874e-18 3.491595959399533e-18 -1.0
  outer loop
    vertex 318.87559440352317 546.6176607909298 5.296607470588939e-16
    vertex 322.4563555879806 548.1984219753873 7.8184016092198e-16
    vertex 319.08218861290044 546.3484219753873 5.282054285365058e-16
  endloop
endfacet
facet normal -2.4939971138567874e-18 3.491595959399533e-18 -1.0
  outer loop
    vertex 319.08218861290044 546.3484219753873 5.282054285365058e-16
    vertex 322.4563555879806 548.1984219753873 7.8184016092198e-16
    vertex 319.21205916215644 546.0348867340207 5.26786793379601e-16
  endloop
endfacet
facet normal -2.4939971138567874e-18 3.491595959399533e-18 -1.0
  outer loop
    vertex 319.21205916215644 546.0348867340207 5.26786793379601e-16
    vertex 322.4563555879806 548.1984219753873 7.8184016092198e-16
    vertex 319.25635558798064 545.6984219753873 5.25501519229717e-16
  endloop
endfacet
facet normal -2.4939971138567874e-18 3.491595959399533e-18 -1.0
  outer loop
    vertex 315.4563555879806 543.1984219753874 7.8184016092198e-16
    vertex 317.6198908293474 544.4427184012116 5.251984480888812e-16
    vertex 322.4563555879806 543.1984219753874 7.469242013279851e-16
  endloop
endfacet
facet normal -2.4939971138567874e-18 3.491595959399533e-18 -1.0
  outer loop
    vertex 317.6198908293474 544.4427184012116 5.251984480888812e-16
    vertex 315.4563555879806 543.1984219753874 7.8184016092198e-16
    vertex 317.30635558798065 544.5725889504675 5.264338595609695e-16
  endloop
endfacet
facet normal -2.4939971138567874e-18 3.491595959399533e-18 -1.0
  outer loop
    vertex 317.30635558798065 544.5725889504675 5.264338595609695e-16
    vertex 315.4563555879806 543.1984219753874 7.8184016092198e-16
    vertex 317.03711677243814 544.7791831598449 5.278266838965676e-16
  endloop
endfacet
facet normal -2.4939971138567874e-18 3.491595959399533e-18 -1.0
  outer loop
    vertex 317.03711677243814 544.7791831598449 5.278266838965676e-16
    vertex 315.4563555879806 543.1984219753874 7.8184016092198e-16
    vertex 316.8305225630609 545.0484219753874 5.292820024189557e-16
  endloop
endfacet
facet normal -2.4939971138567874e-18 3.491595959399533e-18 -1.0
  outer loop
    vertex 316.8305225630609 545.0484219753874 5.292820024189557e-16
    vertex 315.4563555879806 543.1984219753874 7.8184016092198e-16
    vertex 316.70065201380487 545.361957216754 5.307006375758605e-16
  endloop
endfacet
facet normal -2.4939971138567874e-18 3.491595959399533e-18 -1.0
  outer loop
    vertex 316.70065201380487 545.361957216754 5.307006375758605e-16
    vertex 315.4563555879806 543.1984219753874 7.8184016092198e-16
    vertex 316.65635558798067 545.6984219753873 5.319859117257445e-16
  endloop
endfacet
facet normal -2.4939971138567874e-18 3.491595959399533e-18 -1.0
  outer loop
    vertex 322.4563555879806 543.1984219753874 7.469242013279851e-16
    vertex 317.6198908293474 544.4427184012116 5.251984480888812e-16
    vertex 317.9563555879807 544.3984219753874 5.242046407305117e-16
  endloop
endfacet
facet normal -2.4939971138567874e-18 3.491595959399533e-18 -1.0
  outer loop
    vertex 322.4563555879806 543.1984219753874 7.469242013279851e-16
    vertex 317.9563555879807 544.3984219753874 5.242046407305117e-16
    vertex 318.2928203466139 544.4427184012116 5.235201638149895e-16
  endloop
endfacet
facet normal -2.4939971138567874e-18 3.491595959399533e-18 -1.0
  outer loop
    vertex 322.4563555879806 543.1984219753874 7.469242013279851e-16
    vertex 318.2928203466139 544.4427184012116 5.235201638149895e-16
    vertex 318.60635558798066 544.5725889504675 5.231916633129557e-16
  endloop
endfacet
facet normal -2.4939971138567874e-18 3.491595959399533e-18 -1.0
  outer loop
    vertex 322.4563555879806 543.1984219753874 7.469242013279851e-16
    vertex 318.60635558798066 544.5725889504675 5.231916633129557e-16
    vertex 318.87559440352317 544.7791831598449 5.232415259907514e-16
  endloop
endfacet
facet normal -2.4939971138567874e-18 3.491595959399533e-18 -1.0
  outer loop
    vertex 322.4563555879806 543.1984219753874 7.469242013279851e-16
    vertex 318.87559440352317 544.7791831598449 5.232415259907514e-16
    vertex 319.08218861290044 545.0484219753873 5.236663537892867e-16
  endloop
endfacet
facet normal -2.4939971138567874e-18 3.491595959399533e-18 -1.0
  outer loop
    vertex 322.4563555879806 543.1984219753874 7.469242013279851e-16
    vertex 319.08218861290044 545.0484219753873 5.236663537892867e-16
    vertex 319.21205916215644 545.361957216754 5.244371953961525e-16
  endloop
endfacet
facet normal -2.4939971138567874e-18 3.491595959399533e-18 -1.0
  outer loop
    vertex 322.4563555879806 543.1984219753874 7.469242013279851e-16
    vertex 319.21205916215644 545.361957216754 5.244371953961525e-16
    vertex 319.25635558798064 545.6984219753873 5.25501519229717e-16
  endloop
endfacet
facet normal -2.4939971138567874e-18 3.491595959399533e-18 -1.0
  outer loop
    vertex 322.4563555879806 543.1984219753874 7.469242013279851e-16
    vertex 319.25635558798064 545.6984219753873 5.25501519229717e-16
    vertex 322.4563555879806 548.1984219753873 7.8184016092198e-16
  endloop
endfacet
facet normal 0.2588190451025587 0.9659258262890581 0.0
  outer loop
    vertex 318.2669384421037 546.8575329669342 63.99999999999999
    vertex 318.55635558798065 546.7376524599287 59.99999999999999
    vertex 318.2669384421037 546.8575329669342 59.99999999999999
  endloop
endfacet
facet normal 0.5000000000000433 0.8660254037844136 0.0
  outer loop
    vertex 318.55635558798065 546.7376524599287 59.99999999999999
    vertex 318.2669384421037 546.8575329669342 63.99999999999999
    vertex 318.55635558798065 546.7376524599287 63.99999999999999
  endloop
endfacet
facet normal 0.0 1.0 0.0
  outer loop
    vertex 317.9563555879807 546.8984219753874 63.99999999999999
    vertex 318.2669384421037 546.8575329669342 59.99999999999999
    vertex 317.9563555879807 546.8984219753874 59.99999999999999
  endloop
endfacet
facet normal 0.2588190451025587 0.9659258262890581 0.0
  outer loop
    vertex 318.2669384421037 546.8575329669342 59.99999999999999
    vertex 317.9563555879807 546.8984219753874 63.99999999999999
    vertex 318.2669384421037 546.8575329669342 63.99999999999999
  endloop
endfacet
facet normal 2.4939971138567874e-18 -3.491595959399533e-18 1.0
  outer loop
    vertex 315.4563555879806 543.1984219753874 59.99999999999999
    vertex 316.91712510343933 545.0984219753873 59.99999999999999
    vertex 315.4563555879806 548.1984219753873 59.99999999999999
  endloop
endfacet
facet normal 2.4939971138567874e-18 -3.491595959399533e-18 1.0
  outer loop
    vertex 316.91712510343933 545.0984219753873 59.99999999999999
    vertex 315.4563555879806 543.1984219753874 59.99999999999999
    vertex 317.10782745055684 544.8498938379635 59.99999999999999
  endloop
endfacet
facet normal 2.4939971138567874e-18 -3.491595959399533e-18 1.0
  outer loop
    vertex 317.10782745055684 544.8498938379635 59.99999999999999
    vertex 315.4563555879806 543.1984219753874 59.99999999999999
    vertex 317.35635558798066 544.6591914908461 59.99999999999999
  endloop
endfacet
facet normal 2.4939971138567874e-18 -3.491595959399533e-18 1.0
  outer loop
    vertex 317.35635558798066 544.6591914908461 59.99999999999999
    vertex 315.4563555879806 543.1984219753874 59.99999999999999
    vertex 320.4563555879807 543.1984219753874 59.99999999999999
  endloop
endfacet
facet normal 2.4939971138567874e-18 -3.491595959399533e-18 1.0
  outer loop
    vertex 315.4563555879806 548.1984219753873 59.99999999999999
    vertex 316.91712510343933 545.0984219753873 59.99999999999999
    vertex 316.79724459643376 545.3878391212643 59.99999999999999
  endloop
endfacet
facet normal 2.4939971138567874e-18 -3.491595959399533e-18 1.0
  outer loop
    vertex 315.4563555879806 548.1984219753873 59.99999999999999
    vertex 316.79724459643376 545.3878391212643 59.99999999999999
    vertex 316.75635558798064 545.6984219753873 59.99999999999999
  endloop
endfacet
facet normal 2.4939971138567874e-18 -3.491595959399533e-18 1.0
  outer loop
    vertex 317.35635558798066 544.6591914908461 59.99999999999999
    vertex 320.4563555879807 543.1984219753874 59.99999999999999
    vertex 317.6457727338576 544.5393109838404 59.99999999999999
  endloop
endfacet
facet normal 2.4939971138567874e-18 -3.491595959399533e-18 1.0
  outer loop
    vertex 317.6457727338576 544.5393109838404 59.99999999999999
    vertex 320.4563555879807 543.1984219753874 59.99999999999999
    vertex 317.9563555879807 544.4984219753874 59.99999999999999
  endloop
endfacet
facet normal 2.4939971138567874e-18 -3.491595959399533e-18 1.0
  outer loop
    vertex 317.9563555879807 544.4984219753874 59.99999999999999
    vertex 320.4563555879807 543.1984219753874 59.99999999999999
    vertex 318.2669384421037 544.5393109838404 59.99999999999999
  endloop
endfacet
facet normal 2.4939971138567874e-18 -3.491595959399533e-18 1.0
  outer loop
    vertex 318.2669384421037 544.5393109838404 59.99999999999999
    vertex 320.4563555879807 543.1984219753874 59.99999999999999
    vertex 318.55635558798065 544.6591914908461 59.99999999999999
  endloop
endfacet
facet normal 2.4939971138567874e-18 -3.491595959399533e-18 1.0
  outer loop
    vertex 318.55635558798065 544.6591914908461 59.99999999999999
    vertex 320.4563555879807 543.1984219753874 59.99999999999999
    vertex 318.8048837254045 544.8498938379635 59.99999999999999
  endloop
endfacet
facet normal 2.4939971138567874e-18 -3.491595959399533e-18 1.0
  outer loop
    vertex 318.8048837254045 544.8498938379635 59.99999999999999
    vertex 320.4563555879807 543.1984219753874 59.99999999999999
    vertex 318.995586072522 545.0984219753874 59.99999999999999
  endloop
endfacet
facet normal 2.4939971138567874e-18 -3.491595959399533e-18 1.0
  outer loop
    vertex 318.995586072522 545.0984219753874 59.99999999999999
    vertex 320.4563555879807 543.1984219753874 59.99999999999999
    vertex 319.11546657952755 545.3878391212643 59.99999999999999
  endloop
endfacet
facet normal 2.4939971138567874e-18 -3.491595959399533e-18 1.0
  outer loop
    vertex 319.11546657952755 545.3878391212643 59.99999999999999
    vertex 320.4563555879807 543.1984219753874 59.99999999999999
    vertex 319.15635558798067 545.6984219753873 59.99999999999999
  endloop
endfacet
facet normal 2.4939971138567874e-18 -3.491595959399533e-18 1.0
  outer loop
    vertex 315.4563555879806 548.1984219753873 59.99999999999999
    vertex 317.35635558798066 546.7376524599287 59.99999999999999
    vertex 320.4563555879807 548.1984219753873 59.99999999999999
  endloop
endfacet
facet normal 2.4939971138567874e-18 -3.491595959399533e-18 1.0
  outer loop
    vertex 317.35635558798066 546.7376524599287 59.99999999999999
    vertex 315.4563555879806 548.1984219753873 59.99999999999999
    vertex 317.10782745055684 546.5469501128111 59.99999999999999
  endloop
endfacet
facet normal 2.4939971138567874e-18 -3.491595959399533e-18 1.0
  outer loop
    vertex 317.10782745055684 546.5469501128111 59.99999999999999
    vertex 315.4563555879806 548.1984219753873 59.99999999999999
    vertex 316.91712510343933 546.2984219753873 59.99999999999999
  endloop
endfacet
facet normal 2.4939971138567874e-18 -3.491595959399533e-18 1.0
  outer loop
    vertex 316.91712510343933 546.2984219753873 59.99999999999999
    vertex 315.4563555879806 548.1984219753873 59.99999999999999
    vertex 316.79724459643376 546.0090048295103 59.99999999999999
  endloop
endfacet
facet normal 2.4939971138567874e-18 -3.491595959399533e-18 1.0
  outer loop
    vertex 316.79724459643376 546.0090048295103 59.99999999999999
    vertex 315.4563555879806 548.1984219753873 59.99999999999999
    vertex 316.75635558798064 545.6984219753873 59.99999999999999
  endloop
endfacet
facet normal 2.4939971138567874e-18 -3.491595959399533e-18 1.0
  outer loop
    vertex 320.4563555879807 548.1984219753873 59.99999999999999
    vertex 317.35635558798066 546.7376524599287 59.99999999999999
    vertex 317.6457727338576 546.8575329669342 59.99999999999999
  endloop
endfacet
facet normal 2.4939971138567874e-18 -3.491595959399533e-18 1.0
  outer loop
    vertex 320.4563555879807 548.1984219753873 59.99999999999999
    vertex 317.6457727338576 546.8575329669342 59.99999999999999
    vertex 317.9563555879807 546.8984219753874 59.99999999999999
  endloop
endfacet
facet normal 2.4939971138567874e-18 -3.491595959399533e-18 1.0
  outer loop
    vertex 320.4563555879807 548.1984219753873 59.99999999999999
    vertex 317.9563555879807 546.8984219753874 59.99999999999999
    vertex 318.2669384421037 546.8575329669342 59.99999999999999
  endloop
endfacet
facet normal 2.4939971138567874e-18 -3.491595959399533e-18 1.0
  outer loop
    vertex 320.4563555879807 548.1984219753873 59.99999999999999
    vertex 318.2669384421037 546.8575329669342 59.99999999999999
    vertex 318.55635558798065 546.7376524599287 59.99999999999999
  endloop
endfacet
facet normal 2.4939971138567874e-18 -3.491595959399533e-18 1.0
  outer loop
    vertex 320.4563555879807 548.1984219753873 59.99999999999999
    vertex 318.55635558798065 546.7376524599287 59.99999999999999
    vertex 318.8048837254045 546.5469501128111 59.99999999999999
  endloop
endfacet
facet normal 2.4939971138567874e-18 -3.491595959399533e-18 1.0
  outer loop
    vertex 320.4563555879807 548.1984219753873 59.99999999999999
    vertex 318.8048837254045 546.5469501128111 59.99999999999999
    vertex 318.995586072522 546.2984219753874 59.99999999999999
  endloop
endfacet
facet normal 2.4939971138567874e-18 -3.491595959399533e-18 1.0
  outer loop
    vertex 320.4563555879807 548.1984219753873 59.99999999999999
    vertex 318.995586072522 546.2984219753874 59.99999999999999
    vertex 319.11546657952755 546.0090048295103 59.99999999999999
  endloop
endfacet
facet normal 2.4939971138567874e-18 -3.491595959399533e-18 1.0
  outer loop
    vertex 320.4563555879807 548.1984219753873 59.99999999999999
    vertex 319.11546657952755 546.0090048295103 59.99999999999999
    vertex 319.15635558798067 545.6984219753873 59.99999999999999
  endloop
endfacet
facet normal 2.4939971138567874e-18 -3.491595959399533e-18 1.0
  outer loop
    vertex 320.4563555879807 548.1984219753873 59.99999999999999
    vertex 319.15635558798067 545.6984219753873 59.99999999999999
    vertex 320.4563555879807 543.1984219753874 59.99999999999999
  endloop
endfacet
facet normal 0.0 -1.0 0.0
  outer loop
    vertex 317.9563555879807 544.4984219753874 63.99999999999999
    vertex 317.6457727338576 544.5393109838404 59.99999999999999
    vertex 317.9563555879807 544.4984219753874 59.99999999999999
  endloop
endfacet
facet normal -0.2588190451025587 -0.9659258262890581 0.0
  outer loop
    vertex 317.6457727338576 544.5393109838404 59.99999999999999
    vertex 317.9563555879807 544.4984219753874 63.99999999999999
    vertex 317.6457727338576 544.5393109838404 63.99999999999999
  endloop
endfacet
facet normal -0.9659258262890653 -0.258819045102532 0.0
  outer loop
    vertex 316.79724459643376 545.3878391212643 63.99999999999999
    vertex 316.91712510343933 545.0984219753873 59.99999999999999
    vertex 316.91712510343933 545.0984219753873 63.99999999999999
  endloop
endfacet
facet normal -0.8660254037844055 -0.5000000000000574 0.0
  outer loop
    vertex 316.91712510343933 545.0984219753873 59.99999999999999
    vertex 316.79724459643376 545.3878391212643 63.99999999999999
    vertex 316.79724459643376 545.3878391212643 59.99999999999999
  endloop
endfacet
facet normal -0.0 1.0 3.491595959399533e-18
  outer loop
    vertex 315.4563555879806 548.1984219753873 59.99999999999999
    vertex 318.4563555879806 548.1984219753873 30.0
    vertex 315.4563555879806 548.1984219753873 30.0
  endloop
endfacet
facet normal -0.0 1.0 3.491595959399533e-18
  outer loop
    vertex 318.4563555879806 548.1984219753873 30.0
    vertex 315.4563555879806 548.1984219753873 59.99999999999999
    vertex 320.4563555879807 548.1984219753873 40.0
  endloop
endfacet
facet normal -0.0 1.0 3.491595959399533e-18
  outer loop
    vertex 320.4563555879807 548.1984219753873 40.0
    vertex 315.4563555879806 548.1984219753873 59.99999999999999
    vertex 320.4563555879807 548.1984219753873 59.99999999999999
  endloop
endfacet
facet normal -0.0 1.0 3.491595959399533e-18
  outer loop
    vertex 315.4563555879806 548.1984219753873 10.0
    vertex 322.4563555879806 548.1984219753873 7.8184016092198e-16
    vertex 315.4563555879806 548.1984219753873 7.8184016092198e-16
  endloop
endfacet
facet normal -0.0 1.0 3.491595959399533e-18
  outer loop
    vertex 322.4563555879806 548.1984219753873 7.8184016092198e-16
    vertex 315.4563555879806 548.1984219753873 10.0
    vertex 318.4563555879806 548.1984219753873 10.0
  endloop
endfacet
facet normal -0.0 1.0 3.491595959399533e-18
  outer loop
    vertex 322.4563555879806 548.1984219753873 7.8184016092198e-16
    vertex 318.4563555879806 548.1984219753873 10.0
    vertex 322.4563555879806 548.1984219753873 40.0
  endloop
endfacet
facet normal -0.0 1.0 3.491595959399533e-18
  outer loop
    vertex 322.4563555879806 548.1984219753873 40.0
    vertex 318.4563555879806 548.1984219753873 10.0
    vertex 318.4563555879806 548.1984219753873 30.0
  endloop
endfacet
facet normal -0.0 1.0 3.491595959399533e-18
  outer loop
    vertex 322.4563555879806 548.1984219753873 40.0
    vertex 318.4563555879806 548.1984219753873 30.0
    vertex 320.4563555879807 548.1984219753873 40.0
  endloop
endfacet
facet normal 0.8660254037844055 0.5000000000000574 0.0
  outer loop
    vertex 318.995586072522 546.2984219753874 59.99999999999999
    vertex 319.11546657952755 546.0090048295103 63.99999999999999
    vertex 319.11546657952755 546.0090048295103 59.99999999999999
  endloop
endfacet
facet normal 0.9659258262890653 0.258819045102532 0.0
  outer loop
    vertex 319.11546657952755 546.0090048295103 63.99999999999999
    vertex 318.995586072522 546.2984219753874 59.99999999999999
    vertex 318.995586072522 546.2984219753874 63.99999999999999
  endloop
endfacet
facet normal 0.965925826289051 -0.25881904510258535 0.0
  outer loop
    vertex 319.11546657952755 545.3878391212643 59.99999999999999
    vertex 318.995586072522 545.0984219753874 63.99999999999999
    vertex 318.995586072522 545.0984219753874 59.99999999999999
  endloop
endfacet
facet normal 0.8660254037844217 -0.5000000000000291 0.0
  outer loop
    vertex 318.995586072522 545.0984219753874 63.99999999999999
    vertex 319.11546657952755 545.3878391212643 59.99999999999999
    vertex 319.11546657952755 545.3878391212643 63.99999999999999
  endloop
endfacet
facet normal 1.0 0.0 0.0
  outer loop
    vertex 319.15635558798067 545.6984219753873 59.99999999999999
    vertex 319.11546657952755 545.3878391212643 63.99999999999999
    vertex 319.11546657952755 545.3878391212643 59.99999999999999
  endloop
endfacet
facet normal 0.965925826289051 -0.25881904510258535 0.0
  outer loop
    vertex 319.11546657952755 545.3878391212643 63.99999999999999
    vertex 319.15635558798067 545.6984219753873 59.99999999999999
    vertex 319.15635558798067 545.6984219753873 63.99999999999999
  endloop
endfacet
facet normal -0.2588190451025587 -0.9659258262890581 0.0
  outer loop
    vertex 317.6457727338576 544.5393109838404 63.99999999999999
    vertex 317.35635558798066 544.6591914908461 59.99999999999999
    vertex 317.6457727338576 544.5393109838404 59.99999999999999
  endloop
endfacet
facet normal -0.5000000000000433 -0.8660254037844136 0.0
  outer loop
    vertex 317.35635558798066 544.6591914908461 59.99999999999999
    vertex 317.6457727338576 544.5393109838404 63.99999999999999
    vertex 317.35635558798066 544.6591914908461 63.99999999999999
  endloop
endfacet
facet normal 0.7071067811865167 0.7071067811865785 0.0
  outer loop
    vertex 318.8048837254045 546.5469501128111 59.99999999999999
    vertex 318.995586072522 546.2984219753874 63.99999999999999
    vertex 318.995586072522 546.2984219753874 59.99999999999999
  endloop
endfacet
facet normal 0.8660254037844055 0.5000000000000574 0.0
  outer loop
    vertex 318.995586072522 546.2984219753874 63.99999999999999
    vertex 318.8048837254045 546.5469501128111 59.99999999999999
    vertex 318.8048837254045 546.5469501128111 63.99999999999999
  endloop
endfacet
facet normal 0.5000000000000433 0.8660254037844136 0.0
  outer loop
    vertex 318.55635558798065 546.7376524599287 63.99999999999999
    vertex 318.8048837254045 546.5469501128111 59.99999999999999
    vertex 318.55635558798065 546.7376524599287 59.99999999999999
  endloop
endfacet
facet normal 0.7071067811865167 0.7071067811865785 0.0
  outer loop
    vertex 318.8048837254045 546.5469501128111 59.99999999999999
    vertex 318.55635558798065 546.7376524599287 63.99999999999999
    vertex 318.8048837254045 546.5469501128111 63.99999999999999
  endloop
endfacet
facet normal 0.5000000000000433 -0.8660254037844136 0.0
  outer loop
    vertex 318.55635558798065 544.6591914908461 63.99999999999999
    vertex 318.2669384421037 544.5393109838404 59.99999999999999
    vertex 318.55635558798065 544.6591914908461 59.99999999999999
  endloop
endfacet
facet normal 0.2588190451025587 -0.9659258262890581 0.0
  outer loop
    vertex 318.2669384421037 544.5393109838404 59.99999999999999
    vertex 318.55635558798065 544.6591914908461 63.99999999999999
    vertex 318.2669384421037 544.5393109838404 63.99999999999999
  endloop
endfacet
endsolid mätförlängare2
