solid ascii
  facet normal 0.000000e+000 0.000000e+000 1.000000e+000
    outer loop
      vertex   1.310000e+002 2.400000e+000 3.525000e+000
      vertex   1.190000e+002 2.400000e+000 3.525000e+000
      vertex   1.310000e+002 -1.690400e+001 3.525000e+000
    endloop
  endfacet
  facet normal 0.000000e+000 0.000000e+000 1.000000e+000
    outer loop
      vertex   1.310000e+002 -1.690400e+001 3.525000e+000
      vertex   1.190000e+002 2.400000e+000 3.525000e+000
      vertex   1.190000e+002 -4.840000e+001 3.525000e+000
    endloop
  endfacet
  facet normal 0.000000e+000 0.000000e+000 1.000000e+000
    outer loop
      vertex   1.310000e+002 -2.909600e+001 3.525000e+000
      vertex   1.190000e+002 -4.840000e+001 3.525000e+000
      vertex   1.310000e+002 -5.551200e+001 3.525000e+000
    endloop
  endfacet
  facet normal 0.000000e+000 -0.000000e+000 1.000000e+000
    outer loop
      vertex   1.310000e+002 -2.909600e+001 3.525000e+000
      vertex   1.310000e+002 -1.690400e+001 3.525000e+000
      vertex   1.190000e+002 -4.840000e+001 3.525000e+000
    endloop
  endfacet
  facet normal 0.000000e+000 -0.000000e+000 1.000000e+000
    outer loop
      vertex   1.310000e+002 -2.909600e+001 3.525000e+000
      vertex   1.690000e+002 -2.909600e+001 3.525000e+000
      vertex   1.310000e+002 -1.690400e+001 3.525000e+000
    endloop
  endfacet
  facet normal -0.000000e+000 0.000000e+000 1.000000e+000
    outer loop
      vertex   1.310000e+002 -1.690400e+001 3.525000e+000
      vertex   1.690000e+002 -2.909600e+001 3.525000e+000
      vertex   1.690000e+002 -1.690400e+001 3.525000e+000
    endloop
  endfacet
  facet normal 0.000000e+000 0.000000e+000 1.000000e+000
    outer loop
      vertex   1.690000e+002 -1.690400e+001 3.525000e+000
      vertex   1.690000e+002 -2.909600e+001 3.525000e+000
      vertex   1.810000e+002 -4.840000e+001 3.525000e+000
    endloop
  endfacet
  facet normal 0.000000e+000 0.000000e+000 1.000000e+000
    outer loop
      vertex   1.810000e+002 2.400000e+000 3.525000e+000
      vertex   1.690000e+002 -1.690400e+001 3.525000e+000
      vertex   1.810000e+002 -4.840000e+001 3.525000e+000
    endloop
  endfacet
  facet normal 0.000000e+000 0.000000e+000 1.000000e+000
    outer loop
      vertex   1.810000e+002 2.400000e+000 3.525000e+000
      vertex   1.690000e+002 2.400000e+000 3.525000e+000
      vertex   1.690000e+002 -1.690400e+001 3.525000e+000
    endloop
  endfacet
  facet normal 0.000000e+000 0.000000e+000 1.000000e+000
    outer loop
      vertex   1.310000e+002 -5.551200e+001 3.525000e+000
      vertex   1.190000e+002 -4.840000e+001 3.525000e+000
      vertex   1.310000e+002 -6.872000e+001 3.525000e+000
    endloop
  endfacet
  facet normal 0.000000e+000 0.000000e+000 1.000000e+000
    outer loop
      vertex   1.690000e+002 -6.872000e+001 3.525000e+000
      vertex   1.310000e+002 -5.551200e+001 3.525000e+000
      vertex   1.310000e+002 -6.872000e+001 3.525000e+000
    endloop
  endfacet
  facet normal 0.000000e+000 -0.000000e+000 1.000000e+000
    outer loop
      vertex   1.690000e+002 -6.872000e+001 3.525000e+000
      vertex   1.690000e+002 -5.551200e+001 3.525000e+000
      vertex   1.310000e+002 -5.551200e+001 3.525000e+000
    endloop
  endfacet
  facet normal 0.000000e+000 -0.000000e+000 1.000000e+000
    outer loop
      vertex   1.690000e+002 -6.872000e+001 3.525000e+000
      vertex   1.810000e+002 -4.840000e+001 3.525000e+000
      vertex   1.690000e+002 -5.551200e+001 3.525000e+000
    endloop
  endfacet
  facet normal -0.000000e+000 0.000000e+000 1.000000e+000
    outer loop
      vertex   1.690000e+002 -6.872000e+001 3.525000e+000
      vertex   1.810000e+002 -9.920000e+001 3.525000e+000
      vertex   1.810000e+002 -4.840000e+001 3.525000e+000
    endloop
  endfacet
  facet normal 0.000000e+000 0.000000e+000 1.000000e+000
    outer loop
      vertex   1.690000e+002 -6.872000e+001 3.525000e+000
      vertex   1.690000e+002 -9.208800e+001 3.525000e+000
      vertex   1.810000e+002 -9.920000e+001 3.525000e+000
    endloop
  endfacet
  facet normal 0.000000e+000 0.000000e+000 1.000000e+000
    outer loop
      vertex   1.810000e+002 -9.920000e+001 3.525000e+000
      vertex   1.690000e+002 -9.208800e+001 3.525000e+000
      vertex   1.310000e+002 -9.208800e+001 3.525000e+000
    endloop
  endfacet
  facet normal 0.000000e+000 0.000000e+000 1.000000e+000
    outer loop
      vertex   1.190000e+002 -9.920000e+001 3.525000e+000
      vertex   1.310000e+002 -9.208800e+001 3.525000e+000
      vertex   1.310000e+002 -6.872000e+001 3.525000e+000
    endloop
  endfacet
  facet normal -0.000000e+000 0.000000e+000 1.000000e+000
    outer loop
      vertex   1.190000e+002 -4.840000e+001 3.525000e+000
      vertex   1.190000e+002 -9.920000e+001 3.525000e+000
      vertex   1.310000e+002 -6.872000e+001 3.525000e+000
    endloop
  endfacet
  facet normal 0.000000e+000 -0.000000e+000 1.000000e+000
    outer loop
      vertex   1.190000e+002 -1.500000e+002 3.525000e+000
      vertex   1.310000e+002 -1.276480e+002 3.525000e+000
      vertex   1.190000e+002 -9.920000e+001 3.525000e+000
    endloop
  endfacet
  facet normal 0.000000e+000 0.000000e+000 1.000000e+000
    outer loop
      vertex   1.190000e+002 -1.500000e+002 3.525000e+000
      vertex   1.310000e+002 -1.398400e+002 3.525000e+000
      vertex   1.310000e+002 -1.276480e+002 3.525000e+000
    endloop
  endfacet
  facet normal -0.000000e+000 0.000000e+000 1.000000e+000
    outer loop
      vertex   1.190000e+002 -1.500000e+002 3.525000e+000
      vertex   1.310000e+002 -1.662560e+002 3.525000e+000
      vertex   1.310000e+002 -1.398400e+002 3.525000e+000
    endloop
  endfacet
  facet normal -0.000000e+000 0.000000e+000 1.000000e+000
    outer loop
      vertex   1.190000e+002 -1.500000e+002 3.525000e+000
      vertex   1.310000e+002 -1.784480e+002 3.525000e+000
      vertex   1.310000e+002 -1.662560e+002 3.525000e+000
    endloop
  endfacet
  facet normal -0.000000e+000 0.000000e+000 1.000000e+000
    outer loop
      vertex   1.190000e+002 -1.500000e+002 3.525000e+000
      vertex   1.190000e+002 -2.008000e+002 3.525000e+000
      vertex   1.310000e+002 -1.784480e+002 3.525000e+000
    endloop
  endfacet
  facet normal 0.000000e+000 0.000000e+000 1.000000e+000
    outer loop
      vertex   1.310000e+002 -1.784480e+002 3.525000e+000
      vertex   1.190000e+002 -2.008000e+002 3.525000e+000
      vertex   1.310000e+002 -2.018160e+002 3.525000e+000
    endloop
  endfacet
  facet normal 0.000000e+000 0.000000e+000 1.000000e+000
    outer loop
      vertex   1.310000e+002 -2.018160e+002 3.525000e+000
      vertex   1.190000e+002 -2.008000e+002 3.525000e+000
      vertex   1.310000e+002 -2.150240e+002 3.525000e+000
    endloop
  endfacet
  facet normal 0.000000e+000 0.000000e+000 1.000000e+000
    outer loop
      vertex   1.690000e+002 -2.150240e+002 3.525000e+000
      vertex   1.310000e+002 -2.018160e+002 3.525000e+000
      vertex   1.310000e+002 -2.150240e+002 3.525000e+000
    endloop
  endfacet
  facet normal 0.000000e+000 -0.000000e+000 1.000000e+000
    outer loop
      vertex   1.690000e+002 -2.150240e+002 3.525000e+000
      vertex   1.690000e+002 -2.018160e+002 3.525000e+000
      vertex   1.310000e+002 -2.018160e+002 3.525000e+000
    endloop
  endfacet
  facet normal 0.000000e+000 -0.000000e+000 1.000000e+000
    outer loop
      vertex   1.690000e+002 -2.150240e+002 3.525000e+000
      vertex   1.810000e+002 -2.008000e+002 3.525000e+000
      vertex   1.690000e+002 -2.018160e+002 3.525000e+000
    endloop
  endfacet
  facet normal -0.000000e+000 0.000000e+000 1.000000e+000
    outer loop
      vertex   1.690000e+002 -2.150240e+002 3.525000e+000
      vertex   1.810000e+002 -2.516000e+002 3.525000e+000
      vertex   1.810000e+002 -2.008000e+002 3.525000e+000
    endloop
  endfacet
  facet normal 0.000000e+000 0.000000e+000 1.000000e+000
    outer loop
      vertex   1.690000e+002 -2.150240e+002 3.525000e+000
      vertex   1.690000e+002 -2.404240e+002 3.525000e+000
      vertex   1.810000e+002 -2.516000e+002 3.525000e+000
    endloop
  endfacet
  facet normal 0.000000e+000 0.000000e+000 1.000000e+000
    outer loop
      vertex   1.810000e+002 -2.516000e+002 3.525000e+000
      vertex   1.690000e+002 -2.404240e+002 3.525000e+000
      vertex   1.310000e+002 -2.404240e+002 3.525000e+000
    endloop
  endfacet
  facet normal 0.000000e+000 0.000000e+000 1.000000e+000
    outer loop
      vertex   1.190000e+002 -2.516000e+002 3.525000e+000
      vertex   1.310000e+002 -2.404240e+002 3.525000e+000
      vertex   1.310000e+002 -2.150240e+002 3.525000e+000
    endloop
  endfacet
  facet normal -0.000000e+000 0.000000e+000 1.000000e+000
    outer loop
      vertex   1.190000e+002 -2.008000e+002 3.525000e+000
      vertex   1.190000e+002 -2.516000e+002 3.525000e+000
      vertex   1.310000e+002 -2.150240e+002 3.525000e+000
    endloop
  endfacet
  facet normal 0.000000e+000 -0.000000e+000 1.000000e+000
    outer loop
      vertex   1.190000e+002 -3.024000e+002 3.525000e+000
      vertex   1.310000e+002 -2.536320e+002 3.525000e+000
      vertex   1.190000e+002 -2.516000e+002 3.525000e+000
    endloop
  endfacet
  facet normal 0.000000e+000 0.000000e+000 1.000000e+000
    outer loop
      vertex   1.190000e+002 -3.024000e+002 3.525000e+000
      vertex   1.310000e+002 -3.024000e+002 3.525000e+000
      vertex   1.310000e+002 -2.536320e+002 3.525000e+000
    endloop
  endfacet
  facet normal 0.000000e+000 -0.000000e+000 1.000000e+000
    outer loop
      vertex   1.310000e+002 -2.536320e+002 3.525000e+000
      vertex   1.690000e+002 -2.536320e+002 3.525000e+000
      vertex   1.190000e+002 -2.516000e+002 3.525000e+000
    endloop
  endfacet
  facet normal -0.000000e+000 0.000000e+000 1.000000e+000
    outer loop
      vertex   1.190000e+002 -2.516000e+002 3.525000e+000
      vertex   1.690000e+002 -2.536320e+002 3.525000e+000
      vertex   1.810000e+002 -2.516000e+002 3.525000e+000
    endloop
  endfacet
  facet normal -0.000000e+000 0.000000e+000 1.000000e+000
    outer loop
      vertex   1.310000e+002 -2.404240e+002 3.525000e+000
      vertex   1.190000e+002 -2.516000e+002 3.525000e+000
      vertex   1.810000e+002 -2.516000e+002 3.525000e+000
    endloop
  endfacet
  facet normal 0.000000e+000 -0.000000e+000 1.000000e+000
    outer loop
      vertex   1.690000e+002 -3.024000e+002 3.525000e+000
      vertex   1.810000e+002 -3.024000e+002 3.525000e+000
      vertex   1.690000e+002 -2.536320e+002 3.525000e+000
    endloop
  endfacet
  facet normal -0.000000e+000 0.000000e+000 1.000000e+000
    outer loop
      vertex   1.690000e+002 -2.536320e+002 3.525000e+000
      vertex   1.810000e+002 -3.024000e+002 3.525000e+000
      vertex   1.810000e+002 -2.516000e+002 3.525000e+000
    endloop
  endfacet
  facet normal 0.000000e+000 -0.000000e+000 1.000000e+000
    outer loop
      vertex   1.690000e+002 -2.018160e+002 3.525000e+000
      vertex   1.810000e+002 -2.008000e+002 3.525000e+000
      vertex   1.690000e+002 -1.784480e+002 3.525000e+000
    endloop
  endfacet
  facet normal -0.000000e+000 0.000000e+000 1.000000e+000
    outer loop
      vertex   1.690000e+002 -1.784480e+002 3.525000e+000
      vertex   1.810000e+002 -2.008000e+002 3.525000e+000
      vertex   1.810000e+002 -1.500000e+002 3.525000e+000
    endloop
  endfacet
  facet normal 0.000000e+000 -0.000000e+000 1.000000e+000
    outer loop
      vertex   1.690000e+002 -1.662560e+002 3.525000e+000
      vertex   1.810000e+002 -1.500000e+002 3.525000e+000
      vertex   1.690000e+002 -1.398400e+002 3.525000e+000
    endloop
  endfacet
  facet normal -0.000000e+000 0.000000e+000 1.000000e+000
    outer loop
      vertex   1.690000e+002 -1.662560e+002 3.525000e+000
      vertex   1.690000e+002 -1.784480e+002 3.525000e+000
      vertex   1.810000e+002 -1.500000e+002 3.525000e+000
    endloop
  endfacet
  facet normal 0.000000e+000 0.000000e+000 1.000000e+000
    outer loop
      vertex   1.690000e+002 -1.662560e+002 3.525000e+000
      vertex   1.310000e+002 -1.662560e+002 3.525000e+000
      vertex   1.690000e+002 -1.784480e+002 3.525000e+000
    endloop
  endfacet
  facet normal 0.000000e+000 0.000000e+000 1.000000e+000
    outer loop
      vertex   1.690000e+002 -1.784480e+002 3.525000e+000
      vertex   1.310000e+002 -1.662560e+002 3.525000e+000
      vertex   1.310000e+002 -1.784480e+002 3.525000e+000
    endloop
  endfacet
  facet normal -0.000000e+000 -0.000000e+000 1.000000e+000
    outer loop
      vertex   1.690000e+002 -1.398400e+002 3.525000e+000
      vertex   1.810000e+002 -1.500000e+002 3.525000e+000
      vertex   1.690000e+002 -1.276480e+002 3.525000e+000
    endloop
  endfacet
  facet normal -0.000000e+000 0.000000e+000 1.000000e+000
    outer loop
      vertex   1.310000e+002 -1.276480e+002 3.525000e+000
      vertex   1.690000e+002 -1.398400e+002 3.525000e+000
      vertex   1.690000e+002 -1.276480e+002 3.525000e+000
    endloop
  endfacet
  facet normal -0.000000e+000 0.000000e+000 1.000000e+000
    outer loop
      vertex   1.310000e+002 -1.276480e+002 3.525000e+000
      vertex   1.310000e+002 -1.398400e+002 3.525000e+000
      vertex   1.690000e+002 -1.398400e+002 3.525000e+000
    endloop
  endfacet
  facet normal -0.000000e+000 0.000000e+000 1.000000e+000
    outer loop
      vertex   1.690000e+002 -2.909600e+001 3.525000e+000
      vertex   1.690000e+002 -5.551200e+001 3.525000e+000
      vertex   1.810000e+002 -4.840000e+001 3.525000e+000
    endloop
  endfacet
  facet normal 0.000000e+000 0.000000e+000 1.000000e+000
    outer loop
      vertex   1.810000e+002 -9.920000e+001 3.525000e+000
      vertex   1.310000e+002 -9.208800e+001 3.525000e+000
      vertex   1.190000e+002 -9.920000e+001 3.525000e+000
    endloop
  endfacet
  facet normal 0.000000e+000 0.000000e+000 1.000000e+000
    outer loop
      vertex   1.690000e+002 -1.042800e+002 3.525000e+000
      vertex   1.190000e+002 -9.920000e+001 3.525000e+000
      vertex   1.310000e+002 -1.042800e+002 3.525000e+000
    endloop
  endfacet
  facet normal 0.000000e+000 -0.000000e+000 1.000000e+000
    outer loop
      vertex   1.690000e+002 -1.042800e+002 3.525000e+000
      vertex   1.810000e+002 -9.920000e+001 3.525000e+000
      vertex   1.190000e+002 -9.920000e+001 3.525000e+000
    endloop
  endfacet
  facet normal -0.000000e+000 0.000000e+000 1.000000e+000
    outer loop
      vertex   1.690000e+002 -1.042800e+002 3.525000e+000
      vertex   1.690000e+002 -1.276480e+002 3.525000e+000
      vertex   1.810000e+002 -9.920000e+001 3.525000e+000
    endloop
  endfacet
  facet normal 0.000000e+000 0.000000e+000 1.000000e+000
    outer loop
      vertex   1.810000e+002 -9.920000e+001 3.525000e+000
      vertex   1.690000e+002 -1.276480e+002 3.525000e+000
      vertex   1.810000e+002 -1.500000e+002 3.525000e+000
    endloop
  endfacet
  facet normal 0.000000e+000 -0.000000e+000 1.000000e+000
    outer loop
      vertex   1.310000e+002 -1.276480e+002 3.525000e+000
      vertex   1.310000e+002 -1.042800e+002 3.525000e+000
      vertex   1.190000e+002 -9.920000e+001 3.525000e+000
    endloop
  endfacet
  facet normal 0.000000e+000 -1.000000e+000 0.000000e+000
    outer loop
      vertex   1.310000e+002 -2.150240e+002 3.525000e+000
      vertex   1.310000e+002 -2.150240e+002 -2.825000e+000
      vertex   1.690000e+002 -2.150240e+002 3.525000e+000
    endloop
  endfacet
  facet normal 0.000000e+000 -1.000000e+000 -0.000000e+000
    outer loop
      vertex   1.690000e+002 -2.150240e+002 3.525000e+000
      vertex   1.310000e+002 -2.150240e+002 -2.825000e+000
      vertex   1.690000e+002 -2.150240e+002 -2.825000e+000
    endloop
  endfacet
  facet normal 1.000000e+000 -0.000000e+000 0.000000e+000
    outer loop
      vertex   1.310000e+002 -2.404240e+002 3.525000e+000
      vertex   1.310000e+002 -2.404240e+002 -2.825000e+000
      vertex   1.310000e+002 -2.150240e+002 3.525000e+000
    endloop
  endfacet
  facet normal 1.000000e+000 -0.000000e+000 0.000000e+000
    outer loop
      vertex   1.310000e+002 -2.150240e+002 3.525000e+000
      vertex   1.310000e+002 -2.404240e+002 -2.825000e+000
      vertex   1.310000e+002 -2.150240e+002 -2.825000e+000
    endloop
  endfacet
  facet normal 0.000000e+000 -1.000000e+000 0.000000e+000
    outer loop
      vertex   1.310000e+002 -1.784480e+002 3.525000e+000
      vertex   1.310000e+002 -1.784480e+002 -2.825000e+000
      vertex   1.690000e+002 -1.784480e+002 3.525000e+000
    endloop
  endfacet
  facet normal 0.000000e+000 -1.000000e+000 -0.000000e+000
    outer loop
      vertex   1.690000e+002 -1.784480e+002 3.525000e+000
      vertex   1.310000e+002 -1.784480e+002 -2.825000e+000
      vertex   1.690000e+002 -1.784480e+002 -2.825000e+000
    endloop
  endfacet
  facet normal 1.000000e+000 -0.000000e+000 0.000000e+000
    outer loop
      vertex   1.310000e+002 -2.018160e+002 3.525000e+000
      vertex   1.310000e+002 -2.018160e+002 -2.825000e+000
      vertex   1.310000e+002 -1.784480e+002 3.525000e+000
    endloop
  endfacet
  facet normal 1.000000e+000 -0.000000e+000 0.000000e+000
    outer loop
      vertex   1.310000e+002 -1.784480e+002 3.525000e+000
      vertex   1.310000e+002 -2.018160e+002 -2.825000e+000
      vertex   1.310000e+002 -1.784480e+002 -2.825000e+000
    endloop
  endfacet
  facet normal 0.000000e+000 -1.000000e+000 0.000000e+000
    outer loop
      vertex   1.310000e+002 -1.398400e+002 3.525000e+000
      vertex   1.310000e+002 -1.398400e+002 -2.825000e+000
      vertex   1.690000e+002 -1.398400e+002 3.525000e+000
    endloop
  endfacet
  facet normal 0.000000e+000 -1.000000e+000 -0.000000e+000
    outer loop
      vertex   1.690000e+002 -1.398400e+002 3.525000e+000
      vertex   1.310000e+002 -1.398400e+002 -2.825000e+000
      vertex   1.690000e+002 -1.398400e+002 -2.825000e+000
    endloop
  endfacet
  facet normal 1.000000e+000 -0.000000e+000 0.000000e+000
    outer loop
      vertex   1.310000e+002 -1.662560e+002 3.525000e+000
      vertex   1.310000e+002 -1.662560e+002 -2.825000e+000
      vertex   1.310000e+002 -1.398400e+002 3.525000e+000
    endloop
  endfacet
  facet normal 1.000000e+000 -0.000000e+000 0.000000e+000
    outer loop
      vertex   1.310000e+002 -1.398400e+002 3.525000e+000
      vertex   1.310000e+002 -1.662560e+002 -2.825000e+000
      vertex   1.310000e+002 -1.398400e+002 -2.825000e+000
    endloop
  endfacet
  facet normal 0.000000e+000 -1.000000e+000 0.000000e+000
    outer loop
      vertex   1.310000e+002 -1.042800e+002 3.525000e+000
      vertex   1.310000e+002 -1.042800e+002 -2.825000e+000
      vertex   1.690000e+002 -1.042800e+002 3.525000e+000
    endloop
  endfacet
  facet normal 0.000000e+000 -1.000000e+000 -0.000000e+000
    outer loop
      vertex   1.690000e+002 -1.042800e+002 3.525000e+000
      vertex   1.310000e+002 -1.042800e+002 -2.825000e+000
      vertex   1.690000e+002 -1.042800e+002 -2.825000e+000
    endloop
  endfacet
  facet normal 1.000000e+000 -0.000000e+000 0.000000e+000
    outer loop
      vertex   1.310000e+002 -1.276480e+002 3.525000e+000
      vertex   1.310000e+002 -1.276480e+002 -2.825000e+000
      vertex   1.310000e+002 -1.042800e+002 3.525000e+000
    endloop
  endfacet
  facet normal 1.000000e+000 -0.000000e+000 0.000000e+000
    outer loop
      vertex   1.310000e+002 -1.042800e+002 3.525000e+000
      vertex   1.310000e+002 -1.276480e+002 -2.825000e+000
      vertex   1.310000e+002 -1.042800e+002 -2.825000e+000
    endloop
  endfacet
  facet normal 0.000000e+000 -1.000000e+000 0.000000e+000
    outer loop
      vertex   1.310000e+002 -6.872000e+001 3.525000e+000
      vertex   1.310000e+002 -6.872000e+001 -2.825000e+000
      vertex   1.690000e+002 -6.872000e+001 3.525000e+000
    endloop
  endfacet
  facet normal 0.000000e+000 -1.000000e+000 -0.000000e+000
    outer loop
      vertex   1.690000e+002 -6.872000e+001 3.525000e+000
      vertex   1.310000e+002 -6.872000e+001 -2.825000e+000
      vertex   1.690000e+002 -6.872000e+001 -2.825000e+000
    endloop
  endfacet
  facet normal 1.000000e+000 -0.000000e+000 0.000000e+000
    outer loop
      vertex   1.310000e+002 -9.208800e+001 3.525000e+000
      vertex   1.310000e+002 -9.208800e+001 -2.825000e+000
      vertex   1.310000e+002 -6.872000e+001 3.525000e+000
    endloop
  endfacet
  facet normal 1.000000e+000 -0.000000e+000 0.000000e+000
    outer loop
      vertex   1.310000e+002 -6.872000e+001 3.525000e+000
      vertex   1.310000e+002 -9.208800e+001 -2.825000e+000
      vertex   1.310000e+002 -6.872000e+001 -2.825000e+000
    endloop
  endfacet
  facet normal 0.000000e+000 -1.000000e+000 0.000000e+000
    outer loop
      vertex   1.310000e+002 -2.909600e+001 3.525000e+000
      vertex   1.310000e+002 -2.909600e+001 -2.825000e+000
      vertex   1.690000e+002 -2.909600e+001 3.525000e+000
    endloop
  endfacet
  facet normal 0.000000e+000 -1.000000e+000 -0.000000e+000
    outer loop
      vertex   1.690000e+002 -2.909600e+001 3.525000e+000
      vertex   1.310000e+002 -2.909600e+001 -2.825000e+000
      vertex   1.690000e+002 -2.909600e+001 -2.825000e+000
    endloop
  endfacet
  facet normal 1.000000e+000 -0.000000e+000 0.000000e+000
    outer loop
      vertex   1.310000e+002 -5.551200e+001 3.525000e+000
      vertex   1.310000e+002 -5.551200e+001 -2.825000e+000
      vertex   1.310000e+002 -2.909600e+001 3.525000e+000
    endloop
  endfacet
  facet normal 1.000000e+000 -0.000000e+000 0.000000e+000
    outer loop
      vertex   1.310000e+002 -2.909600e+001 3.525000e+000
      vertex   1.310000e+002 -5.551200e+001 -2.825000e+000
      vertex   1.310000e+002 -2.909600e+001 -2.825000e+000
    endloop
  endfacet
  facet normal 0.000000e+000 1.000000e+000 0.000000e+000
    outer loop
      vertex   1.810000e+002 2.400000e+000 3.525000e+000
      vertex   1.810000e+002 2.400000e+000 -2.825000e+000
      vertex   1.690000e+002 2.400000e+000 3.525000e+000
    endloop
  endfacet
  facet normal 0.000000e+000 1.000000e+000 0.000000e+000
    outer loop
      vertex   1.690000e+002 2.400000e+000 3.525000e+000
      vertex   1.810000e+002 2.400000e+000 -2.825000e+000
      vertex   1.690000e+002 2.400000e+000 -2.825000e+000
    endloop
  endfacet
  facet normal 1.000000e+000 0.000000e+000 -0.000000e+000
    outer loop
      vertex   1.810000e+002 2.400000e+000 -2.825000e+000
      vertex   1.810000e+002 2.400000e+000 3.525000e+000
      vertex   1.810000e+002 -4.840000e+001 -2.825000e+000
    endloop
  endfacet
  facet normal 1.000000e+000 0.000000e+000 -0.000000e+000
    outer loop
      vertex   1.810000e+002 -4.840000e+001 -2.825000e+000
      vertex   1.810000e+002 2.400000e+000 3.525000e+000
      vertex   1.810000e+002 -4.840000e+001 3.525000e+000
    endloop
  endfacet
  facet normal 1.000000e+000 0.000000e+000 -0.000000e+000
    outer loop
      vertex   1.810000e+002 -9.920000e+001 -2.825000e+000
      vertex   1.810000e+002 -4.840000e+001 3.525000e+000
      vertex   1.810000e+002 -9.920000e+001 3.525000e+000
    endloop
  endfacet
  facet normal 1.000000e+000 0.000000e+000 -0.000000e+000
    outer loop
      vertex   1.810000e+002 -1.500000e+002 -2.825000e+000
      vertex   1.810000e+002 -9.920000e+001 3.525000e+000
      vertex   1.810000e+002 -1.500000e+002 3.525000e+000
    endloop
  endfacet
  facet normal 1.000000e+000 0.000000e+000 -0.000000e+000
    outer loop
      vertex   1.810000e+002 -2.008000e+002 -2.825000e+000
      vertex   1.810000e+002 -1.500000e+002 3.525000e+000
      vertex   1.810000e+002 -2.008000e+002 3.525000e+000
    endloop
  endfacet
  facet normal 1.000000e+000 0.000000e+000 -0.000000e+000
    outer loop
      vertex   1.810000e+002 -2.516000e+002 -2.825000e+000
      vertex   1.810000e+002 -2.008000e+002 3.525000e+000
      vertex   1.810000e+002 -2.516000e+002 3.525000e+000
    endloop
  endfacet
  facet normal 1.000000e+000 0.000000e+000 -0.000000e+000
    outer loop
      vertex   1.810000e+002 -3.024000e+002 -2.825000e+000
      vertex   1.810000e+002 -2.516000e+002 3.525000e+000
      vertex   1.810000e+002 -3.024000e+002 3.525000e+000
    endloop
  endfacet
  facet normal 1.000000e+000 0.000000e+000 0.000000e+000
    outer loop
      vertex   1.810000e+002 -3.024000e+002 -2.825000e+000
      vertex   1.810000e+002 -2.516000e+002 -2.825000e+000
      vertex   1.810000e+002 -2.516000e+002 3.525000e+000
    endloop
  endfacet
  facet normal 1.000000e+000 0.000000e+000 -0.000000e+000
    outer loop
      vertex   1.810000e+002 -4.840000e+001 -2.825000e+000
      vertex   1.810000e+002 -4.840000e+001 3.525000e+000
      vertex   1.810000e+002 -9.920000e+001 -2.825000e+000
    endloop
  endfacet
  facet normal 1.000000e+000 0.000000e+000 -0.000000e+000
    outer loop
      vertex   1.810000e+002 -9.920000e+001 -2.825000e+000
      vertex   1.810000e+002 -9.920000e+001 3.525000e+000
      vertex   1.810000e+002 -1.500000e+002 -2.825000e+000
    endloop
  endfacet
  facet normal 1.000000e+000 0.000000e+000 -0.000000e+000
    outer loop
      vertex   1.810000e+002 -1.500000e+002 -2.825000e+000
      vertex   1.810000e+002 -1.500000e+002 3.525000e+000
      vertex   1.810000e+002 -2.008000e+002 -2.825000e+000
    endloop
  endfacet
  facet normal 1.000000e+000 0.000000e+000 -0.000000e+000
    outer loop
      vertex   1.810000e+002 -2.008000e+002 -2.825000e+000
      vertex   1.810000e+002 -2.008000e+002 3.525000e+000
      vertex   1.810000e+002 -2.516000e+002 -2.825000e+000
    endloop
  endfacet
  facet normal 0.000000e+000 -1.000000e+000 0.000000e+000
    outer loop
      vertex   1.690000e+002 -3.024000e+002 3.525000e+000
      vertex   1.690000e+002 -3.024000e+002 -2.825000e+000
      vertex   1.810000e+002 -3.024000e+002 3.525000e+000
    endloop
  endfacet
  facet normal 0.000000e+000 -1.000000e+000 -0.000000e+000
    outer loop
      vertex   1.810000e+002 -3.024000e+002 3.525000e+000
      vertex   1.690000e+002 -3.024000e+002 -2.825000e+000
      vertex   1.810000e+002 -3.024000e+002 -2.825000e+000
    endloop
  endfacet
  facet normal -1.000000e+000 -0.000000e+000 -0.000000e+000
    outer loop
      vertex   1.690000e+002 -2.536320e+002 3.525000e+000
      vertex   1.690000e+002 -2.536320e+002 -2.825000e+000
      vertex   1.690000e+002 -3.024000e+002 3.525000e+000
    endloop
  endfacet
  facet normal -1.000000e+000 -0.000000e+000 -0.000000e+000
    outer loop
      vertex   1.690000e+002 -3.024000e+002 3.525000e+000
      vertex   1.690000e+002 -2.536320e+002 -2.825000e+000
      vertex   1.690000e+002 -3.024000e+002 -2.825000e+000
    endloop
  endfacet
  facet normal 0.000000e+000 -1.000000e+000 0.000000e+000
    outer loop
      vertex   1.310000e+002 -2.536320e+002 3.525000e+000
      vertex   1.310000e+002 -2.536320e+002 -2.825000e+000
      vertex   1.690000e+002 -2.536320e+002 3.525000e+000
    endloop
  endfacet
  facet normal 0.000000e+000 -1.000000e+000 -0.000000e+000
    outer loop
      vertex   1.690000e+002 -2.536320e+002 3.525000e+000
      vertex   1.310000e+002 -2.536320e+002 -2.825000e+000
      vertex   1.690000e+002 -2.536320e+002 -2.825000e+000
    endloop
  endfacet
  facet normal 1.000000e+000 -0.000000e+000 0.000000e+000
    outer loop
      vertex   1.310000e+002 -3.024000e+002 3.525000e+000
      vertex   1.310000e+002 -3.024000e+002 -2.825000e+000
      vertex   1.310000e+002 -2.536320e+002 3.525000e+000
    endloop
  endfacet
  facet normal 1.000000e+000 -0.000000e+000 0.000000e+000
    outer loop
      vertex   1.310000e+002 -2.536320e+002 3.525000e+000
      vertex   1.310000e+002 -3.024000e+002 -2.825000e+000
      vertex   1.310000e+002 -2.536320e+002 -2.825000e+000
    endloop
  endfacet
  facet normal 0.000000e+000 1.000000e+000 0.000000e+000
    outer loop
      vertex   1.690000e+002 -2.404240e+002 3.525000e+000
      vertex   1.690000e+002 -2.404240e+002 -2.825000e+000
      vertex   1.310000e+002 -2.404240e+002 3.525000e+000
    endloop
  endfacet
  facet normal 0.000000e+000 1.000000e+000 0.000000e+000
    outer loop
      vertex   1.310000e+002 -2.404240e+002 3.525000e+000
      vertex   1.690000e+002 -2.404240e+002 -2.825000e+000
      vertex   1.310000e+002 -2.404240e+002 -2.825000e+000
    endloop
  endfacet
  facet normal -1.000000e+000 -0.000000e+000 -0.000000e+000
    outer loop
      vertex   1.690000e+002 -2.150240e+002 3.525000e+000
      vertex   1.690000e+002 -2.150240e+002 -2.825000e+000
      vertex   1.690000e+002 -2.404240e+002 3.525000e+000
    endloop
  endfacet
  facet normal -1.000000e+000 -0.000000e+000 -0.000000e+000
    outer loop
      vertex   1.690000e+002 -2.404240e+002 3.525000e+000
      vertex   1.690000e+002 -2.150240e+002 -2.825000e+000
      vertex   1.690000e+002 -2.404240e+002 -2.825000e+000
    endloop
  endfacet
  facet normal 0.000000e+000 1.000000e+000 0.000000e+000
    outer loop
      vertex   1.690000e+002 -2.018160e+002 3.525000e+000
      vertex   1.690000e+002 -2.018160e+002 -2.825000e+000
      vertex   1.310000e+002 -2.018160e+002 3.525000e+000
    endloop
  endfacet
  facet normal 0.000000e+000 1.000000e+000 0.000000e+000
    outer loop
      vertex   1.310000e+002 -2.018160e+002 3.525000e+000
      vertex   1.690000e+002 -2.018160e+002 -2.825000e+000
      vertex   1.310000e+002 -2.018160e+002 -2.825000e+000
    endloop
  endfacet
  facet normal -1.000000e+000 -0.000000e+000 -0.000000e+000
    outer loop
      vertex   1.690000e+002 -1.784480e+002 3.525000e+000
      vertex   1.690000e+002 -1.784480e+002 -2.825000e+000
      vertex   1.690000e+002 -2.018160e+002 3.525000e+000
    endloop
  endfacet
  facet normal -1.000000e+000 -0.000000e+000 -0.000000e+000
    outer loop
      vertex   1.690000e+002 -2.018160e+002 3.525000e+000
      vertex   1.690000e+002 -1.784480e+002 -2.825000e+000
      vertex   1.690000e+002 -2.018160e+002 -2.825000e+000
    endloop
  endfacet
  facet normal 0.000000e+000 1.000000e+000 0.000000e+000
    outer loop
      vertex   1.690000e+002 -1.662560e+002 3.525000e+000
      vertex   1.690000e+002 -1.662560e+002 -2.825000e+000
      vertex   1.310000e+002 -1.662560e+002 3.525000e+000
    endloop
  endfacet
  facet normal 0.000000e+000 1.000000e+000 0.000000e+000
    outer loop
      vertex   1.310000e+002 -1.662560e+002 3.525000e+000
      vertex   1.690000e+002 -1.662560e+002 -2.825000e+000
      vertex   1.310000e+002 -1.662560e+002 -2.825000e+000
    endloop
  endfacet
  facet normal -1.000000e+000 -0.000000e+000 -0.000000e+000
    outer loop
      vertex   1.690000e+002 -1.398400e+002 3.525000e+000
      vertex   1.690000e+002 -1.398400e+002 -2.825000e+000
      vertex   1.690000e+002 -1.662560e+002 3.525000e+000
    endloop
  endfacet
  facet normal -1.000000e+000 -0.000000e+000 -0.000000e+000
    outer loop
      vertex   1.690000e+002 -1.662560e+002 3.525000e+000
      vertex   1.690000e+002 -1.398400e+002 -2.825000e+000
      vertex   1.690000e+002 -1.662560e+002 -2.825000e+000
    endloop
  endfacet
  facet normal 0.000000e+000 1.000000e+000 0.000000e+000
    outer loop
      vertex   1.690000e+002 -1.276480e+002 3.525000e+000
      vertex   1.690000e+002 -1.276480e+002 -2.825000e+000
      vertex   1.310000e+002 -1.276480e+002 3.525000e+000
    endloop
  endfacet
  facet normal 0.000000e+000 1.000000e+000 0.000000e+000
    outer loop
      vertex   1.310000e+002 -1.276480e+002 3.525000e+000
      vertex   1.690000e+002 -1.276480e+002 -2.825000e+000
      vertex   1.310000e+002 -1.276480e+002 -2.825000e+000
    endloop
  endfacet
  facet normal -1.000000e+000 -0.000000e+000 -0.000000e+000
    outer loop
      vertex   1.690000e+002 -1.042800e+002 3.525000e+000
      vertex   1.690000e+002 -1.042800e+002 -2.825000e+000
      vertex   1.690000e+002 -1.276480e+002 3.525000e+000
    endloop
  endfacet
  facet normal -1.000000e+000 -0.000000e+000 -0.000000e+000
    outer loop
      vertex   1.690000e+002 -1.276480e+002 3.525000e+000
      vertex   1.690000e+002 -1.042800e+002 -2.825000e+000
      vertex   1.690000e+002 -1.276480e+002 -2.825000e+000
    endloop
  endfacet
  facet normal 0.000000e+000 1.000000e+000 0.000000e+000
    outer loop
      vertex   1.690000e+002 -9.208800e+001 3.525000e+000
      vertex   1.690000e+002 -9.208800e+001 -2.825000e+000
      vertex   1.310000e+002 -9.208800e+001 3.525000e+000
    endloop
  endfacet
  facet normal 0.000000e+000 1.000000e+000 0.000000e+000
    outer loop
      vertex   1.310000e+002 -9.208800e+001 3.525000e+000
      vertex   1.690000e+002 -9.208800e+001 -2.825000e+000
      vertex   1.310000e+002 -9.208800e+001 -2.825000e+000
    endloop
  endfacet
  facet normal -1.000000e+000 -0.000000e+000 -0.000000e+000
    outer loop
      vertex   1.690000e+002 -6.872000e+001 3.525000e+000
      vertex   1.690000e+002 -6.872000e+001 -2.825000e+000
      vertex   1.690000e+002 -9.208800e+001 3.525000e+000
    endloop
  endfacet
  facet normal -1.000000e+000 -0.000000e+000 -0.000000e+000
    outer loop
      vertex   1.690000e+002 -9.208800e+001 3.525000e+000
      vertex   1.690000e+002 -6.872000e+001 -2.825000e+000
      vertex   1.690000e+002 -9.208800e+001 -2.825000e+000
    endloop
  endfacet
  facet normal 0.000000e+000 1.000000e+000 0.000000e+000
    outer loop
      vertex   1.690000e+002 -5.551200e+001 3.525000e+000
      vertex   1.690000e+002 -5.551200e+001 -2.825000e+000
      vertex   1.310000e+002 -5.551200e+001 3.525000e+000
    endloop
  endfacet
  facet normal 0.000000e+000 1.000000e+000 0.000000e+000
    outer loop
      vertex   1.310000e+002 -5.551200e+001 3.525000e+000
      vertex   1.690000e+002 -5.551200e+001 -2.825000e+000
      vertex   1.310000e+002 -5.551200e+001 -2.825000e+000
    endloop
  endfacet
  facet normal -1.000000e+000 -0.000000e+000 -0.000000e+000
    outer loop
      vertex   1.690000e+002 -2.909600e+001 3.525000e+000
      vertex   1.690000e+002 -2.909600e+001 -2.825000e+000
      vertex   1.690000e+002 -5.551200e+001 3.525000e+000
    endloop
  endfacet
  facet normal -1.000000e+000 -0.000000e+000 -0.000000e+000
    outer loop
      vertex   1.690000e+002 -5.551200e+001 3.525000e+000
      vertex   1.690000e+002 -2.909600e+001 -2.825000e+000
      vertex   1.690000e+002 -5.551200e+001 -2.825000e+000
    endloop
  endfacet
  facet normal 0.000000e+000 1.000000e+000 0.000000e+000
    outer loop
      vertex   1.310000e+002 2.400000e+000 3.525000e+000
      vertex   1.310000e+002 2.400000e+000 -2.825000e+000
      vertex   1.190000e+002 2.400000e+000 3.525000e+000
    endloop
  endfacet
  facet normal 0.000000e+000 1.000000e+000 0.000000e+000
    outer loop
      vertex   1.190000e+002 2.400000e+000 3.525000e+000
      vertex   1.310000e+002 2.400000e+000 -2.825000e+000
      vertex   1.190000e+002 2.400000e+000 -2.825000e+000
    endloop
  endfacet
  facet normal 1.000000e+000 -0.000000e+000 0.000000e+000
    outer loop
      vertex   1.310000e+002 -1.690400e+001 3.525000e+000
      vertex   1.310000e+002 -1.690400e+001 -2.825000e+000
      vertex   1.310000e+002 2.400000e+000 3.525000e+000
    endloop
  endfacet
  facet normal 1.000000e+000 -0.000000e+000 0.000000e+000
    outer loop
      vertex   1.310000e+002 2.400000e+000 3.525000e+000
      vertex   1.310000e+002 -1.690400e+001 -2.825000e+000
      vertex   1.310000e+002 2.400000e+000 -2.825000e+000
    endloop
  endfacet
  facet normal 0.000000e+000 1.000000e+000 0.000000e+000
    outer loop
      vertex   1.690000e+002 -1.690400e+001 3.525000e+000
      vertex   1.690000e+002 -1.690400e+001 -2.825000e+000
      vertex   1.310000e+002 -1.690400e+001 3.525000e+000
    endloop
  endfacet
  facet normal 0.000000e+000 1.000000e+000 0.000000e+000
    outer loop
      vertex   1.310000e+002 -1.690400e+001 3.525000e+000
      vertex   1.690000e+002 -1.690400e+001 -2.825000e+000
      vertex   1.310000e+002 -1.690400e+001 -2.825000e+000
    endloop
  endfacet
  facet normal -1.000000e+000 -0.000000e+000 -0.000000e+000
    outer loop
      vertex   1.690000e+002 2.400000e+000 3.525000e+000
      vertex   1.690000e+002 2.400000e+000 -2.825000e+000
      vertex   1.690000e+002 -1.690400e+001 3.525000e+000
    endloop
  endfacet
  facet normal -1.000000e+000 -0.000000e+000 -0.000000e+000
    outer loop
      vertex   1.690000e+002 -1.690400e+001 3.525000e+000
      vertex   1.690000e+002 2.400000e+000 -2.825000e+000
      vertex   1.690000e+002 -1.690400e+001 -2.825000e+000
    endloop
  endfacet
  facet normal 0.000000e+000 -1.000000e+000 0.000000e+000
    outer loop
      vertex   1.190000e+002 -3.024000e+002 3.525000e+000
      vertex   1.190000e+002 -3.024000e+002 -2.825000e+000
      vertex   1.310000e+002 -3.024000e+002 3.525000e+000
    endloop
  endfacet
  facet normal 0.000000e+000 -1.000000e+000 -0.000000e+000
    outer loop
      vertex   1.310000e+002 -3.024000e+002 3.525000e+000
      vertex   1.190000e+002 -3.024000e+002 -2.825000e+000
      vertex   1.310000e+002 -3.024000e+002 -2.825000e+000
    endloop
  endfacet
  facet normal -1.000000e+000 0.000000e+000 0.000000e+000
    outer loop
      vertex   1.190000e+002 -3.024000e+002 -2.825000e+000
      vertex   1.190000e+002 -3.024000e+002 3.525000e+000
      vertex   1.190000e+002 -2.516000e+002 -2.825000e+000
    endloop
  endfacet
  facet normal -1.000000e+000 0.000000e+000 0.000000e+000
    outer loop
      vertex   1.190000e+002 -2.516000e+002 -2.825000e+000
      vertex   1.190000e+002 -3.024000e+002 3.525000e+000
      vertex   1.190000e+002 -2.516000e+002 3.525000e+000
    endloop
  endfacet
  facet normal -1.000000e+000 0.000000e+000 0.000000e+000
    outer loop
      vertex   1.190000e+002 -2.008000e+002 -2.825000e+000
      vertex   1.190000e+002 -2.516000e+002 3.525000e+000
      vertex   1.190000e+002 -2.008000e+002 3.525000e+000
    endloop
  endfacet
  facet normal -1.000000e+000 0.000000e+000 0.000000e+000
    outer loop
      vertex   1.190000e+002 -1.500000e+002 -2.825000e+000
      vertex   1.190000e+002 -2.008000e+002 3.525000e+000
      vertex   1.190000e+002 -1.500000e+002 3.525000e+000
    endloop
  endfacet
  facet normal -1.000000e+000 0.000000e+000 0.000000e+000
    outer loop
      vertex   1.190000e+002 -9.920000e+001 -2.825000e+000
      vertex   1.190000e+002 -1.500000e+002 3.525000e+000
      vertex   1.190000e+002 -9.920000e+001 3.525000e+000
    endloop
  endfacet
  facet normal -1.000000e+000 0.000000e+000 0.000000e+000
    outer loop
      vertex   1.190000e+002 -4.840000e+001 -2.825000e+000
      vertex   1.190000e+002 -9.920000e+001 3.525000e+000
      vertex   1.190000e+002 -4.840000e+001 3.525000e+000
    endloop
  endfacet
  facet normal -1.000000e+000 0.000000e+000 0.000000e+000
    outer loop
      vertex   1.190000e+002 2.400000e+000 -2.825000e+000
      vertex   1.190000e+002 -4.840000e+001 3.525000e+000
      vertex   1.190000e+002 2.400000e+000 3.525000e+000
    endloop
  endfacet
  facet normal -1.000000e+000 0.000000e+000 0.000000e+000
    outer loop
      vertex   1.190000e+002 2.400000e+000 -2.825000e+000
      vertex   1.190000e+002 -4.840000e+001 -2.825000e+000
      vertex   1.190000e+002 -4.840000e+001 3.525000e+000
    endloop
  endfacet
  facet normal -1.000000e+000 0.000000e+000 0.000000e+000
    outer loop
      vertex   1.190000e+002 -2.516000e+002 -2.825000e+000
      vertex   1.190000e+002 -2.516000e+002 3.525000e+000
      vertex   1.190000e+002 -2.008000e+002 -2.825000e+000
    endloop
  endfacet
  facet normal -1.000000e+000 0.000000e+000 0.000000e+000
    outer loop
      vertex   1.190000e+002 -2.008000e+002 -2.825000e+000
      vertex   1.190000e+002 -2.008000e+002 3.525000e+000
      vertex   1.190000e+002 -1.500000e+002 -2.825000e+000
    endloop
  endfacet
  facet normal -1.000000e+000 0.000000e+000 0.000000e+000
    outer loop
      vertex   1.190000e+002 -1.500000e+002 -2.825000e+000
      vertex   1.190000e+002 -1.500000e+002 3.525000e+000
      vertex   1.190000e+002 -9.920000e+001 -2.825000e+000
    endloop
  endfacet
  facet normal -1.000000e+000 0.000000e+000 0.000000e+000
    outer loop
      vertex   1.190000e+002 -9.920000e+001 -2.825000e+000
      vertex   1.190000e+002 -9.920000e+001 3.525000e+000
      vertex   1.190000e+002 -4.840000e+001 -2.825000e+000
    endloop
  endfacet
  facet normal 0.000000e+000 0.000000e+000 -1.000000e+000
    outer loop
      vertex   1.310000e+002 -3.024000e+002 -2.825000e+000
      vertex   1.190000e+002 -3.024000e+002 -2.825000e+000
      vertex   1.310000e+002 -2.536320e+002 -2.825000e+000
    endloop
  endfacet
  facet normal -0.000000e+000 0.000000e+000 -1.000000e+000
    outer loop
      vertex   1.310000e+002 -2.536320e+002 -2.825000e+000
      vertex   1.190000e+002 -3.024000e+002 -2.825000e+000
      vertex   1.190000e+002 -2.516000e+002 -2.825000e+000
    endloop
  endfacet
  facet normal 0.000000e+000 0.000000e+000 -1.000000e+000
    outer loop
      vertex   1.810000e+002 -2.516000e+002 -2.825000e+000
      vertex   1.190000e+002 -2.516000e+002 -2.825000e+000
      vertex   1.690000e+002 -2.404240e+002 -2.825000e+000
    endloop
  endfacet
  facet normal -0.000000e+000 -0.000000e+000 -1.000000e+000
    outer loop
      vertex   1.690000e+002 -2.150240e+002 -2.825000e+000
      vertex   1.810000e+002 -2.516000e+002 -2.825000e+000
      vertex   1.690000e+002 -2.404240e+002 -2.825000e+000
    endloop
  endfacet
  facet normal 0.000000e+000 0.000000e+000 -1.000000e+000
    outer loop
      vertex   1.690000e+002 -2.150240e+002 -2.825000e+000
      vertex   1.810000e+002 -2.008000e+002 -2.825000e+000
      vertex   1.810000e+002 -2.516000e+002 -2.825000e+000
    endloop
  endfacet
  facet normal 0.000000e+000 0.000000e+000 -1.000000e+000
    outer loop
      vertex   1.690000e+002 -2.150240e+002 -2.825000e+000
      vertex   1.690000e+002 -2.018160e+002 -2.825000e+000
      vertex   1.810000e+002 -2.008000e+002 -2.825000e+000
    endloop
  endfacet
  facet normal 0.000000e+000 0.000000e+000 -1.000000e+000
    outer loop
      vertex   1.690000e+002 -2.150240e+002 -2.825000e+000
      vertex   1.310000e+002 -2.150240e+002 -2.825000e+000
      vertex   1.690000e+002 -2.018160e+002 -2.825000e+000
    endloop
  endfacet
  facet normal -0.000000e+000 0.000000e+000 -1.000000e+000
    outer loop
      vertex   1.690000e+002 -2.018160e+002 -2.825000e+000
      vertex   1.310000e+002 -2.150240e+002 -2.825000e+000
      vertex   1.310000e+002 -2.018160e+002 -2.825000e+000
    endloop
  endfacet
  facet normal -0.000000e+000 -0.000000e+000 -1.000000e+000
    outer loop
      vertex   1.310000e+002 -2.018160e+002 -2.825000e+000
      vertex   1.310000e+002 -2.150240e+002 -2.825000e+000
      vertex   1.190000e+002 -2.008000e+002 -2.825000e+000
    endloop
  endfacet
  facet normal -0.000000e+000 0.000000e+000 -1.000000e+000
    outer loop
      vertex   1.310000e+002 -1.784480e+002 -2.825000e+000
      vertex   1.190000e+002 -2.008000e+002 -2.825000e+000
      vertex   1.190000e+002 -1.500000e+002 -2.825000e+000
    endloop
  endfacet
  facet normal 0.000000e+000 0.000000e+000 -1.000000e+000
    outer loop
      vertex   1.310000e+002 -1.662560e+002 -2.825000e+000
      vertex   1.190000e+002 -1.500000e+002 -2.825000e+000
      vertex   1.310000e+002 -1.398400e+002 -2.825000e+000
    endloop
  endfacet
  facet normal -0.000000e+000 -0.000000e+000 -1.000000e+000
    outer loop
      vertex   1.310000e+002 -1.662560e+002 -2.825000e+000
      vertex   1.310000e+002 -1.784480e+002 -2.825000e+000
      vertex   1.190000e+002 -1.500000e+002 -2.825000e+000
    endloop
  endfacet
  facet normal 0.000000e+000 -0.000000e+000 -1.000000e+000
    outer loop
      vertex   1.310000e+002 -1.662560e+002 -2.825000e+000
      vertex   1.690000e+002 -1.662560e+002 -2.825000e+000
      vertex   1.310000e+002 -1.784480e+002 -2.825000e+000
    endloop
  endfacet
  facet normal 0.000000e+000 0.000000e+000 -1.000000e+000
    outer loop
      vertex   1.310000e+002 -1.784480e+002 -2.825000e+000
      vertex   1.690000e+002 -1.662560e+002 -2.825000e+000
      vertex   1.690000e+002 -1.784480e+002 -2.825000e+000
    endloop
  endfacet
  facet normal 0.000000e+000 0.000000e+000 -1.000000e+000
    outer loop
      vertex   1.690000e+002 -1.784480e+002 -2.825000e+000
      vertex   1.690000e+002 -1.662560e+002 -2.825000e+000
      vertex   1.810000e+002 -1.500000e+002 -2.825000e+000
    endloop
  endfacet
  facet normal 0.000000e+000 0.000000e+000 -1.000000e+000
    outer loop
      vertex   1.810000e+002 -2.008000e+002 -2.825000e+000
      vertex   1.690000e+002 -1.784480e+002 -2.825000e+000
      vertex   1.810000e+002 -1.500000e+002 -2.825000e+000
    endloop
  endfacet
  facet normal -0.000000e+000 0.000000e+000 -1.000000e+000
    outer loop
      vertex   1.810000e+002 -2.008000e+002 -2.825000e+000
      vertex   1.690000e+002 -2.018160e+002 -2.825000e+000
      vertex   1.690000e+002 -1.784480e+002 -2.825000e+000
    endloop
  endfacet
  facet normal 0.000000e+000 -0.000000e+000 -1.000000e+000
    outer loop
      vertex   1.190000e+002 -2.008000e+002 -2.825000e+000
      vertex   1.310000e+002 -2.150240e+002 -2.825000e+000
      vertex   1.190000e+002 -2.516000e+002 -2.825000e+000
    endloop
  endfacet
  facet normal 0.000000e+000 0.000000e+000 -1.000000e+000
    outer loop
      vertex   1.190000e+002 -2.516000e+002 -2.825000e+000
      vertex   1.310000e+002 -2.150240e+002 -2.825000e+000
      vertex   1.310000e+002 -2.404240e+002 -2.825000e+000
    endloop
  endfacet
  facet normal -0.000000e+000 0.000000e+000 -1.000000e+000
    outer loop
      vertex   1.690000e+002 -2.404240e+002 -2.825000e+000
      vertex   1.190000e+002 -2.516000e+002 -2.825000e+000
      vertex   1.310000e+002 -2.404240e+002 -2.825000e+000
    endloop
  endfacet
  facet normal 0.000000e+000 0.000000e+000 -1.000000e+000
    outer loop
      vertex   1.310000e+002 -2.018160e+002 -2.825000e+000
      vertex   1.190000e+002 -2.008000e+002 -2.825000e+000
      vertex   1.310000e+002 -1.784480e+002 -2.825000e+000
    endloop
  endfacet
  facet normal -0.000000e+000 0.000000e+000 -1.000000e+000
    outer loop
      vertex   1.310000e+002 -1.398400e+002 -2.825000e+000
      vertex   1.190000e+002 -1.500000e+002 -2.825000e+000
      vertex   1.310000e+002 -1.276480e+002 -2.825000e+000
    endloop
  endfacet
  facet normal -0.000000e+000 0.000000e+000 -1.000000e+000
    outer loop
      vertex   1.690000e+002 -1.276480e+002 -2.825000e+000
      vertex   1.310000e+002 -1.398400e+002 -2.825000e+000
      vertex   1.310000e+002 -1.276480e+002 -2.825000e+000
    endloop
  endfacet
  facet normal -0.000000e+000 -0.000000e+000 -1.000000e+000
    outer loop
      vertex   1.690000e+002 -1.276480e+002 -2.825000e+000
      vertex   1.690000e+002 -1.398400e+002 -2.825000e+000
      vertex   1.310000e+002 -1.398400e+002 -2.825000e+000
    endloop
  endfacet
  facet normal -0.000000e+000 -0.000000e+000 -1.000000e+000
    outer loop
      vertex   1.690000e+002 -1.276480e+002 -2.825000e+000
      vertex   1.810000e+002 -1.500000e+002 -2.825000e+000
      vertex   1.690000e+002 -1.398400e+002 -2.825000e+000
    endloop
  endfacet
  facet normal 0.000000e+000 0.000000e+000 -1.000000e+000
    outer loop
      vertex   1.690000e+002 -1.276480e+002 -2.825000e+000
      vertex   1.810000e+002 -9.920000e+001 -2.825000e+000
      vertex   1.810000e+002 -1.500000e+002 -2.825000e+000
    endloop
  endfacet
  facet normal 0.000000e+000 0.000000e+000 -1.000000e+000
    outer loop
      vertex   1.690000e+002 -1.276480e+002 -2.825000e+000
      vertex   1.690000e+002 -1.042800e+002 -2.825000e+000
      vertex   1.810000e+002 -9.920000e+001 -2.825000e+000
    endloop
  endfacet
  facet normal -0.000000e+000 0.000000e+000 -1.000000e+000
    outer loop
      vertex   1.810000e+002 -9.920000e+001 -2.825000e+000
      vertex   1.690000e+002 -1.042800e+002 -2.825000e+000
      vertex   1.310000e+002 -1.042800e+002 -2.825000e+000
    endloop
  endfacet
  facet normal 0.000000e+000 0.000000e+000 -1.000000e+000
    outer loop
      vertex   1.190000e+002 -9.920000e+001 -2.825000e+000
      vertex   1.310000e+002 -1.042800e+002 -2.825000e+000
      vertex   1.310000e+002 -1.276480e+002 -2.825000e+000
    endloop
  endfacet
  facet normal 0.000000e+000 0.000000e+000 -1.000000e+000
    outer loop
      vertex   1.190000e+002 -1.500000e+002 -2.825000e+000
      vertex   1.190000e+002 -9.920000e+001 -2.825000e+000
      vertex   1.310000e+002 -1.276480e+002 -2.825000e+000
    endloop
  endfacet
  facet normal 0.000000e+000 -0.000000e+000 -1.000000e+000
    outer loop
      vertex   1.190000e+002 -4.840000e+001 -2.825000e+000
      vertex   1.310000e+002 -6.872000e+001 -2.825000e+000
      vertex   1.190000e+002 -9.920000e+001 -2.825000e+000
    endloop
  endfacet
  facet normal 0.000000e+000 0.000000e+000 -1.000000e+000
    outer loop
      vertex   1.190000e+002 -4.840000e+001 -2.825000e+000
      vertex   1.310000e+002 -5.551200e+001 -2.825000e+000
      vertex   1.310000e+002 -6.872000e+001 -2.825000e+000
    endloop
  endfacet
  facet normal 0.000000e+000 0.000000e+000 -1.000000e+000
    outer loop
      vertex   1.190000e+002 -4.840000e+001 -2.825000e+000
      vertex   1.310000e+002 -2.909600e+001 -2.825000e+000
      vertex   1.310000e+002 -5.551200e+001 -2.825000e+000
    endloop
  endfacet
  facet normal 0.000000e+000 0.000000e+000 -1.000000e+000
    outer loop
      vertex   1.190000e+002 -4.840000e+001 -2.825000e+000
      vertex   1.310000e+002 -1.690400e+001 -2.825000e+000
      vertex   1.310000e+002 -2.909600e+001 -2.825000e+000
    endloop
  endfacet
  facet normal 0.000000e+000 0.000000e+000 -1.000000e+000
    outer loop
      vertex   1.190000e+002 -4.840000e+001 -2.825000e+000
      vertex   1.190000e+002 2.400000e+000 -2.825000e+000
      vertex   1.310000e+002 -1.690400e+001 -2.825000e+000
    endloop
  endfacet
  facet normal 0.000000e+000 0.000000e+000 -1.000000e+000
    outer loop
      vertex   1.310000e+002 -1.690400e+001 -2.825000e+000
      vertex   1.190000e+002 2.400000e+000 -2.825000e+000
      vertex   1.310000e+002 2.400000e+000 -2.825000e+000
    endloop
  endfacet
  facet normal 0.000000e+000 -0.000000e+000 -1.000000e+000
    outer loop
      vertex   1.310000e+002 -1.690400e+001 -2.825000e+000
      vertex   1.690000e+002 -1.690400e+001 -2.825000e+000
      vertex   1.310000e+002 -2.909600e+001 -2.825000e+000
    endloop
  endfacet
  facet normal 0.000000e+000 0.000000e+000 -1.000000e+000
    outer loop
      vertex   1.310000e+002 -2.909600e+001 -2.825000e+000
      vertex   1.690000e+002 -1.690400e+001 -2.825000e+000
      vertex   1.690000e+002 -2.909600e+001 -2.825000e+000
    endloop
  endfacet
  facet normal 0.000000e+000 0.000000e+000 -1.000000e+000
    outer loop
      vertex   1.690000e+002 -2.909600e+001 -2.825000e+000
      vertex   1.690000e+002 -1.690400e+001 -2.825000e+000
      vertex   1.810000e+002 -4.840000e+001 -2.825000e+000
    endloop
  endfacet
  facet normal 0.000000e+000 -0.000000e+000 -1.000000e+000
    outer loop
      vertex   1.690000e+002 -5.551200e+001 -2.825000e+000
      vertex   1.810000e+002 -4.840000e+001 -2.825000e+000
      vertex   1.690000e+002 -6.872000e+001 -2.825000e+000
    endloop
  endfacet
  facet normal 0.000000e+000 0.000000e+000 -1.000000e+000
    outer loop
      vertex   1.310000e+002 -6.872000e+001 -2.825000e+000
      vertex   1.690000e+002 -5.551200e+001 -2.825000e+000
      vertex   1.690000e+002 -6.872000e+001 -2.825000e+000
    endloop
  endfacet
  facet normal 0.000000e+000 0.000000e+000 -1.000000e+000
    outer loop
      vertex   1.310000e+002 -6.872000e+001 -2.825000e+000
      vertex   1.310000e+002 -5.551200e+001 -2.825000e+000
      vertex   1.690000e+002 -5.551200e+001 -2.825000e+000
    endloop
  endfacet
  facet normal 0.000000e+000 -0.000000e+000 -1.000000e+000
    outer loop
      vertex   1.690000e+002 2.400000e+000 -2.825000e+000
      vertex   1.810000e+002 2.400000e+000 -2.825000e+000
      vertex   1.690000e+002 -1.690400e+001 -2.825000e+000
    endloop
  endfacet
  facet normal 0.000000e+000 0.000000e+000 -1.000000e+000
    outer loop
      vertex   1.690000e+002 -1.690400e+001 -2.825000e+000
      vertex   1.810000e+002 2.400000e+000 -2.825000e+000
      vertex   1.810000e+002 -4.840000e+001 -2.825000e+000
    endloop
  endfacet
  facet normal -0.000000e+000 -0.000000e+000 -1.000000e+000
    outer loop
      vertex   1.810000e+002 -4.840000e+001 -2.825000e+000
      vertex   1.810000e+002 -9.920000e+001 -2.825000e+000
      vertex   1.690000e+002 -6.872000e+001 -2.825000e+000
    endloop
  endfacet
  facet normal -0.000000e+000 -0.000000e+000 -1.000000e+000
    outer loop
      vertex   1.690000e+002 -6.872000e+001 -2.825000e+000
      vertex   1.810000e+002 -9.920000e+001 -2.825000e+000
      vertex   1.690000e+002 -9.208800e+001 -2.825000e+000
    endloop
  endfacet
  facet normal 0.000000e+000 -0.000000e+000 -1.000000e+000
    outer loop
      vertex   1.690000e+002 -9.208800e+001 -2.825000e+000
      vertex   1.810000e+002 -9.920000e+001 -2.825000e+000
      vertex   1.190000e+002 -9.920000e+001 -2.825000e+000
    endloop
  endfacet
  facet normal -0.000000e+000 0.000000e+000 -1.000000e+000
    outer loop
      vertex   1.310000e+002 -9.208800e+001 -2.825000e+000
      vertex   1.190000e+002 -9.920000e+001 -2.825000e+000
      vertex   1.310000e+002 -6.872000e+001 -2.825000e+000
    endloop
  endfacet
  facet normal 0.000000e+000 -0.000000e+000 -1.000000e+000
    outer loop
      vertex   1.310000e+002 -9.208800e+001 -2.825000e+000
      vertex   1.690000e+002 -9.208800e+001 -2.825000e+000
      vertex   1.190000e+002 -9.920000e+001 -2.825000e+000
    endloop
  endfacet
  facet normal 0.000000e+000 0.000000e+000 -1.000000e+000
    outer loop
      vertex   1.810000e+002 -3.024000e+002 -2.825000e+000
      vertex   1.690000e+002 -2.536320e+002 -2.825000e+000
      vertex   1.810000e+002 -2.516000e+002 -2.825000e+000
    endloop
  endfacet
  facet normal 0.000000e+000 0.000000e+000 -1.000000e+000
    outer loop
      vertex   1.810000e+002 -3.024000e+002 -2.825000e+000
      vertex   1.690000e+002 -3.024000e+002 -2.825000e+000
      vertex   1.690000e+002 -2.536320e+002 -2.825000e+000
    endloop
  endfacet
  facet normal 0.000000e+000 0.000000e+000 -1.000000e+000
    outer loop
      vertex   1.690000e+002 -2.536320e+002 -2.825000e+000
      vertex   1.310000e+002 -2.536320e+002 -2.825000e+000
      vertex   1.810000e+002 -2.516000e+002 -2.825000e+000
    endloop
  endfacet
  facet normal -0.000000e+000 0.000000e+000 -1.000000e+000
    outer loop
      vertex   1.810000e+002 -2.516000e+002 -2.825000e+000
      vertex   1.310000e+002 -2.536320e+002 -2.825000e+000
      vertex   1.190000e+002 -2.516000e+002 -2.825000e+000
    endloop
  endfacet
  facet normal 0.000000e+000 0.000000e+000 -1.000000e+000
    outer loop
      vertex   1.690000e+002 -5.551200e+001 -2.825000e+000
      vertex   1.690000e+002 -2.909600e+001 -2.825000e+000
      vertex   1.810000e+002 -4.840000e+001 -2.825000e+000
    endloop
  endfacet
  facet normal -0.000000e+000 0.000000e+000 -1.000000e+000
    outer loop
      vertex   1.810000e+002 -9.920000e+001 -2.825000e+000
      vertex   1.310000e+002 -1.042800e+002 -2.825000e+000
      vertex   1.190000e+002 -9.920000e+001 -2.825000e+000
    endloop
  endfacet
  facet normal 0.000000e+000 0.000000e+000 -1.000000e+000
    outer loop
      vertex   1.690000e+002 -1.662560e+002 -2.825000e+000
      vertex   1.690000e+002 -1.398400e+002 -2.825000e+000
      vertex   1.810000e+002 -1.500000e+002 -2.825000e+000
    endloop
  endfacet
endsolid
