solid ascii
  facet normal 1.000000e+000 0.000000e+000 0.000000e+000
    outer loop
      vertex   5.579254e+001 2.387702e+000 -2.825000e+000
      vertex   5.579254e+001 -7.613272e+000 -2.825000e+000
      vertex   5.579254e+001 2.387702e+000 -1.782500e+001
    endloop
  endfacet
  facet normal 1.000000e+000 0.000000e+000 0.000000e+000
    outer loop
      vertex   5.579254e+001 2.387702e+000 -1.782500e+001
      vertex   5.579254e+001 -7.613272e+000 -2.825000e+000
      vertex   5.579254e+001 -7.613272e+000 -1.782500e+001
    endloop
  endfacet
  facet normal -0.000000e+000 1.000000e+000 0.000000e+000
    outer loop
      vertex   4.441547e+001 2.387702e+000 -2.825000e+000
      vertex   5.579254e+001 2.387702e+000 -2.825000e+000
      vertex   4.441547e+001 2.387702e+000 -1.782500e+001
    endloop
  endfacet
  facet normal -0.000000e+000 1.000000e+000 0.000000e+000
    outer loop
      vertex   4.441547e+001 2.387702e+000 -1.782500e+001
      vertex   5.579254e+001 2.387702e+000 -2.825000e+000
      vertex   5.579254e+001 2.387702e+000 -1.782500e+001
    endloop
  endfacet
  facet normal -1.000000e+000 0.000000e+000 -0.000000e+000
    outer loop
      vertex   4.441547e+001 -7.613272e+000 -2.825000e+000
      vertex   4.441547e+001 2.387702e+000 -2.825000e+000
      vertex   4.441547e+001 -7.613272e+000 -1.782500e+001
    endloop
  endfacet
  facet normal -1.000000e+000 0.000000e+000 0.000000e+000
    outer loop
      vertex   4.441547e+001 -7.613272e+000 -1.782500e+001
      vertex   4.441547e+001 2.387702e+000 -2.825000e+000
      vertex   4.441547e+001 2.387702e+000 -1.782500e+001
    endloop
  endfacet
  facet normal -0.000000e+000 -1.000000e+000 -0.000000e+000
    outer loop
      vertex   5.579254e+001 -7.613272e+000 -2.825000e+000
      vertex   4.441547e+001 -7.613272e+000 -2.825000e+000
      vertex   5.579254e+001 -7.613272e+000 -1.782500e+001
    endloop
  endfacet
  facet normal -0.000000e+000 -1.000000e+000 -0.000000e+000
    outer loop
      vertex   5.579254e+001 -7.613272e+000 -1.782500e+001
      vertex   4.441547e+001 -7.613272e+000 -2.825000e+000
      vertex   4.441547e+001 -7.613272e+000 -1.782500e+001
    endloop
  endfacet
  facet normal 0.000000e+000 0.000000e+000 -1.000000e+000
    outer loop
      vertex   5.579254e+001 -7.613272e+000 -1.782500e+001
      vertex   4.441547e+001 -7.613272e+000 -1.782500e+001
      vertex   5.579254e+001 2.387702e+000 -1.782500e+001
    endloop
  endfacet
  facet normal -0.000000e+000 0.000000e+000 -1.000000e+000
    outer loop
      vertex   5.579254e+001 2.387702e+000 -1.782500e+001
      vertex   4.441547e+001 -7.613272e+000 -1.782500e+001
      vertex   4.441547e+001 2.387702e+000 -1.782500e+001
    endloop
  endfacet
  facet normal 1.000000e+000 0.000000e+000 0.000000e+000
    outer loop
      vertex   1.057925e+002 2.387702e+000 -2.825000e+000
      vertex   1.057925e+002 -7.613272e+000 -2.825000e+000
      vertex   1.057925e+002 2.387702e+000 -1.782500e+001
    endloop
  endfacet
  facet normal 1.000000e+000 0.000000e+000 0.000000e+000
    outer loop
      vertex   1.057925e+002 2.387702e+000 -1.782500e+001
      vertex   1.057925e+002 -7.613272e+000 -2.825000e+000
      vertex   1.057925e+002 -7.613272e+000 -1.782500e+001
    endloop
  endfacet
  facet normal -0.000000e+000 1.000000e+000 0.000000e+000
    outer loop
      vertex   9.441547e+001 2.387702e+000 -2.825000e+000
      vertex   1.057925e+002 2.387702e+000 -2.825000e+000
      vertex   9.441547e+001 2.387702e+000 -1.782500e+001
    endloop
  endfacet
  facet normal -0.000000e+000 1.000000e+000 0.000000e+000
    outer loop
      vertex   9.441547e+001 2.387702e+000 -1.782500e+001
      vertex   1.057925e+002 2.387702e+000 -2.825000e+000
      vertex   1.057925e+002 2.387702e+000 -1.782500e+001
    endloop
  endfacet
  facet normal -1.000000e+000 0.000000e+000 -0.000000e+000
    outer loop
      vertex   9.441547e+001 -7.613272e+000 -2.825000e+000
      vertex   9.441547e+001 2.387702e+000 -2.825000e+000
      vertex   9.441547e+001 -7.613272e+000 -1.782500e+001
    endloop
  endfacet
  facet normal -1.000000e+000 0.000000e+000 0.000000e+000
    outer loop
      vertex   9.441547e+001 -7.613272e+000 -1.782500e+001
      vertex   9.441547e+001 2.387702e+000 -2.825000e+000
      vertex   9.441547e+001 2.387702e+000 -1.782500e+001
    endloop
  endfacet
  facet normal -0.000000e+000 -1.000000e+000 -0.000000e+000
    outer loop
      vertex   1.057925e+002 -7.613272e+000 -2.825000e+000
      vertex   9.441547e+001 -7.613272e+000 -2.825000e+000
      vertex   1.057925e+002 -7.613272e+000 -1.782500e+001
    endloop
  endfacet
  facet normal -0.000000e+000 -1.000000e+000 -0.000000e+000
    outer loop
      vertex   1.057925e+002 -7.613272e+000 -1.782500e+001
      vertex   9.441547e+001 -7.613272e+000 -2.825000e+000
      vertex   9.441547e+001 -7.613272e+000 -1.782500e+001
    endloop
  endfacet
  facet normal 0.000000e+000 0.000000e+000 -1.000000e+000
    outer loop
      vertex   1.057925e+002 -7.613272e+000 -1.782500e+001
      vertex   9.441547e+001 -7.613272e+000 -1.782500e+001
      vertex   1.057925e+002 2.387702e+000 -1.782500e+001
    endloop
  endfacet
  facet normal -0.000000e+000 0.000000e+000 -1.000000e+000
    outer loop
      vertex   1.057925e+002 2.387702e+000 -1.782500e+001
      vertex   9.441547e+001 -7.613272e+000 -1.782500e+001
      vertex   9.441547e+001 2.387702e+000 -1.782500e+001
    endloop
  endfacet
  facet normal 0.000000e+000 0.000000e+000 1.000000e+000
    outer loop
      vertex   5.600000e+001 2.400000e+000 3.525000e+000
      vertex   4.400000e+001 2.400000e+000 3.525000e+000
      vertex   5.600000e+001 -1.690400e+001 3.525000e+000
    endloop
  endfacet
  facet normal 0.000000e+000 0.000000e+000 1.000000e+000
    outer loop
      vertex   5.600000e+001 -1.690400e+001 3.525000e+000
      vertex   4.400000e+001 2.400000e+000 3.525000e+000
      vertex   4.400000e+001 -4.840000e+001 3.525000e+000
    endloop
  endfacet
  facet normal 0.000000e+000 0.000000e+000 1.000000e+000
    outer loop
      vertex   5.600000e+001 -2.909600e+001 3.525000e+000
      vertex   4.400000e+001 -4.840000e+001 3.525000e+000
      vertex   5.600000e+001 -5.551200e+001 3.525000e+000
    endloop
  endfacet
  facet normal 0.000000e+000 -0.000000e+000 1.000000e+000
    outer loop
      vertex   5.600000e+001 -2.909600e+001 3.525000e+000
      vertex   5.600000e+001 -1.690400e+001 3.525000e+000
      vertex   4.400000e+001 -4.840000e+001 3.525000e+000
    endloop
  endfacet
  facet normal 0.000000e+000 -0.000000e+000 1.000000e+000
    outer loop
      vertex   5.600000e+001 -2.909600e+001 3.525000e+000
      vertex   9.400000e+001 -2.909600e+001 3.525000e+000
      vertex   5.600000e+001 -1.690400e+001 3.525000e+000
    endloop
  endfacet
  facet normal -0.000000e+000 0.000000e+000 1.000000e+000
    outer loop
      vertex   5.600000e+001 -1.690400e+001 3.525000e+000
      vertex   9.400000e+001 -2.909600e+001 3.525000e+000
      vertex   9.400000e+001 -1.690400e+001 3.525000e+000
    endloop
  endfacet
  facet normal 0.000000e+000 0.000000e+000 1.000000e+000
    outer loop
      vertex   9.400000e+001 -1.690400e+001 3.525000e+000
      vertex   9.400000e+001 -2.909600e+001 3.525000e+000
      vertex   1.060000e+002 -4.840000e+001 3.525000e+000
    endloop
  endfacet
  facet normal 0.000000e+000 0.000000e+000 1.000000e+000
    outer loop
      vertex   1.060000e+002 2.400000e+000 3.525000e+000
      vertex   9.400000e+001 -1.690400e+001 3.525000e+000
      vertex   1.060000e+002 -4.840000e+001 3.525000e+000
    endloop
  endfacet
  facet normal 0.000000e+000 0.000000e+000 1.000000e+000
    outer loop
      vertex   1.060000e+002 2.400000e+000 3.525000e+000
      vertex   9.400000e+001 2.400000e+000 3.525000e+000
      vertex   9.400000e+001 -1.690400e+001 3.525000e+000
    endloop
  endfacet
  facet normal 0.000000e+000 0.000000e+000 1.000000e+000
    outer loop
      vertex   5.600000e+001 -5.551200e+001 3.525000e+000
      vertex   4.400000e+001 -4.840000e+001 3.525000e+000
      vertex   5.600000e+001 -6.872000e+001 3.525000e+000
    endloop
  endfacet
  facet normal 0.000000e+000 0.000000e+000 1.000000e+000
    outer loop
      vertex   9.400000e+001 -6.872000e+001 3.525000e+000
      vertex   5.600000e+001 -5.551200e+001 3.525000e+000
      vertex   5.600000e+001 -6.872000e+001 3.525000e+000
    endloop
  endfacet
  facet normal 0.000000e+000 -0.000000e+000 1.000000e+000
    outer loop
      vertex   9.400000e+001 -6.872000e+001 3.525000e+000
      vertex   9.400000e+001 -5.551200e+001 3.525000e+000
      vertex   5.600000e+001 -5.551200e+001 3.525000e+000
    endloop
  endfacet
  facet normal 0.000000e+000 -0.000000e+000 1.000000e+000
    outer loop
      vertex   9.400000e+001 -6.872000e+001 3.525000e+000
      vertex   1.060000e+002 -4.840000e+001 3.525000e+000
      vertex   9.400000e+001 -5.551200e+001 3.525000e+000
    endloop
  endfacet
  facet normal -0.000000e+000 0.000000e+000 1.000000e+000
    outer loop
      vertex   9.400000e+001 -6.872000e+001 3.525000e+000
      vertex   1.060000e+002 -9.920000e+001 3.525000e+000
      vertex   1.060000e+002 -4.840000e+001 3.525000e+000
    endloop
  endfacet
  facet normal 0.000000e+000 0.000000e+000 1.000000e+000
    outer loop
      vertex   9.400000e+001 -6.872000e+001 3.525000e+000
      vertex   9.400000e+001 -9.208800e+001 3.525000e+000
      vertex   1.060000e+002 -9.920000e+001 3.525000e+000
    endloop
  endfacet
  facet normal 0.000000e+000 0.000000e+000 1.000000e+000
    outer loop
      vertex   1.060000e+002 -9.920000e+001 3.525000e+000
      vertex   9.400000e+001 -9.208800e+001 3.525000e+000
      vertex   5.600000e+001 -9.208800e+001 3.525000e+000
    endloop
  endfacet
  facet normal 0.000000e+000 0.000000e+000 1.000000e+000
    outer loop
      vertex   4.400000e+001 -9.920000e+001 3.525000e+000
      vertex   5.600000e+001 -9.208800e+001 3.525000e+000
      vertex   5.600000e+001 -6.872000e+001 3.525000e+000
    endloop
  endfacet
  facet normal -0.000000e+000 0.000000e+000 1.000000e+000
    outer loop
      vertex   4.400000e+001 -4.840000e+001 3.525000e+000
      vertex   4.400000e+001 -9.920000e+001 3.525000e+000
      vertex   5.600000e+001 -6.872000e+001 3.525000e+000
    endloop
  endfacet
  facet normal 0.000000e+000 -0.000000e+000 1.000000e+000
    outer loop
      vertex   4.400000e+001 -1.500000e+002 3.525000e+000
      vertex   5.600000e+001 -1.276480e+002 3.525000e+000
      vertex   4.400000e+001 -9.920000e+001 3.525000e+000
    endloop
  endfacet
  facet normal 0.000000e+000 0.000000e+000 1.000000e+000
    outer loop
      vertex   4.400000e+001 -1.500000e+002 3.525000e+000
      vertex   5.600000e+001 -1.398400e+002 3.525000e+000
      vertex   5.600000e+001 -1.276480e+002 3.525000e+000
    endloop
  endfacet
  facet normal -0.000000e+000 0.000000e+000 1.000000e+000
    outer loop
      vertex   4.400000e+001 -1.500000e+002 3.525000e+000
      vertex   5.600000e+001 -1.662560e+002 3.525000e+000
      vertex   5.600000e+001 -1.398400e+002 3.525000e+000
    endloop
  endfacet
  facet normal -0.000000e+000 0.000000e+000 1.000000e+000
    outer loop
      vertex   4.400000e+001 -1.500000e+002 3.525000e+000
      vertex   5.600000e+001 -1.784480e+002 3.525000e+000
      vertex   5.600000e+001 -1.662560e+002 3.525000e+000
    endloop
  endfacet
  facet normal -0.000000e+000 0.000000e+000 1.000000e+000
    outer loop
      vertex   4.400000e+001 -1.500000e+002 3.525000e+000
      vertex   4.400000e+001 -2.008000e+002 3.525000e+000
      vertex   5.600000e+001 -1.784480e+002 3.525000e+000
    endloop
  endfacet
  facet normal 0.000000e+000 0.000000e+000 1.000000e+000
    outer loop
      vertex   5.600000e+001 -1.784480e+002 3.525000e+000
      vertex   4.400000e+001 -2.008000e+002 3.525000e+000
      vertex   5.600000e+001 -2.018160e+002 3.525000e+000
    endloop
  endfacet
  facet normal 0.000000e+000 0.000000e+000 1.000000e+000
    outer loop
      vertex   5.600000e+001 -2.018160e+002 3.525000e+000
      vertex   4.400000e+001 -2.008000e+002 3.525000e+000
      vertex   5.600000e+001 -2.150240e+002 3.525000e+000
    endloop
  endfacet
  facet normal 0.000000e+000 0.000000e+000 1.000000e+000
    outer loop
      vertex   9.400000e+001 -2.150240e+002 3.525000e+000
      vertex   5.600000e+001 -2.018160e+002 3.525000e+000
      vertex   5.600000e+001 -2.150240e+002 3.525000e+000
    endloop
  endfacet
  facet normal 0.000000e+000 -0.000000e+000 1.000000e+000
    outer loop
      vertex   9.400000e+001 -2.150240e+002 3.525000e+000
      vertex   9.400000e+001 -2.018160e+002 3.525000e+000
      vertex   5.600000e+001 -2.018160e+002 3.525000e+000
    endloop
  endfacet
  facet normal 0.000000e+000 -0.000000e+000 1.000000e+000
    outer loop
      vertex   9.400000e+001 -2.150240e+002 3.525000e+000
      vertex   1.060000e+002 -2.008000e+002 3.525000e+000
      vertex   9.400000e+001 -2.018160e+002 3.525000e+000
    endloop
  endfacet
  facet normal -0.000000e+000 0.000000e+000 1.000000e+000
    outer loop
      vertex   9.400000e+001 -2.150240e+002 3.525000e+000
      vertex   1.060000e+002 -2.516000e+002 3.525000e+000
      vertex   1.060000e+002 -2.008000e+002 3.525000e+000
    endloop
  endfacet
  facet normal 0.000000e+000 0.000000e+000 1.000000e+000
    outer loop
      vertex   9.400000e+001 -2.150240e+002 3.525000e+000
      vertex   9.400000e+001 -2.404240e+002 3.525000e+000
      vertex   1.060000e+002 -2.516000e+002 3.525000e+000
    endloop
  endfacet
  facet normal 0.000000e+000 0.000000e+000 1.000000e+000
    outer loop
      vertex   1.060000e+002 -2.516000e+002 3.525000e+000
      vertex   9.400000e+001 -2.404240e+002 3.525000e+000
      vertex   5.600000e+001 -2.404240e+002 3.525000e+000
    endloop
  endfacet
  facet normal 0.000000e+000 0.000000e+000 1.000000e+000
    outer loop
      vertex   4.400000e+001 -2.516000e+002 3.525000e+000
      vertex   5.600000e+001 -2.404240e+002 3.525000e+000
      vertex   5.600000e+001 -2.150240e+002 3.525000e+000
    endloop
  endfacet
  facet normal -0.000000e+000 0.000000e+000 1.000000e+000
    outer loop
      vertex   4.400000e+001 -2.008000e+002 3.525000e+000
      vertex   4.400000e+001 -2.516000e+002 3.525000e+000
      vertex   5.600000e+001 -2.150240e+002 3.525000e+000
    endloop
  endfacet
  facet normal 0.000000e+000 -0.000000e+000 1.000000e+000
    outer loop
      vertex   4.400000e+001 -3.024000e+002 3.525000e+000
      vertex   5.600000e+001 -2.536320e+002 3.525000e+000
      vertex   4.400000e+001 -2.516000e+002 3.525000e+000
    endloop
  endfacet
  facet normal 0.000000e+000 0.000000e+000 1.000000e+000
    outer loop
      vertex   4.400000e+001 -3.024000e+002 3.525000e+000
      vertex   5.600000e+001 -3.024000e+002 3.525000e+000
      vertex   5.600000e+001 -2.536320e+002 3.525000e+000
    endloop
  endfacet
  facet normal 0.000000e+000 -0.000000e+000 1.000000e+000
    outer loop
      vertex   5.600000e+001 -2.536320e+002 3.525000e+000
      vertex   9.400000e+001 -2.536320e+002 3.525000e+000
      vertex   4.400000e+001 -2.516000e+002 3.525000e+000
    endloop
  endfacet
  facet normal -0.000000e+000 0.000000e+000 1.000000e+000
    outer loop
      vertex   4.400000e+001 -2.516000e+002 3.525000e+000
      vertex   9.400000e+001 -2.536320e+002 3.525000e+000
      vertex   1.060000e+002 -2.516000e+002 3.525000e+000
    endloop
  endfacet
  facet normal -0.000000e+000 0.000000e+000 1.000000e+000
    outer loop
      vertex   5.600000e+001 -2.404240e+002 3.525000e+000
      vertex   4.400000e+001 -2.516000e+002 3.525000e+000
      vertex   1.060000e+002 -2.516000e+002 3.525000e+000
    endloop
  endfacet
  facet normal 0.000000e+000 -0.000000e+000 1.000000e+000
    outer loop
      vertex   9.400000e+001 -3.024000e+002 3.525000e+000
      vertex   1.060000e+002 -3.024000e+002 3.525000e+000
      vertex   9.400000e+001 -2.536320e+002 3.525000e+000
    endloop
  endfacet
  facet normal -0.000000e+000 0.000000e+000 1.000000e+000
    outer loop
      vertex   9.400000e+001 -2.536320e+002 3.525000e+000
      vertex   1.060000e+002 -3.024000e+002 3.525000e+000
      vertex   1.060000e+002 -2.516000e+002 3.525000e+000
    endloop
  endfacet
  facet normal 0.000000e+000 -0.000000e+000 1.000000e+000
    outer loop
      vertex   9.400000e+001 -2.018160e+002 3.525000e+000
      vertex   1.060000e+002 -2.008000e+002 3.525000e+000
      vertex   9.400000e+001 -1.784480e+002 3.525000e+000
    endloop
  endfacet
  facet normal -0.000000e+000 0.000000e+000 1.000000e+000
    outer loop
      vertex   9.400000e+001 -1.784480e+002 3.525000e+000
      vertex   1.060000e+002 -2.008000e+002 3.525000e+000
      vertex   1.060000e+002 -1.500000e+002 3.525000e+000
    endloop
  endfacet
  facet normal 0.000000e+000 -0.000000e+000 1.000000e+000
    outer loop
      vertex   9.400000e+001 -1.662560e+002 3.525000e+000
      vertex   1.060000e+002 -1.500000e+002 3.525000e+000
      vertex   9.400000e+001 -1.398400e+002 3.525000e+000
    endloop
  endfacet
  facet normal -0.000000e+000 0.000000e+000 1.000000e+000
    outer loop
      vertex   9.400000e+001 -1.662560e+002 3.525000e+000
      vertex   9.400000e+001 -1.784480e+002 3.525000e+000
      vertex   1.060000e+002 -1.500000e+002 3.525000e+000
    endloop
  endfacet
  facet normal 0.000000e+000 0.000000e+000 1.000000e+000
    outer loop
      vertex   9.400000e+001 -1.662560e+002 3.525000e+000
      vertex   5.600000e+001 -1.662560e+002 3.525000e+000
      vertex   9.400000e+001 -1.784480e+002 3.525000e+000
    endloop
  endfacet
  facet normal 0.000000e+000 0.000000e+000 1.000000e+000
    outer loop
      vertex   9.400000e+001 -1.784480e+002 3.525000e+000
      vertex   5.600000e+001 -1.662560e+002 3.525000e+000
      vertex   5.600000e+001 -1.784480e+002 3.525000e+000
    endloop
  endfacet
  facet normal -0.000000e+000 -0.000000e+000 1.000000e+000
    outer loop
      vertex   9.400000e+001 -1.398400e+002 3.525000e+000
      vertex   1.060000e+002 -1.500000e+002 3.525000e+000
      vertex   9.400000e+001 -1.276480e+002 3.525000e+000
    endloop
  endfacet
  facet normal -0.000000e+000 0.000000e+000 1.000000e+000
    outer loop
      vertex   5.600000e+001 -1.276480e+002 3.525000e+000
      vertex   9.400000e+001 -1.398400e+002 3.525000e+000
      vertex   9.400000e+001 -1.276480e+002 3.525000e+000
    endloop
  endfacet
  facet normal -0.000000e+000 0.000000e+000 1.000000e+000
    outer loop
      vertex   5.600000e+001 -1.276480e+002 3.525000e+000
      vertex   5.600000e+001 -1.398400e+002 3.525000e+000
      vertex   9.400000e+001 -1.398400e+002 3.525000e+000
    endloop
  endfacet
  facet normal -0.000000e+000 0.000000e+000 1.000000e+000
    outer loop
      vertex   9.400000e+001 -2.909600e+001 3.525000e+000
      vertex   9.400000e+001 -5.551200e+001 3.525000e+000
      vertex   1.060000e+002 -4.840000e+001 3.525000e+000
    endloop
  endfacet
  facet normal 0.000000e+000 0.000000e+000 1.000000e+000
    outer loop
      vertex   1.060000e+002 -9.920000e+001 3.525000e+000
      vertex   5.600000e+001 -9.208800e+001 3.525000e+000
      vertex   4.400000e+001 -9.920000e+001 3.525000e+000
    endloop
  endfacet
  facet normal 0.000000e+000 0.000000e+000 1.000000e+000
    outer loop
      vertex   9.400000e+001 -1.042800e+002 3.525000e+000
      vertex   4.400000e+001 -9.920000e+001 3.525000e+000
      vertex   5.600000e+001 -1.042800e+002 3.525000e+000
    endloop
  endfacet
  facet normal 0.000000e+000 -0.000000e+000 1.000000e+000
    outer loop
      vertex   9.400000e+001 -1.042800e+002 3.525000e+000
      vertex   1.060000e+002 -9.920000e+001 3.525000e+000
      vertex   4.400000e+001 -9.920000e+001 3.525000e+000
    endloop
  endfacet
  facet normal -0.000000e+000 0.000000e+000 1.000000e+000
    outer loop
      vertex   9.400000e+001 -1.042800e+002 3.525000e+000
      vertex   9.400000e+001 -1.276480e+002 3.525000e+000
      vertex   1.060000e+002 -9.920000e+001 3.525000e+000
    endloop
  endfacet
  facet normal 0.000000e+000 0.000000e+000 1.000000e+000
    outer loop
      vertex   1.060000e+002 -9.920000e+001 3.525000e+000
      vertex   9.400000e+001 -1.276480e+002 3.525000e+000
      vertex   1.060000e+002 -1.500000e+002 3.525000e+000
    endloop
  endfacet
  facet normal 0.000000e+000 -0.000000e+000 1.000000e+000
    outer loop
      vertex   5.600000e+001 -1.276480e+002 3.525000e+000
      vertex   5.600000e+001 -1.042800e+002 3.525000e+000
      vertex   4.400000e+001 -9.920000e+001 3.525000e+000
    endloop
  endfacet
  facet normal 0.000000e+000 -1.000000e+000 0.000000e+000
    outer loop
      vertex   5.600000e+001 -2.150240e+002 3.525000e+000
      vertex   5.600000e+001 -2.150240e+002 -2.825000e+000
      vertex   9.400000e+001 -2.150240e+002 3.525000e+000
    endloop
  endfacet
  facet normal 0.000000e+000 -1.000000e+000 -0.000000e+000
    outer loop
      vertex   9.400000e+001 -2.150240e+002 3.525000e+000
      vertex   5.600000e+001 -2.150240e+002 -2.825000e+000
      vertex   9.400000e+001 -2.150240e+002 -2.825000e+000
    endloop
  endfacet
  facet normal 1.000000e+000 -0.000000e+000 0.000000e+000
    outer loop
      vertex   5.600000e+001 -2.404240e+002 3.525000e+000
      vertex   5.600000e+001 -2.404240e+002 -2.825000e+000
      vertex   5.600000e+001 -2.150240e+002 3.525000e+000
    endloop
  endfacet
  facet normal 1.000000e+000 -0.000000e+000 0.000000e+000
    outer loop
      vertex   5.600000e+001 -2.150240e+002 3.525000e+000
      vertex   5.600000e+001 -2.404240e+002 -2.825000e+000
      vertex   5.600000e+001 -2.150240e+002 -2.825000e+000
    endloop
  endfacet
  facet normal 0.000000e+000 -1.000000e+000 0.000000e+000
    outer loop
      vertex   5.600000e+001 -1.784480e+002 3.525000e+000
      vertex   5.600000e+001 -1.784480e+002 -2.825000e+000
      vertex   9.400000e+001 -1.784480e+002 3.525000e+000
    endloop
  endfacet
  facet normal 0.000000e+000 -1.000000e+000 -0.000000e+000
    outer loop
      vertex   9.400000e+001 -1.784480e+002 3.525000e+000
      vertex   5.600000e+001 -1.784480e+002 -2.825000e+000
      vertex   9.400000e+001 -1.784480e+002 -2.825000e+000
    endloop
  endfacet
  facet normal 1.000000e+000 -0.000000e+000 0.000000e+000
    outer loop
      vertex   5.600000e+001 -2.018160e+002 3.525000e+000
      vertex   5.600000e+001 -2.018160e+002 -2.825000e+000
      vertex   5.600000e+001 -1.784480e+002 3.525000e+000
    endloop
  endfacet
  facet normal 1.000000e+000 -0.000000e+000 0.000000e+000
    outer loop
      vertex   5.600000e+001 -1.784480e+002 3.525000e+000
      vertex   5.600000e+001 -2.018160e+002 -2.825000e+000
      vertex   5.600000e+001 -1.784480e+002 -2.825000e+000
    endloop
  endfacet
  facet normal 0.000000e+000 -1.000000e+000 0.000000e+000
    outer loop
      vertex   5.600000e+001 -1.398400e+002 3.525000e+000
      vertex   5.600000e+001 -1.398400e+002 -2.825000e+000
      vertex   9.400000e+001 -1.398400e+002 3.525000e+000
    endloop
  endfacet
  facet normal 0.000000e+000 -1.000000e+000 -0.000000e+000
    outer loop
      vertex   9.400000e+001 -1.398400e+002 3.525000e+000
      vertex   5.600000e+001 -1.398400e+002 -2.825000e+000
      vertex   9.400000e+001 -1.398400e+002 -2.825000e+000
    endloop
  endfacet
  facet normal 1.000000e+000 -0.000000e+000 0.000000e+000
    outer loop
      vertex   5.600000e+001 -1.662560e+002 3.525000e+000
      vertex   5.600000e+001 -1.662560e+002 -2.825000e+000
      vertex   5.600000e+001 -1.398400e+002 3.525000e+000
    endloop
  endfacet
  facet normal 1.000000e+000 -0.000000e+000 0.000000e+000
    outer loop
      vertex   5.600000e+001 -1.398400e+002 3.525000e+000
      vertex   5.600000e+001 -1.662560e+002 -2.825000e+000
      vertex   5.600000e+001 -1.398400e+002 -2.825000e+000
    endloop
  endfacet
  facet normal 0.000000e+000 -1.000000e+000 0.000000e+000
    outer loop
      vertex   5.600000e+001 -1.042800e+002 3.525000e+000
      vertex   5.600000e+001 -1.042800e+002 -2.825000e+000
      vertex   9.400000e+001 -1.042800e+002 3.525000e+000
    endloop
  endfacet
  facet normal 0.000000e+000 -1.000000e+000 -0.000000e+000
    outer loop
      vertex   9.400000e+001 -1.042800e+002 3.525000e+000
      vertex   5.600000e+001 -1.042800e+002 -2.825000e+000
      vertex   9.400000e+001 -1.042800e+002 -2.825000e+000
    endloop
  endfacet
  facet normal 1.000000e+000 -0.000000e+000 0.000000e+000
    outer loop
      vertex   5.600000e+001 -1.276480e+002 3.525000e+000
      vertex   5.600000e+001 -1.276480e+002 -2.825000e+000
      vertex   5.600000e+001 -1.042800e+002 3.525000e+000
    endloop
  endfacet
  facet normal 1.000000e+000 -0.000000e+000 0.000000e+000
    outer loop
      vertex   5.600000e+001 -1.042800e+002 3.525000e+000
      vertex   5.600000e+001 -1.276480e+002 -2.825000e+000
      vertex   5.600000e+001 -1.042800e+002 -2.825000e+000
    endloop
  endfacet
  facet normal 0.000000e+000 -1.000000e+000 0.000000e+000
    outer loop
      vertex   5.600000e+001 -6.872000e+001 3.525000e+000
      vertex   5.600000e+001 -6.872000e+001 -2.825000e+000
      vertex   9.400000e+001 -6.872000e+001 3.525000e+000
    endloop
  endfacet
  facet normal 0.000000e+000 -1.000000e+000 -0.000000e+000
    outer loop
      vertex   9.400000e+001 -6.872000e+001 3.525000e+000
      vertex   5.600000e+001 -6.872000e+001 -2.825000e+000
      vertex   9.400000e+001 -6.872000e+001 -2.825000e+000
    endloop
  endfacet
  facet normal 1.000000e+000 -0.000000e+000 0.000000e+000
    outer loop
      vertex   5.600000e+001 -9.208800e+001 3.525000e+000
      vertex   5.600000e+001 -9.208800e+001 -2.825000e+000
      vertex   5.600000e+001 -6.872000e+001 3.525000e+000
    endloop
  endfacet
  facet normal 1.000000e+000 -0.000000e+000 0.000000e+000
    outer loop
      vertex   5.600000e+001 -6.872000e+001 3.525000e+000
      vertex   5.600000e+001 -9.208800e+001 -2.825000e+000
      vertex   5.600000e+001 -6.872000e+001 -2.825000e+000
    endloop
  endfacet
  facet normal 0.000000e+000 -1.000000e+000 0.000000e+000
    outer loop
      vertex   5.600000e+001 -2.909600e+001 3.525000e+000
      vertex   5.600000e+001 -2.909600e+001 -2.825000e+000
      vertex   9.400000e+001 -2.909600e+001 3.525000e+000
    endloop
  endfacet
  facet normal 0.000000e+000 -1.000000e+000 -0.000000e+000
    outer loop
      vertex   9.400000e+001 -2.909600e+001 3.525000e+000
      vertex   5.600000e+001 -2.909600e+001 -2.825000e+000
      vertex   9.400000e+001 -2.909600e+001 -2.825000e+000
    endloop
  endfacet
  facet normal 1.000000e+000 -0.000000e+000 0.000000e+000
    outer loop
      vertex   5.600000e+001 -5.551200e+001 3.525000e+000
      vertex   5.600000e+001 -5.551200e+001 -2.825000e+000
      vertex   5.600000e+001 -2.909600e+001 3.525000e+000
    endloop
  endfacet
  facet normal 1.000000e+000 -0.000000e+000 0.000000e+000
    outer loop
      vertex   5.600000e+001 -2.909600e+001 3.525000e+000
      vertex   5.600000e+001 -5.551200e+001 -2.825000e+000
      vertex   5.600000e+001 -2.909600e+001 -2.825000e+000
    endloop
  endfacet
  facet normal 0.000000e+000 1.000000e+000 0.000000e+000
    outer loop
      vertex   1.060000e+002 2.400000e+000 3.525000e+000
      vertex   1.060000e+002 2.400000e+000 -2.825000e+000
      vertex   9.400000e+001 2.400000e+000 3.525000e+000
    endloop
  endfacet
  facet normal 0.000000e+000 1.000000e+000 0.000000e+000
    outer loop
      vertex   9.400000e+001 2.400000e+000 3.525000e+000
      vertex   1.060000e+002 2.400000e+000 -2.825000e+000
      vertex   9.400000e+001 2.400000e+000 -2.825000e+000
    endloop
  endfacet
  facet normal 1.000000e+000 0.000000e+000 -0.000000e+000
    outer loop
      vertex   1.060000e+002 2.400000e+000 -2.825000e+000
      vertex   1.060000e+002 2.400000e+000 3.525000e+000
      vertex   1.060000e+002 -4.840000e+001 -2.825000e+000
    endloop
  endfacet
  facet normal 1.000000e+000 0.000000e+000 -0.000000e+000
    outer loop
      vertex   1.060000e+002 -4.840000e+001 -2.825000e+000
      vertex   1.060000e+002 2.400000e+000 3.525000e+000
      vertex   1.060000e+002 -4.840000e+001 3.525000e+000
    endloop
  endfacet
  facet normal 1.000000e+000 0.000000e+000 -0.000000e+000
    outer loop
      vertex   1.060000e+002 -9.920000e+001 -2.825000e+000
      vertex   1.060000e+002 -4.840000e+001 3.525000e+000
      vertex   1.060000e+002 -9.920000e+001 3.525000e+000
    endloop
  endfacet
  facet normal 1.000000e+000 0.000000e+000 -0.000000e+000
    outer loop
      vertex   1.060000e+002 -1.500000e+002 -2.825000e+000
      vertex   1.060000e+002 -9.920000e+001 3.525000e+000
      vertex   1.060000e+002 -1.500000e+002 3.525000e+000
    endloop
  endfacet
  facet normal 1.000000e+000 0.000000e+000 -0.000000e+000
    outer loop
      vertex   1.060000e+002 -2.008000e+002 -2.825000e+000
      vertex   1.060000e+002 -1.500000e+002 3.525000e+000
      vertex   1.060000e+002 -2.008000e+002 3.525000e+000
    endloop
  endfacet
  facet normal 1.000000e+000 0.000000e+000 -0.000000e+000
    outer loop
      vertex   1.060000e+002 -2.516000e+002 -2.825000e+000
      vertex   1.060000e+002 -2.008000e+002 3.525000e+000
      vertex   1.060000e+002 -2.516000e+002 3.525000e+000
    endloop
  endfacet
  facet normal 1.000000e+000 0.000000e+000 -0.000000e+000
    outer loop
      vertex   1.060000e+002 -3.024000e+002 -2.825000e+000
      vertex   1.060000e+002 -2.516000e+002 3.525000e+000
      vertex   1.060000e+002 -3.024000e+002 3.525000e+000
    endloop
  endfacet
  facet normal 1.000000e+000 0.000000e+000 0.000000e+000
    outer loop
      vertex   1.060000e+002 -3.024000e+002 -2.825000e+000
      vertex   1.060000e+002 -2.516000e+002 -2.825000e+000
      vertex   1.060000e+002 -2.516000e+002 3.525000e+000
    endloop
  endfacet
  facet normal 1.000000e+000 0.000000e+000 -0.000000e+000
    outer loop
      vertex   1.060000e+002 -4.840000e+001 -2.825000e+000
      vertex   1.060000e+002 -4.840000e+001 3.525000e+000
      vertex   1.060000e+002 -9.920000e+001 -2.825000e+000
    endloop
  endfacet
  facet normal 1.000000e+000 0.000000e+000 -0.000000e+000
    outer loop
      vertex   1.060000e+002 -9.920000e+001 -2.825000e+000
      vertex   1.060000e+002 -9.920000e+001 3.525000e+000
      vertex   1.060000e+002 -1.500000e+002 -2.825000e+000
    endloop
  endfacet
  facet normal 1.000000e+000 0.000000e+000 -0.000000e+000
    outer loop
      vertex   1.060000e+002 -1.500000e+002 -2.825000e+000
      vertex   1.060000e+002 -1.500000e+002 3.525000e+000
      vertex   1.060000e+002 -2.008000e+002 -2.825000e+000
    endloop
  endfacet
  facet normal 1.000000e+000 0.000000e+000 -0.000000e+000
    outer loop
      vertex   1.060000e+002 -2.008000e+002 -2.825000e+000
      vertex   1.060000e+002 -2.008000e+002 3.525000e+000
      vertex   1.060000e+002 -2.516000e+002 -2.825000e+000
    endloop
  endfacet
  facet normal 0.000000e+000 -1.000000e+000 0.000000e+000
    outer loop
      vertex   9.400000e+001 -3.024000e+002 3.525000e+000
      vertex   9.400000e+001 -3.024000e+002 -2.825000e+000
      vertex   1.060000e+002 -3.024000e+002 3.525000e+000
    endloop
  endfacet
  facet normal 0.000000e+000 -1.000000e+000 -0.000000e+000
    outer loop
      vertex   1.060000e+002 -3.024000e+002 3.525000e+000
      vertex   9.400000e+001 -3.024000e+002 -2.825000e+000
      vertex   1.060000e+002 -3.024000e+002 -2.825000e+000
    endloop
  endfacet
  facet normal -1.000000e+000 -0.000000e+000 -0.000000e+000
    outer loop
      vertex   9.400000e+001 -2.536320e+002 3.525000e+000
      vertex   9.400000e+001 -2.536320e+002 -2.825000e+000
      vertex   9.400000e+001 -3.024000e+002 3.525000e+000
    endloop
  endfacet
  facet normal -1.000000e+000 -0.000000e+000 -0.000000e+000
    outer loop
      vertex   9.400000e+001 -3.024000e+002 3.525000e+000
      vertex   9.400000e+001 -2.536320e+002 -2.825000e+000
      vertex   9.400000e+001 -3.024000e+002 -2.825000e+000
    endloop
  endfacet
  facet normal 0.000000e+000 -1.000000e+000 0.000000e+000
    outer loop
      vertex   5.600000e+001 -2.536320e+002 3.525000e+000
      vertex   5.600000e+001 -2.536320e+002 -2.825000e+000
      vertex   9.400000e+001 -2.536320e+002 3.525000e+000
    endloop
  endfacet
  facet normal 0.000000e+000 -1.000000e+000 -0.000000e+000
    outer loop
      vertex   9.400000e+001 -2.536320e+002 3.525000e+000
      vertex   5.600000e+001 -2.536320e+002 -2.825000e+000
      vertex   9.400000e+001 -2.536320e+002 -2.825000e+000
    endloop
  endfacet
  facet normal 1.000000e+000 -0.000000e+000 0.000000e+000
    outer loop
      vertex   5.600000e+001 -3.024000e+002 3.525000e+000
      vertex   5.600000e+001 -3.024000e+002 -2.825000e+000
      vertex   5.600000e+001 -2.536320e+002 3.525000e+000
    endloop
  endfacet
  facet normal 1.000000e+000 -0.000000e+000 0.000000e+000
    outer loop
      vertex   5.600000e+001 -2.536320e+002 3.525000e+000
      vertex   5.600000e+001 -3.024000e+002 -2.825000e+000
      vertex   5.600000e+001 -2.536320e+002 -2.825000e+000
    endloop
  endfacet
  facet normal 0.000000e+000 1.000000e+000 0.000000e+000
    outer loop
      vertex   9.400000e+001 -2.404240e+002 3.525000e+000
      vertex   9.400000e+001 -2.404240e+002 -2.825000e+000
      vertex   5.600000e+001 -2.404240e+002 3.525000e+000
    endloop
  endfacet
  facet normal 0.000000e+000 1.000000e+000 0.000000e+000
    outer loop
      vertex   5.600000e+001 -2.404240e+002 3.525000e+000
      vertex   9.400000e+001 -2.404240e+002 -2.825000e+000
      vertex   5.600000e+001 -2.404240e+002 -2.825000e+000
    endloop
  endfacet
  facet normal -1.000000e+000 -0.000000e+000 -0.000000e+000
    outer loop
      vertex   9.400000e+001 -2.150240e+002 3.525000e+000
      vertex   9.400000e+001 -2.150240e+002 -2.825000e+000
      vertex   9.400000e+001 -2.404240e+002 3.525000e+000
    endloop
  endfacet
  facet normal -1.000000e+000 -0.000000e+000 -0.000000e+000
    outer loop
      vertex   9.400000e+001 -2.404240e+002 3.525000e+000
      vertex   9.400000e+001 -2.150240e+002 -2.825000e+000
      vertex   9.400000e+001 -2.404240e+002 -2.825000e+000
    endloop
  endfacet
  facet normal 0.000000e+000 1.000000e+000 0.000000e+000
    outer loop
      vertex   9.400000e+001 -2.018160e+002 3.525000e+000
      vertex   9.400000e+001 -2.018160e+002 -2.825000e+000
      vertex   5.600000e+001 -2.018160e+002 3.525000e+000
    endloop
  endfacet
  facet normal 0.000000e+000 1.000000e+000 0.000000e+000
    outer loop
      vertex   5.600000e+001 -2.018160e+002 3.525000e+000
      vertex   9.400000e+001 -2.018160e+002 -2.825000e+000
      vertex   5.600000e+001 -2.018160e+002 -2.825000e+000
    endloop
  endfacet
  facet normal -1.000000e+000 -0.000000e+000 -0.000000e+000
    outer loop
      vertex   9.400000e+001 -1.784480e+002 3.525000e+000
      vertex   9.400000e+001 -1.784480e+002 -2.825000e+000
      vertex   9.400000e+001 -2.018160e+002 3.525000e+000
    endloop
  endfacet
  facet normal -1.000000e+000 -0.000000e+000 -0.000000e+000
    outer loop
      vertex   9.400000e+001 -2.018160e+002 3.525000e+000
      vertex   9.400000e+001 -1.784480e+002 -2.825000e+000
      vertex   9.400000e+001 -2.018160e+002 -2.825000e+000
    endloop
  endfacet
  facet normal 0.000000e+000 1.000000e+000 0.000000e+000
    outer loop
      vertex   9.400000e+001 -1.662560e+002 3.525000e+000
      vertex   9.400000e+001 -1.662560e+002 -2.825000e+000
      vertex   5.600000e+001 -1.662560e+002 3.525000e+000
    endloop
  endfacet
  facet normal 0.000000e+000 1.000000e+000 0.000000e+000
    outer loop
      vertex   5.600000e+001 -1.662560e+002 3.525000e+000
      vertex   9.400000e+001 -1.662560e+002 -2.825000e+000
      vertex   5.600000e+001 -1.662560e+002 -2.825000e+000
    endloop
  endfacet
  facet normal -1.000000e+000 -0.000000e+000 -0.000000e+000
    outer loop
      vertex   9.400000e+001 -1.398400e+002 3.525000e+000
      vertex   9.400000e+001 -1.398400e+002 -2.825000e+000
      vertex   9.400000e+001 -1.662560e+002 3.525000e+000
    endloop
  endfacet
  facet normal -1.000000e+000 -0.000000e+000 -0.000000e+000
    outer loop
      vertex   9.400000e+001 -1.662560e+002 3.525000e+000
      vertex   9.400000e+001 -1.398400e+002 -2.825000e+000
      vertex   9.400000e+001 -1.662560e+002 -2.825000e+000
    endloop
  endfacet
  facet normal 0.000000e+000 1.000000e+000 0.000000e+000
    outer loop
      vertex   9.400000e+001 -1.276480e+002 3.525000e+000
      vertex   9.400000e+001 -1.276480e+002 -2.825000e+000
      vertex   5.600000e+001 -1.276480e+002 3.525000e+000
    endloop
  endfacet
  facet normal 0.000000e+000 1.000000e+000 0.000000e+000
    outer loop
      vertex   5.600000e+001 -1.276480e+002 3.525000e+000
      vertex   9.400000e+001 -1.276480e+002 -2.825000e+000
      vertex   5.600000e+001 -1.276480e+002 -2.825000e+000
    endloop
  endfacet
  facet normal -1.000000e+000 -0.000000e+000 -0.000000e+000
    outer loop
      vertex   9.400000e+001 -1.042800e+002 3.525000e+000
      vertex   9.400000e+001 -1.042800e+002 -2.825000e+000
      vertex   9.400000e+001 -1.276480e+002 3.525000e+000
    endloop
  endfacet
  facet normal -1.000000e+000 -0.000000e+000 -0.000000e+000
    outer loop
      vertex   9.400000e+001 -1.276480e+002 3.525000e+000
      vertex   9.400000e+001 -1.042800e+002 -2.825000e+000
      vertex   9.400000e+001 -1.276480e+002 -2.825000e+000
    endloop
  endfacet
  facet normal 0.000000e+000 1.000000e+000 0.000000e+000
    outer loop
      vertex   9.400000e+001 -9.208800e+001 3.525000e+000
      vertex   9.400000e+001 -9.208800e+001 -2.825000e+000
      vertex   5.600000e+001 -9.208800e+001 3.525000e+000
    endloop
  endfacet
  facet normal 0.000000e+000 1.000000e+000 0.000000e+000
    outer loop
      vertex   5.600000e+001 -9.208800e+001 3.525000e+000
      vertex   9.400000e+001 -9.208800e+001 -2.825000e+000
      vertex   5.600000e+001 -9.208800e+001 -2.825000e+000
    endloop
  endfacet
  facet normal -1.000000e+000 -0.000000e+000 -0.000000e+000
    outer loop
      vertex   9.400000e+001 -6.872000e+001 3.525000e+000
      vertex   9.400000e+001 -6.872000e+001 -2.825000e+000
      vertex   9.400000e+001 -9.208800e+001 3.525000e+000
    endloop
  endfacet
  facet normal -1.000000e+000 -0.000000e+000 -0.000000e+000
    outer loop
      vertex   9.400000e+001 -9.208800e+001 3.525000e+000
      vertex   9.400000e+001 -6.872000e+001 -2.825000e+000
      vertex   9.400000e+001 -9.208800e+001 -2.825000e+000
    endloop
  endfacet
  facet normal 0.000000e+000 1.000000e+000 0.000000e+000
    outer loop
      vertex   9.400000e+001 -5.551200e+001 3.525000e+000
      vertex   9.400000e+001 -5.551200e+001 -2.825000e+000
      vertex   5.600000e+001 -5.551200e+001 3.525000e+000
    endloop
  endfacet
  facet normal 0.000000e+000 1.000000e+000 0.000000e+000
    outer loop
      vertex   5.600000e+001 -5.551200e+001 3.525000e+000
      vertex   9.400000e+001 -5.551200e+001 -2.825000e+000
      vertex   5.600000e+001 -5.551200e+001 -2.825000e+000
    endloop
  endfacet
  facet normal -1.000000e+000 -0.000000e+000 -0.000000e+000
    outer loop
      vertex   9.400000e+001 -2.909600e+001 3.525000e+000
      vertex   9.400000e+001 -2.909600e+001 -2.825000e+000
      vertex   9.400000e+001 -5.551200e+001 3.525000e+000
    endloop
  endfacet
  facet normal -1.000000e+000 -0.000000e+000 -0.000000e+000
    outer loop
      vertex   9.400000e+001 -5.551200e+001 3.525000e+000
      vertex   9.400000e+001 -2.909600e+001 -2.825000e+000
      vertex   9.400000e+001 -5.551200e+001 -2.825000e+000
    endloop
  endfacet
  facet normal 0.000000e+000 1.000000e+000 0.000000e+000
    outer loop
      vertex   5.600000e+001 2.400000e+000 3.525000e+000
      vertex   5.600000e+001 2.400000e+000 -2.825000e+000
      vertex   4.400000e+001 2.400000e+000 3.525000e+000
    endloop
  endfacet
  facet normal 0.000000e+000 1.000000e+000 0.000000e+000
    outer loop
      vertex   4.400000e+001 2.400000e+000 3.525000e+000
      vertex   5.600000e+001 2.400000e+000 -2.825000e+000
      vertex   4.400000e+001 2.400000e+000 -2.825000e+000
    endloop
  endfacet
  facet normal 1.000000e+000 -0.000000e+000 0.000000e+000
    outer loop
      vertex   5.600000e+001 -1.690400e+001 3.525000e+000
      vertex   5.600000e+001 -1.690400e+001 -2.825000e+000
      vertex   5.600000e+001 2.400000e+000 3.525000e+000
    endloop
  endfacet
  facet normal 1.000000e+000 -0.000000e+000 0.000000e+000
    outer loop
      vertex   5.600000e+001 2.400000e+000 3.525000e+000
      vertex   5.600000e+001 -1.690400e+001 -2.825000e+000
      vertex   5.600000e+001 2.400000e+000 -2.825000e+000
    endloop
  endfacet
  facet normal 0.000000e+000 1.000000e+000 0.000000e+000
    outer loop
      vertex   9.400000e+001 -1.690400e+001 3.525000e+000
      vertex   9.400000e+001 -1.690400e+001 -2.825000e+000
      vertex   5.600000e+001 -1.690400e+001 3.525000e+000
    endloop
  endfacet
  facet normal 0.000000e+000 1.000000e+000 0.000000e+000
    outer loop
      vertex   5.600000e+001 -1.690400e+001 3.525000e+000
      vertex   9.400000e+001 -1.690400e+001 -2.825000e+000
      vertex   5.600000e+001 -1.690400e+001 -2.825000e+000
    endloop
  endfacet
  facet normal -1.000000e+000 -0.000000e+000 -0.000000e+000
    outer loop
      vertex   9.400000e+001 2.400000e+000 3.525000e+000
      vertex   9.400000e+001 2.400000e+000 -2.825000e+000
      vertex   9.400000e+001 -1.690400e+001 3.525000e+000
    endloop
  endfacet
  facet normal -1.000000e+000 -0.000000e+000 -0.000000e+000
    outer loop
      vertex   9.400000e+001 -1.690400e+001 3.525000e+000
      vertex   9.400000e+001 2.400000e+000 -2.825000e+000
      vertex   9.400000e+001 -1.690400e+001 -2.825000e+000
    endloop
  endfacet
  facet normal 0.000000e+000 -1.000000e+000 0.000000e+000
    outer loop
      vertex   4.400000e+001 -3.024000e+002 3.525000e+000
      vertex   4.400000e+001 -3.024000e+002 -2.825000e+000
      vertex   5.600000e+001 -3.024000e+002 3.525000e+000
    endloop
  endfacet
  facet normal 0.000000e+000 -1.000000e+000 -0.000000e+000
    outer loop
      vertex   5.600000e+001 -3.024000e+002 3.525000e+000
      vertex   4.400000e+001 -3.024000e+002 -2.825000e+000
      vertex   5.600000e+001 -3.024000e+002 -2.825000e+000
    endloop
  endfacet
  facet normal -1.000000e+000 0.000000e+000 0.000000e+000
    outer loop
      vertex   4.400000e+001 -3.024000e+002 -2.825000e+000
      vertex   4.400000e+001 -3.024000e+002 3.525000e+000
      vertex   4.400000e+001 -2.516000e+002 -2.825000e+000
    endloop
  endfacet
  facet normal -1.000000e+000 0.000000e+000 0.000000e+000
    outer loop
      vertex   4.400000e+001 -2.516000e+002 -2.825000e+000
      vertex   4.400000e+001 -3.024000e+002 3.525000e+000
      vertex   4.400000e+001 -2.516000e+002 3.525000e+000
    endloop
  endfacet
  facet normal -1.000000e+000 0.000000e+000 0.000000e+000
    outer loop
      vertex   4.400000e+001 -2.008000e+002 -2.825000e+000
      vertex   4.400000e+001 -2.516000e+002 3.525000e+000
      vertex   4.400000e+001 -2.008000e+002 3.525000e+000
    endloop
  endfacet
  facet normal -1.000000e+000 0.000000e+000 0.000000e+000
    outer loop
      vertex   4.400000e+001 -1.500000e+002 -2.825000e+000
      vertex   4.400000e+001 -2.008000e+002 3.525000e+000
      vertex   4.400000e+001 -1.500000e+002 3.525000e+000
    endloop
  endfacet
  facet normal -1.000000e+000 0.000000e+000 0.000000e+000
    outer loop
      vertex   4.400000e+001 -9.920000e+001 -2.825000e+000
      vertex   4.400000e+001 -1.500000e+002 3.525000e+000
      vertex   4.400000e+001 -9.920000e+001 3.525000e+000
    endloop
  endfacet
  facet normal -1.000000e+000 0.000000e+000 0.000000e+000
    outer loop
      vertex   4.400000e+001 -4.840000e+001 -2.825000e+000
      vertex   4.400000e+001 -9.920000e+001 3.525000e+000
      vertex   4.400000e+001 -4.840000e+001 3.525000e+000
    endloop
  endfacet
  facet normal -1.000000e+000 0.000000e+000 0.000000e+000
    outer loop
      vertex   4.400000e+001 2.400000e+000 -2.825000e+000
      vertex   4.400000e+001 -4.840000e+001 3.525000e+000
      vertex   4.400000e+001 2.400000e+000 3.525000e+000
    endloop
  endfacet
  facet normal -1.000000e+000 0.000000e+000 0.000000e+000
    outer loop
      vertex   4.400000e+001 2.400000e+000 -2.825000e+000
      vertex   4.400000e+001 -4.840000e+001 -2.825000e+000
      vertex   4.400000e+001 -4.840000e+001 3.525000e+000
    endloop
  endfacet
  facet normal -1.000000e+000 0.000000e+000 0.000000e+000
    outer loop
      vertex   4.400000e+001 -2.516000e+002 -2.825000e+000
      vertex   4.400000e+001 -2.516000e+002 3.525000e+000
      vertex   4.400000e+001 -2.008000e+002 -2.825000e+000
    endloop
  endfacet
  facet normal -1.000000e+000 0.000000e+000 0.000000e+000
    outer loop
      vertex   4.400000e+001 -2.008000e+002 -2.825000e+000
      vertex   4.400000e+001 -2.008000e+002 3.525000e+000
      vertex   4.400000e+001 -1.500000e+002 -2.825000e+000
    endloop
  endfacet
  facet normal -1.000000e+000 0.000000e+000 0.000000e+000
    outer loop
      vertex   4.400000e+001 -1.500000e+002 -2.825000e+000
      vertex   4.400000e+001 -1.500000e+002 3.525000e+000
      vertex   4.400000e+001 -9.920000e+001 -2.825000e+000
    endloop
  endfacet
  facet normal -1.000000e+000 0.000000e+000 0.000000e+000
    outer loop
      vertex   4.400000e+001 -9.920000e+001 -2.825000e+000
      vertex   4.400000e+001 -9.920000e+001 3.525000e+000
      vertex   4.400000e+001 -4.840000e+001 -2.825000e+000
    endloop
  endfacet
  facet normal -5.746027e-008 0.000000e+000 -1.000000e+000
    outer loop
      vertex   5.579254e+001 2.387702e+000 -2.825000e+000
      vertex   5.600000e+001 2.400000e+000 -2.825000e+000
      vertex   5.579254e+001 -7.613272e+000 -2.825000e+000
    endloop
  endfacet
  facet normal -0.000000e+000 -9.693200e-007 -1.000000e+000
    outer loop
      vertex   5.579254e+001 2.387702e+000 -2.825000e+000
      vertex   4.441547e+001 2.387702e+000 -2.825000e+000
      vertex   5.600000e+001 2.400000e+000 -2.825000e+000
    endloop
  endfacet
  facet normal 0.000000e+000 -9.693200e-007 -1.000000e+000
    outer loop
      vertex   5.600000e+001 2.400000e+000 -2.825000e+000
      vertex   4.441547e+001 2.387702e+000 -2.825000e+000
      vertex   4.400000e+001 2.400000e+000 -2.825000e+000
    endloop
  endfacet
  facet normal 2.869281e-008 0.000000e+000 -1.000000e+000
    outer loop
      vertex   4.400000e+001 2.400000e+000 -2.825000e+000
      vertex   4.441547e+001 2.387702e+000 -2.825000e+000
      vertex   4.441547e+001 -7.613272e+000 -2.825000e+000
    endloop
  endfacet
  facet normal -4.780057e-010 2.971440e-010 -1.000000e+000
    outer loop
      vertex   4.400000e+001 -4.840000e+001 -2.825000e+000
      vertex   4.441547e+001 -7.613272e+000 -2.825000e+000
      vertex   5.600000e+001 -2.909600e+001 -2.825000e+000
    endloop
  endfacet
  facet normal 0.000000e+000 0.000000e+000 -1.000000e+000
    outer loop
      vertex   5.600000e+001 -5.551200e+001 -2.825000e+000
      vertex   4.400000e+001 -4.840000e+001 -2.825000e+000
      vertex   5.600000e+001 -2.909600e+001 -2.825000e+000
    endloop
  endfacet
  facet normal -0.000000e+000 -0.000000e+000 -1.000000e+000
    outer loop
      vertex   5.600000e+001 -5.551200e+001 -2.825000e+000
      vertex   5.600000e+001 -6.872000e+001 -2.825000e+000
      vertex   4.400000e+001 -4.840000e+001 -2.825000e+000
    endloop
  endfacet
  facet normal 0.000000e+000 -0.000000e+000 -1.000000e+000
    outer loop
      vertex   5.600000e+001 -5.551200e+001 -2.825000e+000
      vertex   9.400000e+001 -5.551200e+001 -2.825000e+000
      vertex   5.600000e+001 -6.872000e+001 -2.825000e+000
    endloop
  endfacet
  facet normal 0.000000e+000 0.000000e+000 -1.000000e+000
    outer loop
      vertex   5.600000e+001 -6.872000e+001 -2.825000e+000
      vertex   9.400000e+001 -5.551200e+001 -2.825000e+000
      vertex   9.400000e+001 -6.872000e+001 -2.825000e+000
    endloop
  endfacet
  facet normal 0.000000e+000 0.000000e+000 -1.000000e+000
    outer loop
      vertex   9.400000e+001 -6.872000e+001 -2.825000e+000
      vertex   9.400000e+001 -5.551200e+001 -2.825000e+000
      vertex   1.060000e+002 -4.840000e+001 -2.825000e+000
    endloop
  endfacet
  facet normal 0.000000e+000 0.000000e+000 -1.000000e+000
    outer loop
      vertex   1.060000e+002 -9.920000e+001 -2.825000e+000
      vertex   9.400000e+001 -6.872000e+001 -2.825000e+000
      vertex   1.060000e+002 -4.840000e+001 -2.825000e+000
    endloop
  endfacet
  facet normal 0.000000e+000 0.000000e+000 -1.000000e+000
    outer loop
      vertex   1.060000e+002 -9.920000e+001 -2.825000e+000
      vertex   9.400000e+001 -9.208800e+001 -2.825000e+000
      vertex   9.400000e+001 -6.872000e+001 -2.825000e+000
    endloop
  endfacet
  facet normal -0.000000e+000 0.000000e+000 -1.000000e+000
    outer loop
      vertex   1.060000e+002 -9.920000e+001 -2.825000e+000
      vertex   4.400000e+001 -9.920000e+001 -2.825000e+000
      vertex   9.400000e+001 -9.208800e+001 -2.825000e+000
    endloop
  endfacet
  facet normal -0.000000e+000 0.000000e+000 -1.000000e+000
    outer loop
      vertex   1.060000e+002 -9.920000e+001 -2.825000e+000
      vertex   5.600000e+001 -1.042800e+002 -2.825000e+000
      vertex   4.400000e+001 -9.920000e+001 -2.825000e+000
    endloop
  endfacet
  facet normal -0.000000e+000 0.000000e+000 -1.000000e+000
    outer loop
      vertex   1.060000e+002 -9.920000e+001 -2.825000e+000
      vertex   9.400000e+001 -1.042800e+002 -2.825000e+000
      vertex   5.600000e+001 -1.042800e+002 -2.825000e+000
    endloop
  endfacet
  facet normal -0.000000e+000 0.000000e+000 -1.000000e+000
    outer loop
      vertex   1.060000e+002 -9.920000e+001 -2.825000e+000
      vertex   9.400000e+001 -1.276480e+002 -2.825000e+000
      vertex   9.400000e+001 -1.042800e+002 -2.825000e+000
    endloop
  endfacet
  facet normal -0.000000e+000 -0.000000e+000 -1.000000e+000
    outer loop
      vertex   1.060000e+002 -9.920000e+001 -2.825000e+000
      vertex   1.060000e+002 -1.500000e+002 -2.825000e+000
      vertex   9.400000e+001 -1.276480e+002 -2.825000e+000
    endloop
  endfacet
  facet normal -0.000000e+000 -0.000000e+000 -1.000000e+000
    outer loop
      vertex   9.400000e+001 -1.276480e+002 -2.825000e+000
      vertex   1.060000e+002 -1.500000e+002 -2.825000e+000
      vertex   9.400000e+001 -1.398400e+002 -2.825000e+000
    endloop
  endfacet
  facet normal 0.000000e+000 0.000000e+000 -1.000000e+000
    outer loop
      vertex   5.600000e+001 -1.398400e+002 -2.825000e+000
      vertex   9.400000e+001 -1.276480e+002 -2.825000e+000
      vertex   9.400000e+001 -1.398400e+002 -2.825000e+000
    endloop
  endfacet
  facet normal 0.000000e+000 0.000000e+000 -1.000000e+000
    outer loop
      vertex   5.600000e+001 -1.398400e+002 -2.825000e+000
      vertex   5.600000e+001 -1.276480e+002 -2.825000e+000
      vertex   9.400000e+001 -1.276480e+002 -2.825000e+000
    endloop
  endfacet
  facet normal -0.000000e+000 0.000000e+000 -1.000000e+000
    outer loop
      vertex   5.600000e+001 -1.398400e+002 -2.825000e+000
      vertex   4.400000e+001 -1.500000e+002 -2.825000e+000
      vertex   5.600000e+001 -1.276480e+002 -2.825000e+000
    endloop
  endfacet
  facet normal -0.000000e+000 -0.000000e+000 -1.000000e+000
    outer loop
      vertex   5.600000e+001 -1.398400e+002 -2.825000e+000
      vertex   5.600000e+001 -1.662560e+002 -2.825000e+000
      vertex   4.400000e+001 -1.500000e+002 -2.825000e+000
    endloop
  endfacet
  facet normal 0.000000e+000 0.000000e+000 -1.000000e+000
    outer loop
      vertex   4.400000e+001 -1.500000e+002 -2.825000e+000
      vertex   5.600000e+001 -1.662560e+002 -2.825000e+000
      vertex   5.600000e+001 -1.784480e+002 -2.825000e+000
    endloop
  endfacet
  facet normal 0.000000e+000 0.000000e+000 -1.000000e+000
    outer loop
      vertex   4.400000e+001 -2.008000e+002 -2.825000e+000
      vertex   5.600000e+001 -1.784480e+002 -2.825000e+000
      vertex   5.600000e+001 -2.018160e+002 -2.825000e+000
    endloop
  endfacet
  facet normal 0.000000e+000 0.000000e+000 -1.000000e+000
    outer loop
      vertex   5.600000e+001 -2.150240e+002 -2.825000e+000
      vertex   5.600000e+001 -2.018160e+002 -2.825000e+000
      vertex   9.400000e+001 -2.018160e+002 -2.825000e+000
    endloop
  endfacet
  facet normal 0.000000e+000 0.000000e+000 -1.000000e+000
    outer loop
      vertex   9.400000e+001 -2.150240e+002 -2.825000e+000
      vertex   9.400000e+001 -2.018160e+002 -2.825000e+000
      vertex   1.060000e+002 -2.008000e+002 -2.825000e+000
    endloop
  endfacet
  facet normal 0.000000e+000 0.000000e+000 -1.000000e+000
    outer loop
      vertex   1.060000e+002 -2.516000e+002 -2.825000e+000
      vertex   9.400000e+001 -2.150240e+002 -2.825000e+000
      vertex   1.060000e+002 -2.008000e+002 -2.825000e+000
    endloop
  endfacet
  facet normal 0.000000e+000 0.000000e+000 -1.000000e+000
    outer loop
      vertex   1.060000e+002 -2.516000e+002 -2.825000e+000
      vertex   9.400000e+001 -2.404240e+002 -2.825000e+000
      vertex   9.400000e+001 -2.150240e+002 -2.825000e+000
    endloop
  endfacet
  facet normal 0.000000e+000 0.000000e+000 -1.000000e+000
    outer loop
      vertex   1.060000e+002 -2.516000e+002 -2.825000e+000
      vertex   4.400000e+001 -2.516000e+002 -2.825000e+000
      vertex   9.400000e+001 -2.404240e+002 -2.825000e+000
    endloop
  endfacet
  facet normal -0.000000e+000 0.000000e+000 -1.000000e+000
    outer loop
      vertex   1.060000e+002 -2.516000e+002 -2.825000e+000
      vertex   5.600000e+001 -2.536320e+002 -2.825000e+000
      vertex   4.400000e+001 -2.516000e+002 -2.825000e+000
    endloop
  endfacet
  facet normal -0.000000e+000 0.000000e+000 -1.000000e+000
    outer loop
      vertex   1.060000e+002 -2.516000e+002 -2.825000e+000
      vertex   9.400000e+001 -2.536320e+002 -2.825000e+000
      vertex   5.600000e+001 -2.536320e+002 -2.825000e+000
    endloop
  endfacet
  facet normal -0.000000e+000 -0.000000e+000 -1.000000e+000
    outer loop
      vertex   1.060000e+002 -2.516000e+002 -2.825000e+000
      vertex   1.060000e+002 -3.024000e+002 -2.825000e+000
      vertex   9.400000e+001 -2.536320e+002 -2.825000e+000
    endloop
  endfacet
  facet normal -0.000000e+000 -0.000000e+000 -1.000000e+000
    outer loop
      vertex   9.400000e+001 -2.536320e+002 -2.825000e+000
      vertex   1.060000e+002 -3.024000e+002 -2.825000e+000
      vertex   9.400000e+001 -3.024000e+002 -2.825000e+000
    endloop
  endfacet
  facet normal -1.029039e-009 0.000000e+000 -1.000000e+000
    outer loop
      vertex   5.600000e+001 -2.909600e+001 -2.825000e+000
      vertex   4.441547e+001 -7.613272e+000 -2.825000e+000
      vertex   5.600000e+001 -1.690400e+001 -2.825000e+000
    endloop
  endfacet
  facet normal -0.000000e+000 0.000000e+000 -1.000000e+000
    outer loop
      vertex   9.400000e+001 -1.690400e+001 -2.825000e+000
      vertex   5.600000e+001 -2.909600e+001 -2.825000e+000
      vertex   5.600000e+001 -1.690400e+001 -2.825000e+000
    endloop
  endfacet
  facet normal -0.000000e+000 -0.000000e+000 -1.000000e+000
    outer loop
      vertex   9.400000e+001 -1.690400e+001 -2.825000e+000
      vertex   9.400000e+001 -2.909600e+001 -2.825000e+000
      vertex   5.600000e+001 -2.909600e+001 -2.825000e+000
    endloop
  endfacet
  facet normal 1.010888e-009 0.000000e+000 -1.000000e+000
    outer loop
      vertex   9.400000e+001 -1.690400e+001 -2.825000e+000
      vertex   1.057925e+002 -7.613272e+000 -2.825000e+000
      vertex   9.400000e+001 -2.909600e+001 -2.825000e+000
    endloop
  endfacet
  facet normal 0.000000e+000 1.283100e-009 -1.000000e+000
    outer loop
      vertex   9.400000e+001 -1.690400e+001 -2.825000e+000
      vertex   9.441547e+001 -7.613272e+000 -2.825000e+000
      vertex   1.057925e+002 -7.613272e+000 -2.825000e+000
    endloop
  endfacet
  facet normal 2.869281e-008 0.000000e+000 -1.000000e+000
    outer loop
      vertex   9.400000e+001 -1.690400e+001 -2.825000e+000
      vertex   9.400000e+001 2.400000e+000 -2.825000e+000
      vertex   9.441547e+001 -7.613272e+000 -2.825000e+000
    endloop
  endfacet
  facet normal 2.869281e-008 0.000000e+000 -1.000000e+000
    outer loop
      vertex   9.441547e+001 -7.613272e+000 -2.825000e+000
      vertex   9.400000e+001 2.400000e+000 -2.825000e+000
      vertex   9.441547e+001 2.387702e+000 -2.825000e+000
    endloop
  endfacet
  facet normal 0.000000e+000 -9.693200e-007 -1.000000e+000
    outer loop
      vertex   9.441547e+001 2.387702e+000 -2.825000e+000
      vertex   9.400000e+001 2.400000e+000 -2.825000e+000
      vertex   1.060000e+002 2.400000e+000 -2.825000e+000
    endloop
  endfacet
  facet normal -5.746027e-008 0.000000e+000 -1.000000e+000
    outer loop
      vertex   1.057925e+002 2.387702e+000 -2.825000e+000
      vertex   1.060000e+002 2.400000e+000 -2.825000e+000
      vertex   1.057925e+002 -7.613272e+000 -2.825000e+000
    endloop
  endfacet
  facet normal -0.000000e+000 -9.693200e-007 -1.000000e+000
    outer loop
      vertex   1.057925e+002 2.387702e+000 -2.825000e+000
      vertex   9.441547e+001 2.387702e+000 -2.825000e+000
      vertex   1.060000e+002 2.400000e+000 -2.825000e+000
    endloop
  endfacet
  facet normal 0.000000e+000 0.000000e+000 -1.000000e+000
    outer loop
      vertex   5.600000e+001 -3.024000e+002 -2.825000e+000
      vertex   4.400000e+001 -3.024000e+002 -2.825000e+000
      vertex   5.600000e+001 -2.536320e+002 -2.825000e+000
    endloop
  endfacet
  facet normal -0.000000e+000 0.000000e+000 -1.000000e+000
    outer loop
      vertex   5.600000e+001 -2.536320e+002 -2.825000e+000
      vertex   4.400000e+001 -3.024000e+002 -2.825000e+000
      vertex   4.400000e+001 -2.516000e+002 -2.825000e+000
    endloop
  endfacet
  facet normal 0.000000e+000 -0.000000e+000 -1.000000e+000
    outer loop
      vertex   4.400000e+001 -2.008000e+002 -2.825000e+000
      vertex   5.600000e+001 -2.150240e+002 -2.825000e+000
      vertex   4.400000e+001 -2.516000e+002 -2.825000e+000
    endloop
  endfacet
  facet normal 0.000000e+000 0.000000e+000 -1.000000e+000
    outer loop
      vertex   4.400000e+001 -2.008000e+002 -2.825000e+000
      vertex   5.600000e+001 -2.018160e+002 -2.825000e+000
      vertex   5.600000e+001 -2.150240e+002 -2.825000e+000
    endloop
  endfacet
  facet normal 0.000000e+000 0.000000e+000 -1.000000e+000
    outer loop
      vertex   4.400000e+001 -2.008000e+002 -2.825000e+000
      vertex   4.400000e+001 -1.500000e+002 -2.825000e+000
      vertex   5.600000e+001 -1.784480e+002 -2.825000e+000
    endloop
  endfacet
  facet normal 0.000000e+000 0.000000e+000 -1.000000e+000
    outer loop
      vertex   4.400000e+001 -1.500000e+002 -2.825000e+000
      vertex   4.400000e+001 -9.920000e+001 -2.825000e+000
      vertex   5.600000e+001 -1.276480e+002 -2.825000e+000
    endloop
  endfacet
  facet normal 0.000000e+000 0.000000e+000 -1.000000e+000
    outer loop
      vertex   5.600000e+001 -1.276480e+002 -2.825000e+000
      vertex   4.400000e+001 -9.920000e+001 -2.825000e+000
      vertex   5.600000e+001 -1.042800e+002 -2.825000e+000
    endloop
  endfacet
  facet normal 0.000000e+000 -0.000000e+000 -1.000000e+000
    outer loop
      vertex   4.400000e+001 -4.840000e+001 -2.825000e+000
      vertex   5.600000e+001 -6.872000e+001 -2.825000e+000
      vertex   4.400000e+001 -9.920000e+001 -2.825000e+000
    endloop
  endfacet
  facet normal 0.000000e+000 0.000000e+000 -1.000000e+000
    outer loop
      vertex   4.400000e+001 -9.920000e+001 -2.825000e+000
      vertex   5.600000e+001 -6.872000e+001 -2.825000e+000
      vertex   5.600000e+001 -9.208800e+001 -2.825000e+000
    endloop
  endfacet
  facet normal -0.000000e+000 0.000000e+000 -1.000000e+000
    outer loop
      vertex   9.400000e+001 -9.208800e+001 -2.825000e+000
      vertex   4.400000e+001 -9.920000e+001 -2.825000e+000
      vertex   5.600000e+001 -9.208800e+001 -2.825000e+000
    endloop
  endfacet
  facet normal 2.869281e-008 0.000000e+000 -1.000000e+000
    outer loop
      vertex   4.400000e+001 -4.840000e+001 -2.825000e+000
      vertex   4.400000e+001 2.400000e+000 -2.825000e+000
      vertex   4.441547e+001 -7.613272e+000 -2.825000e+000
    endloop
  endfacet
  facet normal -5.746027e-008 -0.000000e+000 -1.000000e+000
    outer loop
      vertex   5.600000e+001 2.400000e+000 -2.825000e+000
      vertex   5.600000e+001 -1.690400e+001 -2.825000e+000
      vertex   5.579254e+001 -7.613272e+000 -2.825000e+000
    endloop
  endfacet
  facet normal 0.000000e+000 1.283100e-009 -1.000000e+000
    outer loop
      vertex   5.579254e+001 -7.613272e+000 -2.825000e+000
      vertex   5.600000e+001 -1.690400e+001 -2.825000e+000
      vertex   4.441547e+001 -7.613272e+000 -2.825000e+000
    endloop
  endfacet
  facet normal -5.746027e-008 -0.000000e+000 -1.000000e+000
    outer loop
      vertex   1.060000e+002 2.400000e+000 -2.825000e+000
      vertex   1.060000e+002 -4.840000e+001 -2.825000e+000
      vertex   1.057925e+002 -7.613272e+000 -2.825000e+000
    endloop
  endfacet
  facet normal 4.740518e-010 2.946862e-010 -1.000000e+000
    outer loop
      vertex   1.057925e+002 -7.613272e+000 -2.825000e+000
      vertex   1.060000e+002 -4.840000e+001 -2.825000e+000
      vertex   9.400000e+001 -2.909600e+001 -2.825000e+000
    endloop
  endfacet
  facet normal 0.000000e+000 -0.000000e+000 -1.000000e+000
    outer loop
      vertex   9.400000e+001 -2.909600e+001 -2.825000e+000
      vertex   1.060000e+002 -4.840000e+001 -2.825000e+000
      vertex   9.400000e+001 -5.551200e+001 -2.825000e+000
    endloop
  endfacet
  facet normal 0.000000e+000 0.000000e+000 -1.000000e+000
    outer loop
      vertex   1.060000e+002 -2.008000e+002 -2.825000e+000
      vertex   9.400000e+001 -1.784480e+002 -2.825000e+000
      vertex   1.060000e+002 -1.500000e+002 -2.825000e+000
    endloop
  endfacet
  facet normal -0.000000e+000 0.000000e+000 -1.000000e+000
    outer loop
      vertex   1.060000e+002 -2.008000e+002 -2.825000e+000
      vertex   9.400000e+001 -2.018160e+002 -2.825000e+000
      vertex   9.400000e+001 -1.784480e+002 -2.825000e+000
    endloop
  endfacet
  facet normal 0.000000e+000 -0.000000e+000 -1.000000e+000
    outer loop
      vertex   9.400000e+001 -1.398400e+002 -2.825000e+000
      vertex   1.060000e+002 -1.500000e+002 -2.825000e+000
      vertex   9.400000e+001 -1.662560e+002 -2.825000e+000
    endloop
  endfacet
  facet normal 0.000000e+000 -0.000000e+000 -1.000000e+000
    outer loop
      vertex   9.400000e+001 -1.662560e+002 -2.825000e+000
      vertex   1.060000e+002 -1.500000e+002 -2.825000e+000
      vertex   9.400000e+001 -1.784480e+002 -2.825000e+000
    endloop
  endfacet
  facet normal 0.000000e+000 0.000000e+000 -1.000000e+000
    outer loop
      vertex   5.600000e+001 -1.784480e+002 -2.825000e+000
      vertex   9.400000e+001 -1.662560e+002 -2.825000e+000
      vertex   9.400000e+001 -1.784480e+002 -2.825000e+000
    endloop
  endfacet
  facet normal 0.000000e+000 0.000000e+000 -1.000000e+000
    outer loop
      vertex   5.600000e+001 -1.784480e+002 -2.825000e+000
      vertex   5.600000e+001 -1.662560e+002 -2.825000e+000
      vertex   9.400000e+001 -1.662560e+002 -2.825000e+000
    endloop
  endfacet
  facet normal 0.000000e+000 0.000000e+000 -1.000000e+000
    outer loop
      vertex   9.400000e+001 -2.150240e+002 -2.825000e+000
      vertex   5.600000e+001 -2.150240e+002 -2.825000e+000
      vertex   9.400000e+001 -2.018160e+002 -2.825000e+000
    endloop
  endfacet
  facet normal 0.000000e+000 -0.000000e+000 -1.000000e+000
    outer loop
      vertex   5.600000e+001 -2.150240e+002 -2.825000e+000
      vertex   5.600000e+001 -2.404240e+002 -2.825000e+000
      vertex   4.400000e+001 -2.516000e+002 -2.825000e+000
    endloop
  endfacet
  facet normal 0.000000e+000 0.000000e+000 -1.000000e+000
    outer loop
      vertex   4.400000e+001 -2.516000e+002 -2.825000e+000
      vertex   5.600000e+001 -2.404240e+002 -2.825000e+000
      vertex   9.400000e+001 -2.404240e+002 -2.825000e+000
    endloop
  endfacet
endsolid
