solid ascii
  facet normal 0.000000e+000 -1.000000e+000 0.000000e+000
    outer loop
      vertex   2.110000e+002 -1.393906e+002 3.525000e+000
      vertex   2.110000e+002 -1.393906e+002 -2.825000e+000
      vertex   2.490000e+002 -1.393906e+002 3.525000e+000
    endloop
  endfacet
  facet normal 0.000000e+000 -1.000000e+000 -0.000000e+000
    outer loop
      vertex   2.490000e+002 -1.393906e+002 3.525000e+000
      vertex   2.110000e+002 -1.393906e+002 -2.825000e+000
      vertex   2.490000e+002 -1.393906e+002 -2.825000e+000
    endloop
  endfacet
  facet normal 0.000000e+000 -1.000000e+000 0.000000e+000
    outer loop
      vertex   2.110000e+002 -1.036430e+002 3.525000e+000
      vertex   2.110000e+002 -1.036430e+002 -2.825000e+000
      vertex   2.490000e+002 -1.036430e+002 3.525000e+000
    endloop
  endfacet
  facet normal 0.000000e+000 -1.000000e+000 -0.000000e+000
    outer loop
      vertex   2.490000e+002 -1.036430e+002 3.525000e+000
      vertex   2.110000e+002 -1.036430e+002 -2.825000e+000
      vertex   2.490000e+002 -1.036430e+002 -2.825000e+000
    endloop
  endfacet
  facet normal 1.000000e+000 -0.000000e+000 0.000000e+000
    outer loop
      vertex   2.110000e+002 -1.271343e+002 3.525000e+000
      vertex   2.110000e+002 -1.271343e+002 -2.825000e+000
      vertex   2.110000e+002 -1.036430e+002 3.525000e+000
    endloop
  endfacet
  facet normal 1.000000e+000 -0.000000e+000 0.000000e+000
    outer loop
      vertex   2.110000e+002 -1.036430e+002 3.525000e+000
      vertex   2.110000e+002 -1.271343e+002 -2.825000e+000
      vertex   2.110000e+002 -1.036430e+002 -2.825000e+000
    endloop
  endfacet
  facet normal 0.000000e+000 -1.000000e+000 0.000000e+000
    outer loop
      vertex   2.110000e+002 -6.789530e+001 3.525000e+000
      vertex   2.110000e+002 -6.789530e+001 -2.825000e+000
      vertex   2.490000e+002 -6.789530e+001 3.525000e+000
    endloop
  endfacet
  facet normal 0.000000e+000 -1.000000e+000 -0.000000e+000
    outer loop
      vertex   2.490000e+002 -6.789530e+001 3.525000e+000
      vertex   2.110000e+002 -6.789530e+001 -2.825000e+000
      vertex   2.490000e+002 -6.789530e+001 -2.825000e+000
    endloop
  endfacet
  facet normal 1.000000e+000 -0.000000e+000 0.000000e+000
    outer loop
      vertex   2.110000e+002 -9.138662e+001 3.525000e+000
      vertex   2.110000e+002 -9.138662e+001 -2.825000e+000
      vertex   2.110000e+002 -6.789530e+001 3.525000e+000
    endloop
  endfacet
  facet normal 1.000000e+000 -0.000000e+000 0.000000e+000
    outer loop
      vertex   2.110000e+002 -6.789530e+001 3.525000e+000
      vertex   2.110000e+002 -9.138662e+001 -2.825000e+000
      vertex   2.110000e+002 -6.789530e+001 -2.825000e+000
    endloop
  endfacet
  facet normal 0.000000e+000 -1.000000e+000 0.000000e+000
    outer loop
      vertex   2.110000e+002 -2.806221e+001 3.525000e+000
      vertex   2.110000e+002 -2.806221e+001 -2.825000e+000
      vertex   2.490000e+002 -2.806221e+001 3.525000e+000
    endloop
  endfacet
  facet normal 0.000000e+000 -1.000000e+000 -0.000000e+000
    outer loop
      vertex   2.490000e+002 -2.806221e+001 3.525000e+000
      vertex   2.110000e+002 -2.806221e+001 -2.825000e+000
      vertex   2.490000e+002 -2.806221e+001 -2.825000e+000
    endloop
  endfacet
  facet normal 1.000000e+000 -0.000000e+000 0.000000e+000
    outer loop
      vertex   2.110000e+002 -5.461760e+001 3.525000e+000
      vertex   2.110000e+002 -5.461760e+001 -2.825000e+000
      vertex   2.110000e+002 -2.806221e+001 3.525000e+000
    endloop
  endfacet
  facet normal 1.000000e+000 -0.000000e+000 0.000000e+000
    outer loop
      vertex   2.110000e+002 -2.806221e+001 3.525000e+000
      vertex   2.110000e+002 -5.461760e+001 -2.825000e+000
      vertex   2.110000e+002 -2.806221e+001 -2.825000e+000
    endloop
  endfacet
  facet normal 0.000000e+000 1.000000e+000 0.000000e+000
    outer loop
      vertex   2.610000e+002 3.600000e+000 3.525000e+000
      vertex   2.610000e+002 3.600000e+000 -2.825000e+000
      vertex   2.490000e+002 3.600000e+000 3.525000e+000
    endloop
  endfacet
  facet normal 0.000000e+000 1.000000e+000 0.000000e+000
    outer loop
      vertex   2.490000e+002 3.600000e+000 3.525000e+000
      vertex   2.610000e+002 3.600000e+000 -2.825000e+000
      vertex   2.490000e+002 3.600000e+000 -2.825000e+000
    endloop
  endfacet
  facet normal 0.000000e+000 1.000000e+000 0.000000e+000
    outer loop
      vertex   2.490000e+002 -2.405054e+002 3.525000e+000
      vertex   2.490000e+002 -2.405054e+002 -2.825000e+000
      vertex   2.110000e+002 -2.405054e+002 3.525000e+000
    endloop
  endfacet
  facet normal 0.000000e+000 1.000000e+000 0.000000e+000
    outer loop
      vertex   2.110000e+002 -2.405054e+002 3.525000e+000
      vertex   2.490000e+002 -2.405054e+002 -2.825000e+000
      vertex   2.110000e+002 -2.405054e+002 -2.825000e+000
    endloop
  endfacet
  facet normal 0.000000e+000 1.000000e+000 0.000000e+000
    outer loop
      vertex   2.490000e+002 -2.016937e+002 3.525000e+000
      vertex   2.490000e+002 -2.016937e+002 -2.825000e+000
      vertex   2.110000e+002 -2.016937e+002 3.525000e+000
    endloop
  endfacet
  facet normal 0.000000e+000 1.000000e+000 0.000000e+000
    outer loop
      vertex   2.110000e+002 -2.016937e+002 3.525000e+000
      vertex   2.490000e+002 -2.016937e+002 -2.825000e+000
      vertex   2.110000e+002 -2.016937e+002 -2.825000e+000
    endloop
  endfacet
  facet normal 0.000000e+000 1.000000e+000 0.000000e+000
    outer loop
      vertex   2.490000e+002 -1.659460e+002 3.525000e+000
      vertex   2.490000e+002 -1.659460e+002 -2.825000e+000
      vertex   2.110000e+002 -1.659460e+002 3.525000e+000
    endloop
  endfacet
  facet normal 0.000000e+000 1.000000e+000 0.000000e+000
    outer loop
      vertex   2.110000e+002 -1.659460e+002 3.525000e+000
      vertex   2.490000e+002 -1.659460e+002 -2.825000e+000
      vertex   2.110000e+002 -1.659460e+002 -2.825000e+000
    endloop
  endfacet
  facet normal 0.000000e+000 1.000000e+000 0.000000e+000
    outer loop
      vertex   2.490000e+002 -1.271343e+002 3.525000e+000
      vertex   2.490000e+002 -1.271343e+002 -2.825000e+000
      vertex   2.110000e+002 -1.271343e+002 3.525000e+000
    endloop
  endfacet
  facet normal 0.000000e+000 1.000000e+000 0.000000e+000
    outer loop
      vertex   2.110000e+002 -1.271343e+002 3.525000e+000
      vertex   2.490000e+002 -1.271343e+002 -2.825000e+000
      vertex   2.110000e+002 -1.271343e+002 -2.825000e+000
    endloop
  endfacet
  facet normal -1.000000e+000 -0.000000e+000 -0.000000e+000
    outer loop
      vertex   2.490000e+002 -1.036430e+002 3.525000e+000
      vertex   2.490000e+002 -1.036430e+002 -2.825000e+000
      vertex   2.490000e+002 -1.271343e+002 3.525000e+000
    endloop
  endfacet
  facet normal -1.000000e+000 -0.000000e+000 -0.000000e+000
    outer loop
      vertex   2.490000e+002 -1.271343e+002 3.525000e+000
      vertex   2.490000e+002 -1.036430e+002 -2.825000e+000
      vertex   2.490000e+002 -1.271343e+002 -2.825000e+000
    endloop
  endfacet
  facet normal 0.000000e+000 1.000000e+000 0.000000e+000
    outer loop
      vertex   2.490000e+002 -9.138662e+001 3.525000e+000
      vertex   2.490000e+002 -9.138662e+001 -2.825000e+000
      vertex   2.110000e+002 -9.138662e+001 3.525000e+000
    endloop
  endfacet
  facet normal 0.000000e+000 1.000000e+000 0.000000e+000
    outer loop
      vertex   2.110000e+002 -9.138662e+001 3.525000e+000
      vertex   2.490000e+002 -9.138662e+001 -2.825000e+000
      vertex   2.110000e+002 -9.138662e+001 -2.825000e+000
    endloop
  endfacet
  facet normal -1.000000e+000 -0.000000e+000 -0.000000e+000
    outer loop
      vertex   2.490000e+002 -6.789530e+001 3.525000e+000
      vertex   2.490000e+002 -6.789530e+001 -2.825000e+000
      vertex   2.490000e+002 -9.138662e+001 3.525000e+000
    endloop
  endfacet
  facet normal -1.000000e+000 -0.000000e+000 -0.000000e+000
    outer loop
      vertex   2.490000e+002 -9.138662e+001 3.525000e+000
      vertex   2.490000e+002 -6.789530e+001 -2.825000e+000
      vertex   2.490000e+002 -9.138662e+001 -2.825000e+000
    endloop
  endfacet
  facet normal 0.000000e+000 1.000000e+000 0.000000e+000
    outer loop
      vertex   2.490000e+002 -5.461760e+001 3.525000e+000
      vertex   2.490000e+002 -5.461760e+001 -2.825000e+000
      vertex   2.110000e+002 -5.461760e+001 3.525000e+000
    endloop
  endfacet
  facet normal 0.000000e+000 1.000000e+000 0.000000e+000
    outer loop
      vertex   2.110000e+002 -5.461760e+001 3.525000e+000
      vertex   2.490000e+002 -5.461760e+001 -2.825000e+000
      vertex   2.110000e+002 -5.461760e+001 -2.825000e+000
    endloop
  endfacet
  facet normal -1.000000e+000 -0.000000e+000 -0.000000e+000
    outer loop
      vertex   2.490000e+002 -2.806221e+001 3.525000e+000
      vertex   2.490000e+002 -2.806221e+001 -2.825000e+000
      vertex   2.490000e+002 -5.461760e+001 3.525000e+000
    endloop
  endfacet
  facet normal -1.000000e+000 -0.000000e+000 -0.000000e+000
    outer loop
      vertex   2.490000e+002 -5.461760e+001 3.525000e+000
      vertex   2.490000e+002 -2.806221e+001 -2.825000e+000
      vertex   2.490000e+002 -5.461760e+001 -2.825000e+000
    endloop
  endfacet
  facet normal 0.000000e+000 1.000000e+000 0.000000e+000
    outer loop
      vertex   2.110000e+002 3.600000e+000 3.525000e+000
      vertex   2.110000e+002 3.600000e+000 -2.825000e+000
      vertex   1.990000e+002 3.600000e+000 3.525000e+000
    endloop
  endfacet
  facet normal 0.000000e+000 1.000000e+000 0.000000e+000
    outer loop
      vertex   1.990000e+002 3.600000e+000 3.525000e+000
      vertex   2.110000e+002 3.600000e+000 -2.825000e+000
      vertex   1.990000e+002 3.600000e+000 -2.825000e+000
    endloop
  endfacet
  facet normal 1.000000e+000 -0.000000e+000 0.000000e+000
    outer loop
      vertex   2.110000e+002 -1.580587e+001 3.525000e+000
      vertex   2.110000e+002 -1.580587e+001 -2.825000e+000
      vertex   2.110000e+002 3.600000e+000 3.525000e+000
    endloop
  endfacet
  facet normal 1.000000e+000 -0.000000e+000 0.000000e+000
    outer loop
      vertex   2.110000e+002 3.600000e+000 3.525000e+000
      vertex   2.110000e+002 -1.580587e+001 -2.825000e+000
      vertex   2.110000e+002 3.600000e+000 -2.825000e+000
    endloop
  endfacet
  facet normal 0.000000e+000 1.000000e+000 0.000000e+000
    outer loop
      vertex   2.490000e+002 -1.580587e+001 3.525000e+000
      vertex   2.490000e+002 -1.580587e+001 -2.825000e+000
      vertex   2.110000e+002 -1.580587e+001 3.525000e+000
    endloop
  endfacet
  facet normal 0.000000e+000 1.000000e+000 0.000000e+000
    outer loop
      vertex   2.110000e+002 -1.580587e+001 3.525000e+000
      vertex   2.490000e+002 -1.580587e+001 -2.825000e+000
      vertex   2.110000e+002 -1.580587e+001 -2.825000e+000
    endloop
  endfacet
  facet normal -1.000000e+000 -0.000000e+000 -0.000000e+000
    outer loop
      vertex   2.490000e+002 3.600000e+000 3.525000e+000
      vertex   2.490000e+002 3.600000e+000 -2.825000e+000
      vertex   2.490000e+002 -1.580587e+001 3.525000e+000
    endloop
  endfacet
  facet normal -1.000000e+000 -0.000000e+000 -0.000000e+000
    outer loop
      vertex   2.490000e+002 -1.580587e+001 3.525000e+000
      vertex   2.490000e+002 3.600000e+000 -2.825000e+000
      vertex   2.490000e+002 -1.580587e+001 -2.825000e+000
    endloop
  endfacet
  facet normal 1.000000e+000 0.000000e+000 -0.000000e+000
    outer loop
      vertex   2.610000e+002 3.600000e+000 -2.825000e+000
      vertex   2.610000e+002 3.600000e+000 3.525000e+000
      vertex   2.610000e+002 -4.720000e+001 -2.825000e+000
    endloop
  endfacet
  facet normal 1.000000e+000 0.000000e+000 -0.000000e+000
    outer loop
      vertex   2.610000e+002 -4.720000e+001 -2.825000e+000
      vertex   2.610000e+002 3.600000e+000 3.525000e+000
      vertex   2.610000e+002 -4.720000e+001 3.525000e+000
    endloop
  endfacet
  facet normal 1.000000e+000 0.000000e+000 -0.000000e+000
    outer loop
      vertex   2.610000e+002 -9.800000e+001 -2.825000e+000
      vertex   2.610000e+002 -4.720000e+001 3.525000e+000
      vertex   2.610000e+002 -9.800000e+001 3.525000e+000
    endloop
  endfacet
  facet normal 1.000000e+000 0.000000e+000 -0.000000e+000
    outer loop
      vertex   2.610000e+002 -1.488000e+002 -2.825000e+000
      vertex   2.610000e+002 -9.800000e+001 3.525000e+000
      vertex   2.610000e+002 -1.488000e+002 3.525000e+000
    endloop
  endfacet
  facet normal 1.000000e+000 0.000000e+000 -0.000000e+000
    outer loop
      vertex   2.610000e+002 -1.996000e+002 -2.825000e+000
      vertex   2.610000e+002 -1.488000e+002 3.525000e+000
      vertex   2.610000e+002 -1.996000e+002 3.525000e+000
    endloop
  endfacet
  facet normal 1.000000e+000 0.000000e+000 -0.000000e+000
    outer loop
      vertex   2.610000e+002 -2.504000e+002 -2.825000e+000
      vertex   2.610000e+002 -1.996000e+002 3.525000e+000
      vertex   2.610000e+002 -2.504000e+002 3.525000e+000
    endloop
  endfacet
  facet normal 1.000000e+000 0.000000e+000 -0.000000e+000
    outer loop
      vertex   2.610000e+002 -3.012000e+002 -2.825000e+000
      vertex   2.610000e+002 -2.504000e+002 3.525000e+000
      vertex   2.610000e+002 -3.012000e+002 3.525000e+000
    endloop
  endfacet
  facet normal 1.000000e+000 0.000000e+000 -0.000000e+000
    outer loop
      vertex   2.610000e+002 -3.520000e+002 -2.825000e+000
      vertex   2.610000e+002 -3.012000e+002 3.525000e+000
      vertex   2.610000e+002 -3.520000e+002 3.525000e+000
    endloop
  endfacet
  facet normal 1.000000e+000 0.000000e+000 -0.000000e+000
    outer loop
      vertex   2.610000e+002 -4.028000e+002 -2.825000e+000
      vertex   2.610000e+002 -3.520000e+002 3.525000e+000
      vertex   2.610000e+002 -4.028000e+002 3.525000e+000
    endloop
  endfacet
  facet normal 1.000000e+000 0.000000e+000 -0.000000e+000
    outer loop
      vertex   2.610000e+002 -4.536000e+002 -2.825000e+000
      vertex   2.610000e+002 -4.028000e+002 3.525000e+000
      vertex   2.610000e+002 -4.536000e+002 3.525000e+000
    endloop
  endfacet
  facet normal 1.000000e+000 0.000000e+000 0.000000e+000
    outer loop
      vertex   2.610000e+002 -4.536000e+002 -2.825000e+000
      vertex   2.610000e+002 -4.028000e+002 -2.825000e+000
      vertex   2.610000e+002 -4.028000e+002 3.525000e+000
    endloop
  endfacet
  facet normal 1.000000e+000 0.000000e+000 0.000000e+000
    outer loop
      vertex   2.610000e+002 -4.720000e+001 -2.825000e+000
      vertex   2.610000e+002 -4.720000e+001 3.525000e+000
      vertex   2.610000e+002 -9.800000e+001 -2.825000e+000
    endloop
  endfacet
  facet normal 1.000000e+000 0.000000e+000 0.000000e+000
    outer loop
      vertex   2.610000e+002 -9.800000e+001 -2.825000e+000
      vertex   2.610000e+002 -9.800000e+001 3.525000e+000
      vertex   2.610000e+002 -1.488000e+002 -2.825000e+000
    endloop
  endfacet
  facet normal 1.000000e+000 0.000000e+000 0.000000e+000
    outer loop
      vertex   2.610000e+002 -1.488000e+002 -2.825000e+000
      vertex   2.610000e+002 -1.488000e+002 3.525000e+000
      vertex   2.610000e+002 -1.996000e+002 -2.825000e+000
    endloop
  endfacet
  facet normal 1.000000e+000 0.000000e+000 -0.000000e+000
    outer loop
      vertex   2.610000e+002 -1.996000e+002 -2.825000e+000
      vertex   2.610000e+002 -1.996000e+002 3.525000e+000
      vertex   2.610000e+002 -2.504000e+002 -2.825000e+000
    endloop
  endfacet
  facet normal 1.000000e+000 0.000000e+000 -0.000000e+000
    outer loop
      vertex   2.610000e+002 -2.504000e+002 -2.825000e+000
      vertex   2.610000e+002 -2.504000e+002 3.525000e+000
      vertex   2.610000e+002 -3.012000e+002 -2.825000e+000
    endloop
  endfacet
  facet normal 1.000000e+000 0.000000e+000 -0.000000e+000
    outer loop
      vertex   2.610000e+002 -3.012000e+002 -2.825000e+000
      vertex   2.610000e+002 -3.012000e+002 3.525000e+000
      vertex   2.610000e+002 -3.520000e+002 -2.825000e+000
    endloop
  endfacet
  facet normal 1.000000e+000 0.000000e+000 -0.000000e+000
    outer loop
      vertex   2.610000e+002 -3.520000e+002 -2.825000e+000
      vertex   2.610000e+002 -3.520000e+002 3.525000e+000
      vertex   2.610000e+002 -4.028000e+002 -2.825000e+000
    endloop
  endfacet
  facet normal 1.000000e+000 -0.000000e+000 0.000000e+000
    outer loop
      vertex   2.110000e+002 -3.167376e+002 3.525000e+000
      vertex   2.110000e+002 -3.167376e+002 -2.825000e+000
      vertex   2.110000e+002 -2.901822e+002 3.525000e+000
    endloop
  endfacet
  facet normal 1.000000e+000 -0.000000e+000 0.000000e+000
    outer loop
      vertex   2.110000e+002 -2.901822e+002 3.525000e+000
      vertex   2.110000e+002 -3.167376e+002 -2.825000e+000
      vertex   2.110000e+002 -2.901822e+002 -2.825000e+000
    endloop
  endfacet
  facet normal -1.000000e+000 0.000000e+000 0.000000e+000
    outer loop
      vertex   2.490000e+002 -1.659460e+002 -2.825000e+000
      vertex   2.490000e+002 -1.659460e+002 3.525000e+000
      vertex   2.490000e+002 -1.393906e+002 -2.825000e+000
    endloop
  endfacet
  facet normal -1.000000e+000 0.000000e+000 0.000000e+000
    outer loop
      vertex   2.490000e+002 -1.393906e+002 -2.825000e+000
      vertex   2.490000e+002 -1.659460e+002 3.525000e+000
      vertex   2.490000e+002 -1.393906e+002 3.525000e+000
    endloop
  endfacet
  facet normal 1.000000e+000 -0.000000e+000 0.000000e+000
    outer loop
      vertex   2.110000e+002 -2.405054e+002 3.525000e+000
      vertex   2.110000e+002 -2.405054e+002 -2.825000e+000
      vertex   2.110000e+002 -2.186869e+002 3.525000e+000
    endloop
  endfacet
  facet normal 1.000000e+000 -0.000000e+000 0.000000e+000
    outer loop
      vertex   2.110000e+002 -2.186869e+002 3.525000e+000
      vertex   2.110000e+002 -2.405054e+002 -2.825000e+000
      vertex   2.110000e+002 -2.186869e+002 -2.825000e+000
    endloop
  endfacet
  facet normal 1.000000e+000 -0.000000e+000 0.000000e+000
    outer loop
      vertex   2.110000e+002 -2.016937e+002 3.525000e+000
      vertex   2.110000e+002 -2.016937e+002 -2.825000e+000
      vertex   2.110000e+002 -1.788538e+002 3.525000e+000
    endloop
  endfacet
  facet normal 1.000000e+000 -0.000000e+000 0.000000e+000
    outer loop
      vertex   2.110000e+002 -1.788538e+002 3.525000e+000
      vertex   2.110000e+002 -2.016937e+002 -2.825000e+000
      vertex   2.110000e+002 -1.788538e+002 -2.825000e+000
    endloop
  endfacet
  facet normal 0.000000e+000 -0.000000e+000 1.000000e+000
    outer loop
      vertex   2.490000e+002 -1.659460e+002 3.525000e+000
      vertex   2.610000e+002 -1.488000e+002 3.525000e+000
      vertex   2.490000e+002 -1.393906e+002 3.525000e+000
    endloop
  endfacet
  facet normal -0.000000e+000 0.000000e+000 1.000000e+000
    outer loop
      vertex   2.490000e+002 -1.659460e+002 3.525000e+000
      vertex   2.490000e+002 -1.788538e+002 3.525000e+000
      vertex   2.610000e+002 -1.488000e+002 3.525000e+000
    endloop
  endfacet
  facet normal 0.000000e+000 0.000000e+000 1.000000e+000
    outer loop
      vertex   2.490000e+002 -1.659460e+002 3.525000e+000
      vertex   2.110000e+002 -1.659460e+002 3.525000e+000
      vertex   2.490000e+002 -1.788538e+002 3.525000e+000
    endloop
  endfacet
  facet normal 0.000000e+000 0.000000e+000 1.000000e+000
    outer loop
      vertex   2.490000e+002 -1.788538e+002 3.525000e+000
      vertex   2.110000e+002 -1.659460e+002 3.525000e+000
      vertex   2.110000e+002 -1.788538e+002 3.525000e+000
    endloop
  endfacet
  facet normal 0.000000e+000 -0.000000e+000 1.000000e+000
    outer loop
      vertex   2.110000e+002 -1.788538e+002 3.525000e+000
      vertex   2.110000e+002 -1.659460e+002 3.525000e+000
      vertex   1.990000e+002 -1.488000e+002 3.525000e+000
    endloop
  endfacet
  facet normal 0.000000e+000 -0.000000e+000 1.000000e+000
    outer loop
      vertex   1.990000e+002 -1.996000e+002 3.525000e+000
      vertex   2.110000e+002 -1.788538e+002 3.525000e+000
      vertex   1.990000e+002 -1.488000e+002 3.525000e+000
    endloop
  endfacet
  facet normal -0.000000e+000 0.000000e+000 1.000000e+000
    outer loop
      vertex   1.990000e+002 -1.996000e+002 3.525000e+000
      vertex   2.110000e+002 -2.016937e+002 3.525000e+000
      vertex   2.110000e+002 -1.788538e+002 3.525000e+000
    endloop
  endfacet
  facet normal -0.000000e+000 0.000000e+000 1.000000e+000
    outer loop
      vertex   1.990000e+002 -1.996000e+002 3.525000e+000
      vertex   2.110000e+002 -2.186869e+002 3.525000e+000
      vertex   2.110000e+002 -2.016937e+002 3.525000e+000
    endloop
  endfacet
  facet normal -0.000000e+000 0.000000e+000 1.000000e+000
    outer loop
      vertex   1.990000e+002 -1.996000e+002 3.525000e+000
      vertex   1.990000e+002 -2.504000e+002 3.525000e+000
      vertex   2.110000e+002 -2.186869e+002 3.525000e+000
    endloop
  endfacet
  facet normal -0.000000e+000 0.000000e+000 1.000000e+000
    outer loop
      vertex   2.110000e+002 -2.186869e+002 3.525000e+000
      vertex   1.990000e+002 -2.504000e+002 3.525000e+000
      vertex   2.110000e+002 -2.405054e+002 3.525000e+000
    endloop
  endfacet
  facet normal -0.000000e+000 0.000000e+000 1.000000e+000
    outer loop
      vertex   2.110000e+002 -2.405054e+002 3.525000e+000
      vertex   1.990000e+002 -2.504000e+002 3.525000e+000
      vertex   2.610000e+002 -2.504000e+002 3.525000e+000
    endloop
  endfacet
  facet normal -0.000000e+000 -0.000000e+000 1.000000e+000
    outer loop
      vertex   2.490000e+002 -2.405054e+002 3.525000e+000
      vertex   2.610000e+002 -2.504000e+002 3.525000e+000
      vertex   2.490000e+002 -2.186869e+002 3.525000e+000
    endloop
  endfacet
  facet normal 0.000000e+000 0.000000e+000 1.000000e+000
    outer loop
      vertex   2.490000e+002 -2.405054e+002 3.525000e+000
      vertex   2.110000e+002 -2.405054e+002 3.525000e+000
      vertex   2.610000e+002 -2.504000e+002 3.525000e+000
    endloop
  endfacet
  facet normal 0.000000e+000 -0.000000e+000 1.000000e+000
    outer loop
      vertex   2.110000e+002 -1.659460e+002 3.525000e+000
      vertex   2.110000e+002 -1.393906e+002 3.525000e+000
      vertex   1.990000e+002 -1.488000e+002 3.525000e+000
    endloop
  endfacet
  facet normal 0.000000e+000 0.000000e+000 1.000000e+000
    outer loop
      vertex   1.990000e+002 -1.488000e+002 3.525000e+000
      vertex   2.110000e+002 -1.393906e+002 3.525000e+000
      vertex   2.110000e+002 -1.271343e+002 3.525000e+000
    endloop
  endfacet
  facet normal -0.000000e+000 0.000000e+000 1.000000e+000
    outer loop
      vertex   1.990000e+002 -9.800000e+001 3.525000e+000
      vertex   2.110000e+002 -1.271343e+002 3.525000e+000
      vertex   2.110000e+002 -1.036430e+002 3.525000e+000
    endloop
  endfacet
  facet normal 0.000000e+000 0.000000e+000 1.000000e+000
    outer loop
      vertex   2.490000e+002 -1.036430e+002 3.525000e+000
      vertex   1.990000e+002 -9.800000e+001 3.525000e+000
      vertex   2.110000e+002 -1.036430e+002 3.525000e+000
    endloop
  endfacet
  facet normal 0.000000e+000 -0.000000e+000 1.000000e+000
    outer loop
      vertex   2.490000e+002 -1.036430e+002 3.525000e+000
      vertex   2.610000e+002 -9.800000e+001 3.525000e+000
      vertex   1.990000e+002 -9.800000e+001 3.525000e+000
    endloop
  endfacet
  facet normal -0.000000e+000 0.000000e+000 1.000000e+000
    outer loop
      vertex   2.490000e+002 -1.036430e+002 3.525000e+000
      vertex   2.490000e+002 -1.271343e+002 3.525000e+000
      vertex   2.610000e+002 -9.800000e+001 3.525000e+000
    endloop
  endfacet
  facet normal 0.000000e+000 0.000000e+000 1.000000e+000
    outer loop
      vertex   2.610000e+002 -9.800000e+001 3.525000e+000
      vertex   2.490000e+002 -1.271343e+002 3.525000e+000
      vertex   2.610000e+002 -1.488000e+002 3.525000e+000
    endloop
  endfacet
  facet normal 0.000000e+000 0.000000e+000 1.000000e+000
    outer loop
      vertex   2.610000e+002 -1.488000e+002 3.525000e+000
      vertex   2.490000e+002 -1.271343e+002 3.525000e+000
      vertex   2.490000e+002 -1.393906e+002 3.525000e+000
    endloop
  endfacet
  facet normal 0.000000e+000 -0.000000e+000 1.000000e+000
    outer loop
      vertex   2.490000e+002 -1.393906e+002 3.525000e+000
      vertex   2.490000e+002 -1.271343e+002 3.525000e+000
      vertex   2.110000e+002 -1.271343e+002 3.525000e+000
    endloop
  endfacet
  facet normal 0.000000e+000 -0.000000e+000 1.000000e+000
    outer loop
      vertex   2.110000e+002 -1.393906e+002 3.525000e+000
      vertex   2.490000e+002 -1.393906e+002 3.525000e+000
      vertex   2.110000e+002 -1.271343e+002 3.525000e+000
    endloop
  endfacet
  facet normal 0.000000e+000 -0.000000e+000 1.000000e+000
    outer loop
      vertex   1.990000e+002 -1.488000e+002 3.525000e+000
      vertex   2.110000e+002 -1.271343e+002 3.525000e+000
      vertex   1.990000e+002 -9.800000e+001 3.525000e+000
    endloop
  endfacet
  facet normal -0.000000e+000 -0.000000e+000 1.000000e+000
    outer loop
      vertex   2.490000e+002 -9.138662e+001 3.525000e+000
      vertex   2.610000e+002 -9.800000e+001 3.525000e+000
      vertex   2.490000e+002 -6.789530e+001 3.525000e+000
    endloop
  endfacet
  facet normal 0.000000e+000 0.000000e+000 1.000000e+000
    outer loop
      vertex   2.490000e+002 -9.138662e+001 3.525000e+000
      vertex   2.110000e+002 -9.138662e+001 3.525000e+000
      vertex   2.610000e+002 -9.800000e+001 3.525000e+000
    endloop
  endfacet
  facet normal 0.000000e+000 0.000000e+000 1.000000e+000
    outer loop
      vertex   2.610000e+002 -9.800000e+001 3.525000e+000
      vertex   2.110000e+002 -9.138662e+001 3.525000e+000
      vertex   1.990000e+002 -9.800000e+001 3.525000e+000
    endloop
  endfacet
  facet normal 0.000000e+000 0.000000e+000 1.000000e+000
    outer loop
      vertex   1.990000e+002 -9.800000e+001 3.525000e+000
      vertex   2.110000e+002 -9.138662e+001 3.525000e+000
      vertex   2.110000e+002 -6.789530e+001 3.525000e+000
    endloop
  endfacet
  facet normal -0.000000e+000 0.000000e+000 1.000000e+000
    outer loop
      vertex   1.990000e+002 -4.720000e+001 3.525000e+000
      vertex   2.110000e+002 -6.789530e+001 3.525000e+000
      vertex   2.110000e+002 -5.461760e+001 3.525000e+000
    endloop
  endfacet
  facet normal 0.000000e+000 0.000000e+000 1.000000e+000
    outer loop
      vertex   2.110000e+002 -2.806221e+001 3.525000e+000
      vertex   1.990000e+002 -4.720000e+001 3.525000e+000
      vertex   2.110000e+002 -5.461760e+001 3.525000e+000
    endloop
  endfacet
  facet normal 0.000000e+000 -0.000000e+000 1.000000e+000
    outer loop
      vertex   2.110000e+002 -2.806221e+001 3.525000e+000
      vertex   2.110000e+002 -1.580587e+001 3.525000e+000
      vertex   1.990000e+002 -4.720000e+001 3.525000e+000
    endloop
  endfacet
  facet normal 0.000000e+000 -0.000000e+000 1.000000e+000
    outer loop
      vertex   2.110000e+002 -2.806221e+001 3.525000e+000
      vertex   2.490000e+002 -2.806221e+001 3.525000e+000
      vertex   2.110000e+002 -1.580587e+001 3.525000e+000
    endloop
  endfacet
  facet normal -0.000000e+000 0.000000e+000 1.000000e+000
    outer loop
      vertex   2.110000e+002 -1.580587e+001 3.525000e+000
      vertex   2.490000e+002 -2.806221e+001 3.525000e+000
      vertex   2.490000e+002 -1.580587e+001 3.525000e+000
    endloop
  endfacet
  facet normal 0.000000e+000 0.000000e+000 1.000000e+000
    outer loop
      vertex   2.490000e+002 -1.580587e+001 3.525000e+000
      vertex   2.490000e+002 -2.806221e+001 3.525000e+000
      vertex   2.610000e+002 -4.720000e+001 3.525000e+000
    endloop
  endfacet
  facet normal 0.000000e+000 0.000000e+000 1.000000e+000
    outer loop
      vertex   2.610000e+002 3.600000e+000 3.525000e+000
      vertex   2.490000e+002 -1.580587e+001 3.525000e+000
      vertex   2.610000e+002 -4.720000e+001 3.525000e+000
    endloop
  endfacet
  facet normal 0.000000e+000 0.000000e+000 1.000000e+000
    outer loop
      vertex   2.610000e+002 3.600000e+000 3.525000e+000
      vertex   2.490000e+002 3.600000e+000 3.525000e+000
      vertex   2.490000e+002 -1.580587e+001 3.525000e+000
    endloop
  endfacet
  facet normal 0.000000e+000 -0.000000e+000 1.000000e+000
    outer loop
      vertex   2.110000e+002 -6.789530e+001 3.525000e+000
      vertex   2.490000e+002 -6.789530e+001 3.525000e+000
      vertex   2.110000e+002 -5.461760e+001 3.525000e+000
    endloop
  endfacet
  facet normal -0.000000e+000 0.000000e+000 1.000000e+000
    outer loop
      vertex   2.110000e+002 -5.461760e+001 3.525000e+000
      vertex   2.490000e+002 -6.789530e+001 3.525000e+000
      vertex   2.490000e+002 -5.461760e+001 3.525000e+000
    endloop
  endfacet
  facet normal -0.000000e+000 0.000000e+000 1.000000e+000
    outer loop
      vertex   2.490000e+002 -5.461760e+001 3.525000e+000
      vertex   2.490000e+002 -6.789530e+001 3.525000e+000
      vertex   2.610000e+002 -4.720000e+001 3.525000e+000
    endloop
  endfacet
  facet normal -0.000000e+000 0.000000e+000 1.000000e+000
    outer loop
      vertex   2.490000e+002 -2.806221e+001 3.525000e+000
      vertex   2.490000e+002 -5.461760e+001 3.525000e+000
      vertex   2.610000e+002 -4.720000e+001 3.525000e+000
    endloop
  endfacet
  facet normal -0.000000e+000 0.000000e+000 1.000000e+000
    outer loop
      vertex   2.110000e+002 -2.779258e+002 3.525000e+000
      vertex   2.490000e+002 -2.901822e+002 3.525000e+000
      vertex   2.490000e+002 -2.779258e+002 3.525000e+000
    endloop
  endfacet
  facet normal -0.000000e+000 0.000000e+000 1.000000e+000
    outer loop
      vertex   2.110000e+002 -2.779258e+002 3.525000e+000
      vertex   2.110000e+002 -2.901822e+002 3.525000e+000
      vertex   2.490000e+002 -2.901822e+002 3.525000e+000
    endloop
  endfacet
  facet normal -0.000000e+000 0.000000e+000 1.000000e+000
    outer loop
      vertex   2.110000e+002 -2.779258e+002 3.525000e+000
      vertex   1.990000e+002 -3.012000e+002 3.525000e+000
      vertex   2.110000e+002 -2.901822e+002 3.525000e+000
    endloop
  endfacet
  facet normal 0.000000e+000 0.000000e+000 1.000000e+000
    outer loop
      vertex   2.110000e+002 -2.779258e+002 3.525000e+000
      vertex   1.990000e+002 -2.504000e+002 3.525000e+000
      vertex   1.990000e+002 -3.012000e+002 3.525000e+000
    endloop
  endfacet
  facet normal 0.000000e+000 -0.000000e+000 1.000000e+000
    outer loop
      vertex   2.110000e+002 -2.779258e+002 3.525000e+000
      vertex   2.110000e+002 -2.544345e+002 3.525000e+000
      vertex   1.990000e+002 -2.504000e+002 3.525000e+000
    endloop
  endfacet
  facet normal -0.000000e+000 0.000000e+000 1.000000e+000
    outer loop
      vertex   1.990000e+002 -2.504000e+002 3.525000e+000
      vertex   2.110000e+002 -2.544345e+002 3.525000e+000
      vertex   2.490000e+002 -2.544345e+002 3.525000e+000
    endloop
  endfacet
  facet normal 0.000000e+000 0.000000e+000 1.000000e+000
    outer loop
      vertex   2.610000e+002 -2.504000e+002 3.525000e+000
      vertex   2.490000e+002 -2.544345e+002 3.525000e+000
      vertex   2.490000e+002 -2.779258e+002 3.525000e+000
    endloop
  endfacet
  facet normal 0.000000e+000 0.000000e+000 1.000000e+000
    outer loop
      vertex   2.610000e+002 -3.012000e+002 3.525000e+000
      vertex   2.490000e+002 -2.779258e+002 3.525000e+000
      vertex   2.490000e+002 -2.901822e+002 3.525000e+000
    endloop
  endfacet
  facet normal 0.000000e+000 -0.000000e+000 1.000000e+000
    outer loop
      vertex   2.490000e+002 -3.167376e+002 3.525000e+000
      vertex   2.610000e+002 -3.012000e+002 3.525000e+000
      vertex   2.490000e+002 -2.901822e+002 3.525000e+000
    endloop
  endfacet
  facet normal -0.000000e+000 0.000000e+000 1.000000e+000
    outer loop
      vertex   2.490000e+002 -3.167376e+002 3.525000e+000
      vertex   2.490000e+002 -3.289939e+002 3.525000e+000
      vertex   2.610000e+002 -3.012000e+002 3.525000e+000
    endloop
  endfacet
  facet normal 0.000000e+000 0.000000e+000 1.000000e+000
    outer loop
      vertex   2.490000e+002 -3.167376e+002 3.525000e+000
      vertex   2.110000e+002 -3.167376e+002 3.525000e+000
      vertex   2.490000e+002 -3.289939e+002 3.525000e+000
    endloop
  endfacet
  facet normal 0.000000e+000 0.000000e+000 1.000000e+000
    outer loop
      vertex   2.490000e+002 -3.289939e+002 3.525000e+000
      vertex   2.110000e+002 -3.167376e+002 3.525000e+000
      vertex   2.110000e+002 -3.289939e+002 3.525000e+000
    endloop
  endfacet
  facet normal 0.000000e+000 -0.000000e+000 1.000000e+000
    outer loop
      vertex   2.110000e+002 -3.289939e+002 3.525000e+000
      vertex   2.110000e+002 -3.167376e+002 3.525000e+000
      vertex   1.990000e+002 -3.012000e+002 3.525000e+000
    endloop
  endfacet
  facet normal 0.000000e+000 -0.000000e+000 1.000000e+000
    outer loop
      vertex   1.990000e+002 -3.520000e+002 3.525000e+000
      vertex   2.110000e+002 -3.289939e+002 3.525000e+000
      vertex   1.990000e+002 -3.012000e+002 3.525000e+000
    endloop
  endfacet
  facet normal -0.000000e+000 0.000000e+000 1.000000e+000
    outer loop
      vertex   1.990000e+002 -3.520000e+002 3.525000e+000
      vertex   2.110000e+002 -3.524852e+002 3.525000e+000
      vertex   2.110000e+002 -3.289939e+002 3.525000e+000
    endloop
  endfacet
  facet normal -0.000000e+000 0.000000e+000 1.000000e+000
    outer loop
      vertex   1.990000e+002 -3.520000e+002 3.525000e+000
      vertex   2.110000e+002 -3.657629e+002 3.525000e+000
      vertex   2.110000e+002 -3.524852e+002 3.525000e+000
    endloop
  endfacet
  facet normal -0.000000e+000 0.000000e+000 1.000000e+000
    outer loop
      vertex   1.990000e+002 -3.520000e+002 3.525000e+000
      vertex   1.990000e+002 -4.028000e+002 3.525000e+000
      vertex   2.110000e+002 -3.657629e+002 3.525000e+000
    endloop
  endfacet
  facet normal -0.000000e+000 0.000000e+000 1.000000e+000
    outer loop
      vertex   2.110000e+002 -3.657629e+002 3.525000e+000
      vertex   1.990000e+002 -4.028000e+002 3.525000e+000
      vertex   2.110000e+002 -3.912969e+002 3.525000e+000
    endloop
  endfacet
  facet normal -0.000000e+000 0.000000e+000 1.000000e+000
    outer loop
      vertex   2.110000e+002 -3.912969e+002 3.525000e+000
      vertex   1.990000e+002 -4.028000e+002 3.525000e+000
      vertex   2.610000e+002 -4.028000e+002 3.525000e+000
    endloop
  endfacet
  facet normal -0.000000e+000 -0.000000e+000 1.000000e+000
    outer loop
      vertex   2.490000e+002 -3.912969e+002 3.525000e+000
      vertex   2.610000e+002 -4.028000e+002 3.525000e+000
      vertex   2.490000e+002 -3.657629e+002 3.525000e+000
    endloop
  endfacet
  facet normal 0.000000e+000 0.000000e+000 1.000000e+000
    outer loop
      vertex   2.490000e+002 -3.912969e+002 3.525000e+000
      vertex   2.110000e+002 -3.912969e+002 3.525000e+000
      vertex   2.610000e+002 -4.028000e+002 3.525000e+000
    endloop
  endfacet
  facet normal -0.000000e+000 0.000000e+000 1.000000e+000
    outer loop
      vertex   1.990000e+002 -2.504000e+002 3.525000e+000
      vertex   2.490000e+002 -2.544345e+002 3.525000e+000
      vertex   2.610000e+002 -2.504000e+002 3.525000e+000
    endloop
  endfacet
  facet normal 0.000000e+000 -0.000000e+000 1.000000e+000
    outer loop
      vertex   2.490000e+002 -4.536000e+002 3.525000e+000
      vertex   2.610000e+002 -4.536000e+002 3.525000e+000
      vertex   2.490000e+002 -4.045746e+002 3.525000e+000
    endloop
  endfacet
  facet normal -0.000000e+000 0.000000e+000 1.000000e+000
    outer loop
      vertex   2.490000e+002 -4.045746e+002 3.525000e+000
      vertex   2.610000e+002 -4.536000e+002 3.525000e+000
      vertex   2.610000e+002 -4.028000e+002 3.525000e+000
    endloop
  endfacet
  facet normal -0.000000e+000 0.000000e+000 1.000000e+000
    outer loop
      vertex   1.990000e+002 -4.028000e+002 3.525000e+000
      vertex   2.490000e+002 -4.045746e+002 3.525000e+000
      vertex   2.610000e+002 -4.028000e+002 3.525000e+000
    endloop
  endfacet
  facet normal -0.000000e+000 0.000000e+000 1.000000e+000
    outer loop
      vertex   1.990000e+002 -4.028000e+002 3.525000e+000
      vertex   2.110000e+002 -4.045746e+002 3.525000e+000
      vertex   2.490000e+002 -4.045746e+002 3.525000e+000
    endloop
  endfacet
  facet normal -0.000000e+000 0.000000e+000 1.000000e+000
    outer loop
      vertex   1.990000e+002 -4.028000e+002 3.525000e+000
      vertex   1.990000e+002 -4.536000e+002 3.525000e+000
      vertex   2.110000e+002 -4.045746e+002 3.525000e+000
    endloop
  endfacet
  facet normal -0.000000e+000 0.000000e+000 1.000000e+000
    outer loop
      vertex   2.110000e+002 -4.045746e+002 3.525000e+000
      vertex   1.990000e+002 -4.536000e+002 3.525000e+000
      vertex   2.110000e+002 -4.536000e+002 3.525000e+000
    endloop
  endfacet
  facet normal 0.000000e+000 -0.000000e+000 1.000000e+000
    outer loop
      vertex   2.610000e+002 -4.028000e+002 3.525000e+000
      vertex   2.610000e+002 -3.520000e+002 3.525000e+000
      vertex   2.490000e+002 -3.657629e+002 3.525000e+000
    endloop
  endfacet
  facet normal 0.000000e+000 -0.000000e+000 1.000000e+000
    outer loop
      vertex   2.490000e+002 -3.657629e+002 3.525000e+000
      vertex   2.610000e+002 -3.520000e+002 3.525000e+000
      vertex   2.490000e+002 -3.524852e+002 3.525000e+000
    endloop
  endfacet
  facet normal -0.000000e+000 0.000000e+000 1.000000e+000
    outer loop
      vertex   2.110000e+002 -3.524852e+002 3.525000e+000
      vertex   2.490000e+002 -3.657629e+002 3.525000e+000
      vertex   2.490000e+002 -3.524852e+002 3.525000e+000
    endloop
  endfacet
  facet normal -0.000000e+000 0.000000e+000 1.000000e+000
    outer loop
      vertex   2.110000e+002 -3.524852e+002 3.525000e+000
      vertex   2.110000e+002 -3.657629e+002 3.525000e+000
      vertex   2.490000e+002 -3.657629e+002 3.525000e+000
    endloop
  endfacet
  facet normal 0.000000e+000 -0.000000e+000 1.000000e+000
    outer loop
      vertex   2.490000e+002 -3.524852e+002 3.525000e+000
      vertex   2.610000e+002 -3.520000e+002 3.525000e+000
      vertex   2.490000e+002 -3.289939e+002 3.525000e+000
    endloop
  endfacet
  facet normal -0.000000e+000 0.000000e+000 1.000000e+000
    outer loop
      vertex   2.490000e+002 -3.289939e+002 3.525000e+000
      vertex   2.610000e+002 -3.520000e+002 3.525000e+000
      vertex   2.610000e+002 -3.012000e+002 3.525000e+000
    endloop
  endfacet
  facet normal 0.000000e+000 -0.000000e+000 1.000000e+000
    outer loop
      vertex   2.610000e+002 -3.012000e+002 3.525000e+000
      vertex   2.610000e+002 -2.504000e+002 3.525000e+000
      vertex   2.490000e+002 -2.779258e+002 3.525000e+000
    endloop
  endfacet
  facet normal 0.000000e+000 -0.000000e+000 1.000000e+000
    outer loop
      vertex   2.610000e+002 -2.504000e+002 3.525000e+000
      vertex   2.610000e+002 -1.996000e+002 3.525000e+000
      vertex   2.490000e+002 -2.186869e+002 3.525000e+000
    endloop
  endfacet
  facet normal 0.000000e+000 -0.000000e+000 1.000000e+000
    outer loop
      vertex   2.490000e+002 -2.186869e+002 3.525000e+000
      vertex   2.610000e+002 -1.996000e+002 3.525000e+000
      vertex   2.490000e+002 -2.016937e+002 3.525000e+000
    endloop
  endfacet
  facet normal -0.000000e+000 0.000000e+000 1.000000e+000
    outer loop
      vertex   2.110000e+002 -2.016937e+002 3.525000e+000
      vertex   2.490000e+002 -2.186869e+002 3.525000e+000
      vertex   2.490000e+002 -2.016937e+002 3.525000e+000
    endloop
  endfacet
  facet normal -0.000000e+000 0.000000e+000 1.000000e+000
    outer loop
      vertex   2.110000e+002 -2.016937e+002 3.525000e+000
      vertex   2.110000e+002 -2.186869e+002 3.525000e+000
      vertex   2.490000e+002 -2.186869e+002 3.525000e+000
    endloop
  endfacet
  facet normal 0.000000e+000 -0.000000e+000 1.000000e+000
    outer loop
      vertex   2.490000e+002 -2.016937e+002 3.525000e+000
      vertex   2.610000e+002 -1.996000e+002 3.525000e+000
      vertex   2.490000e+002 -1.788538e+002 3.525000e+000
    endloop
  endfacet
  facet normal -0.000000e+000 0.000000e+000 1.000000e+000
    outer loop
      vertex   2.490000e+002 -1.788538e+002 3.525000e+000
      vertex   2.610000e+002 -1.996000e+002 3.525000e+000
      vertex   2.610000e+002 -1.488000e+002 3.525000e+000
    endloop
  endfacet
  facet normal 0.000000e+000 -0.000000e+000 1.000000e+000
    outer loop
      vertex   2.610000e+002 -9.800000e+001 3.525000e+000
      vertex   2.610000e+002 -4.720000e+001 3.525000e+000
      vertex   2.490000e+002 -6.789530e+001 3.525000e+000
    endloop
  endfacet
  facet normal 0.000000e+000 0.000000e+000 1.000000e+000
    outer loop
      vertex   2.110000e+002 3.600000e+000 3.525000e+000
      vertex   1.990000e+002 3.600000e+000 3.525000e+000
      vertex   2.110000e+002 -1.580587e+001 3.525000e+000
    endloop
  endfacet
  facet normal 0.000000e+000 0.000000e+000 1.000000e+000
    outer loop
      vertex   2.110000e+002 -1.580587e+001 3.525000e+000
      vertex   1.990000e+002 3.600000e+000 3.525000e+000
      vertex   1.990000e+002 -4.720000e+001 3.525000e+000
    endloop
  endfacet
  facet normal -0.000000e+000 0.000000e+000 1.000000e+000
    outer loop
      vertex   1.990000e+002 -4.720000e+001 3.525000e+000
      vertex   1.990000e+002 -9.800000e+001 3.525000e+000
      vertex   2.110000e+002 -6.789530e+001 3.525000e+000
    endloop
  endfacet
  facet normal 0.000000e+000 -0.000000e+000 1.000000e+000
    outer loop
      vertex   2.110000e+002 -3.167376e+002 3.525000e+000
      vertex   2.110000e+002 -2.901822e+002 3.525000e+000
      vertex   1.990000e+002 -3.012000e+002 3.525000e+000
    endloop
  endfacet
  facet normal 0.000000e+000 -1.000000e+000 0.000000e+000
    outer loop
      vertex   2.110000e+002 -3.657629e+002 3.525000e+000
      vertex   2.110000e+002 -3.657629e+002 -2.825000e+000
      vertex   2.490000e+002 -3.657629e+002 3.525000e+000
    endloop
  endfacet
  facet normal 0.000000e+000 -1.000000e+000 -0.000000e+000
    outer loop
      vertex   2.490000e+002 -3.657629e+002 3.525000e+000
      vertex   2.110000e+002 -3.657629e+002 -2.825000e+000
      vertex   2.490000e+002 -3.657629e+002 -2.825000e+000
    endloop
  endfacet
  facet normal 1.000000e+000 -0.000000e+000 0.000000e+000
    outer loop
      vertex   2.110000e+002 -3.912969e+002 3.525000e+000
      vertex   2.110000e+002 -3.912969e+002 -2.825000e+000
      vertex   2.110000e+002 -3.657629e+002 3.525000e+000
    endloop
  endfacet
  facet normal 1.000000e+000 -0.000000e+000 0.000000e+000
    outer loop
      vertex   2.110000e+002 -3.657629e+002 3.525000e+000
      vertex   2.110000e+002 -3.912969e+002 -2.825000e+000
      vertex   2.110000e+002 -3.657629e+002 -2.825000e+000
    endloop
  endfacet
  facet normal 0.000000e+000 -1.000000e+000 0.000000e+000
    outer loop
      vertex   2.110000e+002 -3.289939e+002 3.525000e+000
      vertex   2.110000e+002 -3.289939e+002 -2.825000e+000
      vertex   2.490000e+002 -3.289939e+002 3.525000e+000
    endloop
  endfacet
  facet normal 0.000000e+000 -1.000000e+000 -0.000000e+000
    outer loop
      vertex   2.490000e+002 -3.289939e+002 3.525000e+000
      vertex   2.110000e+002 -3.289939e+002 -2.825000e+000
      vertex   2.490000e+002 -3.289939e+002 -2.825000e+000
    endloop
  endfacet
  facet normal 1.000000e+000 -0.000000e+000 0.000000e+000
    outer loop
      vertex   2.110000e+002 -3.524852e+002 3.525000e+000
      vertex   2.110000e+002 -3.524852e+002 -2.825000e+000
      vertex   2.110000e+002 -3.289939e+002 3.525000e+000
    endloop
  endfacet
  facet normal 1.000000e+000 -0.000000e+000 0.000000e+000
    outer loop
      vertex   2.110000e+002 -3.289939e+002 3.525000e+000
      vertex   2.110000e+002 -3.524852e+002 -2.825000e+000
      vertex   2.110000e+002 -3.289939e+002 -2.825000e+000
    endloop
  endfacet
  facet normal 0.000000e+000 -1.000000e+000 0.000000e+000
    outer loop
      vertex   2.110000e+002 -2.901822e+002 3.525000e+000
      vertex   2.110000e+002 -2.901822e+002 -2.825000e+000
      vertex   2.490000e+002 -2.901822e+002 3.525000e+000
    endloop
  endfacet
  facet normal 0.000000e+000 -1.000000e+000 -0.000000e+000
    outer loop
      vertex   2.490000e+002 -2.901822e+002 3.525000e+000
      vertex   2.110000e+002 -2.901822e+002 -2.825000e+000
      vertex   2.490000e+002 -2.901822e+002 -2.825000e+000
    endloop
  endfacet
  facet normal 0.000000e+000 -1.000000e+000 0.000000e+000
    outer loop
      vertex   2.110000e+002 -2.544345e+002 3.525000e+000
      vertex   2.110000e+002 -2.544345e+002 -2.825000e+000
      vertex   2.490000e+002 -2.544345e+002 3.525000e+000
    endloop
  endfacet
  facet normal 0.000000e+000 -1.000000e+000 -0.000000e+000
    outer loop
      vertex   2.490000e+002 -2.544345e+002 3.525000e+000
      vertex   2.110000e+002 -2.544345e+002 -2.825000e+000
      vertex   2.490000e+002 -2.544345e+002 -2.825000e+000
    endloop
  endfacet
  facet normal 1.000000e+000 -0.000000e+000 0.000000e+000
    outer loop
      vertex   2.110000e+002 -2.779258e+002 3.525000e+000
      vertex   2.110000e+002 -2.779258e+002 -2.825000e+000
      vertex   2.110000e+002 -2.544345e+002 3.525000e+000
    endloop
  endfacet
  facet normal 1.000000e+000 -0.000000e+000 0.000000e+000
    outer loop
      vertex   2.110000e+002 -2.544345e+002 3.525000e+000
      vertex   2.110000e+002 -2.779258e+002 -2.825000e+000
      vertex   2.110000e+002 -2.544345e+002 -2.825000e+000
    endloop
  endfacet
  facet normal 0.000000e+000 -1.000000e+000 0.000000e+000
    outer loop
      vertex   2.110000e+002 -2.186869e+002 3.525000e+000
      vertex   2.110000e+002 -2.186869e+002 -2.825000e+000
      vertex   2.490000e+002 -2.186869e+002 3.525000e+000
    endloop
  endfacet
  facet normal 0.000000e+000 -1.000000e+000 -0.000000e+000
    outer loop
      vertex   2.490000e+002 -2.186869e+002 3.525000e+000
      vertex   2.110000e+002 -2.186869e+002 -2.825000e+000
      vertex   2.490000e+002 -2.186869e+002 -2.825000e+000
    endloop
  endfacet
  facet normal 0.000000e+000 -1.000000e+000 0.000000e+000
    outer loop
      vertex   2.110000e+002 -1.788538e+002 3.525000e+000
      vertex   2.110000e+002 -1.788538e+002 -2.825000e+000
      vertex   2.490000e+002 -1.788538e+002 3.525000e+000
    endloop
  endfacet
  facet normal 0.000000e+000 -1.000000e+000 -0.000000e+000
    outer loop
      vertex   2.490000e+002 -1.788538e+002 3.525000e+000
      vertex   2.110000e+002 -1.788538e+002 -2.825000e+000
      vertex   2.490000e+002 -1.788538e+002 -2.825000e+000
    endloop
  endfacet
  facet normal 0.000000e+000 -1.000000e+000 0.000000e+000
    outer loop
      vertex   2.490000e+002 -4.536000e+002 3.525000e+000
      vertex   2.490000e+002 -4.536000e+002 -2.825000e+000
      vertex   2.610000e+002 -4.536000e+002 3.525000e+000
    endloop
  endfacet
  facet normal 0.000000e+000 -1.000000e+000 -0.000000e+000
    outer loop
      vertex   2.610000e+002 -4.536000e+002 3.525000e+000
      vertex   2.490000e+002 -4.536000e+002 -2.825000e+000
      vertex   2.610000e+002 -4.536000e+002 -2.825000e+000
    endloop
  endfacet
  facet normal -1.000000e+000 -0.000000e+000 -0.000000e+000
    outer loop
      vertex   2.490000e+002 -4.045746e+002 3.525000e+000
      vertex   2.490000e+002 -4.045746e+002 -2.825000e+000
      vertex   2.490000e+002 -4.536000e+002 3.525000e+000
    endloop
  endfacet
  facet normal -1.000000e+000 -0.000000e+000 -0.000000e+000
    outer loop
      vertex   2.490000e+002 -4.536000e+002 3.525000e+000
      vertex   2.490000e+002 -4.045746e+002 -2.825000e+000
      vertex   2.490000e+002 -4.536000e+002 -2.825000e+000
    endloop
  endfacet
  facet normal 0.000000e+000 -1.000000e+000 0.000000e+000
    outer loop
      vertex   2.110000e+002 -4.045746e+002 3.525000e+000
      vertex   2.110000e+002 -4.045746e+002 -2.825000e+000
      vertex   2.490000e+002 -4.045746e+002 3.525000e+000
    endloop
  endfacet
  facet normal 0.000000e+000 -1.000000e+000 -0.000000e+000
    outer loop
      vertex   2.490000e+002 -4.045746e+002 3.525000e+000
      vertex   2.110000e+002 -4.045746e+002 -2.825000e+000
      vertex   2.490000e+002 -4.045746e+002 -2.825000e+000
    endloop
  endfacet
  facet normal 1.000000e+000 -0.000000e+000 0.000000e+000
    outer loop
      vertex   2.110000e+002 -4.536000e+002 3.525000e+000
      vertex   2.110000e+002 -4.536000e+002 -2.825000e+000
      vertex   2.110000e+002 -4.045746e+002 3.525000e+000
    endloop
  endfacet
  facet normal 1.000000e+000 -0.000000e+000 0.000000e+000
    outer loop
      vertex   2.110000e+002 -4.045746e+002 3.525000e+000
      vertex   2.110000e+002 -4.536000e+002 -2.825000e+000
      vertex   2.110000e+002 -4.045746e+002 -2.825000e+000
    endloop
  endfacet
  facet normal 0.000000e+000 1.000000e+000 0.000000e+000
    outer loop
      vertex   2.490000e+002 -3.912969e+002 3.525000e+000
      vertex   2.490000e+002 -3.912969e+002 -2.825000e+000
      vertex   2.110000e+002 -3.912969e+002 3.525000e+000
    endloop
  endfacet
  facet normal 0.000000e+000 1.000000e+000 0.000000e+000
    outer loop
      vertex   2.110000e+002 -3.912969e+002 3.525000e+000
      vertex   2.490000e+002 -3.912969e+002 -2.825000e+000
      vertex   2.110000e+002 -3.912969e+002 -2.825000e+000
    endloop
  endfacet
  facet normal -1.000000e+000 -0.000000e+000 -0.000000e+000
    outer loop
      vertex   2.490000e+002 -3.657629e+002 3.525000e+000
      vertex   2.490000e+002 -3.657629e+002 -2.825000e+000
      vertex   2.490000e+002 -3.912969e+002 3.525000e+000
    endloop
  endfacet
  facet normal -1.000000e+000 -0.000000e+000 -0.000000e+000
    outer loop
      vertex   2.490000e+002 -3.912969e+002 3.525000e+000
      vertex   2.490000e+002 -3.657629e+002 -2.825000e+000
      vertex   2.490000e+002 -3.912969e+002 -2.825000e+000
    endloop
  endfacet
  facet normal 0.000000e+000 1.000000e+000 0.000000e+000
    outer loop
      vertex   2.490000e+002 -3.524852e+002 3.525000e+000
      vertex   2.490000e+002 -3.524852e+002 -2.825000e+000
      vertex   2.110000e+002 -3.524852e+002 3.525000e+000
    endloop
  endfacet
  facet normal 0.000000e+000 1.000000e+000 0.000000e+000
    outer loop
      vertex   2.110000e+002 -3.524852e+002 3.525000e+000
      vertex   2.490000e+002 -3.524852e+002 -2.825000e+000
      vertex   2.110000e+002 -3.524852e+002 -2.825000e+000
    endloop
  endfacet
  facet normal -1.000000e+000 -0.000000e+000 -0.000000e+000
    outer loop
      vertex   2.490000e+002 -3.289939e+002 3.525000e+000
      vertex   2.490000e+002 -3.289939e+002 -2.825000e+000
      vertex   2.490000e+002 -3.524852e+002 3.525000e+000
    endloop
  endfacet
  facet normal -1.000000e+000 -0.000000e+000 -0.000000e+000
    outer loop
      vertex   2.490000e+002 -3.524852e+002 3.525000e+000
      vertex   2.490000e+002 -3.289939e+002 -2.825000e+000
      vertex   2.490000e+002 -3.524852e+002 -2.825000e+000
    endloop
  endfacet
  facet normal 0.000000e+000 1.000000e+000 0.000000e+000
    outer loop
      vertex   2.490000e+002 -3.167376e+002 3.525000e+000
      vertex   2.490000e+002 -3.167376e+002 -2.825000e+000
      vertex   2.110000e+002 -3.167376e+002 3.525000e+000
    endloop
  endfacet
  facet normal 0.000000e+000 1.000000e+000 0.000000e+000
    outer loop
      vertex   2.110000e+002 -3.167376e+002 3.525000e+000
      vertex   2.490000e+002 -3.167376e+002 -2.825000e+000
      vertex   2.110000e+002 -3.167376e+002 -2.825000e+000
    endloop
  endfacet
  facet normal -1.000000e+000 0.000000e+000 0.000000e+000
    outer loop
      vertex   2.490000e+002 -3.167376e+002 -2.825000e+000
      vertex   2.490000e+002 -3.167376e+002 3.525000e+000
      vertex   2.490000e+002 -2.901822e+002 -2.825000e+000
    endloop
  endfacet
  facet normal -1.000000e+000 0.000000e+000 0.000000e+000
    outer loop
      vertex   2.490000e+002 -2.901822e+002 -2.825000e+000
      vertex   2.490000e+002 -3.167376e+002 3.525000e+000
      vertex   2.490000e+002 -2.901822e+002 3.525000e+000
    endloop
  endfacet
  facet normal 0.000000e+000 1.000000e+000 0.000000e+000
    outer loop
      vertex   2.490000e+002 -2.779258e+002 3.525000e+000
      vertex   2.490000e+002 -2.779258e+002 -2.825000e+000
      vertex   2.110000e+002 -2.779258e+002 3.525000e+000
    endloop
  endfacet
  facet normal 0.000000e+000 1.000000e+000 0.000000e+000
    outer loop
      vertex   2.110000e+002 -2.779258e+002 3.525000e+000
      vertex   2.490000e+002 -2.779258e+002 -2.825000e+000
      vertex   2.110000e+002 -2.779258e+002 -2.825000e+000
    endloop
  endfacet
  facet normal -1.000000e+000 -0.000000e+000 -0.000000e+000
    outer loop
      vertex   2.490000e+002 -2.544345e+002 3.525000e+000
      vertex   2.490000e+002 -2.544345e+002 -2.825000e+000
      vertex   2.490000e+002 -2.779258e+002 3.525000e+000
    endloop
  endfacet
  facet normal -1.000000e+000 -0.000000e+000 -0.000000e+000
    outer loop
      vertex   2.490000e+002 -2.779258e+002 3.525000e+000
      vertex   2.490000e+002 -2.544345e+002 -2.825000e+000
      vertex   2.490000e+002 -2.779258e+002 -2.825000e+000
    endloop
  endfacet
  facet normal -1.000000e+000 0.000000e+000 0.000000e+000
    outer loop
      vertex   2.490000e+002 -2.405054e+002 -2.825000e+000
      vertex   2.490000e+002 -2.405054e+002 3.525000e+000
      vertex   2.490000e+002 -2.186869e+002 -2.825000e+000
    endloop
  endfacet
  facet normal -1.000000e+000 0.000000e+000 0.000000e+000
    outer loop
      vertex   2.490000e+002 -2.186869e+002 -2.825000e+000
      vertex   2.490000e+002 -2.405054e+002 3.525000e+000
      vertex   2.490000e+002 -2.186869e+002 3.525000e+000
    endloop
  endfacet
  facet normal -1.000000e+000 0.000000e+000 0.000000e+000
    outer loop
      vertex   2.490000e+002 -2.016937e+002 -2.825000e+000
      vertex   2.490000e+002 -2.016937e+002 3.525000e+000
      vertex   2.490000e+002 -1.788538e+002 -2.825000e+000
    endloop
  endfacet
  facet normal -1.000000e+000 0.000000e+000 0.000000e+000
    outer loop
      vertex   2.490000e+002 -1.788538e+002 -2.825000e+000
      vertex   2.490000e+002 -2.016937e+002 3.525000e+000
      vertex   2.490000e+002 -1.788538e+002 3.525000e+000
    endloop
  endfacet
  facet normal 1.000000e+000 -0.000000e+000 0.000000e+000
    outer loop
      vertex   2.110000e+002 -1.659460e+002 3.525000e+000
      vertex   2.110000e+002 -1.659460e+002 -2.825000e+000
      vertex   2.110000e+002 -1.393906e+002 3.525000e+000
    endloop
  endfacet
  facet normal 1.000000e+000 -0.000000e+000 0.000000e+000
    outer loop
      vertex   2.110000e+002 -1.393906e+002 3.525000e+000
      vertex   2.110000e+002 -1.659460e+002 -2.825000e+000
      vertex   2.110000e+002 -1.393906e+002 -2.825000e+000
    endloop
  endfacet
  facet normal 0.000000e+000 -1.000000e+000 0.000000e+000
    outer loop
      vertex   1.990000e+002 -4.536000e+002 3.525000e+000
      vertex   1.990000e+002 -4.536000e+002 -2.825000e+000
      vertex   2.110000e+002 -4.536000e+002 3.525000e+000
    endloop
  endfacet
  facet normal 0.000000e+000 -1.000000e+000 -0.000000e+000
    outer loop
      vertex   2.110000e+002 -4.536000e+002 3.525000e+000
      vertex   1.990000e+002 -4.536000e+002 -2.825000e+000
      vertex   2.110000e+002 -4.536000e+002 -2.825000e+000
    endloop
  endfacet
  facet normal -1.000000e+000 -0.000000e+000 -0.000000e+000
    outer loop
      vertex   1.990000e+002 3.600000e+000 3.525000e+000
      vertex   1.990000e+002 3.600000e+000 -2.825000e+000
      vertex   1.990000e+002 -4.720000e+001 3.525000e+000
    endloop
  endfacet
  facet normal -1.000000e+000 -0.000000e+000 -0.000000e+000
    outer loop
      vertex   1.990000e+002 -4.720000e+001 3.525000e+000
      vertex   1.990000e+002 3.600000e+000 -2.825000e+000
      vertex   1.990000e+002 -4.720000e+001 -2.825000e+000
    endloop
  endfacet
  facet normal -1.000000e+000 -0.000000e+000 -0.000000e+000
    outer loop
      vertex   1.990000e+002 -9.800000e+001 3.525000e+000
      vertex   1.990000e+002 -4.720000e+001 -2.825000e+000
      vertex   1.990000e+002 -9.800000e+001 -2.825000e+000
    endloop
  endfacet
  facet normal -1.000000e+000 -0.000000e+000 -0.000000e+000
    outer loop
      vertex   1.990000e+002 -1.488000e+002 3.525000e+000
      vertex   1.990000e+002 -9.800000e+001 -2.825000e+000
      vertex   1.990000e+002 -1.488000e+002 -2.825000e+000
    endloop
  endfacet
  facet normal -1.000000e+000 -0.000000e+000 -0.000000e+000
    outer loop
      vertex   1.990000e+002 -1.996000e+002 3.525000e+000
      vertex   1.990000e+002 -1.488000e+002 -2.825000e+000
      vertex   1.990000e+002 -1.996000e+002 -2.825000e+000
    endloop
  endfacet
  facet normal -1.000000e+000 -0.000000e+000 -0.000000e+000
    outer loop
      vertex   1.990000e+002 -2.504000e+002 3.525000e+000
      vertex   1.990000e+002 -1.996000e+002 -2.825000e+000
      vertex   1.990000e+002 -2.504000e+002 -2.825000e+000
    endloop
  endfacet
  facet normal -1.000000e+000 -0.000000e+000 -0.000000e+000
    outer loop
      vertex   1.990000e+002 -3.012000e+002 3.525000e+000
      vertex   1.990000e+002 -2.504000e+002 -2.825000e+000
      vertex   1.990000e+002 -3.012000e+002 -2.825000e+000
    endloop
  endfacet
  facet normal -1.000000e+000 -0.000000e+000 -0.000000e+000
    outer loop
      vertex   1.990000e+002 -3.520000e+002 3.525000e+000
      vertex   1.990000e+002 -3.012000e+002 -2.825000e+000
      vertex   1.990000e+002 -3.520000e+002 -2.825000e+000
    endloop
  endfacet
  facet normal -1.000000e+000 -0.000000e+000 -0.000000e+000
    outer loop
      vertex   1.990000e+002 -4.028000e+002 3.525000e+000
      vertex   1.990000e+002 -3.520000e+002 -2.825000e+000
      vertex   1.990000e+002 -4.028000e+002 -2.825000e+000
    endloop
  endfacet
  facet normal -1.000000e+000 -0.000000e+000 -0.000000e+000
    outer loop
      vertex   1.990000e+002 -4.536000e+002 3.525000e+000
      vertex   1.990000e+002 -4.028000e+002 -2.825000e+000
      vertex   1.990000e+002 -4.536000e+002 -2.825000e+000
    endloop
  endfacet
  facet normal -1.000000e+000 0.000000e+000 -0.000000e+000
    outer loop
      vertex   1.990000e+002 -4.536000e+002 3.525000e+000
      vertex   1.990000e+002 -4.028000e+002 3.525000e+000
      vertex   1.990000e+002 -4.028000e+002 -2.825000e+000
    endloop
  endfacet
  facet normal -1.000000e+000 -0.000000e+000 -0.000000e+000
    outer loop
      vertex   1.990000e+002 -4.720000e+001 3.525000e+000
      vertex   1.990000e+002 -4.720000e+001 -2.825000e+000
      vertex   1.990000e+002 -9.800000e+001 3.525000e+000
    endloop
  endfacet
  facet normal -1.000000e+000 -0.000000e+000 -0.000000e+000
    outer loop
      vertex   1.990000e+002 -9.800000e+001 3.525000e+000
      vertex   1.990000e+002 -9.800000e+001 -2.825000e+000
      vertex   1.990000e+002 -1.488000e+002 3.525000e+000
    endloop
  endfacet
  facet normal -1.000000e+000 -0.000000e+000 -0.000000e+000
    outer loop
      vertex   1.990000e+002 -1.488000e+002 3.525000e+000
      vertex   1.990000e+002 -1.488000e+002 -2.825000e+000
      vertex   1.990000e+002 -1.996000e+002 3.525000e+000
    endloop
  endfacet
  facet normal -1.000000e+000 -0.000000e+000 -0.000000e+000
    outer loop
      vertex   1.990000e+002 -1.996000e+002 3.525000e+000
      vertex   1.990000e+002 -1.996000e+002 -2.825000e+000
      vertex   1.990000e+002 -2.504000e+002 3.525000e+000
    endloop
  endfacet
  facet normal -1.000000e+000 -0.000000e+000 -0.000000e+000
    outer loop
      vertex   1.990000e+002 -2.504000e+002 3.525000e+000
      vertex   1.990000e+002 -2.504000e+002 -2.825000e+000
      vertex   1.990000e+002 -3.012000e+002 3.525000e+000
    endloop
  endfacet
  facet normal -1.000000e+000 -0.000000e+000 -0.000000e+000
    outer loop
      vertex   1.990000e+002 -3.012000e+002 3.525000e+000
      vertex   1.990000e+002 -3.012000e+002 -2.825000e+000
      vertex   1.990000e+002 -3.520000e+002 3.525000e+000
    endloop
  endfacet
  facet normal -1.000000e+000 -0.000000e+000 -0.000000e+000
    outer loop
      vertex   1.990000e+002 -3.520000e+002 3.525000e+000
      vertex   1.990000e+002 -3.520000e+002 -2.825000e+000
      vertex   1.990000e+002 -4.028000e+002 3.525000e+000
    endloop
  endfacet
  facet normal 0.000000e+000 -0.000000e+000 -1.000000e+000
    outer loop
      vertex   2.490000e+002 3.600000e+000 -2.825000e+000
      vertex   2.610000e+002 3.600000e+000 -2.825000e+000
      vertex   2.490000e+002 -1.580587e+001 -2.825000e+000
    endloop
  endfacet
  facet normal 0.000000e+000 0.000000e+000 -1.000000e+000
    outer loop
      vertex   2.490000e+002 -1.580587e+001 -2.825000e+000
      vertex   2.610000e+002 3.600000e+000 -2.825000e+000
      vertex   2.610000e+002 -4.720000e+001 -2.825000e+000
    endloop
  endfacet
  facet normal 0.000000e+000 -0.000000e+000 -1.000000e+000
    outer loop
      vertex   2.490000e+002 -2.806221e+001 -2.825000e+000
      vertex   2.610000e+002 -4.720000e+001 -2.825000e+000
      vertex   2.490000e+002 -5.461760e+001 -2.825000e+000
    endloop
  endfacet
  facet normal 0.000000e+000 0.000000e+000 -1.000000e+000
    outer loop
      vertex   2.490000e+002 -2.806221e+001 -2.825000e+000
      vertex   2.490000e+002 -1.580587e+001 -2.825000e+000
      vertex   2.610000e+002 -4.720000e+001 -2.825000e+000
    endloop
  endfacet
  facet normal 0.000000e+000 0.000000e+000 -1.000000e+000
    outer loop
      vertex   2.490000e+002 -2.806221e+001 -2.825000e+000
      vertex   2.110000e+002 -2.806221e+001 -2.825000e+000
      vertex   2.490000e+002 -1.580587e+001 -2.825000e+000
    endloop
  endfacet
  facet normal -0.000000e+000 0.000000e+000 -1.000000e+000
    outer loop
      vertex   2.490000e+002 -1.580587e+001 -2.825000e+000
      vertex   2.110000e+002 -2.806221e+001 -2.825000e+000
      vertex   2.110000e+002 -1.580587e+001 -2.825000e+000
    endloop
  endfacet
  facet normal 0.000000e+000 -0.000000e+000 -1.000000e+000
    outer loop
      vertex   2.110000e+002 -1.580587e+001 -2.825000e+000
      vertex   2.110000e+002 -2.806221e+001 -2.825000e+000
      vertex   1.990000e+002 -4.720000e+001 -2.825000e+000
    endloop
  endfacet
  facet normal 0.000000e+000 -0.000000e+000 -1.000000e+000
    outer loop
      vertex   1.990000e+002 3.600000e+000 -2.825000e+000
      vertex   2.110000e+002 -1.580587e+001 -2.825000e+000
      vertex   1.990000e+002 -4.720000e+001 -2.825000e+000
    endloop
  endfacet
  facet normal 0.000000e+000 0.000000e+000 -1.000000e+000
    outer loop
      vertex   1.990000e+002 3.600000e+000 -2.825000e+000
      vertex   2.110000e+002 3.600000e+000 -2.825000e+000
      vertex   2.110000e+002 -1.580587e+001 -2.825000e+000
    endloop
  endfacet
  facet normal 0.000000e+000 -0.000000e+000 -1.000000e+000
    outer loop
      vertex   2.490000e+002 -5.461760e+001 -2.825000e+000
      vertex   2.610000e+002 -4.720000e+001 -2.825000e+000
      vertex   2.490000e+002 -6.789530e+001 -2.825000e+000
    endloop
  endfacet
  facet normal 0.000000e+000 0.000000e+000 -1.000000e+000
    outer loop
      vertex   2.110000e+002 -6.789530e+001 -2.825000e+000
      vertex   2.490000e+002 -5.461760e+001 -2.825000e+000
      vertex   2.490000e+002 -6.789530e+001 -2.825000e+000
    endloop
  endfacet
  facet normal 0.000000e+000 0.000000e+000 -1.000000e+000
    outer loop
      vertex   2.110000e+002 -6.789530e+001 -2.825000e+000
      vertex   2.110000e+002 -5.461760e+001 -2.825000e+000
      vertex   2.490000e+002 -5.461760e+001 -2.825000e+000
    endloop
  endfacet
  facet normal 0.000000e+000 0.000000e+000 -1.000000e+000
    outer loop
      vertex   2.110000e+002 -6.789530e+001 -2.825000e+000
      vertex   1.990000e+002 -4.720000e+001 -2.825000e+000
      vertex   2.110000e+002 -5.461760e+001 -2.825000e+000
    endloop
  endfacet
  facet normal -0.000000e+000 0.000000e+000 -1.000000e+000
    outer loop
      vertex   2.110000e+002 -6.789530e+001 -2.825000e+000
      vertex   1.990000e+002 -9.800000e+001 -2.825000e+000
      vertex   1.990000e+002 -4.720000e+001 -2.825000e+000
    endloop
  endfacet
  facet normal 0.000000e+000 -0.000000e+000 -1.000000e+000
    outer loop
      vertex   2.110000e+002 -6.789530e+001 -2.825000e+000
      vertex   2.110000e+002 -9.138662e+001 -2.825000e+000
      vertex   1.990000e+002 -9.800000e+001 -2.825000e+000
    endloop
  endfacet
  facet normal 0.000000e+000 0.000000e+000 -1.000000e+000
    outer loop
      vertex   1.990000e+002 -9.800000e+001 -2.825000e+000
      vertex   2.110000e+002 -9.138662e+001 -2.825000e+000
      vertex   2.490000e+002 -9.138662e+001 -2.825000e+000
    endloop
  endfacet
  facet normal 0.000000e+000 0.000000e+000 -1.000000e+000
    outer loop
      vertex   2.610000e+002 -9.800000e+001 -2.825000e+000
      vertex   2.490000e+002 -9.138662e+001 -2.825000e+000
      vertex   2.490000e+002 -6.789530e+001 -2.825000e+000
    endloop
  endfacet
  facet normal -0.000000e+000 -0.000000e+000 -1.000000e+000
    outer loop
      vertex   2.610000e+002 -4.720000e+001 -2.825000e+000
      vertex   2.610000e+002 -9.800000e+001 -2.825000e+000
      vertex   2.490000e+002 -6.789530e+001 -2.825000e+000
    endloop
  endfacet
  facet normal 0.000000e+000 0.000000e+000 -1.000000e+000
    outer loop
      vertex   2.610000e+002 -1.488000e+002 -2.825000e+000
      vertex   2.490000e+002 -1.271343e+002 -2.825000e+000
      vertex   2.610000e+002 -9.800000e+001 -2.825000e+000
    endloop
  endfacet
  facet normal 0.000000e+000 0.000000e+000 -1.000000e+000
    outer loop
      vertex   2.610000e+002 -1.488000e+002 -2.825000e+000
      vertex   2.490000e+002 -1.393906e+002 -2.825000e+000
      vertex   2.490000e+002 -1.271343e+002 -2.825000e+000
    endloop
  endfacet
  facet normal -0.000000e+000 0.000000e+000 -1.000000e+000
    outer loop
      vertex   2.610000e+002 -1.488000e+002 -2.825000e+000
      vertex   2.490000e+002 -1.659460e+002 -2.825000e+000
      vertex   2.490000e+002 -1.393906e+002 -2.825000e+000
    endloop
  endfacet
  facet normal -0.000000e+000 0.000000e+000 -1.000000e+000
    outer loop
      vertex   2.610000e+002 -1.488000e+002 -2.825000e+000
      vertex   2.490000e+002 -1.788538e+002 -2.825000e+000
      vertex   2.490000e+002 -1.659460e+002 -2.825000e+000
    endloop
  endfacet
  facet normal -0.000000e+000 -0.000000e+000 -1.000000e+000
    outer loop
      vertex   2.610000e+002 -1.488000e+002 -2.825000e+000
      vertex   2.610000e+002 -1.996000e+002 -2.825000e+000
      vertex   2.490000e+002 -1.788538e+002 -2.825000e+000
    endloop
  endfacet
  facet normal 0.000000e+000 -0.000000e+000 -1.000000e+000
    outer loop
      vertex   2.490000e+002 -1.788538e+002 -2.825000e+000
      vertex   2.610000e+002 -1.996000e+002 -2.825000e+000
      vertex   2.490000e+002 -2.016937e+002 -2.825000e+000
    endloop
  endfacet
  facet normal 0.000000e+000 -0.000000e+000 -1.000000e+000
    outer loop
      vertex   2.490000e+002 -2.016937e+002 -2.825000e+000
      vertex   2.610000e+002 -1.996000e+002 -2.825000e+000
      vertex   2.490000e+002 -2.186869e+002 -2.825000e+000
    endloop
  endfacet
  facet normal 0.000000e+000 0.000000e+000 -1.000000e+000
    outer loop
      vertex   2.110000e+002 -2.186869e+002 -2.825000e+000
      vertex   2.490000e+002 -2.016937e+002 -2.825000e+000
      vertex   2.490000e+002 -2.186869e+002 -2.825000e+000
    endloop
  endfacet
  facet normal 0.000000e+000 0.000000e+000 -1.000000e+000
    outer loop
      vertex   2.110000e+002 -2.186869e+002 -2.825000e+000
      vertex   2.110000e+002 -2.016937e+002 -2.825000e+000
      vertex   2.490000e+002 -2.016937e+002 -2.825000e+000
    endloop
  endfacet
  facet normal 0.000000e+000 0.000000e+000 -1.000000e+000
    outer loop
      vertex   2.110000e+002 -2.186869e+002 -2.825000e+000
      vertex   1.990000e+002 -1.996000e+002 -2.825000e+000
      vertex   2.110000e+002 -2.016937e+002 -2.825000e+000
    endloop
  endfacet
  facet normal -0.000000e+000 0.000000e+000 -1.000000e+000
    outer loop
      vertex   2.110000e+002 -2.186869e+002 -2.825000e+000
      vertex   1.990000e+002 -2.504000e+002 -2.825000e+000
      vertex   1.990000e+002 -1.996000e+002 -2.825000e+000
    endloop
  endfacet
  facet normal 0.000000e+000 -0.000000e+000 -1.000000e+000
    outer loop
      vertex   2.110000e+002 -2.186869e+002 -2.825000e+000
      vertex   2.110000e+002 -2.405054e+002 -2.825000e+000
      vertex   1.990000e+002 -2.504000e+002 -2.825000e+000
    endloop
  endfacet
  facet normal 0.000000e+000 0.000000e+000 -1.000000e+000
    outer loop
      vertex   1.990000e+002 -2.504000e+002 -2.825000e+000
      vertex   2.110000e+002 -2.405054e+002 -2.825000e+000
      vertex   2.490000e+002 -2.405054e+002 -2.825000e+000
    endloop
  endfacet
  facet normal 0.000000e+000 0.000000e+000 -1.000000e+000
    outer loop
      vertex   2.610000e+002 -2.504000e+002 -2.825000e+000
      vertex   2.490000e+002 -2.405054e+002 -2.825000e+000
      vertex   2.490000e+002 -2.186869e+002 -2.825000e+000
    endloop
  endfacet
  facet normal -0.000000e+000 -0.000000e+000 -1.000000e+000
    outer loop
      vertex   2.610000e+002 -1.996000e+002 -2.825000e+000
      vertex   2.610000e+002 -2.504000e+002 -2.825000e+000
      vertex   2.490000e+002 -2.186869e+002 -2.825000e+000
    endloop
  endfacet
  facet normal 0.000000e+000 0.000000e+000 -1.000000e+000
    outer loop
      vertex   2.610000e+002 -3.012000e+002 -2.825000e+000
      vertex   2.490000e+002 -2.779258e+002 -2.825000e+000
      vertex   2.610000e+002 -2.504000e+002 -2.825000e+000
    endloop
  endfacet
  facet normal 0.000000e+000 0.000000e+000 -1.000000e+000
    outer loop
      vertex   2.610000e+002 -3.012000e+002 -2.825000e+000
      vertex   2.490000e+002 -2.901822e+002 -2.825000e+000
      vertex   2.490000e+002 -2.779258e+002 -2.825000e+000
    endloop
  endfacet
  facet normal -0.000000e+000 0.000000e+000 -1.000000e+000
    outer loop
      vertex   2.610000e+002 -3.012000e+002 -2.825000e+000
      vertex   2.490000e+002 -3.167376e+002 -2.825000e+000
      vertex   2.490000e+002 -2.901822e+002 -2.825000e+000
    endloop
  endfacet
  facet normal -0.000000e+000 0.000000e+000 -1.000000e+000
    outer loop
      vertex   2.610000e+002 -3.012000e+002 -2.825000e+000
      vertex   2.490000e+002 -3.289939e+002 -2.825000e+000
      vertex   2.490000e+002 -3.167376e+002 -2.825000e+000
    endloop
  endfacet
  facet normal -0.000000e+000 -0.000000e+000 -1.000000e+000
    outer loop
      vertex   2.610000e+002 -3.012000e+002 -2.825000e+000
      vertex   2.610000e+002 -3.520000e+002 -2.825000e+000
      vertex   2.490000e+002 -3.289939e+002 -2.825000e+000
    endloop
  endfacet
  facet normal 0.000000e+000 -0.000000e+000 -1.000000e+000
    outer loop
      vertex   2.490000e+002 -3.289939e+002 -2.825000e+000
      vertex   2.610000e+002 -3.520000e+002 -2.825000e+000
      vertex   2.490000e+002 -3.524852e+002 -2.825000e+000
    endloop
  endfacet
  facet normal 0.000000e+000 -0.000000e+000 -1.000000e+000
    outer loop
      vertex   2.490000e+002 -3.524852e+002 -2.825000e+000
      vertex   2.610000e+002 -3.520000e+002 -2.825000e+000
      vertex   2.490000e+002 -3.657629e+002 -2.825000e+000
    endloop
  endfacet
  facet normal 0.000000e+000 0.000000e+000 -1.000000e+000
    outer loop
      vertex   2.110000e+002 -3.657629e+002 -2.825000e+000
      vertex   2.490000e+002 -3.524852e+002 -2.825000e+000
      vertex   2.490000e+002 -3.657629e+002 -2.825000e+000
    endloop
  endfacet
  facet normal 0.000000e+000 0.000000e+000 -1.000000e+000
    outer loop
      vertex   2.110000e+002 -3.657629e+002 -2.825000e+000
      vertex   2.110000e+002 -3.524852e+002 -2.825000e+000
      vertex   2.490000e+002 -3.524852e+002 -2.825000e+000
    endloop
  endfacet
  facet normal 0.000000e+000 0.000000e+000 -1.000000e+000
    outer loop
      vertex   2.110000e+002 -3.657629e+002 -2.825000e+000
      vertex   1.990000e+002 -3.520000e+002 -2.825000e+000
      vertex   2.110000e+002 -3.524852e+002 -2.825000e+000
    endloop
  endfacet
  facet normal -0.000000e+000 0.000000e+000 -1.000000e+000
    outer loop
      vertex   2.110000e+002 -3.657629e+002 -2.825000e+000
      vertex   1.990000e+002 -4.028000e+002 -2.825000e+000
      vertex   1.990000e+002 -3.520000e+002 -2.825000e+000
    endloop
  endfacet
  facet normal 0.000000e+000 -0.000000e+000 -1.000000e+000
    outer loop
      vertex   2.110000e+002 -3.657629e+002 -2.825000e+000
      vertex   2.110000e+002 -3.912969e+002 -2.825000e+000
      vertex   1.990000e+002 -4.028000e+002 -2.825000e+000
    endloop
  endfacet
  facet normal 0.000000e+000 0.000000e+000 -1.000000e+000
    outer loop
      vertex   1.990000e+002 -4.028000e+002 -2.825000e+000
      vertex   2.110000e+002 -3.912969e+002 -2.825000e+000
      vertex   2.490000e+002 -3.912969e+002 -2.825000e+000
    endloop
  endfacet
  facet normal 0.000000e+000 0.000000e+000 -1.000000e+000
    outer loop
      vertex   2.610000e+002 -4.028000e+002 -2.825000e+000
      vertex   2.490000e+002 -3.912969e+002 -2.825000e+000
      vertex   2.490000e+002 -3.657629e+002 -2.825000e+000
    endloop
  endfacet
  facet normal -0.000000e+000 -0.000000e+000 -1.000000e+000
    outer loop
      vertex   2.610000e+002 -3.520000e+002 -2.825000e+000
      vertex   2.610000e+002 -4.028000e+002 -2.825000e+000
      vertex   2.490000e+002 -3.657629e+002 -2.825000e+000
    endloop
  endfacet
  facet normal 0.000000e+000 0.000000e+000 -1.000000e+000
    outer loop
      vertex   2.610000e+002 -4.536000e+002 -2.825000e+000
      vertex   2.490000e+002 -4.045746e+002 -2.825000e+000
      vertex   2.610000e+002 -4.028000e+002 -2.825000e+000
    endloop
  endfacet
  facet normal 0.000000e+000 0.000000e+000 -1.000000e+000
    outer loop
      vertex   2.610000e+002 -4.536000e+002 -2.825000e+000
      vertex   2.490000e+002 -4.536000e+002 -2.825000e+000
      vertex   2.490000e+002 -4.045746e+002 -2.825000e+000
    endloop
  endfacet
  facet normal 0.000000e+000 0.000000e+000 -1.000000e+000
    outer loop
      vertex   2.490000e+002 -4.045746e+002 -2.825000e+000
      vertex   2.110000e+002 -4.045746e+002 -2.825000e+000
      vertex   2.610000e+002 -4.028000e+002 -2.825000e+000
    endloop
  endfacet
  facet normal -0.000000e+000 0.000000e+000 -1.000000e+000
    outer loop
      vertex   2.610000e+002 -4.028000e+002 -2.825000e+000
      vertex   2.110000e+002 -4.045746e+002 -2.825000e+000
      vertex   1.990000e+002 -4.028000e+002 -2.825000e+000
    endloop
  endfacet
  facet normal -0.000000e+000 -0.000000e+000 -1.000000e+000
    outer loop
      vertex   2.490000e+002 -3.912969e+002 -2.825000e+000
      vertex   2.610000e+002 -4.028000e+002 -2.825000e+000
      vertex   1.990000e+002 -4.028000e+002 -2.825000e+000
    endloop
  endfacet
  facet normal 0.000000e+000 0.000000e+000 -1.000000e+000
    outer loop
      vertex   2.110000e+002 -4.536000e+002 -2.825000e+000
      vertex   1.990000e+002 -4.536000e+002 -2.825000e+000
      vertex   2.110000e+002 -4.045746e+002 -2.825000e+000
    endloop
  endfacet
  facet normal -0.000000e+000 0.000000e+000 -1.000000e+000
    outer loop
      vertex   2.110000e+002 -4.045746e+002 -2.825000e+000
      vertex   1.990000e+002 -4.536000e+002 -2.825000e+000
      vertex   1.990000e+002 -4.028000e+002 -2.825000e+000
    endloop
  endfacet
  facet normal 0.000000e+000 0.000000e+000 -1.000000e+000
    outer loop
      vertex   2.110000e+002 -3.524852e+002 -2.825000e+000
      vertex   1.990000e+002 -3.520000e+002 -2.825000e+000
      vertex   2.110000e+002 -3.289939e+002 -2.825000e+000
    endloop
  endfacet
  facet normal -0.000000e+000 0.000000e+000 -1.000000e+000
    outer loop
      vertex   2.110000e+002 -3.289939e+002 -2.825000e+000
      vertex   1.990000e+002 -3.520000e+002 -2.825000e+000
      vertex   1.990000e+002 -3.012000e+002 -2.825000e+000
    endloop
  endfacet
  facet normal 0.000000e+000 0.000000e+000 -1.000000e+000
    outer loop
      vertex   2.110000e+002 -3.167376e+002 -2.825000e+000
      vertex   1.990000e+002 -3.012000e+002 -2.825000e+000
      vertex   2.110000e+002 -2.901822e+002 -2.825000e+000
    endloop
  endfacet
  facet normal -0.000000e+000 -0.000000e+000 -1.000000e+000
    outer loop
      vertex   2.110000e+002 -3.167376e+002 -2.825000e+000
      vertex   2.110000e+002 -3.289939e+002 -2.825000e+000
      vertex   1.990000e+002 -3.012000e+002 -2.825000e+000
    endloop
  endfacet
  facet normal 0.000000e+000 -0.000000e+000 -1.000000e+000
    outer loop
      vertex   2.110000e+002 -3.167376e+002 -2.825000e+000
      vertex   2.490000e+002 -3.167376e+002 -2.825000e+000
      vertex   2.110000e+002 -3.289939e+002 -2.825000e+000
    endloop
  endfacet
  facet normal 0.000000e+000 0.000000e+000 -1.000000e+000
    outer loop
      vertex   2.110000e+002 -3.289939e+002 -2.825000e+000
      vertex   2.490000e+002 -3.167376e+002 -2.825000e+000
      vertex   2.490000e+002 -3.289939e+002 -2.825000e+000
    endloop
  endfacet
  facet normal -0.000000e+000 0.000000e+000 -1.000000e+000
    outer loop
      vertex   2.110000e+002 -2.901822e+002 -2.825000e+000
      vertex   1.990000e+002 -3.012000e+002 -2.825000e+000
      vertex   2.110000e+002 -2.779258e+002 -2.825000e+000
    endloop
  endfacet
  facet normal -0.000000e+000 0.000000e+000 -1.000000e+000
    outer loop
      vertex   2.490000e+002 -2.779258e+002 -2.825000e+000
      vertex   2.110000e+002 -2.901822e+002 -2.825000e+000
      vertex   2.110000e+002 -2.779258e+002 -2.825000e+000
    endloop
  endfacet
  facet normal -0.000000e+000 -0.000000e+000 -1.000000e+000
    outer loop
      vertex   2.490000e+002 -2.779258e+002 -2.825000e+000
      vertex   2.490000e+002 -2.901822e+002 -2.825000e+000
      vertex   2.110000e+002 -2.901822e+002 -2.825000e+000
    endloop
  endfacet
  facet normal 0.000000e+000 0.000000e+000 -1.000000e+000
    outer loop
      vertex   2.110000e+002 -2.016937e+002 -2.825000e+000
      vertex   1.990000e+002 -1.996000e+002 -2.825000e+000
      vertex   2.110000e+002 -1.788538e+002 -2.825000e+000
    endloop
  endfacet
  facet normal -0.000000e+000 0.000000e+000 -1.000000e+000
    outer loop
      vertex   2.110000e+002 -1.788538e+002 -2.825000e+000
      vertex   1.990000e+002 -1.996000e+002 -2.825000e+000
      vertex   1.990000e+002 -1.488000e+002 -2.825000e+000
    endloop
  endfacet
  facet normal 0.000000e+000 0.000000e+000 -1.000000e+000
    outer loop
      vertex   2.110000e+002 -1.659460e+002 -2.825000e+000
      vertex   1.990000e+002 -1.488000e+002 -2.825000e+000
      vertex   2.110000e+002 -1.393906e+002 -2.825000e+000
    endloop
  endfacet
  facet normal -0.000000e+000 -0.000000e+000 -1.000000e+000
    outer loop
      vertex   2.110000e+002 -1.659460e+002 -2.825000e+000
      vertex   2.110000e+002 -1.788538e+002 -2.825000e+000
      vertex   1.990000e+002 -1.488000e+002 -2.825000e+000
    endloop
  endfacet
  facet normal 0.000000e+000 -0.000000e+000 -1.000000e+000
    outer loop
      vertex   2.110000e+002 -1.659460e+002 -2.825000e+000
      vertex   2.490000e+002 -1.659460e+002 -2.825000e+000
      vertex   2.110000e+002 -1.788538e+002 -2.825000e+000
    endloop
  endfacet
  facet normal 0.000000e+000 0.000000e+000 -1.000000e+000
    outer loop
      vertex   2.110000e+002 -1.788538e+002 -2.825000e+000
      vertex   2.490000e+002 -1.659460e+002 -2.825000e+000
      vertex   2.490000e+002 -1.788538e+002 -2.825000e+000
    endloop
  endfacet
  facet normal -0.000000e+000 0.000000e+000 -1.000000e+000
    outer loop
      vertex   2.110000e+002 -1.393906e+002 -2.825000e+000
      vertex   1.990000e+002 -1.488000e+002 -2.825000e+000
      vertex   2.110000e+002 -1.271343e+002 -2.825000e+000
    endloop
  endfacet
  facet normal -0.000000e+000 0.000000e+000 -1.000000e+000
    outer loop
      vertex   2.490000e+002 -1.271343e+002 -2.825000e+000
      vertex   2.110000e+002 -1.393906e+002 -2.825000e+000
      vertex   2.110000e+002 -1.271343e+002 -2.825000e+000
    endloop
  endfacet
  facet normal -0.000000e+000 -0.000000e+000 -1.000000e+000
    outer loop
      vertex   2.490000e+002 -1.271343e+002 -2.825000e+000
      vertex   2.490000e+002 -1.393906e+002 -2.825000e+000
      vertex   2.110000e+002 -1.393906e+002 -2.825000e+000
    endloop
  endfacet
  facet normal -0.000000e+000 -0.000000e+000 -1.000000e+000
    outer loop
      vertex   2.110000e+002 -2.806221e+001 -2.825000e+000
      vertex   2.110000e+002 -5.461760e+001 -2.825000e+000
      vertex   1.990000e+002 -4.720000e+001 -2.825000e+000
    endloop
  endfacet
  facet normal 0.000000e+000 0.000000e+000 -1.000000e+000
    outer loop
      vertex   1.990000e+002 -9.800000e+001 -2.825000e+000
      vertex   2.490000e+002 -9.138662e+001 -2.825000e+000
      vertex   2.610000e+002 -9.800000e+001 -2.825000e+000
    endloop
  endfacet
  facet normal 0.000000e+000 -0.000000e+000 -1.000000e+000
    outer loop
      vertex   2.110000e+002 -1.036430e+002 -2.825000e+000
      vertex   2.610000e+002 -9.800000e+001 -2.825000e+000
      vertex   2.490000e+002 -1.036430e+002 -2.825000e+000
    endloop
  endfacet
  facet normal 0.000000e+000 0.000000e+000 -1.000000e+000
    outer loop
      vertex   2.110000e+002 -1.036430e+002 -2.825000e+000
      vertex   1.990000e+002 -9.800000e+001 -2.825000e+000
      vertex   2.610000e+002 -9.800000e+001 -2.825000e+000
    endloop
  endfacet
  facet normal -0.000000e+000 -0.000000e+000 -1.000000e+000
    outer loop
      vertex   2.110000e+002 -1.036430e+002 -2.825000e+000
      vertex   2.110000e+002 -1.271343e+002 -2.825000e+000
      vertex   1.990000e+002 -9.800000e+001 -2.825000e+000
    endloop
  endfacet
  facet normal 0.000000e+000 -0.000000e+000 -1.000000e+000
    outer loop
      vertex   1.990000e+002 -9.800000e+001 -2.825000e+000
      vertex   2.110000e+002 -1.271343e+002 -2.825000e+000
      vertex   1.990000e+002 -1.488000e+002 -2.825000e+000
    endloop
  endfacet
  facet normal 0.000000e+000 0.000000e+000 -1.000000e+000
    outer loop
      vertex   2.490000e+002 -1.271343e+002 -2.825000e+000
      vertex   2.490000e+002 -1.036430e+002 -2.825000e+000
      vertex   2.610000e+002 -9.800000e+001 -2.825000e+000
    endloop
  endfacet
  facet normal 0.000000e+000 0.000000e+000 -1.000000e+000
    outer loop
      vertex   1.990000e+002 -2.504000e+002 -2.825000e+000
      vertex   2.490000e+002 -2.405054e+002 -2.825000e+000
      vertex   2.610000e+002 -2.504000e+002 -2.825000e+000
    endloop
  endfacet
  facet normal 0.000000e+000 -0.000000e+000 -1.000000e+000
    outer loop
      vertex   2.110000e+002 -2.544345e+002 -2.825000e+000
      vertex   2.610000e+002 -2.504000e+002 -2.825000e+000
      vertex   2.490000e+002 -2.544345e+002 -2.825000e+000
    endloop
  endfacet
  facet normal 0.000000e+000 0.000000e+000 -1.000000e+000
    outer loop
      vertex   2.110000e+002 -2.544345e+002 -2.825000e+000
      vertex   1.990000e+002 -2.504000e+002 -2.825000e+000
      vertex   2.610000e+002 -2.504000e+002 -2.825000e+000
    endloop
  endfacet
  facet normal -0.000000e+000 -0.000000e+000 -1.000000e+000
    outer loop
      vertex   2.110000e+002 -2.544345e+002 -2.825000e+000
      vertex   2.110000e+002 -2.779258e+002 -2.825000e+000
      vertex   1.990000e+002 -2.504000e+002 -2.825000e+000
    endloop
  endfacet
  facet normal 0.000000e+000 -0.000000e+000 -1.000000e+000
    outer loop
      vertex   1.990000e+002 -2.504000e+002 -2.825000e+000
      vertex   2.110000e+002 -2.779258e+002 -2.825000e+000
      vertex   1.990000e+002 -3.012000e+002 -2.825000e+000
    endloop
  endfacet
  facet normal 0.000000e+000 0.000000e+000 -1.000000e+000
    outer loop
      vertex   2.490000e+002 -2.779258e+002 -2.825000e+000
      vertex   2.490000e+002 -2.544345e+002 -2.825000e+000
      vertex   2.610000e+002 -2.504000e+002 -2.825000e+000
    endloop
  endfacet
endsolid
