solid ascii
  facet normal 1.000000e+000 1.418826e-016 0.000000e+000
    outer loop
      vertex   -5.310167e+001 1.343827e+001 8.000000e+000
      vertex   -5.310167e+001 1.343827e+001 3.000000e+000
      vertex   -5.310167e+001 6.351788e+001 8.000000e+000
    endloop
  endfacet
  facet normal 1.000000e+000 1.418826e-016 2.016274e-031
    outer loop
      vertex   -5.310167e+001 6.351788e+001 8.000000e+000
      vertex   -5.310167e+001 1.343827e+001 3.000000e+000
      vertex   -5.310167e+001 6.351788e+001 3.000000e+000
    endloop
  endfacet
  facet normal 1.000000e+000 2.837653e-016 0.000000e+000
    outer loop
      vertex   -5.310167e+001 1.135975e+002 8.000000e+000
      vertex   -5.310167e+001 6.351788e+001 3.000000e+000
      vertex   -5.310167e+001 1.135975e+002 3.000000e+000
    endloop
  endfacet
  facet normal 1.000000e+000 2.837653e-016 4.032547e-031
    outer loop
      vertex   -5.310167e+001 1.135975e+002 8.000000e+000
      vertex   -5.310167e+001 6.351788e+001 8.000000e+000
      vertex   -5.310167e+001 6.351788e+001 3.000000e+000
    endloop
  endfacet
  facet normal -1.000000e+000 -2.828031e-016 -0.000000e+000
    outer loop
      vertex   -5.810167e+001 1.135975e+002 8.000000e+000
      vertex   -5.810167e+001 1.135975e+002 3.000000e+000
      vertex   -5.810167e+001 6.334749e+001 8.000000e+000
    endloop
  endfacet
  facet normal -1.000000e+000 -2.828031e-016 0.000000e+000
    outer loop
      vertex   -5.810167e+001 6.334749e+001 8.000000e+000
      vertex   -5.810167e+001 1.135975e+002 3.000000e+000
      vertex   -5.810167e+001 6.334749e+001 3.000000e+000
    endloop
  endfacet
  facet normal -1.000000e+000 -1.414015e-016 0.000000e+000
    outer loop
      vertex   -5.810167e+001 1.309749e+001 8.000000e+000
      vertex   -5.810167e+001 6.334749e+001 3.000000e+000
      vertex   -5.810167e+001 1.309749e+001 3.000000e+000
    endloop
  endfacet
  facet normal -1.000000e+000 -1.414015e-016 -0.000000e+000
    outer loop
      vertex   -5.810167e+001 1.309749e+001 8.000000e+000
      vertex   -5.810167e+001 6.334749e+001 8.000000e+000
      vertex   -5.810167e+001 6.334749e+001 3.000000e+000
    endloop
  endfacet
  facet normal 0.000000e+000 1.000000e+000 0.000000e+000
    outer loop
      vertex   -5.310167e+001 1.135975e+002 8.000000e+000
      vertex   -5.310167e+001 1.135975e+002 3.000000e+000
      vertex   -5.810167e+001 1.135975e+002 8.000000e+000
    endloop
  endfacet
  facet normal 0.000000e+000 1.000000e+000 0.000000e+000
    outer loop
      vertex   -5.810167e+001 1.135975e+002 8.000000e+000
      vertex   -5.310167e+001 1.135975e+002 3.000000e+000
      vertex   -5.810167e+001 1.135975e+002 3.000000e+000
    endloop
  endfacet
  facet normal -0.000000e+000 -1.000000e+000 0.000000e+000
    outer loop
      vertex   -5.810004e+001 1.309749e+001 3.000000e+000
      vertex   -5.810004e+001 1.309749e+001 8.000000e+000
      vertex   -5.810167e+001 1.309749e+001 3.000000e+000
    endloop
  endfacet
  facet normal 0.000000e+000 -1.000000e+000 0.000000e+000
    outer loop
      vertex   -5.810167e+001 1.309749e+001 3.000000e+000
      vertex   -5.810004e+001 1.309749e+001 8.000000e+000
      vertex   -5.810167e+001 1.309749e+001 8.000000e+000
    endloop
  endfacet
  facet normal -0.000000e+000 1.000000e+000 0.000000e+000
    outer loop
      vertex   -5.810004e+001 1.340034e+001 8.000000e+000
      vertex   -5.810004e+001 1.340034e+001 6.300000e+001
      vertex   -5.310004e+001 1.340034e+001 8.000000e+000
    endloop
  endfacet
  facet normal 0.000000e+000 1.000000e+000 -0.000000e+000
    outer loop
      vertex   -5.310004e+001 1.340034e+001 8.000000e+000
      vertex   -5.810004e+001 1.340034e+001 6.300000e+001
      vertex   -5.310004e+001 1.340034e+001 6.300000e+001
    endloop
  endfacet
  facet normal -1.000000e+000 0.000000e+000 0.000000e+000
    outer loop
      vertex   -5.810004e+001 1.340034e+001 8.000000e+000
      vertex   -5.810004e+001 1.309749e+001 8.000000e+000
      vertex   -5.810004e+001 1.340034e+001 6.300000e+001
    endloop
  endfacet
  facet normal -1.000000e+000 -0.000000e+000 0.000000e+000
    outer loop
      vertex   -5.810004e+001 1.340034e+001 6.300000e+001
      vertex   -5.810004e+001 1.309749e+001 8.000000e+000
      vertex   -5.810004e+001 8.400335e+000 3.300000e+001
    endloop
  endfacet
  facet normal -1.000000e+000 0.000000e+000 -0.000000e+000
    outer loop
      vertex   -5.810004e+001 8.400335e+000 6.300000e+001
      vertex   -5.810004e+001 1.340034e+001 6.300000e+001
      vertex   -5.810004e+001 8.400335e+000 3.300000e+001
    endloop
  endfacet
  facet normal -1.000000e+000 0.000000e+000 0.000000e+000
    outer loop
      vertex   -5.810004e+001 1.309749e+001 3.000000e+000
      vertex   -5.810004e+001 8.400335e+000 3.000000e+000
      vertex   -5.810004e+001 1.309749e+001 8.000000e+000
    endloop
  endfacet
  facet normal -1.000000e+000 -0.000000e+000 0.000000e+000
    outer loop
      vertex   -5.810004e+001 1.309749e+001 8.000000e+000
      vertex   -5.810004e+001 8.400335e+000 3.000000e+000
      vertex   -5.810004e+001 8.400335e+000 3.300000e+001
    endloop
  endfacet
  facet normal 0.000000e+000 -1.000000e+000 0.000000e+000
    outer loop
      vertex   -5.900460e+000 1.295425e+001 8.000000e+000
      vertex   -5.900460e+000 1.295425e+001 3.000000e+000
      vertex   -5.889793e+000 1.295425e+001 8.000000e+000
    endloop
  endfacet
  facet normal 0.000000e+000 -1.000000e+000 -0.000000e+000
    outer loop
      vertex   -5.889793e+000 1.295425e+001 8.000000e+000
      vertex   -5.900460e+000 1.295425e+001 3.000000e+000
      vertex   -5.889793e+000 1.295425e+001 3.000000e+000
    endloop
  endfacet
  facet normal -1.000000e+000 -2.128184e-016 0.000000e+000
    outer loop
      vertex   -1.088979e+001 1.343827e+001 3.000000e+000
      vertex   -1.088979e+001 1.343827e+001 8.000000e+000
      vertex   -1.088979e+001 6.351919e+001 3.000000e+000
    endloop
  endfacet
  facet normal -1.000000e+000 -2.128184e-016 0.000000e+000
    outer loop
      vertex   -1.088979e+001 6.351919e+001 3.000000e+000
      vertex   -1.088979e+001 1.343827e+001 8.000000e+000
      vertex   -1.088979e+001 6.351919e+001 8.000000e+000
    endloop
  endfacet
  facet normal -1.000000e+000 -2.482881e-016 0.000000e+000
    outer loop
      vertex   -1.088979e+001 1.136001e+002 3.000000e+000
      vertex   -1.088979e+001 6.351919e+001 8.000000e+000
      vertex   -1.088979e+001 1.136001e+002 8.000000e+000
    endloop
  endfacet
  facet normal -1.000000e+000 -2.482881e-016 0.000000e+000
    outer loop
      vertex   -1.088979e+001 1.136001e+002 3.000000e+000
      vertex   -1.088979e+001 6.351919e+001 3.000000e+000
      vertex   -1.088979e+001 6.351919e+001 8.000000e+000
    endloop
  endfacet
  facet normal -0.000000e+000 1.000000e+000 0.000000e+000
    outer loop
      vertex   -5.899594e+000 1.139542e+002 3.000000e+000
      vertex   -5.899594e+000 1.139542e+002 8.000000e+000
      vertex   -5.889793e+000 1.139542e+002 3.000000e+000
    endloop
  endfacet
  facet normal 0.000000e+000 1.000000e+000 -0.000000e+000
    outer loop
      vertex   -5.889793e+000 1.139542e+002 3.000000e+000
      vertex   -5.899594e+000 1.139542e+002 8.000000e+000
      vertex   -5.889793e+000 1.139542e+002 8.000000e+000
    endloop
  endfacet
  facet normal 1.000000e+000 2.110523e-016 0.000000e+000
    outer loop
      vertex   -5.889793e+000 1.295425e+001 8.000000e+000
      vertex   -5.889793e+000 1.295425e+001 3.000000e+000
      vertex   -5.889793e+000 6.345425e+001 8.000000e+000
    endloop
  endfacet
  facet normal 1.000000e+000 1.934646e-016 1.776357e-016
    outer loop
      vertex   -5.889793e+000 6.345425e+001 8.000000e+000
      vertex   -5.889793e+000 1.295425e+001 3.000000e+000
      vertex   -5.889793e+000 6.345425e+001 3.000000e+000
    endloop
  endfacet
  facet normal 1.000000e+000 1.934646e-016 0.000000e+000
    outer loop
      vertex   -5.889793e+000 1.139542e+002 8.000000e+000
      vertex   -5.889793e+000 6.345425e+001 3.000000e+000
      vertex   -5.889793e+000 1.139542e+002 3.000000e+000
    endloop
  endfacet
  facet normal 1.000000e+000 1.758769e-016 1.776357e-016
    outer loop
      vertex   -5.889793e+000 1.139542e+002 8.000000e+000
      vertex   -5.889793e+000 6.345425e+001 8.000000e+000
      vertex   -5.889793e+000 6.345425e+001 3.000000e+000
    endloop
  endfacet
  facet normal -0.000000e+000 1.000000e+000 0.000000e+000
    outer loop
      vertex   -1.090046e+001 1.339962e+001 8.000000e+000
      vertex   -1.090046e+001 1.339962e+001 6.300000e+001
      vertex   -5.900460e+000 1.339962e+001 8.000000e+000
    endloop
  endfacet
  facet normal 0.000000e+000 1.000000e+000 -0.000000e+000
    outer loop
      vertex   -5.900460e+000 1.339962e+001 8.000000e+000
      vertex   -1.090046e+001 1.339962e+001 6.300000e+001
      vertex   -5.900460e+000 1.339962e+001 6.300000e+001
    endloop
  endfacet
  facet normal 3.552714e-015 -5.149513e-013 1.000000e+000
    outer loop
      vertex   -5.310004e+001 1.340034e+001 8.000000e+000
      vertex   -5.310167e+001 1.343827e+001 8.000000e+000
      vertex   -5.810004e+001 1.340034e+001 8.000000e+000
    endloop
  endfacet
  facet normal -8.788922e-018 -5.151041e-013 1.000000e+000
    outer loop
      vertex   -5.310004e+001 1.340034e+001 8.000000e+000
      vertex   -1.090046e+001 1.339962e+001 8.000000e+000
      vertex   -5.310167e+001 1.343827e+001 8.000000e+000
    endloop
  endfacet
  facet normal 6.108130e-021 3.579873e-016 1.000000e+000
    outer loop
      vertex   -5.310004e+001 1.340034e+001 8.000000e+000
      vertex   -5.310004e+001 8.438269e+000 8.000000e+000
      vertex   -1.090046e+001 1.339962e+001 8.000000e+000
    endloop
  endfacet
  facet normal -0.000000e+000 3.580393e-016 1.000000e+000
    outer loop
      vertex   -1.090046e+001 1.339962e+001 8.000000e+000
      vertex   -5.310004e+001 8.438269e+000 8.000000e+000
      vertex   -1.090046e+001 8.438269e+000 8.000000e+000
    endloop
  endfacet
  facet normal 4.208192e-016 -4.607146e-014 1.000000e+000
    outer loop
      vertex   -5.310167e+001 1.343827e+001 8.000000e+000
      vertex   -1.090046e+001 1.339962e+001 8.000000e+000
      vertex   -1.088979e+001 1.343827e+001 8.000000e+000
    endloop
  endfacet
  facet normal 0.000000e+000 -4.595533e-014 1.000000e+000
    outer loop
      vertex   -1.088979e+001 1.343827e+001 8.000000e+000
      vertex   -1.090046e+001 1.339962e+001 8.000000e+000
      vertex   -5.900460e+000 1.339962e+001 8.000000e+000
    endloop
  endfacet
  facet normal -1.665282e-013 -3.514616e-029 1.000000e+000
    outer loop
      vertex   -5.889793e+000 6.345425e+001 8.000000e+000
      vertex   -5.900460e+000 1.339962e+001 8.000000e+000
      vertex   -5.889793e+000 1.295425e+001 8.000000e+000
    endloop
  endfacet
  facet normal 3.557554e-016 -3.556417e-017 1.000000e+000
    outer loop
      vertex   -5.889793e+000 6.345425e+001 8.000000e+000
      vertex   -1.088979e+001 1.343827e+001 8.000000e+000
      vertex   -5.900460e+000 1.339962e+001 8.000000e+000
    endloop
  endfacet
  facet normal 0.000000e+000 0.000000e+000 1.000000e+000
    outer loop
      vertex   -5.889793e+000 6.345425e+001 8.000000e+000
      vertex   -1.088979e+001 6.351919e+001 8.000000e+000
      vertex   -1.088979e+001 1.343827e+001 8.000000e+000
    endloop
  endfacet
  facet normal 4.600927e-019 3.542389e-017 1.000000e+000
    outer loop
      vertex   -5.889793e+000 6.345425e+001 8.000000e+000
      vertex   -5.899594e+000 1.136001e+002 8.000000e+000
      vertex   -1.088979e+001 6.351919e+001 8.000000e+000
    endloop
  endfacet
  facet normal -1.812432e-013 -3.187650e-029 1.000000e+000
    outer loop
      vertex   -5.889793e+000 6.345425e+001 8.000000e+000
      vertex   -5.889793e+000 1.139542e+002 8.000000e+000
      vertex   -5.899594e+000 1.136001e+002 8.000000e+000
    endloop
  endfacet
  facet normal 0.000000e+000 -5.015985e-015 1.000000e+000
    outer loop
      vertex   -5.899594e+000 1.136001e+002 8.000000e+000
      vertex   -5.889793e+000 1.139542e+002 8.000000e+000
      vertex   -5.899594e+000 1.139542e+002 8.000000e+000
    endloop
  endfacet
  facet normal -0.000000e+000 3.988522e-015 1.000000e+000
    outer loop
      vertex   -5.900460e+000 1.339962e+001 8.000000e+000
      vertex   -5.900460e+000 1.295425e+001 8.000000e+000
      vertex   -5.889793e+000 1.295425e+001 8.000000e+000
    endloop
  endfacet
  facet normal 3.559691e-016 8.838291e-032 1.000000e+000
    outer loop
      vertex   -5.899594e+000 1.136001e+002 8.000000e+000
      vertex   -1.088979e+001 1.136001e+002 8.000000e+000
      vertex   -1.088979e+001 6.351919e+001 8.000000e+000
    endloop
  endfacet
  facet normal -3.551170e-016 -3.557629e-017 1.000000e+000
    outer loop
      vertex   -5.810004e+001 1.340034e+001 8.000000e+000
      vertex   -5.310167e+001 1.343827e+001 8.000000e+000
      vertex   -5.810167e+001 6.334749e+001 8.000000e+000
    endloop
  endfacet
  facet normal 1.091604e-012 1.543544e-028 1.000000e+000
    outer loop
      vertex   -5.810167e+001 1.309749e+001 8.000000e+000
      vertex   -5.810004e+001 1.340034e+001 8.000000e+000
      vertex   -5.810167e+001 6.334749e+001 8.000000e+000
    endloop
  endfacet
  facet normal -0.000000e+000 5.865601e-015 1.000000e+000
    outer loop
      vertex   -5.810167e+001 1.309749e+001 8.000000e+000
      vertex   -5.810004e+001 1.309749e+001 8.000000e+000
      vertex   -5.810004e+001 1.340034e+001 8.000000e+000
    endloop
  endfacet
  facet normal 0.000000e+000 0.000000e+000 1.000000e+000
    outer loop
      vertex   -5.310167e+001 1.135975e+002 8.000000e+000
      vertex   -5.810167e+001 1.135975e+002 8.000000e+000
      vertex   -5.310167e+001 6.351788e+001 8.000000e+000
    endloop
  endfacet
  facet normal 0.000000e+000 0.000000e+000 1.000000e+000
    outer loop
      vertex   -5.310167e+001 6.351788e+001 8.000000e+000
      vertex   -5.810167e+001 1.135975e+002 8.000000e+000
      vertex   -5.810167e+001 6.334749e+001 8.000000e+000
    endloop
  endfacet
  facet normal 0.000000e+000 0.000000e+000 1.000000e+000
    outer loop
      vertex   -5.310167e+001 1.343827e+001 8.000000e+000
      vertex   -5.310167e+001 6.351788e+001 8.000000e+000
      vertex   -5.810167e+001 6.334749e+001 8.000000e+000
    endloop
  endfacet
  facet normal -0.000000e+000 1.000000e+000 0.000000e+000
    outer loop
      vertex   -5.310167e+001 1.343827e+001 3.000000e+000
      vertex   -5.310167e+001 1.343827e+001 8.000000e+000
      vertex   -1.088979e+001 1.343827e+001 3.000000e+000
    endloop
  endfacet
  facet normal -0.000000e+000 1.000000e+000 -0.000000e+000
    outer loop
      vertex   -1.088979e+001 1.343827e+001 3.000000e+000
      vertex   -5.310167e+001 1.343827e+001 8.000000e+000
      vertex   -1.088979e+001 1.343827e+001 8.000000e+000
    endloop
  endfacet
  facet normal 1.000000e+000 0.000000e+000 -0.000000e+000
    outer loop
      vertex   -5.899594e+000 1.136001e+002 8.000000e+000
      vertex   -5.899594e+000 1.139542e+002 8.000000e+000
      vertex   -5.899594e+000 1.136001e+002 6.300000e+001
    endloop
  endfacet
  facet normal 1.000000e+000 -0.000000e+000 0.000000e+000
    outer loop
      vertex   -5.899594e+000 1.136001e+002 6.300000e+001
      vertex   -5.899594e+000 1.139542e+002 8.000000e+000
      vertex   -5.899594e+000 1.186001e+002 3.300000e+001
    endloop
  endfacet
  facet normal 1.000000e+000 0.000000e+000 0.000000e+000
    outer loop
      vertex   -5.899594e+000 1.186001e+002 6.300000e+001
      vertex   -5.899594e+000 1.136001e+002 6.300000e+001
      vertex   -5.899594e+000 1.186001e+002 3.300000e+001
    endloop
  endfacet
  facet normal 1.000000e+000 0.000000e+000 -0.000000e+000
    outer loop
      vertex   -5.899594e+000 1.139542e+002 3.000000e+000
      vertex   -5.899594e+000 1.186001e+002 3.000000e+000
      vertex   -5.899594e+000 1.139542e+002 8.000000e+000
    endloop
  endfacet
  facet normal 1.000000e+000 -0.000000e+000 0.000000e+000
    outer loop
      vertex   -5.899594e+000 1.139542e+002 8.000000e+000
      vertex   -5.899594e+000 1.186001e+002 3.000000e+000
      vertex   -5.899594e+000 1.186001e+002 3.300000e+001
    endloop
  endfacet
  facet normal -0.000000e+000 -1.000000e+000 0.000000e+000
    outer loop
      vertex   -1.090046e+001 8.438269e+000 3.000000e+000
      vertex   -1.090046e+001 8.438269e+000 8.000000e+000
      vertex   -5.310004e+001 8.438269e+000 3.000000e+000
    endloop
  endfacet
  facet normal 0.000000e+000 -1.000000e+000 0.000000e+000
    outer loop
      vertex   -5.310004e+001 8.438269e+000 3.000000e+000
      vertex   -1.090046e+001 8.438269e+000 8.000000e+000
      vertex   -5.310004e+001 8.438269e+000 8.000000e+000
    endloop
  endfacet
  facet normal -1.000000e+000 -0.000000e+000 -0.000000e+000
    outer loop
      vertex   -1.090046e+001 1.339962e+001 6.300000e+001
      vertex   -1.090046e+001 1.339962e+001 8.000000e+000
      vertex   -1.090046e+001 8.399615e+000 3.300000e+001
    endloop
  endfacet
  facet normal -1.000000e+000 0.000000e+000 -0.000000e+000
    outer loop
      vertex   -1.090046e+001 8.399615e+000 6.300000e+001
      vertex   -1.090046e+001 1.339962e+001 6.300000e+001
      vertex   -1.090046e+001 8.399615e+000 3.300000e+001
    endloop
  endfacet
  facet normal -1.000000e+000 0.000000e+000 0.000000e+000
    outer loop
      vertex   -1.090046e+001 8.438269e+000 3.000000e+000
      vertex   -1.090046e+001 8.399615e+000 3.000000e+000
      vertex   -1.090046e+001 8.438269e+000 8.000000e+000
    endloop
  endfacet
  facet normal -1.000000e+000 -0.000000e+000 0.000000e+000
    outer loop
      vertex   -1.090046e+001 8.438269e+000 8.000000e+000
      vertex   -1.090046e+001 8.399615e+000 3.000000e+000
      vertex   -1.090046e+001 8.399615e+000 3.300000e+001
    endloop
  endfacet
  facet normal -1.000000e+000 0.000000e+000 0.000000e+000
    outer loop
      vertex   -1.090046e+001 1.339962e+001 8.000000e+000
      vertex   -1.090046e+001 8.438269e+000 8.000000e+000
      vertex   -1.090046e+001 8.399615e+000 3.300000e+001
    endloop
  endfacet
  facet normal 0.000000e+000 -0.000000e+000 1.000000e+000
    outer loop
      vertex   -5.364079e+001 1.186004e+002 8.000000e+000
      vertex   -5.310004e+001 1.186004e+002 8.000000e+000
      vertex   -5.364079e+001 1.186241e+002 8.000000e+000
    endloop
  endfacet
  facet normal -0.000000e+000 0.000000e+000 1.000000e+000
    outer loop
      vertex   -5.364079e+001 1.186241e+002 8.000000e+000
      vertex   -5.310004e+001 1.186004e+002 8.000000e+000
      vertex   -1.064079e+001 1.186241e+002 8.000000e+000
    endloop
  endfacet
  facet normal 0.000000e+000 0.000000e+000 1.000000e+000
    outer loop
      vertex   -1.064079e+001 1.186241e+002 8.000000e+000
      vertex   -5.310004e+001 1.186004e+002 8.000000e+000
      vertex   -1.089959e+001 1.186001e+002 8.000000e+000
    endloop
  endfacet
  facet normal 0.000000e+000 0.000000e+000 1.000000e+000
    outer loop
      vertex   -1.064079e+001 1.186001e+002 8.000000e+000
      vertex   -1.064079e+001 1.186241e+002 8.000000e+000
      vertex   -1.089959e+001 1.186001e+002 8.000000e+000
    endloop
  endfacet
  facet normal -0.000000e+000 0.000000e+000 1.000000e+000
    outer loop
      vertex   -5.310004e+001 1.186004e+002 8.000000e+000
      vertex   -5.310004e+001 1.136241e+002 8.000000e+000
      vertex   -1.089959e+001 1.186001e+002 8.000000e+000
    endloop
  endfacet
  facet normal -0.000000e+000 0.000000e+000 1.000000e+000
    outer loop
      vertex   -1.089959e+001 1.186001e+002 8.000000e+000
      vertex   -5.310004e+001 1.136241e+002 8.000000e+000
      vertex   -1.089959e+001 1.136241e+002 8.000000e+000
    endloop
  endfacet
  facet normal 1.000000e+000 7.395092e-014 0.000000e+000
    outer loop
      vertex   -1.064079e+001 1.186001e+002 8.000000e+000
      vertex   -1.064079e+001 1.186001e+002 3.000000e+000
      vertex   -1.064079e+001 1.186241e+002 8.000000e+000
    endloop
  endfacet
  facet normal 1.000000e+000 7.395092e-014 0.000000e+000
    outer loop
      vertex   -1.064079e+001 1.186241e+002 8.000000e+000
      vertex   -1.064079e+001 1.186001e+002 3.000000e+000
      vertex   -1.064079e+001 1.186241e+002 3.000000e+000
    endloop
  endfacet
  facet normal 0.000000e+000 -1.000000e+000 0.000000e+000
    outer loop
      vertex   -5.310004e+001 1.136241e+002 8.000000e+000
      vertex   -5.310004e+001 1.136241e+002 3.000000e+000
      vertex   -1.089959e+001 1.136241e+002 8.000000e+000
    endloop
  endfacet
  facet normal 0.000000e+000 -1.000000e+000 -0.000000e+000
    outer loop
      vertex   -1.089959e+001 1.136241e+002 8.000000e+000
      vertex   -5.310004e+001 1.136241e+002 3.000000e+000
      vertex   -1.089959e+001 1.136241e+002 3.000000e+000
    endloop
  endfacet
  facet normal -1.000000e+000 0.000000e+000 0.000000e+000
    outer loop
      vertex   -5.364079e+001 1.186004e+002 3.000000e+000
      vertex   -5.364079e+001 1.186004e+002 8.000000e+000
      vertex   -5.364079e+001 1.186241e+002 3.000000e+000
    endloop
  endfacet
  facet normal -1.000000e+000 0.000000e+000 0.000000e+000
    outer loop
      vertex   -5.364079e+001 1.186241e+002 3.000000e+000
      vertex   -5.364079e+001 1.186004e+002 8.000000e+000
      vertex   -5.364079e+001 1.186241e+002 8.000000e+000
    endloop
  endfacet
  facet normal 0.000000e+000 1.000000e+000 0.000000e+000
    outer loop
      vertex   -1.064079e+001 1.186241e+002 8.000000e+000
      vertex   -1.064079e+001 1.186241e+002 3.000000e+000
      vertex   -5.364079e+001 1.186241e+002 8.000000e+000
    endloop
  endfacet
  facet normal 0.000000e+000 1.000000e+000 0.000000e+000
    outer loop
      vertex   -5.364079e+001 1.186241e+002 8.000000e+000
      vertex   -1.064079e+001 1.186241e+002 3.000000e+000
      vertex   -5.364079e+001 1.186241e+002 3.000000e+000
    endloop
  endfacet
  facet normal 8.537270e-018 -8.867665e-018 1.000000e+000
    outer loop
      vertex   -5.310167e+001 6.351788e+001 3.000000e+000
      vertex   -3.200000e+001 8.383333e+001 3.000000e+000
      vertex   -5.310167e+001 1.135975e+002 3.000000e+000
    endloop
  endfacet
  facet normal -0.000000e+000 0.000000e+000 1.000000e+000
    outer loop
      vertex   -5.310167e+001 6.351788e+001 3.000000e+000
      vertex   -3.200000e+001 4.316667e+001 3.000000e+000
      vertex   -3.200000e+001 8.383333e+001 3.000000e+000
    endloop
  endfacet
  facet normal 8.552298e-018 8.867665e-018 1.000000e+000
    outer loop
      vertex   -5.310167e+001 6.351788e+001 3.000000e+000
      vertex   -5.310167e+001 1.343827e+001 3.000000e+000
      vertex   -3.200000e+001 4.316667e+001 3.000000e+000
    endloop
  endfacet
  facet normal 4.208192e-016 -2.837657e-016 1.000000e+000
    outer loop
      vertex   -3.200000e+001 4.316667e+001 3.000000e+000
      vertex   -5.310167e+001 1.343827e+001 3.000000e+000
      vertex   -1.088979e+001 1.343827e+001 3.000000e+000
    endloop
  endfacet
  facet normal 3.334174e-016 -3.458299e-016 1.000000e+000
    outer loop
      vertex   -1.088979e+001 6.351919e+001 3.000000e+000
      vertex   -3.200000e+001 4.316667e+001 3.000000e+000
      vertex   -1.088979e+001 1.343827e+001 3.000000e+000
    endloop
  endfacet
  facet normal 0.000000e+000 0.000000e+000 1.000000e+000
    outer loop
      vertex   -1.088979e+001 6.351919e+001 3.000000e+000
      vertex   -3.200000e+001 8.383333e+001 3.000000e+000
      vertex   -3.200000e+001 4.316667e+001 3.000000e+000
    endloop
  endfacet
  facet normal 3.413860e-017 3.547641e-017 1.000000e+000
    outer loop
      vertex   -1.088979e+001 6.351919e+001 3.000000e+000
      vertex   -1.089959e+001 1.136001e+002 3.000000e+000
      vertex   -3.200000e+001 8.383333e+001 3.000000e+000
    endloop
  endfacet
  facet normal 1.585878e-012 3.458299e-016 1.000000e+000
    outer loop
      vertex   -1.088979e+001 6.351919e+001 3.000000e+000
      vertex   -1.088979e+001 1.136001e+002 3.000000e+000
      vertex   -1.089959e+001 1.136001e+002 3.000000e+000
    endloop
  endfacet
  facet normal 8.172494e-017 -3.697546e-013 1.000000e+000
    outer loop
      vertex   -1.089959e+001 1.136241e+002 3.000000e+000
      vertex   -3.200000e+001 1.136002e+002 3.000000e+000
      vertex   -1.089959e+001 1.136001e+002 3.000000e+000
    endloop
  endfacet
  facet normal 0.000000e+000 -2.975433e-013 1.000000e+000
    outer loop
      vertex   -1.089959e+001 1.136241e+002 3.000000e+000
      vertex   -5.310004e+001 1.136241e+002 3.000000e+000
      vertex   -3.200000e+001 1.136002e+002 3.000000e+000
    endloop
  endfacet
  facet normal 3.367495e-016 0.000000e+000 1.000000e+000
    outer loop
      vertex   -3.200000e+001 1.136002e+002 3.000000e+000
      vertex   -5.310004e+001 1.136241e+002 3.000000e+000
      vertex   -5.310004e+001 1.136004e+002 3.000000e+000
    endloop
  endfacet
  facet normal 1.619755e-016 -2.272956e-012 1.000000e+000
    outer loop
      vertex   -3.200000e+001 1.135988e+002 3.000000e+000
      vertex   -5.310004e+001 1.136004e+002 3.000000e+000
      vertex   -5.310167e+001 1.135975e+002 3.000000e+000
    endloop
  endfacet
  facet normal 2.104522e-017 -0.000000e+000 1.000000e+000
    outer loop
      vertex   -3.200000e+001 8.383333e+001 3.000000e+000
      vertex   -3.200000e+001 1.135988e+002 3.000000e+000
      vertex   -5.310167e+001 1.135975e+002 3.000000e+000
    endloop
  endfacet
  facet normal 8.418591e-017 0.000000e+000 1.000000e+000
    outer loop
      vertex   -3.200000e+001 8.383333e+001 3.000000e+000
      vertex   -1.089959e+001 1.136001e+002 3.000000e+000
      vertex   -3.200000e+001 1.135988e+002 3.000000e+000
    endloop
  endfacet
  facet normal 8.418591e-017 0.000000e+000 1.000000e+000
    outer loop
      vertex   -3.200000e+001 1.135988e+002 3.000000e+000
      vertex   -1.089959e+001 1.136001e+002 3.000000e+000
      vertex   -3.200000e+001 1.136002e+002 3.000000e+000
    endloop
  endfacet
  facet normal 3.367495e-016 -0.000000e+000 1.000000e+000
    outer loop
      vertex   -5.310004e+001 1.136004e+002 3.000000e+000
      vertex   -3.200000e+001 1.135988e+002 3.000000e+000
      vertex   -3.200000e+001 1.136002e+002 3.000000e+000
    endloop
  endfacet
  facet normal 0.000000e+000 -2.272866e-012 1.000000e+000
    outer loop
      vertex   -5.310004e+001 1.136004e+002 3.000000e+000
      vertex   -5.810004e+001 1.136004e+002 3.000000e+000
      vertex   -5.310167e+001 1.135975e+002 3.000000e+000
    endloop
  endfacet
  facet normal 0.000000e+000 -2.272866e-012 1.000000e+000
    outer loop
      vertex   -5.310167e+001 1.135975e+002 3.000000e+000
      vertex   -5.810004e+001 1.136004e+002 3.000000e+000
      vertex   -5.810167e+001 1.135975e+002 3.000000e+000
    endloop
  endfacet
  facet normal -4.088717e-012 0.000000e+000 1.000000e+000
    outer loop
      vertex   -5.810167e+001 1.135975e+002 3.000000e+000
      vertex   -5.810004e+001 1.136004e+002 3.000000e+000
      vertex   -5.810004e+001 1.186004e+002 3.000000e+000
    endloop
  endfacet
  facet normal -6.369043e-018 1.198027e-015 1.000000e+000
    outer loop
      vertex   -6.400000e+001 1.245000e+002 3.000000e+000
      vertex   -5.810004e+001 1.186004e+002 3.000000e+000
      vertex   -5.364079e+001 1.186241e+002 3.000000e+000
    endloop
  endfacet
  facet normal -0.000000e+000 1.209255e-015 1.000000e+000
    outer loop
      vertex   -3.200000e+001 1.245000e+002 3.000000e+000
      vertex   -5.364079e+001 1.186241e+002 3.000000e+000
      vertex   -1.064079e+001 1.186241e+002 3.000000e+000
    endloop
  endfacet
  facet normal 1.862361e-015 -2.163350e-015 1.000000e+000
    outer loop
      vertex   0.000000e+000 1.245000e+002 3.000000e+000
      vertex   -1.064079e+001 1.186241e+002 3.000000e+000
      vertex   -5.899594e+000 1.186001e+002 3.000000e+000
    endloop
  endfacet
  facet normal 0.000000e+000 -3.345585e-015 1.000000e+000
    outer loop
      vertex   -5.889793e+000 1.139542e+002 3.000000e+000
      vertex   -5.899594e+000 1.186001e+002 3.000000e+000
      vertex   -5.899594e+000 1.139542e+002 3.000000e+000
    endloop
  endfacet
  facet normal 3.038246e-015 -3.339176e-015 1.000000e+000
    outer loop
      vertex   -5.889793e+000 1.139542e+002 3.000000e+000
      vertex   0.000000e+000 1.245000e+002 3.000000e+000
      vertex   -5.899594e+000 1.186001e+002 3.000000e+000
    endloop
  endfacet
  facet normal -2.940592e-015 0.000000e+000 1.000000e+000
    outer loop
      vertex   -5.889793e+000 1.139542e+002 3.000000e+000
      vertex   0.000000e+000 8.383333e+001 3.000000e+000
      vertex   0.000000e+000 1.245000e+002 3.000000e+000
    endloop
  endfacet
  facet normal -1.186665e-015 3.429600e-016 1.000000e+000
    outer loop
      vertex   -5.889793e+000 1.139542e+002 3.000000e+000
      vertex   -5.889793e+000 6.345425e+001 3.000000e+000
      vertex   0.000000e+000 8.383333e+001 3.000000e+000
    endloop
  endfacet
  facet normal 0.000000e+000 0.000000e+000 1.000000e+000
    outer loop
      vertex   0.000000e+000 8.383333e+001 3.000000e+000
      vertex   -5.889793e+000 6.345425e+001 3.000000e+000
      vertex   0.000000e+000 4.316667e+001 3.000000e+000
    endloop
  endfacet
  facet normal -1.181337e-015 -3.429600e-016 1.000000e+000
    outer loop
      vertex   0.000000e+000 4.316667e+001 3.000000e+000
      vertex   -5.889793e+000 6.345425e+001 3.000000e+000
      vertex   -5.889793e+000 1.295425e+001 3.000000e+000
    endloop
  endfacet
  facet normal 3.103786e-015 3.405327e-015 1.000000e+000
    outer loop
      vertex   0.000000e+000 2.500000e+000 3.000000e+000
      vertex   -5.889793e+000 1.295425e+001 3.000000e+000
      vertex   -5.900460e+000 8.399615e+000 3.000000e+000
    endloop
  endfacet
  facet normal 0.000000e+000 3.010971e-016 1.000000e+000
    outer loop
      vertex   -1.090046e+001 8.399615e+000 3.000000e+000
      vertex   0.000000e+000 2.500000e+000 3.000000e+000
      vertex   -5.900460e+000 8.399615e+000 3.000000e+000
    endloop
  endfacet
  facet normal -0.000000e+000 3.010971e-016 1.000000e+000
    outer loop
      vertex   -1.090046e+001 8.399615e+000 3.000000e+000
      vertex   -3.200000e+001 2.500000e+000 3.000000e+000
      vertex   0.000000e+000 2.500000e+000 3.000000e+000
    endloop
  endfacet
  facet normal 8.418936e-017 0.000000e+000 1.000000e+000
    outer loop
      vertex   -1.090046e+001 8.399615e+000 3.000000e+000
      vertex   -3.200000e+001 8.399937e+000 3.000000e+000
      vertex   -3.200000e+001 2.500000e+000 3.000000e+000
    endloop
  endfacet
  facet normal 9.032351e-017 4.021091e-013 1.000000e+000
    outer loop
      vertex   -1.090046e+001 8.399615e+000 3.000000e+000
      vertex   -1.090046e+001 8.438269e+000 3.000000e+000
      vertex   -3.200000e+001 8.399937e+000 3.000000e+000
    endloop
  endfacet
  facet normal 0.000000e+000 4.518268e-013 1.000000e+000
    outer loop
      vertex   -3.200000e+001 8.399937e+000 3.000000e+000
      vertex   -1.090046e+001 8.438269e+000 3.000000e+000
      vertex   -5.310004e+001 8.438269e+000 3.000000e+000
    endloop
  endfacet
  facet normal 3.488994e-016 6.438796e-013 1.000000e+000
    outer loop
      vertex   -5.310004e+001 8.400335e+000 3.000000e+000
      vertex   -3.200000e+001 8.399937e+000 3.000000e+000
      vertex   -5.310004e+001 8.438269e+000 3.000000e+000
    endloop
  endfacet
  facet normal 3.367495e-016 -0.000000e+000 1.000000e+000
    outer loop
      vertex   -5.310004e+001 8.400335e+000 3.000000e+000
      vertex   -3.200000e+001 2.500000e+000 3.000000e+000
      vertex   -3.200000e+001 8.399937e+000 3.000000e+000
    endloop
  endfacet
  facet normal 0.000000e+000 -1.204241e-015 1.000000e+000
    outer loop
      vertex   -5.310004e+001 8.400335e+000 3.000000e+000
      vertex   -6.400000e+001 2.500000e+000 3.000000e+000
      vertex   -3.200000e+001 2.500000e+000 3.000000e+000
    endloop
  endfacet
  facet normal 0.000000e+000 -1.204241e-015 1.000000e+000
    outer loop
      vertex   -5.310004e+001 8.400335e+000 3.000000e+000
      vertex   -5.810004e+001 8.400335e+000 3.000000e+000
      vertex   -6.400000e+001 2.500000e+000 3.000000e+000
    endloop
  endfacet
  facet normal -2.621664e-015 1.417256e-015 1.000000e+000
    outer loop
      vertex   -6.400000e+001 2.500000e+000 3.000000e+000
      vertex   -5.810004e+001 8.400335e+000 3.000000e+000
      vertex   -5.810167e+001 1.309749e+001 3.000000e+000
    endloop
  endfacet
  facet normal -3.023736e-017 8.837596e-018 1.000000e+000
    outer loop
      vertex   -6.400000e+001 4.316667e+001 3.000000e+000
      vertex   -5.810167e+001 1.309749e+001 3.000000e+000
      vertex   -5.810167e+001 6.334749e+001 3.000000e+000
    endloop
  endfacet
  facet normal -3.069437e-017 -8.837596e-018 1.000000e+000
    outer loop
      vertex   -6.400000e+001 8.383333e+001 3.000000e+000
      vertex   -5.810167e+001 6.334749e+001 3.000000e+000
      vertex   -5.810167e+001 1.135975e+002 3.000000e+000
    endloop
  endfacet
  facet normal -2.534892e-015 -1.330662e-015 1.000000e+000
    outer loop
      vertex   -6.400000e+001 1.245000e+002 3.000000e+000
      vertex   -5.810167e+001 1.135975e+002 3.000000e+000
      vertex   -5.810004e+001 1.186004e+002 3.000000e+000
    endloop
  endfacet
  facet normal -7.529063e-017 0.000000e+000 1.000000e+000
    outer loop
      vertex   -6.400000e+001 1.245000e+002 3.000000e+000
      vertex   -6.400000e+001 8.383333e+001 3.000000e+000
      vertex   -5.810167e+001 1.135975e+002 3.000000e+000
    endloop
  endfacet
  facet normal 0.000000e+000 0.000000e+000 1.000000e+000
    outer loop
      vertex   -5.810004e+001 1.186004e+002 3.000000e+000
      vertex   -5.364079e+001 1.186004e+002 3.000000e+000
      vertex   -5.364079e+001 1.186241e+002 3.000000e+000
    endloop
  endfacet
  facet normal 0.000000e+000 1.209255e-015 1.000000e+000
    outer loop
      vertex   -6.400000e+001 1.245000e+002 3.000000e+000
      vertex   -5.364079e+001 1.186241e+002 3.000000e+000
      vertex   -3.200000e+001 1.245000e+002 3.000000e+000
    endloop
  endfacet
  facet normal 1.873321e-015 1.385338e-028 1.000000e+000
    outer loop
      vertex   -1.064079e+001 1.186241e+002 3.000000e+000
      vertex   -1.064079e+001 1.186001e+002 3.000000e+000
      vertex   -5.899594e+000 1.186001e+002 3.000000e+000
    endloop
  endfacet
  facet normal 0.000000e+000 3.412596e-015 1.000000e+000
    outer loop
      vertex   -5.889793e+000 1.295425e+001 3.000000e+000
      vertex   -5.900460e+000 1.295425e+001 3.000000e+000
      vertex   -5.900460e+000 8.399615e+000 3.000000e+000
    endloop
  endfacet
  facet normal 0.000000e+000 1.418164e-015 1.000000e+000
    outer loop
      vertex   -5.810004e+001 8.400335e+000 3.000000e+000
      vertex   -5.810004e+001 1.309749e+001 3.000000e+000
      vertex   -5.810167e+001 1.309749e+001 3.000000e+000
    endloop
  endfacet
  facet normal -7.529063e-017 0.000000e+000 1.000000e+000
    outer loop
      vertex   -6.400000e+001 2.500000e+000 3.000000e+000
      vertex   -5.810167e+001 1.309749e+001 3.000000e+000
      vertex   -6.400000e+001 4.316667e+001 3.000000e+000
    endloop
  endfacet
  facet normal 0.000000e+000 -0.000000e+000 1.000000e+000
    outer loop
      vertex   -6.400000e+001 4.316667e+001 3.000000e+000
      vertex   -5.810167e+001 6.334749e+001 3.000000e+000
      vertex   -6.400000e+001 8.383333e+001 3.000000e+000
    endloop
  endfacet
  facet normal -2.940592e-015 0.000000e+000 1.000000e+000
    outer loop
      vertex   0.000000e+000 2.500000e+000 3.000000e+000
      vertex   0.000000e+000 4.316667e+001 3.000000e+000
      vertex   -5.889793e+000 1.295425e+001 3.000000e+000
    endloop
  endfacet
  facet normal 0.000000e+000 1.209255e-015 1.000000e+000
    outer loop
      vertex   0.000000e+000 1.245000e+002 3.000000e+000
      vertex   -3.200000e+001 1.245000e+002 3.000000e+000
      vertex   -1.064079e+001 1.186241e+002 3.000000e+000
    endloop
  endfacet
  facet normal -1.000000e+000 -0.000000e+000 -0.000000e+000
    outer loop
      vertex   -1.089959e+001 1.186001e+002 6.300000e+001
      vertex   -1.089959e+001 1.186001e+002 8.000000e+000
      vertex   -1.089959e+001 1.136001e+002 3.300000e+001
    endloop
  endfacet
  facet normal -1.000000e+000 0.000000e+000 -0.000000e+000
    outer loop
      vertex   -1.089959e+001 1.136001e+002 6.300000e+001
      vertex   -1.089959e+001 1.186001e+002 6.300000e+001
      vertex   -1.089959e+001 1.136001e+002 3.300000e+001
    endloop
  endfacet
  facet normal -1.000000e+000 -0.000000e+000 0.000000e+000
    outer loop
      vertex   -1.089959e+001 1.136241e+002 3.000000e+000
      vertex   -1.089959e+001 1.136001e+002 3.000000e+000
      vertex   -1.089959e+001 1.136241e+002 8.000000e+000
    endloop
  endfacet
  facet normal -1.000000e+000 -0.000000e+000 0.000000e+000
    outer loop
      vertex   -1.089959e+001 1.136241e+002 8.000000e+000
      vertex   -1.089959e+001 1.136001e+002 3.000000e+000
      vertex   -1.089959e+001 1.136001e+002 3.300000e+001
    endloop
  endfacet
  facet normal -1.000000e+000 0.000000e+000 0.000000e+000
    outer loop
      vertex   -1.089959e+001 1.186001e+002 8.000000e+000
      vertex   -1.089959e+001 1.136241e+002 8.000000e+000
      vertex   -1.089959e+001 1.136001e+002 3.300000e+001
    endloop
  endfacet
  facet normal 0.000000e+000 0.000000e+000 1.000000e+000
    outer loop
      vertex   -5.310004e+001 1.186004e+002 6.300000e+001
      vertex   -5.810004e+001 1.186004e+002 6.300000e+001
      vertex   -5.310004e+001 1.136004e+002 6.300000e+001
    endloop
  endfacet
  facet normal 0.000000e+000 0.000000e+000 1.000000e+000
    outer loop
      vertex   -5.310004e+001 1.136004e+002 6.300000e+001
      vertex   -5.810004e+001 1.186004e+002 6.300000e+001
      vertex   -5.810004e+001 1.136004e+002 6.300000e+001
    endloop
  endfacet
  facet normal 0.000000e+000 -1.000000e+000 0.000000e+000
    outer loop
      vertex   -5.810004e+001 1.136004e+002 6.300000e+001
      vertex   -5.810004e+001 1.136004e+002 3.300000e+001
      vertex   -5.310004e+001 1.136004e+002 6.300000e+001
    endloop
  endfacet
  facet normal 0.000000e+000 -1.000000e+000 -0.000000e+000
    outer loop
      vertex   -5.310004e+001 1.136004e+002 6.300000e+001
      vertex   -5.810004e+001 1.136004e+002 3.300000e+001
      vertex   -5.310004e+001 1.136004e+002 3.300000e+001
    endloop
  endfacet
  facet normal -0.000000e+000 -1.000000e+000 -0.000000e+000
    outer loop
      vertex   -5.310004e+001 1.136004e+002 3.300000e+001
      vertex   -5.810004e+001 1.136004e+002 3.300000e+001
      vertex   -5.810004e+001 1.136004e+002 3.000000e+000
    endloop
  endfacet
  facet normal -0.000000e+000 -1.000000e+000 0.000000e+000
    outer loop
      vertex   -5.310004e+001 1.136004e+002 3.000000e+000
      vertex   -5.310004e+001 1.136004e+002 3.300000e+001
      vertex   -5.810004e+001 1.136004e+002 3.000000e+000
    endloop
  endfacet
  facet normal -1.000000e+000 -0.000000e+000 -0.000000e+000
    outer loop
      vertex   -5.810004e+001 1.186004e+002 6.300000e+001
      vertex   -5.810004e+001 1.186004e+002 3.300000e+001
      vertex   -5.810004e+001 1.136004e+002 6.300000e+001
    endloop
  endfacet
  facet normal -1.000000e+000 -0.000000e+000 -0.000000e+000
    outer loop
      vertex   -5.810004e+001 1.136004e+002 6.300000e+001
      vertex   -5.810004e+001 1.186004e+002 3.300000e+001
      vertex   -5.810004e+001 1.136004e+002 3.300000e+001
    endloop
  endfacet
  facet normal -1.000000e+000 0.000000e+000 0.000000e+000
    outer loop
      vertex   -5.810004e+001 1.136004e+002 3.300000e+001
      vertex   -5.810004e+001 1.186004e+002 3.300000e+001
      vertex   -5.810004e+001 1.186004e+002 3.000000e+000
    endloop
  endfacet
  facet normal -1.000000e+000 0.000000e+000 0.000000e+000
    outer loop
      vertex   -5.810004e+001 1.136004e+002 3.000000e+000
      vertex   -5.810004e+001 1.136004e+002 3.300000e+001
      vertex   -5.810004e+001 1.186004e+002 3.000000e+000
    endloop
  endfacet
  facet normal 0.000000e+000 1.000000e+000 -0.000000e+000
    outer loop
      vertex   -5.364079e+001 1.186004e+002 3.000000e+000
      vertex   -5.810004e+001 1.186004e+002 3.000000e+000
      vertex   -5.364079e+001 1.186004e+002 8.000000e+000
    endloop
  endfacet
  facet normal 0.000000e+000 1.000000e+000 -0.000000e+000
    outer loop
      vertex   -5.364079e+001 1.186004e+002 8.000000e+000
      vertex   -5.810004e+001 1.186004e+002 3.000000e+000
      vertex   -5.810004e+001 1.186004e+002 3.300000e+001
    endloop
  endfacet
  facet normal 0.000000e+000 1.000000e+000 -0.000000e+000
    outer loop
      vertex   -5.310004e+001 1.186004e+002 6.300000e+001
      vertex   -5.810004e+001 1.186004e+002 3.300000e+001
      vertex   -5.810004e+001 1.186004e+002 6.300000e+001
    endloop
  endfacet
  facet normal 0.000000e+000 1.000000e+000 0.000000e+000
    outer loop
      vertex   -5.310004e+001 1.186004e+002 6.300000e+001
      vertex   -5.364079e+001 1.186004e+002 8.000000e+000
      vertex   -5.810004e+001 1.186004e+002 3.300000e+001
    endloop
  endfacet
  facet normal 0.000000e+000 1.000000e+000 0.000000e+000
    outer loop
      vertex   -5.310004e+001 1.186004e+002 6.300000e+001
      vertex   -5.310004e+001 1.186004e+002 8.000000e+000
      vertex   -5.364079e+001 1.186004e+002 8.000000e+000
    endloop
  endfacet
  facet normal 1.000000e+000 0.000000e+000 0.000000e+000
    outer loop
      vertex   -5.310004e+001 1.186004e+002 8.000000e+000
      vertex   -5.310004e+001 1.136004e+002 3.300000e+001
      vertex   -5.310004e+001 1.136241e+002 8.000000e+000
    endloop
  endfacet
  facet normal 1.000000e+000 0.000000e+000 -0.000000e+000
    outer loop
      vertex   -5.310004e+001 1.186004e+002 8.000000e+000
      vertex   -5.310004e+001 1.186004e+002 6.300000e+001
      vertex   -5.310004e+001 1.136004e+002 3.300000e+001
    endloop
  endfacet
  facet normal 1.000000e+000 0.000000e+000 -0.000000e+000
    outer loop
      vertex   -5.310004e+001 1.136004e+002 3.300000e+001
      vertex   -5.310004e+001 1.186004e+002 6.300000e+001
      vertex   -5.310004e+001 1.136004e+002 6.300000e+001
    endloop
  endfacet
  facet normal 1.000000e+000 -0.000000e+000 0.000000e+000
    outer loop
      vertex   -5.310004e+001 1.136004e+002 3.300000e+001
      vertex   -5.310004e+001 1.136004e+002 3.000000e+000
      vertex   -5.310004e+001 1.136241e+002 8.000000e+000
    endloop
  endfacet
  facet normal 1.000000e+000 -0.000000e+000 0.000000e+000
    outer loop
      vertex   -5.310004e+001 1.136241e+002 8.000000e+000
      vertex   -5.310004e+001 1.136004e+002 3.000000e+000
      vertex   -5.310004e+001 1.136241e+002 3.000000e+000
    endloop
  endfacet
  facet normal 0.000000e+000 0.000000e+000 1.000000e+000
    outer loop
      vertex   -5.899594e+000 1.186001e+002 6.300000e+001
      vertex   -1.089959e+001 1.186001e+002 6.300000e+001
      vertex   -5.899594e+000 1.136001e+002 6.300000e+001
    endloop
  endfacet
  facet normal 0.000000e+000 0.000000e+000 1.000000e+000
    outer loop
      vertex   -5.899594e+000 1.136001e+002 6.300000e+001
      vertex   -1.089959e+001 1.186001e+002 6.300000e+001
      vertex   -1.089959e+001 1.136001e+002 6.300000e+001
    endloop
  endfacet
  facet normal -0.000000e+000 -1.000000e+000 -0.000000e+000
    outer loop
      vertex   -5.899594e+000 1.136001e+002 8.000000e+000
      vertex   -1.089959e+001 1.136001e+002 3.300000e+001
      vertex   -1.088979e+001 1.136001e+002 8.000000e+000
    endloop
  endfacet
  facet normal -0.000000e+000 -1.000000e+000 0.000000e+000
    outer loop
      vertex   -5.899594e+000 1.136001e+002 8.000000e+000
      vertex   -5.899594e+000 1.136001e+002 6.300000e+001
      vertex   -1.089959e+001 1.136001e+002 3.300000e+001
    endloop
  endfacet
  facet normal 0.000000e+000 -1.000000e+000 0.000000e+000
    outer loop
      vertex   -1.089959e+001 1.136001e+002 3.300000e+001
      vertex   -5.899594e+000 1.136001e+002 6.300000e+001
      vertex   -1.089959e+001 1.136001e+002 6.300000e+001
    endloop
  endfacet
  facet normal 0.000000e+000 -1.000000e+000 0.000000e+000
    outer loop
      vertex   -1.089959e+001 1.136001e+002 3.300000e+001
      vertex   -1.089959e+001 1.136001e+002 3.000000e+000
      vertex   -1.088979e+001 1.136001e+002 8.000000e+000
    endloop
  endfacet
  facet normal 0.000000e+000 -1.000000e+000 -0.000000e+000
    outer loop
      vertex   -1.088979e+001 1.136001e+002 8.000000e+000
      vertex   -1.089959e+001 1.136001e+002 3.000000e+000
      vertex   -1.088979e+001 1.136001e+002 3.000000e+000
    endloop
  endfacet
  facet normal -0.000000e+000 1.000000e+000 0.000000e+000
    outer loop
      vertex   -1.089959e+001 1.186001e+002 8.000000e+000
      vertex   -1.089959e+001 1.186001e+002 6.300000e+001
      vertex   -1.064079e+001 1.186001e+002 8.000000e+000
    endloop
  endfacet
  facet normal -0.000000e+000 1.000000e+000 -0.000000e+000
    outer loop
      vertex   -1.064079e+001 1.186001e+002 8.000000e+000
      vertex   -1.089959e+001 1.186001e+002 6.300000e+001
      vertex   -5.899594e+000 1.186001e+002 3.300000e+001
    endloop
  endfacet
  facet normal 0.000000e+000 1.000000e+000 -0.000000e+000
    outer loop
      vertex   -5.899594e+000 1.186001e+002 3.000000e+000
      vertex   -1.064079e+001 1.186001e+002 8.000000e+000
      vertex   -5.899594e+000 1.186001e+002 3.300000e+001
    endloop
  endfacet
  facet normal 0.000000e+000 1.000000e+000 -0.000000e+000
    outer loop
      vertex   -5.899594e+000 1.186001e+002 3.000000e+000
      vertex   -1.064079e+001 1.186001e+002 3.000000e+000
      vertex   -1.064079e+001 1.186001e+002 8.000000e+000
    endloop
  endfacet
  facet normal -0.000000e+000 1.000000e+000 0.000000e+000
    outer loop
      vertex   -1.089959e+001 1.186001e+002 6.300000e+001
      vertex   -5.899594e+000 1.186001e+002 6.300000e+001
      vertex   -5.899594e+000 1.186001e+002 3.300000e+001
    endloop
  endfacet
  facet normal 0.000000e+000 0.000000e+000 1.000000e+000
    outer loop
      vertex   -5.900460e+000 1.339962e+001 6.300000e+001
      vertex   -1.090046e+001 1.339962e+001 6.300000e+001
      vertex   -5.900460e+000 8.399615e+000 6.300000e+001
    endloop
  endfacet
  facet normal 0.000000e+000 0.000000e+000 1.000000e+000
    outer loop
      vertex   -5.900460e+000 8.399615e+000 6.300000e+001
      vertex   -1.090046e+001 1.339962e+001 6.300000e+001
      vertex   -1.090046e+001 8.399615e+000 6.300000e+001
    endloop
  endfacet
  facet normal 0.000000e+000 -1.000000e+000 0.000000e+000
    outer loop
      vertex   -1.090046e+001 8.399615e+000 6.300000e+001
      vertex   -1.090046e+001 8.399615e+000 3.300000e+001
      vertex   -5.900460e+000 8.399615e+000 6.300000e+001
    endloop
  endfacet
  facet normal 0.000000e+000 -1.000000e+000 -0.000000e+000
    outer loop
      vertex   -5.900460e+000 8.399615e+000 6.300000e+001
      vertex   -1.090046e+001 8.399615e+000 3.300000e+001
      vertex   -5.900460e+000 8.399615e+000 3.300000e+001
    endloop
  endfacet
  facet normal -0.000000e+000 -1.000000e+000 -0.000000e+000
    outer loop
      vertex   -5.900460e+000 8.399615e+000 3.300000e+001
      vertex   -1.090046e+001 8.399615e+000 3.300000e+001
      vertex   -1.090046e+001 8.399615e+000 3.000000e+000
    endloop
  endfacet
  facet normal -0.000000e+000 -1.000000e+000 0.000000e+000
    outer loop
      vertex   -5.900460e+000 8.399615e+000 3.000000e+000
      vertex   -5.900460e+000 8.399615e+000 3.300000e+001
      vertex   -1.090046e+001 8.399615e+000 3.000000e+000
    endloop
  endfacet
  facet normal 1.000000e+000 0.000000e+000 -0.000000e+000
    outer loop
      vertex   -5.900460e+000 1.339962e+001 8.000000e+000
      vertex   -5.900460e+000 1.339962e+001 6.300000e+001
      vertex   -5.900460e+000 1.295425e+001 8.000000e+000
    endloop
  endfacet
  facet normal 1.000000e+000 0.000000e+000 -0.000000e+000
    outer loop
      vertex   -5.900460e+000 1.295425e+001 8.000000e+000
      vertex   -5.900460e+000 1.339962e+001 6.300000e+001
      vertex   -5.900460e+000 8.399615e+000 3.300000e+001
    endloop
  endfacet
  facet normal 1.000000e+000 0.000000e+000 -0.000000e+000
    outer loop
      vertex   -5.900460e+000 8.399615e+000 3.000000e+000
      vertex   -5.900460e+000 1.295425e+001 8.000000e+000
      vertex   -5.900460e+000 8.399615e+000 3.300000e+001
    endloop
  endfacet
  facet normal 1.000000e+000 -0.000000e+000 0.000000e+000
    outer loop
      vertex   -5.900460e+000 8.399615e+000 3.000000e+000
      vertex   -5.900460e+000 1.295425e+001 3.000000e+000
      vertex   -5.900460e+000 1.295425e+001 8.000000e+000
    endloop
  endfacet
  facet normal 1.000000e+000 0.000000e+000 0.000000e+000
    outer loop
      vertex   -5.900460e+000 1.339962e+001 6.300000e+001
      vertex   -5.900460e+000 8.399615e+000 6.300000e+001
      vertex   -5.900460e+000 8.399615e+000 3.300000e+001
    endloop
  endfacet
  facet normal 0.000000e+000 0.000000e+000 1.000000e+000
    outer loop
      vertex   -5.310004e+001 1.340034e+001 6.300000e+001
      vertex   -5.810004e+001 1.340034e+001 6.300000e+001
      vertex   -5.310004e+001 8.400335e+000 6.300000e+001
    endloop
  endfacet
  facet normal 0.000000e+000 0.000000e+000 1.000000e+000
    outer loop
      vertex   -5.310004e+001 8.400335e+000 6.300000e+001
      vertex   -5.810004e+001 1.340034e+001 6.300000e+001
      vertex   -5.810004e+001 8.400335e+000 6.300000e+001
    endloop
  endfacet
  facet normal 0.000000e+000 -1.000000e+000 0.000000e+000
    outer loop
      vertex   -5.810004e+001 8.400335e+000 6.300000e+001
      vertex   -5.810004e+001 8.400335e+000 3.300000e+001
      vertex   -5.310004e+001 8.400335e+000 6.300000e+001
    endloop
  endfacet
  facet normal 0.000000e+000 -1.000000e+000 -0.000000e+000
    outer loop
      vertex   -5.310004e+001 8.400335e+000 6.300000e+001
      vertex   -5.810004e+001 8.400335e+000 3.300000e+001
      vertex   -5.310004e+001 8.400335e+000 3.300000e+001
    endloop
  endfacet
  facet normal -0.000000e+000 -1.000000e+000 -0.000000e+000
    outer loop
      vertex   -5.310004e+001 8.400335e+000 3.300000e+001
      vertex   -5.810004e+001 8.400335e+000 3.300000e+001
      vertex   -5.810004e+001 8.400335e+000 3.000000e+000
    endloop
  endfacet
  facet normal -0.000000e+000 -1.000000e+000 0.000000e+000
    outer loop
      vertex   -5.310004e+001 8.400335e+000 3.000000e+000
      vertex   -5.310004e+001 8.400335e+000 3.300000e+001
      vertex   -5.810004e+001 8.400335e+000 3.000000e+000
    endloop
  endfacet
  facet normal 1.000000e+000 0.000000e+000 0.000000e+000
    outer loop
      vertex   -5.310004e+001 1.340034e+001 8.000000e+000
      vertex   -5.310004e+001 8.400335e+000 3.300000e+001
      vertex   -5.310004e+001 8.438269e+000 8.000000e+000
    endloop
  endfacet
  facet normal 1.000000e+000 0.000000e+000 -0.000000e+000
    outer loop
      vertex   -5.310004e+001 1.340034e+001 8.000000e+000
      vertex   -5.310004e+001 1.340034e+001 6.300000e+001
      vertex   -5.310004e+001 8.400335e+000 3.300000e+001
    endloop
  endfacet
  facet normal 1.000000e+000 0.000000e+000 -0.000000e+000
    outer loop
      vertex   -5.310004e+001 8.400335e+000 3.300000e+001
      vertex   -5.310004e+001 1.340034e+001 6.300000e+001
      vertex   -5.310004e+001 8.400335e+000 6.300000e+001
    endloop
  endfacet
  facet normal 1.000000e+000 -0.000000e+000 0.000000e+000
    outer loop
      vertex   -5.310004e+001 8.400335e+000 3.300000e+001
      vertex   -5.310004e+001 8.400335e+000 3.000000e+000
      vertex   -5.310004e+001 8.438269e+000 8.000000e+000
    endloop
  endfacet
  facet normal 1.000000e+000 0.000000e+000 0.000000e+000
    outer loop
      vertex   -5.310004e+001 8.438269e+000 8.000000e+000
      vertex   -5.310004e+001 8.400335e+000 3.000000e+000
      vertex   -5.310004e+001 8.438269e+000 3.000000e+000
    endloop
  endfacet
  facet normal 0.000000e+000 -0.000000e+000 -1.000000e+000
    outer loop
      vertex   -3.200000e+001 1.245000e+002 0.000000e+000
      vertex   0.000000e+000 1.245000e+002 0.000000e+000
      vertex   -3.200000e+001 8.383333e+001 0.000000e+000
    endloop
  endfacet
  facet normal 0.000000e+000 -0.000000e+000 -1.000000e+000
    outer loop
      vertex   -6.400000e+001 8.383333e+001 0.000000e+000
      vertex   -3.200000e+001 8.383333e+001 0.000000e+000
      vertex   -6.400000e+001 4.316667e+001 0.000000e+000
    endloop
  endfacet
  facet normal 0.000000e+000 0.000000e+000 -1.000000e+000
    outer loop
      vertex   -6.400000e+001 8.383333e+001 0.000000e+000
      vertex   -3.200000e+001 1.245000e+002 0.000000e+000
      vertex   -3.200000e+001 8.383333e+001 0.000000e+000
    endloop
  endfacet
  facet normal 0.000000e+000 0.000000e+000 -1.000000e+000
    outer loop
      vertex   -6.400000e+001 8.383333e+001 0.000000e+000
      vertex   -6.400000e+001 1.245000e+002 0.000000e+000
      vertex   -3.200000e+001 1.245000e+002 0.000000e+000
    endloop
  endfacet
  facet normal 0.000000e+000 0.000000e+000 -1.000000e+000
    outer loop
      vertex   0.000000e+000 4.316667e+001 0.000000e+000
      vertex   -3.200000e+001 4.316667e+001 0.000000e+000
      vertex   0.000000e+000 8.383333e+001 0.000000e+000
    endloop
  endfacet
  facet normal -0.000000e+000 0.000000e+000 -1.000000e+000
    outer loop
      vertex   0.000000e+000 4.316667e+001 0.000000e+000
      vertex   -3.200000e+001 2.500000e+000 0.000000e+000
      vertex   -3.200000e+001 4.316667e+001 0.000000e+000
    endloop
  endfacet
  facet normal -0.000000e+000 -0.000000e+000 -1.000000e+000
    outer loop
      vertex   0.000000e+000 4.316667e+001 0.000000e+000
      vertex   0.000000e+000 2.500000e+000 0.000000e+000
      vertex   -3.200000e+001 2.500000e+000 0.000000e+000
    endloop
  endfacet
  facet normal 0.000000e+000 0.000000e+000 -1.000000e+000
    outer loop
      vertex   -3.200000e+001 2.500000e+000 0.000000e+000
      vertex   -6.400000e+001 2.500000e+000 0.000000e+000
      vertex   -3.200000e+001 4.316667e+001 0.000000e+000
    endloop
  endfacet
  facet normal -0.000000e+000 0.000000e+000 -1.000000e+000
    outer loop
      vertex   -3.200000e+001 4.316667e+001 0.000000e+000
      vertex   -6.400000e+001 2.500000e+000 0.000000e+000
      vertex   -6.400000e+001 4.316667e+001 0.000000e+000
    endloop
  endfacet
  facet normal -0.000000e+000 -0.000000e+000 -1.000000e+000
    outer loop
      vertex   -3.200000e+001 8.383333e+001 0.000000e+000
      vertex   -3.200000e+001 4.316667e+001 0.000000e+000
      vertex   -6.400000e+001 4.316667e+001 0.000000e+000
    endloop
  endfacet
  facet normal 0.000000e+000 -0.000000e+000 -1.000000e+000
    outer loop
      vertex   -3.200000e+001 8.383333e+001 0.000000e+000
      vertex   0.000000e+000 8.383333e+001 0.000000e+000
      vertex   -3.200000e+001 4.316667e+001 0.000000e+000
    endloop
  endfacet
  facet normal 0.000000e+000 0.000000e+000 -1.000000e+000
    outer loop
      vertex   -3.200000e+001 8.383333e+001 0.000000e+000
      vertex   0.000000e+000 1.245000e+002 0.000000e+000
      vertex   0.000000e+000 8.383333e+001 0.000000e+000
    endloop
  endfacet
  facet normal 0.000000e+000 -1.000000e+000 0.000000e+000
    outer loop
      vertex   -6.400000e+001 2.500000e+000 3.000000e+000
      vertex   -6.400000e+001 2.500000e+000 0.000000e+000
      vertex   -3.200000e+001 2.500000e+000 3.000000e+000
    endloop
  endfacet
  facet normal 0.000000e+000 -1.000000e+000 -0.000000e+000
    outer loop
      vertex   -3.200000e+001 2.500000e+000 3.000000e+000
      vertex   -6.400000e+001 2.500000e+000 0.000000e+000
      vertex   -3.200000e+001 2.500000e+000 0.000000e+000
    endloop
  endfacet
  facet normal 0.000000e+000 -1.000000e+000 -0.000000e+000
    outer loop
      vertex   0.000000e+000 2.500000e+000 3.000000e+000
      vertex   -3.200000e+001 2.500000e+000 0.000000e+000
      vertex   0.000000e+000 2.500000e+000 0.000000e+000
    endloop
  endfacet
  facet normal -0.000000e+000 -1.000000e+000 -0.000000e+000
    outer loop
      vertex   0.000000e+000 2.500000e+000 3.000000e+000
      vertex   -3.200000e+001 2.500000e+000 3.000000e+000
      vertex   -3.200000e+001 2.500000e+000 0.000000e+000
    endloop
  endfacet
  facet normal -1.000000e+000 -0.000000e+000 -0.000000e+000
    outer loop
      vertex   -6.400000e+001 1.245000e+002 3.000000e+000
      vertex   -6.400000e+001 1.245000e+002 0.000000e+000
      vertex   -6.400000e+001 8.383333e+001 3.000000e+000
    endloop
  endfacet
  facet normal -1.000000e+000 -0.000000e+000 -0.000000e+000
    outer loop
      vertex   -6.400000e+001 8.383333e+001 3.000000e+000
      vertex   -6.400000e+001 1.245000e+002 0.000000e+000
      vertex   -6.400000e+001 8.383333e+001 0.000000e+000
    endloop
  endfacet
  facet normal -1.000000e+000 -0.000000e+000 -0.000000e+000
    outer loop
      vertex   -6.400000e+001 4.316667e+001 3.000000e+000
      vertex   -6.400000e+001 8.383333e+001 0.000000e+000
      vertex   -6.400000e+001 4.316667e+001 0.000000e+000
    endloop
  endfacet
  facet normal -1.000000e+000 -0.000000e+000 -0.000000e+000
    outer loop
      vertex   -6.400000e+001 2.500000e+000 3.000000e+000
      vertex   -6.400000e+001 4.316667e+001 0.000000e+000
      vertex   -6.400000e+001 2.500000e+000 0.000000e+000
    endloop
  endfacet
  facet normal -1.000000e+000 0.000000e+000 0.000000e+000
    outer loop
      vertex   -6.400000e+001 2.500000e+000 3.000000e+000
      vertex   -6.400000e+001 4.316667e+001 3.000000e+000
      vertex   -6.400000e+001 4.316667e+001 0.000000e+000
    endloop
  endfacet
  facet normal -1.000000e+000 -0.000000e+000 -0.000000e+000
    outer loop
      vertex   -6.400000e+001 8.383333e+001 3.000000e+000
      vertex   -6.400000e+001 8.383333e+001 0.000000e+000
      vertex   -6.400000e+001 4.316667e+001 3.000000e+000
    endloop
  endfacet
  facet normal 0.000000e+000 1.000000e+000 0.000000e+000
    outer loop
      vertex   0.000000e+000 1.245000e+002 3.000000e+000
      vertex   0.000000e+000 1.245000e+002 0.000000e+000
      vertex   -3.200000e+001 1.245000e+002 3.000000e+000
    endloop
  endfacet
  facet normal 0.000000e+000 1.000000e+000 0.000000e+000
    outer loop
      vertex   -3.200000e+001 1.245000e+002 3.000000e+000
      vertex   0.000000e+000 1.245000e+002 0.000000e+000
      vertex   -3.200000e+001 1.245000e+002 0.000000e+000
    endloop
  endfacet
  facet normal 0.000000e+000 1.000000e+000 0.000000e+000
    outer loop
      vertex   -6.400000e+001 1.245000e+002 3.000000e+000
      vertex   -3.200000e+001 1.245000e+002 0.000000e+000
      vertex   -6.400000e+001 1.245000e+002 0.000000e+000
    endloop
  endfacet
  facet normal -0.000000e+000 1.000000e+000 0.000000e+000
    outer loop
      vertex   -6.400000e+001 1.245000e+002 3.000000e+000
      vertex   -3.200000e+001 1.245000e+002 3.000000e+000
      vertex   -3.200000e+001 1.245000e+002 0.000000e+000
    endloop
  endfacet
  facet normal 1.000000e+000 -0.000000e+000 0.000000e+000
    outer loop
      vertex   0.000000e+000 2.500000e+000 3.000000e+000
      vertex   0.000000e+000 2.500000e+000 0.000000e+000
      vertex   0.000000e+000 4.316667e+001 3.000000e+000
    endloop
  endfacet
  facet normal 1.000000e+000 -0.000000e+000 0.000000e+000
    outer loop
      vertex   0.000000e+000 4.316667e+001 3.000000e+000
      vertex   0.000000e+000 2.500000e+000 0.000000e+000
      vertex   0.000000e+000 4.316667e+001 0.000000e+000
    endloop
  endfacet
  facet normal 1.000000e+000 -0.000000e+000 0.000000e+000
    outer loop
      vertex   0.000000e+000 8.383333e+001 3.000000e+000
      vertex   0.000000e+000 4.316667e+001 0.000000e+000
      vertex   0.000000e+000 8.383333e+001 0.000000e+000
    endloop
  endfacet
  facet normal 1.000000e+000 -0.000000e+000 0.000000e+000
    outer loop
      vertex   0.000000e+000 1.245000e+002 3.000000e+000
      vertex   0.000000e+000 8.383333e+001 0.000000e+000
      vertex   0.000000e+000 1.245000e+002 0.000000e+000
    endloop
  endfacet
  facet normal 1.000000e+000 0.000000e+000 0.000000e+000
    outer loop
      vertex   0.000000e+000 1.245000e+002 3.000000e+000
      vertex   0.000000e+000 8.383333e+001 3.000000e+000
      vertex   0.000000e+000 8.383333e+001 0.000000e+000
    endloop
  endfacet
  facet normal 1.000000e+000 -0.000000e+000 0.000000e+000
    outer loop
      vertex   0.000000e+000 4.316667e+001 3.000000e+000
      vertex   0.000000e+000 4.316667e+001 0.000000e+000
      vertex   0.000000e+000 8.383333e+001 3.000000e+000
    endloop
  endfacet
endsolid
