solid OpenSCAD_Model
  facet normal 0.994522 0.104529 0
    outer loop
      vertex 10 0 2
      vertex 9.78148 2.07912 0
      vertex 9.78148 2.07912 2
    endloop
  endfacet
  facet normal 0.994522 0.104529 0
    outer loop
      vertex 9.78148 2.07912 0
      vertex 10 0 2
      vertex 10 0 0
    endloop
  endfacet
  facet normal -0.994522 0.104529 0
    outer loop
      vertex -10 0 0
      vertex -9.78148 2.07912 2
      vertex -9.78148 2.07912 0
    endloop
  endfacet
  facet normal -0.994522 0.104529 0
    outer loop
      vertex -9.78148 2.07912 2
      vertex -10 0 0
      vertex -10 0 2
    endloop
  endfacet
  facet normal 0 1 -0
    outer loop
      vertex 1.04528 9.94522 0
      vertex -1.04528 9.94522 2
      vertex 1.04528 9.94522 2
    endloop
  endfacet
  facet normal 0 1 0
    outer loop
      vertex -1.04528 9.94522 2
      vertex 1.04528 9.94522 0
      vertex -1.04528 9.94522 0
    endloop
  endfacet
  facet normal 0 -1 0
    outer loop
      vertex -1.04528 -9.94522 0
      vertex 1.04528 -9.94522 2
      vertex -1.04528 -9.94522 2
    endloop
  endfacet
  facet normal 0 -1 -0
    outer loop
      vertex 1.04528 -9.94522 2
      vertex -1.04528 -9.94522 0
      vertex 1.04528 -9.94522 0
    endloop
  endfacet
  facet normal 0.587785 0.809017 -0
    outer loop
      vertex 6.69131 7.43145 0
      vertex 5 8.66025 2
      vertex 6.69131 7.43145 2
    endloop
  endfacet
  facet normal 0.587785 0.809017 0
    outer loop
      vertex 5 8.66025 2
      vertex 6.69131 7.43145 0
      vertex 5 8.66025 0
    endloop
  endfacet
  facet normal 0.406737 0.913545 -0
    outer loop
      vertex 5 8.66025 0
      vertex 3.09017 9.51056 2
      vertex 5 8.66025 2
    endloop
  endfacet
  facet normal 0.406737 0.913545 0
    outer loop
      vertex 3.09017 9.51056 2
      vertex 5 8.66025 0
      vertex 3.09017 9.51056 0
    endloop
  endfacet
  facet normal -0.743145 0.669131 0
    outer loop
      vertex -8.09017 5.87785 0
      vertex -6.69131 7.43145 2
      vertex -6.69131 7.43145 0
    endloop
  endfacet
  facet normal -0.743145 0.669131 0
    outer loop
      vertex -6.69131 7.43145 2
      vertex -8.09017 5.87785 0
      vertex -8.09017 5.87785 2
    endloop
  endfacet
  facet normal -0.866026 0.5 0
    outer loop
      vertex -9.13545 4.06737 0
      vertex -8.09017 5.87785 2
      vertex -8.09017 5.87785 0
    endloop
  endfacet
  facet normal -0.866026 0.5 0
    outer loop
      vertex -8.09017 5.87785 2
      vertex -9.13545 4.06737 0
      vertex -9.13545 4.06737 2
    endloop
  endfacet
  facet normal -0.406737 0.913545 0
    outer loop
      vertex -3.09017 9.51056 0
      vertex -5 8.66025 2
      vertex -3.09017 9.51056 2
    endloop
  endfacet
  facet normal -0.406737 0.913545 0
    outer loop
      vertex -5 8.66025 2
      vertex -3.09017 9.51056 0
      vertex -5 8.66025 0
    endloop
  endfacet
  facet normal 0.866026 0.5 0
    outer loop
      vertex 9.13545 4.06737 2
      vertex 8.09017 5.87785 0
      vertex 8.09017 5.87785 2
    endloop
  endfacet
  facet normal 0.866026 0.5 0
    outer loop
      vertex 8.09017 5.87785 0
      vertex 9.13545 4.06737 2
      vertex 9.13545 4.06737 0
    endloop
  endfacet
  facet normal 0.951057 0.309017 0
    outer loop
      vertex 9.78148 2.07912 2
      vertex 9.13545 4.06737 0
      vertex 9.13545 4.06737 2
    endloop
  endfacet
  facet normal 0.951057 0.309017 0
    outer loop
      vertex 9.13545 4.06737 0
      vertex 9.78148 2.07912 2
      vertex 9.78148 2.07912 0
    endloop
  endfacet
  facet normal 0.743145 0.669131 0
    outer loop
      vertex 8.09017 5.87785 2
      vertex 6.69131 7.43145 0
      vertex 6.69131 7.43145 2
    endloop
  endfacet
  facet normal 0.743145 0.669131 0
    outer loop
      vertex 6.69131 7.43145 0
      vertex 8.09017 5.87785 2
      vertex 8.09017 5.87785 0
    endloop
  endfacet
  facet normal 0.207911 0.978148 -0
    outer loop
      vertex 3.09017 9.51056 0
      vertex 1.04528 9.94522 2
      vertex 3.09017 9.51056 2
    endloop
  endfacet
  facet normal 0.207911 0.978148 0
    outer loop
      vertex 1.04528 9.94522 2
      vertex 3.09017 9.51056 0
      vertex 1.04528 9.94522 0
    endloop
  endfacet
  facet normal -0.951057 0.309017 0
    outer loop
      vertex -9.78148 2.07912 0
      vertex -9.13545 4.06737 2
      vertex -9.13545 4.06737 0
    endloop
  endfacet
  facet normal -0.951057 0.309017 0
    outer loop
      vertex -9.13545 4.06737 2
      vertex -9.78148 2.07912 0
      vertex -9.78148 2.07912 2
    endloop
  endfacet
  facet normal 0 0 1
    outer loop
      vertex -3.5 -5 2
      vertex -5 -5 2
      vertex -3.5 -7 2
    endloop
  endfacet
  facet normal -0 0 1
    outer loop
      vertex -3.09017 9.51056 2
      vertex -2.5 7 2
      vertex -1.04528 9.94522 2
    endloop
  endfacet
  facet normal 0 0 1
    outer loop
      vertex -3.09017 9.51056 2
      vertex -3.5 7 2
      vertex -2.5 7 2
    endloop
  endfacet
  facet normal -0 0 1
    outer loop
      vertex -5 8.66025 2
      vertex -3.5 7 2
      vertex -3.09017 9.51056 2
    endloop
  endfacet
  facet normal -0 0 1
    outer loop
      vertex -6.69131 7.43145 2
      vertex -3.5 7 2
      vertex -5 8.66025 2
    endloop
  endfacet
  facet normal 0 0 1
    outer loop
      vertex -3.5 7 2
      vertex -5 5 2
      vertex -3.5 5 2
    endloop
  endfacet
  facet normal 0 0 1
    outer loop
      vertex -3.5 7 2
      vertex -6.69131 7.43145 2
      vertex -5 5 2
    endloop
  endfacet
  facet normal -0 0 1
    outer loop
      vertex -8.09017 5.87785 2
      vertex -5 5 2
      vertex -6.69131 7.43145 2
    endloop
  endfacet
  facet normal 0 0 1
    outer loop
      vertex -5 5 2
      vertex -7 3.5 2
      vertex -5 3.5 2
    endloop
  endfacet
  facet normal 0 0 1
    outer loop
      vertex -9.13545 4.06737 2
      vertex -7 2.5 2
      vertex -7 3.5 2
    endloop
  endfacet
  facet normal 0 0 1
    outer loop
      vertex -7 2.5 2
      vertex -9.78148 2.07912 2
      vertex -7 0.5 2
    endloop
  endfacet
  facet normal 0 0 1
    outer loop
      vertex -10 0 2
      vertex -7 0.5 2
      vertex -9.78148 2.07912 2
    endloop
  endfacet
  facet normal 0 -0 1
    outer loop
      vertex -9.78148 -2.07912 2
      vertex -7 -0.5 2
      vertex -10 0 2
    endloop
  endfacet
  facet normal -0 0 1
    outer loop
      vertex -9.13545 4.06737 2
      vertex -7 3.5 2
      vertex -8.09017 5.87785 2
    endloop
  endfacet
  facet normal 0 0 1
    outer loop
      vertex -5 5 2
      vertex -8.09017 5.87785 2
      vertex -7 3.5 2
    endloop
  endfacet
  facet normal 0 0 1
    outer loop
      vertex -2.5 -7 2
      vertex -0.5 -7 2
      vertex -0.5 -5 2
    endloop
  endfacet
  facet normal 0 0 1
    outer loop
      vertex -2.5 -7 2
      vertex -0.5 -5 2
      vertex -2.5 -5 2
    endloop
  endfacet
  facet normal 0 0 1
    outer loop
      vertex -0.5 -7 2
      vertex -2.5 -7 2
      vertex -1.04528 -9.94522 2
    endloop
  endfacet
  facet normal 0 0 1
    outer loop
      vertex -2.5 -7 2
      vertex -3.09017 -9.51056 2
      vertex -1.04528 -9.94522 2
    endloop
  endfacet
  facet normal -0 0 1
    outer loop
      vertex -3.5 -7 2
      vertex -3.09017 -9.51056 2
      vertex -2.5 -7 2
    endloop
  endfacet
  facet normal 0 0 1
    outer loop
      vertex -6.69131 -7.43145 2
      vertex -3.5 -7 2
      vertex -5 -5 2
    endloop
  endfacet
  facet normal 0 0 1
    outer loop
      vertex -3.5 -7 2
      vertex -5 -8.66025 2
      vertex -3.09017 -9.51056 2
    endloop
  endfacet
  facet normal 0 0 1
    outer loop
      vertex 1.04528 9.94522 2
      vertex -0.5 7 2
      vertex 0.5 7 2
    endloop
  endfacet
  facet normal -0 0 1
    outer loop
      vertex -1.04528 9.94522 2
      vertex -0.5 7 2
      vertex 1.04528 9.94522 2
    endloop
  endfacet
  facet normal 0 0 1
    outer loop
      vertex -2.5 7 2
      vertex -0.5 7 2
      vertex -1.04528 9.94522 2
    endloop
  endfacet
  facet normal 0 0 1
    outer loop
      vertex -0.5 7 2
      vertex -2.5 7 2
      vertex -0.5 5 2
    endloop
  endfacet
  facet normal 0 0 1
    outer loop
      vertex -0.5 5 2
      vertex -2.5 7 2
      vertex -2.5 5 2
    endloop
  endfacet
  facet normal 0 0 1
    outer loop
      vertex 0.5 -7 2
      vertex 2.5 -7 2
      vertex 2.5 -5 2
    endloop
  endfacet
  facet normal 0 0 1
    outer loop
      vertex 0.5 -7 2
      vertex 2.5 -5 2
      vertex 0.5 -5 2
    endloop
  endfacet
  facet normal 0 0 1
    outer loop
      vertex 2.5 -7 2
      vertex 0.5 -7 2
      vertex 1.04528 -9.94522 2
    endloop
  endfacet
  facet normal -0 0 1
    outer loop
      vertex -0.5 -7 2
      vertex 1.04528 -9.94522 2
      vertex 0.5 -7 2
    endloop
  endfacet
  facet normal 0 0 1
    outer loop
      vertex 1.04528 -9.94522 2
      vertex -0.5 -7 2
      vertex -1.04528 -9.94522 2
    endloop
  endfacet
  facet normal 0 0 1
    outer loop
      vertex 6.69131 7.43145 2
      vertex 3.5 7 2
      vertex 5 5 2
    endloop
  endfacet
  facet normal 0 0 1
    outer loop
      vertex 3.09017 9.51056 2
      vertex 3.5 7 2
      vertex 5 8.66025 2
    endloop
  endfacet
  facet normal 0 0 1
    outer loop
      vertex 3.09017 9.51056 2
      vertex 2.5 7 2
      vertex 3.5 7 2
    endloop
  endfacet
  facet normal 0 0 1
    outer loop
      vertex 1.04528 9.94522 2
      vertex 2.5 7 2
      vertex 3.09017 9.51056 2
    endloop
  endfacet
  facet normal 0 0 1
    outer loop
      vertex 0.5 7 2
      vertex 2.5 7 2
      vertex 1.04528 9.94522 2
    endloop
  endfacet
  facet normal 0 0 1
    outer loop
      vertex 2.5 7 2
      vertex 0.5 7 2
      vertex 2.5 5 2
    endloop
  endfacet
  facet normal 0 0 1
    outer loop
      vertex 2.5 5 2
      vertex 0.5 7 2
      vertex 0.5 5 2
    endloop
  endfacet
  facet normal -0 0 1
    outer loop
      vertex 5 -0.5 2
      vertex 7 -2.5 2
      vertex 7 -0.5 2
    endloop
  endfacet
  facet normal 0 0 1
    outer loop
      vertex 7 -2.5 2
      vertex 5 -0.5 2
      vertex 5 -2.5 2
    endloop
  endfacet
  facet normal -0 0 1
    outer loop
      vertex 5 2.5 2
      vertex 7 0.5 2
      vertex 7 2.5 2
    endloop
  endfacet
  facet normal 0 0 1
    outer loop
      vertex 7 0.5 2
      vertex 5 2.5 2
      vertex 5 0.5 2
    endloop
  endfacet
  facet normal -0 0 1
    outer loop
      vertex 7 0.5 2
      vertex 10 0 2
      vertex 9.78148 2.07912 2
    endloop
  endfacet
  facet normal -0 0 1
    outer loop
      vertex 7 2.5 2
      vertex 9.78148 2.07912 2
      vertex 9.13545 4.06737 2
    endloop
  endfacet
  facet normal 0 0 1
    outer loop
      vertex 7 -0.5 2
      vertex 10 0 2
      vertex 7 0.5 2
    endloop
  endfacet
  facet normal 0 0 1
    outer loop
      vertex 7 3.5 2
      vertex 9.13545 4.06737 2
      vertex 8.09017 5.87785 2
    endloop
  endfacet
  facet normal 0 0 1
    outer loop
      vertex 9.78148 2.07912 2
      vertex 7 2.5 2
      vertex 7 0.5 2
    endloop
  endfacet
  facet normal 0 0 1
    outer loop
      vertex 9.13545 4.06737 2
      vertex 7 3.5 2
      vertex 7 2.5 2
    endloop
  endfacet
  facet normal 0 0 1
    outer loop
      vertex 5 5 2
      vertex 8.09017 5.87785 2
      vertex 6.69131 7.43145 2
    endloop
  endfacet
  facet normal 0 0 1
    outer loop
      vertex 3.5 7 2
      vertex 6.69131 7.43145 2
      vertex 5 8.66025 2
    endloop
  endfacet
  facet normal 0 0 1
    outer loop
      vertex 8.09017 5.87785 2
      vertex 5 5 2
      vertex 7 3.5 2
    endloop
  endfacet
  facet normal 0 0 1
    outer loop
      vertex 7 3.5 2
      vertex 5 5 2
      vertex 5 3.5 2
    endloop
  endfacet
  facet normal 0 0 1
    outer loop
      vertex 10 0 2
      vertex 7 -0.5 2
      vertex 9.78148 -2.07912 2
    endloop
  endfacet
  facet normal 0 0 1
    outer loop
      vertex 7 -2.5 2
      vertex 9.78148 -2.07912 2
      vertex 7 -0.5 2
    endloop
  endfacet
  facet normal 0 0 1
    outer loop
      vertex 9.78148 -2.07912 2
      vertex 7 -2.5 2
      vertex 9.13545 -4.06737 2
    endloop
  endfacet
  facet normal -0 0 1
    outer loop
      vertex 7 -3.5 2
      vertex 9.13545 -4.06737 2
      vertex 7 -2.5 2
    endloop
  endfacet
  facet normal 0 0 1
    outer loop
      vertex 9.13545 -4.06737 2
      vertex 7 -3.5 2
      vertex 8.09017 -5.87785 2
    endloop
  endfacet
  facet normal -0 0 1
    outer loop
      vertex 5 -5 2
      vertex 8.09017 -5.87785 2
      vertex 7 -3.5 2
    endloop
  endfacet
  facet normal 0 0 1
    outer loop
      vertex 5 -5 2
      vertex 7 -3.5 2
      vertex 5 -3.5 2
    endloop
  endfacet
  facet normal 0 0 1
    outer loop
      vertex 8.09017 -5.87785 2
      vertex 5 -5 2
      vertex 6.69131 -7.43145 2
    endloop
  endfacet
  facet normal -0 0 1
    outer loop
      vertex 3.5 -7 2
      vertex 6.69131 -7.43145 2
      vertex 5 -5 2
    endloop
  endfacet
  facet normal 0 0 1
    outer loop
      vertex 3.5 -7 2
      vertex 5 -5 2
      vertex 3.5 -5 2
    endloop
  endfacet
  facet normal 0 0 1
    outer loop
      vertex 6.69131 -7.43145 2
      vertex 3.5 -7 2
      vertex 5 -8.66025 2
    endloop
  endfacet
  facet normal 0 0 1
    outer loop
      vertex 3.5 -7 2
      vertex 3.09017 -9.51056 2
      vertex 5 -8.66025 2
    endloop
  endfacet
  facet normal -0 0 1
    outer loop
      vertex 2.5 -7 2
      vertex 3.09017 -9.51056 2
      vertex 3.5 -7 2
    endloop
  endfacet
  facet normal 0 0 1
    outer loop
      vertex 3.09017 -9.51056 2
      vertex 2.5 -7 2
      vertex 1.04528 -9.94522 2
    endloop
  endfacet
  facet normal 0 0 1
    outer loop
      vertex 5 5 2
      vertex 3.5 7 2
      vertex 3.5 5 2
    endloop
  endfacet
  facet normal -0 0 1
    outer loop
      vertex -7 -3.5 2
      vertex -5 -5 2
      vertex -5 -3.5 2
    endloop
  endfacet
  facet normal 0 0 1
    outer loop
      vertex -3.5 -7 2
      vertex -6.69131 -7.43145 2
      vertex -5 -8.66025 2
    endloop
  endfacet
  facet normal 0 0 1
    outer loop
      vertex -8.09017 -5.87785 2
      vertex -5 -5 2
      vertex -7 -3.5 2
    endloop
  endfacet
  facet normal 0 0 1
    outer loop
      vertex -7 2.5 2
      vertex -9.13545 4.06737 2
      vertex -9.78148 2.07912 2
    endloop
  endfacet
  facet normal 0 0 1
    outer loop
      vertex -5 -5 2
      vertex -8.09017 -5.87785 2
      vertex -6.69131 -7.43145 2
    endloop
  endfacet
  facet normal 0 0 1
    outer loop
      vertex -7 0.5 2
      vertex -10 0 2
      vertex -7 -0.5 2
    endloop
  endfacet
  facet normal 0 0 1
    outer loop
      vertex -7 -3.5 2
      vertex -9.13545 -4.06737 2
      vertex -8.09017 -5.87785 2
    endloop
  endfacet
  facet normal 0 0 1
    outer loop
      vertex -7 -0.5 2
      vertex -9.78148 -2.07912 2
      vertex -7 -2.5 2
    endloop
  endfacet
  facet normal 0 0 1
    outer loop
      vertex -7 -2.5 2
      vertex -9.13545 -4.06737 2
      vertex -7 -3.5 2
    endloop
  endfacet
  facet normal 0 -0 1
    outer loop
      vertex -9.13545 -4.06737 2
      vertex -7 -2.5 2
      vertex -9.78148 -2.07912 2
    endloop
  endfacet
  facet normal -0 0 1
    outer loop
      vertex -7 2.5 2
      vertex -5 0.5 2
      vertex -5 2.5 2
    endloop
  endfacet
  facet normal 0 0 1
    outer loop
      vertex -5 0.5 2
      vertex -7 2.5 2
      vertex -7 0.5 2
    endloop
  endfacet
  facet normal -0 0 1
    outer loop
      vertex -7 -0.5 2
      vertex -5 -2.5 2
      vertex -5 -0.5 2
    endloop
  endfacet
  facet normal 0 0 1
    outer loop
      vertex -5 -2.5 2
      vertex -7 -0.5 2
      vertex -7 -2.5 2
    endloop
  endfacet
  facet normal 0 0 1
    outer loop
      vertex 0.988729 1.26527 2
      vertex -0.988729 1.26527 2
      vertex 0.988729 -1.26527 2
    endloop
  endfacet
  facet normal 0 0 1
    outer loop
      vertex 0.988729 -1.26527 2
      vertex -0.811179 -1.61373 2
      vertex -0.75 -2 2
    endloop
  endfacet
  facet normal 0 0 1
    outer loop
      vertex -0.988729 -1.26527 2
      vertex 0.988729 -1.26527 2
      vertex -0.988729 1.26527 2
    endloop
  endfacet
  facet normal 0 0 1
    outer loop
      vertex 0.988729 -1.26527 2
      vertex -0.988729 -1.26527 2
      vertex -0.811179 -1.61373 2
    endloop
  endfacet
  facet normal -0 0 1
    outer loop
      vertex -1.26527 0.988729 2
      vertex -0.988729 -1.26527 2
      vertex -0.988729 1.26527 2
    endloop
  endfacet
  facet normal 0 0 1
    outer loop
      vertex -1.26527 0.988729 2
      vertex -1.26527 -0.988729 2
      vertex -0.988729 -1.26527 2
    endloop
  endfacet
  facet normal -0 0 1
    outer loop
      vertex -1.61373 0.811179 2
      vertex -1.26527 -0.988729 2
      vertex -1.26527 0.988729 2
    endloop
  endfacet
  facet normal 0 0 1
    outer loop
      vertex -1.61373 0.811179 2
      vertex -1.61373 -0.811179 2
      vertex -1.26527 -0.988729 2
    endloop
  endfacet
  facet normal -0 0 1
    outer loop
      vertex -2 0.75 2
      vertex -1.61373 -0.811179 2
      vertex -1.61373 0.811179 2
    endloop
  endfacet
  facet normal 0 0 1
    outer loop
      vertex -2 0.75 2
      vertex -2 -0.75 2
      vertex -1.61373 -0.811179 2
    endloop
  endfacet
  facet normal 0 0 1
    outer loop
      vertex -2.38627 0.811179 2
      vertex -2 -0.75 2
      vertex -2 0.75 2
    endloop
  endfacet
  facet normal 0 0 1
    outer loop
      vertex -2.38627 0.811179 2
      vertex -2.38627 -0.811179 2
      vertex -2 -0.75 2
    endloop
  endfacet
  facet normal 0 0 1
    outer loop
      vertex -2.73473 0.988729 2
      vertex -2.38627 -0.811179 2
      vertex -2.38627 0.811179 2
    endloop
  endfacet
  facet normal 0 0 1
    outer loop
      vertex -2.73473 0.988729 2
      vertex -2.73473 -0.988729 2
      vertex -2.38627 -0.811179 2
    endloop
  endfacet
  facet normal 0 0 1
    outer loop
      vertex -3.01127 1.26527 2
      vertex -2.73473 -0.988729 2
      vertex -2.73473 0.988729 2
    endloop
  endfacet
  facet normal 0 0 1
    outer loop
      vertex -3.01127 1.26527 2
      vertex -3.01127 -1.26527 2
      vertex -2.73473 -0.988729 2
    endloop
  endfacet
  facet normal 0 0 1
    outer loop
      vertex -3.18882 1.61373 2
      vertex -3.01127 -1.26527 2
      vertex -3.01127 1.26527 2
    endloop
  endfacet
  facet normal 0 0 1
    outer loop
      vertex -3.18882 1.61373 2
      vertex -3.18882 -1.61373 2
      vertex -3.01127 -1.26527 2
    endloop
  endfacet
  facet normal 0 0 1
    outer loop
      vertex -4 4 2
      vertex -3.18882 1.61373 2
      vertex -3.25 2 2
    endloop
  endfacet
  facet normal 0 0 1
    outer loop
      vertex -3.18882 1.61373 2
      vertex -4 4 2
      vertex -3.18882 -1.61373 2
    endloop
  endfacet
  facet normal -0 0 1
    outer loop
      vertex 3.18882 -1.61373 2
      vertex 4 -4 2
      vertex 3.18882 1.61373 2
    endloop
  endfacet
  facet normal 0 0 1
    outer loop
      vertex 4 -4 2
      vertex 3.18882 -1.61373 2
      vertex 3.25 -2 2
    endloop
  endfacet
  facet normal -0 0 1
    outer loop
      vertex 3.01127 1.26527 2
      vertex 3.18882 -1.61373 2
      vertex 3.18882 1.61373 2
    endloop
  endfacet
  facet normal 0 0 1
    outer loop
      vertex 3.01127 1.26527 2
      vertex 3.01127 -1.26527 2
      vertex 3.18882 -1.61373 2
    endloop
  endfacet
  facet normal -0 0 1
    outer loop
      vertex 2.73473 0.988729 2
      vertex 3.01127 -1.26527 2
      vertex 3.01127 1.26527 2
    endloop
  endfacet
  facet normal 0 0 1
    outer loop
      vertex 2.73473 0.988729 2
      vertex 2.73473 -0.988729 2
      vertex 3.01127 -1.26527 2
    endloop
  endfacet
  facet normal -0 0 1
    outer loop
      vertex 2.38627 0.811179 2
      vertex 2.73473 -0.988729 2
      vertex 2.73473 0.988729 2
    endloop
  endfacet
  facet normal 0 0 1
    outer loop
      vertex 2.38627 0.811179 2
      vertex 2.38627 -0.811179 2
      vertex 2.73473 -0.988729 2
    endloop
  endfacet
  facet normal 0 0 1
    outer loop
      vertex 2.38627 0.811179 2
      vertex 2 -0.75 2
      vertex 2.38627 -0.811179 2
    endloop
  endfacet
  facet normal -0 0 1
    outer loop
      vertex 2 0.75 2
      vertex 2 -0.75 2
      vertex 2.38627 0.811179 2
    endloop
  endfacet
  facet normal 0 0 1
    outer loop
      vertex 1.61373 0.811179 2
      vertex 2 -0.75 2
      vertex 2 0.75 2
    endloop
  endfacet
  facet normal 0 0 1
    outer loop
      vertex 1.61373 0.811179 2
      vertex 1.61373 -0.811179 2
      vertex 2 -0.75 2
    endloop
  endfacet
  facet normal 0 0 1
    outer loop
      vertex 1.26527 0.988729 2
      vertex 1.61373 -0.811179 2
      vertex 1.61373 0.811179 2
    endloop
  endfacet
  facet normal 0 0 1
    outer loop
      vertex 1.26527 0.988729 2
      vertex 1.26527 -0.988729 2
      vertex 1.61373 -0.811179 2
    endloop
  endfacet
  facet normal 0 0 1
    outer loop
      vertex 0.988729 1.26527 2
      vertex 1.26527 -0.988729 2
      vertex 1.26527 0.988729 2
    endloop
  endfacet
  facet normal 0 0 1
    outer loop
      vertex 0.988729 1.26527 2
      vertex 0.988729 -1.26527 2
      vertex 1.26527 -0.988729 2
    endloop
  endfacet
  facet normal 0 0 1
    outer loop
      vertex -0.811179 1.61373 2
      vertex 0.811179 1.61373 2
      vertex -0.75 2 2
    endloop
  endfacet
  facet normal 0 0 1
    outer loop
      vertex 0.811179 1.61373 2
      vertex -0.811179 1.61373 2
      vertex 0.988729 1.26527 2
    endloop
  endfacet
  facet normal -0 0 1
    outer loop
      vertex -0.75 2 2
      vertex 0.811179 1.61373 2
      vertex 0.75 2 2
    endloop
  endfacet
  facet normal 0 0 1
    outer loop
      vertex -0.988729 1.26527 2
      vertex 0.988729 1.26527 2
      vertex -0.811179 1.61373 2
    endloop
  endfacet
  facet normal 0 0 1
    outer loop
      vertex 3.18882 1.61373 2
      vertex 4 4 2
      vertex 3.25 2 2
    endloop
  endfacet
  facet normal 0 0 1
    outer loop
      vertex 4 4 2
      vertex 3.18882 2.38627 2
      vertex 3.25 2 2
    endloop
  endfacet
  facet normal 0 0 1
    outer loop
      vertex 4 4 2
      vertex 3.01127 2.73473 2
      vertex 3.18882 2.38627 2
    endloop
  endfacet
  facet normal 0 0 1
    outer loop
      vertex 4 4 2
      vertex 2.73473 3.01127 2
      vertex 3.01127 2.73473 2
    endloop
  endfacet
  facet normal 0 0 1
    outer loop
      vertex 4 4 2
      vertex 2.38627 3.18882 2
      vertex 2.73473 3.01127 2
    endloop
  endfacet
  facet normal 0 0 1
    outer loop
      vertex 4 4 2
      vertex 2 3.25 2
      vertex 2.38627 3.18882 2
    endloop
  endfacet
  facet normal 0 0 1
    outer loop
      vertex 4 4 2
      vertex 1.61373 3.18882 2
      vertex 2 3.25 2
    endloop
  endfacet
  facet normal 0 0 1
    outer loop
      vertex 0.988729 -1.26527 2
      vertex -0.75 -2 2
      vertex 0.811179 -1.61373 2
    endloop
  endfacet
  facet normal 0 0 1
    outer loop
      vertex 0.811179 2.38627 2
      vertex -0.75 2 2
      vertex 0.75 2 2
    endloop
  endfacet
  facet normal 0 0 1
    outer loop
      vertex -0.811179 2.38627 2
      vertex 0.811179 2.38627 2
      vertex 0.988729 2.73473 2
    endloop
  endfacet
  facet normal 0 0 1
    outer loop
      vertex -0.988729 2.73473 2
      vertex 0.988729 2.73473 2
      vertex 1.26527 3.01127 2
    endloop
  endfacet
  facet normal 0 0 1
    outer loop
      vertex -1.26527 3.01127 2
      vertex 1.26527 3.01127 2
      vertex 1.61373 3.18882 2
    endloop
  endfacet
  facet normal 0 0 1
    outer loop
      vertex 0.811179 2.38627 2
      vertex -0.811179 2.38627 2
      vertex -0.75 2 2
    endloop
  endfacet
  facet normal 0 0 1
    outer loop
      vertex -1.61373 3.18882 2
      vertex 1.61373 3.18882 2
      vertex 4 4 2
    endloop
  endfacet
  facet normal 0 0 1
    outer loop
      vertex 0.988729 2.73473 2
      vertex -0.988729 2.73473 2
      vertex -0.811179 2.38627 2
    endloop
  endfacet
  facet normal 0 0 1
    outer loop
      vertex 1.26527 3.01127 2
      vertex -1.26527 3.01127 2
      vertex -0.988729 2.73473 2
    endloop
  endfacet
  facet normal 0 0 1
    outer loop
      vertex 1.61373 3.18882 2
      vertex -1.61373 3.18882 2
      vertex -1.26527 3.01127 2
    endloop
  endfacet
  facet normal -0 0 1
    outer loop
      vertex -4 4 2
      vertex -1.61373 3.18882 2
      vertex 4 4 2
    endloop
  endfacet
  facet normal 0 0 1
    outer loop
      vertex -4 -4 2
      vertex -3.18882 -1.61373 2
      vertex -4 4 2
    endloop
  endfacet
  facet normal 0 0 1
    outer loop
      vertex -3.18882 2.38627 2
      vertex -4 4 2
      vertex -3.25 2 2
    endloop
  endfacet
  facet normal 0 0 1
    outer loop
      vertex -3.01127 2.73473 2
      vertex -4 4 2
      vertex -3.18882 2.38627 2
    endloop
  endfacet
  facet normal 0 0 1
    outer loop
      vertex -2.73473 3.01127 2
      vertex -4 4 2
      vertex -3.01127 2.73473 2
    endloop
  endfacet
  facet normal 0 0 1
    outer loop
      vertex -2.38627 3.18882 2
      vertex -4 4 2
      vertex -2.73473 3.01127 2
    endloop
  endfacet
  facet normal 0 0 1
    outer loop
      vertex -2 3.25 2
      vertex -4 4 2
      vertex -2.38627 3.18882 2
    endloop
  endfacet
  facet normal 0 0 1
    outer loop
      vertex -1.61373 3.18882 2
      vertex -4 4 2
      vertex -2 3.25 2
    endloop
  endfacet
  facet normal 0 0 1
    outer loop
      vertex 4 4 2
      vertex 3.18882 1.61373 2
      vertex 4 -4 2
    endloop
  endfacet
  facet normal -0 0 1
    outer loop
      vertex 3.18882 -2.38627 2
      vertex 4 -4 2
      vertex 3.25 -2 2
    endloop
  endfacet
  facet normal -0 0 1
    outer loop
      vertex 3.01127 -2.73473 2
      vertex 4 -4 2
      vertex 3.18882 -2.38627 2
    endloop
  endfacet
  facet normal -0 0 1
    outer loop
      vertex 2.73473 -3.01127 2
      vertex 4 -4 2
      vertex 3.01127 -2.73473 2
    endloop
  endfacet
  facet normal -0 0 1
    outer loop
      vertex 2.38627 -3.18882 2
      vertex 4 -4 2
      vertex 2.73473 -3.01127 2
    endloop
  endfacet
  facet normal -0 0 1
    outer loop
      vertex 2 -3.25 2
      vertex 4 -4 2
      vertex 2.38627 -3.18882 2
    endloop
  endfacet
  facet normal 0 0 1
    outer loop
      vertex 1.61373 -3.18882 2
      vertex 4 -4 2
      vertex 2 -3.25 2
    endloop
  endfacet
  facet normal 0 0 1
    outer loop
      vertex 0.811179 -1.61373 2
      vertex -0.75 -2 2
      vertex 0.75 -2 2
    endloop
  endfacet
  facet normal 0 0 1
    outer loop
      vertex 0.75 -2 2
      vertex -0.75 -2 2
      vertex 0.811179 -2.38627 2
    endloop
  endfacet
  facet normal 0 0 1
    outer loop
      vertex -0.811179 -2.38627 2
      vertex 0.811179 -2.38627 2
      vertex -0.75 -2 2
    endloop
  endfacet
  facet normal 0 0 1
    outer loop
      vertex 0.811179 -2.38627 2
      vertex -0.811179 -2.38627 2
      vertex 0.988729 -2.73473 2
    endloop
  endfacet
  facet normal 0 0 1
    outer loop
      vertex -0.988729 -2.73473 2
      vertex 0.988729 -2.73473 2
      vertex -0.811179 -2.38627 2
    endloop
  endfacet
  facet normal 0 0 1
    outer loop
      vertex 0.988729 -2.73473 2
      vertex -0.988729 -2.73473 2
      vertex 1.26527 -3.01127 2
    endloop
  endfacet
  facet normal 0 0 1
    outer loop
      vertex -1.26527 -3.01127 2
      vertex 1.26527 -3.01127 2
      vertex -0.988729 -2.73473 2
    endloop
  endfacet
  facet normal 0 0 1
    outer loop
      vertex 1.26527 -3.01127 2
      vertex -1.26527 -3.01127 2
      vertex 1.61373 -3.18882 2
    endloop
  endfacet
  facet normal 0 0 1
    outer loop
      vertex -1.61373 -3.18882 2
      vertex 1.61373 -3.18882 2
      vertex -1.26527 -3.01127 2
    endloop
  endfacet
  facet normal 0 0 1
    outer loop
      vertex 1.61373 -3.18882 2
      vertex -1.61373 -3.18882 2
      vertex 4 -4 2
    endloop
  endfacet
  facet normal 0 0 1
    outer loop
      vertex -4 -4 2
      vertex -1.61373 -3.18882 2
      vertex -2 -3.25 2
    endloop
  endfacet
  facet normal 0 0 1
    outer loop
      vertex -1.61373 -3.18882 2
      vertex -4 -4 2
      vertex 4 -4 2
    endloop
  endfacet
  facet normal 0 0 1
    outer loop
      vertex -2.38627 -3.18882 2
      vertex -4 -4 2
      vertex -2 -3.25 2
    endloop
  endfacet
  facet normal 0 0 1
    outer loop
      vertex -2.73473 -3.01127 2
      vertex -4 -4 2
      vertex -2.38627 -3.18882 2
    endloop
  endfacet
  facet normal 0 0 1
    outer loop
      vertex -3.01127 -2.73473 2
      vertex -4 -4 2
      vertex -2.73473 -3.01127 2
    endloop
  endfacet
  facet normal 0 0 1
    outer loop
      vertex -3.18882 -2.38627 2
      vertex -4 -4 2
      vertex -3.01127 -2.73473 2
    endloop
  endfacet
  facet normal 0 0 1
    outer loop
      vertex -3.25 -2 2
      vertex -4 -4 2
      vertex -3.18882 -2.38627 2
    endloop
  endfacet
  facet normal 0 0 1
    outer loop
      vertex -3.18882 -1.61373 2
      vertex -4 -4 2
      vertex -3.25 -2 2
    endloop
  endfacet
  facet normal -0.587785 0.809017 0
    outer loop
      vertex -5 8.66025 0
      vertex -6.69131 7.43145 2
      vertex -5 8.66025 2
    endloop
  endfacet
  facet normal -0.587785 0.809017 0
    outer loop
      vertex -6.69131 7.43145 2
      vertex -5 8.66025 0
      vertex -6.69131 7.43145 0
    endloop
  endfacet
  facet normal -0.207911 0.978148 0
    outer loop
      vertex -1.04528 9.94522 0
      vertex -3.09017 9.51056 2
      vertex -1.04528 9.94522 2
    endloop
  endfacet
  facet normal -0.207911 0.978148 0
    outer loop
      vertex -3.09017 9.51056 2
      vertex -1.04528 9.94522 0
      vertex -3.09017 9.51056 0
    endloop
  endfacet
  facet normal 0.994522 -0.104529 0
    outer loop
      vertex 9.78148 -2.07912 2
      vertex 10 0 0
      vertex 10 0 2
    endloop
  endfacet
  facet normal 0.994522 -0.104529 0
    outer loop
      vertex 10 0 0
      vertex 9.78148 -2.07912 2
      vertex 9.78148 -2.07912 0
    endloop
  endfacet
  facet normal 0 0 -1
    outer loop
      vertex 0.988729 -1.26527 0
      vertex -0.988729 -1.26527 0
      vertex 0.988729 1.26527 0
    endloop
  endfacet
  facet normal 0 0 -1
    outer loop
      vertex 0.988729 1.26527 0
      vertex -0.811179 1.61373 0
      vertex -0.75 2 0
    endloop
  endfacet
  facet normal 0 0 -1
    outer loop
      vertex -0.988729 1.26527 0
      vertex 0.988729 1.26527 0
      vertex -0.988729 -1.26527 0
    endloop
  endfacet
  facet normal 0 0 -1
    outer loop
      vertex 0.988729 1.26527 0
      vertex -0.988729 1.26527 0
      vertex -0.811179 1.61373 0
    endloop
  endfacet
  facet normal 0 0 -1
    outer loop
      vertex -1.26527 -0.988729 0
      vertex -0.988729 1.26527 0
      vertex -0.988729 -1.26527 0
    endloop
  endfacet
  facet normal 0 0 -1
    outer loop
      vertex -1.26527 -0.988729 0
      vertex -1.26527 0.988729 0
      vertex -0.988729 1.26527 0
    endloop
  endfacet
  facet normal 0 0 -1
    outer loop
      vertex -1.61373 -0.811179 0
      vertex -1.26527 0.988729 0
      vertex -1.26527 -0.988729 0
    endloop
  endfacet
  facet normal 0 0 -1
    outer loop
      vertex -1.61373 -0.811179 0
      vertex -1.61373 0.811179 0
      vertex -1.26527 0.988729 0
    endloop
  endfacet
  facet normal 0 0 -1
    outer loop
      vertex -2 -0.75 0
      vertex -1.61373 0.811179 0
      vertex -1.61373 -0.811179 0
    endloop
  endfacet
  facet normal 0 0 -1
    outer loop
      vertex -2 -0.75 0
      vertex -2 0.75 0
      vertex -1.61373 0.811179 0
    endloop
  endfacet
  facet normal 0 0 -1
    outer loop
      vertex -2.38627 -0.811179 0
      vertex -2 0.75 0
      vertex -2 -0.75 0
    endloop
  endfacet
  facet normal 0 0 -1
    outer loop
      vertex -2.38627 -0.811179 0
      vertex -2.38627 0.811179 0
      vertex -2 0.75 0
    endloop
  endfacet
  facet normal 0 0 -1
    outer loop
      vertex -2.73473 -0.988729 0
      vertex -2.38627 0.811179 0
      vertex -2.38627 -0.811179 0
    endloop
  endfacet
  facet normal 0 0 -1
    outer loop
      vertex -2.73473 -0.988729 0
      vertex -2.73473 0.988729 0
      vertex -2.38627 0.811179 0
    endloop
  endfacet
  facet normal 0 0 -1
    outer loop
      vertex -3.01127 -1.26527 0
      vertex -2.73473 0.988729 0
      vertex -2.73473 -0.988729 0
    endloop
  endfacet
  facet normal 0 0 -1
    outer loop
      vertex -3.01127 -1.26527 0
      vertex -3.01127 1.26527 0
      vertex -2.73473 0.988729 0
    endloop
  endfacet
  facet normal 0 0 -1
    outer loop
      vertex -3.18882 -1.61373 0
      vertex -3.01127 1.26527 0
      vertex -3.01127 -1.26527 0
    endloop
  endfacet
  facet normal 0 0 -1
    outer loop
      vertex -3.18882 -1.61373 0
      vertex -3.18882 1.61373 0
      vertex -3.01127 1.26527 0
    endloop
  endfacet
  facet normal 0 0 -1
    outer loop
      vertex -9.78148 -2.07912 0
      vertex -3.18882 -1.61373 0
      vertex -3.25 -2 0
    endloop
  endfacet
  facet normal 0 0 -1
    outer loop
      vertex -3.18882 -1.61373 0
      vertex -10 0 0
      vertex -3.18882 1.61373 0
    endloop
  endfacet
  facet normal 0 0 -1
    outer loop
      vertex 3.18882 1.61373 0
      vertex 10 0 0
      vertex 3.18882 -1.61373 0
    endloop
  endfacet
  facet normal 0 0 -1
    outer loop
      vertex 10 0 0
      vertex 3.18882 1.61373 0
      vertex 3.25 2 0
    endloop
  endfacet
  facet normal 0 0 -1
    outer loop
      vertex 3.01127 -1.26527 0
      vertex 3.18882 1.61373 0
      vertex 3.18882 -1.61373 0
    endloop
  endfacet
  facet normal 0 0 -1
    outer loop
      vertex 3.01127 -1.26527 0
      vertex 3.01127 1.26527 0
      vertex 3.18882 1.61373 0
    endloop
  endfacet
  facet normal 0 0 -1
    outer loop
      vertex 2.73473 -0.988729 0
      vertex 3.01127 1.26527 0
      vertex 3.01127 -1.26527 0
    endloop
  endfacet
  facet normal 0 0 -1
    outer loop
      vertex 2.73473 -0.988729 0
      vertex 2.73473 0.988729 0
      vertex 3.01127 1.26527 0
    endloop
  endfacet
  facet normal 0 0 -1
    outer loop
      vertex 2.38627 -0.811179 0
      vertex 2.73473 0.988729 0
      vertex 2.73473 -0.988729 0
    endloop
  endfacet
  facet normal 0 0 -1
    outer loop
      vertex 2.38627 -0.811179 0
      vertex 2.38627 0.811179 0
      vertex 2.73473 0.988729 0
    endloop
  endfacet
  facet normal 0 0 -1
    outer loop
      vertex 2 -0.75 0
      vertex 2.38627 0.811179 0
      vertex 2.38627 -0.811179 0
    endloop
  endfacet
  facet normal 0 0 -1
    outer loop
      vertex 2 -0.75 0
      vertex 2 0.75 0
      vertex 2.38627 0.811179 0
    endloop
  endfacet
  facet normal 0 0 -1
    outer loop
      vertex 1.61373 -0.811179 0
      vertex 2 0.75 0
      vertex 2 -0.75 0
    endloop
  endfacet
  facet normal 0 0 -1
    outer loop
      vertex 1.61373 -0.811179 0
      vertex 1.61373 0.811179 0
      vertex 2 0.75 0
    endloop
  endfacet
  facet normal 0 0 -1
    outer loop
      vertex 1.26527 -0.988729 0
      vertex 1.61373 0.811179 0
      vertex 1.61373 -0.811179 0
    endloop
  endfacet
  facet normal 0 0 -1
    outer loop
      vertex 1.26527 -0.988729 0
      vertex 1.26527 0.988729 0
      vertex 1.61373 0.811179 0
    endloop
  endfacet
  facet normal 0 0 -1
    outer loop
      vertex 0.988729 -1.26527 0
      vertex 1.26527 0.988729 0
      vertex 1.26527 -0.988729 0
    endloop
  endfacet
  facet normal 0 0 -1
    outer loop
      vertex 0.988729 -1.26527 0
      vertex 0.988729 1.26527 0
      vertex 1.26527 0.988729 0
    endloop
  endfacet
  facet normal 0 0 -1
    outer loop
      vertex -0.811179 -1.61373 0
      vertex 0.811179 -1.61373 0
      vertex -0.75 -2 0
    endloop
  endfacet
  facet normal 0 0 -1
    outer loop
      vertex 0.811179 -1.61373 0
      vertex -0.811179 -1.61373 0
      vertex 0.988729 -1.26527 0
    endloop
  endfacet
  facet normal 0 0 -1
    outer loop
      vertex -0.75 -2 0
      vertex 0.811179 -1.61373 0
      vertex 0.75 -2 0
    endloop
  endfacet
  facet normal 0 0 -1
    outer loop
      vertex -0.988729 -1.26527 0
      vertex 0.988729 -1.26527 0
      vertex -0.811179 -1.61373 0
    endloop
  endfacet
  facet normal 0 0 -1
    outer loop
      vertex 3.18882 -1.61373 0
      vertex 9.78148 -2.07912 0
      vertex 3.25 -2 0
    endloop
  endfacet
  facet normal 0 0 -1
    outer loop
      vertex 3.25 -2 0
      vertex 9.78148 -2.07912 0
      vertex 9.13545 -4.06737 0
    endloop
  endfacet
  facet normal 0 0 -1
    outer loop
      vertex 9.78148 -2.07912 0
      vertex 3.18882 -1.61373 0
      vertex 10 0 0
    endloop
  endfacet
  facet normal 0 0 -1
    outer loop
      vertex 3.18882 -2.38627 0
      vertex 9.13545 -4.06737 0
      vertex 8.09017 -5.87785 0
    endloop
  endfacet
  facet normal 0 0 -1
    outer loop
      vertex 10 0 0
      vertex 3.25 2 0
      vertex 9.78148 2.07912 0
    endloop
  endfacet
  facet normal 0 0 -1
    outer loop
      vertex 3.01127 -2.73473 0
      vertex 8.09017 -5.87785 0
      vertex 6.69131 -7.43145 0
    endloop
  endfacet
  facet normal -0 0 -1
    outer loop
      vertex 9.78148 2.07912 0
      vertex 3.25 2 0
      vertex 9.13545 4.06737 0
    endloop
  endfacet
  facet normal 0 0 -1
    outer loop
      vertex 2.73473 -3.01127 0
      vertex 6.69131 -7.43145 0
      vertex 5 -8.66025 0
    endloop
  endfacet
  facet normal 0 0 -1
    outer loop
      vertex 3.18882 2.38627 0
      vertex 9.13545 4.06737 0
      vertex 3.25 2 0
    endloop
  endfacet
  facet normal -0 0 -1
    outer loop
      vertex 9.13545 4.06737 0
      vertex 3.18882 2.38627 0
      vertex 8.09017 5.87785 0
    endloop
  endfacet
  facet normal 0 0 -1
    outer loop
      vertex 9.13545 -4.06737 0
      vertex 3.18882 -2.38627 0
      vertex 3.25 -2 0
    endloop
  endfacet
  facet normal 0 0 -1
    outer loop
      vertex 2.38627 -3.18882 0
      vertex 5 -8.66025 0
      vertex 3.09017 -9.51056 0
    endloop
  endfacet
  facet normal 0 0 -1
    outer loop
      vertex 8.09017 -5.87785 0
      vertex 3.01127 -2.73473 0
      vertex 3.18882 -2.38627 0
    endloop
  endfacet
  facet normal 0 0 -1
    outer loop
      vertex 6.69131 -7.43145 0
      vertex 2.73473 -3.01127 0
      vertex 3.01127 -2.73473 0
    endloop
  endfacet
  facet normal 0 0 -1
    outer loop
      vertex 5 -8.66025 0
      vertex 2.38627 -3.18882 0
      vertex 2.73473 -3.01127 0
    endloop
  endfacet
  facet normal 0 0 -1
    outer loop
      vertex 3.09017 -9.51056 0
      vertex 2 -3.25 0
      vertex 2.38627 -3.18882 0
    endloop
  endfacet
  facet normal 0 0 -1
    outer loop
      vertex 1.04528 -9.94522 0
      vertex 2 -3.25 0
      vertex 3.09017 -9.51056 0
    endloop
  endfacet
  facet normal -0 0 -1
    outer loop
      vertex 2 -3.25 0
      vertex 1.04528 -9.94522 0
      vertex 1.61373 -3.18882 0
    endloop
  endfacet
  facet normal 0 0 -1
    outer loop
      vertex -1.61373 -3.18882 0
      vertex 1.61373 -3.18882 0
      vertex 1.04528 -9.94522 0
    endloop
  endfacet
  facet normal 0 0 -1
    outer loop
      vertex 1.61373 -3.18882 0
      vertex -1.61373 -3.18882 0
      vertex 1.26527 -3.01127 0
    endloop
  endfacet
  facet normal 0 0 -1
    outer loop
      vertex 1.26527 -3.01127 0
      vertex -1.26527 -3.01127 0
      vertex 0.988729 -2.73473 0
    endloop
  endfacet
  facet normal 0 -0 -1
    outer loop
      vertex -0.988729 -2.73473 0
      vertex 0.988729 -2.73473 0
      vertex -1.26527 -3.01127 0
    endloop
  endfacet
  facet normal 0 0 -1
    outer loop
      vertex 0.988729 1.26527 0
      vertex -0.75 2 0
      vertex 0.811179 1.61373 0
    endloop
  endfacet
  facet normal 0 0 -1
    outer loop
      vertex 0.988729 -2.73473 0
      vertex -0.988729 -2.73473 0
      vertex 0.811179 -2.38627 0
    endloop
  endfacet
  facet normal 0 0 -1
    outer loop
      vertex 0.75 -2 0
      vertex -0.811179 -2.38627 0
      vertex -0.75 -2 0
    endloop
  endfacet
  facet normal 0 0 -1
    outer loop
      vertex 0.811179 -2.38627 0
      vertex -0.811179 -2.38627 0
      vertex 0.75 -2 0
    endloop
  endfacet
  facet normal 0 0 -1
    outer loop
      vertex -1.61373 -3.18882 0
      vertex 1.04528 -9.94522 0
      vertex -1.04528 -9.94522 0
    endloop
  endfacet
  facet normal 0 -0 -1
    outer loop
      vertex -0.811179 -2.38627 0
      vertex 0.811179 -2.38627 0
      vertex -0.988729 -2.73473 0
    endloop
  endfacet
  facet normal -0 0 -1
    outer loop
      vertex 1.26527 -3.01127 0
      vertex -1.61373 -3.18882 0
      vertex -1.26527 -3.01127 0
    endloop
  endfacet
  facet normal 0 0 -1
    outer loop
      vertex -1.04528 -9.94522 0
      vertex -2 -3.25 0
      vertex -1.61373 -3.18882 0
    endloop
  endfacet
  facet normal 0 0 -1
    outer loop
      vertex -3.09017 -9.51056 0
      vertex -2 -3.25 0
      vertex -1.04528 -9.94522 0
    endloop
  endfacet
  facet normal -0 0 -1
    outer loop
      vertex -2 -3.25 0
      vertex -3.09017 -9.51056 0
      vertex -2.38627 -3.18882 0
    endloop
  endfacet
  facet normal 0 0 -1
    outer loop
      vertex -5 -8.66025 0
      vertex -2.38627 -3.18882 0
      vertex -3.09017 -9.51056 0
    endloop
  endfacet
  facet normal -0 0 -1
    outer loop
      vertex -2.38627 -3.18882 0
      vertex -5 -8.66025 0
      vertex -2.73473 -3.01127 0
    endloop
  endfacet
  facet normal 0 0 -1
    outer loop
      vertex -6.69131 -7.43145 0
      vertex -2.73473 -3.01127 0
      vertex -5 -8.66025 0
    endloop
  endfacet
  facet normal -0 0 -1
    outer loop
      vertex -2.73473 -3.01127 0
      vertex -6.69131 -7.43145 0
      vertex -3.01127 -2.73473 0
    endloop
  endfacet
  facet normal 0 -0 -1
    outer loop
      vertex -9.78148 2.07912 0
      vertex -3.18882 1.61373 0
      vertex -10 0 0
    endloop
  endfacet
  facet normal 0 0 -1
    outer loop
      vertex -8.09017 -5.87785 0
      vertex -3.01127 -2.73473 0
      vertex -6.69131 -7.43145 0
    endloop
  endfacet
  facet normal -0 0 -1
    outer loop
      vertex -3.01127 -2.73473 0
      vertex -8.09017 -5.87785 0
      vertex -3.18882 -2.38627 0
    endloop
  endfacet
  facet normal 0 0 -1
    outer loop
      vertex -9.13545 -4.06737 0
      vertex -3.18882 -2.38627 0
      vertex -8.09017 -5.87785 0
    endloop
  endfacet
  facet normal 0 0 -1
    outer loop
      vertex -3.25 2 0
      vertex -6.69131 7.43145 0
      vertex -5 8.66025 0
    endloop
  endfacet
  facet normal -0 0 -1
    outer loop
      vertex -3.18882 -2.38627 0
      vertex -9.13545 -4.06737 0
      vertex -3.25 -2 0
    endloop
  endfacet
  facet normal 0 0 -1
    outer loop
      vertex -3.25 2 0
      vertex -8.09017 5.87785 0
      vertex -6.69131 7.43145 0
    endloop
  endfacet
  facet normal 0 0 -1
    outer loop
      vertex -9.78148 -2.07912 0
      vertex -3.25 -2 0
      vertex -9.13545 -4.06737 0
    endloop
  endfacet
  facet normal 0 0 -1
    outer loop
      vertex -3.25 2 0
      vertex -9.13545 4.06737 0
      vertex -8.09017 5.87785 0
    endloop
  endfacet
  facet normal -0 0 -1
    outer loop
      vertex -3.18882 -1.61373 0
      vertex -9.78148 -2.07912 0
      vertex -10 0 0
    endloop
  endfacet
  facet normal 0 0 -1
    outer loop
      vertex -3.25 2 0
      vertex -9.78148 2.07912 0
      vertex -9.13545 4.06737 0
    endloop
  endfacet
  facet normal 0 0 -1
    outer loop
      vertex -3.18882 1.61373 0
      vertex -9.78148 2.07912 0
      vertex -3.25 2 0
    endloop
  endfacet
  facet normal 0 0 -1
    outer loop
      vertex 3.01127 2.73473 0
      vertex 8.09017 5.87785 0
      vertex 3.18882 2.38627 0
    endloop
  endfacet
  facet normal -0 0 -1
    outer loop
      vertex 8.09017 5.87785 0
      vertex 3.01127 2.73473 0
      vertex 6.69131 7.43145 0
    endloop
  endfacet
  facet normal 0 0 -1
    outer loop
      vertex 2.73473 3.01127 0
      vertex 6.69131 7.43145 0
      vertex 3.01127 2.73473 0
    endloop
  endfacet
  facet normal -0 0 -1
    outer loop
      vertex 6.69131 7.43145 0
      vertex 2.73473 3.01127 0
      vertex 5 8.66025 0
    endloop
  endfacet
  facet normal 0 0 -1
    outer loop
      vertex 2.38627 3.18882 0
      vertex 5 8.66025 0
      vertex 2.73473 3.01127 0
    endloop
  endfacet
  facet normal -0 0 -1
    outer loop
      vertex 5 8.66025 0
      vertex 2.38627 3.18882 0
      vertex 3.09017 9.51056 0
    endloop
  endfacet
  facet normal 0 0 -1
    outer loop
      vertex 2 3.25 0
      vertex 3.09017 9.51056 0
      vertex 2.38627 3.18882 0
    endloop
  endfacet
  facet normal 0 0 -1
    outer loop
      vertex 1.04528 9.94522 0
      vertex 2 3.25 0
      vertex 1.61373 3.18882 0
    endloop
  endfacet
  facet normal 0 0 -1
    outer loop
      vertex -1.61373 3.18882 0
      vertex 1.61373 3.18882 0
      vertex 1.26527 3.01127 0
    endloop
  endfacet
  facet normal 0 0 -1
    outer loop
      vertex 2 3.25 0
      vertex 1.04528 9.94522 0
      vertex 3.09017 9.51056 0
    endloop
  endfacet
  facet normal 0 0 -1
    outer loop
      vertex -1.26527 3.01127 0
      vertex 1.26527 3.01127 0
      vertex 0.988729 2.73473 0
    endloop
  endfacet
  facet normal 0 0 -1
    outer loop
      vertex -0.988729 2.73473 0
      vertex 0.988729 2.73473 0
      vertex 0.811179 2.38627 0
    endloop
  endfacet
  facet normal 0 0 -1
    outer loop
      vertex -0.811179 2.38627 0
      vertex 0.811179 2.38627 0
      vertex 0.75 2 0
    endloop
  endfacet
  facet normal 0 0 -1
    outer loop
      vertex 0.811179 1.61373 0
      vertex -0.75 2 0
      vertex 0.75 2 0
    endloop
  endfacet
  facet normal 0 0 -1
    outer loop
      vertex -0.811179 2.38627 0
      vertex 0.75 2 0
      vertex -0.75 2 0
    endloop
  endfacet
  facet normal 0 0 -1
    outer loop
      vertex 0.811179 2.38627 0
      vertex -0.811179 2.38627 0
      vertex -0.988729 2.73473 0
    endloop
  endfacet
  facet normal 0 0 -1
    outer loop
      vertex 0.988729 2.73473 0
      vertex -0.988729 2.73473 0
      vertex -1.26527 3.01127 0
    endloop
  endfacet
  facet normal 0 0 -1
    outer loop
      vertex -1.61373 3.18882 0
      vertex 1.26527 3.01127 0
      vertex -1.26527 3.01127 0
    endloop
  endfacet
  facet normal 0 0 -1
    outer loop
      vertex 1.61373 3.18882 0
      vertex -1.61373 3.18882 0
      vertex 1.04528 9.94522 0
    endloop
  endfacet
  facet normal -0 0 -1
    outer loop
      vertex 1.04528 9.94522 0
      vertex -1.61373 3.18882 0
      vertex -1.04528 9.94522 0
    endloop
  endfacet
  facet normal 0 0 -1
    outer loop
      vertex -2 3.25 0
      vertex -1.04528 9.94522 0
      vertex -1.61373 3.18882 0
    endloop
  endfacet
  facet normal 0 0 -1
    outer loop
      vertex -3.09017 9.51056 0
      vertex -2 3.25 0
      vertex -2.38627 3.18882 0
    endloop
  endfacet
  facet normal 0 0 -1
    outer loop
      vertex -5 8.66025 0
      vertex -2.38627 3.18882 0
      vertex -2.73473 3.01127 0
    endloop
  endfacet
  facet normal 0 0 -1
    outer loop
      vertex -5 8.66025 0
      vertex -2.73473 3.01127 0
      vertex -3.01127 2.73473 0
    endloop
  endfacet
  facet normal 0 0 -1
    outer loop
      vertex -2 3.25 0
      vertex -3.09017 9.51056 0
      vertex -1.04528 9.94522 0
    endloop
  endfacet
  facet normal 0 0 -1
    outer loop
      vertex -5 8.66025 0
      vertex -3.01127 2.73473 0
      vertex -3.18882 2.38627 0
    endloop
  endfacet
  facet normal 0 0 -1
    outer loop
      vertex -5 8.66025 0
      vertex -3.18882 2.38627 0
      vertex -3.25 2 0
    endloop
  endfacet
  facet normal 0 0 -1
    outer loop
      vertex -2.38627 3.18882 0
      vertex -5 8.66025 0
      vertex -3.09017 9.51056 0
    endloop
  endfacet
  facet normal 0.207911 -0.978148 0
    outer loop
      vertex 1.04528 -9.94522 0
      vertex 3.09017 -9.51056 2
      vertex 1.04528 -9.94522 2
    endloop
  endfacet
  facet normal 0.207911 -0.978148 0
    outer loop
      vertex 3.09017 -9.51056 2
      vertex 1.04528 -9.94522 0
      vertex 3.09017 -9.51056 0
    endloop
  endfacet
  facet normal 0.743145 -0.669131 0
    outer loop
      vertex 6.69131 -7.43145 2
      vertex 8.09017 -5.87785 0
      vertex 8.09017 -5.87785 2
    endloop
  endfacet
  facet normal 0.743145 -0.669131 0
    outer loop
      vertex 8.09017 -5.87785 0
      vertex 6.69131 -7.43145 2
      vertex 6.69131 -7.43145 0
    endloop
  endfacet
  facet normal 0.951057 -0.309017 0
    outer loop
      vertex 9.13545 -4.06737 2
      vertex 9.78148 -2.07912 0
      vertex 9.78148 -2.07912 2
    endloop
  endfacet
  facet normal 0.951057 -0.309017 0
    outer loop
      vertex 9.78148 -2.07912 0
      vertex 9.13545 -4.06737 2
      vertex 9.13545 -4.06737 0
    endloop
  endfacet
  facet normal 0.866026 -0.5 0
    outer loop
      vertex 8.09017 -5.87785 2
      vertex 9.13545 -4.06737 0
      vertex 9.13545 -4.06737 2
    endloop
  endfacet
  facet normal 0.866026 -0.5 0
    outer loop
      vertex 9.13545 -4.06737 0
      vertex 8.09017 -5.87785 2
      vertex 8.09017 -5.87785 0
    endloop
  endfacet
  facet normal -0.866026 -0.5 0
    outer loop
      vertex -8.09017 -5.87785 0
      vertex -9.13545 -4.06737 2
      vertex -9.13545 -4.06737 0
    endloop
  endfacet
  facet normal -0.866026 -0.5 0
    outer loop
      vertex -9.13545 -4.06737 2
      vertex -8.09017 -5.87785 0
      vertex -8.09017 -5.87785 2
    endloop
  endfacet
  facet normal -0.994522 -0.104529 0
    outer loop
      vertex -9.78148 -2.07912 0
      vertex -10 0 2
      vertex -10 0 0
    endloop
  endfacet
  facet normal -0.994522 -0.104529 0
    outer loop
      vertex -10 0 2
      vertex -9.78148 -2.07912 0
      vertex -9.78148 -2.07912 2
    endloop
  endfacet
  facet normal 0.587785 -0.809017 0
    outer loop
      vertex 5 -8.66025 0
      vertex 6.69131 -7.43145 2
      vertex 5 -8.66025 2
    endloop
  endfacet
  facet normal 0.587785 -0.809017 0
    outer loop
      vertex 6.69131 -7.43145 2
      vertex 5 -8.66025 0
      vertex 6.69131 -7.43145 0
    endloop
  endfacet
  facet normal 0.406737 -0.913545 0
    outer loop
      vertex 3.09017 -9.51056 0
      vertex 5 -8.66025 2
      vertex 3.09017 -9.51056 2
    endloop
  endfacet
  facet normal 0.406737 -0.913545 0
    outer loop
      vertex 5 -8.66025 2
      vertex 3.09017 -9.51056 0
      vertex 5 -8.66025 0
    endloop
  endfacet
  facet normal -0.406737 -0.913545 0
    outer loop
      vertex -5 -8.66025 0
      vertex -3.09017 -9.51056 2
      vertex -5 -8.66025 2
    endloop
  endfacet
  facet normal -0.406737 -0.913545 -0
    outer loop
      vertex -3.09017 -9.51056 2
      vertex -5 -8.66025 0
      vertex -3.09017 -9.51056 0
    endloop
  endfacet
  facet normal -0.743145 -0.669131 0
    outer loop
      vertex -6.69131 -7.43145 0
      vertex -8.09017 -5.87785 2
      vertex -8.09017 -5.87785 0
    endloop
  endfacet
  facet normal -0.743145 -0.669131 0
    outer loop
      vertex -8.09017 -5.87785 2
      vertex -6.69131 -7.43145 0
      vertex -6.69131 -7.43145 2
    endloop
  endfacet
  facet normal -0.951057 -0.309017 0
    outer loop
      vertex -9.13545 -4.06737 0
      vertex -9.78148 -2.07912 2
      vertex -9.78148 -2.07912 0
    endloop
  endfacet
  facet normal -0.951057 -0.309017 0
    outer loop
      vertex -9.78148 -2.07912 2
      vertex -9.13545 -4.06737 0
      vertex -9.13545 -4.06737 2
    endloop
  endfacet
  facet normal -0.587785 -0.809017 0
    outer loop
      vertex -6.69131 -7.43145 0
      vertex -5 -8.66025 2
      vertex -6.69131 -7.43145 2
    endloop
  endfacet
  facet normal -0.587785 -0.809017 -0
    outer loop
      vertex -5 -8.66025 2
      vertex -6.69131 -7.43145 0
      vertex -5 -8.66025 0
    endloop
  endfacet
  facet normal -0.207911 -0.978148 0
    outer loop
      vertex -3.09017 -9.51056 0
      vertex -1.04528 -9.94522 2
      vertex -3.09017 -9.51056 2
    endloop
  endfacet
  facet normal -0.207911 -0.978148 -0
    outer loop
      vertex -1.04528 -9.94522 2
      vertex -3.09017 -9.51056 0
      vertex -1.04528 -9.94522 0
    endloop
  endfacet
  facet normal -0.987688 -0.156437 0
    outer loop
      vertex 3.25 2 0
      vertex 3.18882 2.38627 2
      vertex 3.18882 2.38627 0
    endloop
  endfacet
  facet normal -0.987688 -0.156437 0
    outer loop
      vertex 3.18882 2.38627 2
      vertex 3.25 2 0
      vertex 3.25 2 2
    endloop
  endfacet
  facet normal 0.987688 0.156434 0
    outer loop
      vertex 0.811179 1.61373 2
      vertex 0.75 2 0
      vertex 0.75 2 2
    endloop
  endfacet
  facet normal 0.987688 0.156434 0
    outer loop
      vertex 0.75 2 0
      vertex 0.811179 1.61373 2
      vertex 0.811179 1.61373 0
    endloop
  endfacet
  facet normal 0.156436 -0.987688 0
    outer loop
      vertex 1.61373 3.18882 0
      vertex 2 3.25 2
      vertex 1.61373 3.18882 2
    endloop
  endfacet
  facet normal 0.156436 -0.987688 0
    outer loop
      vertex 2 3.25 2
      vertex 1.61373 3.18882 0
      vertex 2 3.25 0
    endloop
  endfacet
  facet normal -0.156434 0.987688 0
    outer loop
      vertex 2.38627 0.811179 0
      vertex 2 0.75 2
      vertex 2.38627 0.811179 2
    endloop
  endfacet
  facet normal -0.156434 0.987688 0
    outer loop
      vertex 2 0.75 2
      vertex 2.38627 0.811179 0
      vertex 2 0.75 0
    endloop
  endfacet
  facet normal -0.453991 0.891006 0
    outer loop
      vertex 2.73473 0.988729 0
      vertex 2.38627 0.811179 2
      vertex 2.73473 0.988729 2
    endloop
  endfacet
  facet normal -0.453991 0.891006 0
    outer loop
      vertex 2.38627 0.811179 2
      vertex 2.73473 0.988729 0
      vertex 2.38627 0.811179 0
    endloop
  endfacet
  facet normal -0.707107 -0.707107 0
    outer loop
      vertex 3.01127 2.73473 0
      vertex 2.73473 3.01127 2
      vertex 2.73473 3.01127 0
    endloop
  endfacet
  facet normal -0.707107 -0.707107 0
    outer loop
      vertex 2.73473 3.01127 2
      vertex 3.01127 2.73473 0
      vertex 3.01127 2.73473 2
    endloop
  endfacet
  facet normal -0.891006 -0.453991 0
    outer loop
      vertex 3.18882 2.38627 0
      vertex 3.01127 2.73473 2
      vertex 3.01127 2.73473 0
    endloop
  endfacet
  facet normal -0.891006 -0.453991 0
    outer loop
      vertex 3.01127 2.73473 2
      vertex 3.18882 2.38627 0
      vertex 3.18882 2.38627 2
    endloop
  endfacet
  facet normal 0.707107 -0.707107 0
    outer loop
      vertex 0.988729 2.73473 2
      vertex 1.26527 3.01127 0
      vertex 1.26527 3.01127 2
    endloop
  endfacet
  facet normal 0.707107 -0.707107 0
    outer loop
      vertex 1.26527 3.01127 0
      vertex 0.988729 2.73473 2
      vertex 0.988729 2.73473 0
    endloop
  endfacet
  facet normal 0.891006 -0.453991 0
    outer loop
      vertex 0.811179 2.38627 2
      vertex 0.988729 2.73473 0
      vertex 0.988729 2.73473 2
    endloop
  endfacet
  facet normal 0.891006 -0.453991 0
    outer loop
      vertex 0.988729 2.73473 0
      vertex 0.811179 2.38627 2
      vertex 0.811179 2.38627 0
    endloop
  endfacet
  facet normal 0.453991 -0.891006 0
    outer loop
      vertex 1.26527 3.01127 0
      vertex 1.61373 3.18882 2
      vertex 1.26527 3.01127 2
    endloop
  endfacet
  facet normal 0.453991 -0.891006 0
    outer loop
      vertex 1.61373 3.18882 2
      vertex 1.26527 3.01127 0
      vertex 1.61373 3.18882 0
    endloop
  endfacet
  facet normal 0.453991 0.891006 -0
    outer loop
      vertex 1.61373 0.811179 0
      vertex 1.26527 0.988729 2
      vertex 1.61373 0.811179 2
    endloop
  endfacet
  facet normal 0.453991 0.891006 0
    outer loop
      vertex 1.26527 0.988729 2
      vertex 1.61373 0.811179 0
      vertex 1.26527 0.988729 0
    endloop
  endfacet
  facet normal 0.891006 0.453991 0
    outer loop
      vertex 0.988729 1.26527 2
      vertex 0.811179 1.61373 0
      vertex 0.811179 1.61373 2
    endloop
  endfacet
  facet normal 0.891006 0.453991 0
    outer loop
      vertex 0.811179 1.61373 0
      vertex 0.988729 1.26527 2
      vertex 0.988729 1.26527 0
    endloop
  endfacet
  facet normal -0.156437 -0.987688 0
    outer loop
      vertex 2 3.25 0
      vertex 2.38627 3.18882 2
      vertex 2 3.25 2
    endloop
  endfacet
  facet normal -0.156437 -0.987688 -0
    outer loop
      vertex 2.38627 3.18882 2
      vertex 2 3.25 0
      vertex 2.38627 3.18882 0
    endloop
  endfacet
  facet normal -0.453991 -0.891006 0
    outer loop
      vertex 2.38627 3.18882 0
      vertex 2.73473 3.01127 2
      vertex 2.38627 3.18882 2
    endloop
  endfacet
  facet normal -0.453991 -0.891006 -0
    outer loop
      vertex 2.73473 3.01127 2
      vertex 2.38627 3.18882 0
      vertex 2.73473 3.01127 0
    endloop
  endfacet
  facet normal 0.987688 -0.156434 0
    outer loop
      vertex 0.75 2 2
      vertex 0.811179 2.38627 0
      vertex 0.811179 2.38627 2
    endloop
  endfacet
  facet normal 0.987688 -0.156434 0
    outer loop
      vertex 0.811179 2.38627 0
      vertex 0.75 2 2
      vertex 0.75 2 0
    endloop
  endfacet
  facet normal -0.987688 0.156436 0
    outer loop
      vertex 3.18882 1.61373 0
      vertex 3.25 2 2
      vertex 3.25 2 0
    endloop
  endfacet
  facet normal -0.987688 0.156436 0
    outer loop
      vertex 3.25 2 2
      vertex 3.18882 1.61373 0
      vertex 3.18882 1.61373 2
    endloop
  endfacet
  facet normal -0.707107 0.707107 0
    outer loop
      vertex 2.73473 0.988729 0
      vertex 3.01127 1.26527 2
      vertex 3.01127 1.26527 0
    endloop
  endfacet
  facet normal -0.707107 0.707107 0
    outer loop
      vertex 3.01127 1.26527 2
      vertex 2.73473 0.988729 0
      vertex 2.73473 0.988729 2
    endloop
  endfacet
  facet normal -0.891006 0.453991 0
    outer loop
      vertex 3.01127 1.26527 0
      vertex 3.18882 1.61373 2
      vertex 3.18882 1.61373 0
    endloop
  endfacet
  facet normal -0.891006 0.453991 0
    outer loop
      vertex 3.18882 1.61373 2
      vertex 3.01127 1.26527 0
      vertex 3.01127 1.26527 2
    endloop
  endfacet
  facet normal 0.156434 0.987688 -0
    outer loop
      vertex 2 0.75 0
      vertex 1.61373 0.811179 2
      vertex 2 0.75 2
    endloop
  endfacet
  facet normal 0.156434 0.987688 0
    outer loop
      vertex 1.61373 0.811179 2
      vertex 2 0.75 0
      vertex 1.61373 0.811179 0
    endloop
  endfacet
  facet normal 0.707107 0.707107 0
    outer loop
      vertex 1.26527 0.988729 2
      vertex 0.988729 1.26527 0
      vertex 0.988729 1.26527 2
    endloop
  endfacet
  facet normal 0.707107 0.707107 0
    outer loop
      vertex 0.988729 1.26527 0
      vertex 1.26527 0.988729 2
      vertex 1.26527 0.988729 0
    endloop
  endfacet
  facet normal -0.987688 -0.156436 0
    outer loop
      vertex 3.25 -2 0
      vertex 3.18882 -1.61373 2
      vertex 3.18882 -1.61373 0
    endloop
  endfacet
  facet normal -0.987688 -0.156436 0
    outer loop
      vertex 3.18882 -1.61373 2
      vertex 3.25 -2 0
      vertex 3.25 -2 2
    endloop
  endfacet
  facet normal 0.987688 0.156434 0
    outer loop
      vertex 0.811179 -2.38627 2
      vertex 0.75 -2 0
      vertex 0.75 -2 2
    endloop
  endfacet
  facet normal 0.987688 0.156434 0
    outer loop
      vertex 0.75 -2 0
      vertex 0.811179 -2.38627 2
      vertex 0.811179 -2.38627 0
    endloop
  endfacet
  facet normal 0.156434 -0.987688 0
    outer loop
      vertex 1.61373 -0.811179 0
      vertex 2 -0.75 2
      vertex 1.61373 -0.811179 2
    endloop
  endfacet
  facet normal 0.156434 -0.987688 0
    outer loop
      vertex 2 -0.75 2
      vertex 1.61373 -0.811179 0
      vertex 2 -0.75 0
    endloop
  endfacet
  facet normal -0.156436 0.987688 0
    outer loop
      vertex 2.38627 -3.18882 0
      vertex 2 -3.25 2
      vertex 2.38627 -3.18882 2
    endloop
  endfacet
  facet normal -0.156436 0.987688 0
    outer loop
      vertex 2 -3.25 2
      vertex 2.38627 -3.18882 0
      vertex 2 -3.25 0
    endloop
  endfacet
  facet normal -0.453991 0.891006 0
    outer loop
      vertex 2.73473 -3.01127 0
      vertex 2.38627 -3.18882 2
      vertex 2.73473 -3.01127 2
    endloop
  endfacet
  facet normal -0.453991 0.891006 0
    outer loop
      vertex 2.38627 -3.18882 2
      vertex 2.73473 -3.01127 0
      vertex 2.38627 -3.18882 0
    endloop
  endfacet
  facet normal -0.707107 -0.707107 0
    outer loop
      vertex 3.01127 -1.26527 0
      vertex 2.73473 -0.988729 2
      vertex 2.73473 -0.988729 0
    endloop
  endfacet
  facet normal -0.707107 -0.707107 0
    outer loop
      vertex 2.73473 -0.988729 2
      vertex 3.01127 -1.26527 0
      vertex 3.01127 -1.26527 2
    endloop
  endfacet
  facet normal -0.891006 -0.453991 0
    outer loop
      vertex 3.18882 -1.61373 0
      vertex 3.01127 -1.26527 2
      vertex 3.01127 -1.26527 0
    endloop
  endfacet
  facet normal -0.891006 -0.453991 0
    outer loop
      vertex 3.01127 -1.26527 2
      vertex 3.18882 -1.61373 0
      vertex 3.18882 -1.61373 2
    endloop
  endfacet
  facet normal -0.453991 -0.891006 0
    outer loop
      vertex 2.38627 -0.811179 0
      vertex 2.73473 -0.988729 2
      vertex 2.38627 -0.811179 2
    endloop
  endfacet
  facet normal -0.453991 -0.891006 -0
    outer loop
      vertex 2.73473 -0.988729 2
      vertex 2.38627 -0.811179 0
      vertex 2.73473 -0.988729 0
    endloop
  endfacet
  facet normal 0.707107 -0.707107 0
    outer loop
      vertex 0.988729 -1.26527 2
      vertex 1.26527 -0.988729 0
      vertex 1.26527 -0.988729 2
    endloop
  endfacet
  facet normal 0.707107 -0.707107 0
    outer loop
      vertex 1.26527 -0.988729 0
      vertex 0.988729 -1.26527 2
      vertex 0.988729 -1.26527 0
    endloop
  endfacet
  facet normal 0.891006 -0.453991 0
    outer loop
      vertex 0.811179 -1.61373 2
      vertex 0.988729 -1.26527 0
      vertex 0.988729 -1.26527 2
    endloop
  endfacet
  facet normal 0.891006 -0.453991 0
    outer loop
      vertex 0.988729 -1.26527 0
      vertex 0.811179 -1.61373 2
      vertex 0.811179 -1.61373 0
    endloop
  endfacet
  facet normal 0.453991 -0.891006 0
    outer loop
      vertex 1.26527 -0.988729 0
      vertex 1.61373 -0.811179 2
      vertex 1.26527 -0.988729 2
    endloop
  endfacet
  facet normal 0.453991 -0.891006 0
    outer loop
      vertex 1.61373 -0.811179 2
      vertex 1.26527 -0.988729 0
      vertex 1.61373 -0.811179 0
    endloop
  endfacet
  facet normal -0.156434 -0.987688 0
    outer loop
      vertex 2 -0.75 0
      vertex 2.38627 -0.811179 2
      vertex 2 -0.75 2
    endloop
  endfacet
  facet normal -0.156434 -0.987688 -0
    outer loop
      vertex 2.38627 -0.811179 2
      vertex 2 -0.75 0
      vertex 2.38627 -0.811179 0
    endloop
  endfacet
  facet normal 0.987688 -0.156434 0
    outer loop
      vertex 0.75 -2 2
      vertex 0.811179 -1.61373 0
      vertex 0.811179 -1.61373 2
    endloop
  endfacet
  facet normal 0.987688 -0.156434 0
    outer loop
      vertex 0.811179 -1.61373 0
      vertex 0.75 -2 2
      vertex 0.75 -2 0
    endloop
  endfacet
  facet normal -0.987688 0.156437 0
    outer loop
      vertex 3.18882 -2.38627 0
      vertex 3.25 -2 2
      vertex 3.25 -2 0
    endloop
  endfacet
  facet normal -0.987688 0.156437 0
    outer loop
      vertex 3.25 -2 2
      vertex 3.18882 -2.38627 0
      vertex 3.18882 -2.38627 2
    endloop
  endfacet
  facet normal -0.707107 0.707107 0
    outer loop
      vertex 2.73473 -3.01127 0
      vertex 3.01127 -2.73473 2
      vertex 3.01127 -2.73473 0
    endloop
  endfacet
  facet normal -0.707107 0.707107 0
    outer loop
      vertex 3.01127 -2.73473 2
      vertex 2.73473 -3.01127 0
      vertex 2.73473 -3.01127 2
    endloop
  endfacet
  facet normal -0.891006 0.453991 0
    outer loop
      vertex 3.01127 -2.73473 0
      vertex 3.18882 -2.38627 2
      vertex 3.18882 -2.38627 0
    endloop
  endfacet
  facet normal -0.891006 0.453991 0
    outer loop
      vertex 3.18882 -2.38627 2
      vertex 3.01127 -2.73473 0
      vertex 3.01127 -2.73473 2
    endloop
  endfacet
  facet normal 0.707107 0.707107 0
    outer loop
      vertex 1.26527 -3.01127 2
      vertex 0.988729 -2.73473 0
      vertex 0.988729 -2.73473 2
    endloop
  endfacet
  facet normal 0.707107 0.707107 0
    outer loop
      vertex 0.988729 -2.73473 0
      vertex 1.26527 -3.01127 2
      vertex 1.26527 -3.01127 0
    endloop
  endfacet
  facet normal 0.891006 0.453991 0
    outer loop
      vertex 0.988729 -2.73473 2
      vertex 0.811179 -2.38627 0
      vertex 0.811179 -2.38627 2
    endloop
  endfacet
  facet normal 0.891006 0.453991 0
    outer loop
      vertex 0.811179 -2.38627 0
      vertex 0.988729 -2.73473 2
      vertex 0.988729 -2.73473 0
    endloop
  endfacet
  facet normal 0.156437 0.987688 -0
    outer loop
      vertex 2 -3.25 0
      vertex 1.61373 -3.18882 2
      vertex 2 -3.25 2
    endloop
  endfacet
  facet normal 0.156437 0.987688 0
    outer loop
      vertex 1.61373 -3.18882 2
      vertex 2 -3.25 0
      vertex 1.61373 -3.18882 0
    endloop
  endfacet
  facet normal 0.453991 0.891006 -0
    outer loop
      vertex 1.61373 -3.18882 0
      vertex 1.26527 -3.01127 2
      vertex 1.61373 -3.18882 2
    endloop
  endfacet
  facet normal 0.453991 0.891006 0
    outer loop
      vertex 1.26527 -3.01127 2
      vertex 1.61373 -3.18882 0
      vertex 1.26527 -3.01127 0
    endloop
  endfacet
  facet normal -0.987688 -0.156434 0
    outer loop
      vertex -0.75 2 0
      vertex -0.811179 2.38627 2
      vertex -0.811179 2.38627 0
    endloop
  endfacet
  facet normal -0.987688 -0.156434 0
    outer loop
      vertex -0.811179 2.38627 2
      vertex -0.75 2 0
      vertex -0.75 2 2
    endloop
  endfacet
  facet normal 0.987688 -0.156437 0
    outer loop
      vertex -3.25 2 2
      vertex -3.18882 2.38627 0
      vertex -3.18882 2.38627 2
    endloop
  endfacet
  facet normal 0.987688 -0.156437 0
    outer loop
      vertex -3.18882 2.38627 0
      vertex -3.25 2 2
      vertex -3.25 2 0
    endloop
  endfacet
  facet normal -0.156436 -0.987688 0
    outer loop
      vertex -2 3.25 0
      vertex -1.61373 3.18882 2
      vertex -2 3.25 2
    endloop
  endfacet
  facet normal -0.156436 -0.987688 -0
    outer loop
      vertex -1.61373 3.18882 2
      vertex -2 3.25 0
      vertex -1.61373 3.18882 0
    endloop
  endfacet
  facet normal -0.156434 0.987688 0
    outer loop
      vertex -1.61373 0.811179 0
      vertex -2 0.75 2
      vertex -1.61373 0.811179 2
    endloop
  endfacet
  facet normal -0.156434 0.987688 0
    outer loop
      vertex -2 0.75 2
      vertex -1.61373 0.811179 0
      vertex -2 0.75 0
    endloop
  endfacet
  facet normal -0.453991 0.891006 0
    outer loop
      vertex -1.26527 0.988729 0
      vertex -1.61373 0.811179 2
      vertex -1.26527 0.988729 2
    endloop
  endfacet
  facet normal -0.453991 0.891006 0
    outer loop
      vertex -1.61373 0.811179 2
      vertex -1.26527 0.988729 0
      vertex -1.61373 0.811179 0
    endloop
  endfacet
  facet normal -0.707107 -0.707107 0
    outer loop
      vertex -0.988729 2.73473 0
      vertex -1.26527 3.01127 2
      vertex -1.26527 3.01127 0
    endloop
  endfacet
  facet normal -0.707107 -0.707107 0
    outer loop
      vertex -1.26527 3.01127 2
      vertex -0.988729 2.73473 0
      vertex -0.988729 2.73473 2
    endloop
  endfacet
  facet normal -0.891006 -0.453991 0
    outer loop
      vertex -0.811179 2.38627 0
      vertex -0.988729 2.73473 2
      vertex -0.988729 2.73473 0
    endloop
  endfacet
  facet normal -0.891006 -0.453991 0
    outer loop
      vertex -0.988729 2.73473 2
      vertex -0.811179 2.38627 0
      vertex -0.811179 2.38627 2
    endloop
  endfacet
  facet normal -0.453991 -0.891006 0
    outer loop
      vertex -1.61373 3.18882 0
      vertex -1.26527 3.01127 2
      vertex -1.61373 3.18882 2
    endloop
  endfacet
  facet normal -0.453991 -0.891006 -0
    outer loop
      vertex -1.26527 3.01127 2
      vertex -1.61373 3.18882 0
      vertex -1.26527 3.01127 0
    endloop
  endfacet
  facet normal 0.453991 -0.891006 0
    outer loop
      vertex -2.73473 3.01127 0
      vertex -2.38627 3.18882 2
      vertex -2.73473 3.01127 2
    endloop
  endfacet
  facet normal 0.453991 -0.891006 0
    outer loop
      vertex -2.38627 3.18882 2
      vertex -2.73473 3.01127 0
      vertex -2.38627 3.18882 0
    endloop
  endfacet
  facet normal 0.707107 -0.707107 0
    outer loop
      vertex -3.01127 2.73473 2
      vertex -2.73473 3.01127 0
      vertex -2.73473 3.01127 2
    endloop
  endfacet
  facet normal 0.707107 -0.707107 0
    outer loop
      vertex -2.73473 3.01127 0
      vertex -3.01127 2.73473 2
      vertex -3.01127 2.73473 0
    endloop
  endfacet
  facet normal 0.156437 -0.987688 0
    outer loop
      vertex -2.38627 3.18882 0
      vertex -2 3.25 2
      vertex -2.38627 3.18882 2
    endloop
  endfacet
  facet normal 0.156437 -0.987688 0
    outer loop
      vertex -2 3.25 2
      vertex -2.38627 3.18882 0
      vertex -2 3.25 0
    endloop
  endfacet
  facet normal 0.707107 0.707107 0
    outer loop
      vertex -2.73473 0.988729 2
      vertex -3.01127 1.26527 0
      vertex -3.01127 1.26527 2
    endloop
  endfacet
  facet normal 0.707107 0.707107 0
    outer loop
      vertex -3.01127 1.26527 0
      vertex -2.73473 0.988729 2
      vertex -2.73473 0.988729 0
    endloop
  endfacet
  facet normal 0.891006 -0.453991 0
    outer loop
      vertex -3.18882 2.38627 2
      vertex -3.01127 2.73473 0
      vertex -3.01127 2.73473 2
    endloop
  endfacet
  facet normal 0.891006 -0.453991 0
    outer loop
      vertex -3.01127 2.73473 0
      vertex -3.18882 2.38627 2
      vertex -3.18882 2.38627 0
    endloop
  endfacet
  facet normal -0.987688 0.156434 0
    outer loop
      vertex -0.811179 1.61373 0
      vertex -0.75 2 2
      vertex -0.75 2 0
    endloop
  endfacet
  facet normal -0.987688 0.156434 0
    outer loop
      vertex -0.75 2 2
      vertex -0.811179 1.61373 0
      vertex -0.811179 1.61373 2
    endloop
  endfacet
  facet normal -0.707107 0.707107 0
    outer loop
      vertex -1.26527 0.988729 0
      vertex -0.988729 1.26527 2
      vertex -0.988729 1.26527 0
    endloop
  endfacet
  facet normal -0.707107 0.707107 0
    outer loop
      vertex -0.988729 1.26527 2
      vertex -1.26527 0.988729 0
      vertex -1.26527 0.988729 2
    endloop
  endfacet
  facet normal -0.891006 0.453991 0
    outer loop
      vertex -0.988729 1.26527 0
      vertex -0.811179 1.61373 2
      vertex -0.811179 1.61373 0
    endloop
  endfacet
  facet normal -0.891006 0.453991 0
    outer loop
      vertex -0.811179 1.61373 2
      vertex -0.988729 1.26527 0
      vertex -0.988729 1.26527 2
    endloop
  endfacet
  facet normal 0.453991 0.891006 -0
    outer loop
      vertex -2.38627 0.811179 0
      vertex -2.73473 0.988729 2
      vertex -2.38627 0.811179 2
    endloop
  endfacet
  facet normal 0.453991 0.891006 0
    outer loop
      vertex -2.73473 0.988729 2
      vertex -2.38627 0.811179 0
      vertex -2.73473 0.988729 0
    endloop
  endfacet
  facet normal 0.156434 0.987688 -0
    outer loop
      vertex -2 0.75 0
      vertex -2.38627 0.811179 2
      vertex -2 0.75 2
    endloop
  endfacet
  facet normal 0.156434 0.987688 0
    outer loop
      vertex -2.38627 0.811179 2
      vertex -2 0.75 0
      vertex -2.38627 0.811179 0
    endloop
  endfacet
  facet normal 0.891006 0.453991 0
    outer loop
      vertex -3.01127 1.26527 2
      vertex -3.18882 1.61373 0
      vertex -3.18882 1.61373 2
    endloop
  endfacet
  facet normal 0.891006 0.453991 0
    outer loop
      vertex -3.18882 1.61373 0
      vertex -3.01127 1.26527 2
      vertex -3.01127 1.26527 0
    endloop
  endfacet
  facet normal 0.987688 0.156436 0
    outer loop
      vertex -3.18882 1.61373 2
      vertex -3.25 2 0
      vertex -3.25 2 2
    endloop
  endfacet
  facet normal 0.987688 0.156436 0
    outer loop
      vertex -3.25 2 0
      vertex -3.18882 1.61373 2
      vertex -3.18882 1.61373 0
    endloop
  endfacet
  facet normal -0.987688 -0.156434 0
    outer loop
      vertex -0.75 -2 0
      vertex -0.811179 -1.61373 2
      vertex -0.811179 -1.61373 0
    endloop
  endfacet
  facet normal -0.987688 -0.156434 0
    outer loop
      vertex -0.811179 -1.61373 2
      vertex -0.75 -2 0
      vertex -0.75 -2 2
    endloop
  endfacet
  facet normal 0.987688 -0.156437 0
    outer loop
      vertex -3.25 -2 2
      vertex -3.18882 -1.61373 0
      vertex -3.18882 -1.61373 2
    endloop
  endfacet
  facet normal 0.987688 -0.156437 0
    outer loop
      vertex -3.18882 -1.61373 0
      vertex -3.25 -2 2
      vertex -3.25 -2 0
    endloop
  endfacet
  facet normal -0.156434 -0.987688 0
    outer loop
      vertex -2 -0.75 0
      vertex -1.61373 -0.811179 2
      vertex -2 -0.75 2
    endloop
  endfacet
  facet normal -0.156434 -0.987688 -0
    outer loop
      vertex -1.61373 -0.811179 2
      vertex -2 -0.75 0
      vertex -1.61373 -0.811179 0
    endloop
  endfacet
  facet normal 0.156437 0.987688 -0
    outer loop
      vertex -2 -3.25 0
      vertex -2.38627 -3.18882 2
      vertex -2 -3.25 2
    endloop
  endfacet
  facet normal 0.156437 0.987688 0
    outer loop
      vertex -2.38627 -3.18882 2
      vertex -2 -3.25 0
      vertex -2.38627 -3.18882 0
    endloop
  endfacet
  facet normal -0.707107 -0.707107 0
    outer loop
      vertex -0.988729 -1.26527 0
      vertex -1.26527 -0.988729 2
      vertex -1.26527 -0.988729 0
    endloop
  endfacet
  facet normal -0.707107 -0.707107 0
    outer loop
      vertex -1.26527 -0.988729 2
      vertex -0.988729 -1.26527 0
      vertex -0.988729 -1.26527 2
    endloop
  endfacet
  facet normal -0.891006 -0.453991 0
    outer loop
      vertex -0.811179 -1.61373 0
      vertex -0.988729 -1.26527 2
      vertex -0.988729 -1.26527 0
    endloop
  endfacet
  facet normal -0.891006 -0.453991 0
    outer loop
      vertex -0.988729 -1.26527 2
      vertex -0.811179 -1.61373 0
      vertex -0.811179 -1.61373 2
    endloop
  endfacet
  facet normal -0.453991 -0.891006 0
    outer loop
      vertex -1.61373 -0.811179 0
      vertex -1.26527 -0.988729 2
      vertex -1.61373 -0.811179 2
    endloop
  endfacet
  facet normal -0.453991 -0.891006 -0
    outer loop
      vertex -1.26527 -0.988729 2
      vertex -1.61373 -0.811179 0
      vertex -1.26527 -0.988729 0
    endloop
  endfacet
  facet normal 0.453991 -0.891006 0
    outer loop
      vertex -2.73473 -0.988729 0
      vertex -2.38627 -0.811179 2
      vertex -2.73473 -0.988729 2
    endloop
  endfacet
  facet normal 0.453991 -0.891006 0
    outer loop
      vertex -2.38627 -0.811179 2
      vertex -2.73473 -0.988729 0
      vertex -2.38627 -0.811179 0
    endloop
  endfacet
  facet normal 0.707107 -0.707107 0
    outer loop
      vertex -3.01127 -1.26527 2
      vertex -2.73473 -0.988729 0
      vertex -2.73473 -0.988729 2
    endloop
  endfacet
  facet normal 0.707107 -0.707107 0
    outer loop
      vertex -2.73473 -0.988729 0
      vertex -3.01127 -1.26527 2
      vertex -3.01127 -1.26527 0
    endloop
  endfacet
  facet normal 0.156434 -0.987688 0
    outer loop
      vertex -2.38627 -0.811179 0
      vertex -2 -0.75 2
      vertex -2.38627 -0.811179 2
    endloop
  endfacet
  facet normal 0.156434 -0.987688 0
    outer loop
      vertex -2 -0.75 2
      vertex -2.38627 -0.811179 0
      vertex -2 -0.75 0
    endloop
  endfacet
  facet normal -0.891006 0.453991 0
    outer loop
      vertex -0.988729 -2.73473 0
      vertex -0.811179 -2.38627 2
      vertex -0.811179 -2.38627 0
    endloop
  endfacet
  facet normal -0.891006 0.453991 0
    outer loop
      vertex -0.811179 -2.38627 2
      vertex -0.988729 -2.73473 0
      vertex -0.988729 -2.73473 2
    endloop
  endfacet
  facet normal 0.707107 0.707107 0
    outer loop
      vertex -2.73473 -3.01127 2
      vertex -3.01127 -2.73473 0
      vertex -3.01127 -2.73473 2
    endloop
  endfacet
  facet normal 0.707107 0.707107 0
    outer loop
      vertex -3.01127 -2.73473 0
      vertex -2.73473 -3.01127 2
      vertex -2.73473 -3.01127 0
    endloop
  endfacet
  facet normal 0.987688 0.156436 0
    outer loop
      vertex -3.18882 -2.38627 2
      vertex -3.25 -2 0
      vertex -3.25 -2 2
    endloop
  endfacet
  facet normal 0.987688 0.156436 0
    outer loop
      vertex -3.25 -2 0
      vertex -3.18882 -2.38627 2
      vertex -3.18882 -2.38627 0
    endloop
  endfacet
  facet normal 0.891006 -0.453991 0
    outer loop
      vertex -3.18882 -1.61373 2
      vertex -3.01127 -1.26527 0
      vertex -3.01127 -1.26527 2
    endloop
  endfacet
  facet normal 0.891006 -0.453991 0
    outer loop
      vertex -3.01127 -1.26527 0
      vertex -3.18882 -1.61373 2
      vertex -3.18882 -1.61373 0
    endloop
  endfacet
  facet normal -0.987688 0.156434 0
    outer loop
      vertex -0.811179 -2.38627 0
      vertex -0.75 -2 2
      vertex -0.75 -2 0
    endloop
  endfacet
  facet normal -0.987688 0.156434 0
    outer loop
      vertex -0.75 -2 2
      vertex -0.811179 -2.38627 0
      vertex -0.811179 -2.38627 2
    endloop
  endfacet
  facet normal -0.156436 0.987688 0
    outer loop
      vertex -1.61373 -3.18882 0
      vertex -2 -3.25 2
      vertex -1.61373 -3.18882 2
    endloop
  endfacet
  facet normal -0.156436 0.987688 0
    outer loop
      vertex -2 -3.25 2
      vertex -1.61373 -3.18882 0
      vertex -2 -3.25 0
    endloop
  endfacet
  facet normal -0.707107 0.707107 0
    outer loop
      vertex -1.26527 -3.01127 0
      vertex -0.988729 -2.73473 2
      vertex -0.988729 -2.73473 0
    endloop
  endfacet
  facet normal -0.707107 0.707107 0
    outer loop
      vertex -0.988729 -2.73473 2
      vertex -1.26527 -3.01127 0
      vertex -1.26527 -3.01127 2
    endloop
  endfacet
  facet normal 0.453991 0.891006 -0
    outer loop
      vertex -2.38627 -3.18882 0
      vertex -2.73473 -3.01127 2
      vertex -2.38627 -3.18882 2
    endloop
  endfacet
  facet normal 0.453991 0.891006 0
    outer loop
      vertex -2.73473 -3.01127 2
      vertex -2.38627 -3.18882 0
      vertex -2.73473 -3.01127 0
    endloop
  endfacet
  facet normal 0.891006 0.453991 0
    outer loop
      vertex -3.01127 -2.73473 2
      vertex -3.18882 -2.38627 0
      vertex -3.18882 -2.38627 2
    endloop
  endfacet
  facet normal 0.891006 0.453991 0
    outer loop
      vertex -3.18882 -2.38627 0
      vertex -3.01127 -2.73473 2
      vertex -3.01127 -2.73473 0
    endloop
  endfacet
  facet normal -0.453991 0.891006 0
    outer loop
      vertex -1.26527 -3.01127 0
      vertex -1.61373 -3.18882 2
      vertex -1.26527 -3.01127 2
    endloop
  endfacet
  facet normal -0.453991 0.891006 0
    outer loop
      vertex -1.61373 -3.18882 2
      vertex -1.26527 -3.01127 0
      vertex -1.61373 -3.18882 0
    endloop
  endfacet
  facet normal 0 -1 0
    outer loop
      vertex -0.5 -7 2
      vertex 0.5 -7 3
      vertex -0.5 -7 3
    endloop
  endfacet
  facet normal 0 -1 -0
    outer loop
      vertex 0.5 -7 3
      vertex -0.5 -7 2
      vertex 0.5 -7 2
    endloop
  endfacet
  facet normal 0 0 1
    outer loop
      vertex -2.5 7 3
      vertex -3.5 7 3
      vertex -2.5 5 3
    endloop
  endfacet
  facet normal 0 0 1
    outer loop
      vertex 0.5 7 3
      vertex -0.5 7 3
      vertex 0.5 5 3
    endloop
  endfacet
  facet normal 0 0 1
    outer loop
      vertex 3.5 7 3
      vertex 2.5 7 3
      vertex 3.5 5 3
    endloop
  endfacet
  facet normal -0 0 1
    outer loop
      vertex 4 4 3
      vertex 5 3.5 3
      vertex 5 5 3
    endloop
  endfacet
  facet normal 0 0 1
    outer loop
      vertex 5 3.5 3
      vertex 4 4 3
      vertex 5 2.5 3
    endloop
  endfacet
  facet normal 0 0 1
    outer loop
      vertex 5 2.5 3
      vertex 4 4 3
      vertex 5 0.5 3
    endloop
  endfacet
  facet normal 0 0 1
    outer loop
      vertex 5 0.5 3
      vertex 4 4 3
      vertex 5 -0.5 3
    endloop
  endfacet
  facet normal 0 0 1
    outer loop
      vertex 4 -4 3
      vertex 5 -0.5 3
      vertex 4 4 3
    endloop
  endfacet
  facet normal 0 0 1
    outer loop
      vertex 5 -0.5 3
      vertex 4 -4 3
      vertex 5 -2.5 3
    endloop
  endfacet
  facet normal 0 0 1
    outer loop
      vertex 5 -2.5 3
      vertex 4 -4 3
      vertex 5 -3.5 3
    endloop
  endfacet
  facet normal -0 0 1
    outer loop
      vertex 3.5 5 3
      vertex 4 4 3
      vertex 5 5 3
    endloop
  endfacet
  facet normal 0 0 1
    outer loop
      vertex 2.5 5 3
      vertex 3.5 5 3
      vertex 2.5 7 3
    endloop
  endfacet
  facet normal 0 0 1
    outer loop
      vertex 3.5 5 3
      vertex 2.5 5 3
      vertex 4 4 3
    endloop
  endfacet
  facet normal -0 0 1
    outer loop
      vertex 0.5 5 3
      vertex 4 4 3
      vertex 2.5 5 3
    endloop
  endfacet
  facet normal 0 0 1
    outer loop
      vertex -0.5 5 3
      vertex 0.5 5 3
      vertex -0.5 7 3
    endloop
  endfacet
  facet normal -0 0 1
    outer loop
      vertex -0.5 5 3
      vertex 4 4 3
      vertex 0.5 5 3
    endloop
  endfacet
  facet normal 0 0 1
    outer loop
      vertex -4 4 3
      vertex -0.5 5 3
      vertex -2.5 5 3
    endloop
  endfacet
  facet normal 0 0 1
    outer loop
      vertex -3.5 5 3
      vertex -2.5 5 3
      vertex -3.5 7 3
    endloop
  endfacet
  facet normal 0 0 1
    outer loop
      vertex -4 4 3
      vertex -2.5 5 3
      vertex -3.5 5 3
    endloop
  endfacet
  facet normal 0 0 1
    outer loop
      vertex -0.5 5 3
      vertex -4 4 3
      vertex 4 4 3
    endloop
  endfacet
  facet normal 0 0 1
    outer loop
      vertex -5 3.5 3
      vertex -4 4 3
      vertex -5 5 3
    endloop
  endfacet
  facet normal -0 0 1
    outer loop
      vertex -5 5 3
      vertex -4 4 3
      vertex -3.5 5 3
    endloop
  endfacet
  facet normal -0 0 1
    outer loop
      vertex 5 3.5 3
      vertex 7 2.5 3
      vertex 7 3.5 3
    endloop
  endfacet
  facet normal 0 0 1
    outer loop
      vertex 7 2.5 3
      vertex 5 3.5 3
      vertex 5 2.5 3
    endloop
  endfacet
  facet normal -0 0 1
    outer loop
      vertex 5 0.5 3
      vertex 7 -0.5 3
      vertex 7 0.5 3
    endloop
  endfacet
  facet normal 0 0 1
    outer loop
      vertex 7 -0.5 3
      vertex 5 0.5 3
      vertex 5 -0.5 3
    endloop
  endfacet
  facet normal -0 0 1
    outer loop
      vertex 5 -2.5 3
      vertex 7 -3.5 3
      vertex 7 -2.5 3
    endloop
  endfacet
  facet normal 0 0 1
    outer loop
      vertex 7 -3.5 3
      vertex 5 -2.5 3
      vertex 5 -3.5 3
    endloop
  endfacet
  facet normal 0 0 1
    outer loop
      vertex 5 -3.5 3
      vertex 4 -4 3
      vertex 5 -5 3
    endloop
  endfacet
  facet normal 0 0 1
    outer loop
      vertex 4 -4 3
      vertex 3.5 -5 3
      vertex 5 -5 3
    endloop
  endfacet
  facet normal 0 0 1
    outer loop
      vertex 3.5 -5 3
      vertex 2.5 -5 3
      vertex 3.5 -7 3
    endloop
  endfacet
  facet normal 0 0 1
    outer loop
      vertex 4 -4 3
      vertex 2.5 -5 3
      vertex 3.5 -5 3
    endloop
  endfacet
  facet normal 0 0 1
    outer loop
      vertex 4 -4 3
      vertex 0.5 -5 3
      vertex 2.5 -5 3
    endloop
  endfacet
  facet normal 0 0 1
    outer loop
      vertex 0.5 -5 3
      vertex -0.5 -5 3
      vertex 0.5 -7 3
    endloop
  endfacet
  facet normal 0 0 1
    outer loop
      vertex 4 -4 3
      vertex -0.5 -5 3
      vertex 0.5 -5 3
    endloop
  endfacet
  facet normal -0 0 1
    outer loop
      vertex -4 -4 3
      vertex -0.5 -5 3
      vertex 4 -4 3
    endloop
  endfacet
  facet normal 0 0 1
    outer loop
      vertex -2.5 -5 3
      vertex -3.5 -5 3
      vertex -2.5 -7 3
    endloop
  endfacet
  facet normal 0 0 1
    outer loop
      vertex -0.5 -5 3
      vertex -4 -4 3
      vertex -2.5 -5 3
    endloop
  endfacet
  facet normal 0 0 1
    outer loop
      vertex -2.5 -5 3
      vertex -4 -4 3
      vertex -3.5 -5 3
    endloop
  endfacet
  facet normal 0 0 1
    outer loop
      vertex -5 2.5 3
      vertex -4 4 3
      vertex -5 3.5 3
    endloop
  endfacet
  facet normal 0 0 1
    outer loop
      vertex -5 0.5 3
      vertex -4 4 3
      vertex -5 2.5 3
    endloop
  endfacet
  facet normal 0 0 1
    outer loop
      vertex -4 4 3
      vertex -5 0.5 3
      vertex -4 -4 3
    endloop
  endfacet
  facet normal -0 0 1
    outer loop
      vertex -5 -0.5 3
      vertex -4 -4 3
      vertex -5 0.5 3
    endloop
  endfacet
  facet normal -0 0 1
    outer loop
      vertex -5 -2.5 3
      vertex -4 -4 3
      vertex -5 -0.5 3
    endloop
  endfacet
  facet normal -0 0 1
    outer loop
      vertex -5 -3.5 3
      vertex -4 -4 3
      vertex -5 -2.5 3
    endloop
  endfacet
  facet normal 0 0 1
    outer loop
      vertex -5 -5 3
      vertex -4 -4 3
      vertex -5 -3.5 3
    endloop
  endfacet
  facet normal 0 0 1
    outer loop
      vertex -4 -4 3
      vertex -5 -5 3
      vertex -3.5 -5 3
    endloop
  endfacet
  facet normal 0 0 1
    outer loop
      vertex 3.5 -7 3
      vertex 2.5 -5 3
      vertex 2.5 -7 3
    endloop
  endfacet
  facet normal 0 0 1
    outer loop
      vertex 0.5 -7 3
      vertex -0.5 -5 3
      vertex -0.5 -7 3
    endloop
  endfacet
  facet normal -0 0 1
    outer loop
      vertex -7 -2.5 3
      vertex -5 -3.5 3
      vertex -5 -2.5 3
    endloop
  endfacet
  facet normal 0 0 1
    outer loop
      vertex -5 -3.5 3
      vertex -7 -2.5 3
      vertex -7 -3.5 3
    endloop
  endfacet
  facet normal -0 0 1
    outer loop
      vertex -7 0.5 3
      vertex -5 -0.5 3
      vertex -5 0.5 3
    endloop
  endfacet
  facet normal 0 0 1
    outer loop
      vertex -5 -0.5 3
      vertex -7 0.5 3
      vertex -7 -0.5 3
    endloop
  endfacet
  facet normal -0 0 1
    outer loop
      vertex -7 3.5 3
      vertex -5 2.5 3
      vertex -5 3.5 3
    endloop
  endfacet
  facet normal 0 0 1
    outer loop
      vertex -5 2.5 3
      vertex -7 3.5 3
      vertex -7 2.5 3
    endloop
  endfacet
  facet normal 0 0 1
    outer loop
      vertex -2.5 -7 3
      vertex -3.5 -5 3
      vertex -3.5 -7 3
    endloop
  endfacet
  facet normal 0 1 -0
    outer loop
      vertex 0.5 7 2
      vertex -0.5 7 3
      vertex 0.5 7 3
    endloop
  endfacet
  facet normal 0 1 0
    outer loop
      vertex -0.5 7 3
      vertex 0.5 7 2
      vertex -0.5 7 2
    endloop
  endfacet
  facet normal 1 -0 0
    outer loop
      vertex 0.5 -7 3
      vertex 0.5 -5 2
      vertex 0.5 -5 3
    endloop
  endfacet
  facet normal 1 0 0
    outer loop
      vertex 0.5 -5 2
      vertex 0.5 -7 3
      vertex 0.5 -7 2
    endloop
  endfacet
  facet normal 1 -0 0
    outer loop
      vertex 0.5 5 3
      vertex 0.5 7 2
      vertex 0.5 7 3
    endloop
  endfacet
  facet normal 1 0 0
    outer loop
      vertex 0.5 7 2
      vertex 0.5 5 3
      vertex 0.5 5 2
    endloop
  endfacet
  facet normal -1 0 0
    outer loop
      vertex -0.5 5 2
      vertex -0.5 7 3
      vertex -0.5 7 2
    endloop
  endfacet
  facet normal -1 -0 0
    outer loop
      vertex -0.5 7 3
      vertex -0.5 5 2
      vertex -0.5 5 3
    endloop
  endfacet
  facet normal -1 0 0
    outer loop
      vertex -0.5 -7 2
      vertex -0.5 -5 3
      vertex -0.5 -5 2
    endloop
  endfacet
  facet normal -1 -0 0
    outer loop
      vertex -0.5 -5 3
      vertex -0.5 -7 2
      vertex -0.5 -7 3
    endloop
  endfacet
  facet normal 0 -1 0
    outer loop
      vertex -3.5 -7 2
      vertex -2.5 -7 3
      vertex -3.5 -7 3
    endloop
  endfacet
  facet normal 0 -1 -0
    outer loop
      vertex -2.5 -7 3
      vertex -3.5 -7 2
      vertex -2.5 -7 2
    endloop
  endfacet
  facet normal 0 1 -0
    outer loop
      vertex -2.5 7 2
      vertex -3.5 7 3
      vertex -2.5 7 3
    endloop
  endfacet
  facet normal 0 1 0
    outer loop
      vertex -3.5 7 3
      vertex -2.5 7 2
      vertex -3.5 7 2
    endloop
  endfacet
  facet normal -1 0 0
    outer loop
      vertex -3.5 5 2
      vertex -3.5 7 3
      vertex -3.5 7 2
    endloop
  endfacet
  facet normal -1 -0 0
    outer loop
      vertex -3.5 7 3
      vertex -3.5 5 2
      vertex -3.5 5 3
    endloop
  endfacet
  facet normal -1 0 0
    outer loop
      vertex -3.5 -7 2
      vertex -3.5 -5 3
      vertex -3.5 -5 2
    endloop
  endfacet
  facet normal -1 -0 0
    outer loop
      vertex -3.5 -5 3
      vertex -3.5 -7 2
      vertex -3.5 -7 3
    endloop
  endfacet
  facet normal 1 -0 0
    outer loop
      vertex -2.5 -7 3
      vertex -2.5 -5 2
      vertex -2.5 -5 3
    endloop
  endfacet
  facet normal 1 0 0
    outer loop
      vertex -2.5 -5 2
      vertex -2.5 -7 3
      vertex -2.5 -7 2
    endloop
  endfacet
  facet normal 1 -0 0
    outer loop
      vertex -2.5 5 3
      vertex -2.5 7 2
      vertex -2.5 7 3
    endloop
  endfacet
  facet normal 1 0 0
    outer loop
      vertex -2.5 7 2
      vertex -2.5 5 3
      vertex -2.5 5 2
    endloop
  endfacet
  facet normal 0 -1 0
    outer loop
      vertex 2.5 -7 2
      vertex 3.5 -7 3
      vertex 2.5 -7 3
    endloop
  endfacet
  facet normal 0 -1 -0
    outer loop
      vertex 3.5 -7 3
      vertex 2.5 -7 2
      vertex 3.5 -7 2
    endloop
  endfacet
  facet normal 0 1 -0
    outer loop
      vertex 3.5 7 2
      vertex 2.5 7 3
      vertex 3.5 7 3
    endloop
  endfacet
  facet normal 0 1 0
    outer loop
      vertex 2.5 7 3
      vertex 3.5 7 2
      vertex 2.5 7 2
    endloop
  endfacet
  facet normal -1 0 0
    outer loop
      vertex 2.5 5 2
      vertex 2.5 7 3
      vertex 2.5 7 2
    endloop
  endfacet
  facet normal -1 -0 0
    outer loop
      vertex 2.5 7 3
      vertex 2.5 5 2
      vertex 2.5 5 3
    endloop
  endfacet
  facet normal -1 0 0
    outer loop
      vertex 2.5 -7 2
      vertex 2.5 -5 3
      vertex 2.5 -5 2
    endloop
  endfacet
  facet normal -1 -0 0
    outer loop
      vertex 2.5 -5 3
      vertex 2.5 -7 2
      vertex 2.5 -7 3
    endloop
  endfacet
  facet normal 1 -0 0
    outer loop
      vertex 3.5 -7 3
      vertex 3.5 -5 2
      vertex 3.5 -5 3
    endloop
  endfacet
  facet normal 1 0 0
    outer loop
      vertex 3.5 -5 2
      vertex 3.5 -7 3
      vertex 3.5 -7 2
    endloop
  endfacet
  facet normal 1 -0 0
    outer loop
      vertex 3.5 5 3
      vertex 3.5 7 2
      vertex 3.5 7 3
    endloop
  endfacet
  facet normal 1 0 0
    outer loop
      vertex 3.5 7 2
      vertex 3.5 5 3
      vertex 3.5 5 2
    endloop
  endfacet
  facet normal -1 0 0
    outer loop
      vertex -5 -5 2
      vertex -5 -3.5 3
      vertex -5 -3.5 2
    endloop
  endfacet
  facet normal -1 -0 0
    outer loop
      vertex -5 -3.5 3
      vertex -5 -5 2
      vertex -5 -5 3
    endloop
  endfacet
  facet normal -1 0 0
    outer loop
      vertex -5 3.5 2
      vertex -5 5 3
      vertex -5 5 2
    endloop
  endfacet
  facet normal -1 -0 0
    outer loop
      vertex -5 5 3
      vertex -5 3.5 2
      vertex -5 3.5 3
    endloop
  endfacet
  facet normal -1 0 0
    outer loop
      vertex -5 -2.5 2
      vertex -5 -0.5 3
      vertex -5 -0.5 2
    endloop
  endfacet
  facet normal -1 -0 0
    outer loop
      vertex -5 -0.5 3
      vertex -5 -2.5 2
      vertex -5 -2.5 3
    endloop
  endfacet
  facet normal -1 0 0
    outer loop
      vertex -5 0.5 2
      vertex -5 2.5 3
      vertex -5 2.5 2
    endloop
  endfacet
  facet normal -1 -0 0
    outer loop
      vertex -5 2.5 3
      vertex -5 0.5 2
      vertex -5 0.5 3
    endloop
  endfacet
  facet normal 1 -0 0
    outer loop
      vertex 5 -5 3
      vertex 5 -3.5 2
      vertex 5 -3.5 3
    endloop
  endfacet
  facet normal 1 0 0
    outer loop
      vertex 5 -3.5 2
      vertex 5 -5 3
      vertex 5 -5 2
    endloop
  endfacet
  facet normal 1 -0 0
    outer loop
      vertex 5 3.5 3
      vertex 5 5 2
      vertex 5 5 3
    endloop
  endfacet
  facet normal 1 0 0
    outer loop
      vertex 5 5 2
      vertex 5 3.5 3
      vertex 5 3.5 2
    endloop
  endfacet
  facet normal 1 -0 0
    outer loop
      vertex 5 -2.5 3
      vertex 5 -0.5 2
      vertex 5 -0.5 3
    endloop
  endfacet
  facet normal 1 0 0
    outer loop
      vertex 5 -0.5 2
      vertex 5 -2.5 3
      vertex 5 -2.5 2
    endloop
  endfacet
  facet normal 1 -0 0
    outer loop
      vertex 5 0.5 3
      vertex 5 2.5 2
      vertex 5 2.5 3
    endloop
  endfacet
  facet normal 1 0 0
    outer loop
      vertex 5 2.5 2
      vertex 5 0.5 3
      vertex 5 0.5 2
    endloop
  endfacet
  facet normal 0 -1 0
    outer loop
      vertex -5 -5 2
      vertex -3.5 -5 3
      vertex -5 -5 3
    endloop
  endfacet
  facet normal 0 -1 -0
    outer loop
      vertex -3.5 -5 3
      vertex -5 -5 2
      vertex -3.5 -5 2
    endloop
  endfacet
  facet normal 0 -1 0
    outer loop
      vertex 3.5 -5 2
      vertex 5 -5 3
      vertex 3.5 -5 3
    endloop
  endfacet
  facet normal 0 -1 -0
    outer loop
      vertex 5 -5 3
      vertex 3.5 -5 2
      vertex 5 -5 2
    endloop
  endfacet
  facet normal 0 -1 0
    outer loop
      vertex -2.5 -5 2
      vertex -0.5 -5 3
      vertex -2.5 -5 3
    endloop
  endfacet
  facet normal 0 -1 -0
    outer loop
      vertex -0.5 -5 3
      vertex -2.5 -5 2
      vertex -0.5 -5 2
    endloop
  endfacet
  facet normal 0 -1 0
    outer loop
      vertex 0.5 -5 2
      vertex 2.5 -5 3
      vertex 0.5 -5 3
    endloop
  endfacet
  facet normal 0 -1 -0
    outer loop
      vertex 2.5 -5 3
      vertex 0.5 -5 2
      vertex 2.5 -5 2
    endloop
  endfacet
  facet normal 0 1 -0
    outer loop
      vertex 5 5 2
      vertex 3.5 5 3
      vertex 5 5 3
    endloop
  endfacet
  facet normal 0 1 0
    outer loop
      vertex 3.5 5 3
      vertex 5 5 2
      vertex 3.5 5 2
    endloop
  endfacet
  facet normal 0 1 -0
    outer loop
      vertex -3.5 5 2
      vertex -5 5 3
      vertex -3.5 5 3
    endloop
  endfacet
  facet normal 0 1 0
    outer loop
      vertex -5 5 3
      vertex -3.5 5 2
      vertex -5 5 2
    endloop
  endfacet
  facet normal 0 1 -0
    outer loop
      vertex -0.5 5 2
      vertex -2.5 5 3
      vertex -0.5 5 3
    endloop
  endfacet
  facet normal 0 1 0
    outer loop
      vertex -2.5 5 3
      vertex -0.5 5 2
      vertex -2.5 5 2
    endloop
  endfacet
  facet normal 0 1 -0
    outer loop
      vertex 2.5 5 2
      vertex 0.5 5 3
      vertex 2.5 5 3
    endloop
  endfacet
  facet normal 0 1 0
    outer loop
      vertex 0.5 5 3
      vertex 2.5 5 2
      vertex 0.5 5 2
    endloop
  endfacet
  facet normal -1 0 0
    outer loop
      vertex -7 -0.5 2
      vertex -7 0.5 3
      vertex -7 0.5 2
    endloop
  endfacet
  facet normal -1 -0 0
    outer loop
      vertex -7 0.5 3
      vertex -7 -0.5 2
      vertex -7 -0.5 3
    endloop
  endfacet
  facet normal 1 -0 0
    outer loop
      vertex 7 -0.5 3
      vertex 7 0.5 2
      vertex 7 0.5 3
    endloop
  endfacet
  facet normal 1 0 0
    outer loop
      vertex 7 0.5 2
      vertex 7 -0.5 3
      vertex 7 -0.5 2
    endloop
  endfacet
  facet normal 0 1 -0
    outer loop
      vertex 7 0.5 2
      vertex 5 0.5 3
      vertex 7 0.5 3
    endloop
  endfacet
  facet normal 0 1 0
    outer loop
      vertex 5 0.5 3
      vertex 7 0.5 2
      vertex 5 0.5 2
    endloop
  endfacet
  facet normal 0 1 -0
    outer loop
      vertex -5 0.5 2
      vertex -7 0.5 3
      vertex -5 0.5 3
    endloop
  endfacet
  facet normal 0 1 0
    outer loop
      vertex -7 0.5 3
      vertex -5 0.5 2
      vertex -7 0.5 2
    endloop
  endfacet
  facet normal 0 -1 0
    outer loop
      vertex -7 -0.5 2
      vertex -5 -0.5 3
      vertex -7 -0.5 3
    endloop
  endfacet
  facet normal 0 -1 -0
    outer loop
      vertex -5 -0.5 3
      vertex -7 -0.5 2
      vertex -5 -0.5 2
    endloop
  endfacet
  facet normal 0 -1 0
    outer loop
      vertex 5 -0.5 2
      vertex 7 -0.5 3
      vertex 5 -0.5 3
    endloop
  endfacet
  facet normal 0 -1 -0
    outer loop
      vertex 7 -0.5 3
      vertex 5 -0.5 2
      vertex 7 -0.5 2
    endloop
  endfacet
  facet normal -1 0 0
    outer loop
      vertex -7 2.5 2
      vertex -7 3.5 3
      vertex -7 3.5 2
    endloop
  endfacet
  facet normal -1 -0 0
    outer loop
      vertex -7 3.5 3
      vertex -7 2.5 2
      vertex -7 2.5 3
    endloop
  endfacet
  facet normal 1 -0 0
    outer loop
      vertex 7 2.5 3
      vertex 7 3.5 2
      vertex 7 3.5 3
    endloop
  endfacet
  facet normal 1 0 0
    outer loop
      vertex 7 3.5 2
      vertex 7 2.5 3
      vertex 7 2.5 2
    endloop
  endfacet
  facet normal 0 1 -0
    outer loop
      vertex 7 3.5 2
      vertex 5 3.5 3
      vertex 7 3.5 3
    endloop
  endfacet
  facet normal 0 1 0
    outer loop
      vertex 5 3.5 3
      vertex 7 3.5 2
      vertex 5 3.5 2
    endloop
  endfacet
  facet normal 0 1 -0
    outer loop
      vertex -5 3.5 2
      vertex -7 3.5 3
      vertex -5 3.5 3
    endloop
  endfacet
  facet normal 0 1 0
    outer loop
      vertex -7 3.5 3
      vertex -5 3.5 2
      vertex -7 3.5 2
    endloop
  endfacet
  facet normal 0 -1 0
    outer loop
      vertex -7 2.5 2
      vertex -5 2.5 3
      vertex -7 2.5 3
    endloop
  endfacet
  facet normal 0 -1 -0
    outer loop
      vertex -5 2.5 3
      vertex -7 2.5 2
      vertex -5 2.5 2
    endloop
  endfacet
  facet normal 0 -1 0
    outer loop
      vertex 5 2.5 2
      vertex 7 2.5 3
      vertex 5 2.5 3
    endloop
  endfacet
  facet normal 0 -1 -0
    outer loop
      vertex 7 2.5 3
      vertex 5 2.5 2
      vertex 7 2.5 2
    endloop
  endfacet
  facet normal -1 0 0
    outer loop
      vertex -7 -3.5 2
      vertex -7 -2.5 3
      vertex -7 -2.5 2
    endloop
  endfacet
  facet normal -1 -0 0
    outer loop
      vertex -7 -2.5 3
      vertex -7 -3.5 2
      vertex -7 -3.5 3
    endloop
  endfacet
  facet normal 1 -0 0
    outer loop
      vertex 7 -3.5 3
      vertex 7 -2.5 2
      vertex 7 -2.5 3
    endloop
  endfacet
  facet normal 1 0 0
    outer loop
      vertex 7 -2.5 2
      vertex 7 -3.5 3
      vertex 7 -3.5 2
    endloop
  endfacet
  facet normal 0 -1 0
    outer loop
      vertex -7 -3.5 2
      vertex -5 -3.5 3
      vertex -7 -3.5 3
    endloop
  endfacet
  facet normal 0 -1 -0
    outer loop
      vertex -5 -3.5 3
      vertex -7 -3.5 2
      vertex -5 -3.5 2
    endloop
  endfacet
  facet normal 0 -1 0
    outer loop
      vertex 5 -3.5 2
      vertex 7 -3.5 3
      vertex 5 -3.5 3
    endloop
  endfacet
  facet normal 0 -1 -0
    outer loop
      vertex 7 -3.5 3
      vertex 5 -3.5 2
      vertex 7 -3.5 2
    endloop
  endfacet
  facet normal 0 1 -0
    outer loop
      vertex 7 -2.5 2
      vertex 5 -2.5 3
      vertex 7 -2.5 3
    endloop
  endfacet
  facet normal 0 1 0
    outer loop
      vertex 5 -2.5 3
      vertex 7 -2.5 2
      vertex 5 -2.5 2
    endloop
  endfacet
  facet normal 0 1 -0
    outer loop
      vertex -5 -2.5 2
      vertex -7 -2.5 3
      vertex -5 -2.5 3
    endloop
  endfacet
  facet normal 0 1 0
    outer loop
      vertex -7 -2.5 3
      vertex -5 -2.5 2
      vertex -7 -2.5 2
    endloop
  endfacet
  facet normal 1 -0 0
    outer loop
      vertex -4 -4 3
      vertex -4 4 2
      vertex -4 4 3
    endloop
  endfacet
  facet normal 1 0 0
    outer loop
      vertex -4 4 2
      vertex -4 -4 3
      vertex -4 -4 2
    endloop
  endfacet
  facet normal -1 0 0
    outer loop
      vertex 4 -4 2
      vertex 4 4 3
      vertex 4 4 2
    endloop
  endfacet
  facet normal -1 -0 0
    outer loop
      vertex 4 4 3
      vertex 4 -4 2
      vertex 4 -4 3
    endloop
  endfacet
  facet normal 0 -1 0
    outer loop
      vertex -4 4 2
      vertex 4 4 3
      vertex -4 4 3
    endloop
  endfacet
  facet normal 0 -1 -0
    outer loop
      vertex 4 4 3
      vertex -4 4 2
      vertex 4 4 2
    endloop
  endfacet
  facet normal 0 1 -0
    outer loop
      vertex 4 -4 2
      vertex -4 -4 3
      vertex 4 -4 3
    endloop
  endfacet
  facet normal 0 1 0
    outer loop
      vertex -4 -4 3
      vertex 4 -4 2
      vertex -4 -4 2
    endloop
  endfacet
endsolid OpenSCAD_Model
