solid OpenSCAD_Model
  facet normal -1 0 0
    outer loop
      vertex 0 0 0
      vertex 0 30 4
      vertex 0 30 0
    endloop
  endfacet
  facet normal -1 -0 0
    outer loop
      vertex 0 30 4
      vertex 0 0 0
      vertex 0 0 4
    endloop
  endfacet
  facet normal -0 0 1
    outer loop
      vertex 152 30 4
      vertex 167 0 4
      vertex 167 30 4
    endloop
  endfacet
  facet normal 0 0 1
    outer loop
      vertex 167 0 4
      vertex 152 30 4
      vertex 152 0 4
    endloop
  endfacet
  facet normal -0 0 1
    outer loop
      vertex 133 30 4
      vertex 148 0 4
      vertex 148 30 4
    endloop
  endfacet
  facet normal 0 0 1
    outer loop
      vertex 148 0 4
      vertex 133 30 4
      vertex 133 0 4
    endloop
  endfacet
  facet normal -0 0 1
    outer loop
      vertex 114 30 4
      vertex 129 0 4
      vertex 129 30 4
    endloop
  endfacet
  facet normal 0 0 1
    outer loop
      vertex 129 0 4
      vertex 114 30 4
      vertex 114 0 4
    endloop
  endfacet
  facet normal -0 0 1
    outer loop
      vertex 95 30 4
      vertex 110 0 4
      vertex 110 30 4
    endloop
  endfacet
  facet normal 0 0 1
    outer loop
      vertex 110 0 4
      vertex 95 30 4
      vertex 95 0 4
    endloop
  endfacet
  facet normal -0 0 1
    outer loop
      vertex 76 30 4
      vertex 91 0 4
      vertex 91 30 4
    endloop
  endfacet
  facet normal 0 0 1
    outer loop
      vertex 91 0 4
      vertex 76 30 4
      vertex 76 0 4
    endloop
  endfacet
  facet normal -0 0 1
    outer loop
      vertex 57 30 4
      vertex 72 0 4
      vertex 72 30 4
    endloop
  endfacet
  facet normal 0 0 1
    outer loop
      vertex 72 0 4
      vertex 57 30 4
      vertex 57 0 4
    endloop
  endfacet
  facet normal -0 0 1
    outer loop
      vertex 38 30 4
      vertex 53 0 4
      vertex 53 30 4
    endloop
  endfacet
  facet normal 0 0 1
    outer loop
      vertex 53 0 4
      vertex 38 30 4
      vertex 38 0 4
    endloop
  endfacet
  facet normal -0 0 1
    outer loop
      vertex 19 30 4
      vertex 34 0 4
      vertex 34 30 4
    endloop
  endfacet
  facet normal 0 0 1
    outer loop
      vertex 34 0 4
      vertex 19 30 4
      vertex 19 0 4
    endloop
  endfacet
  facet normal 0 0 1
    outer loop
      vertex 15 30 4
      vertex 10.5 15 4
      vertex 15 0 4
    endloop
  endfacet
  facet normal 0 0 1
    outer loop
      vertex 15 30 4
      vertex 9.92705 16.7634 4
      vertex 10.5 15 4
    endloop
  endfacet
  facet normal 0 0 1
    outer loop
      vertex 15 30 4
      vertex 8.42705 17.8532 4
      vertex 9.92705 16.7634 4
    endloop
  endfacet
  facet normal 0 0 1
    outer loop
      vertex 15 30 4
      vertex 6.57295 17.8532 4
      vertex 8.42705 17.8532 4
    endloop
  endfacet
  facet normal -0 0 1
    outer loop
      vertex 0 30 4
      vertex 6.57295 17.8532 4
      vertex 15 30 4
    endloop
  endfacet
  facet normal 0 0 1
    outer loop
      vertex 5.07295 16.7634 4
      vertex 0 30 4
      vertex 4.5 15 4
    endloop
  endfacet
  facet normal 0 0 1
    outer loop
      vertex 6.57295 17.8532 4
      vertex 0 30 4
      vertex 5.07295 16.7634 4
    endloop
  endfacet
  facet normal -0 0 1
    outer loop
      vertex 9.92705 13.2366 4
      vertex 15 0 4
      vertex 10.5 15 4
    endloop
  endfacet
  facet normal -0 0 1
    outer loop
      vertex 8.42705 12.1468 4
      vertex 15 0 4
      vertex 9.92705 13.2366 4
    endloop
  endfacet
  facet normal -0 0 1
    outer loop
      vertex 6.57295 12.1468 4
      vertex 15 0 4
      vertex 8.42705 12.1468 4
    endloop
  endfacet
  facet normal 0 0 1
    outer loop
      vertex 0 0 4
      vertex 6.57295 12.1468 4
      vertex 5.07295 13.2366 4
    endloop
  endfacet
  facet normal 0 0 1
    outer loop
      vertex 6.57295 12.1468 4
      vertex 0 0 4
      vertex 15 0 4
    endloop
  endfacet
  facet normal 0 0 1
    outer loop
      vertex 4.5 15 4
      vertex 0 0 4
      vertex 5.07295 13.2366 4
    endloop
  endfacet
  facet normal 0 0 1
    outer loop
      vertex 0 0 4
      vertex 4.5 15 4
      vertex 0 30 4
    endloop
  endfacet
  facet normal 1 -0 0
    outer loop
      vertex 171 0 43
      vertex 171 30 0
      vertex 171 30 43
    endloop
  endfacet
  facet normal 1 0 0
    outer loop
      vertex 171 30 0
      vertex 171 0 43
      vertex 171 0 0
    endloop
  endfacet
  facet normal 0 0 -1
    outer loop
      vertex 171 0 0
      vertex 10.5 15 0
      vertex 171 30 0
    endloop
  endfacet
  facet normal 0 0 -1
    outer loop
      vertex 171 0 0
      vertex 9.92705 13.2366 0
      vertex 10.5 15 0
    endloop
  endfacet
  facet normal 0 0 -1
    outer loop
      vertex 0 0 0
      vertex 9.92705 13.2366 0
      vertex 171 0 0
    endloop
  endfacet
  facet normal 0 0 -1
    outer loop
      vertex 9.92705 13.2366 0
      vertex 0 0 0
      vertex 8.42705 12.1468 0
    endloop
  endfacet
  facet normal -0 0 -1
    outer loop
      vertex 5.07295 13.2366 0
      vertex 0 0 0
      vertex 4.5 15 0
    endloop
  endfacet
  facet normal -0 0 -1
    outer loop
      vertex 6.57295 12.1468 0
      vertex 0 0 0
      vertex 5.07295 13.2366 0
    endloop
  endfacet
  facet normal -0 0 -1
    outer loop
      vertex 8.42705 12.1468 0
      vertex 0 0 0
      vertex 6.57295 12.1468 0
    endloop
  endfacet
  facet normal 0 0 -1
    outer loop
      vertex 9.92705 16.7634 0
      vertex 171 30 0
      vertex 10.5 15 0
    endloop
  endfacet
  facet normal 0 0 -1
    outer loop
      vertex 0 30 0
      vertex 9.92705 16.7634 0
      vertex 8.42705 17.8532 0
    endloop
  endfacet
  facet normal 0 0 -1
    outer loop
      vertex 0 30 0
      vertex 8.42705 17.8532 0
      vertex 6.57295 17.8532 0
    endloop
  endfacet
  facet normal 0 0 -1
    outer loop
      vertex 9.92705 16.7634 0
      vertex 0 30 0
      vertex 171 30 0
    endloop
  endfacet
  facet normal 0 0 -1
    outer loop
      vertex 5.07295 16.7634 0
      vertex 0 30 0
      vertex 6.57295 17.8532 0
    endloop
  endfacet
  facet normal 0 0 -1
    outer loop
      vertex 4.5 15 0
      vertex 0 30 0
      vertex 5.07295 16.7634 0
    endloop
  endfacet
  facet normal 0 0 -1
    outer loop
      vertex 0 30 0
      vertex 4.5 15 0
      vertex 0 0 0
    endloop
  endfacet
  facet normal 0 -1 0
    outer loop
      vertex 0 0 0
      vertex 15 0 4
      vertex 0 0 4
    endloop
  endfacet
  facet normal 0 -1 -0
    outer loop
      vertex 15 0 4
      vertex 0 0 0
      vertex 19 0 4
    endloop
  endfacet
  facet normal 0 -1 -0
    outer loop
      vertex 19 0 4
      vertex 0 0 0
      vertex 34 0 4
    endloop
  endfacet
  facet normal 0 -1 -0
    outer loop
      vertex 34 0 4
      vertex 0 0 0
      vertex 38 0 4
    endloop
  endfacet
  facet normal 0 -1 -0
    outer loop
      vertex 38 0 4
      vertex 0 0 0
      vertex 53 0 4
    endloop
  endfacet
  facet normal 0 -1 -0
    outer loop
      vertex 53 0 4
      vertex 0 0 0
      vertex 57 0 4
    endloop
  endfacet
  facet normal 0 -1 -0
    outer loop
      vertex 57 0 4
      vertex 0 0 0
      vertex 72 0 4
    endloop
  endfacet
  facet normal 0 -1 -0
    outer loop
      vertex 72 0 4
      vertex 0 0 0
      vertex 76 0 4
    endloop
  endfacet
  facet normal 0 -1 -0
    outer loop
      vertex 76 0 4
      vertex 0 0 0
      vertex 91 0 4
    endloop
  endfacet
  facet normal 0 -1 -0
    outer loop
      vertex 91 0 4
      vertex 0 0 0
      vertex 95 0 4
    endloop
  endfacet
  facet normal 0 -1 0
    outer loop
      vertex 171 0 0
      vertex 95 0 4
      vertex 0 0 0
    endloop
  endfacet
  facet normal 0 -1 0
    outer loop
      vertex 95 0 4
      vertex 171 0 0
      vertex 110 0 4
    endloop
  endfacet
  facet normal 0 -1 0
    outer loop
      vertex 110 0 4
      vertex 171 0 0
      vertex 114 0 4
    endloop
  endfacet
  facet normal 0 -1 0
    outer loop
      vertex 114 0 4
      vertex 171 0 0
      vertex 129 0 4
    endloop
  endfacet
  facet normal 0 -1 0
    outer loop
      vertex 129 0 4
      vertex 171 0 0
      vertex 133 0 4
    endloop
  endfacet
  facet normal 0 -1 0
    outer loop
      vertex 133 0 4
      vertex 171 0 0
      vertex 148 0 4
    endloop
  endfacet
  facet normal 0 -1 0
    outer loop
      vertex 148 0 4
      vertex 171 0 0
      vertex 152 0 4
    endloop
  endfacet
  facet normal 0 -1 0
    outer loop
      vertex 15 0 4
      vertex 19 0 43
      vertex 15 0 43
    endloop
  endfacet
  facet normal 0 -1 -0
    outer loop
      vertex 19 0 43
      vertex 15 0 4
      vertex 19 0 4
    endloop
  endfacet
  facet normal 0 -1 0
    outer loop
      vertex 34 0 4
      vertex 38 0 43
      vertex 34 0 43
    endloop
  endfacet
  facet normal 0 -1 -0
    outer loop
      vertex 38 0 43
      vertex 34 0 4
      vertex 38 0 4
    endloop
  endfacet
  facet normal 0 -1 0
    outer loop
      vertex 53 0 4
      vertex 57 0 43
      vertex 53 0 43
    endloop
  endfacet
  facet normal 0 -1 -0
    outer loop
      vertex 57 0 43
      vertex 53 0 4
      vertex 57 0 4
    endloop
  endfacet
  facet normal 0 -1 0
    outer loop
      vertex 72 0 4
      vertex 76 0 43
      vertex 72 0 43
    endloop
  endfacet
  facet normal 0 -1 -0
    outer loop
      vertex 76 0 43
      vertex 72 0 4
      vertex 76 0 4
    endloop
  endfacet
  facet normal 0 -1 0
    outer loop
      vertex 91 0 4
      vertex 95 0 43
      vertex 91 0 43
    endloop
  endfacet
  facet normal 0 -1 -0
    outer loop
      vertex 95 0 43
      vertex 91 0 4
      vertex 95 0 4
    endloop
  endfacet
  facet normal 0 -1 0
    outer loop
      vertex 110 0 4
      vertex 114 0 43
      vertex 110 0 43
    endloop
  endfacet
  facet normal 0 -1 -0
    outer loop
      vertex 114 0 43
      vertex 110 0 4
      vertex 114 0 4
    endloop
  endfacet
  facet normal 0 -1 0
    outer loop
      vertex 129 0 4
      vertex 133 0 43
      vertex 129 0 43
    endloop
  endfacet
  facet normal 0 -1 -0
    outer loop
      vertex 133 0 43
      vertex 129 0 4
      vertex 133 0 4
    endloop
  endfacet
  facet normal 0 -1 0
    outer loop
      vertex 148 0 4
      vertex 152 0 43
      vertex 148 0 43
    endloop
  endfacet
  facet normal 0 -1 -0
    outer loop
      vertex 152 0 43
      vertex 148 0 4
      vertex 152 0 4
    endloop
  endfacet
  facet normal 0 -1 0
    outer loop
      vertex 167 0 4
      vertex 171 0 43
      vertex 167 0 43
    endloop
  endfacet
  facet normal 0 -1 0
    outer loop
      vertex 167 0 4
      vertex 171 0 0
      vertex 171 0 43
    endloop
  endfacet
  facet normal 0 -1 0
    outer loop
      vertex 152 0 4
      vertex 171 0 0
      vertex 167 0 4
    endloop
  endfacet
  facet normal 0 1 0
    outer loop
      vertex 171 30 43
      vertex 167 30 4
      vertex 167 30 43
    endloop
  endfacet
  facet normal 0 1 0
    outer loop
      vertex 171 30 0
      vertex 152 30 4
      vertex 167 30 4
    endloop
  endfacet
  facet normal 0 1 0
    outer loop
      vertex 152 30 4
      vertex 171 30 0
      vertex 148 30 4
    endloop
  endfacet
  facet normal 0 1 0
    outer loop
      vertex 148 30 4
      vertex 171 30 0
      vertex 133 30 4
    endloop
  endfacet
  facet normal 0 1 0
    outer loop
      vertex 133 30 4
      vertex 171 30 0
      vertex 129 30 4
    endloop
  endfacet
  facet normal 0 1 0
    outer loop
      vertex 129 30 4
      vertex 171 30 0
      vertex 114 30 4
    endloop
  endfacet
  facet normal 0 1 0
    outer loop
      vertex 114 30 4
      vertex 171 30 0
      vertex 110 30 4
    endloop
  endfacet
  facet normal 0 1 0
    outer loop
      vertex 110 30 4
      vertex 171 30 0
      vertex 95 30 4
    endloop
  endfacet
  facet normal 0 1 0
    outer loop
      vertex 95 30 4
      vertex 171 30 0
      vertex 91 30 4
    endloop
  endfacet
  facet normal 0 1 0
    outer loop
      vertex 91 30 4
      vertex 171 30 0
      vertex 76 30 4
    endloop
  endfacet
  facet normal 0 1 0
    outer loop
      vertex 0 30 0
      vertex 76 30 4
      vertex 171 30 0
    endloop
  endfacet
  facet normal 0 1 0
    outer loop
      vertex 76 30 4
      vertex 0 30 0
      vertex 72 30 4
    endloop
  endfacet
  facet normal 0 1 0
    outer loop
      vertex 72 30 4
      vertex 0 30 0
      vertex 57 30 4
    endloop
  endfacet
  facet normal 0 1 0
    outer loop
      vertex 57 30 4
      vertex 0 30 0
      vertex 53 30 4
    endloop
  endfacet
  facet normal 0 1 0
    outer loop
      vertex 53 30 4
      vertex 0 30 0
      vertex 38 30 4
    endloop
  endfacet
  facet normal 0 1 0
    outer loop
      vertex 38 30 4
      vertex 0 30 0
      vertex 34 30 4
    endloop
  endfacet
  facet normal 0 1 0
    outer loop
      vertex 34 30 4
      vertex 0 30 0
      vertex 19 30 4
    endloop
  endfacet
  facet normal 0 1 -0
    outer loop
      vertex 171 30 0
      vertex 167 30 4
      vertex 171 30 43
    endloop
  endfacet
  facet normal 0 1 0
    outer loop
      vertex 19 30 4
      vertex 0 30 0
      vertex 15 30 4
    endloop
  endfacet
  facet normal 0 1 0
    outer loop
      vertex 15 30 4
      vertex 0 30 0
      vertex 0 30 4
    endloop
  endfacet
  facet normal 0 1 -0
    outer loop
      vertex 152 30 4
      vertex 148 30 43
      vertex 152 30 43
    endloop
  endfacet
  facet normal 0 1 0
    outer loop
      vertex 148 30 43
      vertex 152 30 4
      vertex 148 30 4
    endloop
  endfacet
  facet normal 0 1 -0
    outer loop
      vertex 133 30 4
      vertex 129 30 43
      vertex 133 30 43
    endloop
  endfacet
  facet normal 0 1 0
    outer loop
      vertex 129 30 43
      vertex 133 30 4
      vertex 129 30 4
    endloop
  endfacet
  facet normal 0 1 -0
    outer loop
      vertex 114 30 4
      vertex 110 30 43
      vertex 114 30 43
    endloop
  endfacet
  facet normal 0 1 0
    outer loop
      vertex 110 30 43
      vertex 114 30 4
      vertex 110 30 4
    endloop
  endfacet
  facet normal 0 1 -0
    outer loop
      vertex 95 30 4
      vertex 91 30 43
      vertex 95 30 43
    endloop
  endfacet
  facet normal 0 1 0
    outer loop
      vertex 91 30 43
      vertex 95 30 4
      vertex 91 30 4
    endloop
  endfacet
  facet normal 0 1 -0
    outer loop
      vertex 76 30 4
      vertex 72 30 43
      vertex 76 30 43
    endloop
  endfacet
  facet normal 0 1 0
    outer loop
      vertex 72 30 43
      vertex 76 30 4
      vertex 72 30 4
    endloop
  endfacet
  facet normal 0 1 -0
    outer loop
      vertex 57 30 4
      vertex 53 30 43
      vertex 57 30 43
    endloop
  endfacet
  facet normal 0 1 0
    outer loop
      vertex 53 30 43
      vertex 57 30 4
      vertex 53 30 4
    endloop
  endfacet
  facet normal 0 1 -0
    outer loop
      vertex 38 30 4
      vertex 34 30 43
      vertex 38 30 43
    endloop
  endfacet
  facet normal 0 1 0
    outer loop
      vertex 34 30 43
      vertex 38 30 4
      vertex 34 30 4
    endloop
  endfacet
  facet normal 0 1 -0
    outer loop
      vertex 19 30 4
      vertex 15 30 43
      vertex 19 30 43
    endloop
  endfacet
  facet normal 0 1 0
    outer loop
      vertex 15 30 43
      vertex 19 30 4
      vertex 15 30 4
    endloop
  endfacet
  facet normal -0.951056 -0.309017 0
    outer loop
      vertex 10.5 15 0
      vertex 9.92705 16.7634 4
      vertex 9.92705 16.7634 0
    endloop
  endfacet
  facet normal -0.951056 -0.309017 0
    outer loop
      vertex 9.92705 16.7634 4
      vertex 10.5 15 0
      vertex 10.5 15 4
    endloop
  endfacet
  facet normal 0 -1 0
    outer loop
      vertex 6.57295 17.8532 0
      vertex 8.42705 17.8532 4
      vertex 6.57295 17.8532 4
    endloop
  endfacet
  facet normal 0 -1 -0
    outer loop
      vertex 8.42705 17.8532 4
      vertex 6.57295 17.8532 0
      vertex 8.42705 17.8532 0
    endloop
  endfacet
  facet normal -0.587785 -0.809017 0
    outer loop
      vertex 8.42705 17.8532 0
      vertex 9.92705 16.7634 4
      vertex 8.42705 17.8532 4
    endloop
  endfacet
  facet normal -0.587785 -0.809017 -0
    outer loop
      vertex 9.92705 16.7634 4
      vertex 8.42705 17.8532 0
      vertex 9.92705 16.7634 0
    endloop
  endfacet
  facet normal 0.587785 -0.809017 0
    outer loop
      vertex 5.07295 16.7634 0
      vertex 6.57295 17.8532 4
      vertex 5.07295 16.7634 4
    endloop
  endfacet
  facet normal 0.587785 -0.809017 0
    outer loop
      vertex 6.57295 17.8532 4
      vertex 5.07295 16.7634 0
      vertex 6.57295 17.8532 0
    endloop
  endfacet
  facet normal -0.587785 0.809017 0
    outer loop
      vertex 9.92705 13.2366 0
      vertex 8.42705 12.1468 4
      vertex 9.92705 13.2366 4
    endloop
  endfacet
  facet normal -0.587785 0.809017 0
    outer loop
      vertex 8.42705 12.1468 4
      vertex 9.92705 13.2366 0
      vertex 8.42705 12.1468 0
    endloop
  endfacet
  facet normal 0.587785 0.809017 -0
    outer loop
      vertex 6.57295 12.1468 0
      vertex 5.07295 13.2366 4
      vertex 6.57295 12.1468 4
    endloop
  endfacet
  facet normal 0.587785 0.809017 0
    outer loop
      vertex 5.07295 13.2366 4
      vertex 6.57295 12.1468 0
      vertex 5.07295 13.2366 0
    endloop
  endfacet
  facet normal 0.951057 -0.309017 0
    outer loop
      vertex 4.5 15 4
      vertex 5.07295 16.7634 0
      vertex 5.07295 16.7634 4
    endloop
  endfacet
  facet normal 0.951057 -0.309017 0
    outer loop
      vertex 5.07295 16.7634 0
      vertex 4.5 15 4
      vertex 4.5 15 0
    endloop
  endfacet
  facet normal -0.951056 0.309017 0
    outer loop
      vertex 9.92705 13.2366 0
      vertex 10.5 15 4
      vertex 10.5 15 0
    endloop
  endfacet
  facet normal -0.951056 0.309017 0
    outer loop
      vertex 10.5 15 4
      vertex 9.92705 13.2366 0
      vertex 9.92705 13.2366 4
    endloop
  endfacet
  facet normal 0 1 -0
    outer loop
      vertex 8.42705 12.1468 0
      vertex 6.57295 12.1468 4
      vertex 8.42705 12.1468 4
    endloop
  endfacet
  facet normal 0 1 0
    outer loop
      vertex 6.57295 12.1468 4
      vertex 8.42705 12.1468 0
      vertex 6.57295 12.1468 0
    endloop
  endfacet
  facet normal 0.951057 0.309017 0
    outer loop
      vertex 5.07295 13.2366 4
      vertex 4.5 15 0
      vertex 4.5 15 4
    endloop
  endfacet
  facet normal 0.951057 0.309017 0
    outer loop
      vertex 4.5 15 0
      vertex 5.07295 13.2366 4
      vertex 5.07295 13.2366 0
    endloop
  endfacet
  facet normal -1 0 0
    outer loop
      vertex 15 0 4
      vertex 15 30 43
      vertex 15 30 4
    endloop
  endfacet
  facet normal -1 -0 0
    outer loop
      vertex 15 30 43
      vertex 15 0 4
      vertex 15 0 43
    endloop
  endfacet
  facet normal -0 0 1
    outer loop
      vertex 15 30 43
      vertex 19 0 43
      vertex 19 30 43
    endloop
  endfacet
  facet normal 0 0 1
    outer loop
      vertex 19 0 43
      vertex 15 30 43
      vertex 15 0 43
    endloop
  endfacet
  facet normal 1 -0 0
    outer loop
      vertex 19 0 43
      vertex 19 30 4
      vertex 19 30 43
    endloop
  endfacet
  facet normal 1 0 0
    outer loop
      vertex 19 30 4
      vertex 19 0 43
      vertex 19 0 4
    endloop
  endfacet
  facet normal -1 0 0
    outer loop
      vertex 34 0 4
      vertex 34 30 43
      vertex 34 30 4
    endloop
  endfacet
  facet normal -1 -0 0
    outer loop
      vertex 34 30 43
      vertex 34 0 4
      vertex 34 0 43
    endloop
  endfacet
  facet normal -0 0 1
    outer loop
      vertex 34 30 43
      vertex 38 0 43
      vertex 38 30 43
    endloop
  endfacet
  facet normal 0 0 1
    outer loop
      vertex 38 0 43
      vertex 34 30 43
      vertex 34 0 43
    endloop
  endfacet
  facet normal 1 -0 0
    outer loop
      vertex 38 0 43
      vertex 38 30 4
      vertex 38 30 43
    endloop
  endfacet
  facet normal 1 0 0
    outer loop
      vertex 38 30 4
      vertex 38 0 43
      vertex 38 0 4
    endloop
  endfacet
  facet normal -1 0 0
    outer loop
      vertex 53 0 4
      vertex 53 30 43
      vertex 53 30 4
    endloop
  endfacet
  facet normal -1 -0 0
    outer loop
      vertex 53 30 43
      vertex 53 0 4
      vertex 53 0 43
    endloop
  endfacet
  facet normal -0 0 1
    outer loop
      vertex 53 30 43
      vertex 57 0 43
      vertex 57 30 43
    endloop
  endfacet
  facet normal 0 0 1
    outer loop
      vertex 57 0 43
      vertex 53 30 43
      vertex 53 0 43
    endloop
  endfacet
  facet normal 1 -0 0
    outer loop
      vertex 57 0 43
      vertex 57 30 4
      vertex 57 30 43
    endloop
  endfacet
  facet normal 1 0 0
    outer loop
      vertex 57 30 4
      vertex 57 0 43
      vertex 57 0 4
    endloop
  endfacet
  facet normal -1 0 0
    outer loop
      vertex 72 0 4
      vertex 72 30 43
      vertex 72 30 4
    endloop
  endfacet
  facet normal -1 -0 0
    outer loop
      vertex 72 30 43
      vertex 72 0 4
      vertex 72 0 43
    endloop
  endfacet
  facet normal -0 0 1
    outer loop
      vertex 72 30 43
      vertex 76 0 43
      vertex 76 30 43
    endloop
  endfacet
  facet normal 0 0 1
    outer loop
      vertex 76 0 43
      vertex 72 30 43
      vertex 72 0 43
    endloop
  endfacet
  facet normal 1 -0 0
    outer loop
      vertex 76 0 43
      vertex 76 30 4
      vertex 76 30 43
    endloop
  endfacet
  facet normal 1 0 0
    outer loop
      vertex 76 30 4
      vertex 76 0 43
      vertex 76 0 4
    endloop
  endfacet
  facet normal -1 0 0
    outer loop
      vertex 91 0 4
      vertex 91 30 43
      vertex 91 30 4
    endloop
  endfacet
  facet normal -1 -0 0
    outer loop
      vertex 91 30 43
      vertex 91 0 4
      vertex 91 0 43
    endloop
  endfacet
  facet normal -0 0 1
    outer loop
      vertex 91 30 43
      vertex 95 0 43
      vertex 95 30 43
    endloop
  endfacet
  facet normal 0 0 1
    outer loop
      vertex 95 0 43
      vertex 91 30 43
      vertex 91 0 43
    endloop
  endfacet
  facet normal 1 -0 0
    outer loop
      vertex 95 0 43
      vertex 95 30 4
      vertex 95 30 43
    endloop
  endfacet
  facet normal 1 0 0
    outer loop
      vertex 95 30 4
      vertex 95 0 43
      vertex 95 0 4
    endloop
  endfacet
  facet normal -1 0 0
    outer loop
      vertex 110 0 4
      vertex 110 30 43
      vertex 110 30 4
    endloop
  endfacet
  facet normal -1 -0 0
    outer loop
      vertex 110 30 43
      vertex 110 0 4
      vertex 110 0 43
    endloop
  endfacet
  facet normal -0 0 1
    outer loop
      vertex 110 30 43
      vertex 114 0 43
      vertex 114 30 43
    endloop
  endfacet
  facet normal 0 0 1
    outer loop
      vertex 114 0 43
      vertex 110 30 43
      vertex 110 0 43
    endloop
  endfacet
  facet normal 1 -0 0
    outer loop
      vertex 114 0 43
      vertex 114 30 4
      vertex 114 30 43
    endloop
  endfacet
  facet normal 1 0 0
    outer loop
      vertex 114 30 4
      vertex 114 0 43
      vertex 114 0 4
    endloop
  endfacet
  facet normal -1 0 0
    outer loop
      vertex 129 0 4
      vertex 129 30 43
      vertex 129 30 4
    endloop
  endfacet
  facet normal -1 -0 0
    outer loop
      vertex 129 30 43
      vertex 129 0 4
      vertex 129 0 43
    endloop
  endfacet
  facet normal -0 0 1
    outer loop
      vertex 129 30 43
      vertex 133 0 43
      vertex 133 30 43
    endloop
  endfacet
  facet normal 0 0 1
    outer loop
      vertex 133 0 43
      vertex 129 30 43
      vertex 129 0 43
    endloop
  endfacet
  facet normal 1 -0 0
    outer loop
      vertex 133 0 43
      vertex 133 30 4
      vertex 133 30 43
    endloop
  endfacet
  facet normal 1 0 0
    outer loop
      vertex 133 30 4
      vertex 133 0 43
      vertex 133 0 4
    endloop
  endfacet
  facet normal -1 0 0
    outer loop
      vertex 148 0 4
      vertex 148 30 43
      vertex 148 30 4
    endloop
  endfacet
  facet normal -1 -0 0
    outer loop
      vertex 148 30 43
      vertex 148 0 4
      vertex 148 0 43
    endloop
  endfacet
  facet normal -0 0 1
    outer loop
      vertex 148 30 43
      vertex 152 0 43
      vertex 152 30 43
    endloop
  endfacet
  facet normal 0 0 1
    outer loop
      vertex 152 0 43
      vertex 148 30 43
      vertex 148 0 43
    endloop
  endfacet
  facet normal 1 -0 0
    outer loop
      vertex 152 0 43
      vertex 152 30 4
      vertex 152 30 43
    endloop
  endfacet
  facet normal 1 0 0
    outer loop
      vertex 152 30 4
      vertex 152 0 43
      vertex 152 0 4
    endloop
  endfacet
  facet normal -1 0 0
    outer loop
      vertex 167 0 4
      vertex 167 30 43
      vertex 167 30 4
    endloop
  endfacet
  facet normal -1 -0 0
    outer loop
      vertex 167 30 43
      vertex 167 0 4
      vertex 167 0 43
    endloop
  endfacet
  facet normal -0 0 1
    outer loop
      vertex 167 30 43
      vertex 171 0 43
      vertex 171 30 43
    endloop
  endfacet
  facet normal 0 0 1
    outer loop
      vertex 171 0 43
      vertex 167 30 43
      vertex 167 0 43
    endloop
  endfacet
endsolid OpenSCAD_Model
