solid Sweep_226
 facet normal  0.996195 -0.087156 -0.000000
  outer loop
   vertex  49.240387 -8.682409  0.300000
   vertex  49.240387 -8.682409  0.000000
   vertex  50.000000  0.000000  0.300000
  endloop
 endfacet
 facet normal  0.965926 -0.258819 -0.000000
  outer loop
   vertex  49.240387 -8.682409  0.300000
   vertex  46.984631 -17.101007  0.000000
   vertex  49.240387 -8.682409  0.000000
  endloop
 endfacet
 facet normal  0.965926 -0.258819 -0.000000
  outer loop
   vertex  49.240387 -8.682409  0.300000
   vertex  46.984631 -17.101007  0.300000
   vertex  46.984631 -17.101007  0.000000
  endloop
 endfacet
 facet normal  0.906308 -0.422618 -0.000000
  outer loop
   vertex  46.984631 -17.101007  0.000000
   vertex  46.984631 -17.101007  0.300000
   vertex  43.301270 -25.000000  0.000000
  endloop
 endfacet
 facet normal  0.906308 -0.422618 -0.000000
  outer loop
   vertex  43.301270 -25.000000  0.000000
   vertex  46.984631 -17.101007  0.300000
   vertex  43.301270 -25.000000  0.300000
  endloop
 endfacet
 facet normal  0.819152 -0.573576 -0.000000
  outer loop
   vertex  38.302223 -32.139381  0.000000
   vertex  43.301270 -25.000000  0.300000
   vertex  38.302223 -32.139381  0.300000
  endloop
 endfacet
 facet normal  0.707107 -0.707107 -0.000000
  outer loop
   vertex  32.139381 -38.302223  0.000000
   vertex  38.302223 -32.139381  0.300000
   vertex  32.139381 -38.302223  0.300000
  endloop
 endfacet
 facet normal  0.573576 -0.819152 -0.000000
  outer loop
   vertex  25.000000 -43.301270  0.000000
   vertex  32.139381 -38.302223  0.300000
   vertex  25.000000 -43.301270  0.300000
  endloop
 endfacet
 facet normal  0.422618 -0.906308 -0.000000
  outer loop
   vertex  17.101007 -46.984631  0.000000
   vertex  25.000000 -43.301270  0.300000
   vertex  17.101007 -46.984631  0.300000
  endloop
 endfacet
 facet normal  0.258819 -0.965926 -0.000000
  outer loop
   vertex   8.682409 -49.240387  0.000000
   vertex  17.101007 -46.984631  0.300000
   vertex   8.682409 -49.240387  0.300000
  endloop
 endfacet
 facet normal  0.087156 -0.996195 -0.000000
  outer loop
   vertex  -0.000000 -50.000000  0.000000
   vertex   8.682409 -49.240387  0.300000
   vertex   0.000000 -50.000000  0.300000
  endloop
 endfacet
 facet normal -0.087156 -0.996195 -0.000000
  outer loop
   vertex  -8.682409 -49.240387  0.000000
   vertex   0.000000 -50.000000  0.300000
   vertex  -8.682409 -49.240387  0.300000
  endloop
 endfacet
 facet normal -0.258819 -0.965926 -0.000000
  outer loop
   vertex  -17.101007 -46.984631  0.000000
   vertex  -8.682409 -49.240387  0.300000
   vertex  -17.101007 -46.984631  0.300000
  endloop
 endfacet
 facet normal -0.422618 -0.906308 -0.000000
  outer loop
   vertex  -25.000000 -43.301270  0.000000
   vertex  -17.101007 -46.984631  0.300000
   vertex  -25.000000 -43.301270  0.300000
  endloop
 endfacet
 facet normal -0.573576 -0.819152 -0.000000
  outer loop
   vertex  -32.139381 -38.302223  0.000000
   vertex  -25.000000 -43.301270  0.300000
   vertex  -32.139381 -38.302223  0.300000
  endloop
 endfacet
 facet normal -0.707107 -0.707107 -0.000000
  outer loop
   vertex  -38.302223 -32.139381  0.000000
   vertex  -32.139381 -38.302223  0.300000
   vertex  -38.302223 -32.139381  0.300000
  endloop
 endfacet
 facet normal -0.819152 -0.573576 -0.000000
  outer loop
   vertex  -43.301270 -25.000000  0.000000
   vertex  -38.302223 -32.139381  0.300000
   vertex  -43.301270 -25.000000  0.300000
  endloop
 endfacet
 facet normal -0.906308 -0.422618 -0.000000
  outer loop
   vertex  -46.984631 -17.101007  0.000000
   vertex  -43.301270 -25.000000  0.300000
   vertex  -46.984631 -17.101007  0.300000
  endloop
 endfacet
 facet normal -0.965926 -0.258819 -0.000000
  outer loop
   vertex  -49.240387 -8.682409  0.000000
   vertex  -46.984631 -17.101007  0.300000
   vertex  -49.240387 -8.682409  0.300000
  endloop
 endfacet
 facet normal -0.996195 -0.087156 -0.000000
  outer loop
   vertex  -50.000000  0.000000  0.000000
   vertex  -49.240387 -8.682409  0.300000
   vertex  -50.000000 -0.000000  0.300000
  endloop
 endfacet
 facet normal -0.996195  0.087156 -0.000000
  outer loop
   vertex  -49.240387  8.682409  0.000000
   vertex  -50.000000 -0.000000  0.300000
   vertex  -49.240387  8.682409  0.300000
  endloop
 endfacet
 facet normal -0.965926  0.258819 -0.000000
  outer loop
   vertex  -46.984631 17.101007  0.000000
   vertex  -49.240387  8.682409  0.300000
   vertex  -46.984631 17.101007  0.300000
  endloop
 endfacet
 facet normal -0.906308  0.422618 -0.000000
  outer loop
   vertex  -43.301270 25.000000  0.000000
   vertex  -46.984631 17.101007  0.300000
   vertex  -43.301270 25.000000  0.300000
  endloop
 endfacet
 facet normal -0.819152  0.573576 -0.000000
  outer loop
   vertex  -38.302223 32.139381  0.000000
   vertex  -43.301270 25.000000  0.300000
   vertex  -38.302223 32.139381  0.300000
  endloop
 endfacet
 facet normal -0.707107  0.707107 -0.000000
  outer loop
   vertex  -32.139381 38.302223  0.000000
   vertex  -38.302223 32.139381  0.300000
   vertex  -32.139381 38.302223  0.300000
  endloop
 endfacet
 facet normal -0.573576  0.819152 -0.000000
  outer loop
   vertex  -25.000000 43.301270  0.000000
   vertex  -32.139381 38.302223  0.300000
   vertex  -25.000000 43.301270  0.300000
  endloop
 endfacet
 facet normal -0.422618  0.906308 -0.000000
  outer loop
   vertex  -17.101007 46.984631  0.000000
   vertex  -25.000000 43.301270  0.300000
   vertex  -17.101007 46.984631  0.300000
  endloop
 endfacet
 facet normal -0.258819  0.965926 -0.000000
  outer loop
   vertex  -8.682409 49.240387  0.000000
   vertex  -17.101007 46.984631  0.300000
   vertex  -8.682409 49.240387  0.300000
  endloop
 endfacet
 facet normal -0.087156  0.996195 -0.000000
  outer loop
   vertex   0.000000 50.000000  0.000000
   vertex  -8.682409 49.240387  0.300000
   vertex  -0.000000 50.000000  0.300000
  endloop
 endfacet
 facet normal  0.087156  0.996195  0.000000
  outer loop
   vertex   8.682409 49.240387  0.000000
   vertex  -0.000000 50.000000  0.300000
   vertex   8.682409 49.240387  0.300000
  endloop
 endfacet
 facet normal  0.258819  0.965926  0.000000
  outer loop
   vertex  17.101007 46.984631  0.000000
   vertex   8.682409 49.240387  0.300000
   vertex  17.101007 46.984631  0.300000
  endloop
 endfacet
 facet normal  0.422618  0.906308  0.000000
  outer loop
   vertex  25.000000 43.301270  0.000000
   vertex  17.101007 46.984631  0.300000
   vertex  25.000000 43.301270  0.300000
  endloop
 endfacet
 facet normal  0.573576  0.819152  0.000000
  outer loop
   vertex  32.139381 38.302223  0.000000
   vertex  25.000000 43.301270  0.300000
   vertex  32.139381 38.302223  0.300000
  endloop
 endfacet
 facet normal  0.707107  0.707107  0.000000
  outer loop
   vertex  38.302223 32.139381  0.000000
   vertex  32.139381 38.302223  0.300000
   vertex  38.302223 32.139381  0.300000
  endloop
 endfacet
 facet normal  0.819152  0.573576  0.000000
  outer loop
   vertex  43.301270 25.000000  0.000000
   vertex  38.302223 32.139381  0.300000
   vertex  43.301270 25.000000  0.300000
  endloop
 endfacet
 facet normal  0.906308  0.422618  0.000000
  outer loop
   vertex  46.984631 17.101007  0.000000
   vertex  43.301270 25.000000  0.300000
   vertex  46.984631 17.101007  0.300000
  endloop
 endfacet
 facet normal  0.965926  0.258819  0.000000
  outer loop
   vertex  49.240387  8.682409  0.000000
   vertex  46.984631 17.101007  0.300000
   vertex  49.240387  8.682409  0.300000
  endloop
 endfacet
 facet normal  0.996195  0.087156  0.000000
  outer loop
   vertex  50.000000  0.000000  0.000000
   vertex  49.240387  8.682409  0.300000
   vertex  50.000000  0.000000  0.300000
  endloop
 endfacet
 facet normal  0.996195 -0.087156 -0.000000
  outer loop
   vertex  49.240387 -8.682409  0.000000
   vertex  50.000000  0.000000  0.000000
   vertex  50.000000  0.000000  0.300000
  endloop
 endfacet
 facet normal  0.996195  0.087156  0.000000
  outer loop
   vertex  50.000000  0.000000  0.000000
   vertex  49.240387  8.682409  0.000000
   vertex  49.240387  8.682409  0.300000
  endloop
 endfacet
 facet normal  0.965926  0.258819  0.000000
  outer loop
   vertex  49.240387  8.682409  0.000000
   vertex  46.984631 17.101007  0.000000
   vertex  46.984631 17.101007  0.300000
  endloop
 endfacet
 facet normal  0.906308  0.422618  0.000000
  outer loop
   vertex  46.984631 17.101007  0.000000
   vertex  43.301270 25.000000  0.000000
   vertex  43.301270 25.000000  0.300000
  endloop
 endfacet
 facet normal  0.819152  0.573576  0.000000
  outer loop
   vertex  43.301270 25.000000  0.000000
   vertex  38.302223 32.139381  0.000000
   vertex  38.302223 32.139381  0.300000
  endloop
 endfacet
 facet normal  0.707107  0.707107  0.000000
  outer loop
   vertex  38.302223 32.139381  0.000000
   vertex  32.139381 38.302223  0.000000
   vertex  32.139381 38.302223  0.300000
  endloop
 endfacet
 facet normal  0.573576  0.819152  0.000000
  outer loop
   vertex  32.139381 38.302223  0.000000
   vertex  25.000000 43.301270  0.000000
   vertex  25.000000 43.301270  0.300000
  endloop
 endfacet
 facet normal  0.422618  0.906308  0.000000
  outer loop
   vertex  25.000000 43.301270  0.000000
   vertex  17.101007 46.984631  0.000000
   vertex  17.101007 46.984631  0.300000
  endloop
 endfacet
 facet normal  0.258819  0.965926  0.000000
  outer loop
   vertex  17.101007 46.984631  0.000000
   vertex   8.682409 49.240387  0.000000
   vertex   8.682409 49.240387  0.300000
  endloop
 endfacet
 facet normal  0.087156  0.996195  0.000000
  outer loop
   vertex   8.682409 49.240387  0.000000
   vertex   0.000000 50.000000  0.000000
   vertex  -0.000000 50.000000  0.300000
  endloop
 endfacet
 facet normal -0.087156  0.996195 -0.000000
  outer loop
   vertex   0.000000 50.000000  0.000000
   vertex  -8.682409 49.240387  0.000000
   vertex  -8.682409 49.240387  0.300000
  endloop
 endfacet
 facet normal -0.258819  0.965926 -0.000000
  outer loop
   vertex  -8.682409 49.240387  0.000000
   vertex  -17.101007 46.984631  0.000000
   vertex  -17.101007 46.984631  0.300000
  endloop
 endfacet
 facet normal -0.422618  0.906308 -0.000000
  outer loop
   vertex  -17.101007 46.984631  0.000000
   vertex  -25.000000 43.301270  0.000000
   vertex  -25.000000 43.301270  0.300000
  endloop
 endfacet
 facet normal -0.573576  0.819152 -0.000000
  outer loop
   vertex  -25.000000 43.301270  0.000000
   vertex  -32.139381 38.302223  0.000000
   vertex  -32.139381 38.302223  0.300000
  endloop
 endfacet
 facet normal -0.707107  0.707107 -0.000000
  outer loop
   vertex  -32.139381 38.302223  0.000000
   vertex  -38.302223 32.139381  0.000000
   vertex  -38.302223 32.139381  0.300000
  endloop
 endfacet
 facet normal -0.819152  0.573576 -0.000000
  outer loop
   vertex  -38.302223 32.139381  0.000000
   vertex  -43.301270 25.000000  0.000000
   vertex  -43.301270 25.000000  0.300000
  endloop
 endfacet
 facet normal -0.906308  0.422618 -0.000000
  outer loop
   vertex  -43.301270 25.000000  0.000000
   vertex  -46.984631 17.101007  0.000000
   vertex  -46.984631 17.101007  0.300000
  endloop
 endfacet
 facet normal -0.965926  0.258819 -0.000000
  outer loop
   vertex  -46.984631 17.101007  0.000000
   vertex  -49.240387  8.682409  0.000000
   vertex  -49.240387  8.682409  0.300000
  endloop
 endfacet
 facet normal -0.996195  0.087156  0.000000
  outer loop
   vertex  -49.240387  8.682409  0.000000
   vertex  -50.000000  0.000000  0.000000
   vertex  -50.000000 -0.000000  0.300000
  endloop
 endfacet
 facet normal -0.996195 -0.087156 -0.000000
  outer loop
   vertex  -50.000000  0.000000  0.000000
   vertex  -49.240387 -8.682409  0.000000
   vertex  -49.240387 -8.682409  0.300000
  endloop
 endfacet
 facet normal -0.965926 -0.258819 -0.000000
  outer loop
   vertex  -49.240387 -8.682409  0.000000
   vertex  -46.984631 -17.101007  0.000000
   vertex  -46.984631 -17.101007  0.300000
  endloop
 endfacet
 facet normal -0.906308 -0.422618 -0.000000
  outer loop
   vertex  -46.984631 -17.101007  0.000000
   vertex  -43.301270 -25.000000  0.000000
   vertex  -43.301270 -25.000000  0.300000
  endloop
 endfacet
 facet normal -0.819152 -0.573576 -0.000000
  outer loop
   vertex  -43.301270 -25.000000  0.000000
   vertex  -38.302223 -32.139381  0.000000
   vertex  -38.302223 -32.139381  0.300000
  endloop
 endfacet
 facet normal -0.707107 -0.707107 -0.000000
  outer loop
   vertex  -38.302223 -32.139381  0.000000
   vertex  -32.139381 -38.302223  0.000000
   vertex  -32.139381 -38.302223  0.300000
  endloop
 endfacet
 facet normal -0.573576 -0.819152 -0.000000
  outer loop
   vertex  -32.139381 -38.302223  0.000000
   vertex  -25.000000 -43.301270  0.000000
   vertex  -25.000000 -43.301270  0.300000
  endloop
 endfacet
 facet normal -0.422618 -0.906308 -0.000000
  outer loop
   vertex  -25.000000 -43.301270  0.000000
   vertex  -17.101007 -46.984631  0.000000
   vertex  -17.101007 -46.984631  0.300000
  endloop
 endfacet
 facet normal -0.258819 -0.965926 -0.000000
  outer loop
   vertex  -17.101007 -46.984631  0.000000
   vertex  -8.682409 -49.240387  0.000000
   vertex  -8.682409 -49.240387  0.300000
  endloop
 endfacet
 facet normal -0.087156 -0.996195  0.000000
  outer loop
   vertex  -8.682409 -49.240387  0.000000
   vertex  -0.000000 -50.000000  0.000000
   vertex   0.000000 -50.000000  0.300000
  endloop
 endfacet
 facet normal  0.087156 -0.996195 -0.000000
  outer loop
   vertex  -0.000000 -50.000000  0.000000
   vertex   8.682409 -49.240387  0.000000
   vertex   8.682409 -49.240387  0.300000
  endloop
 endfacet
 facet normal  0.258819 -0.965926 -0.000000
  outer loop
   vertex   8.682409 -49.240387  0.000000
   vertex  17.101007 -46.984631  0.000000
   vertex  17.101007 -46.984631  0.300000
  endloop
 endfacet
 facet normal  0.422618 -0.906308 -0.000000
  outer loop
   vertex  17.101007 -46.984631  0.000000
   vertex  25.000000 -43.301270  0.000000
   vertex  25.000000 -43.301270  0.300000
  endloop
 endfacet
 facet normal  0.573576 -0.819152 -0.000000
  outer loop
   vertex  25.000000 -43.301270  0.000000
   vertex  32.139381 -38.302223  0.000000
   vertex  32.139381 -38.302223  0.300000
  endloop
 endfacet
 facet normal  0.707107 -0.707107 -0.000000
  outer loop
   vertex  32.139381 -38.302223  0.000000
   vertex  38.302223 -32.139381  0.000000
   vertex  38.302223 -32.139381  0.300000
  endloop
 endfacet
 facet normal  0.819152 -0.573576 -0.000000
  outer loop
   vertex  38.302223 -32.139381  0.000000
   vertex  43.301270 -25.000000  0.000000
   vertex  43.301270 -25.000000  0.300000
  endloop
 endfacet
 facet normal -0.000000 -0.000000 -1.000000
  outer loop
   vertex   8.682409 -49.240387  0.000000
   vertex  -8.682409 -49.240387  0.000000
   vertex  17.101007 -46.984631  0.000000
  endloop
 endfacet
 facet normal  0.000000 -0.000000 -1.000000
  outer loop
   vertex   8.682409 -49.240387  0.000000
   vertex  -0.000000 -50.000000  0.000000
   vertex  -8.682409 -49.240387  0.000000
  endloop
 endfacet
 facet normal -0.000000 -0.000000 -1.000000
  outer loop
   vertex  17.101007 -46.984631  0.000000
   vertex  -17.101007 -46.984631  0.000000
   vertex  25.000000 -43.301270  0.000000
  endloop
 endfacet
 facet normal  0.000000 -0.000000 -1.000000
  outer loop
   vertex  17.101007 -46.984631  0.000000
   vertex  -8.682409 -49.240387  0.000000
   vertex  -17.101007 -46.984631  0.000000
  endloop
 endfacet
 facet normal -0.000000 -0.000000 -1.000000
  outer loop
   vertex  25.000000 -43.301270  0.000000
   vertex  -25.000000 -43.301270  0.000000
   vertex  32.139381 -38.302223  0.000000
  endloop
 endfacet
 facet normal  0.000000 -0.000000 -1.000000
  outer loop
   vertex  25.000000 -43.301270  0.000000
   vertex  -17.101007 -46.984631  0.000000
   vertex  -25.000000 -43.301270  0.000000
  endloop
 endfacet
 facet normal -0.000000 -0.000000 -1.000000
  outer loop
   vertex  32.139381 -38.302223  0.000000
   vertex  -32.139381 -38.302223  0.000000
   vertex  38.302223 -32.139381  0.000000
  endloop
 endfacet
 facet normal  0.000000 -0.000000 -1.000000
  outer loop
   vertex  32.139381 -38.302223  0.000000
   vertex  -25.000000 -43.301270  0.000000
   vertex  -32.139381 -38.302223  0.000000
  endloop
 endfacet
 facet normal -0.000000 -0.000000 -1.000000
  outer loop
   vertex  -32.139381 -38.302223  0.000000
   vertex  -38.302223 -32.139381  0.000000
   vertex  38.302223 -32.139381  0.000000
  endloop
 endfacet
 facet normal -0.000000 -0.000000 -1.000000
  outer loop
   vertex  38.302223 -32.139381  0.000000
   vertex  -38.302223 -32.139381  0.000000
   vertex  43.301270 -25.000000  0.000000
  endloop
 endfacet
 facet normal  0.000000 -0.000000 -1.000000
  outer loop
   vertex  43.301270 -25.000000  0.000000
   vertex  -38.302223 -32.139381  0.000000
   vertex  -43.301270 -25.000000  0.000000
  endloop
 endfacet
 facet normal  0.000000 -0.000000 -1.000000
  outer loop
   vertex  46.984631 -17.101007  0.000000
   vertex  -43.301270 -25.000000  0.000000
   vertex  -46.984631 -17.101007  0.000000
  endloop
 endfacet
 facet normal  0.000000 -0.000000 -1.000000
  outer loop
   vertex  49.240387 -8.682409  0.000000
   vertex  -46.984631 -17.101007  0.000000
   vertex  -49.240387 -8.682409  0.000000
  endloop
 endfacet
 facet normal -0.000000 -0.000000 -1.000000
  outer loop
   vertex  50.000000  0.000000  0.000000
   vertex  -49.240387 -8.682409  0.000000
   vertex  -50.000000  0.000000  0.000000
  endloop
 endfacet
 facet normal  0.000000 -0.000000 -1.000000
  outer loop
   vertex  49.240387  8.682409  0.000000
   vertex  -50.000000  0.000000  0.000000
   vertex  -49.240387  8.682409  0.000000
  endloop
 endfacet
 facet normal  0.000000 -0.000000 -1.000000
  outer loop
   vertex  46.984631 17.101007  0.000000
   vertex  -49.240387  8.682409  0.000000
   vertex  -46.984631 17.101007  0.000000
  endloop
 endfacet
 facet normal  0.000000 -0.000000 -1.000000
  outer loop
   vertex  43.301270 25.000000  0.000000
   vertex  -46.984631 17.101007  0.000000
   vertex  -43.301270 25.000000  0.000000
  endloop
 endfacet
 facet normal  0.000000 -0.000000 -1.000000
  outer loop
   vertex  38.302223 32.139381  0.000000
   vertex  -43.301270 25.000000  0.000000
   vertex  -38.302223 32.139381  0.000000
  endloop
 endfacet
 facet normal  0.000000 -0.000000 -1.000000
  outer loop
   vertex  32.139381 38.302223  0.000000
   vertex  -38.302223 32.139381  0.000000
   vertex  -32.139381 38.302223  0.000000
  endloop
 endfacet
 facet normal  0.000000 -0.000000 -1.000000
  outer loop
   vertex  25.000000 43.301270  0.000000
   vertex  -32.139381 38.302223  0.000000
   vertex  -25.000000 43.301270  0.000000
  endloop
 endfacet
 facet normal  0.000000 -0.000000 -1.000000
  outer loop
   vertex  17.101007 46.984631  0.000000
   vertex  -25.000000 43.301270  0.000000
   vertex  -17.101007 46.984631  0.000000
  endloop
 endfacet
 facet normal  0.000000 -0.000000 -1.000000
  outer loop
   vertex   8.682409 49.240387  0.000000
   vertex  -17.101007 46.984631  0.000000
   vertex  -8.682409 49.240387  0.000000
  endloop
 endfacet
 facet normal -0.000000 -0.000000 -1.000000
  outer loop
   vertex   0.000000 50.000000  0.000000
   vertex   8.682409 49.240387  0.000000
   vertex  -8.682409 49.240387  0.000000
  endloop
 endfacet
 facet normal -0.000000 -0.000000 -1.000000
  outer loop
   vertex   8.682409 49.240387  0.000000
   vertex  17.101007 46.984631  0.000000
   vertex  -17.101007 46.984631  0.000000
  endloop
 endfacet
 facet normal -0.000000 -0.000000 -1.000000
  outer loop
   vertex  17.101007 46.984631  0.000000
   vertex  25.000000 43.301270  0.000000
   vertex  -25.000000 43.301270  0.000000
  endloop
 endfacet
 facet normal -0.000000 -0.000000 -1.000000
  outer loop
   vertex  25.000000 43.301270  0.000000
   vertex  32.139381 38.302223  0.000000
   vertex  -32.139381 38.302223  0.000000
  endloop
 endfacet
 facet normal -0.000000 -0.000000 -1.000000
  outer loop
   vertex  32.139381 38.302223  0.000000
   vertex  38.302223 32.139381  0.000000
   vertex  -38.302223 32.139381  0.000000
  endloop
 endfacet
 facet normal -0.000000 -0.000000 -1.000000
  outer loop
   vertex  38.302223 32.139381  0.000000
   vertex  43.301270 25.000000  0.000000
   vertex  -43.301270 25.000000  0.000000
  endloop
 endfacet
 facet normal -0.000000 -0.000000 -1.000000
  outer loop
   vertex  43.301270 25.000000  0.000000
   vertex  46.984631 17.101007  0.000000
   vertex  -46.984631 17.101007  0.000000
  endloop
 endfacet
 facet normal -0.000000 -0.000000 -1.000000
  outer loop
   vertex  46.984631 17.101007  0.000000
   vertex  49.240387  8.682409  0.000000
   vertex  -49.240387  8.682409  0.000000
  endloop
 endfacet
 facet normal  0.000000 -0.000000 -1.000000
  outer loop
   vertex  49.240387  8.682409  0.000000
   vertex  50.000000  0.000000  0.000000
   vertex  -50.000000  0.000000  0.000000
  endloop
 endfacet
 facet normal -0.000000 -0.000000 -1.000000
  outer loop
   vertex  43.301270 -25.000000  0.000000
   vertex  -43.301270 -25.000000  0.000000
   vertex  46.984631 -17.101007  0.000000
  endloop
 endfacet
 facet normal -0.000000 -0.000000 -1.000000
  outer loop
   vertex  46.984631 -17.101007  0.000000
   vertex  -46.984631 -17.101007  0.000000
   vertex  49.240387 -8.682409  0.000000
  endloop
 endfacet
 facet normal -0.000000 -0.000000 -1.000000
  outer loop
   vertex  49.240387 -8.682409  0.000000
   vertex  -49.240387 -8.682409  0.000000
   vertex  50.000000  0.000000  0.000000
  endloop
 endfacet
 facet normal -0.000000 -0.000000  1.000000
  outer loop
   vertex   8.682409 49.240387  0.300000
   vertex  -8.682409 49.240387  0.300000
   vertex  17.101007 46.984631  0.300000
  endloop
 endfacet
 facet normal -0.000000 -0.000000  1.000000
  outer loop
   vertex   8.682409 49.240387  0.300000
   vertex  -0.000000 50.000000  0.300000
   vertex  -8.682409 49.240387  0.300000
  endloop
 endfacet
 facet normal -0.000000 -0.000000  1.000000
  outer loop
   vertex  17.101007 46.984631  0.300000
   vertex  -17.101007 46.984631  0.300000
   vertex  25.000000 43.301270  0.300000
  endloop
 endfacet
 facet normal -0.000000 -0.000000  1.000000
  outer loop
   vertex  17.101007 46.984631  0.300000
   vertex  -8.682409 49.240387  0.300000
   vertex  -17.101007 46.984631  0.300000
  endloop
 endfacet
 facet normal -0.000000 -0.000000  1.000000
  outer loop
   vertex  25.000000 43.301270  0.300000
   vertex  -25.000000 43.301270  0.300000
   vertex  32.139381 38.302223  0.300000
  endloop
 endfacet
 facet normal -0.000000 -0.000000  1.000000
  outer loop
   vertex  25.000000 43.301270  0.300000
   vertex  -17.101007 46.984631  0.300000
   vertex  -25.000000 43.301270  0.300000
  endloop
 endfacet
 facet normal -0.000000 -0.000000  1.000000
  outer loop
   vertex  32.139381 38.302223  0.300000
   vertex  -32.139381 38.302223  0.300000
   vertex  38.302223 32.139381  0.300000
  endloop
 endfacet
 facet normal -0.000000 -0.000000  1.000000
  outer loop
   vertex  32.139381 38.302223  0.300000
   vertex  -25.000000 43.301270  0.300000
   vertex  -32.139381 38.302223  0.300000
  endloop
 endfacet
 facet normal -0.000000 -0.000000  1.000000
  outer loop
   vertex  -32.139381 38.302223  0.300000
   vertex  -38.302223 32.139381  0.300000
   vertex  38.302223 32.139381  0.300000
  endloop
 endfacet
 facet normal -0.000000 -0.000000  1.000000
  outer loop
   vertex  38.302223 32.139381  0.300000
   vertex  -38.302223 32.139381  0.300000
   vertex  43.301270 25.000000  0.300000
  endloop
 endfacet
 facet normal -0.000000 -0.000000  1.000000
  outer loop
   vertex  43.301270 25.000000  0.300000
   vertex  -38.302223 32.139381  0.300000
   vertex  -43.301270 25.000000  0.300000
  endloop
 endfacet
 facet normal -0.000000 -0.000000  1.000000
  outer loop
   vertex  46.984631 17.101007  0.300000
   vertex  -43.301270 25.000000  0.300000
   vertex  -46.984631 17.101007  0.300000
  endloop
 endfacet
 facet normal -0.000000 -0.000000  1.000000
  outer loop
   vertex  49.240387  8.682409  0.300000
   vertex  -46.984631 17.101007  0.300000
   vertex  -49.240387  8.682409  0.300000
  endloop
 endfacet
 facet normal -0.000000 -0.000000  1.000000
  outer loop
   vertex  50.000000  0.000000  0.300000
   vertex  -49.240387  8.682409  0.300000
   vertex  -50.000000 -0.000000  0.300000
  endloop
 endfacet
 facet normal -0.000000 -0.000000  1.000000
  outer loop
   vertex  49.240387 -8.682409  0.300000
   vertex  -50.000000 -0.000000  0.300000
   vertex  -49.240387 -8.682409  0.300000
  endloop
 endfacet
 facet normal -0.000000 -0.000000  1.000000
  outer loop
   vertex  46.984631 -17.101007  0.300000
   vertex  -49.240387 -8.682409  0.300000
   vertex  -46.984631 -17.101007  0.300000
  endloop
 endfacet
 facet normal -0.000000 -0.000000  1.000000
  outer loop
   vertex  43.301270 -25.000000  0.300000
   vertex  -46.984631 -17.101007  0.300000
   vertex  -43.301270 -25.000000  0.300000
  endloop
 endfacet
 facet normal -0.000000 -0.000000  1.000000
  outer loop
   vertex  38.302223 -32.139381  0.300000
   vertex  -43.301270 -25.000000  0.300000
   vertex  -38.302223 -32.139381  0.300000
  endloop
 endfacet
 facet normal -0.000000 -0.000000  1.000000
  outer loop
   vertex  32.139381 -38.302223  0.300000
   vertex  -38.302223 -32.139381  0.300000
   vertex  -32.139381 -38.302223  0.300000
  endloop
 endfacet
 facet normal -0.000000 -0.000000  1.000000
  outer loop
   vertex  25.000000 -43.301270  0.300000
   vertex  -32.139381 -38.302223  0.300000
   vertex  -25.000000 -43.301270  0.300000
  endloop
 endfacet
 facet normal -0.000000 -0.000000  1.000000
  outer loop
   vertex  17.101007 -46.984631  0.300000
   vertex  -25.000000 -43.301270  0.300000
   vertex  -17.101007 -46.984631  0.300000
  endloop
 endfacet
 facet normal -0.000000 -0.000000  1.000000
  outer loop
   vertex   8.682409 -49.240387  0.300000
   vertex  -17.101007 -46.984631  0.300000
   vertex  -8.682409 -49.240387  0.300000
  endloop
 endfacet
 facet normal -0.000000 -0.000000  1.000000
  outer loop
   vertex   0.000000 -50.000000  0.300000
   vertex   8.682409 -49.240387  0.300000
   vertex  -8.682409 -49.240387  0.300000
  endloop
 endfacet
 facet normal -0.000000 -0.000000  1.000000
  outer loop
   vertex   8.682409 -49.240387  0.300000
   vertex  17.101007 -46.984631  0.300000
   vertex  -17.101007 -46.984631  0.300000
  endloop
 endfacet
 facet normal -0.000000 -0.000000  1.000000
  outer loop
   vertex  17.101007 -46.984631  0.300000
   vertex  25.000000 -43.301270  0.300000
   vertex  -25.000000 -43.301270  0.300000
  endloop
 endfacet
 facet normal -0.000000 -0.000000  1.000000
  outer loop
   vertex  25.000000 -43.301270  0.300000
   vertex  32.139381 -38.302223  0.300000
   vertex  -32.139381 -38.302223  0.300000
  endloop
 endfacet
 facet normal -0.000000 -0.000000  1.000000
  outer loop
   vertex  32.139381 -38.302223  0.300000
   vertex  38.302223 -32.139381  0.300000
   vertex  -38.302223 -32.139381  0.300000
  endloop
 endfacet
 facet normal -0.000000 -0.000000  1.000000
  outer loop
   vertex  38.302223 -32.139381  0.300000
   vertex  43.301270 -25.000000  0.300000
   vertex  -43.301270 -25.000000  0.300000
  endloop
 endfacet
 facet normal -0.000000 -0.000000  1.000000
  outer loop
   vertex  43.301270 -25.000000  0.300000
   vertex  46.984631 -17.101007  0.300000
   vertex  -46.984631 -17.101007  0.300000
  endloop
 endfacet
 facet normal -0.000000 -0.000000  1.000000
  outer loop
   vertex  46.984631 -17.101007  0.300000
   vertex  49.240387 -8.682409  0.300000
   vertex  -49.240387 -8.682409  0.300000
  endloop
 endfacet
 facet normal -0.000000 -0.000000  1.000000
  outer loop
   vertex  49.240387 -8.682409  0.300000
   vertex  50.000000  0.000000  0.300000
   vertex  -50.000000 -0.000000  0.300000
  endloop
 endfacet
 facet normal  0.000000  0.000000  1.000000
  outer loop
   vertex  -49.240387  8.682409  0.300000
   vertex  50.000000  0.000000  0.300000
   vertex  49.240387  8.682409  0.300000
  endloop
 endfacet
 facet normal  0.000000  0.000000  1.000000
  outer loop
   vertex  -46.984631 17.101007  0.300000
   vertex  49.240387  8.682409  0.300000
   vertex  46.984631 17.101007  0.300000
  endloop
 endfacet
 facet normal  0.000000  0.000000  1.000000
  outer loop
   vertex  -43.301270 25.000000  0.300000
   vertex  46.984631 17.101007  0.300000
   vertex  43.301270 25.000000  0.300000
  endloop
 endfacet
endsolid
